<svg xmlns="http://www.w3.org/2000/svg" xmlns:xlink="http://www.w3.org/1999/xlink" viewBox="0 0 173.7 273.44"><defs><style>.cls-1{isolation:isolate;}.cls-2{fill:#4c0e45;opacity:0.1;mix-blend-mode:multiply;}.cls-3{fill:#590800;}.cls-4{fill:#e1784e;}.cls-5{fill:url(#åçûìßííûé_ãðàäèåíò_22);}.cls-6{fill:url(#åçûìßííûé_ãðàäèåíò_22-2);}.cls-7{fill:#fe9300;}.cls-8{fill:#c4552d;}.cls-9{fill:url(#åçûìßííûé_ãðàäèåíò_49);}.cls-10{fill:#460030;}.cls-11{fill:url(#åçûìßííûé_ãðàäèåíò_30);}.cls-12{fill:#fff;}.cls-13{fill:url(#åçûìßííûé_ãðàäèåíò_3);}.cls-14{fill:url(#åçûìßííûé_ãðàäèåíò_3-2);}.cls-15{fill:url(#åçûìßííûé_ãðàäèåíò_86);}.cls-16{fill:#b26485;opacity:0.2;}.cls-17{fill:url(#åçûìßííûé_ãðàäèåíò_43);}.cls-18{fill:url(#åçûìßííûé_ãðàäèåíò_43-2);}.cls-19,.cls-20,.cls-21,.cls-25{opacity:0.5;}.cls-19{fill:url(#åçûìßííûé_ãðàäèåíò_49-2);}.cls-20{fill:url(#åçûìßííûé_ãðàäèåíò_49-3);}.cls-22{fill:#f47100;}.cls-23{fill:#6f0800;}.cls-24{fill:#003363;}.cls-25{fill:#ffbf10;}.cls-26{fill:#630e41;}.cls-27{fill:url(#åçûìßííûé_ãðàäèåíò_43-3);}.cls-28{fill:url(#åçûìßííûé_ãðàäèåíò_43-4);}.cls-29{fill:url(#åçûìßííûé_ãðàäèåíò_30-2);}.cls-30{fill:#88271d;}.cls-31{fill:url(#åçûìßííûé_ãðàäèåíò_22-3);}.cls-32{fill:url(#åçûìßííûé_ãðàäèåíò_22-4);}.cls-33{fill:url(#åçûìßííûé_ãðàäèåíò_30-3);}.cls-34{fill:url(#åçûìßííûé_ãðàäèåíò_30-4);}.cls-35{fill:url(#åçûìßííûé_ãðàäèåíò_30-5);}.cls-36{fill:#c989ff;}.cls-37{fill:url(#åçûìßííûé_ãðàäèåíò_30-6);}.cls-38{fill:url(#åçûìßííûé_ãðàäèåíò_3-3);}.cls-39{fill:url(#åçûìßííûé_ãðàäèåíò_3-4);}.cls-40{fill:#db595c;}.cls-41{fill:#ad1834;}.cls-42{fill:url(#åçûìßííûé_ãðàäèåíò_86-2);}.cls-43{fill:#db9fff;}.cls-44{fill:url(#åçûìßííûé_ãðàäèåíò_99);}.cls-45{fill:url(#åçûìßííûé_ãðàäèåíò_99-2);}.cls-46{fill:url(#åçûìßííûé_ãðàäèåíò_22-5);}.cls-47{fill:url(#åçûìßííûé_ãðàäèåíò_22-6);}.cls-48{fill:url(#åçûìßííûé_ãðàäèåíò_99-3);}.cls-49{fill:url(#åçûìßííûé_ãðàäèåíò_99-4);}.cls-50{fill:#c977ff;}.cls-51{fill:url(#åçûìßííûé_ãðàäèåíò_99-5);}.cls-52{fill:url(#åçûìßííûé_ãðàäèåíò_99-6);}.cls-53{fill:url(#åçûìßííûé_ãðàäèåíò_30-7);}</style><linearGradient id="åçûìßííûé_ãðàäèåíò_22" x1="92.46" y1="248.19" x2="116.98" y2="248.19" gradientUnits="userSpaceOnUse"><stop offset="0" stop-color="#ddf8fd"/><stop offset="1" stop-color="#8290c5"/></linearGradient><linearGradient id="åçûìßííûé_ãðàäèåíò_22-2" x1="117.8" y1="254.23" x2="136.27" y2="254.23" xlink:href="#åçûìßííûé_ãðàäèåíò_22"/><linearGradient id="åçûìßííûé_ãðàäèåíò_49" x1="96.28" y1="108.56" x2="96.28" y2="70.68" gradientUnits="userSpaceOnUse"><stop offset="0" stop-color="#8ba7fd"/><stop offset="1" stop-color="#95baff"/></linearGradient><linearGradient id="åçûìßííûé_ãðàäèåíò_30" x1="117.76" y1="64.62" x2="112.69" y2="27.56" gradientUnits="userSpaceOnUse"><stop offset="0" stop-color="#fdc38b"/><stop offset="1" stop-color="#fda37d"/></linearGradient><linearGradient id="åçûìßííûé_ãðàäèåíò_3" x1="117.01" y1="44.14" x2="121.37" y2="44.14" gradientUnits="userSpaceOnUse"><stop offset="0" stop-color="#a43113"/><stop offset="1" stop-color="#6f160d"/></linearGradient><linearGradient id="åçûìßííûé_ãðàäèåíò_3-2" x1="102.97" y1="44.88" x2="105.86" y2="44.88" xlink:href="#åçûìßííûé_ãðàäèåíò_3"/><linearGradient id="åçûìßííûé_ãðàäèåíò_86" x1="94.06" y1="29.26" x2="138.92" y2="29.26" gradientUnits="userSpaceOnUse"><stop offset="0" stop-color="#7d1831"/><stop offset="1" stop-color="#5c0000"/></linearGradient><linearGradient id="åçûìßííûé_ãðàäèåíò_43" x1="117.52" y1="153.6" x2="117.52" y2="67.91" gradientUnits="userSpaceOnUse"><stop offset="0" stop-color="#c4f7fd"/><stop offset="1" stop-color="#a6ddff"/></linearGradient><linearGradient id="åçûìßííûé_ãðàäèåíò_43-2" x1="139.01" y1="113.56" x2="139.01" y2="70.79" xlink:href="#åçûìßííûé_ãðàäèåíò_43"/><linearGradient id="åçûìßííûé_ãðàäèåíò_49-2" x1="122.23" y1="110.25" x2="122.23" y2="67.91" xlink:href="#åçûìßííûé_ãðàäèåíò_49"/><linearGradient id="åçûìßííûé_ãðàäèåíò_49-3" x1="121.33" y1="149.17" x2="121.33" y2="91.59" xlink:href="#åçûìßííûé_ãðàäèåíò_49"/><linearGradient id="åçûìßííûé_ãðàäèåíò_43-3" x1="133.32" y1="157.96" x2="133.32" y2="139.59" xlink:href="#åçûìßííûé_ãðàäèåíò_43"/><linearGradient id="åçûìßííûé_ãðàäèåíò_43-4" x1="158.26" y1="149.53" x2="158.26" y2="135.92" xlink:href="#åçûìßííûé_ãðàäèåíò_43"/><linearGradient id="åçûìßííûé_ãðàäèåíò_30-2" x1="146.53" y1="162.11" x2="140.79" y2="120.17" xlink:href="#åçûìßííûé_ãðàäèåíò_30"/><linearGradient id="åçûìßííûé_ãðàäèåíò_22-3" x1="7787.98" y1="250.39" x2="7800.02" y2="250.39" gradientTransform="matrix(-1, 0, 0, 1, 7832.08, 0)" xlink:href="#åçûìßííûé_ãðàäèåíò_22"/><linearGradient id="åçûìßííûé_ãðàäèåíò_22-4" x1="7759.52" y1="250.64" x2="7770.5" y2="250.64" gradientTransform="matrix(-1, 0, 0, 1, 7832.08, 0)" xlink:href="#åçûìßííûé_ãðàäèåíò_22"/><linearGradient id="åçûìßííûé_ãðàäèåíò_30-3" x1="7767.26" y1="242.55" x2="7757.45" y2="170.82" gradientTransform="matrix(-1, 0, 0, 1, 7832.08, 0)" xlink:href="#åçûìßííûé_ãðàäèåíò_30"/><linearGradient id="åçûìßííûé_ãðàäèåíò_30-4" x1="7791.37" y1="240.92" x2="7782.29" y2="174.52" gradientTransform="matrix(-1, 0, 0, 1, 7832.08, 0)" xlink:href="#åçûìßííûé_ãðàäèåíò_30"/><linearGradient id="åçûìßííûé_ãðàäèåíò_30-5" x1="7795.68" y1="165.91" x2="7786.09" y2="95.78" gradientTransform="matrix(-1, 0, 0, 1, 7832.08, 0)" xlink:href="#åçûìßííûé_ãðàäèåíò_30"/><linearGradient id="åçûìßííûé_ãðàäèåíò_30-6" x1="7775.35" y1="71.42" x2="7770.07" y2="32.83" gradientTransform="matrix(-1, 0, 0, 1, 7832.08, 0)" xlink:href="#åçûìßííûé_ãðàäèåíò_30"/><linearGradient id="åçûìßííûé_ãðàäèåíò_3-3" x1="7774.96" y1="49.76" x2="7780.05" y2="49.76" gradientTransform="matrix(-1, 0, 0, 1, 7832.08, 0)" xlink:href="#åçûìßííûé_ãðàäèåíò_3"/><linearGradient id="åçûìßííûé_ãðàäèåíò_3-4" x1="7760.64" y1="49.91" x2="7765.06" y2="49.91" gradientTransform="matrix(-1, 0, 0, 1, 7832.08, 0)" xlink:href="#åçûìßííûé_ãðàäèåíò_3"/><linearGradient id="åçûìßííûé_ãðàäèåíò_86-2" x1="7753.26" y1="50.6" x2="7798.27" y2="50.6" gradientTransform="matrix(-1, 0, 0, 1, 7832.08, 0)" xlink:href="#åçûìßííûé_ãðàäèåíò_86"/><linearGradient id="åçûìßííûé_ãðàäèåíò_99" x1="7759.52" y1="244.17" x2="7769.74" y2="244.17" gradientTransform="matrix(-1, 0, 0, 1, 7832.08, 0)" gradientUnits="userSpaceOnUse"><stop offset="0" stop-color="#ca0000"/><stop offset="1" stop-color="#a80009"/></linearGradient><linearGradient id="åçûìßííûé_ãðàäèåíò_99-2" x1="7788.53" y1="243.71" x2="7800.02" y2="243.71" xlink:href="#åçûìßííûé_ãðàäèåíò_99"/><linearGradient id="åçûìßííûé_ãðàäèåíò_22-5" x1="7760.65" y1="249.83" x2="7769.74" y2="249.83" gradientTransform="matrix(-1, 0, 0, 1, 7832.08, 0)" xlink:href="#åçûìßííûé_ãðàäèåíò_22"/><linearGradient id="åçûìßííûé_ãðàäèåíò_22-6" x1="7788.26" y1="249.55" x2="7798.61" y2="249.55" gradientTransform="matrix(-1, 0, 0, 1, 7832.08, 0)" xlink:href="#åçûìßííûé_ãðàäèåíò_22"/><linearGradient id="åçûìßííûé_ãðàäèåíò_99-3" x1="7764.5" y1="77.09" x2="7781.72" y2="77.09" xlink:href="#åçûìßííûé_ãðàäèåíò_99"/><linearGradient id="åçûìßííûé_ãðàäèåíò_99-4" x1="7787.98" y1="96.93" x2="7794.83" y2="96.93" xlink:href="#åçûìßííûé_ãðàäèåíò_99"/><linearGradient id="åçûìßííûé_ãðàäèåíò_99-5" x1="7746.58" y1="94.33" x2="7760.88" y2="94.33" xlink:href="#åçûìßííûé_ãðàäèåíò_99"/><linearGradient id="åçûìßííûé_ãðàäèåíò_99-6" x1="7752.4" y1="172.51" x2="7788.22" y2="172.51" xlink:href="#åçûìßííûé_ãðàäèåíò_99"/><linearGradient id="åçûìßííûé_ãðàäèåíò_30-7" x1="7745.86" y1="96.15" x2="7762.79" y2="96.15" gradientTransform="matrix(-1, 0, 0, 1, 7832.08, 0)" xlink:href="#åçûìßííûé_ãðàäèåíò_30"/></defs><title>Prancheta 182</title><g class="cls-1"><g id="Camada_1" data-name="Camada 1"><ellipse class="cls-2" cx="82.19" cy="253.18" rx="59.51" ry="13.04"/><path class="cls-3" d="M144.29,84.94s4.66,16.42,5.7,21.44c1.56,7.56-7.65,26.19-8.24,27.66s-8.3,4.75-10.47,2.74-6.22-21.54-6.14-24.59,8.39-14.47,8.39-14.47Z"/><path class="cls-4" d="M142.45,162.39c-.93.21-2.31-1.23-2.31-1.23l4.34-1.16S143.86,162.06,142.45,162.39Z"/><path class="cls-5" d="M92.46,248.15v2.51a60.71,60.71,0,0,0,12.28.4c6.22-.51,12.24-4,12.24-4l-2.19-1.87Z"/><path class="cls-6" d="M117.8,253v2.69a39.94,39.94,0,0,0,9.73.82c4.41-.34,8.74-3.48,8.74-3.48l-.86-1.1Z"/><path class="cls-7" d="M114.07,190.26c-.79,3.5,1.71,17.42,2.27,21.26s-1.36,21-1.36,21h0c-.26-.05-1.77-.35-3.46-.54l-.18,0a13.35,13.35,0,0,0-4,0c-2.26.56-5,1.13-5,1.13s-3.06-26.7-3.06-30-1.81-9.44-1.69-11.9c0-.09,0-.21,0-.37.31-4.07,3.12-29.8,3.8-32.75a2.56,2.56,0,0,1,.3-.75c1.41-2.42,6.4-3,6.4-3l13.25,3.73-2.72,13.35S114.86,186.75,114.07,190.26Z"/><path class="cls-7" d="M137.29,234c-.14,1.36-.48,6.45-.48,6.45s-10.86-3-12.1-2.49a39.58,39.58,0,0,1-5.21,1.36s3.39-24.2,3.39-26S121,204.51,121,201.12s-1.41-24.78-2.2-28.85-1.76-9.05-5.15-11.76-6.79-4-8.94-3.51a11.77,11.77,0,0,0-3.3,1.13l-.17-4.53.64-.64h0a36.62,36.62,0,0,1,14.12-8.3c10.88-3.24,18.45-1.94,18.45-1.94s2.49,10.08,2.83,13.15-2.37,33.85-1.92,39.78,1.13,15.2,1.13,18.6c0,3.15-.86,7.49-.67,9.53q0,.24.06.42C136.24,226,137.43,232.68,137.29,234Z"/><path class="cls-4" d="M75.9,127.27a36.42,36.42,0,0,1-4.68,5.5c-2,1.58-3.82,2.6-4.73,3.42s-2.94,3.38-3.65,3.66-.75-.86-.75-.86-.61,1.32-1.3,1.13a1,1,0,0,1-.72-.83s-.24.1-.58-.4,1.24-2.82,1.93-3.82A31.35,31.35,0,0,1,65,131.68s-3,2-4,2.84-1.88,2.43-2.39,2.88-.84-.68-.36-1.94,2.58-3,3.2-3.81a18.87,18.87,0,0,1,5.53-3C68,128.43,75.9,127.27,75.9,127.27Z"/><path class="cls-4" d="M105.68,111.93l-.71.61c-1.69,1.46-6,5.07-7.89,6.09s-12.57,4.54-17.38,6.26c-1.14.41-2,.72-2.24.87h0c-1.34.72-3.52,4.74-5.47,5.09s-5.83-.57-5.83-.57a14.89,14.89,0,0,0-3.5,2.72c-1.12,1.18-4.32,1.22-4.78.82s1-1.43,2.06-1.77,2.11-2,4.4-3.85,7.13-3.37,9.94-4.62,3.88-1.74,9.9-6.84c2.73-2.31,5.56-4.5,7.84-6.19,2-1.52,3.62-2.64,4.31-3.13l.38-.26C101.42,106.74,105.68,111.93,105.68,111.93Z"/><path class="cls-8" d="M105,112.54c-1.69,1.46-6,5.07-7.89,6.09s-12.57,4.54-17.38,6.26c3.32-1.34,9.27-4,10.85-6.52A12.5,12.5,0,0,0,92,110.56c2-1.52,3.62-2.64,4.31-3.13Z"/><path class="cls-9" d="M101.46,70.68,101.27,79l0,1.93,0,1.38-.15,6.52,0,1.35-.14,6.19,0,1.36-.17,7.58,0,1.4,0,1.88h-9.5s.23-1.06.55-2.8c.09-.42.17-.88.26-1.38.27-1.53.59-3.38.88-5.42.07-.44.13-.94.19-1.5s.1-.88.15-1.36c.19-1.95.4-4.33.59-6.79l.12-1.37c.24-2.94.48-5.89.73-8.26.06-.48.1-.93.16-1.35a20.08,20.08,0,0,1,.56-3.24,5.81,5.81,0,0,1,2.52-2.7A18.19,18.19,0,0,1,101.46,70.68Z"/><path class="cls-10" d="M101.71,119.72s-4.73-3.26-7.68-5c-3.29-2-4.6-1.81-5.36-2.47-.39-.34,1.52-6.64,2-6.86s1.65.12,5,.82a17.74,17.74,0,0,1,6,2.08Z"/><path class="cls-4" d="M126,68.37s-2.12,1.57-7.64,2.42a9.53,9.53,0,0,1-8.59-2.88,21.84,21.84,0,0,0,2.6-.91,6.61,6.61,0,0,0,1.92-1.12,2.81,2.81,0,0,0,.74-2.52L122.16,59a42.51,42.51,0,0,0,0,6,3.18,3.18,0,0,0,1.09,1.46A19.54,19.54,0,0,0,126,68.37Z"/><path class="cls-8" d="M123.2,66.42a14.91,14.91,0,0,1-5.78,1.15,18,18,0,0,1-5.07-.57,6.61,6.61,0,0,0,1.92-1.12,2.81,2.81,0,0,0,.74-2.52L122.16,59a42.51,42.51,0,0,0,0,6A3.18,3.18,0,0,0,123.2,66.42Z"/><path class="cls-11" d="M128,53.39C125.61,58.61,115.9,64.72,111,65.55a6.07,6.07,0,0,1-4.28-1.36h0c-3.7-2.55-7.16-7.77-7.35-9-.25-1.7,2.2-6.38,2.26-8.28s-1.1-6.65-.61-9.2h0c.5-2.56,7.44-9,13-10.26s14.59.86,16.2,3.82S129.52,50.11,128,53.39Z"/><path class="cls-4" d="M128,53.39C125.61,58.61,115.9,64.72,111,65.55a6.07,6.07,0,0,1-4.28-1.36,19.37,19.37,0,0,0,14-6.06c6.35-6.56,5.22-20.93,3.3-23.42s-7-2.5-13.58-1.81A13.84,13.84,0,0,0,101,37.7c.5-2.56,7.44-9,13-10.26s14.59.86,16.2,3.82S129.52,50.11,128,53.39Z"/><path class="cls-12" d="M114.58,47.83S116,40.09,119,40.28s3.11,6,3.11,6-1.55,2.2-3.76,2.12A16,16,0,0,1,114.58,47.83Z"/><path class="cls-12" d="M105.85,48.06s.26-6.63-2-6.55-2.2,6.22-2.2,6.22a2,2,0,0,0,1.67.64A13.67,13.67,0,0,0,105.85,48.06Z"/><path class="cls-4" d="M121.65,46.92a16.72,16.72,0,0,1-3,.82,18.51,18.51,0,0,1-3,.41,9.54,9.54,0,0,0,3.22.59C120.12,48.61,121.65,46.92,121.65,46.92Z"/><path class="cls-4" d="M101.8,48.06a10.23,10.23,0,0,0,1.5.11,16.34,16.34,0,0,0,2.55-.11,10.36,10.36,0,0,1-2.69.85A1.23,1.23,0,0,1,101.8,48.06Z"/><path class="cls-13" d="M121.37,44.14c0,1.76-1,3.18-2.18,3.18S117,45.9,117,44.14,118,41,119.19,41,121.37,42.39,121.37,44.14Z"/><path class="cls-3" d="M120.73,43.76c0,1.24-.69,2.25-1.54,2.25s-1.55-1-1.55-2.25.69-2.25,1.55-2.25S120.73,42.52,120.73,43.76Z"/><path class="cls-14" d="M105.85,47a1.14,1.14,0,0,1-.1.19,1.38,1.38,0,0,1-1.13.88c-.92,0-1.65-1.42-1.65-3.18a4.28,4.28,0,0,1,.79-2.7,1.15,1.15,0,0,1,.86-.47.85.85,0,0,1,.52.17h0a5.86,5.86,0,0,1,.46,1.43,10.49,10.49,0,0,1,.17,1.27A23.79,23.79,0,0,1,105.85,47Z"/><path class="cls-3" d="M105.78,44.58a3.35,3.35,0,0,1-.22,1.24c-.21.57-.55.94-.94.94-.65,0-1.17-1-1.17-2.26a2.51,2.51,0,0,1,.85-2.16.62.62,0,0,1,.32-.09c.42,0,.79.42,1,1.06A10.49,10.49,0,0,1,105.78,44.58Z"/><path class="cls-3" d="M105.85,47c0,.46,0,.74,0,.74s0-.21-.07-.55-.1-.83-.19-1.36c-.23-1.34-.62-3-1.26-3.48a.63.63,0,0,0-.34-.16h-.2c-1.58.21-2.13,5.55-2.13,5.55S101.06,41,104,41.05a1.31,1.31,0,0,1,1.14.83h0a5.86,5.86,0,0,1,.46,1.43,10.49,10.49,0,0,1,.17,1.27A23.79,23.79,0,0,1,105.85,47Z"/><path class="cls-12" d="M118.34,44.85a.92.92,0,1,1-.92-.92A.92.92,0,0,1,118.34,44.85Z"/><path class="cls-12" d="M103.89,45.42a.92.92,0,1,1-.92-.92A.92.92,0,0,1,103.89,45.42Z"/><path class="cls-3" d="M114.58,47.31s1.58-6.72,4.53-6.15,3,5.09,3,5.09,1-6.45-3.28-6.45C115.14,39.81,114.58,47.31,114.58,47.31Z"/><path class="cls-3" d="M115,36.89l.2-2.72.31,1.16.21-1.16a18.18,18.18,0,0,1,4.93,1.08A7.76,7.76,0,0,1,123,37.12l-.34,1.38A8.79,8.79,0,0,0,119.19,37,20.35,20.35,0,0,0,115,36.89Z"/><path class="cls-3" d="M107.43,37.17V34.46L107,35l-.28-.82A10.48,10.48,0,0,0,103.18,36,6.41,6.41,0,0,0,101,38.7v1.44a29.17,29.17,0,0,1,3.43-2.26A7.57,7.57,0,0,1,107.43,37.17Z"/><path class="cls-3" d="M105.16,56.62s4.38.83,7.32-.17S117.09,53,118.13,52c.42-.41.56.2.56.2s-2.91,4-6.41,4.86a15.44,15.44,0,0,1-7.06-.21Z"/><path class="cls-3" d="M116.78,50.66a2.28,2.28,0,0,1,2,.86c.76,1,1.35,1.73,1.35,1.73a2.46,2.46,0,0,1-1.94-.65A22.36,22.36,0,0,0,116.78,50.66Z"/><path class="cls-4" d="M106.41,51.37a15.82,15.82,0,0,0,3.9.17,8.27,8.27,0,0,0,2.77-.68s-.25,1.22-.85,1.47-1.5-.31-1.5-.31a2.84,2.84,0,0,1-2,.93C107.45,53,106.41,51.37,106.41,51.37Z"/><path class="cls-4" d="M127.84,48.06a34,34,0,0,1,5.24-3.56c2.54-1.3,4.46-1.59,5.09-1.25s.11,5.25-1.47,7.41S130.47,56,129,55.24s-1.7-1.75-1.7-1.75Z"/><path class="cls-8" d="M128.8,50.86a58.78,58.78,0,0,1,5.75-4.33A17.86,17.86,0,0,1,137,45.22a37.75,37.75,0,0,1-3.1,3.15A17.93,17.93,0,0,1,128.8,50.86Z"/><path class="cls-8" d="M131.49,49.24s-.63,1.71,0,2.38,2.25.26,2.25.26-2,1-3,.51-.31-2.46-.31-2.46Z"/><path class="cls-15" d="M133.07,44.5a15.19,15.19,0,0,0-4.27,3.87l-.82.55s.42-10,.41-14-1.76-5.43-1.76-5.43a15.09,15.09,0,0,1-5,1.3c-2.83.23-3.56-1-3.56-1s-4,2-6.17,2.09S109,31,109,31s-3.6,3.77-6.5,4.09c-2.65.29-5-.62-5.45-2a1.64,1.64,0,0,1-.1-.38,3.28,3.28,0,0,1,.28-2.15,5,5,0,0,1-3.16-4.18c-.34-3.23,1.24-4.53,1.24-4.53s-.85-4.47,2.43-6.39S106.41,14,106.41,14a19.55,19.55,0,0,1,5.5-3.61,9.5,9.5,0,0,1,3.76-.8,7.48,7.48,0,0,1,6.52,3.79s2.57-1.87,4.67-.45a3.81,3.81,0,0,1,1.94,3.22,7.14,7.14,0,0,1,4.44,2c1.82,1.92,0,4.75,0,4.75l.06,0c.52.35,4.75,3.23,5.54,6.28C139.69,32.5,133.07,44.5,133.07,44.5Z"/><path class="cls-16" d="M125,17.4c-.9,1.47-5,3.63-5,3.63s-.69,4.52-3.59,5.43-7.74,0-7.74,0a12.22,12.22,0,0,1-4.55,4.63,17.45,17.45,0,0,1-7.11,2,1.64,1.64,0,0,1-.1-.38,3.28,3.28,0,0,1,.28-2.15,5,5,0,0,1-3.16-4.18c-.34-3.23,1.24-4.53,1.24-4.53s-.85-4.47,2.43-6.39S106.41,14,106.41,14a19.55,19.55,0,0,1,5.5-3.61h0c6-.22,8.16,2.71,8.16,2.71S126,15.94,125,17.4Z"/><path class="cls-3" d="M133.07,44.5a15.19,15.19,0,0,0-4.27,3.87l-.82.55s.42-10,.41-14-1.76-5.43-1.76-5.43a11.51,11.51,0,0,0,3.5-1.87c1.59-1.3,3.11-4.69,3.11-4.69l.06,0c.52.35,4.75,3.23,5.54,6.28C139.69,32.5,133.07,44.5,133.07,44.5Z"/><path class="cls-17" d="M135.06,142.72s-12.81-.4-21.13,2.57a33.15,33.15,0,0,0-7.58,3.88,26.52,26.52,0,0,0-5.14,4.43,2.23,2.23,0,0,1-.77-1c-.34-.76.43-2.89.43-3.74,0-.49-.09-1.74-.15-3h0c0-.56,0-1.13,0-1.66,0-.35,0-.67,0-1,.09-1.78.6-3.56.52-4.88,0-.46-.1-1.27-.19-2.37,0-.44-.06-.92-.09-1.44-.12-2-.24-4.71-.24-7.86,0-.27,0-.57,0-.89s0-.88,0-1.38c-.09-2.36-.29-5.4-.53-8.59,0-.46-.07-.91-.11-1.37-.15-2-.31-3.94-.48-5.83-.06-.76-.13-1.51-.19-2.24q-.06-.73-.12-1.44c-.2-2.33-.36-4.37-.47-5.83,0-.45,0-1,0-1.61,0-.42,0-.87,0-1.35.06-1.64.21-3.64.4-5.77,0-.45.08-.9.13-1.35.21-2.28.47-4.66.74-6.93,0-.46.1-.91.16-1.36s.11-.94.17-1.4c.59-4.84,1.12-8.6,1.12-8.6l.36-.12,1.63-.54h0l6.29-2.11s3.6,2.4,6.74,2.18,8.75-2.18,8.75-2.18c1.38,1,9,2.88,9,2.88s0,.47.07,1.28c0,.4,0,.87.06,1.4.1,2.06.22,5.09.27,8.33,0,.27,0,.54,0,.81v.55c0,2.1,0,4.23,0,6.22,0,.48,0,1-.05,1.4-.14,3.14-.45,5.75-1,6.94l-.06.15h0c-.2.42-.39.87-.58,1.35-.27.69-.53,1.44-.78,2.2-.43,1.32-.82,2.71-1.14,4-.12.46-.22.91-.32,1.36a33.37,33.37,0,0,0-.84,5.36,8.87,8.87,0,0,0,0,.93c0,.4.1.87.17,1.41.22,1.7.6,4.06,1,6.59l.27,1.51c.26,1.44.53,2.91.79,4.3.09.46.18.92.27,1.36.4,2.05.76,3.87,1,5.1.14.59.24,1.05.33,1.35a1.85,1.85,0,0,0,.12.32c.51.88,2.37,2.59,2.45,3.95S135.06,142.72,135.06,142.72Z"/><path class="cls-18" d="M146.65,109.76a22.12,22.12,0,0,0-3,.49,34.37,34.37,0,0,0-4.82,1.5l-4.64,1.81s-.49-3.19-1.08-6.65c-.07-.45-.15-.91-.23-1.37-.25-1.46-.51-2.91-.74-4.12-.17-.92-.34-1.71-.47-2.25,0-.21-.1-.39-.14-.52a4.33,4.33,0,0,1-.11-.87,62.77,62.77,0,0,1,.26-6.36c0-.46.08-.92.12-1.41.17-2.22.41-4.65.68-7.05,0-.45.1-.9.15-1.35,0-.11,0-.22,0-.33.33-2.85.69-5.54,1-7.61.09-.54.18-1,.27-1.49s.19-1,.29-1.39c0,0,.95.25,2.23.66h0c.68.22,1.46.47,2.25.76,2,.73,4,1.64,4.45,2.44a33.86,33.86,0,0,1,1,6.32c.06.44.11.9.15,1.36.16,1.51.31,3.14.46,4.78,0,.45.07.91.11,1.36.27,3.07.5,6.09.66,8.41,0,.49.06,1,.09,1.38.07,1.09.12,1.93.14,2.4,0,1.17.17,2.66.31,4.1.05.46.1.92.15,1.36C146.43,108.14,146.65,109.76,146.65,109.76Z"/><path class="cls-19" d="M146.65,109.76a22.12,22.12,0,0,0-3,.49s-2.45-18.58-4.6-22.83a14.57,14.57,0,0,0-4.38-4.81,22.39,22.39,0,0,0-2-1.33,33.18,33.18,0,0,0-14.85-4.2A46.26,46.26,0,0,0,101.27,79l-.93.31c-1.07.38-1.64.65-1.64.65l-.88-7.54a18.19,18.19,0,0,1,3.64-1.71l8.29-2.77s3.6,2.4,6.74,2.18,8.75-2.18,8.75-2.18c1.38,1,9,2.88,9,2.88s8,2.16,8.94,3.86,2.48,22.73,2.6,26S146.65,109.76,146.65,109.76Z"/><path class="cls-20" d="M135.06,142.72s-12.81-.4-21.13,2.57a33.15,33.15,0,0,0-7.58,3.88h0a27.79,27.79,0,0,1,11.93-6.45c7-1.62,14.93-2.43,14.85-3.29s-2.55-4.23-8.57-2.65a99.44,99.44,0,0,0-12.79,4.6,82.7,82.7,0,0,1,8.88-5.25,56.44,56.44,0,0,1,9.08-3.06c.68-.25-1.1-14.68-1.78-15.41s-4.75,2-5,1.61,2.71-4.52,4.91-10.11c2-5.11,3.29-15.76,3.5-17.57a25,25,0,0,0,0,4.15c.24,2.89.71,5.68.71,5.68a49.83,49.83,0,0,0-2.3,10.77c-.09,2.62,3.56,22,4.07,22.87s2.37,2.59,2.45,3.95S135.06,142.72,135.06,142.72Z"/><path class="cls-10" d="M108.39,68.37l2-.8A14.69,14.69,0,0,0,116.78,69a23.21,23.21,0,0,0,7.37-1.84L126,68.37a37.13,37.13,0,0,1-9.59,2.13A14.59,14.59,0,0,1,108.39,68.37Z"/><path class="cls-10" d="M115,70a76.32,76.32,0,0,0-1.93,8.84,50.75,50.75,0,0,0-.73,7.43h2.23a66,66,0,0,1,.43-9.81c.62-4.11,1.17-6.4,1.17-6.4Z"/><g class="cls-21"><path class="cls-10" d="M144.29,82.33a35.74,35.74,0,0,0-5.2.65,11,11,0,0,1-2.57.26c-.6,0-1.22,0-1.89-.08s-1.43-.12-2.19-.2l-2.61-.3L128,82.44c-4.66-.54-17.28-.78-20.87-.26a21.9,21.9,0,0,1-6,.1c-.41-.07-.81-.14-1.19-.24a5.3,5.3,0,0,1-2.32-1.12,8.08,8.08,0,0,0-3.11-1.24c.06-.48.1-.93.16-1.35a9.24,9.24,0,0,1,3.87,1.59,3.78,3.78,0,0,0,1.56.76,7.61,7.61,0,0,0,1.06.22,19.4,19.4,0,0,0,5.73-.06c3.91-.57,16.9-.25,21.22.25l1.81.22,2.6.3c.71.08,1.39.14,2,.19a13.77,13.77,0,0,0,4.14-.14,37.75,37.75,0,0,1,5.39-.69C144.2,81.41,144.25,81.87,144.29,82.33Z"/></g><g class="cls-21"><path class="cls-10" d="M144.86,88.47l-5.79,1.28-3.78.86-.75.17c-1.21.28-2.19.5-2.9.64l-.15,0a5.5,5.5,0,0,1-.93,0c-1.23,0-3.43-.16-7-.42-3.28-.25-7.37-.54-11.67-.75A103.29,103.29,0,0,0,101,90.15a13.91,13.91,0,0,0-1.56.16,1.07,1.07,0,0,1-.32,0,43.1,43.1,0,0,1-5.41-1l.12-1.37a42.55,42.55,0,0,0,5.38,1h0a17.2,17.2,0,0,1,1.78-.17A108.84,108.84,0,0,1,112,89c4.32.21,8.42.51,11.71.76a70.28,70.28,0,0,0,7.57.38l.52-.1c.72-.15,1.69-.37,2.83-.63.13,0,.26-.07.39-.09,1.11-.26,2.4-.56,3.79-.86l6-1.32C144.79,87.56,144.82,88,144.86,88.47Z"/></g><g class="cls-21"><path class="cls-10" d="M145.61,98.26a24.72,24.72,0,0,1-5.44.88c-1.76.06-3.85.09-5.57.09h-1.72l-1.25,0a2.83,2.83,0,0,1-.44,0c-.57-.1-9.32-.55-16.18-.55a134.61,134.61,0,0,1-14.16-.87c-.75-.08-1.31-.16-1.63-.21-.14,0-.31,0-.52,0-1.29-.08-3.85,0-5.71,0,.05-.42.1-.88.15-1.36,1.55,0,4.14-.1,5.6,0a5.53,5.53,0,0,1,.68.06c.29,0,.8.11,1.46.19a134.22,134.22,0,0,0,14.13.87c6.44,0,15.14.41,16.37.57l.12,0c.17,0,.89,0,2,.07h0c1.63,0,4.08,0,6.66-.09a23.64,23.64,0,0,0,5.39-.9C145.56,97.37,145.58,97.83,145.61,98.26Z"/></g><g class="cls-21"><path class="cls-10" d="M131,105.47c-.12.46-.22.91-.32,1.36-.39,0-.73,0-1,0-.55,0-1.54.13-2.8.28a115,115,0,0,1-13.64.94c-.72,0-1.45,0-2.18,0a43.37,43.37,0,0,1-10.38-1.35l-1-.28-.28-.08a17.61,17.61,0,0,0-2.22-.51,24.25,24.25,0,0,0-5.45,0c.09-.42.17-.88.26-1.38a24.3,24.3,0,0,1,5.4.09,18.24,18.24,0,0,1,1.89.41l.76.21.71.19a41.74,41.74,0,0,0,10.38,1.39,107.13,107.13,0,0,0,15.63-.91c1.34-.16,2.31-.26,2.91-.29C129.94,105.46,130.41,105.46,131,105.47Z"/><path class="cls-10" d="M146.21,106.12a39.48,39.48,0,0,1-3.94.72,61.09,61.09,0,0,1-9.2.07c-.07-.45-.15-.91-.23-1.37H133a64,64,0,0,0,9.1,0,39,39,0,0,0,4-.74C146.11,105.22,146.16,105.68,146.21,106.12Z"/></g><g class="cls-21"><path class="cls-10" d="M130,114.53a15.14,15.14,0,0,0-4.54-.14,29.08,29.08,0,0,0-3.71.76,36.94,36.94,0,0,1-8.57,1.29c-.47,0-1,0-1.45,0-4.21,0-9.2-.45-11.63-.7,0-.46-.07-.91-.11-1.37a113.75,113.75,0,0,0,13.15.7,35.66,35.66,0,0,0,8.28-1.26,30.52,30.52,0,0,1,3.87-.79,16.48,16.48,0,0,1,4.54.08C129.88,113.52,129.94,114,130,114.53Z"/></g><g class="cls-21"><path class="cls-10" d="M131.31,122.63a11.33,11.33,0,0,0-5.47-.52c-2.43.42-8.85,1.56-16,3.1a29.7,29.7,0,0,1-6.25.63c-1,0-2,0-2.9-.11,0-.43,0-.88,0-1.38a31.28,31.28,0,0,0,8.9-.46c7.18-1.56,13.63-2.7,16.07-3.12a12.5,12.5,0,0,1,5.43.35Z"/></g><g class="cls-21"><path class="cls-10" d="M132.37,128.29a73.13,73.13,0,0,0-15.63,1.84A122.9,122.9,0,0,0,101,135.92c0-.44-.06-.92-.09-1.44a123.72,123.72,0,0,1,15.45-5.66,73.62,73.62,0,0,1,15.72-1.89C132.19,127.39,132.28,127.85,132.37,128.29Z"/></g><g class="cls-21"><path class="cls-10" d="M133.75,134.74a74.84,74.84,0,0,0-16.07,2.13c-6.92,1.75-13.91,6.62-17,8.92,0-.56,0-1.13,0-1.66,3.41-2.53,10-6.89,16.67-8.57a76.48,76.48,0,0,1,16.07-2.17C133.56,134,133.66,134.44,133.75,134.74Z"/></g><g class="cls-21"><path class="cls-10" d="M138.7,72.21c-1,.3-2.73.79-4.36,1.26l-.69.2-2.78.78a44.34,44.34,0,0,1-9.93.9c-2.07,0-4.35-.09-6.74-.31a25.58,25.58,0,0,1-12.38-4.48l1.63-.54h0a24.76,24.76,0,0,0,10.87,3.66c8.58.82,14.72-.14,16.19-.54l3.4-1a2.92,2.92,0,0,0,.36-.11l2.16-.62h0C137.13,71.67,137.91,71.92,138.7,72.21Z"/></g><path class="cls-22" d="M136.47,214.24c0,3.15-.86,7.49-.67,9.53-1.14,2.5-2.61,5.43-2.61,5.43s.26-2.55,1.11-10.27-.55-18.72-.55-18.72l-2.48,2.26a172.12,172.12,0,0,0,2.48-20c.68-10.86,1.81-27.83-4.41-33.28s-27,3.57-27.48,3.78a36.62,36.62,0,0,1,14.12-8.3c10.88-3.24,18.45-1.94,18.45-1.94s2.49,10.08,2.83,13.15-2.37,33.85-1.92,39.78S136.47,210.84,136.47,214.24Z"/><path class="cls-22" d="M116.34,211.52c.56,3.85,2.91,23.5,2.91,23.5l-.64-.37L111.48,232l-.18,0s4.32-16.95,3.82-19.67-2.8-16.67-2.8-16.67L108,197.55a16.6,16.6,0,0,0,2.88-5.26c1.36-3.65,3.91-17.9,4.07-21.93s-1.88-9.05-1.94-9.2a9.7,9.7,0,0,1,3.65,3.45c1.27,2.23,2,6.87,2,6.87s-3.75,15.27-4.54,18.78S115.78,207.68,116.34,211.52Z"/><path class="cls-3" d="M97.55,242.6s2.81-10,3.66-10.52,7-1.61,9.58-1.61,8.64,4.68,9.2,5.35-1.07,10.26-1.78,10.85S117,247,117,247a28,28,0,0,0-7.54-5.12C105.62,240.4,97.55,242.6,97.55,242.6Z"/><path class="cls-23" d="M118.61,249.5s-1.2-7.91-1-9,5.8-3.82,9.34-3.82c4.81,0,11.21,2.46,12.11,4.33.15.3.44,7.59-.17,10.22a3.63,3.63,0,0,1-2.19,2.46s-5.43-7.95-10.18-7.67C124.08,246.15,118.61,249.5,118.61,249.5Z"/><path class="cls-24" d="M118.61,249.5s-1.16,2.24-1,2.86l.17.62a68.09,68.09,0,0,0,8.88.69,27.22,27.22,0,0,0,8.73-1.76s-3.87-6.11-8.9-6.56S118.61,249.5,118.61,249.5Z"/><path class="cls-24" d="M97.55,242.6s-2,1.46-3.81,2.6a2.74,2.74,0,0,0-1.28,3s7.22,1,12.31,0a60.45,60.45,0,0,0,10-3s-4.17-4.26-8.92-4.18A24.58,24.58,0,0,0,97.55,242.6Z"/><path class="cls-25" d="M122.29,198.09S127.67,197,130,193s-.21-34.7-1.4-37.12-15,.11-15,.11,4.17,4.55,5.95,13.82C121.57,180.19,122.29,198.09,122.29,198.09Z"/><path class="cls-25" d="M106.94,183.69a18.09,18.09,0,0,1-9.36,7.19c.31-4.07,3.12-29.8,3.8-32.75a2.56,2.56,0,0,1,.3-.75c2.66.7,7.76,1.65,9,4.6C111.56,164.07,110.79,177.58,106.94,183.69Z"/><polygon class="cls-26" points="130.01 165.87 161.94 153.6 158.64 129.17 123.57 136.78 130.01 165.87"/><polygon class="cls-10" points="130.01 165.87 127.99 165.87 122.29 135.88 157.85 128.8 158.64 129.17 123.57 136.78 130.01 165.87"/><polygon class="cls-27" points="132.6 157.96 128.55 140.9 135.56 139.59 138.08 155.72 132.6 157.96"/><polygon class="cls-28" points="158.64 149.53 159.75 149.16 157.96 135.92 156.78 136.47 158.64 149.53"/><path class="cls-29" d="M151.49,157.68a1,1,0,0,1-1.08.68s-.1,1.12-.68,1.28c-.9.26-1-.21-1-.21a2.1,2.1,0,0,1-.75,1.71,1,1,0,0,1-1.18,0,4.55,4.55,0,0,1-2.13,1.25,9.8,9.8,0,0,1-2.18,0s1.86-1.19,2-2.39c.24-1.73-1.11-4.69-1.11-4.69a38.63,38.63,0,0,0-.92,5.56c0,1.89-2.17,1.46-2.47,1.5s0-.43.25-1.59.65-7.62,1.66-10.52,2.27-5.68,1.6-8.08-4-10.79-4.47-13.27c-.16-.79-.4-2.39-.62-3.89h0c-.12-.86-.24-1.68-.32-2.3s-.14-1.06-.14-1.06l8.6-2.17.82-.21s.89,7.08.89,10-1.4,13-1.4,13.88c0,.41,1.07,3,2.19,6h0C150.42,152.76,151.87,156.78,151.49,157.68Z"/><path class="cls-4" d="M149,149.16a15.72,15.72,0,0,1-2.39-4.55c-.54-2.12.68-13.18-1-15.81S138.4,125,138.4,125h0c-.12-.86-.24-1.68-.32-2.3l8.46-3.23.82-.21s.89,7.08.89,10-1.4,13-1.4,13.88C146.85,143.59,147.92,146.23,149,149.16Z"/><path class="cls-10" d="M136.84,123.61c-1.22.36-2.22-2.6-2.41-4.9-.22-2.83-1-5.73-.9-6.11s3.14-1.41,7.59-2.35,7.68-1,7.68-.75.64,4.1.85,6.31.51,3.77.21,4.32S137.56,123.4,136.84,123.61Z"/><path class="cls-30" d="M136.33,70.38l1.47,1.51a98.91,98.91,0,0,0-3.42,14.4c-1.28,8-1.84,17.56-1.84,17.56s-1.64-11.76-1.17-16.43S136.33,70.38,136.33,70.38Z"/><path class="cls-3" d="M131.37,109.36A145.21,145.21,0,0,1,129.46,88c-.15-12.36,1.24-18.69,1.24-18.69l5.63,1.08s-2.27,10.91-3.43,18.69a64.24,64.24,0,0,0-.36,14.78Z"/><path class="cls-30" d="M131.36,109s.79,3.61-1,9.21-3.69,7.27-3.69,7.27l4.16,1.41s2.39-7.81,2.41-11.77A9.47,9.47,0,0,0,131.36,109Z"/><path class="cls-3" d="M84.63,131.36a99.49,99.49,0,0,1,.87,18.2c-.53,9.05-3.44,12.52-6.3,6.56s-2.93-20.39-2.71-21.05,1.3-5.42,1.3-5.42l1.89.9a33.85,33.85,0,0,0-1.22,13.35c.86,7.24,3.91,10.92,4.42,11.13s1.36-7,1-13.36a92,92,0,0,0-.94-9.8Z"/><path class="cls-30" d="M87.55,81.43a89.32,89.32,0,0,0,1.61,10.46c.93,3.54,2.11,19.67,1.79,25s-3.33,14.78-5.45,14.94-8.39,0-8.39,0L65.68,116.93l.71-16.13L71.2,82,78,73.21Z"/><path class="cls-3" d="M88.37,87.88s-4.54,4.48-8.6,15.94a70.46,70.46,0,0,0-4,21.66L64.62,112.34,69,96.93l10.3-18.85L87.07,81l.58,1.39Z"/><path class="cls-22" d="M75.81,72s5.8-3.42,7.07-3.46,5.51,3.61,5.68,4.2S84,76.51,84,76.51l-1-.25s3.3-3.46,2.85-4.23-3.38-2-4.31-1.69S78,74.05,78,74.05Z"/><path class="cls-22" d="M73.59,71.88s-2.26-.75,3.18.66c.76.2,10.44,5.41,11.2,6.89a8,8,0,0,1,.6,3.61s-4.52-3.31-7.3-3.61c-9.57-1-9.57-6.22-9.57-6.22Z"/><path class="cls-31" d="M43.82,250.14l.28,2.77s-5.66,1.36-9.05.23-3-5.94-3-5.94Z"/><path class="cls-32" d="M72.56,247.2a19.28,19.28,0,0,1-.41,4.41c-.45,1.53-3.88,2.63-6.38,2.45a13.17,13.17,0,0,1-4.19-1l.76-2.86Z"/><path class="cls-33" d="M65.77,175s.78,11.38.9,27.69,1,39.68,1,39.68l.62.22h0l2.28.78s6.79-30.31,7.12-34.72-1-14.7-1.45-18.23c-.3-2.34.43-10,1-14.88v0c.27-2.46.48-4.21.48-4.21Z"/><path class="cls-34" d="M34.54,240.07H37.6s.63-2.26,1.63-5.76c2.79-9.74,8.46-29.08,11.37-36s5.92-15.76,7.33-20.05h0l.82-2.52-13.47-.24s-1.58,12-2.38,15.8S37.71,201.83,36,209,34.54,240.07,34.54,240.07Z"/><path class="cls-4" d="M65.77,175s.78,11.38.9,27.69,1,39.68,1,39.68l.62.22h0s1.21-39.68.78-43.41-1.52-11.88,0-16,8.13-7.69,8.13-7.69v0c.27-2.46.48-4.21.48-4.21Z"/><path class="cls-4" d="M34.54,240.07l2.88.63s.81-2.89,1.81-6.39c0,0-2.35-13.36-1.41-19.89s4-17,4.58-17.9,1,2.63,1.47,2.37,1.08-14.08,2.77-16.8,11.29-3.81,11.29-3.81h0l.82-2.52-13.47-.24s-1.58,12-2.38,15.8S37.71,201.83,36,209,34.54,240.07,34.54,240.07Z"/><path class="cls-3" d="M77.29,55.53s-.51,6-.73,9.22a25.69,25.69,0,0,1-1.35,6.34s-3.06,1.46-9.29.94-10.24-1.16-11.74-.72a8.22,8.22,0,0,0-2.93,1.9S46.72,66.12,46,64.08s.2-10.34.2-10.34L64.51,36.1l10.42,4S78.23,52.61,77.29,55.53Z"/><path class="cls-4" d="M82.73,94.18s.82,4.59,1.42,8.93a42.19,42.19,0,0,0,1.64,7.36l-10.55-1.15L73.75,95.17l6-1.91Z"/><path class="cls-4" d="M39.52,158.85s1.06,4.54.59,4.66-1.64-2-1.92-3.14-.54-1.86-.54-1.86,1.91,5.55,1.7,6-1.06-.68-1.7-1.91S36,159.1,36,159.1l3.78-4.83Z"/><path class="cls-35" d="M34.54,160.15c-.06,1,2.21,5.88,2.72,5.88s-.08-2.47-.5-3.71a8.36,8.36,0,0,1-.68-2.67c.09-.38,2.16-2.63,2.55-3.35.25-.47.34-.63.37-.68-.11.28-.86,2.15-1.14,3.06s-.89,1.61-.64,1.95,1.15-.13,2.3-1.78,3-4.79,3-5.35c0-.33-.2-2.57-.3-4.73a29.2,29.2,0,0,1,0-3.67c0-.06,0-.14,0-.23.52-2.5,4.84-15.24,4.94-18.94.11-3.85,0-13.09,0-15.21,0-1.56.87-8.78,1.32-12.44.16-1.28.27-2.12.27-2.12h-1c-2.21,0-7.31.06-7.31.59,0,0,.11,4.48.12,8.92v0c0,2.49,0,5-.12,6.61-.28,4.59-2.1,10.8-2.32,15.5s2,17.8,1.22,19.23A131.08,131.08,0,0,0,34.54,160.15Z"/><path class="cls-4" d="M40.48,96.74s.11,4.48.12,8.92v0s4.12,7.13,5.14,11,0,11.48-1.87,16.72c-1.12,3.14-1.48,8.06-1.6,11.5.52-2.5,4.84-15.24,4.94-18.94.11-3.85,0-13.09,0-15.21,0-1.56.87-8.78,1.32-12.44l-.74-2.13C45.58,96.15,40.48,96.21,40.48,96.74Z"/><path class="cls-36" d="M45,97.68l-7.69-1.62S41.55,83.56,43,81.24c.86-1.4,5.8-3.16,5.8-3.16l.7,9Z"/><path class="cls-4" d="M51.14,77.25A4.73,4.73,0,0,0,55.53,81c3.67.11,13-5.66,13-5.66s-2.15-.33-3.95-.78a6,6,0,0,1-2.31-.89,6.4,6.4,0,0,1-1.05-2.5l-6.21-4.82s.84,5.85.29,7a3.47,3.47,0,0,1-.54.74A32.09,32.09,0,0,1,51.14,77.25Z"/><path class="cls-8" d="M54.8,74.15A8.06,8.06,0,0,0,60,75.4a16.72,16.72,0,0,0,4.6-.82,6,6,0,0,1-2.31-.89,6.4,6.4,0,0,1-1.05-2.5l-6.21-4.82s.84,5.85.29,7A3.47,3.47,0,0,1,54.8,74.15Z"/><path class="cls-37" d="M48.94,62.07C51,65.55,58.74,71.63,61,72a2.35,2.35,0,0,0,1-.12c3.59-1.16,11.07-9,11.44-11.23.4-2.43-.29-7.26-.53-9.39a39.53,39.53,0,0,1-.26-7c0-.71.07-1.38.07-2,0-2.89-5.89-8.46-10.72-9.44s-14.77,5-16.39,9.2S46.94,58.58,48.94,62.07Z"/><path class="cls-4" d="M48.94,62.07C51,65.55,58.74,71.63,61,72a2.35,2.35,0,0,0,1-.12A24.15,24.15,0,0,1,51.25,60.81C47.59,53,48.38,46,52,42.48s12.58-4.2,15.72-2.56a18.93,18.93,0,0,1,4.93,4.33c0-.71.07-1.38.07-2,0-2.89-5.89-8.46-10.72-9.44s-14.77,5-16.39,9.2S46.94,58.58,48.94,62.07Z"/><path class="cls-12" d="M66.59,54.07s.61-8,3.12-7.86,3.23,5.06,3.23,5.06-.35,2.49-2.3,3.06A7.09,7.09,0,0,1,66.59,54.07Z"/><path class="cls-12" d="M59.91,54.81a11.15,11.15,0,0,1-6.3-.74c-2.9-1.43-3.66-3.27-2.9-4.76s1.45-3.67,3.53-3.42C56.89,46.21,59.91,54.81,59.91,54.81Z"/><path class="cls-38" d="M52,49.76c0,2,1.14,3.7,2.54,3.7s2.55-1.66,2.55-3.7S56,46.05,54.57,46.05,52,47.71,52,49.76Z"/><path class="cls-3" d="M52.66,49.68c0,1.45.81,2.63,1.81,2.63s1.8-1.18,1.8-2.63-.81-2.63-1.8-2.63S52.66,48.22,52.66,49.68Z"/><path class="cls-39" d="M67,50a5.85,5.85,0,0,0,.1,1.05c.3,1.47,1.13,2.53,2.11,2.53,1.22,0,2.21-1.66,2.21-3.7a6.41,6.41,0,0,0-.09-1.09h0c-.28-1.52-1.12-2.61-2.12-2.61a1.83,1.83,0,0,0-1.49,1A15.73,15.73,0,0,0,67,50Z"/><path class="cls-3" d="M67.66,49.91c0,1.46.7,2.63,1.57,2.63s1.57-1.17,1.57-2.63-.7-2.62-1.57-2.62S67.66,48.46,67.66,49.91Z"/><path class="cls-3" d="M59.91,54.81s-1.85-8.84-5.1-9.9-3.88,2.25-4.51,2.25a1.66,1.66,0,0,1-1.06-.43s.78,2.42,1.47,2.58c.95.21,1.68-3,3.61-2.72C57.07,46.94,59.91,54.81,59.91,54.81Z"/><path class="cls-3" d="M66.59,54.07a29.34,29.34,0,0,1,.53-3,16.89,16.89,0,0,1,.54-1.88h0c.44-1.2,1-2.19,1.77-2.34a.15.15,0,0,1,.09,0c.68-.08,1.28.91,1.83,2h0a9.88,9.88,0,0,0,1.34,2.36c.86.69,1.72-3.25,1.72-3.25s-.41,1.26-1.1,1.18-1-3.83-3.83-3.83c-.76,0-1.32.78-1.74,1.89A15.73,15.73,0,0,0,67,50,34.05,34.05,0,0,0,66.59,54.07Z"/><path class="cls-4" d="M72.86,51.67a3.77,3.77,0,0,1-2.07,1.79c-1.38.41-3,1.11-3,1.11s2.41.41,3.33,0S72.86,51.67,72.86,51.67Z"/><path class="cls-4" d="M58.49,55S55.85,54,54,53.21a33.29,33.29,0,0,1-3.24-1.62,5,5,0,0,0,2.09,2.57C54.4,55.14,58.49,55,58.49,55Z"/><path class="cls-12" d="M69.88,51.63a.91.91,0,1,0,.91-.91A.91.91,0,0,0,69.88,51.63Z"/><path class="cls-12" d="M55.36,51.83a.91.91,0,1,0,.91-.91A.91.91,0,0,0,55.36,51.83Z"/><path class="cls-3" d="M57.18,38.43a15.88,15.88,0,0,0-5.56,2.87,8.5,8.5,0,0,0-2.78,4.57,15.43,15.43,0,0,1,3.44-3C54.38,41.61,57.05,41,57.18,38.43Z"/><path class="cls-3" d="M66.9,38.56a10.5,10.5,0,0,1,3.86,2.32c1.76,1.58,1.87,4.64,1.87,4.64a7,7,0,0,0-2.15-3.14C69.09,41.49,67,40.71,66.9,38.56Z"/><path class="cls-4" d="M59.86,56.83a37.4,37.4,0,0,0,4,1,5.27,5.27,0,0,0,3-.23s-1.26,2.08-2.51,2S61.68,58,61.68,58a1.28,1.28,0,0,1-.93.27C60.16,58.22,59.86,56.83,59.86,56.83Z"/><path class="cls-3" d="M66.39,62.93a14.39,14.39,0,0,1-1.64,1.95c-.51.38-2.09,1.45-2.09,1.45L59.23,65l-1.55-2.47-2-2.47,0-.61s5.11,3,6.74,3.23S66.39,62.93,66.39,62.93Z"/><path class="cls-40" d="M55.87,59.79s2.8,4.6,5.83,5.64a3.65,3.65,0,0,0,3.41-1.21c.76-.86,1.2-1.47,1.2-1.47l.55-.41a14.61,14.61,0,0,1-1.61,2.44C64,66.35,63.62,67.61,62,67.55s-3.15-1.44-4.26-3.14a45.85,45.85,0,0,1-2.6-5.16Z"/><path class="cls-12" d="M65.68,63.43a8,8,0,0,1-2.3,1c-.79.07-1.53.11-3.49-1.1a12.83,12.83,0,0,1-3.22-3Z"/><path class="cls-41" d="M67.17,62.15a4,4,0,0,1-2.63,1.56,9.85,9.85,0,0,1-5.4-1.63c-1.32-.86-4.24-3-4.24-3l.21-.13s6.08,2.79,8.47,3.18A9.4,9.4,0,0,0,67.17,62.15Z"/><path class="cls-4" d="M55.9,57.44a1.41,1.41,0,0,1-.65,1.47,8.54,8.54,0,0,0-1.42,1.36,1.14,1.14,0,0,1,0-1C54.09,58.76,55.69,58,55.9,57.44Z"/><path class="cls-3" d="M50.43,37.89s9.36-2.45,16.16-.66,9.57,10,10.13,12.86S77.86,65.4,77.86,65.4s.43-4.51.65-9,.15-23-4.1-25.82S50.43,37.89,50.43,37.89Z"/><path class="cls-3" d="M47.75,57l-2.81-2.94a11.28,11.28,0,0,1,.22-4.16,23.75,23.75,0,0,1,2.35-5.21s-.29,4.59-.29,7A36.61,36.61,0,0,0,47.75,57Z"/><path class="cls-42" d="M50.43,37.89s16.47-7.08,21-6.68S78,42.33,78.35,48.94a70.71,70.71,0,0,1,0,9.72s.94-11.25.15-19S74.28,28.36,72.41,28,55.66,26,52,27s-9.41,6.67-12.09,10.66S34.4,51.43,33.83,54.75,44.17,71.5,44.17,71.5l-1.71-4.25a57.44,57.44,0,0,0,4.8,5.47l2,1.79,2-1.3S45.58,61.08,45.16,55.3s3.38-10.77,4.08-12.87A41.67,41.67,0,0,0,50.43,37.89Z"/><path class="cls-16" d="M51.05,37.62s7.71-6.85,10.21-8.69,3.25-1.77,3.25-1.77L62.6,27s-2.21,1.12-6.6,5.19a63.64,63.64,0,0,0-5.57,5.7Z"/><path class="cls-16" d="M51.05,27.33a10,10,0,0,0-.62,4.17v6.39l-.29,1.34s-.39-3.91-.58-6.31a24.62,24.62,0,0,1,.19-4.9Z"/><path class="cls-16" d="M49.56,41.41a54.63,54.63,0,0,1-8.21,3.88C36.67,47.09,35.61,48,35.61,48l-.33,1.1s.51-.88,5.36-2.84c3.78-1.53,8.6-3.78,8.6-3.78Z"/><path class="cls-16" d="M46.11,49.18a38.82,38.82,0,0,0-6.74,5.35,8.23,8.23,0,0,0-2,7.78l.82,1.21S36.93,58.16,39.83,55a22.33,22.33,0,0,1,5.92-4.68Z"/><path class="cls-4" d="M47.75,57A11.6,11.6,0,0,0,44,53.46c-2.49-1.49-4.79-2.12-5.48-1.63s-.07,4.69,1.43,6.81,5.12,4.68,6.58,4.51a3.32,3.32,0,0,0,2.27-1.62Z"/><path class="cls-8" d="M47.79,59.39a31.44,31.44,0,0,0-4.32-3.07,28.08,28.08,0,0,0-4.1-2.08s2.44,1.74,4.42,3.12A16.49,16.49,0,0,0,47.79,59.39Z"/><path class="cls-8" d="M45.51,58s.48,1.4,0,1.76-1.93.11-1.93.11,1.71.82,2.42.15a1.47,1.47,0,0,0,.59-1.26Z"/><path class="cls-43" d="M43.87,175.39a113.57,113.57,0,0,0,15.85.31h0c1.12-.07,2.24-.17,3.32-.3a60.06,60.06,0,0,0,16.52-4.95s2.26-31.16,2.26-33.54-11-20.37-11.88-23.29-.46-9.51,0-10.53a67.11,67.11,0,0,0,3.28-7.47,15.57,15.57,0,0,0,0-4.24v0c-.54-5.68-2.17-14.78-2.41-16.1l0-.16H67s-4.25,3.45-7.82,3.79-7.26-2.18-7.26-2.18l-3.11,1.38s-.39,3.93-1,7.12a17,17,0,0,1-.9,3.41c-1,2.29-3.54,8.74-2.91,11a7,7,0,0,0,.74,1.49h0c.57.92,1.38,2,2.12,3l0,0a25.32,25.32,0,0,1,2,2.84,77,77,0,0,1,1.95,14.06c.09,4.69-.68,7.84-.68,10.42s.43,2.5,0,4.28S45.71,151.72,44.86,160,43.87,175.39,43.87,175.39Z"/><path class="cls-44" d="M70.91,244c-.29-.69,2.29-5.62,1.44-6.33s-5.43,0-5.85.64.59,3.89.51,5-4.67,6.88-4.67,6.88a11.72,11.72,0,0,0,6.19.6c3.91-.51,3.66-2,4-3.06S70.91,244,70.91,244Z"/><path class="cls-45" d="M39.09,242.29c-.59-1.26,1.79-5.36,1.19-5.64s-4.45-.25-4.75.3.21,2.91.09,3.12-1.08,0-1.08,0a46.32,46.32,0,0,0-2.32,5.33c-.46,1.65.11,4.54,1.25,5.21s9.44.23,10-.45-2.21-2.2-3.17-4A12.8,12.8,0,0,1,39.09,242.29Z"/><path class="cls-46" d="M71.43,249.91a10,10,0,0,0-4.36-1.51,5.32,5.32,0,0,0-3.9.75l-.83,1.07s1.61,1.44,5.11,1S71.43,249.91,71.43,249.91Z"/><path class="cls-47" d="M42,248.18a7.38,7.38,0,0,0-4.85,0,7,7,0,0,0-3.72,2.43s1,.81,5.48.71,4.87-1.18,4.87-1.18A2.42,2.42,0,0,0,42,248.18Z"/><path class="cls-36" d="M44.73,101.11h0l2.12,3,0,0,2,2.84s12.12-1.66,14,0S68,118.26,68.8,122.58s.08,8.65,1.69,10.43,5.35,11.38,5.85,17.15-1.18,13.14-4.15,17S60,175.55,59.73,175.69c1.12-.07,2.24-.17,3.32-.3a60.06,60.06,0,0,0,16.52-4.95s2.26-31.16,2.26-33.54-11-20.37-11.88-23.29-.46-9.51,0-10.53a67.11,67.11,0,0,0,3.28-7.47,15.57,15.57,0,0,0,0-4.24v0l-2.41-16.1,0-.16H67s-4.25,3.45-7.82,3.79-7.26-2.18-7.26-2.18l-3.11,1.38-1,7.12h0c.32,0,11.22,0,15.57,1.53s3.73,6.78,3.31,10.16-4.07,4.23-9.29,4.23Z"/><path class="cls-36" d="M50.74,124.21a38.81,38.81,0,0,0,0,7.66c.46,2.7,1.65,6.64,1.65,6.64a9.87,9.87,0,0,1-2.49-3.44C49.34,133.33,50.74,124.21,50.74,124.21Z"/><path class="cls-48" d="M65.33,74.75s-3.44,3-7,2.58A13.85,13.85,0,0,1,53,75.82l-2.62,1.55a15.34,15.34,0,0,0,8.59,2c4.47-.51,8.63-4.16,8.63-4.16Z"/><path class="cls-49" d="M44.1,96.88s-2-.31-3.62-.73a15.66,15.66,0,0,1-2.9-1l-.32.94a18.56,18.56,0,0,0,4.13,2.21,12.59,12.59,0,0,0,2.5.47Z"/><path class="cls-50" d="M70.74,75.08s4.36.44,6.62,1.81c3.37,2,8.14,17.29,8.14,17.29a53,53,0,0,0-9,.44l-5.06,1S68.62,76.66,70.74,75.08Z"/><path class="cls-51" d="M85,92.72a48.29,48.29,0,0,1-6.21,1,56.3,56.3,0,0,1-7.61.17l.31,2.08a56.7,56.7,0,0,0,6.95-.49c3.38-.47,7-1.27,7-1.27Z"/><path class="cls-52" d="M79.68,168.83A58.48,58.48,0,0,1,61.5,174.1a85.66,85.66,0,0,1-17.6,0l0,1.29a78,78,0,0,0,18.31.47,53,53,0,0,0,17.5-4.92Z"/><path class="cls-3" d="M75.58,77.55a54.62,54.62,0,0,0-3.2,13.62c-.62,7.12,2.39,17.13,2.39,17.13v3.1s-4.44-11.75-5.85-18.71S71.48,74,71.48,74Z"/><path class="cls-8" d="M73.12,70.51a4.52,4.52,0,0,0-1.74-.66c-.68,0,0,1.73,0,1.73S73.09,71.43,73.12,70.51Z"/><path class="cls-53" d="M69.53,77a.88.88,0,0,0,.87-.6c.31-1.1-.17-2.66.37-2.35a2.1,2.1,0,0,1,.35.28s0,0,0,0a16.36,16.36,0,0,1,2,2.41c.34.57.12,3,.34,4.59a21,21,0,0,0,1.3,3.73c.12.51.26,26.16.68,29.22s4.83,10,7.81,10.15c1.22.08,2-1.61,2.47-3.91.72-3.7.53-9-.27-11.07-1.3-3.35-8.25-22.8-7.78-25.63s3.88-8,3.66-8.37S78,69.31,77,68.8a19.7,19.7,0,0,0-5.32-1c-.24.06.4.49,1.18.92l0,0c.5.28,1.07.55,1.49.74a4.07,4.07,0,0,1,1.72,1.59,7.63,7.63,0,0,0-2.54-.89c-.67.08-.58.89-.58.89a1.65,1.65,0,0,0-1.47.09,1.08,1.08,0,0,0-.5.87,4.39,4.39,0,0,0-1.5.31C69,72.67,69.54,77,69.53,77Z"/><path class="cls-4" d="M71.13,74.36a16.36,16.36,0,0,1,2,2.41c.34.57.12,3,.34,4.59a21,21,0,0,0,1.3,3.73c.12.51.26,26.16.68,29.22s4.83,10,7.81,10.15c1.22.08,2-1.61,2.47-3.91l0-.34s-7.41-2.31-8.07-6-1.5-27.54-1.67-28-.61-1.36-1.29-3-.37-6.08-.36-6.5S71.37,74.49,71.13,74.36Z"/><polygon class="cls-4" points="70.44 72.14 74.22 73.69 71.13 71.85 70.44 72.14"/><polygon class="cls-4" points="72.56 71 75.04 72.25 73 70.9 72.56 71"/><path class="cls-4" d="M72.88,68.77l0,0c.5.28,1.07.55,1.49.74a4.07,4.07,0,0,1,1.72,1.59l1.6,1.13a18.18,18.18,0,0,0-2.23-2.58A11.41,11.41,0,0,0,72.88,68.77Z"/><path class="cls-4" d="M75.24,192.32a17.11,17.11,0,0,1-1.1,4.33,12.77,12.77,0,0,1-1.78,2.63s2.2-.09,2.88-1.62S75.24,192.32,75.24,192.32Z"/></g></g></svg>