<svg xmlns="http://www.w3.org/2000/svg" xmlns:xlink="http://www.w3.org/1999/xlink" viewBox="0 0 588.51 546.65"><defs><style>.cls-1{fill:none;}.cls-2{isolation:isolate;}.cls-3{clip-path:url(#clip-path);}.cls-4{clip-path:url(#clip-path-2);}.cls-5{fill:url(#Áåçûìÿííûé_ãðàäèåíò_48);}.cls-6{fill:url(#Áåçûìÿííûé_ãðàäèåíò_280);}.cls-7{opacity:0.75;}.cls-11,.cls-14,.cls-7{mix-blend-mode:soft-light;}.cls-11,.cls-14,.cls-8{fill:#fff;}.cls-9{opacity:0.45;}.cls-12,.cls-13,.cls-16,.cls-9{mix-blend-mode:multiply;}.cls-10,.cls-13{fill:#7e2275;}.cls-11,.cls-13{opacity:0.2;}.cls-12{fill:#d7004f;opacity:0.06;}.cls-14,.cls-18{opacity:0.5;}.cls-15{fill:#333;}.cls-16{fill:#a1132d;opacity:0.29;}.cls-17{fill:url(#Áåçûìÿííûé_ãðàäèåíò_280-2);}.cls-18{mix-blend-mode:luminosity;fill:url(#Gradiente_sem_nome_262);}</style><clipPath id="clip-path"><rect class="cls-1" width="588.51" height="548.5"/></clipPath><clipPath id="clip-path-2"><rect class="cls-1" x="-226.72" y="-77.14" width="1041.95" height="738.84"/></clipPath><radialGradient id="Áåçûìÿííûé_ãðàäèåíò_48" cx="282.79" cy="129.39" r="423.04" gradientUnits="userSpaceOnUse"><stop offset="0" stop-color="#c2c4c5"/><stop offset="1" stop-color="#5a5281"/></radialGradient><linearGradient id="Áåçûìÿííûé_ãðàäèåíò_280" x1="-226.73" y1="518.71" x2="815.22" y2="518.71" gradientUnits="userSpaceOnUse"><stop offset="0" stop-color="#ffffd3"/><stop offset="1" stop-color="#ffdcc2"/></linearGradient><linearGradient id="Áåçûìÿííûé_ãðàäèåíò_280-2" x1="-494.25" y1="414.14" x2="2295.12" y2="414.14" xlink:href="#Áåçûìÿííûé_ãðàäèåíò_280"/><linearGradient id="Gradiente_sem_nome_262" x1="295.52" y1="553.36" x2="292.98" y2="438.21" gradientUnits="userSpaceOnUse"><stop offset="0" stop-opacity="0.7"/><stop offset="1" stop-opacity="0"/></linearGradient></defs><title>Prancheta 174</title><g class="cls-2"><g id="Camada_1" data-name="Camada 1"><g class="cls-3"><g class="cls-4"><polygon class="cls-5" points="815.22 308.8 -226.73 303.98 -226.73 -77.12 815.22 -77.12 815.22 308.8"/><rect class="cls-6" x="-226.73" y="292.72" width="1041.95" height="451.97"/><g class="cls-7"><polygon class="cls-8" points="760.41 18.35 760.39 19.28 740.84 19 739.91 18.98 694.5 18.33 693.56 18.32 643.11 17.6 642.18 17.59 606.26 17.08 605.33 17.06 554.94 16.33 554.01 16.32 499.07 15.53 498.13 15.52 441.55 14.71 440.62 14.69 384.49 13.89 383.56 13.87 339.03 13.24 338.1 13.22 291.33 12.55 290.4 12.54 240.3 11.82 239.37 11.8 182.62 10.99 181.69 10.97 131.19 10.26 130.26 10.24 77.01 9.47 76.08 9.47 19.19 8.65 18.26 8.64 -39.41 7.81 -40.34 7.79 -91.94 7.05 -92.88 7.04 -148.44 6.24 -149.37 6.22 -171.02 5.92 -171 4.99 -149.37 5.29 -148.44 5.31 -92.86 6.1 -91.93 6.12 -40.38 6.86 -39.44 6.88 18.24 7.71 19.17 7.71 76.1 8.54 77.03 8.54 130.25 9.31 131.19 9.33 181.67 10.04 182.6 10.06 239.36 10.87 240.29 10.89 290.36 11.61 291.3 11.62 338.12 12.29 339.05 12.31 383.54 12.94 384.47 12.96 440.6 13.76 441.53 13.78 498.13 14.59 499.06 14.6 554 15.39 554.93 15.4 605.36 16.13 606.29 16.14 642.14 16.66 643.07 16.67 693.54 17.39 694.49 17.4 739.89 18.05 740.82 18.07 760.41 18.35"/><polygon class="cls-8" points="760.4 36.2 760.4 37.13 741.1 37.31 740.17 37.31 694.86 37.73 693.93 37.74 643.9 38.21 642.97 38.22 605.65 38.56 604.72 38.57 555.36 39.03 554.43 39.04 499.42 39.54 498.49 39.55 442.03 40.07 441.1 40.08 384.99 40.6 384.06 40.61 338.52 41.03 337.59 41.04 292.44 41.46 291.51 41.47 240.86 41.94 239.93 41.94 183.19 42.47 182.26 42.48 131.67 42.94 130.74 42.95 76.39 43.45 75.46 43.46 19.84 43.98 18.91 43.98 -38 44.52 -38.93 44.52 -93.03 45.03 -93.97 45.03 -148.44 45.54 -149.37 45.55 -171.01 45.74 -171.01 44.81 -149.37 44.62 -148.44 44.61 -93.94 44.1 -93.01 44.1 -38.97 43.59 -38.03 43.58 18.89 43.05 19.82 43.04 75.48 42.53 76.41 42.52 130.72 42.02 131.65 42.01 182.25 41.54 183.18 41.53 239.91 41.01 240.84 41 291.47 40.54 292.4 40.53 337.61 40.11 338.54 40.1 384.04 39.68 384.97 39.67 441.08 39.15 442.01 39.14 498.47 38.62 499.4 38.61 554.42 38.11 555.35 38.1 604.74 37.64 605.67 37.63 642.93 37.29 643.86 37.28 693.91 36.81 694.84 36.8 740.16 36.38 741.09 36.37 760.4 36.2"/><polygon class="cls-8" points="760.4 75.73 760.4 76.66 741.67 76.77 740.74 76.77 695.59 77.03 694.65 77.04 645.4 77.32 644.47 77.33 604.54 77.55 603.61 77.56 556.09 77.83 555.16 77.84 499.97 78.16 499.04 78.16 442.73 78.48 441.8 78.49 385.69 78.81 384.75 78.82 337.82 79.09 336.89 79.09 293.9 79.34 292.96 79.35 241.56 79.64 240.63 79.65 183.89 79.97 182.96 79.97 132.21 80.27 131.28 80.27 75.71 80.6 74.78 80.6 20.53 80.92 19.6 80.92 -36.59 81.24 -37.52 81.25 -94.08 81.58 -95.01 81.58 -148.44 81.88 -149.37 81.89 -171.01 82.01 -171.01 81.08 -149.37 80.96 -148.44 80.95 -94.98 80.64 -94.05 80.64 -37.56 80.32 -36.62 80.31 19.58 79.98 20.52 79.98 74.79 79.67 75.72 79.67 131.26 79.34 132.19 79.34 182.94 79.04 183.88 79.04 240.61 78.72 241.54 78.71 292.94 78.42 293.87 78.41 336.91 78.16 337.84 78.16 384.74 77.89 385.68 77.88 441.78 77.56 442.71 77.55 499.03 77.23 499.96 77.23 555.14 76.91 556.07 76.9 603.64 76.63 604.57 76.62 644.43 76.4 645.36 76.39 694.63 76.11 695.57 76.1 740.73 75.84 741.66 75.84 760.4 75.73"/><polygon class="cls-8" points="760.41 122.33 760.39 123.27 742.34 123.02 741.41 123 696.42 122.39 695.49 122.38 647.11 121.71 646.17 121.7 603.29 121.11 602.36 121.11 556.87 120.48 555.94 120.46 500.57 119.71 499.64 119.7 443.48 118.93 442.55 118.92 386.42 118.14 385.48 118.13 337.11 117.47 336.18 117.45 295.35 116.89 294.41 116.89 242.24 116.17 241.31 116.16 184.55 115.39 183.62 115.37 132.7 114.67 131.77 114.66 75.09 113.89 74.16 113.87 21.13 113.14 20.2 113.13 -35.39 112.37 -36.32 112.36 -94.92 111.56 -95.86 111.54 -148.44 110.82 -149.37 110.81 -171.02 110.52 -171 109.58 -149.37 109.88 -148.44 109.89 -95.83 110.61 -94.9 110.63 -36.36 111.43 -35.43 111.44 20.18 112.2 21.11 112.21 74.18 112.94 75.11 112.95 131.76 113.73 132.69 113.74 183.6 114.44 184.53 114.45 241.29 115.23 242.22 115.24 294.38 115.95 295.31 115.96 336.2 116.52 337.13 116.54 385.47 117.2 386.4 117.21 442.53 117.98 443.46 117.99 499.63 118.77 500.56 118.78 555.92 119.53 556.85 119.55 602.39 120.17 603.32 120.18 646.14 120.77 647.08 120.78 695.47 121.45 696.4 121.46 741.39 122.07 742.32 122.08 760.41 122.33"/><rect class="cls-8" x="-171.01" y="147.15" width="931.41" height="0.93"/><polygon class="cls-8" points="760.4 183.81 760.4 184.74 743.24 184.81 742.3 184.81 697.58 185.01 696.65 185.01 649.55 185.21 648.61 185.21 601.47 185.41 600.52 185.42 558.07 185.6 557.14 185.61 501.52 185.84 500.59 185.84 444.72 186.08 443.79 186.08 387.68 186.32 386.75 186.32 335.85 186.54 334.91 186.55 298.03 186.69 297.1 186.71 243.54 186.93 242.61 186.94 185.88 187.18 184.95 187.18 133.76 187.39 132.82 187.4 73.74 187.66 72.8 187.66 22.51 187.87 21.58 187.87 -32.48 188.1 -33.41 188.1 -97.11 188.37 -98.05 188.38 -148.44 188.59 -149.37 188.59 -171.01 188.69 -171.01 187.76 -149.37 187.66 -148.44 187.66 -98.03 187.45 -97.09 187.44 -33.45 187.17 -32.51 187.17 21.56 186.94 22.49 186.94 72.82 186.72 73.75 186.72 132.81 186.47 133.74 186.46 184.93 186.25 185.86 186.25 242.59 186.01 243.52 186 297.06 185.77 297.99 185.76 334.93 185.62 335.86 185.61 386.73 185.39 387.66 185.39 443.78 185.15 444.71 185.15 500.58 184.91 501.51 184.91 557.13 184.67 558.06 184.66 600.55 184.49 601.48 184.48 648.59 184.28 649.52 184.27 696.63 184.08 697.56 184.08 742.29 183.88 743.22 183.88 760.4 183.81"/><polygon class="cls-8" points="760.4 217.79 760.4 218.72 743.72 218.86 742.79 218.87 698.21 219.24 697.28 219.25 650.88 219.64 649.95 219.65 600.47 220.07 599.54 220.08 558.72 220.42 557.79 220.43 502.04 220.9 501.11 220.91 445.37 221.37 444.44 221.38 388.33 221.86 387.4 221.87 335.19 222.3 334.26 222.31 299.41 222.61 298.48 222.62 244.21 223.08 243.28 223.09 186.55 223.56 185.62 223.57 134.28 224 133.35 224.01 73.06 224.52 72.12 224.53 23.2 224.94 22.27 224.95 -31.05 225.4 -31.98 225.41 -98.19 225.96 -99.13 225.97 -148.44 226.39 -149.37 226.39 -171.01 226.58 -171.01 225.65 -149.37 225.46 -148.44 225.46 -99.1 225.04 -98.17 225.03 -32.02 224.47 -31.08 224.46 22.25 224.02 23.18 224.01 72.14 223.6 73.07 223.59 133.34 223.08 134.27 223.07 185.6 222.64 186.53 222.63 243.26 222.15 244.19 222.15 298.44 221.69 299.37 221.68 334.27 221.38 335.21 221.37 387.39 220.93 388.32 220.93 444.43 220.45 445.36 220.44 501.09 219.97 502.02 219.97 557.77 219.5 558.7 219.49 599.57 219.15 600.5 219.14 649.91 218.72 650.84 218.71 697.26 218.32 698.19 218.31 742.78 217.94 743.71 217.93 760.4 217.79"/><polygon class="cls-8" points="760.4 257.79 760.4 258.72 744.3 258.74 743.37 258.74 698.95 258.78 698.02 258.78 652.38 258.82 651.45 258.82 599.37 258.88 598.44 258.88 559.43 258.92 558.5 258.92 502.59 258.97 501.65 258.97 446.07 259.03 445.14 259.03 389.02 259.08 388.09 259.08 334.51 259.13 333.58 259.13 300.81 259.17 299.88 259.17 244.88 259.23 243.95 259.23 187.21 259.28 186.28 259.28 134.79 259.33 133.86 259.33 72.42 259.39 71.49 259.39 23.83 259.44 22.9 259.44 -29.73 259.49 -30.67 259.49 -99.14 259.56 -100.08 259.56 -148.44 259.61 -149.37 259.61 -171.01 259.63 -171.01 258.69 -149.37 258.68 -148.44 258.68 -100.06 258.63 -99.13 258.63 -30.7 258.55 -29.77 258.55 22.88 258.51 23.81 258.51 71.5 258.46 72.44 258.46 133.85 258.4 134.78 258.4 186.26 258.35 187.19 258.35 243.93 258.29 244.86 258.29 299.85 258.24 300.78 258.24 333.6 258.2 334.53 258.2 388.07 258.15 389 258.15 445.12 258.1 446.05 258.1 501.64 258.04 502.57 258.04 558.48 257.99 559.41 257.99 598.46 257.95 599.4 257.95 651.41 257.89 652.35 257.89 698 257.85 698.93 257.85 743.36 257.81 744.29 257.81 760.4 257.79"/><polygon class="cls-8" points="292.4 40.53 292.44 41.46 291.51 41.47 291.47 40.54 290.4 12.54 290.36 11.61 291.3 11.62 291.33 12.55 292.4 40.53"/><polygon class="cls-8" points="295.31 115.96 295.35 116.89 294.41 116.89 294.38 115.95 292.96 79.35 292.94 78.42 293.87 78.41 293.9 79.34 295.31 115.96"/><polygon class="cls-8" points="297.99 185.76 298.03 186.69 297.1 186.71 297.06 185.77 295.61 148.08 295.57 147.15 296.5 147.15 296.54 148.08 297.99 185.76"/><polygon class="cls-8" points="300.81 259.17 299.88 259.17 299.85 258.24 298.48 222.62 298.44 221.69 299.37 221.68 299.41 222.61 300.78 258.24 300.81 259.17"/><polygon class="cls-8" points="19.19 8.65 18.26 8.64 18.24 7.71 17.74 -19.58 17.72 -20.51 18.65 -20.52 18.67 -19.59 19.17 7.71 19.19 8.65"/><polygon class="cls-8" points="20.53 80.92 19.6 80.92 19.58 79.98 18.91 43.98 18.89 43.05 19.82 43.04 19.84 43.98 20.52 79.98 20.53 80.92"/><polygon class="cls-8" points="21.77 148.08 20.84 148.08 20.82 147.15 20.2 113.13 20.18 112.2 21.11 112.21 21.13 113.14 21.75 147.15 21.77 148.08"/><polygon class="cls-8" points="23.2 224.94 22.27 224.95 22.25 224.02 21.58 187.87 21.56 186.94 22.49 186.94 22.51 187.87 23.18 224.01 23.2 224.94"/><polygon class="cls-8" points="24.33 292.62 23.4 292.63 22.9 259.44 22.88 258.51 23.81 258.51 23.83 259.44 24.33 292.62"/><polygon class="cls-8" points="384.99 40.6 384.06 40.61 384.04 39.68 383.56 13.87 383.54 12.94 384.47 12.96 384.49 13.89 384.97 39.67 384.99 40.6"/><polygon class="cls-8" points="386.42 118.14 385.48 118.13 385.47 117.2 384.75 78.82 384.74 77.89 385.68 77.88 385.69 78.81 386.4 117.21 386.42 118.14"/><polygon class="cls-8" points="387.68 186.32 386.75 186.32 386.73 185.39 386.04 148.08 386.02 147.15 386.95 147.15 386.97 148.08 387.66 185.39 387.68 186.32"/><polygon class="cls-8" points="389.02 259.08 388.09 259.08 388.07 258.15 387.4 221.87 387.39 220.93 388.32 220.93 388.33 221.86 389 258.15 389.02 259.08"/><polygon class="cls-8" points="240.3 11.82 239.37 11.8 239.36 10.87 238.75 -21.57 238.74 -22.5 239.67 -22.51 239.69 -21.58 240.29 10.89 240.3 11.82"/><polygon class="cls-8" points="241.56 79.64 240.63 79.65 240.61 78.72 239.93 41.94 239.91 41.01 240.84 41 240.86 41.94 241.54 78.71 241.56 79.64"/><polygon class="cls-8" points="242.82 148.08 241.89 148.08 241.87 147.15 241.31 116.16 241.29 115.23 242.22 115.24 242.24 116.17 242.81 147.15 242.82 148.08"/><polygon class="cls-8" points="244.21 223.08 243.28 223.09 243.26 222.15 242.61 186.94 242.59 186.01 243.52 186 243.54 186.93 244.19 222.15 244.21 223.08"/><polygon class="cls-8" points="245.29 292.66 244.36 292.67 243.95 259.23 243.93 258.29 244.86 258.29 244.88 259.23 245.29 292.66"/><polygon class="cls-8" points="183.19 42.47 182.26 42.48 182.25 41.54 181.69 10.97 181.67 10.04 182.6 10.06 182.62 10.99 183.18 41.53 183.19 42.47"/><polygon class="cls-8" points="184.55 115.39 183.62 115.37 183.6 114.44 182.96 79.97 182.94 79.04 183.88 79.04 183.89 79.97 184.53 114.45 184.55 115.39"/><polygon class="cls-8" points="185.88 187.18 184.95 187.18 184.93 186.25 184.22 148.08 184.2 147.15 185.13 147.15 185.15 148.08 185.86 186.25 185.88 187.18"/><polygon class="cls-8" points="187.21 259.28 186.28 259.28 186.26 258.35 185.62 223.57 185.6 222.64 186.53 222.63 186.55 223.56 187.19 258.35 187.21 259.28"/><polygon class="cls-8" points="554.94 16.33 554.01 16.32 554 15.39 553.26 -24.4 553.25 -25.33 554.18 -25.34 554.2 -24.41 554.93 15.4 554.94 16.33"/><polygon class="cls-8" points="556.09 77.83 555.16 77.84 555.14 76.91 554.43 39.04 554.42 38.11 555.35 38.1 555.36 39.03 556.07 76.9 556.09 77.83"/><polygon class="cls-8" points="557.38 148.08 556.45 148.08 556.43 147.15 555.94 120.46 555.92 119.53 556.85 119.55 556.87 120.48 557.36 147.15 557.38 148.08"/><polygon class="cls-8" points="558.72 220.42 557.79 220.43 557.77 219.5 557.14 185.61 557.13 184.67 558.06 184.66 558.07 185.6 558.7 219.49 558.72 220.42"/><polygon class="cls-8" points="559.85 292.64 558.92 292.65 558.5 258.92 558.48 257.99 559.41 257.99 559.43 258.92 559.85 292.64"/><polygon class="cls-8" points="441.55 14.71 440.62 14.69 440.6 13.76 439.92 -23.38 439.9 -24.31 440.83 -24.32 440.85 -23.39 441.53 13.78 441.55 14.71"/><polygon class="cls-8" points="442.73 78.48 441.8 78.49 441.78 77.56 441.1 40.08 441.08 39.15 442.01 39.14 442.03 40.07 442.71 77.55 442.73 78.48"/><polygon class="cls-8" points="444.02 148.08 443.09 148.08 443.07 147.15 442.55 118.92 442.53 117.98 443.46 117.99 443.48 118.93 444 147.15 444.02 148.08"/><polygon class="cls-8" points="445.37 221.37 444.44 221.38 444.43 220.45 443.79 186.08 443.78 185.15 444.71 185.15 444.72 186.08 445.36 220.44 445.37 221.37"/><polygon class="cls-8" points="446.51 292.63 445.58 292.64 445.14 259.03 445.12 258.1 446.05 258.1 446.07 259.03 446.51 292.63"/><polygon class="cls-8" points="73.07 223.59 73.06 224.52 72.44 258.46 72.42 259.39 71.49 259.39 71.5 258.46 72.12 224.53 72.14 223.6 73.07 223.59"/><polygon class="cls-8" points="74.48 147.15 74.46 148.08 73.75 186.72 73.74 187.66 72.8 187.66 72.82 186.72 73.53 148.08 73.55 147.15 74.48 147.15"/><polygon class="cls-8" points="75.72 79.67 75.71 80.6 75.11 112.95 75.09 113.89 74.16 113.87 74.18 112.94 74.78 80.6 74.79 79.67 75.72 79.67"/><polygon class="cls-8" points="77.03 8.54 77.01 9.47 76.41 42.52 76.39 43.45 75.46 43.46 75.48 42.53 76.08 9.47 76.1 8.54 77.03 8.54"/><polygon class="cls-8" points="333.63 254.39 334.57 254.39 334.55 255.32 334.05 292.7 333.12 292.68 333.62 255.32 333.63 254.39"/><polygon class="cls-8" points="335.86 185.61 335.85 186.54 335.21 221.37 335.19 222.3 334.26 222.31 334.27 221.38 334.91 186.55 334.93 185.62 335.86 185.61"/><polygon class="cls-8" points="337.13 116.54 337.11 117.47 336.57 147.15 336.55 148.08 335.62 148.08 335.64 147.15 336.18 117.45 336.2 116.52 337.13 116.54"/><polygon class="cls-8" points="338.54 40.1 338.52 41.03 337.84 78.16 337.82 79.09 336.89 79.09 336.91 78.16 337.59 41.04 337.61 40.11 338.54 40.1"/><polygon class="cls-8" points="339.7 -23.4 339.68 -22.47 339.05 12.31 339.03 13.24 338.1 13.22 338.12 12.29 338.75 -22.47 338.77 -23.4 339.7 -23.4"/><polygon class="cls-8" points="131.19 10.26 130.26 10.24 130.25 9.31 129.82 -20.59 129.81 -21.52 130.74 -21.53 130.75 -20.6 131.19 9.33 131.19 10.26"/><polygon class="cls-8" points="132.21 80.27 131.28 80.27 131.26 79.34 130.74 42.95 130.72 42.02 131.65 42.01 131.67 42.94 132.19 79.34 132.21 80.27"/><polygon class="cls-8" points="133.19 148.08 132.26 148.08 132.24 147.15 131.77 114.66 131.76 113.73 132.69 113.74 132.7 114.67 133.17 147.15 133.19 148.08"/><polygon class="cls-8" points="134.28 224 133.35 224.01 133.34 223.08 132.82 187.4 132.81 186.47 133.74 186.46 133.76 187.39 134.27 223.07 134.28 224"/><polygon class="cls-8" points="135.17 293.03 134.24 293.04 133.86 256.2 133.85 255.27 134.78 255.27 134.79 256.2 135.17 293.03"/><polygon class="cls-8" points="499.42 39.54 498.49 39.55 498.47 38.62 498.13 15.52 498.13 14.59 499.06 14.6 499.07 15.53 499.4 38.61 499.42 39.54"/><polygon class="cls-8" points="500.57 119.71 499.64 119.7 499.63 118.77 499.04 78.16 499.03 77.23 499.96 77.23 499.97 78.16 500.56 118.78 500.57 119.71"/><polygon class="cls-8" points="501.52 185.84 500.59 185.84 500.58 184.91 500.05 148.08 500.03 147.15 500.97 147.15 500.98 148.08 501.51 184.91 501.52 185.84"/><polygon class="cls-8" points="502.59 258.97 501.65 258.97 501.64 258.04 501.11 220.91 501.09 219.97 502.02 219.97 502.04 220.9 502.57 258.04 502.59 258.97"/></g><g class="cls-9"><polygon class="cls-10" points="759.54 17.4 759.52 18.33 739.97 18.05 739.03 18.03 693.62 17.38 692.69 17.37 642.23 16.64 641.3 16.63 605.39 16.12 604.46 16.1 554.07 15.38 553.13 15.37 498.19 14.58 497.26 14.57 440.68 13.76 439.74 13.74 383.62 12.94 382.69 12.92 338.15 12.29 337.22 12.27 290.46 11.6 289.53 11.59 239.43 10.87 238.49 10.85 181.74 10.04 180.81 10.02 130.32 9.3 129.39 9.29 76.14 8.52 75.21 8.51 18.32 7.69 17.39 7.68 -40.29 6.86 -41.22 6.84 -92.82 6.1 -93.75 6.08 -149.31 5.29 -150.24 5.27 -171.9 4.96 -171.88 4.03 -150.24 4.34 -149.31 4.36 -93.73 5.15 -92.8 5.17 -41.26 5.91 -40.32 5.92 17.37 6.75 18.3 6.76 75.23 7.58 76.16 7.59 129.38 8.35 130.31 8.37 180.79 9.09 181.72 9.11 238.48 9.92 239.42 9.94 289.49 10.65 290.42 10.66 337.24 11.34 338.17 11.35 382.67 11.99 383.6 12.01 439.73 12.81 440.66 12.82 497.25 13.63 498.18 13.64 553.13 14.44 554.06 14.45 604.48 15.17 605.41 15.19 641.26 15.7 642.2 15.71 692.67 16.44 693.61 16.45 739.02 17.1 739.95 17.12 759.54 17.4"/><polygon class="cls-10" points="759.53 35.24 759.53 36.17 740.23 36.35 739.3 36.36 693.98 36.78 693.05 36.79 643.02 37.26 642.09 37.27 604.77 37.61 603.84 37.62 554.49 38.08 553.55 38.09 498.54 38.59 497.61 38.6 441.15 39.12 440.22 39.13 384.11 39.65 383.18 39.66 337.64 40.08 336.71 40.09 291.56 40.51 290.63 40.52 239.98 40.98 239.05 40.99 182.32 41.51 181.39 41.52 130.79 41.99 129.86 42 75.52 42.5 74.58 42.51 18.97 43.02 18.04 43.03 -38.87 43.56 -39.8 43.57 -93.91 44.07 -94.84 44.07 -149.31 44.59 -150.24 44.59 -171.89 44.79 -171.89 43.86 -150.24 43.66 -149.31 43.66 -94.81 43.14 -93.88 43.14 -39.84 42.64 -38.91 42.63 18.02 42.1 18.95 42.09 74.6 41.58 75.53 41.57 129.84 41.06 130.78 41.06 181.37 40.59 182.3 40.58 239.03 40.06 239.97 40.05 290.6 39.58 291.53 39.58 336.73 39.16 337.66 39.15 383.16 38.73 384.09 38.72 440.2 38.2 441.13 38.19 497.59 37.67 498.53 37.66 553.54 37.15 554.48 37.14 603.87 36.69 604.8 36.68 642.06 36.33 642.99 36.32 693.03 35.86 693.96 35.85 739.29 35.43 740.22 35.42 759.53 35.24"/><polygon class="cls-10" points="759.53 74.77 759.53 75.7 740.8 75.82 739.86 75.82 694.71 76.08 693.78 76.09 644.52 76.37 643.59 76.38 603.66 76.6 602.73 76.61 555.21 76.88 554.28 76.89 499.09 77.2 498.16 77.2 441.86 77.53 440.93 77.54 384.81 77.86 383.88 77.87 336.94 78.14 336.01 78.14 293.03 78.39 292.09 78.4 240.68 78.69 239.75 78.69 183.02 79.02 182.09 79.02 131.33 79.32 130.4 79.32 74.83 79.64 73.9 79.64 19.66 79.96 18.73 79.96 -37.47 80.29 -38.4 80.3 -94.95 80.62 -95.88 80.62 -149.31 80.93 -150.24 80.94 -171.89 81.06 -171.89 80.13 -150.24 80.01 -149.31 80 -95.86 79.69 -94.92 79.68 -38.44 79.36 -37.49 79.36 18.71 79.03 19.64 79.03 73.91 78.71 74.84 78.71 130.38 78.39 131.32 78.39 182.07 78.09 183 78.09 239.73 77.76 240.66 77.75 292.06 77.47 292.99 77.46 336.03 77.2 336.96 77.2 383.87 76.93 384.8 76.92 440.91 76.61 441.84 76.6 498.15 76.27 499.08 76.27 554.26 75.96 555.19 75.95 602.76 75.68 603.69 75.67 643.56 75.44 644.49 75.44 693.76 75.16 694.69 75.15 739.86 74.89 740.79 74.89 759.53 74.77"/><polygon class="cls-10" points="759.54 121.38 759.52 122.31 741.47 122.06 740.53 122.05 695.55 121.44 694.62 121.43 646.23 120.76 645.3 120.75 602.41 120.16 601.48 120.15 555.99 119.53 555.06 119.51 499.7 118.75 498.77 118.75 442.6 117.97 441.67 117.96 385.55 117.19 384.6 117.18 336.24 116.52 335.31 116.5 294.47 115.94 293.53 115.93 241.36 115.22 240.43 115.21 183.67 114.43 182.74 114.41 131.83 113.72 130.9 113.71 74.22 112.93 73.29 112.92 20.25 112.19 19.32 112.18 -36.26 111.42 -37.2 111.41 -95.8 110.61 -96.73 110.59 -149.31 109.87 -150.24 109.86 -171.9 109.56 -171.88 108.63 -150.24 108.93 -149.31 108.94 -96.7 109.66 -95.77 109.67 -37.23 110.47 -36.3 110.48 19.3 111.25 20.23 111.26 73.31 111.98 74.24 112 130.89 112.78 131.82 112.78 182.72 113.48 183.65 113.5 240.41 114.28 241.34 114.28 293.5 115 294.43 115.01 335.32 115.57 336.25 115.59 384.6 116.25 385.53 116.26 441.65 117.03 442.58 117.04 498.75 117.81 499.68 117.82 555.04 118.58 555.98 118.6 601.51 119.22 602.44 119.23 645.26 119.82 646.2 119.83 694.6 120.5 695.53 120.51 740.52 121.12 741.45 121.13 759.54 121.38"/><rect class="cls-10" x="-171.89" y="146.19" width="931.41" height="0.93"/><polygon class="cls-10" points="759.53 182.85 759.53 183.79 742.36 183.86 741.43 183.86 696.7 184.06 695.77 184.06 648.68 184.25 647.74 184.26 600.59 184.46 599.65 184.47 557.2 184.64 556.26 184.65 500.65 184.88 499.72 184.88 443.84 185.13 442.91 185.13 386.8 185.37 385.87 185.37 334.97 185.58 334.04 185.59 297.15 185.74 296.22 185.75 242.67 185.97 241.74 185.98 185 186.23 184.07 186.23 132.88 186.44 131.95 186.45 72.86 186.7 71.93 186.7 21.63 186.92 20.7 186.92 -33.36 187.15 -34.29 187.15 -97.99 187.42 -98.93 187.43 -149.31 187.64 -150.24 187.64 -171.89 187.74 -171.89 186.8 -150.24 186.71 -149.31 186.71 -98.9 186.5 -97.97 186.49 -34.33 186.22 -33.39 186.22 20.68 185.98 21.61 185.98 71.95 185.77 72.88 185.77 131.93 185.52 132.86 185.51 184.05 185.29 184.98 185.29 241.72 185.05 242.65 185.04 296.19 184.82 297.12 184.81 334.06 184.66 334.99 184.65 385.85 184.44 386.78 184.44 442.9 184.2 443.83 184.2 499.71 183.95 500.64 183.95 556.25 183.72 557.19 183.71 599.68 183.53 600.61 183.53 647.71 183.33 648.64 183.32 695.75 183.13 696.68 183.13 741.41 182.93 742.34 182.93 759.53 182.85"/><polygon class="cls-10" points="759.53 216.83 759.53 217.76 742.85 217.9 741.91 217.91 697.34 218.29 696.4 218.29 650 218.69 649.07 218.69 599.59 219.11 598.66 219.12 557.85 219.47 556.92 219.48 501.16 219.94 500.23 219.95 444.49 220.42 443.56 220.43 387.45 220.9 386.52 220.91 334.32 221.35 333.39 221.36 298.53 221.66 297.6 221.67 243.34 222.12 242.41 222.13 185.67 222.61 184.74 222.62 133.4 223.04 132.47 223.05 72.19 223.57 71.25 223.58 22.32 223.99 21.39 224 -31.92 224.44 -32.85 224.45 -99.07 225.01 -100 225.02 -149.31 225.44 -150.24 225.44 -171.89 225.63 -171.89 224.69 -150.24 224.51 -149.31 224.51 -99.97 224.09 -99.04 224.08 -32.89 223.52 -31.95 223.51 21.37 223.06 22.3 223.05 71.27 222.65 72.2 222.63 132.46 222.12 133.39 222.11 184.72 221.69 185.65 221.68 242.39 221.2 243.32 221.19 297.56 220.74 298.5 220.73 333.39 220.43 334.34 220.42 386.51 219.98 387.44 219.97 443.55 219.5 444.49 219.49 500.21 219.02 501.14 219.01 556.9 218.55 557.83 218.54 598.69 218.19 599.62 218.18 649.03 217.76 649.96 217.75 696.39 217.36 697.32 217.35 741.9 216.98 742.84 216.97 759.53 216.83"/><polygon class="cls-10" points="759.53 256.84 759.53 257.77 743.42 257.79 742.49 257.79 698.07 257.82 697.14 257.82 651.5 257.87 650.57 257.87 598.49 257.93 597.56 257.93 558.55 257.96 557.62 257.96 501.71 258.02 500.78 258.02 445.19 258.08 444.26 258.08 388.14 258.13 387.21 258.13 333.64 258.18 332.71 258.18 299.94 258.21 299.01 258.21 244.01 258.27 243.08 258.27 186.33 258.33 185.4 258.33 133.91 258.37 132.98 258.37 71.55 258.44 70.61 258.44 22.95 258.49 22.02 258.49 -30.61 258.53 -31.54 258.53 -100.02 258.61 -100.95 258.61 -149.31 258.65 -150.24 258.65 -171.89 258.67 -171.89 257.74 -150.24 257.72 -149.31 257.72 -100.93 257.68 -100 257.68 -31.58 257.6 -30.65 257.6 22 257.55 22.94 257.55 70.63 257.51 71.56 257.51 132.97 257.44 133.91 257.44 185.38 257.4 186.32 257.4 243.06 257.34 243.99 257.34 298.97 257.28 299.9 257.28 332.73 257.25 333.66 257.25 387.19 257.2 388.13 257.2 444.24 257.14 445.17 257.14 500.76 257.09 501.69 257.09 557.61 257.03 558.54 257.03 597.58 257 598.52 257 650.53 256.94 651.47 256.94 697.12 256.89 698.05 256.89 742.48 256.86 743.41 256.86 759.53 256.84"/><polygon class="cls-10" points="291.53 39.58 291.56 40.51 290.63 40.52 290.6 39.58 289.53 11.59 289.49 10.65 290.42 10.66 290.46 11.6 291.53 39.58"/><polygon class="cls-10" points="294.43 115.01 294.47 115.94 293.53 115.93 293.5 115 292.09 78.4 292.06 77.47 292.99 77.46 293.03 78.39 294.43 115.01"/><polygon class="cls-10" points="297.12 184.81 297.15 185.74 296.22 185.75 296.19 184.82 294.73 147.13 294.69 146.19 295.63 146.19 295.66 147.13 297.12 184.81"/><polygon class="cls-10" points="299.94 258.21 299.01 258.21 298.97 257.28 297.6 221.67 297.56 220.74 298.5 220.73 298.53 221.66 299.9 257.28 299.94 258.21"/><polygon class="cls-10" points="18.32 7.69 17.39 7.68 17.37 6.75 16.86 -20.53 16.84 -21.46 17.78 -21.47 17.8 -20.54 18.3 6.76 18.32 7.69"/><polygon class="cls-10" points="19.66 79.96 18.73 79.96 18.71 79.03 18.04 43.03 18.02 42.1 18.95 42.09 18.97 43.02 19.64 79.03 19.66 79.96"/><polygon class="cls-10" points="20.9 147.13 19.96 147.13 19.95 146.19 19.32 112.18 19.3 111.25 20.23 111.26 20.25 112.19 20.88 146.19 20.9 147.13"/><polygon class="cls-10" points="22.32 223.99 21.39 224 21.37 223.06 20.7 186.92 20.68 185.98 21.61 185.98 21.63 186.92 22.3 223.05 22.32 223.99"/><polygon class="cls-10" points="23.46 292.71 22.53 292.72 22.02 258.49 22 257.55 22.94 257.55 22.95 258.49 23.46 292.71"/><polygon class="cls-10" points="384.11 39.65 383.18 39.66 383.16 38.73 382.69 12.92 382.67 11.99 383.6 12.01 383.62 12.94 384.09 38.72 384.11 39.65"/><polygon class="cls-10" points="385.55 117.19 384.6 117.18 384.6 116.25 383.88 77.87 383.87 76.93 384.8 76.92 384.81 77.86 385.53 116.26 385.55 117.19"/><polygon class="cls-10" points="386.8 185.37 385.87 185.37 385.85 184.44 385.16 147.13 385.14 146.19 386.08 146.19 386.1 147.13 386.78 184.44 386.8 185.37"/><polygon class="cls-10" points="388.14 258.13 387.21 258.13 387.19 257.2 386.52 220.91 386.51 219.98 387.44 219.97 387.45 220.9 388.13 257.2 388.14 258.13"/><polygon class="cls-10" points="239.43 10.87 238.49 10.85 238.48 9.92 237.88 -22.52 237.86 -23.45 238.79 -23.46 238.81 -22.53 239.42 9.94 239.43 10.87"/><polygon class="cls-10" points="240.68 78.69 239.75 78.69 239.73 77.76 239.05 40.99 239.03 40.06 239.97 40.05 239.98 40.98 240.66 77.75 240.68 78.69"/><polygon class="cls-10" points="241.95 147.13 241.02 147.13 241 146.19 240.43 115.21 240.41 114.28 241.34 114.28 241.36 115.22 241.93 146.19 241.95 147.13"/><polygon class="cls-10" points="243.34 222.12 242.41 222.13 242.39 221.2 241.74 185.98 241.72 185.05 242.65 185.04 242.67 185.97 243.32 221.19 243.34 222.12"/><polygon class="cls-10" points="244.41 292.75 243.48 292.76 243.08 258.27 243.06 257.34 243.99 257.34 244.01 258.27 244.41 292.75"/><polygon class="cls-10" points="182.32 41.51 181.39 41.52 181.37 40.59 180.81 10.02 180.79 9.09 181.72 9.11 181.74 10.04 182.3 40.58 182.32 41.51"/><polygon class="cls-10" points="183.67 114.43 182.74 114.41 182.72 113.48 182.09 79.02 182.07 78.09 183 78.09 183.02 79.02 183.65 113.5 183.67 114.43"/><polygon class="cls-10" points="185 186.23 184.07 186.23 184.05 185.29 183.34 147.13 183.33 146.19 184.26 146.19 184.28 147.13 184.98 185.29 185 186.23"/><polygon class="cls-10" points="186.33 258.33 185.4 258.33 185.38 257.4 184.74 222.62 184.72 221.69 185.65 221.68 185.67 222.61 186.32 257.4 186.33 258.33"/><polygon class="cls-10" points="554.07 15.38 553.13 15.37 553.13 14.44 552.39 -25.35 552.37 -26.29 553.3 -26.29 553.32 -25.36 554.06 14.45 554.07 15.38"/><polygon class="cls-10" points="555.21 76.88 554.28 76.89 554.26 75.96 553.55 38.09 553.54 37.15 554.48 37.14 554.49 38.08 555.19 75.95 555.21 76.88"/><polygon class="cls-10" points="556.51 147.13 555.58 147.13 555.56 146.19 555.06 119.51 555.04 118.58 555.98 118.6 555.99 119.53 556.49 146.19 556.51 147.13"/><polygon class="cls-10" points="557.85 219.47 556.92 219.48 556.9 218.55 556.26 184.65 556.25 183.72 557.19 183.71 557.2 184.64 557.83 218.54 557.85 219.47"/><polygon class="cls-10" points="558.98 292.73 558.05 292.74 557.62 257.96 557.61 257.03 558.54 257.03 558.55 257.96 558.98 292.73"/><polygon class="cls-10" points="440.68 13.76 439.74 13.74 439.73 12.81 439.05 -24.33 439.03 -25.26 439.96 -25.27 439.98 -24.34 440.66 12.82 440.68 13.76"/><polygon class="cls-10" points="441.86 77.53 440.93 77.54 440.91 76.61 440.22 39.13 440.2 38.2 441.13 38.19 441.15 39.12 441.84 76.6 441.86 77.53"/><polygon class="cls-10" points="443.14 147.13 442.21 147.13 442.19 146.19 441.67 117.96 441.65 117.03 442.58 117.04 442.6 117.97 443.13 146.19 443.14 147.13"/><polygon class="cls-10" points="444.49 220.42 443.56 220.43 443.55 219.5 442.91 185.13 442.9 184.2 443.83 184.2 443.84 185.13 444.49 219.49 444.49 220.42"/><polygon class="cls-10" points="445.64 292.72 444.71 292.73 444.26 258.08 444.24 257.14 445.17 257.14 445.19 258.08 445.64 292.72"/><polygon class="cls-10" points="72.2 222.63 72.19 223.57 71.56 257.51 71.55 258.44 70.61 258.44 70.63 257.51 71.25 223.58 71.27 222.65 72.2 222.63"/><polygon class="cls-10" points="73.61 146.19 73.59 147.13 72.88 185.77 72.86 186.7 71.93 186.7 71.95 185.77 72.66 147.13 72.67 146.19 73.61 146.19"/><polygon class="cls-10" points="74.84 78.71 74.83 79.64 74.24 112 74.22 112.93 73.29 112.92 73.31 111.98 73.9 79.64 73.91 78.71 74.84 78.71"/><polygon class="cls-10" points="76.16 7.59 76.14 8.52 75.53 41.57 75.52 42.5 74.58 42.51 74.6 41.58 75.21 8.51 75.23 7.58 76.16 7.59"/><polygon class="cls-10" points="332.73 257.25 333.66 257.25 333.64 258.18 333.18 292.79 332.25 292.77 332.71 258.18 332.73 257.25"/><polygon class="cls-10" points="334.99 184.65 334.97 185.58 334.34 220.42 334.32 221.35 333.39 221.36 333.39 220.43 334.04 185.59 334.06 184.66 334.99 184.65"/><polygon class="cls-10" points="336.25 115.59 336.24 116.52 335.7 146.19 335.68 147.13 334.75 147.13 334.76 146.19 335.31 116.5 335.32 115.57 336.25 115.59"/><polygon class="cls-10" points="337.66 39.15 337.64 40.08 336.96 77.2 336.94 78.14 336.01 78.14 336.03 77.2 336.71 40.09 336.73 39.16 337.66 39.15"/><polygon class="cls-10" points="338.82 -24.36 338.81 -23.43 338.17 11.35 338.15 12.29 337.22 12.27 337.24 11.34 337.88 -23.43 337.89 -24.36 338.82 -24.36"/><polygon class="cls-10" points="130.32 9.3 129.39 9.29 129.38 8.35 128.94 -21.54 128.93 -22.48 129.86 -22.48 129.87 -21.55 130.31 8.37 130.32 9.3"/><polygon class="cls-10" points="131.33 79.32 130.4 79.32 130.38 78.39 129.86 42 129.84 41.06 130.78 41.06 130.79 41.99 131.32 78.39 131.33 79.32"/><polygon class="cls-10" points="132.31 147.13 131.38 147.13 131.36 146.19 130.9 113.71 130.89 112.78 131.82 112.78 131.83 113.72 132.29 146.19 132.31 147.13"/><polygon class="cls-10" points="133.4 223.04 132.47 223.05 132.46 222.12 131.95 186.45 131.93 185.52 132.86 185.51 132.88 186.44 133.39 222.11 133.4 223.04"/><polygon class="cls-10" points="134.3 293.12 133.37 293.13 132.98 258.37 132.97 257.44 133.91 257.44 133.91 258.37 134.3 293.12"/><polygon class="cls-10" points="498.54 38.59 497.61 38.6 497.59 37.67 497.26 14.57 497.25 13.63 498.18 13.64 498.19 14.58 498.53 37.66 498.54 38.59"/><polygon class="cls-10" points="499.7 118.75 498.77 118.75 498.75 117.81 498.16 77.2 498.15 76.27 499.08 76.27 499.09 77.2 499.68 117.82 499.7 118.75"/><polygon class="cls-10" points="500.65 184.88 499.72 184.88 499.71 183.95 499.18 147.13 499.16 146.19 500.09 146.19 500.11 147.13 500.64 183.95 500.65 184.88"/><polygon class="cls-10" points="501.71 258.02 500.78 258.02 500.76 257.09 500.23 219.95 500.21 219.02 501.14 219.01 501.16 219.94 501.69 257.09 501.71 258.02"/></g><polygon class="cls-11" points="72.88 185.77 73.59 147.13 183.34 147.13 184.05 185.29 72.88 185.77"/><polygon class="cls-11" points="441.84 76.6 441.15 39.12 553.55 38.09 554.26 75.96 441.84 76.6"/><polygon class="cls-12" points="601.51 119.22 602.73 76.61 499.09 77.2 499.68 117.82 601.51 119.22"/><polygon class="cls-12" points="-40.29 6.86 75.21 8.51 74.6 41.58 -38.91 42.63 -40.29 6.86"/><polygon class="cls-11" points="501.69 257.09 501.16 219.94 598.66 219.12 597.58 257 501.69 257.09"/><polygon class="cls-12" points="74.24 112 74.83 79.64 182.09 79.02 182.72 113.48 74.24 112"/><polygon class="cls-12" points="299.9 257.28 298.53 221.66 386.52 220.91 387.19 257.2 299.9 257.28"/><polygon class="cls-13" points="121.98 -1.81 34.73 292.72 -7.61 292.72 -29.26 297.42 -45.66 62.01 -226.38 62.74 -226.73 -77.12 -208.4 -77.12 -11.58 -2.27 121.98 -1.81"/><polygon class="cls-13" points="462.27 -0.65 553.1 292.72 595.43 292.72 617.08 297.42 626.64 61.98 815.23 62.75 815.23 -77.14 793.34 -77.13 599.89 -0.18 462.27 -0.65"/><polygon class="cls-14" points="245.87 212.79 244.69 185.88 333.41 185.88 333.41 213.55 332.69 195.34 245.87 188.15 245.87 212.79"/><polygon class="cls-14" points="334.67 140.8 333.87 115.04 243.82 115.04 243.82 131.56 244.69 116.93 332.29 123.87 334.67 140.8"/></g><rect class="cls-15" x="-9.83" y="280.79" width="602.22" height="312.43"/><polygon class="cls-16" points="-0.88 294.12 -840.49 1091.86 1677.12 1322.57 572.53 294.12 602.5 294.12 2041.33 1408.05 -1439.7 1408.05 -0.88 294.12"/><rect class="cls-17" x="-494.25" y="281.58" width="2789.36" height="265.13"/><rect class="cls-1" x="-494.22" y="-708.57" width="2789.36" height="1255.21"/></g><rect class="cls-18" x="-0.2" y="436.94" width="588.71" height="109.7"/></g></g></svg>