<svg xmlns="http://www.w3.org/2000/svg" xmlns:xlink="http://www.w3.org/1999/xlink" viewBox="0 0 588.51 528.38"><defs><style>.cls-1{fill:none;}.cls-2{isolation:isolate;}.cls-3{clip-path:url(#clip-path);}.cls-4{fill:url(#Áåçûìÿííûé_ãðàäèåíò_128);}.cls-5{fill:#ffd699;}.cls-17,.cls-20,.cls-22,.cls-25,.cls-5,.cls-9{mix-blend-mode:multiply;}.cls-6{fill:#ba6a1d;}.cls-7{fill:#993807;}.cls-8{fill:url(#Áåçûìÿííûé_ãðàäèåíò_170);}.cls-9{fill:#bac933;opacity:0.4;}.cls-10{fill:url(#Áåçûìÿííûé_ãðàäèåíò_170-2);}.cls-11{fill:url(#Áåçûìÿííûé_ãðàäèåíò_170-3);}.cls-12{fill:url(#Áåçûìÿííûé_ãðàäèåíò_170-4);}.cls-13{fill:url(#Áåçûìÿííûé_ãðàäèåíò_170-5);}.cls-14{fill:#f7c89c;}.cls-15,.cls-21{fill:#fff7cc;}.cls-16{fill:url(#Áåçûìÿííûé_ãðàäèåíò_167);}.cls-17{fill:#bbc63f;}.cls-18{fill:url(#Áåçûìÿííûé_ãðàäèåíò_14);}.cls-19,.cls-20{fill:#e1c0e1;}.cls-19{opacity:0.1;}.cls-19,.cls-21{mix-blend-mode:overlay;}.cls-21{opacity:0.3;}.cls-22{fill:#c4d5e6;}.cls-23{fill:url(#Áåçûìÿííûé_ãðàäèåíò_170-6);}.cls-24{clip-path:url(#clip-path-2);}.cls-25{fill:#a1132d;opacity:0.29;}</style><clipPath id="clip-path"><rect class="cls-1" width="588.51" height="528.38"/></clipPath><linearGradient id="Áåçûìÿííûé_ãðàäèåíò_128" x1="294.26" y1="426.15" x2="294.26" y2="-18.65" gradientTransform="translate(588.51 361.11) rotate(-180)" gradientUnits="userSpaceOnUse"><stop offset="0" stop-color="#fad26e"/><stop offset="0.03" stop-color="#fad575"/><stop offset="0.24" stop-color="#fde7a4"/><stop offset="0.41" stop-color="#fef3c1"/><stop offset="0.5" stop-color="#fff7cc"/><stop offset="0.53" stop-color="#ecf5cc"/><stop offset="0.66" stop-color="#9aeccb"/><stop offset="0.78" stop-color="#58e5cb"/><stop offset="0.88" stop-color="#28dfca"/><stop offset="0.96" stop-color="#0bdcca"/><stop offset="1" stop-color="#00dbca"/></linearGradient><linearGradient id="Áåçûìÿííûé_ãðàäèåíò_170" x1="40.12" y1="152.86" x2="-43.69" y2="230.45" gradientUnits="userSpaceOnUse"><stop offset="0" stop-color="#d6e73b"/><stop offset="0.13" stop-color="#d1e53b"/><stop offset="0.29" stop-color="#c1e03d"/><stop offset="0.47" stop-color="#a7d83f"/><stop offset="0.66" stop-color="#83cd42"/><stop offset="0.86" stop-color="#56bf45"/><stop offset="1" stop-color="#32b448"/></linearGradient><linearGradient id="Áåçûìÿííûé_ãðàäèåíò_170-2" x1="86.38" y1="172.64" x2="18.11" y2="235.84" xlink:href="#Áåçûìÿííûé_ãðàäèåíò_170"/><linearGradient id="Áåçûìÿííûé_ãðàäèåíò_170-3" x1="164.79" y1="165.19" x2="90.66" y2="233.81" xlink:href="#Áåçûìÿííûé_ãðàäèåíò_170"/><linearGradient id="Áåçûìÿííûé_ãðàäèåíò_170-4" x1="253.65" y1="153.27" x2="169.83" y2="230.86" xlink:href="#Áåçûìÿííûé_ãðàäèåíò_170"/><linearGradient id="Áåçûìÿííûé_ãðàäèåíò_170-5" x1="578.22" y1="172.47" x2="509.49" y2="236.1" xlink:href="#Áåçûìÿííûé_ãðàäèåíò_170"/><linearGradient id="Áåçûìÿííûé_ãðàäèåíò_167" x1="293.63" y1="1181.74" x2="293.63" y2="118.22" gradientUnits="userSpaceOnUse"><stop offset="0" stop-color="#bac933"/><stop offset="0.14" stop-color="#b5c733"/><stop offset="0.31" stop-color="#a5c234"/><stop offset="0.51" stop-color="#8bb836"/><stop offset="0.72" stop-color="#67ac38"/><stop offset="0.93" stop-color="#3a9c3b"/><stop offset="1" stop-color="#2a963c"/></linearGradient><linearGradient id="Áåçûìÿííûé_ãðàäèåíò_14" x1="664.45" y1="267.99" x2="-40.28" y2="267.99" gradientUnits="userSpaceOnUse"><stop offset="0" stop-color="#e0c59a"/><stop offset="1" stop-color="#519ab3"/></linearGradient><linearGradient id="Áåçûìÿííûé_ãðàäèåíò_170-6" x1="304.64" y1="177.18" x2="239.61" y2="237.38" xlink:href="#Áåçûìÿííûé_ãðàäèåíò_170"/><clipPath id="clip-path-2"><rect class="cls-1" x="1213.12" y="-652.76" width="588.51" height="548.5"/></clipPath></defs><title>Prancheta 171</title><g class="cls-2"><g id="Camada_1" data-name="Camada 1"><g class="cls-3"><rect class="cls-4" x="-15.13" y="-1.13" width="618.76" height="363.37" transform="translate(588.51 361.11) rotate(180)"/><polygon class="cls-5" points="310.43 221.09 310.43 226.1 308.29 226.1 308.29 215.43 298.02 215.43 298.02 240.33 295.11 240.17 295.11 236.73 289.13 237.22 290.51 246.57 277.34 247.22 277.34 238.67 265.23 237.85 265.23 245.29 259.72 245.35 260.48 232.39 256.81 232.44 256.81 237.22 253.89 236.73 254.97 222.33 242.77 221.56 243.37 211.43 232.25 212.75 232.25 219.01 229.57 219.01 229.57 205.66 216.73 205.66 216.73 236.82 213.08 236.62 213.08 232.31 205.61 232.93 207.33 244.63 190.85 245.43 190.85 234.74 175.7 233.72 175.7 243.03 168.8 243.1 169.76 226.89 165.16 226.94 165.16 232.93 161.52 232.31 162.86 214.29 144.26 213.13 142.54 254.32 238.76 253.44 238.72 254.32 317.33 253.6 319.32 220.04 310.43 221.09"/><polygon class="cls-5" points="415.15 221.09 415.15 226.1 413.95 226.1 413.95 215.43 408.21 215.43 408.21 240.33 406.58 240.17 406.58 236.73 403.24 237.22 404.01 246.57 396.65 247.22 396.65 238.67 389.88 237.85 389.88 245.29 386.79 245.35 387.22 232.39 385.17 232.44 385.17 237.22 383.54 236.73 384.14 222.33 377.32 221.56 377.66 211.43 371.44 212.75 371.44 219.01 369.94 219.01 369.94 205.66 362.76 205.66 362.76 236.82 360.72 236.62 360.72 232.31 356.54 232.93 357.51 244.63 348.29 245.43 348.29 234.74 339.82 233.72 339.82 243.03 335.96 243.1 336.5 226.89 333.93 226.94 333.93 232.93 331.89 232.31 332.64 214.29 322.25 213.13 321.28 254.32 375.08 253.44 375.06 254.32 419 253.6 420.12 220.04 415.15 221.09"/><polygon class="cls-5" points="588.51 221.09 588.51 226.1 586.37 226.1 586.37 215.43 576.1 215.43 576.1 240.33 573.19 240.17 573.19 236.73 567.22 237.22 568.6 246.57 555.42 247.22 555.42 238.67 543.31 237.85 543.31 245.29 537.8 245.35 538.57 232.39 534.89 232.44 534.89 237.22 531.98 236.73 533.05 222.33 520.85 221.56 521.46 211.43 510.34 212.75 510.34 219.01 507.65 219.01 507.65 205.66 494.81 205.66 494.81 236.82 491.17 236.62 491.17 232.31 483.69 232.93 485.42 244.63 468.93 245.43 468.93 234.74 453.79 233.72 453.79 243.03 446.88 243.1 447.84 226.89 443.24 226.94 443.24 232.93 439.6 232.31 440.94 214.29 422.35 213.13 420.62 254.32 516.84 253.44 516.81 254.32 595.41 253.6 597.4 220.04 588.51 221.09"/><polygon class="cls-5" points="141.63 221.09 141.63 226.1 139.48 226.1 139.48 215.43 129.22 215.43 129.22 240.33 126.3 240.17 126.3 236.73 120.33 237.22 121.71 246.57 108.53 247.22 108.53 238.67 96.43 237.85 96.43 245.29 90.91 245.35 91.68 232.39 88 232.44 88 237.22 85.09 236.73 86.16 222.33 73.97 221.56 74.57 211.43 63.45 212.75 63.45 219.01 60.76 219.01 60.76 205.66 47.92 205.66 47.92 236.82 44.28 236.62 44.28 232.31 36.8 232.93 38.53 244.63 22.04 245.43 22.04 234.74 6.9 233.72 6.9 243.03 0 243.1 0.95 226.89 -3.65 226.94 -3.65 232.93 -7.29 232.31 -5.95 214.29 -24.54 213.13 -26.27 254.32 69.96 253.44 69.92 254.32 148.52 253.6 150.51 220.04 141.63 221.09"/><path class="cls-6" d="M11.19,148c.94,42,2.4,81,5.3,111.55h-8C10.67,229.7,11.34,191.11,11.19,148Z"/><path class="cls-7" d="M15.3,258.3a10.89,10.89,0,0,0-5.23-.06c.55-10.55.72-21.28,1.27-31.83C11.62,239.7,10.34,255.66,15.3,258.3Z"/><path class="cls-8" d="M12.66,230.28a10.53,10.53,0,0,0,11.71-3.59,10.55,10.55,0,0,0-.11-12.25c1.78.31,4.26.07,5.58-1.16s1.5-3.69,0-4.72a2.87,2.87,0,0,0,1.72-1.9,2.07,2.07,0,0,0-.71-2,11.45,11.45,0,0,0,4.33-11.57,10.57,10.57,0,0,0-9-7.72,6.2,6.2,0,0,0,3.47-3.52,5.43,5.43,0,0,0-.21-4.61c2.83-.95,4.81-4.55,4.55-7.52a6.9,6.9,0,0,0-5.68-6c1.39-1.11,1.14-4-.46-4.79.71.52,2-.31,2.47-1a1.7,1.7,0,0,0-.47-2.31c2.4-.68,3.92-3.49,3.73-6a7.26,7.26,0,0,0-4.2-5.76,10.34,10.34,0,0,0-7.29-.38,3.65,3.65,0,0,0-1.47-5.08,3.92,3.92,0,0,0-5.14,2c1.11-2.64,2.26-5.48,1.61-8.27a7.31,7.31,0,0,0-8.06-5.38,7.33,7.33,0,0,0-5.83,7.75A2.43,2.43,0,0,0,.1,133.6a2.8,2.8,0,0,0-1.54,3.19,9.79,9.79,0,0,0-10,5.06,9.64,9.64,0,0,0,1.68,11c-1,2,.48,4.29,2.56,5.06-.53,1.66.72,3.64,2.11,4.69-3.1,1.54-4.81,4.91-5.2,8.36a10.64,10.64,0,0,0,3.75,9.23,2.51,2.51,0,0,0-3.17.67,2.61,2.61,0,0,0,.22,3.3,4.59,4.59,0,0,0-4.63,3A5.32,5.32,0,0,0-12.78,193a4.65,4.65,0,0,0-2,4.43,4.18,4.18,0,0,0,3.06,3.43c-.5.73.05,1.13.76,1.67a1.81,1.81,0,0,0,2.4-.26,7,7,0,0,0-.31,3.56,3.67,3.67,0,0,0,1.81,3,2.49,2.49,0,0,0,3.2-.77c-.33.82.81,2.06,1.42,2.69a2.34,2.34,0,0,0,2.42.57,3.48,3.48,0,0,0-2.92,2.47,4,4,0,0,0,.73,4c-1.58.56-2.39,2.77-1.95,4.39a3.47,3.47,0,0,0,3.87,2.4c-1.2,1.87-.23,4.77,1.18,6.49a7.14,7.14,0,0,0,5.95,2.39C9.06,233.28,11,231.75,12.66,230.28Z"/><path class="cls-9" d="M11.34,132.32a1.23,1.23,0,0,0-1.41.16,3.31,3.31,0,0,0-.83,1.24,10.36,10.36,0,0,0-1.19,5.14A4.77,4.77,0,0,0,10.77,143a6.14,6.14,0,0,0-5.46,2.6,10.73,10.73,0,0,0-1.6,5.79,8.09,8.09,0,0,0,.65,3.81,3.74,3.74,0,0,0,3,2.19,1.55,1.55,0,0,0-1.67,1.2,1.64,1.64,0,0,0,.93,1.9,3.36,3.36,0,0,0,1.56,4.43,3.57,3.57,0,0,0,4.68-1.34,7.18,7.18,0,0,0,.33,3.38,2.15,2.15,0,0,0,2.5,1.47,10.23,10.23,0,0,0-3.39,3.47c-.84,1.41-.84,3.47.45,4.47-1.81-1-4.2.07-5.39,1.75A6.13,6.13,0,0,0,7,184a6.22,6.22,0,0,0,2.85,3.11,2.13,2.13,0,0,0-2.44,1.33,2.18,2.18,0,0,0,.94,2.65,2.14,2.14,0,0,0-2.26,1.67,2.28,2.28,0,0,0,1.25,2.63,4.31,4.31,0,0,0,1.31,3.15,3.68,3.68,0,0,0,3.31,1,3.08,3.08,0,0,0,2.36-2.44,8,8,0,0,0-.05,2.24,3.09,3.09,0,0,0,1.19,2,1.87,1.87,0,0,0,2.23-.05,10.57,10.57,0,0,0-1.53,2.26,3.33,3.33,0,0,0-.49,2.54,2,2,0,0,0,1.89,1.58,5.37,5.37,0,0,0-2.52,1.1,3.19,3.19,0,0,0-1.1,2.67,2.17,2.17,0,0,0,2,1.93,7.53,7.53,0,0,0-.6,3.68,3.73,3.73,0,0,0,2,3A2.51,2.51,0,0,0,20.58,219a2.51,2.51,0,0,0,2.92,2.1,7.07,7.07,0,0,1-4.26,6.95,11.54,11.54,0,0,1-8.44-.5A4.62,4.62,0,0,1,6.67,231a5.62,5.62,0,0,1-4.95-2.54,6.84,6.84,0,0,1-.76-5.6c-1-.27-1.28-1.47-1.58-2.45A3.12,3.12,0,0,1,0,217.49c-.72-.78-.46-2.4,0-3.36a2.76,2.76,0,0,1,2.59-1.54c-.52-.25-.48-.93-.48-1.51A1.59,1.59,0,0,1,3,209.67a3.3,3.3,0,0,1-3.35-.85,3.09,3.09,0,0,1-.75-3.24,3.6,3.6,0,0,1-4-.73,3.84,3.84,0,0,1-1.21-4.07,7.31,7.31,0,0,1-3-2.57,4.71,4.71,0,0,1-1-4,3.35,3.35,0,0,1,3-2.54c-.47-.36-.38-.8-.71-1.28a2,2,0,0,1-.35-1.66A1.2,1.2,0,0,1-7,187.9a2.66,2.66,0,0,1,.44-3.28,2.77,2.77,0,0,1,3.36-.46,7,7,0,0,1-1.41-2.47,2.93,2.93,0,0,1-.22-1.79,1.27,1.27,0,0,1,1.35-1c-2.72-.78-4.32-3.78-4.27-6.61a6.69,6.69,0,0,1,4.92-6.17c-.55-.55-.23-2,.16-2.65a1.88,1.88,0,0,1,2-.86,4.59,4.59,0,0,1-3.25-1.7,2.76,2.76,0,0,1-.2-3.68,2.67,2.67,0,0,1-2.66-1.08,3,3,0,0,1-.64-3c-1.44-1-1.81-2.65-2-4.38a5.81,5.81,0,0,1,1.85-5,3.85,3.85,0,0,1,5,0,6.54,6.54,0,0,1-.42-1.95,2.14,2.14,0,0,1,.55-1.81,1.3,1.3,0,0,1,1.77,0A5.55,5.55,0,0,1-.29,138a1.9,1.9,0,0,1,1.23-1.4,1.21,1.21,0,0,1,1.51.83c0-.81,1.53-1.86,2.24-1.46a7.48,7.48,0,0,1,.92-4.4,3.07,3.07,0,0,1,1.22-1.48,1.43,1.43,0,0,1,1.77.25,2.07,2.07,0,0,1,2.48-.82C11.84,129.89,11.75,131.59,11.34,132.32ZM27.9,196.79A3.73,3.73,0,0,1,28,200a4.1,4.1,0,0,1-2.53,2.26,2.17,2.17,0,0,1,.79,2,2,2,0,0,1-1.15,1.66,3.31,3.31,0,0,1-.83,2.67,3.55,3.55,0,0,1-2.64,1.21,3.6,3.6,0,0,0,3.35.83A3.78,3.78,0,0,0,27.38,208a4.49,4.49,0,0,0,.92-5.53A4,4,0,0,0,31,200.72a6.57,6.57,0,0,0,1-3.13,9.84,9.84,0,0,0-3-7.86A9.27,9.27,0,0,1,27.9,196.79ZM25.77,174a4.9,4.9,0,0,1-.44,5,5.34,5.34,0,0,1-5,1.81,4.11,4.11,0,0,1-3.2,2.25,1.64,1.64,0,0,0,1.23,1.13,1.68,1.68,0,0,0,1.58-.63,6.72,6.72,0,0,0,6.29-1.74,7,7,0,0,0,2-6.36,1.81,1.81,0,0,0,1.63-.75,4.79,4.79,0,0,0,.21-5.87C30.3,171.07,28,173.78,25.77,174Zm-3.88-15.79a4.52,4.52,0,0,1-4.52,3.2,2.38,2.38,0,0,0,2.49,1.66,4.31,4.31,0,0,0,2.79-1.5,4.17,4.17,0,0,0,1.3-3.28,5.09,5.09,0,0,0,1.78-8.57A9.77,9.77,0,0,1,21.89,158.19Zm-10.4-7.27a5,5,0,0,1-1.69-4,5,5,0,0,0,3.11,8.23,3.21,3.21,0,0,0,3.51-1.63C14.88,153.68,12.58,152,11.49,150.92Zm11.78,40.84a1.54,1.54,0,0,1-.85,1.41,2.82,2.82,0,0,1-1.7.22,5.14,5.14,0,0,1-4.19-3.84,4.91,4.91,0,0,0,1.35,6c0,.36-.33.73-.61.49a1,1,0,0,0,.46.93,2.76,2.76,0,0,0,1.09.44,5.18,5.18,0,0,0,3.39-.27A3.07,3.07,0,0,0,24,194.41a3,3,0,0,1-2.54.74C22.59,194.64,23,193,23.27,191.76Z"/><path class="cls-9" d="M16.33,226a5.76,5.76,0,0,1-5.67-.56,3.89,3.89,0,0,1-2.84,3.22,4.09,4.09,0,0,1-4.25-1.19A4.07,4.07,0,0,1,3,223c-1.08-.42-1.36-2-1.25-3.11A2.76,2.76,0,0,1,4,217.52c-1-.27-1.16-1.78-1-2.83A2.2,2.2,0,0,1,5.42,213c-.52,0-.5-.65-.68-1.15a1.25,1.25,0,0,1,.45-1.39c-.75-.15-1.15-1.28-1.31-2a2,2,0,0,1,.79-2,2.23,2.23,0,0,1-2.71.22,2.58,2.58,0,0,1-1.13-2.74,3.75,3.75,0,0,1-3.26.14,3.49,3.49,0,0,1-2.34-2.47,3,3,0,0,1,1.25-3.1c-1,.37-2.18-.64-2.38-1.72a2,2,0,0,1,1.83-2.24,7.59,7.59,0,0,1-.65-2.22,2.69,2.69,0,0,1,.44-2.24,1.64,1.64,0,0,1,2.12-.37c-.7-.11-.87-1.06-.7-1.75A1.34,1.34,0,0,1-1.21,187a5.46,5.46,0,0,1-.57-1.86,1.71,1.71,0,0,1,.44-1.77,1.05,1.05,0,0,1,1.61.34c-.87-.37-1.32-1.42-2-2.09a2.56,2.56,0,0,1-.77-2.58,1.57,1.57,0,0,1,2.29-.83,8.11,8.11,0,0,1-4.24-3.93A4.29,4.29,0,0,1-4,170.11a4.29,4.29,0,0,1,3.87-1.69c-.71-.42-.73-1.4-.64-2.22a2.24,2.24,0,0,1,1.45-1.86,2.06,2.06,0,0,0,1.1-1.78,1.83,1.83,0,0,0-1-1.44,2.9,2.9,0,0,1-3.22-1.5,2.66,2.66,0,0,1,1-3.25,4.22,4.22,0,0,1-3.75-1.24,2.82,2.82,0,0,1-.44-3.74,4.47,4.47,0,0,1-.91-4A2.45,2.45,0,0,1-5.84,146a1.32,1.32,0,0,1,1.49-.14,3.82,3.82,0,0,1,3.14.8,8,8,0,0,1,0-2.39,1.46,1.46,0,0,1,.38-1c.28-.23.81-.17.89.19-.15-.4.18-.91.39-1.28s.94-.34.93.09a8.19,8.19,0,0,0-.56,6.6l.38-.23a2.42,2.42,0,0,0-2.73,2.16A2.44,2.44,0,0,0,1,153.2c-.46.29-.39.87-.37,1.42A1.58,1.58,0,0,0,1.47,156a2.65,2.65,0,0,0,.1,2.81A2.52,2.52,0,0,0,4,160.07a4.38,4.38,0,0,0,1.38,5.33A2.88,2.88,0,0,0,4,168.34a2.94,2.94,0,0,0,2.11,2.55c-.7-.15-1.19.33-1.53,1a1.71,1.71,0,0,0,.28,2c-.3-.54-1.11-.33-1.61,0a1.84,1.84,0,0,0-.6,1.67,5.3,5.3,0,0,0,.6,1.74,6.7,6.7,0,0,0-.77,5.25,6,6,0,0,0,3.27,3.78,6.16,6.16,0,0,0-2.08,9.48c-.72,0-1.07.75-1.32,1.42a1.85,1.85,0,0,0,.5,2c-.4,1.22.53,2.62,1.44,3.53a5.22,5.22,0,0,0,3.49,1.41,10.41,10.41,0,0,0,3.78-.65,5.81,5.81,0,0,0-1.68,3.19A2.82,2.82,0,0,0,11.51,210a3.62,3.62,0,0,0-2.36,2.73,3.72,3.72,0,0,0,.95,3.53c-1,.29-1.38,1.63-1.33,2.72a3,3,0,0,0,1.79,2.54,3.82,3.82,0,0,0,3.17-.13A7.61,7.61,0,0,0,16.33,226Z"/><path class="cls-6" d="M62.82,168.67c.76,34.21,1.95,66,4.31,90.87H60.57C62.39,235.24,62.93,203.8,62.82,168.67Z"/><path class="cls-7" d="M66.17,258.53a8.94,8.94,0,0,0-4.27,0c.45-8.6.59-17.33,1-25.93C63.16,243.37,62.12,256.38,66.17,258.53Z"/><path class="cls-10" d="M64,235.71a8.35,8.35,0,0,0,9.45-12.91,5.71,5.71,0,0,0,4.54-.94c1.08-1,1.23-3,0-3.85a2.36,2.36,0,0,0,1.41-1.54,1.73,1.73,0,0,0-.58-1.67,9.33,9.33,0,0,0,3.52-9.42,8.6,8.6,0,0,0-7.3-6.29,5.06,5.06,0,0,0,2.83-2.87,4.4,4.4,0,0,0-.17-3.75c2.3-.77,3.91-3.71,3.7-6.13a5.62,5.62,0,0,0-4.62-4.92,2.55,2.55,0,0,0-.37-3.9c.57.42,1.6-.25,2-.84a1.39,1.39,0,0,0-.38-1.88,4.74,4.74,0,0,0,3-4.86,5.92,5.92,0,0,0-3.42-4.69,8.44,8.44,0,0,0-5.94-.31,3,3,0,0,0-1.19-4.14,3.19,3.19,0,0,0-4.19,1.62c.91-2.14,1.84-4.46,1.31-6.73a5.75,5.75,0,0,0-11.31,1.93,2,2,0,0,0-2.58-.66,2.26,2.26,0,0,0-1.25,2.59,8,8,0,0,0-8.18,4.13,7.85,7.85,0,0,0,1.38,9c-.83,1.6.39,3.5,2.08,4.12-.43,1.35.58,3,1.72,3.82a8.48,8.48,0,0,0-4.24,6.81,8.68,8.68,0,0,0,3.06,7.52,2.06,2.06,0,0,0-2.59.55,2.13,2.13,0,0,0,.19,2.69,3.74,3.74,0,0,0-3.78,2.41,4.36,4.36,0,0,0,1.12,4.74,3.78,3.78,0,0,0-1.62,3.61,3.41,3.41,0,0,0,2.49,2.79c-.41.59,0,.92.62,1.36a1.48,1.48,0,0,0,1.95-.21,5.87,5.87,0,0,0-.25,2.89A3,3,0,0,0,48,218.17a2,2,0,0,0,2.61-.63c-.27.67.66,1.68,1.16,2.19a1.87,1.87,0,0,0,2,.46,2.82,2.82,0,0,0-2.37,2,3.25,3.25,0,0,0,.58,3.3,3.09,3.09,0,0,0-1.58,3.57,2.82,2.82,0,0,0,3.15,2c-1,1.52-.18,3.88,1,5.28a5.78,5.78,0,0,0,4.85,2C61.08,238.15,62.65,236.9,64,235.71Z"/><path class="cls-9" d="M62.93,155.91a1,1,0,0,0-1.14.13,2.69,2.69,0,0,0-.68,1,8.37,8.37,0,0,0-1,4.19,3.88,3.88,0,0,0,2.33,3.39A5,5,0,0,0,58,166.75a8.69,8.69,0,0,0-1.31,4.71,6.58,6.58,0,0,0,.53,3.11,3.06,3.06,0,0,0,2.46,1.78,1.26,1.26,0,0,0-1.36,1,1.34,1.34,0,0,0,.75,1.55,2.74,2.74,0,0,0,1.28,3.6,2.9,2.9,0,0,0,3.81-1.09,5.87,5.87,0,0,0,.27,2.76,1.75,1.75,0,0,0,2,1.19,8.33,8.33,0,0,0-2.77,2.83,2.87,2.87,0,0,0,.37,3.64c-1.47-.79-3.42.06-4.39,1.43a5.26,5.26,0,0,0,2,7.32,1.77,1.77,0,0,0-2,1.09,1.79,1.79,0,0,0,.77,2.16,1.74,1.74,0,0,0-1.84,1.35,1.85,1.85,0,0,0,1,2.15,3.53,3.53,0,0,0,1.07,2.57,3,3,0,0,0,2.69.83,2.48,2.48,0,0,0,1.92-2,6.53,6.53,0,0,0,0,1.82,2.47,2.47,0,0,0,1,1.63,1.53,1.53,0,0,0,1.82,0A8.29,8.29,0,0,0,66.86,214a2.77,2.77,0,0,0-.4,2.07A1.68,1.68,0,0,0,68,217.34a4.33,4.33,0,0,0-2,.9,2.59,2.59,0,0,0-.9,2.16A1.79,1.79,0,0,0,66.64,222a6.2,6.2,0,0,0-.49,3,3,3,0,0,0,1.66,2.47,2,2,0,0,0,2.65-.92,2,2,0,0,0,2.38,1.71,5.75,5.75,0,0,1-3.47,5.66,9.4,9.4,0,0,1-6.87-.4,3.78,3.78,0,0,1-3.37,2.77,4.59,4.59,0,0,1-4-2.07,5.54,5.54,0,0,1-.62-4.56c-.8-.22-1-1.2-1.29-2a2.53,2.53,0,0,1,.5-2.35c-.59-.64-.38-2,0-2.74a2.24,2.24,0,0,1,2.11-1.26c-.43-.2-.4-.76-.4-1.23a1.3,1.3,0,0,1,.72-1.14,2.71,2.71,0,0,1-2.73-.69,2.53,2.53,0,0,1-.61-2.65A2.93,2.93,0,0,1,49.5,215a3.14,3.14,0,0,1-1-3.32,5.9,5.9,0,0,1-2.43-2.09,3.86,3.86,0,0,1-.78-3.22,2.73,2.73,0,0,1,2.44-2.07c-.38-.3-.31-.65-.58-1a1.63,1.63,0,0,1-.28-1.36,1,1,0,0,1,1.09-.71,2.16,2.16,0,0,1,.36-2.67,2.26,2.26,0,0,1,2.74-.37,5.76,5.76,0,0,1-1.15-2,2.39,2.39,0,0,1-.18-1.46,1,1,0,0,1,1.1-.8c-2.21-.64-3.52-3.08-3.48-5.39a5.43,5.43,0,0,1,4-5c-.45-.45-.19-1.6.13-2.16a1.53,1.53,0,0,1,1.65-.7,3.79,3.79,0,0,1-2.65-1.38,2.28,2.28,0,0,1-.16-3,2.16,2.16,0,0,1-2.17-.88,2.38,2.38,0,0,1-.51-2.42c-1.18-.78-1.48-2.17-1.6-3.58a4.74,4.74,0,0,1,1.5-4,3.12,3.12,0,0,1,4.08,0,5.3,5.3,0,0,1-.33-1.59,1.7,1.7,0,0,1,.44-1.47,1.06,1.06,0,0,1,1.44,0,4.7,4.7,0,0,1,.26-1.69,1.56,1.56,0,0,1,1-1.15,1,1,0,0,1,1.23.68c.05-.66,1.25-1.51,1.83-1.19a6.07,6.07,0,0,1,.75-3.58,2.47,2.47,0,0,1,1-1.21,1.18,1.18,0,0,1,1.45.21,1.68,1.68,0,0,1,2-.67C63.34,153.93,63.27,155.32,62.93,155.91Zm13.49,52.52a3,3,0,0,1,.06,2.63,3.32,3.32,0,0,1-2.06,1.84,1.77,1.77,0,0,1,.65,1.59,1.64,1.64,0,0,1-.94,1.35,2.72,2.72,0,0,1-.68,2.18,2.87,2.87,0,0,1-2.15,1,2.94,2.94,0,0,0,2.73.67,3.08,3.08,0,0,0,2-2.12,3.67,3.67,0,0,0,.75-4.51A3.22,3.22,0,0,0,79,211.62a5.28,5.28,0,0,0,.83-2.54,8,8,0,0,0-2.4-6.41A7.58,7.58,0,0,1,76.42,208.43Zm-1.73-18.59a4,4,0,0,1-.36,4.11,4.38,4.38,0,0,1-4.06,1.47,3.34,3.34,0,0,1-2.6,1.83,1.32,1.32,0,0,0,1,.92,1.36,1.36,0,0,0,1.29-.51,5.49,5.49,0,0,0,5.12-1.42,5.68,5.68,0,0,0,1.61-5.18,1.47,1.47,0,0,0,1.33-.62,3.9,3.9,0,0,0,.16-4.77A4.27,4.27,0,0,1,74.69,189.84ZM71.53,177a3.68,3.68,0,0,1-3.68,2.61,2,2,0,0,0,2,1.36,3.55,3.55,0,0,0,2.28-1.23,3.4,3.4,0,0,0,1.06-2.67,4.15,4.15,0,0,0,1.45-7A8,8,0,0,1,71.53,177Zm-8.47-5.92a4,4,0,0,1-1.38-3.28,4.11,4.11,0,0,0,2.54,6.71,2.63,2.63,0,0,0,2.85-1.33C65.82,173.31,64,172,63.06,171.06Zm9.59,33.27a1.21,1.21,0,0,1-.69,1.14,2.17,2.17,0,0,1-1.38.18,4.15,4.15,0,0,1-3.41-3.12,4,4,0,0,0,1.09,4.9c0,.3-.27.59-.49.4a.83.83,0,0,0,.37.76A2.32,2.32,0,0,0,69,209a4.27,4.27,0,0,0,2.76-.22,2.51,2.51,0,0,0,1.46-2.24,2.46,2.46,0,0,1-2.07.6C72.1,206.67,72.46,205.31,72.65,204.33Z"/><path class="cls-9" d="M67,232.18a4.72,4.72,0,0,1-4.62-.46,3.14,3.14,0,0,1-2.31,2.62,3.23,3.23,0,0,1-3.9-4.53c-.88-.34-1.11-1.59-1-2.54a2.26,2.26,0,0,1,1.78-2c-.85-.22-1-1.45-.78-2.3a1.8,1.8,0,0,1,2-1.36c-.42,0-.41-.54-.55-.94a1,1,0,0,1,.36-1.13c-.6-.13-.93-1-1.06-1.65a1.63,1.63,0,0,1,.64-1.64,1.78,1.78,0,0,1-2.2.18,2.1,2.1,0,0,1-.92-2.23,3.06,3.06,0,0,1-2.66.12,2.81,2.81,0,0,1-1.9-2,2.41,2.41,0,0,1,1-2.52c-.84.3-1.77-.52-1.93-1.4a1.61,1.61,0,0,1,1.49-1.83,6.15,6.15,0,0,1-.54-1.8,2.19,2.19,0,0,1,.37-1.83,1.32,1.32,0,0,1,1.72-.3c-.57-.09-.71-.86-.57-1.42a1.07,1.07,0,0,1,1.34-.75,4.34,4.34,0,0,1-.46-1.52,1.38,1.38,0,0,1,.36-1.44.85.85,0,0,1,1.31.27c-.71-.3-1.08-1.16-1.63-1.7a2.09,2.09,0,0,1-.62-2.1,1.29,1.29,0,0,1,1.87-.68,6.61,6.61,0,0,1-3.46-3.2,3.41,3.41,0,0,1,3.51-4.8c-.58-.35-.6-1.14-.53-1.81A1.85,1.85,0,0,1,54.25,182a1.66,1.66,0,0,0,.89-1.45,1.48,1.48,0,0,0-.83-1.17,2.39,2.39,0,0,1-2.64-1.22,2.2,2.2,0,0,1,.78-2.65,3.43,3.43,0,0,1-3.05-1,2.29,2.29,0,0,1-.36-3.05,3.61,3.61,0,0,1-.74-3.26,2,2,0,0,1,.64-1.1,1.08,1.08,0,0,1,1.21-.12,3.18,3.18,0,0,1,2.56.65,7,7,0,0,1,0-1.94,1.16,1.16,0,0,1,.32-.81c.22-.2.66-.14.72.15-.13-.32.15-.74.32-1s.76-.28.75.07a6.66,6.66,0,0,0-.45,5.38l.31-.19a1.87,1.87,0,1,0-.14,3.69c-.38.23-.32.71-.31,1.15a1.35,1.35,0,0,0,.67,1.1,2.16,2.16,0,0,0,.08,2.29,2.06,2.06,0,0,0,2,1.06,3.57,3.57,0,0,0,1.13,4.34A2.32,2.32,0,0,0,57,185.25a2.4,2.4,0,0,0,1.71,2.08c-.56-.13-1,.27-1.24.78a1.4,1.4,0,0,0,.23,1.61c-.25-.44-.91-.28-1.31,0a1.52,1.52,0,0,0-.5,1.36,4.49,4.49,0,0,0,.5,1.41,5.44,5.44,0,0,0-.63,4.28,4.86,4.86,0,0,0,2.66,3.08,5,5,0,0,0-1.69,7.72c-.58,0-.88.61-1.07,1.16a1.48,1.48,0,0,0,.4,1.58c-.32,1,.43,2.14,1.17,2.88A4.26,4.26,0,0,0,60,214.37a8.33,8.33,0,0,0,3.08-.53,4.81,4.81,0,0,0-1.37,2.6,2.27,2.27,0,0,0,1.33,2.7,3,3,0,0,0-1.93,2.22,3,3,0,0,0,.77,2.88c-.85.24-1.12,1.33-1.08,2.22a2.48,2.48,0,0,0,1.46,2.07,3.07,3.07,0,0,0,2.58-.11A6.24,6.24,0,0,0,67,232.18Z"/><path class="cls-6" d="M139.2,160.88c.83,37.14,2.12,71.62,4.69,98.66h-7.12C138.74,233.15,139.33,199,139.2,160.88Z"/><path class="cls-7" d="M142.84,258.45a9.55,9.55,0,0,0-4.63-.06c.48-9.33.64-18.82,1.12-28.15C139.58,242,138.45,256.11,142.84,258.45Z"/><path class="cls-11" d="M140.5,233.66a9.06,9.06,0,0,0,10.26-14c1.57.28,3.76.07,4.93-1s1.33-3.27,0-4.18a2.57,2.57,0,0,0,1.53-1.67,1.88,1.88,0,0,0-.63-1.81,10.16,10.16,0,0,0,3.83-10.24,9.39,9.39,0,0,0-7.93-6.83,5.41,5.41,0,0,0,3.07-3.11,4.78,4.78,0,0,0-.19-4.08c2.5-.83,4.25-4,4-6.64a6.11,6.11,0,0,0-5-5.35,2.76,2.76,0,0,0-.4-4.23c.62.46,1.74-.28,2.18-.91a1.51,1.51,0,0,0-.41-2c2.12-.6,3.46-3.09,3.29-5.29a6.41,6.41,0,0,0-3.71-5.09,9.18,9.18,0,0,0-6.45-.33,3.24,3.24,0,0,0-1.29-4.5,3.46,3.46,0,0,0-4.55,1.77c1-2.34,2-4.85,1.42-7.32a6.24,6.24,0,0,0-12.28,2.1,2.15,2.15,0,0,0-2.8-.72A2.47,2.47,0,0,0,128,151a8.64,8.64,0,0,0-8.87,4.48,8.51,8.51,0,0,0,1.48,9.73c-.9,1.74.43,3.8,2.26,4.48-.46,1.46.64,3.22,1.87,4.14-2.74,1.37-4.25,4.35-4.59,7.39a9.38,9.38,0,0,0,3.32,8.17,2.23,2.23,0,0,0-2.81.6,2.28,2.28,0,0,0,.2,2.91,4.06,4.06,0,0,0-4.1,2.62,4.73,4.73,0,0,0,1.21,5.15,4.09,4.09,0,0,0-1.76,3.92,3.71,3.71,0,0,0,2.71,3c-.45.64,0,1,.67,1.47a1.6,1.6,0,0,0,2.12-.23,6.32,6.32,0,0,0-.28,3.15,3.24,3.24,0,0,0,1.6,2.63,2.22,2.22,0,0,0,2.84-.68c-.29.72.71,1.82,1.25,2.38a2.09,2.09,0,0,0,2.15.5,3.1,3.1,0,0,0-2.59,2.18,3.56,3.56,0,0,0,.64,3.59,3.37,3.37,0,0,0-1.72,3.88,3.08,3.08,0,0,0,3.42,2.13c-1.05,1.65-.2,4.21,1,5.73a6.29,6.29,0,0,0,5.26,2.12C137.32,236.31,139,235,140.5,233.66Z"/><path class="cls-9" d="M139.33,147a1.08,1.08,0,0,0-1.24.14,2.78,2.78,0,0,0-.74,1.1,9.16,9.16,0,0,0-1,4.54,4.22,4.22,0,0,0,2.53,3.68,5.43,5.43,0,0,0-4.83,2.3,9.41,9.41,0,0,0-1.42,5.12,7,7,0,0,0,.58,3.37,3.3,3.3,0,0,0,2.66,1.93,1.38,1.38,0,0,0-1.47,1.07,1.45,1.45,0,0,0,.82,1.68,3,3,0,0,0,1.39,3.91,3.14,3.14,0,0,0,4.13-1.18,6.33,6.33,0,0,0,.3,3A1.89,1.89,0,0,0,143.2,179a9,9,0,0,0-3,3.08,3.09,3.09,0,0,0,.4,3.95c-1.6-.86-3.72.07-4.77,1.55a5.42,5.42,0,0,0-.34,5.21,5.51,5.51,0,0,0,2.53,2.75,1.91,1.91,0,0,0-2.17,1.18,1.93,1.93,0,0,0,.83,2.34,1.89,1.89,0,0,0-2,1.47,2,2,0,0,0,1.1,2.33,3.81,3.81,0,0,0,1.17,2.79,3.24,3.24,0,0,0,2.92.91,2.7,2.7,0,0,0,2.08-2.16,7.3,7.3,0,0,0,0,2,2.69,2.69,0,0,0,1.06,1.77,1.63,1.63,0,0,0,2,0,9.82,9.82,0,0,0-1.35,2,3,3,0,0,0-.43,2.25,1.82,1.82,0,0,0,1.67,1.4,4.78,4.78,0,0,0-2.23,1,2.83,2.83,0,0,0-1,2.36,1.94,1.94,0,0,0,1.72,1.71,6.74,6.74,0,0,0-.53,3.25,3.3,3.3,0,0,0,1.81,2.69,2.2,2.2,0,0,0,2.87-1,2.22,2.22,0,0,0,2.59,1.86,6.26,6.26,0,0,1-3.78,6.15,10.18,10.18,0,0,1-7.45-.44,4.1,4.1,0,0,1-3.66,3,5,5,0,0,1-4.38-2.24,6,6,0,0,1-.67-5c-.87-.24-1.13-1.3-1.4-2.17a2.77,2.77,0,0,1,.54-2.55c-.64-.69-.41-2.12,0-3a2.45,2.45,0,0,1,2.29-1.36c-.47-.22-.43-.82-.43-1.33a1.39,1.39,0,0,1,.78-1.24,3,3,0,0,1-3-.75,2.75,2.75,0,0,1-.67-2.88,3.18,3.18,0,0,1-3.56-.64,3.41,3.41,0,0,1-1.06-3.6A6.42,6.42,0,0,1,121,205.3a4.17,4.17,0,0,1-.84-3.5,2.93,2.93,0,0,1,2.64-2.25c-.41-.32-.33-.7-.63-1.13a1.78,1.78,0,0,1-.3-1.47,1.07,1.07,0,0,1,1.19-.77,2.35,2.35,0,0,1,.38-2.9,2.45,2.45,0,0,1,3-.4,6.21,6.21,0,0,1-1.25-2.19,2.58,2.58,0,0,1-.2-1.59,1.13,1.13,0,0,1,1.2-.86c-2.4-.69-3.82-3.35-3.78-5.85a5.91,5.91,0,0,1,4.35-5.45c-.49-.5-.2-1.74.14-2.34a1.65,1.65,0,0,1,1.8-.76,4.15,4.15,0,0,1-2.88-1.51,2.45,2.45,0,0,1-.17-3.26,2.36,2.36,0,0,1-2.36-1,2.61,2.61,0,0,1-.56-2.63c-1.28-.85-1.61-2.35-1.73-3.88a5.14,5.14,0,0,1,1.63-4.38,3.38,3.38,0,0,1,4.43,0,5.87,5.87,0,0,1-.37-1.72,1.88,1.88,0,0,1,.49-1.6,1.13,1.13,0,0,1,1.56,0,4.89,4.89,0,0,1,.29-1.84,1.67,1.67,0,0,1,1.08-1.24,1.07,1.07,0,0,1,1.34.74c.05-.73,1.35-1.65,2-1.3a6.71,6.71,0,0,1,.81-3.89,2.68,2.68,0,0,1,1.08-1.31,1.27,1.27,0,0,1,1.57.23,1.83,1.83,0,0,1,2.19-.74C139.77,144.88,139.7,146.38,139.33,147ZM154,204a3.33,3.33,0,0,1,.06,2.86,3.66,3.66,0,0,1-2.24,2,1.91,1.91,0,0,1,.7,1.73,1.78,1.78,0,0,1-1,1.47,2.92,2.92,0,0,1-.73,2.36,3.17,3.17,0,0,1-2.33,1.07,3.14,3.14,0,0,0,3,.73,3.36,3.36,0,0,0,2.14-2.3,4,4,0,0,0,.81-4.89,3.56,3.56,0,0,0,2.4-1.56,5.8,5.8,0,0,0,.91-2.76A8.69,8.69,0,0,0,155,197.8,8.2,8.2,0,0,1,154,204Zm-1.89-20.17a4.33,4.33,0,0,1-.39,4.45,4.73,4.73,0,0,1-4.4,1.6,3.64,3.64,0,0,1-2.83,2,1.41,1.41,0,0,0,1.09,1,1.49,1.49,0,0,0,1.4-.55,5.92,5.92,0,0,0,5.56-1.54,6.14,6.14,0,0,0,1.74-5.63,1.61,1.61,0,0,0,1.45-.66,4.22,4.22,0,0,0,.17-5.18A4.64,4.64,0,0,1,152.09,183.87Zm-3.43-14a4,4,0,0,1-4,2.84,2.12,2.12,0,0,0,2.19,1.47,3.83,3.83,0,0,0,2.47-1.33,3.68,3.68,0,0,0,1.15-2.91,4.49,4.49,0,0,0,1.58-7.57A8.66,8.66,0,0,1,148.66,169.9Zm-9.2-6.43a4.37,4.37,0,0,1-1.49-3.56,4.45,4.45,0,0,0,2.75,7.28,2.84,2.84,0,0,0,3.1-1.44C142.47,165.91,140.43,164.44,139.46,163.47Zm10.42,36.12a1.34,1.34,0,0,1-.75,1.25,2.48,2.48,0,0,1-1.5.19,4.5,4.5,0,0,1-3.7-3.39,4.34,4.34,0,0,0,1.18,5.32c0,.32-.29.65-.53.44a.9.9,0,0,0,.4.82,2.53,2.53,0,0,0,1,.39,4.63,4.63,0,0,0,3-.24,2.7,2.7,0,0,0,1.58-2.43,2.65,2.65,0,0,1-2.25.65C149.28,202.14,149.67,200.66,149.88,199.59Z"/><path class="cls-9" d="M143.74,229.83a5.06,5.06,0,0,1-5-.5,3.43,3.43,0,0,1-2.51,2.85,3.51,3.51,0,0,1-4.23-4.92c-1-.37-1.21-1.73-1.12-2.76a2.49,2.49,0,0,1,1.94-2.13c-.93-.23-1-1.56-.84-2.5a1.93,1.93,0,0,1,2.12-1.47c-.46,0-.44-.58-.59-1a1.09,1.09,0,0,1,.39-1.23c-.66-.14-1-1.13-1.15-1.79a1.79,1.79,0,0,1,.69-1.78,1.94,1.94,0,0,1-2.39.2,2.28,2.28,0,0,1-1-2.42,3.32,3.32,0,0,1-2.89.12,3,3,0,0,1-2.06-2.18,2.64,2.64,0,0,1,1.1-2.75c-.92.33-1.92-.56-2.1-1.51a1.75,1.75,0,0,1,1.61-2,6.82,6.82,0,0,1-.57-2,2.35,2.35,0,0,1,.39-2,1.45,1.45,0,0,1,1.87-.33c-.62-.09-.77-.93-.62-1.54a1.18,1.18,0,0,1,1.46-.82,4.54,4.54,0,0,1-.5-1.64,1.53,1.53,0,0,1,.39-1.57.93.93,0,0,1,1.42.3c-.77-.33-1.17-1.26-1.76-1.85a2.26,2.26,0,0,1-.68-2.28,1.4,1.4,0,0,1,2-.74,7.17,7.17,0,0,1-3.76-3.47,3.7,3.7,0,0,1,3.81-5.21c-.63-.38-.64-1.24-.57-2a2,2,0,0,1,1.29-1.65,1.81,1.81,0,0,0,1-1.57,1.65,1.65,0,0,0-.91-1.28,2.58,2.58,0,0,1-2.86-1.32,2.36,2.36,0,0,1,.85-2.87,3.76,3.76,0,0,1-3.32-1.1,2.5,2.5,0,0,1-.39-3.31,4,4,0,0,1-.8-3.54,2.19,2.19,0,0,1,.7-1.2,1.15,1.15,0,0,1,1.31-.12,3.39,3.39,0,0,1,2.78.7,7.11,7.11,0,0,1,0-2.11,1.3,1.3,0,0,1,.34-.88c.25-.21.72-.15.79.16-.14-.35.16-.8.34-1.13s.83-.3.82.08a7.23,7.23,0,0,0-.49,5.84l.34-.21a2,2,0,1,0-.15,4c-.42.26-.35.77-.34,1.25a1.47,1.47,0,0,0,.72,1.2,2.35,2.35,0,0,0,.09,2.48,2.23,2.23,0,0,0,2.15,1.15,3.87,3.87,0,0,0,1.22,4.71,2.54,2.54,0,0,0-1.22,2.6,2.62,2.62,0,0,0,1.86,2.26c-.61-.14-1,.29-1.35.84a1.53,1.53,0,0,0,.25,1.75c-.27-.48-1-.3-1.42,0a1.65,1.65,0,0,0-.54,1.48,4.8,4.8,0,0,0,.54,1.54,5.89,5.89,0,0,0-.68,4.64,5.27,5.27,0,0,0,2.89,3.35,5.46,5.46,0,0,0-1.85,8.38c-.63,0-.94.66-1.16,1.25a1.63,1.63,0,0,0,.45,1.73c-.36,1.08.46,2.32,1.26,3.12a4.65,4.65,0,0,0,3.1,1.25,9.15,9.15,0,0,0,3.34-.58,5.18,5.18,0,0,0-1.49,2.82,2.49,2.49,0,0,0,1.45,2.94,3.22,3.22,0,0,0-2.09,2.41,3.29,3.29,0,0,0,.83,3.13c-.93.26-1.22,1.44-1.18,2.4a2.69,2.69,0,0,0,1.6,2.25,3.35,3.35,0,0,0,2.8-.12A6.75,6.75,0,0,0,143.74,229.83Z"/><path class="cls-6" d="M224.72,148.4c.94,42,2.4,81,5.3,111.55H222C224.2,230.12,224.86,191.52,224.72,148.4Z"/><path class="cls-7" d="M228.83,258.72a10.76,10.76,0,0,0-5.23-.07c.54-10.55.72-21.28,1.26-31.83C225.14,240.11,223.87,256.08,228.83,258.72Z"/><path class="cls-12" d="M226.19,230.7a10.24,10.24,0,0,0,11.59-15.85c1.78.32,4.26.08,5.58-1.16s1.5-3.69,0-4.72a2.89,2.89,0,0,0,1.73-1.89,2.1,2.1,0,0,0-.71-2.05,11.47,11.47,0,0,0,4.33-11.57,10.6,10.6,0,0,0-9-7.72,6.22,6.22,0,0,0,3.47-3.52,5.43,5.43,0,0,0-.21-4.61c2.82-.94,4.8-4.55,4.55-7.52a6.91,6.91,0,0,0-5.69-6c1.39-1.11,1.15-4-.45-4.79.7.52,2-.31,2.47-1a1.7,1.7,0,0,0-.47-2.3c2.39-.68,3.92-3.5,3.73-6a7.28,7.28,0,0,0-4.2-5.76,10.29,10.29,0,0,0-7.29-.37,3.66,3.66,0,0,0-1.47-5.09,3.92,3.92,0,0,0-5.14,2c1.11-2.64,2.25-5.48,1.61-8.27a7.06,7.06,0,0,0-13.89,2.37,2.42,2.42,0,0,0-3.16-.81,2.78,2.78,0,0,0-1.55,3.18,9.81,9.81,0,0,0-10,5.07,9.64,9.64,0,0,0,1.69,11c-1,2,.48,4.28,2.55,5.05-.53,1.66.72,3.65,2.12,4.69-3.1,1.54-4.82,4.92-5.2,8.36a10.6,10.6,0,0,0,3.75,9.23,2.54,2.54,0,0,0-3.18.68,2.6,2.6,0,0,0,.23,3.29,4.59,4.59,0,0,0-4.63,3,5.33,5.33,0,0,0,1.36,5.81,4.65,4.65,0,0,0-2,4.43,4.17,4.17,0,0,0,3.06,3.43c-.51.73.05,1.13.75,1.67a1.81,1.81,0,0,0,2.4-.26,7.25,7.25,0,0,0-.31,3.56,3.7,3.7,0,0,0,1.81,3,2.49,2.49,0,0,0,3.21-.76c-.33.81.8,2,1.41,2.68a2.33,2.33,0,0,0,2.43.57,3.49,3.49,0,0,0-2.92,2.47,4,4,0,0,0,.72,4.06c-1.57.55-2.39,2.77-1.95,4.38a3.47,3.47,0,0,0,3.87,2.41c-1.19,1.87-.22,4.76,1.19,6.48a7.06,7.06,0,0,0,5.94,2.39C222.59,233.69,224.52,232.16,226.19,230.7Z"/><path class="cls-9" d="M224.86,132.73a1.23,1.23,0,0,0-1.4.16,3.41,3.41,0,0,0-.84,1.24,10.47,10.47,0,0,0-1.18,5.15,4.79,4.79,0,0,0,2.86,4.16,6.1,6.1,0,0,0-5.46,2.6,10.59,10.59,0,0,0-1.6,5.78,8.12,8.12,0,0,0,.64,3.82,3.77,3.77,0,0,0,3,2.18,1.54,1.54,0,0,0-1.66,1.2,1.64,1.64,0,0,0,.92,1.91,3.36,3.36,0,0,0,1.57,4.42,3.58,3.58,0,0,0,4.68-1.33,7,7,0,0,0,.33,3.38,2.15,2.15,0,0,0,2.5,1.46,10.2,10.2,0,0,0-3.4,3.48c-.84,1.4-.83,3.46.46,4.46-1.81-1-4.2.08-5.39,1.76a6.46,6.46,0,0,0,2.47,9,2.17,2.17,0,0,0-2.45,1.34,2.2,2.2,0,0,0,.94,2.65,2.13,2.13,0,0,0-2.26,1.66,2.28,2.28,0,0,0,1.26,2.63,4.27,4.27,0,0,0,1.31,3.15,3.67,3.67,0,0,0,3.3,1,3.06,3.06,0,0,0,2.36-2.44,8.42,8.42,0,0,0-.05,2.24,3.08,3.08,0,0,0,1.2,2,1.86,1.86,0,0,0,2.22,0,10.63,10.63,0,0,0-1.53,2.25,3.39,3.39,0,0,0-.49,2.54,2.08,2.08,0,0,0,1.9,1.59,5.22,5.22,0,0,0-2.53,1.1,3.21,3.21,0,0,0-1.1,2.66,2.18,2.18,0,0,0,1.95,1.93,7.53,7.53,0,0,0-.6,3.68,3.75,3.75,0,0,0,2,3,2.52,2.52,0,0,0,3.26-1.13,2.5,2.5,0,0,0,2.92,2.1,7.05,7.05,0,0,1-4.27,6.95,11.52,11.52,0,0,1-8.43-.5,4.62,4.62,0,0,1-4.14,3.4,5.62,5.62,0,0,1-4.95-2.54,6.8,6.8,0,0,1-.75-5.6c-1-.27-1.29-1.47-1.59-2.45a3.12,3.12,0,0,1,.61-2.89c-.72-.78-.46-2.4,0-3.36A2.78,2.78,0,0,1,216.1,213c-.53-.25-.48-.93-.48-1.51a1.59,1.59,0,0,1,.87-1.4,3.33,3.33,0,0,1-3.34-.85,3.09,3.09,0,0,1-.76-3.25,3.6,3.6,0,0,1-4-.73,3.83,3.83,0,0,1-1.2-4.07,7.24,7.24,0,0,1-3-2.57,4.71,4.71,0,0,1-1-4,3.35,3.35,0,0,1,3-2.54c-.46-.36-.37-.79-.71-1.28a2,2,0,0,1-.34-1.66,1.22,1.22,0,0,1,1.34-.87A2.63,2.63,0,0,1,207,185a2.76,2.76,0,0,1,3.36-.46,7,7,0,0,1-1.41-2.48,2.86,2.86,0,0,1-.22-1.79,1.27,1.27,0,0,1,1.35-1c-2.72-.78-4.32-3.78-4.27-6.61a6.65,6.65,0,0,1,4.92-6.16c-.56-.56-.23-2,.16-2.65a1.85,1.85,0,0,1,2-.86,4.71,4.71,0,0,1-3.25-1.7,2.79,2.79,0,0,1-.19-3.69,2.66,2.66,0,0,1-2.66-1.08,2.94,2.94,0,0,1-.64-3c-1.45-1-1.82-2.66-2-4.39a5.83,5.83,0,0,1,1.84-5,3.85,3.85,0,0,1,5,.05,6.71,6.71,0,0,1-.41-2,2.12,2.12,0,0,1,.55-1.81,1.29,1.29,0,0,1,1.76,0,5.56,5.56,0,0,1,.33-2.08,1.91,1.91,0,0,1,1.22-1.4,1.22,1.22,0,0,1,1.52.84c.05-.82,1.52-1.87,2.24-1.47a7.48,7.48,0,0,1,.92-4.4,3.05,3.05,0,0,1,1.21-1.48,1.43,1.43,0,0,1,1.78.26,2.08,2.08,0,0,1,2.48-.83C225.36,130.3,225.28,132,224.86,132.73Zm16.56,64.47a3.7,3.7,0,0,1,.07,3.23A4.12,4.12,0,0,1,239,202.7a2.19,2.19,0,0,1,.79,2,2,2,0,0,1-1.15,1.66,3.32,3.32,0,0,1-.84,2.67,3.52,3.52,0,0,1-2.63,1.21,3.57,3.57,0,0,0,3.35.83,3.79,3.79,0,0,0,2.41-2.61,4.51,4.51,0,0,0,.93-5.53,4,4,0,0,0,2.71-1.75,6.63,6.63,0,0,0,1-3.13,9.83,9.83,0,0,0-2.95-7.86A9.26,9.26,0,0,1,241.42,197.2Zm-2.12-22.81a4.92,4.92,0,0,1-.44,5,5.35,5.35,0,0,1-5,1.8,4.1,4.1,0,0,1-3.2,2.25,1.64,1.64,0,0,0,1.24,1.13,1.66,1.66,0,0,0,1.58-.63,6.7,6.7,0,0,0,6.29-1.74,7,7,0,0,0,2-6.36,1.82,1.82,0,0,0,1.63-.75,4.79,4.79,0,0,0,.2-5.86C243.83,171.48,241.52,174.2,239.3,174.39Zm-3.88-15.79a4.54,4.54,0,0,1-4.52,3.2,2.39,2.39,0,0,0,2.48,1.67,4.4,4.4,0,0,0,2.8-1.5,4.17,4.17,0,0,0,1.29-3.29,5.08,5.08,0,0,0,1.79-8.56A9.79,9.79,0,0,1,235.42,158.6ZM225,151.33a5,5,0,0,1-1.69-4,5,5,0,0,0,3.12,8.23,3.22,3.22,0,0,0,3.5-1.63C228.41,154.09,226.11,152.42,225,151.33Zm11.79,40.84a1.53,1.53,0,0,1-.85,1.41,2.84,2.84,0,0,1-1.7.22,5.13,5.13,0,0,1-4.19-3.84,4.92,4.92,0,0,0,1.34,6c0,.36-.33.73-.6.49a1,1,0,0,0,.45.93,2.73,2.73,0,0,0,1.09.44,5.21,5.21,0,0,0,3.4-.27,3.07,3.07,0,0,0,1.79-2.75,3,3,0,0,1-2.54.74C236.12,195.05,236.56,193.38,236.8,192.17Z"/><path class="cls-9" d="M229.86,226.36a5.78,5.78,0,0,1-5.68-.56,3.88,3.88,0,0,1-2.83,3.22,4,4,0,0,1-4.79-5.57c-1.09-.42-1.36-1.95-1.26-3.11a2.8,2.8,0,0,1,2.19-2.41c-1-.26-1.17-1.77-1-2.83a2.21,2.21,0,0,1,2.4-1.67c-.52,0-.5-.65-.67-1.14a1.24,1.24,0,0,1,.44-1.4c-.74-.15-1.15-1.27-1.3-2a2,2,0,0,1,.78-2,2.2,2.2,0,0,1-2.7.22,2.58,2.58,0,0,1-1.13-2.73,3.78,3.78,0,0,1-3.27.13,3.46,3.46,0,0,1-2.33-2.47,3,3,0,0,1,1.24-3.1c-1,.37-2.17-.63-2.37-1.71a2,2,0,0,1,1.83-2.25,7.61,7.61,0,0,1-.65-2.21,2.67,2.67,0,0,1,.44-2.25,1.65,1.65,0,0,1,2.12-.37c-.71-.1-.87-1.05-.71-1.74a1.33,1.33,0,0,1,1.65-.92,5.29,5.29,0,0,1-.56-1.87,1.71,1.71,0,0,1,.44-1.77,1.05,1.05,0,0,1,1.61.34c-.87-.37-1.32-1.42-2-2.09a2.57,2.57,0,0,1-.76-2.58,1.57,1.57,0,0,1,2.29-.83,8.17,8.17,0,0,1-4.25-3.93,4.18,4.18,0,0,1,4.31-5.89c-.71-.43-.73-1.4-.65-2.23a2.28,2.28,0,0,1,1.46-1.86,2.06,2.06,0,0,0,1.1-1.78,1.85,1.85,0,0,0-1-1.44A2.91,2.91,0,0,1,211,160a2.66,2.66,0,0,1,1-3.24,4.2,4.2,0,0,1-3.75-1.25,2.82,2.82,0,0,1-.44-3.74,4.43,4.43,0,0,1-.91-4,2.43,2.43,0,0,1,.78-1.35,1.32,1.32,0,0,1,1.49-.15,3.92,3.92,0,0,1,3.15.8,8.32,8.32,0,0,1,0-2.39,1.44,1.44,0,0,1,.39-1c.28-.24.81-.17.89.18-.16-.39.18-.9.39-1.28s.93-.34.93.09a8.15,8.15,0,0,0-.56,6.6l.38-.23a2.29,2.29,0,1,0-.17,4.53c-.47.29-.39.87-.38,1.42a1.65,1.65,0,0,0,.82,1.35,2.63,2.63,0,0,0,.1,2.81,2.5,2.5,0,0,0,2.42,1.29,4.4,4.4,0,0,0,1.38,5.33,2.87,2.87,0,0,0-1.37,2.95,3,3,0,0,0,2.1,2.54c-.69-.15-1.19.34-1.53,1a1.7,1.7,0,0,0,.29,2c-.31-.53-1.12-.33-1.61,0a1.88,1.88,0,0,0-.61,1.67,5.56,5.56,0,0,0,.61,1.74,6.66,6.66,0,0,0-.77,5.25,6,6,0,0,0,3.27,3.79,6,6,0,0,0-3.35,4.22,6.07,6.07,0,0,0,1.26,5.25c-.71,0-1.07.75-1.31,1.42a1.81,1.81,0,0,0,.5,1.95c-.4,1.22.52,2.63,1.43,3.53a5.28,5.28,0,0,0,3.5,1.42,10.68,10.68,0,0,0,3.78-.66,5.81,5.81,0,0,0-1.68,3.19,2.8,2.8,0,0,0,1.63,3.32,3.66,3.66,0,0,0-2.36,2.73,3.73,3.73,0,0,0,.94,3.53c-1.05.29-1.37,1.63-1.33,2.72a3,3,0,0,0,1.8,2.54,3.82,3.82,0,0,0,3.17-.13A7.61,7.61,0,0,0,229.86,226.36Z"/><path class="cls-6" d="M554.5,168.48c.77,34.43,2,66.4,4.35,91.47h-6.61C554.07,235.49,554.62,203.83,554.5,168.48Z"/><path class="cls-7" d="M557.87,258.94a8.89,8.89,0,0,0-4.29-.06c.45-8.65.59-17.44,1-26.09C554.85,243.68,553.8,256.77,557.87,258.94Z"/><path class="cls-13" d="M555.7,236a8.4,8.4,0,0,0,9.52-13,5.75,5.75,0,0,0,4.57-.95c1.08-1,1.23-3,0-3.88a2.33,2.33,0,0,0,1.41-1.55,1.69,1.69,0,0,0-.58-1.67,9.4,9.4,0,0,0,3.55-9.49,8.67,8.67,0,0,0-7.35-6.33,5.1,5.1,0,0,0,2.85-2.89,4.43,4.43,0,0,0-.18-3.78c2.32-.77,4-3.73,3.73-6.16a5.66,5.66,0,0,0-4.65-5,2.58,2.58,0,0,0-.38-3.93c.58.43,1.62-.25,2-.84a1.4,1.4,0,0,0-.39-1.89,4.78,4.78,0,0,0,3.06-4.9,6,6,0,0,0-3.44-4.72,8.44,8.44,0,0,0-6-.31,3,3,0,0,0-1.21-4.17,3.2,3.2,0,0,0-4.21,1.64c.91-2.17,1.85-4.5,1.32-6.78A5.79,5.79,0,0,0,548,157.35a2,2,0,0,0-2.59-.67,2.3,2.3,0,0,0-1.27,2.61,8,8,0,0,0-8.22,4.16,7.91,7.91,0,0,0,1.38,9c-.84,1.61.39,3.51,2.09,4.14-.43,1.36.59,3,1.73,3.84-2.54,1.27-3.94,4-4.26,6.86a8.7,8.7,0,0,0,3.08,7.57,2.08,2.08,0,0,0-2.61.55,2.14,2.14,0,0,0,.19,2.71,3.76,3.76,0,0,0-3.8,2.43,4.37,4.37,0,0,0,1.12,4.77,3.82,3.82,0,0,0-1.63,3.63,3.45,3.45,0,0,0,2.51,2.81c-.41.6,0,.93.62,1.37a1.5,1.5,0,0,0,2-.21,5.83,5.83,0,0,0-.25,2.91,3,3,0,0,0,1.48,2.44,2,2,0,0,0,2.63-.63c-.27.67.66,1.69,1.16,2.21a1.91,1.91,0,0,0,2,.46,2.86,2.86,0,0,0-2.4,2,3.25,3.25,0,0,0,.6,3.32,3.12,3.12,0,0,0-1.6,3.6,2.85,2.85,0,0,0,3.17,2c-1,1.54-.18,3.91,1,5.32a5.81,5.81,0,0,0,4.88,2C552.75,238.42,554.34,237.16,555.7,236Z"/><path class="cls-9" d="M554.62,155.63a1,1,0,0,0-1.15.13,2.68,2.68,0,0,0-.69,1,8.58,8.58,0,0,0-1,4.22,3.91,3.91,0,0,0,2.35,3.41,5,5,0,0,0-4.48,2.13,8.72,8.72,0,0,0-1.31,4.75,6.5,6.5,0,0,0,.53,3.12,3,3,0,0,0,2.47,1.79,1.27,1.27,0,0,0-1.36,1,1.34,1.34,0,0,0,.76,1.56,2.74,2.74,0,0,0,1.28,3.62,2.91,2.91,0,0,0,3.84-1.09,5.72,5.72,0,0,0,.27,2.78,1.75,1.75,0,0,0,2.05,1.19,8.39,8.39,0,0,0-2.79,2.86,2.88,2.88,0,0,0,.38,3.66c-1.49-.8-3.45.06-4.42,1.44a5,5,0,0,0-.32,4.82,5.1,5.1,0,0,0,2.34,2.55,1.77,1.77,0,0,0-1.23,3.27,1.76,1.76,0,0,0-1.86,1.36,1.88,1.88,0,0,0,1,2.16,3.53,3.53,0,0,0,1.08,2.59,3,3,0,0,0,2.71.84,2.51,2.51,0,0,0,1.93-2,6.61,6.61,0,0,0,0,1.83,2.53,2.53,0,0,0,1,1.65,1.56,1.56,0,0,0,1.83,0,8.51,8.51,0,0,0-1.26,1.85,2.8,2.8,0,0,0-.4,2.08,1.69,1.69,0,0,0,1.55,1.3,4.4,4.4,0,0,0-2.07.9,2.62,2.62,0,0,0-.9,2.18,1.79,1.79,0,0,0,1.6,1.59,6.18,6.18,0,0,0-.49,3,3.07,3.07,0,0,0,1.67,2.49,3.14,3.14,0,0,1,5.06.8,5.79,5.79,0,0,1-3.49,5.7,9.49,9.49,0,0,1-6.92-.41,3.78,3.78,0,0,1-3.39,2.78,4.6,4.6,0,0,1-4.06-2.08,5.61,5.61,0,0,1-.62-4.59c-.81-.22-1.05-1.21-1.3-2a2.57,2.57,0,0,1,.5-2.37c-.59-.64-.37-2,0-2.76a2.26,2.26,0,0,1,2.12-1.26c-.43-.2-.39-.76-.39-1.24a1.3,1.3,0,0,1,.72-1.15,2.68,2.68,0,0,1-2.74-.7,2.53,2.53,0,0,1-.63-2.66,2.93,2.93,0,0,1-3.29-.6,3.14,3.14,0,0,1-1-3.33,6,6,0,0,1-2.45-2.11,3.87,3.87,0,0,1-.78-3.25,2.74,2.74,0,0,1,2.45-2.08c-.37-.3-.3-.65-.58-1.05a1.62,1.62,0,0,1-.28-1.36,1,1,0,0,1,1.1-.71,2.17,2.17,0,0,1,.36-2.69,2.26,2.26,0,0,1,2.75-.38,5.8,5.8,0,0,1-1.15-2,2.37,2.37,0,0,1-.18-1.48,1,1,0,0,1,1.1-.8c-2.22-.64-3.54-3.1-3.49-5.42a5.47,5.47,0,0,1,4-5.06c-.46-.45-.19-1.6.13-2.17a1.53,1.53,0,0,1,1.66-.7,3.82,3.82,0,0,1-2.67-1.4,2.28,2.28,0,0,1-.16-3,2.19,2.19,0,0,1-2.18-.89,2.41,2.41,0,0,1-.52-2.44c-1.19-.78-1.49-2.18-1.61-3.6a4.76,4.76,0,0,1,1.52-4.06,3.14,3.14,0,0,1,4.1,0,5.31,5.31,0,0,1-.34-1.6,1.76,1.76,0,0,1,.45-1.48,1.08,1.08,0,0,1,1.45,0,4.52,4.52,0,0,1,.27-1.7,1.54,1.54,0,0,1,1-1.15,1,1,0,0,1,1.24.68c0-.67,1.26-1.53,1.84-1.2a6.24,6.24,0,0,1,.75-3.61,2.48,2.48,0,0,1,1-1.21,1.18,1.18,0,0,1,1.46.21,1.7,1.7,0,0,1,2-.68C555,153.64,555,155,554.62,155.63ZM568.2,208.5a3.08,3.08,0,0,1,.06,2.65,3.37,3.37,0,0,1-2.08,1.85,1.76,1.76,0,0,1,.65,1.6,1.64,1.64,0,0,1-.94,1.36,2.73,2.73,0,0,1-.68,2.19,2.92,2.92,0,0,1-2.16,1,3,3,0,0,0,2.74.68,3.11,3.11,0,0,0,2-2.14,3.69,3.69,0,0,0,.76-4.54,3.24,3.24,0,0,0,2.22-1.43,5.3,5.3,0,0,0,.84-2.57,8.07,8.07,0,0,0-2.42-6.45A7.58,7.58,0,0,1,568.2,208.5Zm-1.75-18.71a4,4,0,0,1-.36,4.13A4.35,4.35,0,0,1,562,195.4a3.36,3.36,0,0,1-2.63,1.84,1.33,1.33,0,0,0,1,.93,1.35,1.35,0,0,0,1.29-.52,5.51,5.51,0,0,0,5.16-1.42,5.73,5.73,0,0,0,1.61-5.22,1.48,1.48,0,0,0,1.34-.62,3.91,3.91,0,0,0,.17-4.8A4.31,4.31,0,0,1,566.45,189.79Zm-3.18-12.95a3.71,3.71,0,0,1-3.7,2.63,2,2,0,0,0,2,1.36,3.55,3.55,0,0,0,2.3-1.23,3.41,3.41,0,0,0,1.06-2.69,4.18,4.18,0,0,0,1.46-7A8,8,0,0,1,563.27,176.84Zm-8.53-6a4.08,4.08,0,0,1-1.38-3.3,4.13,4.13,0,0,0,2.55,6.75,2.65,2.65,0,0,0,2.88-1.34C557.53,173.14,555.64,171.77,554.74,170.88Zm9.67,33.49a1.25,1.25,0,0,1-.7,1.15,2.31,2.31,0,0,1-1.4.19,4.22,4.22,0,0,1-3.43-3.15,4,4,0,0,0,1.1,4.93c0,.3-.27.6-.49.41a.83.83,0,0,0,.37.76,2.39,2.39,0,0,0,.89.36,4.3,4.3,0,0,0,2.79-.22,2.53,2.53,0,0,0,1.47-2.26,2.47,2.47,0,0,1-2.09.61C563.85,206.73,564.21,205.36,564.41,204.37Z"/><path class="cls-9" d="M558.71,232.41a4.73,4.73,0,0,1-4.65-.47,3.19,3.19,0,0,1-2.32,2.65,3.27,3.27,0,0,1-3.93-4.57c-.89-.34-1.11-1.6-1-2.55a2.3,2.3,0,0,1,1.79-2c-.85-.21-1-1.45-.78-2.32a1.8,1.8,0,0,1,2-1.36c-.43,0-.41-.54-.56-.94a1,1,0,0,1,.37-1.15c-.61-.12-1-1-1.07-1.66a1.66,1.66,0,0,1,.64-1.65,1.81,1.81,0,0,1-2.22.18,2.11,2.11,0,0,1-.92-2.24,3.1,3.1,0,0,1-2.68.12,2.87,2.87,0,0,1-1.92-2,2.44,2.44,0,0,1,1-2.54c-.84.3-1.78-.52-1.94-1.41a1.63,1.63,0,0,1,1.5-1.84,6.28,6.28,0,0,1-.54-1.82,2.16,2.16,0,0,1,.37-1.83,1.33,1.33,0,0,1,1.73-.31c-.57-.09-.71-.87-.58-1.43a1.11,1.11,0,0,1,1.36-.76,4.27,4.27,0,0,1-.46-1.52,1.42,1.42,0,0,1,.36-1.46.87.87,0,0,1,1.32.28c-.72-.3-1.09-1.17-1.64-1.71a2.12,2.12,0,0,1-.63-2.12,1.29,1.29,0,0,1,1.88-.68,6.65,6.65,0,0,1-3.48-3.22,3.43,3.43,0,0,1,3.53-4.83c-.58-.36-.6-1.15-.53-1.83a1.86,1.86,0,0,1,1.19-1.53,1.68,1.68,0,0,0,.91-1.46,1.54,1.54,0,0,0-.85-1.18,2.36,2.36,0,0,1-2.64-1.22,2.19,2.19,0,0,1,.78-2.67,3.48,3.48,0,0,1-3.08-1,2.32,2.32,0,0,1-.36-3.07,3.67,3.67,0,0,1-.74-3.29,2,2,0,0,1,.64-1.11,1.08,1.08,0,0,1,1.22-.11,3.15,3.15,0,0,1,2.58.65,6.78,6.78,0,0,1,0-2,1.16,1.16,0,0,1,.32-.81c.22-.2.66-.14.73.15-.13-.33.14-.74.31-1s.77-.28.77.07a6.66,6.66,0,0,0-.46,5.41l.31-.19a1.88,1.88,0,1,0-.14,3.72c-.38.24-.32.71-.31,1.16a1.34,1.34,0,0,0,.67,1.11,2.18,2.18,0,0,0,.08,2.3,2.07,2.07,0,0,0,2,1.07,3.6,3.6,0,0,0,1.13,4.37,2.36,2.36,0,0,0-1.13,2.41,2.43,2.43,0,0,0,1.73,2.09c-.57-.13-1,.27-1.25.78a1.41,1.41,0,0,0,.23,1.62c-.25-.44-.92-.27-1.32,0a1.54,1.54,0,0,0-.5,1.37,4.69,4.69,0,0,0,.5,1.43,5.49,5.49,0,0,0-.63,4.3A4.91,4.91,0,0,0,550,199.9a5,5,0,0,0-1.71,7.77c-.58,0-.88.61-1.08,1.16a1.5,1.5,0,0,0,.41,1.6c-.32,1,.43,2.15,1.18,2.9a4.31,4.31,0,0,0,2.87,1.15,8.38,8.38,0,0,0,3.09-.53,4.81,4.81,0,0,0-1.37,2.61,2.29,2.29,0,0,0,1.33,2.72,3,3,0,0,0-1.93,2.24,3.07,3.07,0,0,0,.77,2.9c-.86.24-1.13,1.34-1.09,2.23a2.48,2.48,0,0,0,1.48,2.08,3.09,3.09,0,0,0,2.59-.11A6.3,6.3,0,0,0,558.71,232.41Z"/><polygon class="cls-14" points="435.64 256.62 371.1 256.62 370.79 252.53 371.25 250.55 435.6 249.48 435.95 252.22 435.64 256.62"/><polygon class="cls-15" points="371.92 250.91 371.61 252.53 435.03 252.25 434.74 249.93 371.92 250.91"/><polygon class="cls-14" points="306.57 256.62 371.11 256.62 371.42 252.53 370.96 250.55 306.62 249.48 306.26 252.22 306.57 256.62"/><polygon class="cls-15" points="370.29 250.91 370.6 252.53 307.18 252.25 307.47 249.93 370.29 250.91"/><polygon class="cls-14" points="565.24 256.62 500.7 256.62 500.38 252.53 500.85 250.55 565.19 249.48 565.54 252.22 565.24 256.62"/><polygon class="cls-15" points="501.52 250.91 501.21 252.53 564.63 252.25 564.34 249.93 501.52 250.91"/><polygon class="cls-14" points="436.17 256.62 500.7 256.62 501.02 252.53 500.56 250.55 436.21 249.48 435.86 252.22 436.17 256.62"/><polygon class="cls-15" points="499.88 250.91 500.2 252.53 436.78 252.25 437.07 249.93 499.88 250.91"/><polygon class="cls-14" points="565.77 256.62 630.3 256.62 630.62 252.53 630.16 250.55 565.81 249.48 565.46 252.22 565.77 256.62"/><polygon class="cls-15" points="629.48 250.91 629.8 252.53 566.38 252.25 566.66 249.93 629.48 250.91"/><polygon class="cls-14" points="111.77 256.62 47.24 256.62 46.92 252.53 47.38 250.55 111.73 249.48 112.08 252.22 111.77 256.62"/><polygon class="cls-15" points="48.05 250.91 47.74 252.53 111.16 252.25 110.87 249.93 48.05 250.91"/><polygon class="cls-14" points="176.8 256.62 112.26 256.62 111.94 252.53 112.41 250.55 176.75 249.48 177.1 252.22 176.8 256.62"/><polygon class="cls-15" points="113.08 250.91 112.77 252.53 176.19 252.25 175.9 249.93 113.08 250.91"/><polygon class="cls-14" points="-17.3 256.62 47.24 256.62 47.55 252.53 47.09 250.55 -17.25 249.48 -17.6 252.22 -17.3 256.62"/><polygon class="cls-15" points="46.42 250.91 46.73 252.53 -16.69 252.25 -16.4 249.93 46.42 250.91"/><polygon class="cls-14" points="241.37 256.62 176.83 256.62 176.52 252.53 176.98 250.55 241.32 249.48 241.68 252.22 241.37 256.62"/><polygon class="cls-15" points="177.65 250.91 177.34 252.53 240.76 252.25 240.47 249.93 177.65 250.91"/><polygon class="cls-15" points="305.61 250.91 305.93 252.53 242.51 252.25 242.8 249.93 305.61 250.91"/><rect class="cls-16" x="-10.77" y="279" width="608.81" height="959.97"/><rect class="cls-17" x="-20.89" y="282.57" width="325.3" height="3.95"/><rect class="cls-18" x="-7.84" y="255.31" width="602.18" height="25.35"/><path class="cls-19" d="M59.71,256.94l4.76.11,8,0H88l18.57-.19,17.18,0-3.37,1.84-25.76-.09-20.64-.18-8-.05-.4.27,32.08.58-.82.42,3,0,.54-.46,17.51.3-5,2.27-15.6,0,2.28-.75-7-.07-.55.75-7.42.2L82,264.26l-4.27,2.3-11.48.23-22.47-.35,1,.41,4.39,0L46,269h1l1.88-1.37,6.18-.62,17,.28,4,.09-2.55,1.44L71,271.08l-32.41-.35-2.16,2.62H42l21.19.42-7.55,3.77,10.13,0-1.32,1.29-5.09.2L41,279l-38.54-.15L-21,278.75l3-1.91,4-2.25,37.68.09.46-.8-25.93-.26-24.23-.52,1.31-.89,34.81.27-.35-.3-34.92-.73,6.56-4.29,5.84,0H19.41l.81-.25-23.38-.49L2,263.18l21.76.18,27.76.1,3.4-1.7-11.68,0-.85.51-57.29-.12,1-1.11L-2,260.88l29.19.31.77-.43-40.54-.44,2.26-.88.69-.73,9.35-.25-6.75-.19.47-1.57,20.31,0,19.13.09,6,0,11.52.2-.65,1.1H36.55l-12.28.15-6.07.09.08.18,7.1,0h8.44l7.42.07-.87.31,2.31,0,1.19-.4,3.7.06-3.32,1.8,5.59,0,2.44-.36,9.21.11,11.8.2,1.61-.59-4.31.09-10.34-.06-8.81-.15,2.48-1.1-2.52-.06,3-1,1.28-.43,4.06-.24Zm10.6,20.59-2,1.28,59.78.19,4.24-2.14-15.75-.34h27.93l2.56-1.4-65.84-.26L66.1,275l-1.83,1.59,18.28.5-12.24.49Zm208.4,1.53-1.38-.53,17.85.11,1.15-1.5,12.88,0,.61-1.42-22.94,0-24.6-.25,1.26-1.26,15-.09,21.41,0,1.19-1.59-19.23-.11H262.51l.69-1,5.13,0,22.67,0,23.5.15,2.29-.88-17.51-.14-23-.3-6.84.09,1.87-1.16,36.21.34,4.56-3.22-22.4-.31-29.53-.5-2,1.67-11.82.09L242.15,271l5.43,0-1,.44-6.31.06L233.18,276l15.23,0-.91,1.52L219,277.17l-10.31.05v-.6l12.94-.1,3.69-2.73L208,273.5l-21.14.1-4.92,3.52,8.56-.07-1.84,2.06,39-.17,51.07.12Zm-43.53-9.64-8.37-.35,10.4-.08.75-.41-6.25.06-8.66.14,1.32-.85,1.58-.38,10.72-.13,2.71-1.71,13,.23,1.09-1-9.48-.06-19.12-.06-60.5-.76-1.55,1-3.66,1.32,17.21,0,14.38.19h1.7l-1.12.51L179.74,267,175,269.37l18.48.13-.71.54L171.48,270l-11.69,0-.55.59-1.41,1.22h8.09l9.75.18-1.32.68-9.31-.09-7.19.15-2.49,1.57-3.66,2.45-1.28.78-10.72,0-1.51,1.42h8.35l11.4,0,18.18.09,7.25.1,1.37-1.2-9.48.05,1.05-.56,1.94-1.26,5.69-3.2,6.45-.07h15.33l22.63.35,3.19-1.47,3.64-2.33Zm-86.24,1.75,1.73-.87-11.6.13,1.06-.58,7.07.07,6.59-3.34-7.41.07-17-.23-12.64-.14-3.17,1.91h12v.26l-12.64.16-8.29.05-2.27,1.43,2.61.11-4.23,3.15,12.49,0,20.34-.21,9.19-.08,2.46,0,3.73-1.85Zm-13-7.19,3.14-1.36-25.13.13-23.66-.12-.56,1.8,10.53.1L97,266.89l-3.28,2.29-4.86,3.14-8.64.11-12.67.05-12-.29L46,272l-1.8,1.06,15.54.28,12.45.1,7.68.07-.41.24,14.5.06,7-5.18,1.52-.8,5.34-.16,2.27-.31,1.48-1.26,11.49-.19,9.61.08,3.28-2Zm180.49-2.55-9,.08L294,261.2l-7.9,0,.93-.58,6.78.09,8,0,14.78.4,1.44-1-8.48-.09-5.45.14,1.62-.67,11,.17,3.87-2.69-22,.1-30.36-.1-.53,1.06-.24.88h10.18l.21-.08-.61.37-16.51.18-.87.83-.87,1,5.13.13-2.6,1.75L259,264.75l8.18-.05,17,.05,27.31,0,4.92-3.28Zm-54.15-4.67-6.42.23-12.69.05-18.57-.16-7.63-.21-3.56,3,5.48.12-.78.94h17.8l13.8.25,2.84-1.4,1.63-.87h4.79l3.31-1.93Zm-5.71,3.41-1.87-.15-2.52,1.6-11.66-.09-9.23-.1-10.51-.16-1.3,1L217.63,264l15.58.14,11.76.05,5.22.12,1.44-.82,3-1.67,1.88-1.63Zm-38.53.89-.68-.16-7.65,0L207,262H196.55l1.83-1.08-5.22,0-6.67.1H168.14l-2.07,1,8.47.08,13.19.13-3,1.7,3.24-.07,9.25-.05,11-.08,4,.09,1.36-.54,3-1.26,1.43-1Zm-35.66,1.72L178,263l.2-.33-15.08-.29L148,262.13l-4.1,0-2.49,1.31,20,0h20.28l.68-.64Zm-16-2.3.21-.18-10.81,0,.06-.46,7.21-.08,5.52,0,1.22-.88-20.56-.13-7.62-.1h-3.33l-.15-.21h16l14.12,0,.81-.95h-28.1l-9.15-.09-3.85,0-.64.25-1.78,1-1.75,1,16.79.47-.24.18-15.63.09-3.52-.05-3.79,1.8,8.72-.15,6.23-.34,27.24,0,5.43.1,1.35-1.2ZM212.41,257,200,257l-15.56,0-7-.06-.3,1.29,5.34,0-.4.22-5.32,0-1.47,1.29,8.63.06h18.37l-1.34,1.47,4.9-.09.87-.54,5.72-3.7Z"/><path class="cls-19" d="M390.73,256.94l4.76.11,7.95,0H419l18.57-.19,17.18,0-3.37,1.84-25.76-.09L405,258.48l-7.95-.05-.4.27,32.08.58-.82.42,3,0,.54-.46,17.51.3-5.06,2.27-15.59,0,2.28-.75-7-.07-.55.75-7.42.2L413,264.26l-4.27,2.3-11.48.23-22.47-.35,1,.41,4.39,0L377,269h1l1.88-1.37,6.18-.62,17,.28,4,.09-2.54,1.44L402,271.08l-32.41-.35-2.16,2.62H373l21.19.42-7.56,3.77,10.14,0-1.32,1.29-5.1.2L372,279l-38.54-.15L310,278.75l3.05-1.91,4-2.25,37.67.09.47-.8-25.93-.26-24.23-.52,1.31-.89,34.81.27-.35-.3-34.92-.73,6.56-4.29,5.84,0h32.08l.82-.25-23.38-.49,5.14-3.22,21.76.18,27.76.1,3.39-1.7-11.67,0-.85.51-57.29-.12,1-1.11,11.85-.18,29.18.31.78-.43-40.54-.44,2.26-.88.69-.73,9.35-.25-6.75-.19.47-1.57,20.31,0,19.13.09,6,0,11.52.2-.66,1.1H367.57l-12.29.15-6.06.09.08.18,7.1,0h8.44l7.42.07-.87.31,2.31,0,1.19-.4,3.7.06-3.32,1.8,5.59,0,2.44-.36,9.21.11,11.8.2,1.61-.59-4.31.09-10.34-.06-8.81-.15,2.48-1.1-2.52-.06,3-1,1.29-.43,4.06-.24Zm10.6,20.59-1.95,1.28,59.78.19,4.23-2.14-15.74-.34h27.93l2.56-1.4-65.84-.26-15.19.08-1.82,1.59,18.28.5-12.24.49Zm208.4,1.53-1.39-.53,17.86.11,1.15-1.5,12.88,0,.61-1.42-22.94,0-24.61-.25,1.27-1.26,15-.09,21.4,0,1.2-1.59-19.24-.11h-19.4l.69-1,5.13,0,22.67,0,23.5.15,2.28-.88-17.5-.14-23-.3-6.84.09,1.87-1.16,36.21.34,4.55-3.22-22.39-.31-29.53-.5-2,1.67-11.81.09L573.17,271l5.43,0-1,.44-6.32.06L564.2,276l15.23,0-.91,1.52L550,277.17l-10.31.05v-.6l12.93-.1,3.7-2.73L539,273.5l-21.14.1-4.93,3.52,8.57-.07-1.84,2.06,39-.17,51.08.12Zm-43.54-9.64-8.36-.35,10.4-.08.75-.41-6.25.06-8.67.14,1.33-.85,1.58-.38,10.72-.13,2.7-1.71,13,.23,1.09-1-9.48-.06-19.12-.06L495.37,264l-1.54,1-3.66,1.32,17.21,0,14.38.19h1.7l-1.12.51L510.75,267,506,269.37l18.48.13-.72.54L502.5,270l-11.69,0-.56.59-1.4,1.22h8.09l9.75.18-1.32.68-9.31-.09-7.19.15-2.49,1.57-3.66,2.45-1.28.78-10.72,0-1.51,1.42h8.35l11.4,0,18.18.09,7.25.1,1.37-1.2-9.48.05,1.05-.56,1.94-1.26,5.69-3.2,6.45-.07h15.33l22.63.35,3.19-1.47,3.63-2.33ZM480,271.17l1.74-.87-11.6.13,1.06-.58,7.07.07,6.59-3.34-7.41.07-17-.23-12.64-.14-3.17,1.91h12v.26l-12.64.16-8.3.05-2.26,1.43,2.6.11-4.22,3.15,12.49,0,20.34-.21,9.19-.08,2.46,0,3.72-1.85Zm-13-7.19,3.14-1.36-25.13.13-23.66-.12-.56,1.8,10.53.1-3.19,2.36-3.28,2.29-4.86,3.14-8.64.11-12.67.05-12-.29L377,272l-1.8,1.06,15.54.28,12.45.1,7.68.07-.42.24,14.51.06,7-5.18,1.52-.8,5.34-.16,2.27-.31,1.48-1.26,11.49-.19,9.61.08,3.28-2Zm180.49-2.55-9,.08L625,261.2l-7.9,0,.92-.58,6.79.09,8,0,14.77.4,1.44-1-8.47-.09-5.46.14,1.63-.67,11,.17,3.87-2.69-22,.1-30.36-.1-.53,1.06-.24.88H608.6l.21-.08-.61.37-16.52.18-.86.83-.87,1,5.13.13-2.6,1.75L590,264.75l8.18-.05,17,.05,27.31,0,4.92-3.28Zm-54.15-4.67-6.42.23-12.69.05-18.57-.16-7.63-.21-3.56,3,5.48.12-.79.94h17.8l13.81.25,2.84-1.4,1.63-.87H590l3.31-1.93Zm-5.71,3.41-1.87-.15-2.52,1.6-11.67-.09-9.22-.1-10.51-.16-1.3,1L548.65,264l15.58.14,11.76.05,5.22.12,1.44-.82,3-1.67,1.88-1.63Zm-38.53.89-.68-.16-7.65,0L538.05,262H527.57l1.83-1.08-5.22,0-6.67.1H499.16l-2.08,1,8.48.08,13.19.13-3,1.7,3.24-.07,9.25-.05,11-.08,4,.09,1.36-.54,3-1.26,1.43-1Zm-35.66,1.72L509,263l.2-.33-15.08-.29L479,262.13l-4.1,0-2.5,1.31,20,0h20.28l.68-.64Zm-16-2.3.21-.18-10.81,0,.06-.46,7.21-.08,5.52,0,1.22-.88-20.56-.13-7.62-.1h-3.33l-.15-.21h16l14.12,0,.81-.95h-28.1l-9.15-.09-3.85,0-.64.25-1.78,1-1.75,1,16.79.47-.24.18-15.63.09-3.52-.05-3.8,1.8,8.73-.15,6.23-.34,27.24,0,5.43.1,1.35-1.2ZM543.43,257,531,257l-15.55,0-7-.06-.3,1.29,5.34,0-.4.22-5.32,0-1.47,1.29,8.63.06h18.37l-1.34,1.47,4.9-.09.86-.54,5.73-3.7Z"/><polygon class="cls-14" points="111.77 284.1 47.24 284.1 46.92 280 47.38 278.03 111.73 276.95 112.08 279.7 111.77 284.1"/><polygon class="cls-15" points="48.05 278.38 47.74 280 111.16 279.72 110.87 277.41 48.05 278.38"/><polygon class="cls-14" points="-17.3 284.1 47.24 284.1 47.55 280 47.09 278.03 -17.25 276.95 -17.6 279.7 -17.3 284.1"/><polygon class="cls-15" points="46.42 278.38 46.73 280 -16.69 279.72 -16.4 277.41 46.42 278.38"/><polygon class="cls-14" points="241.37 284.1 176.83 284.1 176.52 280 176.98 278.03 241.32 276.95 241.68 279.7 241.37 284.1"/><polygon class="cls-15" points="177.65 278.38 177.34 280 240.76 279.72 240.47 277.41 177.65 278.38"/><polygon class="cls-14" points="112.3 284.1 176.84 284.1 177.15 280 176.69 278.03 112.34 276.95 111.99 279.7 112.3 284.1"/><polygon class="cls-15" points="176.02 278.38 176.33 280 112.91 279.72 113.2 277.41 176.02 278.38"/><polygon class="cls-14" points="241.9 284.1 306.43 284.1 306.75 280 306.29 278.03 241.94 276.95 241.59 279.7 241.9 284.1"/><polygon class="cls-15" points="305.61 278.38 305.93 280 242.51 279.72 242.8 277.41 305.61 278.38"/><rect class="cls-20" x="-20.89" y="255.28" width="325.3" height="1.67"/><rect class="cls-17" x="304.41" y="282.57" width="325.3" height="3.95"/><polygon class="cls-14" points="435.64 284.1 371.1 284.1 370.79 280 371.25 278.03 435.6 276.95 435.95 279.7 435.64 284.1"/><polygon class="cls-15" points="371.92 278.38 371.61 280 435.03 279.72 434.74 277.41 371.92 278.38"/><polygon class="cls-14" points="306.57 284.1 371.11 284.1 371.42 280 370.96 278.03 306.62 276.95 306.26 279.7 306.57 284.1"/><polygon class="cls-15" points="370.29 278.38 370.6 280 307.18 279.72 307.47 277.41 370.29 278.38"/><polygon class="cls-14" points="565.24 284.1 500.7 284.1 500.38 280 500.85 278.03 565.19 276.95 565.54 279.7 565.24 284.1"/><polygon class="cls-15" points="501.52 278.38 501.21 280 564.63 279.72 564.34 277.41 501.52 278.38"/><polygon class="cls-14" points="436.17 284.1 500.7 284.1 501.02 280 500.56 278.03 436.21 276.95 435.86 279.7 436.17 284.1"/><polygon class="cls-15" points="499.88 278.38 500.2 280 436.78 279.72 437.07 277.41 499.88 278.38"/><polygon class="cls-14" points="565.77 284.1 630.3 284.1 630.62 280 630.16 278.03 565.81 276.95 565.46 279.7 565.77 284.1"/><polygon class="cls-15" points="629.48 278.38 629.8 280 566.38 279.72 566.66 277.41 629.48 278.38"/><rect class="cls-20" x="304.41" y="255.28" width="325.3" height="1.67"/><polygon class="cls-21" points="31.11 292.76 30.66 286.79 31.16 288.66 31.92 290.51 33.82 287.58 33.6 289.67 33.71 291.57 35.27 290.61 35.1 292.34 35.72 292.48 35.9 292.73 36.49 292.71 37.19 293.07 37.95 293.25 38.73 293.6 39.64 293.33 42.49 293.7 42.67 292.3 42.99 289.91 43.08 290.81 43.47 292.08 44.44 290.38 45.12 292.2 46.31 292.67 46.75 293.61 50.4 293.66 54.94 293.95 64.5 294.46 68.8 294.58 69.72 294.53 70.07 293.78 70.27 291.61 70.64 293.03 71.03 294.23 72.9 292.47 73.56 294.3 75.72 294.45 78.49 294.49 81.57 294.36 84.57 294.24 87.38 294.01 89.22 293.56 91.94 293.41 91 289.82 91.36 291.03 91.29 288.6 90.61 285.87 92.09 289.04 94.14 291.47 94.1 289.52 94.8 289.19 95.86 291.42 97.67 289.8 97.18 292.8 98.33 293.13 100.58 293.81 104.32 293.83 106.58 293.95 109.47 293.9 115.44 293.79 121.57 293.86 123.98 293.44 124.33 291.89 125.05 293.22 126.18 292.07 127.47 292.74 128.8 291.68 129.32 289.98 129.61 288.32 129.65 289.7 129.68 291.88 131.09 290.43 131.31 292.78 132.93 293.49 135.56 293.76 138.03 293.82 145 293.8 148.68 293.95 151.8 294.2 149.53 294.61 147.59 295.39 142.93 295.91 138.14 297.47 133.34 299.31 128.27 300.85 123.52 302.05 121.49 301.72 119.63 301.88 118.42 300.6 116.83 299.04 116.58 301.16 115.7 299.66 114.42 302.45 112.01 302.6 109.7 302.71 100.25 302.56 98.02 302.4 96.39 302.5 96.86 301.17 97.35 299.5 94.24 300.27 94.55 298.12 92.43 300.63 91.66 298.94 91.45 297.28 90.1 300.01 89.05 298.61 89.08 302.25 87.17 302.9 84.39 303.04 81.85 302.87 79.86 302.77 74.92 302.95 69.54 303.39 65.16 303.34 62.39 303.4 60.19 302.83 59.52 302.47 59.19 301.44 59 298.57 57.23 301.14 54.31 298.92 53.48 299.06 53.13 300.13 52.33 301.25 51.76 299.18 51.85 301.53 51.77 303.75 50.13 303.67 48.15 303.92 45.13 303.5 44 303.49 43.13 303.14 41.02 302.87 37.04 301.74 35.68 301.43 33.8 300.85 30.37 300.17 28.55 299.99 26.59 299.9 25.3 297.2 24.34 297.74 23.92 296.73 23.66 298.45 21.89 298.85 16.8 298 11.59 297.29 6.54 296.3 4.44 295.67 5.59 294.98 10.67 294.91 15.91 294.1 21.34 293.69 24.01 293.42 26.48 293.17 29.12 293.49 31.11 292.76 31.11 292.76"/><polygon class="cls-21" points="100.42 319.47 104.09 319.31 111.07 319.34 113.54 319.28 116.17 319.01 117.79 318.29 118.01 315.95 119.42 317.4 119.45 315.22 119.49 313.84 119.78 315.5 120.3 317.2 121.63 318.26 122.92 317.59 124.05 318.74 124.77 317.41 125.12 318.95 127.53 319.38 133.66 319.31 139.63 319.42 142.52 319.46 144.78 319.35 148.52 319.33 150.77 318.64 151.92 318.31 151.43 315.31 153.24 316.94 154.3 314.7 155 315.04 154.96 316.99 157.01 314.56 158.49 311.39 157.81 314.12 157.74 316.55 158.1 315.34 157.16 318.93 159.88 319.08 161.72 319.52 164.53 319.76 167.53 319.87 170.61 320 173.38 319.97 175.53 319.81 176.2 317.99 178.07 319.75 178.46 318.55 178.83 317.13 179.03 319.3 179.38 320.05 180.3 320.1 184.6 319.98 194.16 319.47 197.39 319.26 191.01 320.81 189.48 321.13 188.62 321.66 187.39 322.1 182.31 324.29 179.59 324.99 175.45 326.03 171.27 326.63 168.66 326.75 166.62 326.78 163.41 326.87 161.56 327 160.98 327.21 160.01 327.77 160.05 324.13 159 325.53 157.65 322.79 157.44 324.46 156.67 326.14 154.55 323.64 154.86 325.79 151.75 325.02 152.24 326.69 152.71 328.02 151.08 327.92 148.85 328.08 139.4 328.23 137.09 328.12 134.67 327.96 133.4 325.18 132.52 326.68 132.27 324.56 130.68 326.12 129.47 327.4 127.61 327.24 125.58 327.56 120.83 326.37 115.76 324.82 110.96 322.99 106.17 321.43 101.51 320.91 99.57 320.13 97.3 319.72 100.42 319.47 100.42 319.47"/><polygon class="cls-21" points="287.84 301.35 284.16 301.2 277.18 301.23 274.71 301.16 272.09 300.9 270.46 300.18 270.24 297.83 268.84 299.29 268.8 297.11 268.76 295.73 268.47 297.39 267.95 299.09 266.63 300.15 265.34 299.48 264.2 300.63 263.49 299.3 263.13 300.84 260.72 301.26 254.6 301.19 248.62 301.3 245.74 301.35 243.47 301.23 239.73 301.22 237.48 300.53 236.34 300.2 236.82 297.2 235.02 298.83 233.95 296.59 233.25 296.93 233.3 298.88 231.24 296.45 229.77 293.28 230.45 296 230.52 298.44 230.16 297.22 230.41 298.19 231.01 300.48 230.67 301.16 228.94 301.28 227.56 301.29 225.87 301.38 224.29 301.28 222.56 301.21 220.85 301 218.22 300.91 214.57 301.07 210.15 301.56 208.25 301.91 207.2 302.29 207.45 303.85 210.43 305.81 214.94 307.3 219.64 308.04 223.27 308.59 224.24 309.01 226.3 309.62 227.78 309.81 228.24 309.66 228.21 306.02 229.25 307.41 230.61 304.68 230.82 306.34 231.58 308.03 233.71 305.53 233.4 307.68 236.51 306.9 236.01 308.58 235.54 309.91 237.18 309.8 239.4 309.97 248.86 310.12 251.16 310.01 253.58 309.85 254.86 307.06 255.73 308.56 255.99 306.44 257.58 308 258.78 309.28 260.65 309.12 262.68 309.45 267.43 308.25 272.49 306.71 277.3 304.88 282.08 303.31 286.74 302.8 288.68 302.01 290.96 301.6 287.84 301.35 287.84 301.35"/><polygon class="cls-21" points="156 305.93 155.87 304.1 155.36 302.41 154.56 301.14 153.97 300.53 154.48 300.84 155.66 301.62 157.21 302.93 157.82 303.68 157.13 300.1 157.25 297.19 157.58 295.63 158.1 298.23 158.38 300.4 158.88 301.7 159.72 300.29 160.74 299.88 160.81 300.42 160.47 301.78 159.94 303.14 159.84 303.59 160.96 302.57 162.83 301.45 164.34 301.51 163.86 302.67 161.2 305.39 160.58 306.18 160.42 306.44 161.77 306.78 162.6 307.1 163.06 307.22 162.25 307.23 160.7 307.48 158.56 307.76 156.77 307.76 155.09 307.76 154 307.61 153.12 307.49 152.67 307.49 153.23 307.19 154.46 306.68 155.43 306.32 156 305.93 156 305.93"/><polygon class="cls-21" points="213.74 320.18 213.9 317.93 214.53 315.84 215.51 314.28 216.23 313.53 215.6 313.91 214.16 314.87 212.25 316.49 211.5 317.4 212.35 313 212.2 309.42 211.8 307.5 211.16 310.7 210.81 313.38 210.2 314.97 209.16 313.24 207.91 312.74 207.81 313.4 208.24 315.07 208.88 316.75 209.01 317.29 207.63 316.04 205.34 314.67 203.48 314.73 204.06 316.17 207.34 319.51 208.1 320.48 208.29 320.81 206.64 321.22 205.62 321.62 205.06 321.77 206.04 321.78 207.95 322.08 210.59 322.44 212.79 322.43 214.86 322.43 216.19 322.25 217.29 322.1 217.84 322.09 217.15 321.73 215.64 321.11 214.44 320.65 213.74 320.18 213.74 320.18"/><polygon class="cls-21" points="74.89 315.62 75.02 313.79 75.53 312.1 76.33 310.83 76.92 310.22 76.41 310.53 75.23 311.31 73.68 312.63 73.07 313.37 73.76 309.79 73.64 306.88 73.31 305.32 72.8 307.93 72.51 310.1 72.02 311.39 71.17 309.98 70.16 309.58 70.08 310.12 70.42 311.48 70.95 312.83 71.05 313.28 69.93 312.26 68.07 311.14 66.56 311.2 67.03 312.36 69.69 315.08 70.31 315.87 70.47 316.13 69.13 316.47 68.29 316.79 67.84 316.92 68.64 316.92 70.19 317.17 72.33 317.46 74.12 317.45 75.81 317.46 76.89 317.3 77.77 317.19 78.22 317.18 77.66 316.88 76.43 316.38 75.46 316.01 74.89 315.62 74.89 315.62"/><polygon class="cls-21" points="21.54 323.36 21.38 321.11 20.75 319.02 19.77 317.46 19.05 316.71 19.67 317.09 21.12 318.05 23.03 319.67 23.78 320.58 22.93 316.18 23.08 312.6 23.48 310.68 24.12 313.88 24.47 316.56 25.08 318.15 26.12 316.42 27.37 315.92 27.46 316.58 27.04 318.25 26.39 319.93 26.27 320.47 27.65 319.22 29.94 317.85 31.8 317.91 31.21 319.35 27.94 322.69 27.17 323.66 26.98 323.99 28.64 324.4 29.66 324.8 30.22 324.95 29.23 324.96 27.33 325.26 24.69 325.62 22.49 325.61 20.41 325.61 19.08 325.43 17.99 325.28 17.44 325.27 18.13 324.91 19.64 324.29 20.83 323.83 21.54 323.36 21.54 323.36"/><path class="cls-21" d="M247.83,327.8a16.37,16.37,0,0,0-5-11.29,21.72,21.72,0,0,1,6.61,7.1c-.17-1.94-.2-4.36.8-6.06-.06,2.1-.75,6.26.87,7.77.74-1.65,1.27-3.82,3-4.76-.51,2.06-1.11,4-1.73,6.06.7-.81,3.92-4.28,4.49-1.86.19.82-1.82,2.95-2,4C251.88,328.58,249,328.44,247.83,327.8Z"/><path class="cls-21" d="M227.46,328.35a50.08,50.08,0,0,1-3-6.34c.89,1.58,1.67,3.39,3.09,4.55.3-2,.81-5.11,2.8-6.23.09,1.7-.78,3.41-.65,5.09,1-.65,2.53-2.74,3.63-1.36.84,1.05-1.78,4.71-2.22,5.59.31,0,.87.16,1.09.14A6.29,6.29,0,0,1,227.46,328.35Z"/><path class="cls-21" d="M278.68,319.22a48.8,48.8,0,0,1-2.95-6.35c.88,1.58,1.66,3.39,3.08,4.55.31-2,.81-5.11,2.8-6.23.09,1.7-.78,3.41-.65,5.09,1-.65,2.53-2.73,3.63-1.36.84,1.05-1.78,4.71-2.22,5.59.31,0,.87.16,1.09.15A6.38,6.38,0,0,1,278.68,319.22Z"/><path class="cls-21" d="M178.87,308.82c-1.05-.9-1.55-2.35-2.46-3.39.65.7,1.45,1.89,2.32,2.19.25-.84,0-1.93.61-2.61a10.71,10.71,0,0,1,.26,2.29c.51-.6,1.46-2.46,2.33-1.44.59.69-1,3.13-1.23,3.89C180.19,309.54,179.66,309.24,178.87,308.82Z"/><path class="cls-21" d="M193.47,299.44c-1.05-.9-1.55-2.35-2.46-3.39.64.7,1.44,1.89,2.31,2.19.26-.83,0-1.93.62-2.61a10.71,10.71,0,0,1,.26,2.29c.51-.6,1.46-2.46,2.33-1.44.59.69-1,3.13-1.23,3.89C194.79,300.16,194.26,299.86,193.47,299.44Z"/><path class="cls-21" d="M80.76,330.3c-1-1.41-1.69-2.93-2.67-4.33.91.73,1.85,2.24,3,2.63.21-.86-.07-2,.66-2.64.17.64.21,1.31.43,2,.77-.6,2.16-2.54,2.51-.45.19,1.11-.75,2.27-.47,3.32A14.31,14.31,0,0,1,80.76,330.3Z"/><path class="cls-21" d="M47.91,325.67c-1.49-1.48-1.3-4.4-2.69-6,.25.83,1.24,2.58,2,2.81.5-.84.49-2.33,1.18-2.92.14.84-.34,3,.51,3.45.85-.79,2.65-3.35,2.57-.61,0,1.12-1.18,2.87-.37,3.88A8.61,8.61,0,0,1,47.91,325.67Z"/><path class="cls-21" d="M171.78,298.39c-1.49-1.47-1.3-4.4-2.69-6,.25.83,1.24,2.58,2,2.81.5-.84.49-2.33,1.18-2.92.14.85-.34,3,.51,3.46.85-.79,2.65-3.36,2.57-.62,0,1.12-1.18,2.87-.37,3.88A8.4,8.4,0,0,1,171.78,298.39Z"/><path class="cls-21" d="M10.79,315.3c-.41-.3-.59-1.8-.73-2.34a14.78,14.78,0,0,1-.76-3c.16,1,1.16,3,2.21,3.38.39-.86.21-2.2.94-2.89,0,1.06-.41,2.19-.1,3.22.23-.2.6-1,.9-1,.75-.09.67,1.36.64,1.83C13.77,316.65,12.81,316,10.79,315.3Z"/><polygon class="cls-21" points="324.45 292.76 324 286.79 324.49 288.66 325.26 290.51 327.15 287.58 326.93 289.67 327.05 291.57 328.61 290.61 328.44 292.34 329.05 292.48 329.24 292.73 329.83 292.71 330.53 293.07 331.29 293.25 332.07 293.6 332.98 293.33 335.82 293.7 336.01 292.3 336.33 289.91 336.41 290.81 336.81 292.08 337.78 290.38 338.45 292.2 339.64 292.67 340.09 293.61 343.73 293.66 348.28 293.95 357.83 294.46 362.14 294.58 363.06 294.53 363.41 293.78 363.61 291.61 363.97 293.03 364.37 294.23 366.23 292.47 366.9 294.3 369.05 294.45 371.83 294.49 374.9 294.36 377.9 294.24 380.72 294.01 382.56 293.56 385.27 293.41 384.34 289.82 384.7 291.03 384.63 288.6 383.95 285.87 385.42 289.04 387.48 291.47 387.43 289.52 388.13 289.19 389.2 291.42 391 289.8 390.52 292.8 391.66 293.13 393.91 293.81 397.65 293.83 399.92 293.95 402.8 293.9 408.78 293.79 414.9 293.86 417.31 293.44 417.67 291.89 418.39 293.22 419.52 292.07 420.81 292.74 422.13 291.68 422.65 289.98 422.94 288.32 422.98 289.7 423.02 291.88 424.42 290.43 424.64 292.78 426.27 293.49 428.89 293.76 431.36 293.82 438.34 293.8 442.02 293.95 445.14 294.2 442.86 294.61 440.92 295.39 436.26 295.91 431.48 297.47 426.67 299.31 421.61 300.85 416.86 302.05 414.83 301.72 412.96 301.88 411.76 300.6 410.17 299.04 409.91 301.16 409.04 299.66 407.76 302.45 405.35 302.6 403.04 302.71 393.58 302.56 391.36 302.4 389.72 302.5 390.19 301.17 390.69 299.5 387.58 300.27 387.89 298.12 385.76 300.63 385 298.94 384.79 297.28 383.44 300.01 382.39 298.61 382.42 302.25 380.5 302.9 377.72 303.04 375.18 302.87 373.2 302.77 368.26 302.95 362.88 303.39 358.49 303.34 355.73 303.4 353.53 302.83 352.86 302.47 352.52 301.44 352.33 298.57 350.56 301.14 347.65 298.92 346.82 299.06 346.46 300.13 345.67 301.25 345.1 299.18 345.19 301.53 345.11 303.75 343.46 303.67 341.48 303.92 338.46 303.5 337.34 303.49 336.47 303.14 334.36 302.87 330.38 301.74 329.02 301.43 327.14 300.85 323.71 300.17 321.88 299.99 319.93 299.9 318.64 297.2 317.67 297.74 317.26 296.73 317 298.45 315.23 298.85 310.14 298 304.93 297.29 299.88 296.3 297.78 295.67 298.93 294.98 304 294.91 309.25 294.1 314.67 293.69 317.35 293.42 319.81 293.17 322.46 293.49 324.45 292.76 324.45 292.76"/><polygon class="cls-21" points="393.75 319.47 397.43 319.31 404.41 319.34 406.88 319.28 409.5 319.01 411.13 318.29 411.35 315.95 412.75 317.4 412.79 315.22 412.83 313.84 413.12 315.5 413.64 317.2 414.96 318.26 416.25 317.59 417.39 318.74 418.11 317.41 418.46 318.95 420.87 319.38 427 319.31 432.97 319.42 435.86 319.46 438.12 319.35 441.86 319.33 444.11 318.64 445.26 318.31 444.77 315.31 446.57 316.94 447.64 314.7 448.34 315.04 448.29 316.99 450.35 314.56 451.82 311.39 451.14 314.12 451.07 316.55 451.44 315.34 450.5 318.93 453.21 319.08 455.05 319.52 457.87 319.76 460.87 319.87 463.94 320 466.72 319.97 468.87 319.81 469.54 317.99 471.41 319.75 471.8 318.55 472.17 317.13 472.36 319.3 472.71 320.05 473.63 320.1 477.94 319.98 487.49 319.47 490.72 319.26 484.35 320.81 482.82 321.13 481.95 321.66 480.72 322.1 475.65 324.29 472.93 324.99 468.79 326.03 464.6 326.63 462 326.75 459.95 326.78 456.75 326.87 454.9 327 454.31 327.21 453.35 327.77 453.38 324.13 452.34 325.53 450.99 322.79 450.77 324.46 450.01 326.14 447.89 323.64 448.2 325.79 445.08 325.02 445.58 326.69 446.05 328.02 444.41 327.92 442.19 328.08 432.73 328.23 430.43 328.12 428.01 327.96 426.73 325.18 425.86 326.68 425.6 324.56 424.01 326.12 422.81 327.4 420.94 327.24 418.91 327.56 414.16 326.37 409.1 324.82 404.29 322.99 399.51 321.43 394.85 320.91 392.91 320.13 390.63 319.72 393.75 319.47 393.75 319.47"/><polygon class="cls-21" points="581.17 301.35 577.5 301.2 570.52 301.23 568.05 301.16 565.42 300.9 563.8 300.18 563.58 297.83 562.17 299.29 562.14 297.11 562.1 295.73 561.81 297.39 561.29 299.09 559.97 300.15 558.67 299.48 557.54 300.63 556.82 299.3 556.47 300.84 554.06 301.26 547.93 301.19 541.96 301.3 539.07 301.35 536.81 301.23 533.07 301.22 530.82 300.53 529.67 300.2 530.16 297.2 528.36 298.83 527.29 296.59 526.59 296.93 526.63 298.88 524.58 296.45 523.1 293.28 523.79 296 523.85 298.44 523.49 297.22 523.74 298.19 524.34 300.48 524.01 301.16 522.28 301.28 520.89 301.29 519.2 301.38 517.63 301.28 515.89 301.21 514.19 301 511.55 300.91 507.91 301.07 503.48 301.56 501.59 301.91 500.53 302.29 500.79 303.85 503.77 305.81 508.28 307.3 512.98 308.04 516.61 308.59 517.57 309.01 519.64 309.62 521.11 309.81 521.58 309.66 521.54 306.02 522.59 307.41 523.94 304.68 524.15 306.34 524.92 308.03 527.04 305.53 526.73 307.68 529.84 306.9 529.35 308.58 528.88 309.91 530.51 309.8 532.74 309.97 542.2 310.12 544.5 310.01 546.92 309.85 548.2 307.06 549.07 308.56 549.32 306.44 550.92 308 552.12 309.28 553.98 309.12 556.02 309.45 560.77 308.25 565.83 306.71 570.63 304.88 575.42 303.31 580.08 302.8 582.02 302.01 584.29 301.6 581.17 301.35 581.17 301.35"/><polygon class="cls-21" points="449.34 305.93 449.2 304.1 448.69 302.41 447.9 301.14 447.31 300.53 447.82 300.84 448.99 301.62 450.55 302.93 451.16 303.68 450.47 300.1 450.59 297.19 450.91 295.63 451.43 298.23 451.72 300.4 452.21 301.7 453.06 300.29 454.07 299.88 454.15 300.42 453.81 301.78 453.28 303.14 453.18 303.59 454.3 302.57 456.16 301.45 457.67 301.51 457.2 302.67 454.54 305.39 453.91 306.18 453.76 306.44 455.1 306.78 455.93 307.1 456.39 307.22 455.59 307.23 454.04 307.48 451.9 307.76 450.11 307.76 448.42 307.76 447.34 307.61 446.46 307.49 446.01 307.49 446.56 307.19 447.8 306.68 448.76 306.32 449.34 305.93 449.34 305.93"/><polygon class="cls-21" points="507.07 320.18 507.24 317.93 507.87 315.84 508.85 314.28 509.57 313.53 508.94 313.91 507.5 314.87 505.59 316.49 504.83 317.4 505.69 313 505.54 309.42 505.13 307.5 504.5 310.7 504.14 313.38 503.53 314.97 502.5 313.24 501.24 312.74 501.15 313.4 501.57 315.07 502.22 316.75 502.35 317.29 500.96 316.04 498.67 314.67 496.81 314.73 497.4 316.17 500.67 319.51 501.44 320.48 501.63 320.81 499.98 321.22 498.95 321.62 498.39 321.77 499.38 321.78 501.29 322.08 503.92 322.44 506.12 322.43 508.2 322.43 509.53 322.25 510.62 322.1 511.17 322.09 510.49 321.73 508.97 321.11 507.78 320.65 507.07 320.18 507.07 320.18"/><polygon class="cls-21" points="368.23 315.62 368.36 313.79 368.87 312.1 369.67 310.83 370.25 310.22 369.74 310.53 368.57 311.31 367.02 312.63 366.41 313.37 367.1 309.79 366.98 306.88 366.65 305.32 366.13 307.93 365.85 310.1 365.35 311.39 364.51 309.98 363.49 309.58 363.42 310.12 363.76 311.48 364.29 312.83 364.39 313.28 363.26 312.26 361.4 311.14 359.89 311.2 360.37 312.36 363.03 315.08 363.65 315.87 363.8 316.13 362.46 316.47 361.63 316.79 361.17 316.92 361.98 316.92 363.53 317.17 365.67 317.46 367.45 317.45 369.14 317.46 370.22 317.3 371.11 317.19 371.56 317.18 371 316.88 369.77 316.38 368.8 316.01 368.23 315.62 368.23 315.62"/><polygon class="cls-21" points="314.88 323.36 314.71 321.11 314.08 319.02 313.1 317.46 312.38 316.71 313.01 317.09 314.45 318.05 316.36 319.67 317.12 320.58 316.27 316.18 316.42 312.6 316.82 310.68 317.46 313.88 317.81 316.56 318.42 318.15 319.46 316.42 320.71 315.92 320.8 316.58 320.38 318.25 319.73 319.93 319.61 320.47 320.99 319.22 323.28 317.85 325.14 317.91 324.55 319.35 321.28 322.69 320.51 323.66 320.32 323.99 321.98 324.4 323 324.8 323.56 324.95 322.57 324.96 320.66 325.26 318.03 325.62 315.83 325.61 313.75 325.61 312.42 325.43 311.33 325.28 310.78 325.27 311.46 324.91 312.98 324.29 314.17 323.83 314.88 323.36 314.88 323.36"/><path class="cls-21" d="M541.16,327.8a16.31,16.31,0,0,0-5-11.29,21.72,21.72,0,0,1,6.61,7.1c-.18-1.94-.2-4.36.8-6.06-.06,2.1-.75,6.26.86,7.77.74-1.65,1.28-3.82,3-4.76-.51,2.06-1.11,4-1.74,6.06.71-.81,3.93-4.28,4.5-1.86.19.82-1.83,2.95-2,4C545.22,328.58,542.35,328.44,541.16,327.8Z"/><path class="cls-21" d="M520.8,328.35a50.08,50.08,0,0,1-3-6.34c.88,1.58,1.67,3.39,3.08,4.55.31-2,.81-5.11,2.81-6.23.09,1.7-.78,3.41-.65,5.09,1-.65,2.52-2.74,3.63-1.36.84,1.05-1.78,4.71-2.22,5.59.3,0,.86.16,1.09.14A6.28,6.28,0,0,1,520.8,328.35Z"/><path class="cls-21" d="M572,319.22a50.22,50.22,0,0,1-3-6.35c.88,1.58,1.67,3.39,3.09,4.55.3-2,.81-5.11,2.8-6.23.09,1.7-.78,3.41-.65,5.09,1-.65,2.52-2.73,3.63-1.36.84,1.05-1.78,4.71-2.22,5.59.3,0,.86.16,1.09.15A6.36,6.36,0,0,1,572,319.22Z"/><path class="cls-21" d="M472.21,308.82c-1-.9-1.55-2.35-2.46-3.39.64.7,1.44,1.89,2.31,2.19.26-.84,0-1.93.62-2.61a10.11,10.11,0,0,1,.25,2.29c.51-.6,1.47-2.46,2.34-1.44.58.69-1,3.13-1.23,3.89C473.53,309.54,473,309.24,472.21,308.82Z"/><path class="cls-21" d="M486.81,299.44c-1.05-.9-1.55-2.35-2.46-3.39.64.7,1.44,1.89,2.31,2.19.26-.83,0-1.93.62-2.61a10.11,10.11,0,0,1,.25,2.29c.51-.6,1.47-2.46,2.33-1.44.59.69-1,3.13-1.22,3.89C488.13,300.16,487.6,299.86,486.81,299.44Z"/><path class="cls-21" d="M374.1,330.3c-1-1.41-1.69-2.93-2.68-4.33.92.73,1.86,2.24,2.95,2.63.21-.86-.06-2,.67-2.64.17.64.21,1.31.43,2,.76-.6,2.15-2.54,2.51-.45.18,1.11-.76,2.27-.47,3.32A14.24,14.24,0,0,1,374.1,330.3Z"/><path class="cls-21" d="M341.24,325.67c-1.48-1.48-1.3-4.4-2.69-6,.25.83,1.24,2.58,2,2.81.5-.84.48-2.33,1.17-2.92.15.84-.33,3,.52,3.45.85-.79,2.64-3.35,2.56-.61,0,1.12-1.17,2.87-.36,3.88A8.68,8.68,0,0,1,341.24,325.67Z"/><path class="cls-21" d="M465.11,298.39c-1.48-1.47-1.3-4.4-2.69-6,.25.83,1.24,2.58,2,2.81.5-.84.48-2.33,1.17-2.92.15.85-.33,3,.52,3.46.85-.79,2.64-3.36,2.56-.62,0,1.12-1.17,2.87-.36,3.88A8.47,8.47,0,0,1,465.11,298.39Z"/><path class="cls-21" d="M304.13,315.3c-.42-.3-.59-1.8-.73-2.34a14.16,14.16,0,0,1-.76-3c.16,1,1.15,3,2.2,3.38.39-.86.21-2.2,1-2.89,0,1.06-.41,2.19-.1,3.22.22-.2.6-1,.9-1,.75-.09.67,1.36.64,1.83C307.11,316.65,306.14,316,304.13,315.3Z"/><path class="cls-22" d="M20.89,261.4c0,1.76,48.71,3.19,108.81,3.19s108.8-1.43,108.8-3.19-48.71-3.18-108.8-3.18S20.89,259.65,20.89,261.4Z"/><path class="cls-6" d="M282.19,173.4c.73,32.58,1.86,62.83,4.11,86.55h-6.24C281.79,236.8,282.3,206.85,282.19,173.4Z"/><path class="cls-7" d="M285.38,259a8.58,8.58,0,0,0-4.06-.05c.43-8.19.56-16.51,1-24.69C282.52,244.55,281.53,256.94,285.38,259Z"/><path class="cls-23" d="M283.33,237.25a7.95,7.95,0,0,0,9-12.29,5.46,5.46,0,0,0,4.33-.9,2.47,2.47,0,0,0,0-3.67,2.2,2.2,0,0,0,1.34-1.46,1.62,1.62,0,0,0-.55-1.59,8.91,8.91,0,0,0,3.36-9,8.21,8.21,0,0,0-6.95-6,4.79,4.79,0,0,0,2.69-2.73,4.23,4.23,0,0,0-.16-3.58c2.19-.73,3.73-3.52,3.53-5.83a5.36,5.36,0,0,0-4.41-4.68,2.44,2.44,0,0,0-.36-3.72c.55.4,1.53-.24,1.92-.8a1.33,1.33,0,0,0-.36-1.79,4.54,4.54,0,0,0,2.89-4.63,5.61,5.61,0,0,0-3.26-4.47,8,8,0,0,0-5.66-.3,2.83,2.83,0,0,0-1.13-3.94,3,3,0,0,0-4,1.55c.86-2,1.74-4.25,1.25-6.42A5.48,5.48,0,0,0,276,162.87a1.88,1.88,0,0,0-2.45-.63,2.16,2.16,0,0,0-1.2,2.47,7.61,7.61,0,0,0-7.78,3.93,7.48,7.48,0,0,0,1.3,8.54c-.79,1.53.37,3.33,2,3.93-.4,1.28.56,2.82,1.64,3.63a8.08,8.08,0,0,0-4,6.49,8.23,8.23,0,0,0,2.91,7.16,2,2,0,0,0-2.46.53,2,2,0,0,0,.17,2.55,3.56,3.56,0,0,0-3.59,2.31,4.14,4.14,0,0,0,1.06,4.51,3.58,3.58,0,0,0-1.54,3.43,3.23,3.23,0,0,0,2.37,2.66c-.39.57,0,.88.59,1.3a1.41,1.41,0,0,0,1.86-.2,5.58,5.58,0,0,0-.24,2.76,2.85,2.85,0,0,0,1.4,2.3,1.92,1.92,0,0,0,2.49-.59c-.26.63.63,1.6,1.1,2.09a1.79,1.79,0,0,0,1.88.43,2.7,2.7,0,0,0-2.26,1.92,3.1,3.1,0,0,0,.56,3.15,2.93,2.93,0,0,0-1.51,3.4,2.7,2.7,0,0,0,3,1.87c-.93,1.45-.18,3.69.92,5a5.5,5.5,0,0,0,4.61,1.85C280.54,239.58,282,238.39,283.33,237.25Z"/><path class="cls-9" d="M282.3,161.25a.94.94,0,0,0-1.09.12,2.68,2.68,0,0,0-.65,1,8.14,8.14,0,0,0-.91,4,3.69,3.69,0,0,0,2.22,3.23,4.76,4.76,0,0,0-4.24,2,8.23,8.23,0,0,0-1.24,4.49,6.22,6.22,0,0,0,.5,3,2.9,2.9,0,0,0,2.34,1.69,1.21,1.21,0,0,0-1.29.93,1.27,1.27,0,0,0,.72,1.48,2.6,2.6,0,0,0,1.21,3.43,2.77,2.77,0,0,0,3.63-1,5.56,5.56,0,0,0,.26,2.62,1.66,1.66,0,0,0,1.94,1.13,7.9,7.9,0,0,0-2.63,2.7,2.71,2.71,0,0,0,.35,3.47c-1.41-.76-3.26.06-4.18,1.36a4.74,4.74,0,0,0-.3,4.56,4.83,4.83,0,0,0,2.21,2.42,1.68,1.68,0,0,0-1.9,1,1.71,1.71,0,0,0,.73,2.06,1.66,1.66,0,0,0-1.75,1.29,1.78,1.78,0,0,0,1,2,3.36,3.36,0,0,0,1,2.45,2.85,2.85,0,0,0,2.56.8,2.41,2.41,0,0,0,1.84-1.9,6,6,0,0,0,0,1.74,2.34,2.34,0,0,0,.92,1.55,1.45,1.45,0,0,0,1.73,0,8.37,8.37,0,0,0-1.19,1.74,2.68,2.68,0,0,0-.38,2,1.61,1.61,0,0,0,1.47,1.23,4.13,4.13,0,0,0-2,.85,2.49,2.49,0,0,0-.85,2.06,1.7,1.7,0,0,0,1.51,1.51,5.84,5.84,0,0,0-.46,2.85,2.89,2.89,0,0,0,1.58,2.36,1.94,1.94,0,0,0,2.52-.88,2,2,0,0,0,2.27,1.63,5.47,5.47,0,0,1-3.31,5.39,8.94,8.94,0,0,1-6.54-.38,3.58,3.58,0,0,1-3.21,2.63,4.36,4.36,0,0,1-3.84-2,5.25,5.25,0,0,1-.58-4.34c-.77-.21-1-1.14-1.24-1.91a2.41,2.41,0,0,1,.48-2.23,2.66,2.66,0,0,1,0-2.61,2.17,2.17,0,0,1,2-1.2c-.4-.19-.37-.72-.37-1.17a1.24,1.24,0,0,1,.68-1.09,2.54,2.54,0,0,1-2.59-.66,2.39,2.39,0,0,1-.59-2.52,2.79,2.79,0,0,1-3.12-.56,3,3,0,0,1-.94-3.16,5.64,5.64,0,0,1-2.31-2,3.64,3.64,0,0,1-.74-3.07,2.61,2.61,0,0,1,2.32-2c-.36-.28-.29-.61-.55-1A1.54,1.54,0,0,1,267,205a.93.93,0,0,1,1-.67,2.06,2.06,0,0,1,.34-2.54,2.14,2.14,0,0,1,2.61-.36,5.47,5.47,0,0,1-1.09-1.92,2.24,2.24,0,0,1-.18-1.39,1,1,0,0,1,1.05-.76c-2.1-.6-3.35-2.94-3.31-5.13a5.17,5.17,0,0,1,3.82-4.78c-.43-.44-.18-1.53.12-2.06a1.43,1.43,0,0,1,1.57-.66,3.63,3.63,0,0,1-2.52-1.32,2.16,2.16,0,0,1-.15-2.87,2.09,2.09,0,0,1-2.07-.83,2.32,2.32,0,0,1-.49-2.32,4.18,4.18,0,0,1-1.52-3.4,4.5,4.5,0,0,1,1.43-3.85,3,3,0,0,1,3.89,0,4.85,4.85,0,0,1-.32-1.52,1.65,1.65,0,0,1,.42-1.4,1,1,0,0,1,1.37,0,4.48,4.48,0,0,1,.25-1.61,1.5,1.5,0,0,1,1-1.09.94.94,0,0,1,1.18.65c0-.63,1.18-1.44,1.74-1.14a5.82,5.82,0,0,1,.71-3.41,2.38,2.38,0,0,1,.94-1.15,1.11,1.11,0,0,1,1.38.2,1.61,1.61,0,0,1,1.92-.64C282.69,159.36,282.63,160.68,282.3,161.25Zm12.85,50a2.89,2.89,0,0,1,.06,2.5,3.21,3.21,0,0,1-2,1.76,1.68,1.68,0,0,1,.61,1.51,1.56,1.56,0,0,1-.89,1.29,2.58,2.58,0,0,1-.65,2.07,2.74,2.74,0,0,1-2,.94,2.77,2.77,0,0,0,2.59.65,3,3,0,0,0,1.88-2,3.48,3.48,0,0,0,.71-4.29,3.08,3.08,0,0,0,2.11-1.36,5.07,5.07,0,0,0,.79-2.43,7.59,7.59,0,0,0-2.29-6.09A7.2,7.2,0,0,1,295.15,211.27Zm-1.65-17.7a3.78,3.78,0,0,1-.34,3.9,4.15,4.15,0,0,1-3.87,1.41,3.18,3.18,0,0,1-2.48,1.74,1.24,1.24,0,0,0,1,.87A1.3,1.3,0,0,0,289,201a5.23,5.23,0,0,0,4.88-1.35,5.42,5.42,0,0,0,1.52-4.94,1.41,1.41,0,0,0,1.27-.58,3.72,3.72,0,0,0,.16-4.55A4.08,4.08,0,0,1,293.5,193.57Zm-3-12.26a3.51,3.51,0,0,1-3.5,2.49,1.84,1.84,0,0,0,1.92,1.29,3.37,3.37,0,0,0,2.17-1.16,3.23,3.23,0,0,0,1-2.55,4,4,0,0,0,1.38-6.65A7.57,7.57,0,0,1,290.49,181.31Zm-8.07-5.63a3.87,3.87,0,0,1-1.31-3.13,3.91,3.91,0,0,0,2.42,6.39,2.5,2.5,0,0,0,2.71-1.27C285.06,177.82,283.27,176.52,282.42,175.68Zm9.14,31.68a1.17,1.17,0,0,1-.66,1.09,2.2,2.2,0,0,1-1.32.18,4,4,0,0,1-3.24-3,3.81,3.81,0,0,0,1,4.67c0,.28-.26.56-.47.38a.79.79,0,0,0,.35.72,2.17,2.17,0,0,0,.85.34,4,4,0,0,0,2.63-.21,2.36,2.36,0,0,0,1.39-2.13,2.35,2.35,0,0,1-2,.57C291,209.6,291.38,208.3,291.56,207.36Z"/><path class="cls-9" d="M286.18,233.89a4.48,4.48,0,0,1-4.4-.44,3,3,0,0,1-2.21,2.5,3.13,3.13,0,0,1-3.29-.92,3.17,3.17,0,0,1-.42-3.4c-.84-.32-1.05-1.51-1-2.41a2.16,2.16,0,0,1,1.69-1.87c-.81-.21-.9-1.38-.73-2.2a1.69,1.69,0,0,1,1.86-1.29c-.4,0-.39-.51-.52-.89a1,1,0,0,1,.34-1.08c-.58-.12-.89-1-1-1.57a1.57,1.57,0,0,1,.61-1.56,1.72,1.72,0,0,1-2.1.17,2,2,0,0,1-.88-2.12,2.91,2.91,0,0,1-2.53.1,2.66,2.66,0,0,1-1.81-1.91,2.31,2.31,0,0,1,1-2.41c-.8.29-1.68-.49-1.84-1.33a1.54,1.54,0,0,1,1.42-1.74,6,6,0,0,1-.5-1.72,2.06,2.06,0,0,1,.34-1.74,1.26,1.26,0,0,1,1.64-.29c-.54-.08-.67-.82-.55-1.35a1,1,0,0,1,1.29-.72,3.84,3.84,0,0,1-.44-1.44,1.34,1.34,0,0,1,.34-1.38.82.82,0,0,1,1.25.27c-.68-.29-1-1.11-1.55-1.62a2,2,0,0,1-.6-2,1.22,1.22,0,0,1,1.78-.64,6.33,6.33,0,0,1-3.29-3,3.31,3.31,0,0,1,.34-3.26,3.28,3.28,0,0,1,3-1.31c-.55-.34-.56-1.09-.5-1.73a1.76,1.76,0,0,1,1.13-1.45,1.57,1.57,0,0,0,.85-1.38,1.4,1.4,0,0,0-.8-1.11,2.25,2.25,0,0,1-2.5-1.16,2.06,2.06,0,0,1,.74-2.52,3.28,3.28,0,0,1-2.91-1,2.18,2.18,0,0,1-.34-2.9,3.44,3.44,0,0,1-.7-3.11,1.91,1.91,0,0,1,.61-1.05,1,1,0,0,1,1.15-.11,3,3,0,0,1,2.44.62,6.37,6.37,0,0,1,0-1.85,1.06,1.06,0,0,1,.3-.77c.21-.19.63-.14.69.14-.12-.31.14-.7.3-1s.72-.27.72.06a6.35,6.35,0,0,0-.44,5.13l.3-.18a1.78,1.78,0,1,0-.13,3.51c-.36.23-.3.68-.29,1.1a1.26,1.26,0,0,0,.63,1.05,2,2,0,0,0,.08,2.18,2,2,0,0,0,1.88,1,3.4,3.4,0,0,0,1.07,4.13,2.23,2.23,0,0,0-1.07,2.28,2.3,2.3,0,0,0,1.63,2c-.54-.12-.92.26-1.18.74a1.32,1.32,0,0,0,.22,1.53c-.24-.41-.87-.25-1.25,0a1.43,1.43,0,0,0-.47,1.29,4.18,4.18,0,0,0,.47,1.35,5.18,5.18,0,0,0-.6,4.07,4.65,4.65,0,0,0,2.54,2.94,4.78,4.78,0,0,0-1.62,7.35c-.55,0-.83.58-1,1.1a1.4,1.4,0,0,0,.39,1.51c-.31.95.41,2,1.11,2.75a4.11,4.11,0,0,0,2.72,1.09,8,8,0,0,0,2.93-.51,4.54,4.54,0,0,0-1.3,2.48,2.17,2.17,0,0,0,1.26,2.57,2.83,2.83,0,0,0-1.83,2.12,2.88,2.88,0,0,0,.73,2.74c-.81.23-1.07,1.27-1,2.11a2.32,2.32,0,0,0,1.39,2,2.94,2.94,0,0,0,2.46-.1A5.89,5.89,0,0,0,286.18,233.89Z"/></g><g class="cls-24"><polygon class="cls-25" points="1212.24 -358.64 372.63 439.1 2890.24 669.81 1785.65 -358.64 1815.62 -358.64 3254.45 755.29 -226.58 755.29 1212.24 -358.64"/></g></g></g></svg>