<svg xmlns="http://www.w3.org/2000/svg" xmlns:xlink="http://www.w3.org/1999/xlink" viewBox="0 0 142.55 55.98"><defs><style>.cls-1{fill:none;}.cls-2{isolation:isolate;}.cls-3{clip-path:url(#clip-path);}.cls-4{fill:#a1132d;opacity:0.29;}.cls-4,.cls-8{mix-blend-mode:multiply;}.cls-5,.cls-6{fill:#16d3af;}.cls-6{stroke:#333;stroke-miterlimit:10;}.cls-7,.cls-8{fill:#333;}.cls-8{font-size:11px;font-family:Montserrat-SemiBold, Montserrat;font-weight:600;}.cls-9{letter-spacing:0em;}.cls-10{letter-spacing:-0.01em;}.cls-11{letter-spacing:-0.03em;}</style><clipPath id="clip-path"><rect class="cls-1" x="-1670.33" y="-830.65" width="588.51" height="548.5"/></clipPath></defs><title>Prancheta 183</title><g class="cls-2"><g id="Camada_1" data-name="Camada 1"><g class="cls-3"><polygon class="cls-4" points="-1671.21 -536.52 -2510.82 261.21 6.79 491.92 -1097.81 -536.52 -1067.83 -536.52 371 577.41 -3110.04 577.41 -1671.21 -536.52"/></g><rect class="cls-5" width="142.55" height="55.98"/><path class="cls-6" d="M52.53,28A16.72,16.72,0,1,1,35.81,11.28,16.73,16.73,0,0,1,52.53,28Z"/><path class="cls-1" d="M35.81,45.35A17.36,17.36,0,1,1,53.17,28,17.37,17.37,0,0,1,35.81,45.35Zm0-33.43A16.08,16.08,0,1,0,51.89,28,16.09,16.09,0,0,0,35.81,11.92Z"/><path class="cls-7" d="M28.37,30.63c.19,8.79,7.44,8.8,7.44,8.8s7.25,0,7.45-8.8Z"/><path class="cls-7" d="M35.81,39.94c-.08,0-7.75-.11-8-9.3v-.52H43.78v.52C43.57,39.83,35.89,39.94,35.81,39.94ZM28.9,31.15c.44,7.64,6.64,7.76,6.91,7.77s6.47-.13,6.91-7.77Z"/><path class="cls-7" d="M32.17,24.09c0,2.11-.69,3.82-1.55,3.82s-1.55-1.71-1.55-3.82.69-3.83,1.55-3.83S32.17,22,32.17,24.09Z"/><path class="cls-7" d="M42,24.09c0,2.11-.69,3.82-1.55,3.82s-1.55-1.71-1.55-3.82.7-3.83,1.55-3.83S42,22,42,24.09Z"/><text class="cls-8" transform="translate(68.13 25.18)"><tspan class="cls-9">C</tspan><tspan x="7.94" y="0">UM</tspan><tspan class="cls-10" x="27.13" y="0">P</tspan><tspan x="35" y="0">RIU</tspan><tspan x="5.8" y="12">A ME</tspan><tspan class="cls-11" x="34.95" y="12">T</tspan><tspan x="41.19" y="12">A</tspan></text></g></g></svg>