<svg id="Camada_1" data-name="Camada 1" xmlns="http://www.w3.org/2000/svg" xmlns:xlink="http://www.w3.org/1999/xlink" viewBox="0 0 82.43 205.25"><defs><style>.cls-1{fill:#468b33;}.cls-2{fill:url(#åçûìßííûé_ãðàäèåíò_30);}.cls-3{fill:#8b011b;}.cls-4{fill:#e1784e;}.cls-5{fill:url(#åçûìßííûé_ãðàäèåíò_30-2);}.cls-6{fill:#590800;}.cls-7{fill:url(#åçûìßííûé_ãðàäèåíò_30-3);}.cls-8{fill:url(#åçûìßííûé_ãðàäèåíò_99);}.cls-9{fill:url(#åçûìßííûé_ãðàäèåíò_99-2);}.cls-10{fill:#840400;}.cls-11{fill:#bf1b83;}.cls-12{fill:#c13c32;opacity:0.59;}.cls-13{fill:url(#åçûìßííûé_ãðàäèåíò_30-4);}.cls-14,.cls-19{fill:#fff;}.cls-15{fill:url(#åçûìßííûé_ãðàäèåíò_3);}.cls-16{fill:url(#åçûìßííûé_ãðàäèåíò_3-2);}.cls-17{fill:url(#åçûìßííûé_ãðàäèåíò_70);}.cls-18{fill:url(#åçûìßííûé_ãðàäèåíò_70-2);}.cls-19{opacity:0.37;}.cls-20{fill:url(#åçûìßííûé_ãðàäèåíò_3-3);}.cls-21{fill:url(#åçûìßííûé_ãðàäèåíò_3-4);}.cls-22{fill:#d35921;}.cls-23{fill:url(#åçûìßííûé_ãðàäèåíò_3-5);}.cls-24{fill:#f9ba00;}.cls-25{fill:url(#åçûìßííûé_ãðàäèåíò_99-3);}.cls-26{fill:url(#åçûìßííûé_ãðàäèåíò_99-4);}.cls-27{fill:url(#åçûìßííûé_ãðàäèåíò_99-5);}.cls-28{fill:url(#åçûìßííûé_ãðàäèåíò_30-5);}</style><linearGradient id="åçûìßííûé_ãðàäèåíò_30" x1="2096.56" y1="168.26" x2="2106.33" y2="168.26" gradientTransform="matrix(-1, 0, 0, 1, 2147.82, 0)" gradientUnits="userSpaceOnUse"><stop offset="0" stop-color="#fdc38b"/><stop offset="1" stop-color="#fda37d"/></linearGradient><linearGradient id="åçûìßííûé_ãðàäèåíò_30-2" x1="2101.6" y1="171.23" x2="2111.58" y2="171.23" xlink:href="#åçûìßííûé_ãðàäèåíò_30"/><linearGradient id="åçûìßííûé_ãðàäèåíò_30-3" x1="2101.6" y1="121.37" x2="2101.6" y2="41.32" xlink:href="#åçûìßííûé_ãðàäèåíò_30"/><linearGradient id="åçûìßííûé_ãðàäèåíò_99" x1="2093.79" y1="65.56" x2="2113.18" y2="65.56" gradientTransform="matrix(-1, 0, 0, 1, 2147.82, 0)" gradientUnits="userSpaceOnUse"><stop offset="0" stop-color="#ca0000"/><stop offset="1" stop-color="#a80009"/></linearGradient><linearGradient id="åçûìßííûé_ãðàäèåíò_99-2" x1="2087.01" y1="113.54" x2="2115.15" y2="113.54" xlink:href="#åçûìßííûé_ãðàäèåíò_99"/><linearGradient id="åçûìßííûé_ãðàäèåíò_30-4" x1="2101.05" y1="45.13" x2="2101.05" y2="13.2" xlink:href="#åçûìßííûé_ãðàäèåíò_30"/><linearGradient id="åçûìßííûé_ãðàäèåíò_3" x1="4401.46" y1="-956.14" x2="4401.46" y2="-961" gradientTransform="matrix(-1.3, -0.3, -0.23, 0.97, 5557.33, 2298.59)" gradientUnits="userSpaceOnUse"><stop offset="0" stop-color="#a43113"/><stop offset="1" stop-color="#6f160d"/></linearGradient><linearGradient id="åçûìßííûé_ãðàäèåíò_3-2" x1="3990.58" y1="-1269.73" x2="3990.58" y2="-1274.58" gradientTransform="matrix(-0.9, -0.3, -0.32, 0.95, 3246.86, 2453.31)" xlink:href="#åçûìßííûé_ãðàäèåíò_3"/><linearGradient id="åçûìßííûé_ãðàäèåíò_70" x1="2098.97" y1="37" x2="2103.62" y2="39.07" gradientTransform="matrix(-1, 0, 0, 1, 2147.82, 0)" gradientUnits="userSpaceOnUse"><stop offset="0" stop-color="#680000"/><stop offset="0.33" stop-color="#a60000"/><stop offset="0.59" stop-color="#ae0000"/><stop offset="0.85" stop-color="#b70000"/><stop offset="1" stop-color="#720000"/></linearGradient><linearGradient id="åçûìßííûé_ãðàäèåíò_70-2" x1="2098.6" y1="37.31" x2="2103.81" y2="39.63" xlink:href="#åçûìßííûé_ãðàäèåíò_70"/><linearGradient id="åçûìßííûé_ãðàäèåíò_3-3" x1="2086.07" y1="34.63" x2="2094.26" y2="34.63" gradientTransform="matrix(-1, 0, 0, 1, 2147.82, 0)" xlink:href="#åçûìßííûé_ãðàäèåíò_3"/><linearGradient id="åçûìßííûé_ãðàäèåíò_3-4" x1="2087.05" y1="43.56" x2="2129.73" y2="43.56" gradientTransform="matrix(-1, 0, 0, 1, 2147.82, 0)" xlink:href="#åçûìßííûé_ãðàäèåíò_3"/><linearGradient id="åçûìßííûé_ãðàäèåíò_3-5" x1="2094.26" y1="31.35" x2="2112.36" y2="31.35" gradientTransform="matrix(-1, 0, 0, 1, 2147.82, 0)" xlink:href="#åçûìßííûé_ãðàäèåíò_3"/><linearGradient id="åçûìßííûé_ãðàäèåíò_99-3" x1="799.69" y1="-2187.56" x2="806.18" y2="-2187.56" gradientTransform="matrix(-0.93, -0.12, 0.12, 0.8, 1017.25, 1958.18)" xlink:href="#åçûìßííûé_ãðàäèåíò_99"/><linearGradient id="åçûìßííûé_ãðàäèåíò_99-4" x1="2113.41" y1="118.71" x2="2133.98" y2="118.71" xlink:href="#åçûìßííûé_ãðàäèåíò_99"/><linearGradient id="åçûìßííûé_ãðàäèåíò_99-5" x1="2113.05" y1="121.72" x2="2119.53" y2="121.72" gradientTransform="matrix(-0.5, -0.87, -0.87, 0.5, 1195.08, 1893.62)" xlink:href="#åçûìßííûé_ãðàäèåíò_99"/><linearGradient id="åçûìßííûé_ãðàäèåíò_30-5" x1="2122.21" y1="121.37" x2="2122.21" y2="96.13" xlink:href="#åçûìßííûé_ãðàäèåíò_30"/></defs><title>Prancheta 166</title><path class="cls-1" d="M18.65,195c0,2.77,11,5,24.62,5s24.61-2.24,24.61-5-11-5-24.61-5S18.65,192.24,18.65,195Z"/><path class="cls-2" d="M41.53,193.36c.38.5,5.73.44,5.92-.43s-1.12-8-1.23-10.08,2.22-9.21,4.17-18.92a54.47,54.47,0,0,0,.81-12.55,70.46,70.46,0,0,0-.81-8.54l-7.3,7.4s1.31,18.55.75,26.08c-.3,4-1,8.41-1.61,11.74h0C41.73,191,41.36,193.13,41.53,193.36Z"/><path class="cls-3" d="M46.68,186.6s.46,4.13-.84,4.8-3.65,0-3.83-.49a1.39,1.39,0,0,1-.14-.67s-1.5,3.68-.64,4,6.09.41,6.42-.88S46.68,186.6,46.68,186.6Z"/><path class="cls-4" d="M44.34,180.45c-.21-3.82,1.2-13.37,2.61-19.92a23.13,23.13,0,0,1,4.25-9.15,70.46,70.46,0,0,0-.81-8.54l-7.3,7.4s1.31,18.55.75,26.08c-.3,4-1,8.41-1.61,11.74A15.35,15.35,0,0,0,44.34,180.45Z"/><path class="cls-5" d="M38.15,186.25c.13.81-.47,6.74-.47,8.49s.87,2,2.3,2,5.1.44,5.42-.31-.5-1.06-1.06-1.43-3.49-5.23-3.37-9c.1-3,3.42-24.82,4.73-33.33l.52-3.4-5.94-3.05-1.55-.8a11.48,11.48,0,0,0-.59,1.25,30.08,30.08,0,0,0-1.89,10.83c0,2.4.1,5.79.31,9.4C37.09,175.69,38.06,185.68,38.15,186.25Z"/><path class="cls-3" d="M43.82,194.42s-4.34.38-5.13-.29-.64-5.14-.64-5.14-1.21,7.27,0,7.95,7.08.47,7.71-.19S43.82,194.42,43.82,194.42Z"/><path class="cls-4" d="M36.56,167a48.38,48.38,0,0,1,1.93-6.79,13.83,13.83,0,0,1,7.21-7.44l.52-3.4-5.94-3.05-2.14.45a30.08,30.08,0,0,0-1.89,10.83C36.21,160,36.35,163.38,36.56,167Z"/><path class="cls-6" d="M37.23,21.87S36.26,33.6,39.1,38s11.72,5.55,11.72,5.55,1.1,8.35-1.18,15.65-3.28,20.16-3.28,20.16-7-.08-12.36.33a44.25,44.25,0,0,0-7.63,1.08s1.49-13.94,1.49-16.93,2.49-35,3.07-37.39S37.23,21.87,37.23,21.87Z"/><path class="cls-7" d="M21.21,119c.24.06.75-1.77,1-2.47a12.46,12.46,0,0,1,1.41-2.25,22.16,22.16,0,0,0-1.19,3.22c0,.5.5,3.13.9,3.13s0-2.48,0-2.91a13.86,13.86,0,0,1,1.28-2.88,13.36,13.36,0,0,0-1,3c0,.85-.07,3.48.43,3.61s.22-2.35.56-3.26c.24-.62.56-1.55.75-2a12.6,12.6,0,0,0-.48,1.85c-.09.72-.25,3.46.17,3.46s.58-3,1.24-4.44a18.75,18.75,0,0,1,2.05-3.09,37.3,37.3,0,0,0-.39,3.88c0,.91.54,1.41.66,1.29a37.21,37.21,0,0,0,1.44-6c0-1.06-2.31-4.6-1.75-6.48.07-.22.18-.59.32-1.09,1-3.56,3.62-13.16,3.73-15.45.12-2.62,0-8.65,0-11.83,0-1.54.51-5.88,1.07-10,.61-4.39,1.26-8.59,1.42-9.06.31-.93,13.13-1.68,14.93-.93.57.24,1.27,1.78,2,3.88,1.54,4.5,3.13,11.53,3.55,13.48.62,2.86,1,8.27,2.06,13.12.71,3.31,2.83,10.33,4.11,14.47.6,1.94,1,3.24,1,3.24s-1.34,2.34-1.1,3a31.2,31.2,0,0,1,.75,5,5.33,5.33,0,0,1-.18,2c.47.21,1.53-.57,1.6-1.85a28.56,28.56,0,0,0-.54-4.29s3,4,3.42,4.68,1.37,2.92,1.74,3-.1-1.41-.34-2.34a23.67,23.67,0,0,0-1.12-2.73c.12.15,1.26,1.64,1.65,2.2s1.37,2.4,1.58,2.3-.12-1.34-.59-2.33-1.37-2.6-1.43-2.7a19.65,19.65,0,0,1,1.84,2.11c.4.66,1,2,1.24,1.93s-.16-1.5-.65-2.47a31.48,31.48,0,0,0-1.74-2.69s.35.29,1.08,1,1.22,2,1.53,1.55-1.24-2.6-2.49-3.79-3.43-3-3.8-3.26c-.79-.56-.74-13.71-1.18-16.57a70.31,70.31,0,0,0-3.35-11.78c-1.8-5.1-3.31-21.78-4.77-24.89a5.61,5.61,0,0,0-1.43-1.7h0c-2.83-2.41-8.37-4.45-9-5.23a5.68,5.68,0,0,1-.84-2.33c0-.35-.07-.59-.07-.59l-2.3-2.24a14.52,14.52,0,0,1,.08,1.52,7.11,7.11,0,0,1-.3,2.36c-.13.38-.89.84-2,1.37-2.75,1.37-7.51,3.13-8.67,4.61a1,1,0,0,0-.08.11c-1.08,1.72-1.84,9.8-2.19,15.61-.06.89-.11,1.73-.14,2.47-.07,1.47-.09,2.62-.08,3.21.06,2.93-1.49,10.58-2.24,15.49a62,62,0,0,0-.4,8.06c0,4.8.17,9.65.21,10.39.06,1.21-4.7,8.84-4.87,9.47S21,118.9,21.21,119Z"/><path class="cls-4" d="M51.8,62c1.54,4.5,3.12,11.53,3.55,13.48.62,2.86,1,8.28,2,13.12.72,3.31,2.84,10.33,4.12,14.47h0a41,41,0,0,0,.11-11c-.83-4.79-4.39-14.71-5.47-19.93S52.9,59,52.9,59Z"/><path class="cls-4" d="M28.66,105.4c1-3.56,3.62-13.16,3.73-15.45.12-2.62,0-8.65,0-11.83,0-1.54,1.82-14.49,2.38-18.64,0,0-3.25,11.3-3.13,14.66S31,87.39,30.52,92.75C30.21,96.52,29.22,102.32,28.66,105.4Z"/><path class="cls-8" d="M35.54,65.62a77,77,0,0,0,3.69,9.54l5,0,4.95,0,1-1.5v0a60.45,60.45,0,0,0,3.65-6.35,1.61,1.61,0,0,0,.09-.26C54.57,65,52.3,56.67,52.3,56.67A39.54,39.54,0,0,0,42.93,56h0q-.91,0-1.71.15a19.82,19.82,0,0,0-5,1.22h0a8.08,8.08,0,0,0-1.53.77A24.68,24.68,0,0,0,35.54,65.62Z"/><path class="cls-9" d="M33.15,135.37a25,25,0,0,0,.36,3c.27,1.2.61,2.77,1.08,4.42.85,3,2.11,6.36,4,8h0a3.9,3.9,0,0,0,3.17,1.1c5.15-.62,9.29-9.59,10.42-14.07s9.7-43.31,8.52-46.79C60,89,56.59,84.71,54,81.65c-1.66-2-3-3.46-3-3.46l-.52-.88a0,0,0,0,0,0,0l-1.33-2.23-4.95,0-5,0S34.75,88.89,33.51,97C32.43,104,32.47,126.51,33.15,135.37Z"/><path class="cls-10" d="M56.16,111.91s-4.88,25.39-9.78,31.45-8.64,3.48-8.64,3.48,4.65,3.82,9.73-2.64S56.16,111.91,56.16,111.91Z"/><path class="cls-10" d="M48.19,130.52s-2,8.4-5.22,11.76-6.1,1.06-6.1,1.06,2.43,3,6.5.18S48.19,130.52,48.19,130.52Z"/><path class="cls-11" d="M31.64,142.25v0Z"/><path class="cls-4" d="M31.13,51.29c3.62-.8,9.14-1.81,13.21-1.56a69.53,69.53,0,0,1,9.91,2h0c-2.83-2.41-8.37-4.45-9-5.23a5.68,5.68,0,0,1-.84-2.33l-2.29-1.31a7.11,7.11,0,0,1-.3,2.36c-.13.38-.89.84-2,1.37-2.75,1.37-7.51,3.13-8.67,4.61A1,1,0,0,0,31.13,51.29Z"/><path class="cls-12" d="M52,12.65a11,11,0,0,0-4.6-4.38,7.56,7.56,0,0,0-5-.76,5.35,5.35,0,0,1,2.85,1.9c1.26,1.55,2.16,2.88,2.16,2.88L46.65,9.6A23.43,23.43,0,0,1,52,12.65Z"/><path class="cls-13" d="M35.51,34.3c1,4.47,7.42,9.4,9.31,10.64a1.3,1.3,0,0,0,.47.15c2.07.34,8.39-1.62,9.16-3.46.84-2,1.34-6.48,1.75-9,.24-1.47,1.22-4.08,1.9-6.45a10.7,10.7,0,0,0,.62-4.13C58.29,19.77,45,10.94,40.09,13.74S33.71,26.46,35.51,34.3Z"/><path class="cls-14" d="M50.65,33.54s2.42-3.08,4.15-2.82c1.52.22.7,3.61.7,3.61a3.09,3.09,0,0,1-2,.43A6.63,6.63,0,0,1,50.65,33.54Z"/><path class="cls-14" d="M47.48,31.66s-2-4.81-3.92-5.14a3.4,3.4,0,0,0-3,.91A4.19,4.19,0,0,0,42,30.15,11.39,11.39,0,0,0,47.48,31.66Z"/><path class="cls-15" d="M42.4,28c-.3,1.3.11,2.52.93,2.71s1.72-.72,2-2-.11-2.52-.93-2.71S42.71,26.66,42.4,28Z"/><path class="cls-6" d="M43,28.1c-.19.81.07,1.57.58,1.69s1.07-.45,1.26-1.26-.07-1.57-.58-1.69S43.15,27.28,43,28.1Z"/><path class="cls-16" d="M52.63,31.8c-.43,1.27-.32,2.45.24,2.64s1.37-.68,1.8-1.95S55,30,54.43,29.84,53.06,30.53,52.63,31.8Z"/><path class="cls-6" d="M53,31.93c-.27.79-.2,1.53.15,1.65s.86-.43,1.13-1.22.2-1.53-.16-1.65S53.28,31.13,53,31.93Z"/><path class="cls-4" d="M47.48,31.66s.26-8.31-2.17-8.46S40.54,27,40.54,27s2.34-.88,3.74-.07S47.48,31.66,47.48,31.66Z"/><path class="cls-4" d="M50.87,33.07s2.88-5.18,4.47-4.68.62,5.29.62,5.29.06-2.74-1.18-2.8S50.87,33.07,50.87,33.07Z"/><path class="cls-6" d="M47.48,31.66S46.24,27,44.19,26.11c-1.67-.72-3.39.51-4.41.1s-1.05-.87-1.05-.87.16,1.8.91,2.11,3-.91,4.27-.31C45.79,28,47.48,31.66,47.48,31.66Z"/><path class="cls-6" d="M50.76,33.21s1.93-2.58,4-2.74S56,32.9,56.28,33.52s1.86.37,1.86.37-2,1.31-2.68.63.29-2.93-.79-3.22S50.76,33.21,50.76,33.21Z"/><path class="cls-6" d="M45.32,31.4A10.24,10.24,0,0,1,42,29.67a7,7,0,0,1-1.46-1.91,7.7,7.7,0,0,1-1.08.21,3.88,3.88,0,0,0-1.1.34l1.11.07a1.78,1.78,0,0,1,.62.12,6.52,6.52,0,0,0,1.72,1.87A8.78,8.78,0,0,0,45.32,31.4Z"/><path class="cls-6" d="M55.17,34.23a2.39,2.39,0,0,1,.44.77,1.31,1.31,0,0,1,0,.68,2.82,2.82,0,0,0-.27-.62c-.12-.17-.17-.17-.17-.17a6.46,6.46,0,0,1-2,0,3.09,3.09,0,0,1-1.57-.77,5.65,5.65,0,0,0,2,.49A2.45,2.45,0,0,0,55.17,34.23Z"/><path class="cls-14" d="M52.65,32.68a.54.54,0,1,0,.54-.54A.54.54,0,0,0,52.65,32.68Z"/><path class="cls-14" d="M52.09,33.1a.23.23,0,0,0,.46,0,.23.23,0,1,0-.46,0Z"/><circle class="cls-14" cx="43.41" cy="28.36" r="0.6"/><path class="cls-14" d="M42.12,28.5a.24.24,0,1,0,.24-.23A.23.23,0,0,0,42.12,28.5Z"/><path class="cls-4" d="M49.62,37.11A13.74,13.74,0,0,1,48,37c-1.2-.14-2.57-1.8-2.57-1.8s-.24.6,0,.89.85.24.85.24a2.74,2.74,0,0,0,1.5,1.37A2,2,0,0,0,49.62,37.11Z"/><path class="cls-6" d="M43.76,35.56a2.05,2.05,0,0,0-1.36-.25A2.6,2.6,0,0,0,41,36.1a11,11,0,0,1,1.68-.48A5.23,5.23,0,0,1,43.76,35.56Z"/><path class="cls-6" d="M50.67,38.92a2.54,2.54,0,0,1,.37.88A1.91,1.91,0,0,1,50.67,41a6.57,6.57,0,0,0,.08-1.17C50.71,39.47,50.67,38.92,50.67,38.92Z"/><path class="cls-17" d="M50.17,40a27.51,27.51,0,0,1-3.27-1.06,18.72,18.72,0,0,1-4-2.82s2.28,3.07,3.52,3.66A8.89,8.89,0,0,0,50.17,40Z"/><path class="cls-18" d="M50.45,40.07s-2.05,2.29-4,2.13c-2.31-.18-3.54-6.1-3.54-6.1s2.49,3.68,4.08,4A11.3,11.3,0,0,0,50.45,40.07Z"/><path class="cls-6" d="M50.84,39.76a6.79,6.79,0,0,1-3.74.09c-2-.58-4.44-4.29-4.44-4.29l-.21.08s2,4,4.2,4.61a6.61,6.61,0,0,0,4.19-.34Z"/><path class="cls-6" d="M49.65,22.51s-2.3-2.42-4.33-2.3-4.4,2.3-4.4,2.3,2.7-1.64,4.37-1.3S47,23.7,49.65,22.51Z"/><path class="cls-6" d="M54,24.67a5.93,5.93,0,0,1,3,.46c1,.67-.37,4.45-.37,4.45s.4-2.36-.22-3.14S54.18,26.38,54,24.67Z"/><path class="cls-19" d="M50.84,30.7a10.67,10.67,0,0,0-.92,3,9.69,9.69,0,0,0,0,2.78,9.69,9.69,0,0,1-.66-2.88C49.24,32.28,50.84,30.7,50.84,30.7Z"/><path class="cls-4" d="M35.51,34.3c1,4.47,7.42,9.4,9.31,10.64a1.3,1.3,0,0,0,.47.15c-.61-.46-6.86-5.26-8.16-12.22-1.37-7.31,2.22-13.82,7.44-14.32s11.15,2,12.85,5.4a10.77,10.77,0,0,1,.68,2.26,10.7,10.7,0,0,0,.62-4.13C58.29,19.77,45,10.94,40.09,13.74S33.71,26.46,35.51,34.3Z"/><path class="cls-6" d="M53.56,17.93s-6.72-2.67-7.91-2.07a8.84,8.84,0,0,0-2.45,2.58s.74-5.66,1.36-5.6S53.56,17.93,53.56,17.93Z"/><path class="cls-6" d="M53.56,17.93s5.38.88,6.16,1.88.15,14.27.15,14.27S59.39,25,57.65,21.74,53.56,17.93,53.56,17.93Z"/><path class="cls-20" d="M53.56,17.93s6.72.85,7.71,1.78.25,12.32-.68,18.73a99.24,99.24,0,0,1-2.94,12.89A141.8,141.8,0,0,0,59.53,37.2c.25-5.23-.37-17.05-1.06-17.61S53.56,17.93,53.56,17.93Z"/><path class="cls-6" d="M37.77,22.44A40.39,40.39,0,0,0,36,28.27c-.25,1.8-.35,3.39-.35,3.39l-.75-1.48a32.51,32.51,0,0,1-.25-3.93C34.69,24.86,37.77,22.44,37.77,22.44Z"/><path class="cls-21" d="M53.56,17.93l7.21,1.49s-1.79-7.81-7.12-11c-8.32-5-17.54.75-17.54.75s-6.72,6.34-8,12.4S23.83,72.4,22.42,75a4.16,4.16,0,0,1-4.33,2s6.32,3.65,7.9,3.82,4.15-42.12,5.31-47.45S33.37,27,36.36,24s6.91-10,9-10.08S53.56,17.93,53.56,17.93Z"/><path class="cls-4" d="M29.5,27.91c.15,2.23,1.73,6.25,3.12,6.72a3,3,0,0,0,2.88-.32,0,0,0,0,1,0,0l-.63-4.12s-3.61-4.22-5-3.72C29.56,26.59,29.44,27.14,29.5,27.91Z"/><path class="cls-22" d="M29.5,27.91c.15,2.23,1.73,6.25,3.12,6.72a3,3,0,0,0,2.88-.32,0,0,0,0,1,0,0l-.41-2.16a29.06,29.06,0,0,0-3-2.8A8.88,8.88,0,0,0,29.5,27.91Z"/><path class="cls-6" d="M40.54,18.79a6.84,6.84,0,0,1-5.08-3.15c-1.94-3,.65-6.5.65-6.5S33,12.46,34.74,16.39s4.33,3.82,4.33,3.82Z"/><path class="cls-6" d="M38.73,21.22s-6.24.92-7.39-2c-1-2.42,4.12-9.48,4.12-9.48s-5.53,5.33-4.94,10.06,7.57,2.76,7.57,2.76Z"/><path class="cls-23" d="M53.56,17.93s-7.22-5.43-8.9-5.5-6.41,7.36-8.34,16.07,0,21.77,0,21.77-.81-13.34,2-21.2,6.85-14.67,8.18-14.56S53.56,17.93,53.56,17.93Z"/><path class="cls-12" d="M58.14,17.29s-2.24-6.95-6.22-8.9A14.15,14.15,0,0,0,44.51,6.9a21.17,21.17,0,0,1,7.16,2.88C54.86,12,58.14,17.29,58.14,17.29Z"/><path class="cls-12" d="M53.19,17.29s-6.6-5.44-8.91-4.77-4.77,8.65-4.77,8.65L43.76,15l-1.93,4.85s2.37-5.23,4-5.64S53.19,17.29,53.19,17.29Z"/><path class="cls-10" d="M33.15,135.37a25,25,0,0,0,.36,3c.27,1.2.61,2.77,1.08,4.42.85,3,2.11,6.36,4,8a58.27,58.27,0,0,1-2.38-8c-.83-4-1.2-24.09.67-38.33s8.69-29.44,8.69-29.44a1.83,1.83,0,0,1-1.22-.36,17.85,17.85,0,0,1-4.91-6.4A37.16,37.16,0,0,1,36.2,57.38h0a8.08,8.08,0,0,0-1.53.77,24.68,24.68,0,0,0,.88,7.47,77,77,0,0,0,3.69,9.54S34.75,88.89,33.51,97C32.43,104,32.47,126.51,33.15,135.37Z"/><path class="cls-10" d="M53.82,67.2s-3.29.54-8.84.83-7.67-.9-7.67-.9l1.92,8,10-.09S53.63,67.91,53.82,67.2Z"/><path class="cls-24" d="M34.77,115.81A71.25,71.25,0,0,1,34.65,128c-.6,8.4-3.14,18.44-2.35,22.54s2.23,7.32-2.88,6.14-5.54-9.92-5.75-14.72-4.75-14.51-6.19-17.38,0-13.87,0-13.87l.34,0s-1.7,10.21.17,14.06,5.83,12.91,6.13,16,.12,13.16,3.68,14.52,5.83.58,4.53-2.73-1-6.62-.49-11S34.17,130,34.4,126.1s-.09-9.7-.09-9.7Z"/><path class="cls-25" d="M14.37,113.5c-1.16,2-1.39,4-.53,4.52s2.49-.72,3.65-2.72,1.38-4,.52-4.51S15.52,111.5,14.37,113.5Z"/><polygon class="cls-26" points="34.41 116.84 28.9 126.72 13.84 118.02 17.82 110.7 34.41 116.84"/><ellipse class="cls-27" cx="31.53" cy="121.72" rx="5.69" ry="1.8" transform="translate(-89.65 88.16) rotate(-60)"/><path class="cls-24" d="M33,116.3a4.84,4.84,0,0,0-3,.92,6,6,0,0,0-2.27,2.09l-12.31-5.59a5.37,5.37,0,0,1,1.89-2.25c1-.55,1.3-.51,1.3-.51l.24.09a3.22,3.22,0,0,0-1.81.73,6.21,6.21,0,0,0-1.33,1.84l11.93,5.09A12.33,12.33,0,0,1,29.91,117a5.77,5.77,0,0,1,2.85-.77Z"/><path class="cls-28" d="M21.21,119c.24.06.75-1.77,1-2.47a12.46,12.46,0,0,1,1.41-2.25,22.16,22.16,0,0,0-1.19,3.22c0,.5.5,3.13.9,3.13s0-2.48,0-2.91a13.86,13.86,0,0,1,1.28-2.88,13.36,13.36,0,0,0-1,3c0,.85-.07,3.48.43,3.61s.22-2.35.56-3.26c.24-.62.56-1.55.75-2a12.6,12.6,0,0,0-.48,1.85c-.09.72-.25,3.46.17,3.46s.58-3,1.24-4.44a18.75,18.75,0,0,1,2.05-3.09s1.71.19,1.71-.87-2.31-4.6-1.75-6.48L26.08,96.13c0,4.8.17,9.65.21,10.39.06,1.21-4.7,8.84-4.87,9.47S21,118.9,21.21,119Z"/><polygon class="cls-24" points="34.37 116.79 34.77 115.81 34.17 115.48 33.21 116.4 34.37 116.79"/><polygon class="cls-24" points="18.76 111.05 18.92 110.38 18.37 110.13 17.82 110.7 18.76 111.05"/></svg>