<svg xmlns="http://www.w3.org/2000/svg" xmlns:xlink="http://www.w3.org/1999/xlink" viewBox="0 0 98.48 225.45"><defs><style>.cls-1{fill:none;}.cls-2{isolation:isolate;}.cls-3{fill:#468b33;}.cls-4{fill:#7a321a;}.cls-10,.cls-11,.cls-12,.cls-13,.cls-14,.cls-15,.cls-16,.cls-17,.cls-18,.cls-19,.cls-20,.cls-21,.cls-22,.cls-23,.cls-24,.cls-25,.cls-26,.cls-27,.cls-28,.cls-29,.cls-30,.cls-31,.cls-32,.cls-33,.cls-34,.cls-35,.cls-36,.cls-37,.cls-38,.cls-39,.cls-4,.cls-40,.cls-41,.cls-42,.cls-43,.cls-44,.cls-45,.cls-46,.cls-47,.cls-48,.cls-49,.cls-5,.cls-50,.cls-51,.cls-52,.cls-6,.cls-7,.cls-8,.cls-9{fill-rule:evenodd;}.cls-5{fill:url(#linear-gradient);}.cls-6{fill:#213d4a;}.cls-7{fill:#1a3440;}.cls-8{fill:#132c38;}.cls-9{fill:#f2e5cb;}.cls-10{fill:url(#linear-gradient-2);}.cls-11{fill:#75a4ba;}.cls-12{fill:#5e9ab5;}.cls-13{fill:#f5956e;}.cls-14{fill:#ffbf87;}.cls-15{fill:#f79863;}.cls-16{fill:url(#linear-gradient-3);}.cls-17{fill:#fca66d;}.cls-18{fill:#ff9970;}.cls-19{fill:url(#åçûìßííûé_ãðàäèåíò_3);}.cls-20{fill:url(#åçûìßííûé_ãðàäèåíò_3-2);}.cls-21{fill:url(#åçûìßííûé_ãðàäèåíò_3-3);}.cls-22{fill:#fff2f2;}.cls-23{fill:#77477d;}.cls-24{fill:#6e4b3e;}.cls-25{fill:#fc9c77;}.cls-26{fill:#4a2d57;}.cls-27{fill:#846791;}.cls-28{fill:url(#linear-gradient-4);}.cls-29{fill:#ffcbad;}.cls-30{fill:#590800;}.cls-31{fill:#e26850;}.cls-32{fill:#9977a8;}.cls-33{fill:#ff8b6b;}.cls-34{fill:#f27754;}.cls-35{fill:#f58465;}.cls-36{fill:#f07857;}.cls-37{fill:#e0d0b1;}.cls-38{fill:#99c7c7;}.cls-39{fill:#c2787b;}.cls-40{fill:#a5dede;}.cls-41{fill:#57869c;}.cls-42{fill:#274654;}.cls-43{fill:#3e6d82;}.cls-44{fill:#6c4080;}.cls-45{fill:#9f7bb0;}.cls-46{fill:#6f9bb0;}.cls-47{fill:#b1b8c9;}.cls-48{fill:#8591ab;}.cls-49{fill:#fab376;}.cls-50{fill:#8c5b6d;}.cls-51{fill:#de2424;}.cls-52{fill:#f0d1b7;}.cls-53{clip-path:url(#clip-path);}.cls-54{fill:#a1132d;opacity:0.29;mix-blend-mode:multiply;}</style><linearGradient id="linear-gradient" x1="-48.7" y1="245.61" x2="-48.7" y2="146.96" gradientTransform="translate(116.63 -41.17) rotate(2.58)" gradientUnits="userSpaceOnUse"><stop offset="0" stop-color="#213d4a"/><stop offset="0.38" stop-color="#1d3a47"/><stop offset="0.76" stop-color="#11313e"/><stop offset="1" stop-color="#052835"/></linearGradient><linearGradient id="linear-gradient-2" x1="-59.01" y1="106.97" x2="-59.01" y2="155.76" gradientTransform="translate(116.63 -41.17) rotate(2.58)" gradientUnits="userSpaceOnUse"><stop offset="0.53" stop-color="#7eaabf"/><stop offset="0.72" stop-color="#70a0b5"/><stop offset="1" stop-color="#538ba0"/></linearGradient><linearGradient id="linear-gradient-3" x1="-60.11" y1="88.97" x2="-60.11" y2="101.46" gradientTransform="translate(116.63 -41.17) rotate(2.58)" gradientUnits="userSpaceOnUse"><stop offset="0" stop-color="#f0ba8b"/><stop offset="1" stop-color="#d39f76"/></linearGradient><linearGradient id="åçûìßííûé_ãðàäèåíò_3" x1="32.99" y1="28.84" x2="65.62" y2="28.84" gradientUnits="userSpaceOnUse"><stop offset="0" stop-color="#a43113"/><stop offset="1" stop-color="#6f160d"/></linearGradient><linearGradient id="åçûìßííûé_ãðàäèåíò_3-2" x1="-67.97" y1="77.43" x2="-58.95" y2="77.43" gradientTransform="translate(116.63 -41.17) rotate(2.58)" xlink:href="#åçûìßííûé_ãðàäèåíò_3"/><linearGradient id="åçûìßííûé_ãðàäèåíò_3-3" x1="-56.61" y1="76.94" x2="-50.8" y2="76.94" gradientTransform="translate(116.63 -41.17) rotate(2.58)" xlink:href="#åçûìßííûé_ãðàäèåíò_3"/><linearGradient id="linear-gradient-4" x1="-57.27" y1="88.88" x2="-57.27" y2="78.11" gradientTransform="translate(116.63 -41.17) rotate(2.58)" gradientUnits="userSpaceOnUse"><stop offset="0" stop-color="#ff7959"/><stop offset="1" stop-color="#ff9970"/></linearGradient><clipPath id="clip-path"><rect class="cls-1" x="571.1" y="-1282.2" width="588.51" height="548.5"/></clipPath></defs><title>Prancheta 167</title><g class="cls-2"><g id="Camada_1" data-name="Camada 1"><path class="cls-3" d="M7,211c0,4.9,20.49,8.86,45.76,8.86s45.77-4,45.77-8.86S78,202.16,52.71,202.16,7,206.13,7,211Z"/><g id="Character_2" data-name="Character 2"><path class="cls-4" d="M57.15,200.24c1.45-.94,2.47-2.16,3.74-1.66-.31,3.49.88,5.55,1.69,6,.28.17.93-.08,1.26.06s.26.63.59.73c2.86.89,9.9-.46,9.71,3.21-2,1-11-.28-14.54-1.17,0,0-.12.41-.23,1l-3-.29S57,201.94,57.15,200.24Z"/><path class="cls-5" d="M57.7,152.63c-7.41-27.71-5.48-44.81,7.9-49-1,32.82-.39,48.84-.39,48.84-4.83,21.87-3.3,37.6-1.23,48.17-4,.51-8.93,1.26-8.93,1.26,1.28-10.83,2.72-12.69.69-22.19-2.35-11-1.65-20.62,1.47-25.32C55.42,154.29,56.37,153.12,57.7,152.63Z"/><path class="cls-6" d="M60.36,108.08a89.13,89.13,0,0,1-1.59,12.61c-.59,3-4,.71-5,4.74-1.91,7.78-3.65,22.76-4.5,28.34,0,0-3.52,4.79-9.22,17-3.23,6.88-6.17,17.46-12,27.54a46.25,46.25,0,0,1-5.29-6.75c5.94-.35,7-9.18,8.66-17.64,1.33-6.81,2.48-20.71,9-19.56-1.19-2-.43-2.74,2.1-2.45-2.24-24.4-3.94-42.19,1.64-44.59C51.05,104.33,55.93,120.72,60.36,108.08Z"/><path class="cls-7" d="M56,113.86a.14.14,0,0,1,.14-.16.15.15,0,0,1,.16.15,20.71,20.71,0,0,1-.34,4.8,12.11,12.11,0,0,1-1.4,3.78.16.16,0,0,1-.27-.16,11.49,11.49,0,0,0,1.37-3.68A20.6,20.6,0,0,0,56,113.86Z"/><path class="cls-8" d="M45,111.15l4.85,1.7c-1.11,2.58-3.36,3.7-6.76,3.38A10,10,0,0,1,45,111.15Z"/><path class="cls-9" d="M58.68,79.4C54.06,74.1,60,73,60.39,65.54,69,68.08,70.56,84.09,74.72,94.69c4.4,11.22,6.79,29.06,9.87,34-.07.45-.54.88-1.58.85-.31,0-.93,0-1.12-.37-4.8-11-12.19-19.27-13-29.56C68.21,91.11,58,82.44,58.68,79.4Z"/><path class="cls-10" d="M36,67.34c8.44-5.65,15.5-5.52,24.38-1.88,0,0,7.3,9.26,6.13,15.33-1.2,6.27-1,12,.25,23,.14,1.21,1.39,1.39.44,3.84-5.37,8.83-26.55,2.3-25.69-2.18.12-.6,1.3-.61,1.38-1.18A27.05,27.05,0,0,0,43,94.6c-.05-.32-1.41-1.1-1.51-1.68s1.07-.87,1.07-.88c-.17-.82-4.25-9.11-4.36-9.86s3.8,2,5,.34C45.48,79.37,44.68,70.91,36,67.34Z"/><path class="cls-11" d="M36,67.34c8.44-5.65,15.5-5.52,24.38-1.88a42.66,42.66,0,0,1,3,4.5q-7.34-1-22.55.54A14.47,14.47,0,0,0,36,67.34Z"/><path class="cls-12" d="M39.29,84.7C33.38,72,33.31,65.6,38.13,66c10.9,4.58,11.45,24.64,3.25,23.2Q39.22,88.21,39.29,84.7Z"/><path class="cls-12" d="M44.4,63.46c4.08-2.08,11.06-1.5,13,3.23.67,1.66,3.38,8,1,9-2,.86-7.22-1.89-15-8C41.69,66.15,42,64.75,44.4,63.46Z"/><path class="cls-13" d="M53.08,43.73a8.71,8.71,0,0,1,.77-4.63c5.51-4.34,8-1.79,6.67.9C58,44.7,55.24,47.11,53.08,43.73Z"/><path class="cls-14" d="M55.38,55.47l-10-4.65a22.76,22.76,0,0,1-.58,15.66Q59.5,78.15,56.55,69.8T55.38,55.47Z"/><path class="cls-15" d="M55.38,55.47l-10-4.65a22.76,22.76,0,0,1-.58,15.66l.55.42q7.86-11.19,10-1.49h0A19.76,19.76,0,0,1,55.38,55.47Z"/><path class="cls-14" d="M45.31,21.33,60,27.87c-.75,2.87.75,6,1.53,7.05-.12,2.16-2.11,2.43-2.29,3.22A4.26,4.26,0,0,1,59,41c-.15.38,8.93,7.14,3.81,13-4,4.55-13.66,5.15-20.23-.54-2.11-1.83-2.44-5.72-1.81-7.88-1-5.3-1-4.46-1.72-6.46Q33.74,22.88,45.31,21.33Z"/><path class="cls-16" d="M63.4,46.51c1.17,2.27,1.58,4.94-.61,7.45-4,4.55-13.66,5.15-20.23-.54-2.11-1.83-2.44-5.72-1.81-7.88l0-.25A69.82,69.82,0,0,1,63.4,46.51Z"/><path class="cls-17" d="M55.29,37.86a4.72,4.72,0,0,1,3.84-.21,4.24,4.24,0,0,0-1.91-2.23C56.12,35,55.48,35.84,55.29,37.86Z"/><path class="cls-17" d="M46.21,37.22c2.31-1,4.17-.87,5.59.25Q50,32.73,46.21,37.22Z"/><path class="cls-18" d="M59.25,45.11a1.41,1.41,0,1,0-1.42-1.47A1.46,1.46,0,0,0,59.25,45.11Z"/><path class="cls-19" d="M42.62,41.05A14.37,14.37,0,0,0,40,42.13a10.93,10.93,0,0,0-1.47-3.62c-2.22-3.29-8.89-11-3.39-14.57-5.61-7.15,5.15-8.79,11.65-8.32,13.32.94,22.05,13.51,17.76,12.44a13.17,13.17,0,0,0-4,.1c-6.56,1.3-14.88,3.18-20.18-2.38,3,6.24,3.38,7,2.6,8.21S40.05,37.09,42.62,41.05Z"/><path class="cls-20" d="M45.15,35.22c4-2.53,8.17,3.13,9.2-3.72C50.48,31.2,45.56,30.55,45.15,35.22Z"/><path class="cls-21" d="M57.05,30.57c5.93.61,6,3.19,4.57,5.39-1.57-1.7-2.28-2.08-4.25-2A3.07,3.07,0,0,1,57.05,30.57Z"/><path class="cls-22" d="M54.6,40.57c1,1.93,2,2.18,3.69,1.06.92-1.41,1.11-2.44.9-3.16a1.77,1.77,0,0,0-.93-1.07C57,36.75,55,37.42,54.6,40.57Z"/><path class="cls-22" d="M52.13,40.46c-1.21,1.82-4.5.78-6.12-.5C46,34.75,52,34.71,52.13,40.46Z"/><path class="cls-23" d="M52.08,39.83c-.31,1.54-1.34,2-3.1,1.41a2.72,2.72,0,0,1,1-4.9C51.68,36.23,52.27,37.78,52.08,39.83Z"/><path class="cls-24" d="M45.38,39.8c.13-.72-.08-1.1.18-1.64a4.08,4.08,0,0,1,3.19-2.3,4.65,4.65,0,0,1,3.12.86c.54.39.31.82.77,1.53C49.73,35.38,46.44,36,45.38,39.8Z"/><path class="cls-18" d="M46.26,41.51c1.2.17,2.15.87,2.12,1.56s-1,1.11-2.23.94S44,43.14,44,42.45,45.06,41.34,46.26,41.51Z"/><path class="cls-25" d="M58.36,47.15c-3.8-.43-7.44-.21-9.55-.62C49.35,49.27,61.2,52.17,58.36,47.15Z"/><path class="cls-23" d="M59.49,40c-.28,1.36-1.19,1.77-2.73,1.25Q55,40,56.12,37.7,59.81,36.51,59.49,40Z"/><path class="cls-24" d="M55.2,37.58c.12.37.19.55.19.55,2.16-.77,3.62-.49,4.4.85Q58.89,35.79,55.2,37.58Z"/><path class="cls-26" d="M58.9,36.56c1.41.06,2.49,1.66,2.4,3.57s-1.3,3.41-2.71,3.35-2.49-1.67-2.4-3.58S57.49,36.49,58.9,36.56Z"/><path class="cls-27" d="M59.42,37.54a.09.09,0,0,1,.1-.06.08.08,0,0,1,0,.1L58,43a.09.09,0,0,1-.1.06.09.09,0,0,1,0-.1Z"/><path class="cls-27" d="M58.72,38.51a.08.08,0,0,1,.1,0,.08.08,0,0,1,0,.1L58.14,41a.09.09,0,0,1-.1,0,.08.08,0,0,1,0-.1Z"/><path class="cls-28" d="M56.58,34.31c-.45,1.33-2.93,6.55.64,6.69,2.76.11,1.83,4.52-1.26,4-.43-.06-1.06-.16-1.29-.59-2.3.13-3.59-1.15-1.3-2.78A10.3,10.3,0,0,1,56.58,34.31Z"/><path class="cls-29" d="M56.23,42.94c.36,0,.66-.14.67-.36s-.28-.41-.64-.42-.66.14-.67.36S55.87,42.93,56.23,42.94Z"/><path class="cls-29" d="M57.67,42.47a.29.29,0,1,0,0-.57.3.3,0,0,0-.3.27A.29.29,0,0,0,57.67,42.47Z"/><path class="cls-30" d="M36.73,23.92q-2.38-10.05,17.34-5.67l-.06.26q-19.29-4.28-17,5.35Z"/><path class="cls-30" d="M38.36,24.37Q41.08,20.1,47.17,20t15.49,3.81l-.11.25q-9.37-3.92-15.37-3.79t-8.59,4.29Z"/><path class="cls-30" d="M41.75,25a23.69,23.69,0,0,1,9.11-.8,42.87,42.87,0,0,1,10.83,2.58l-.09.26a42.45,42.45,0,0,0-10.76-2.57,23.35,23.35,0,0,0-9,.79Z"/><path class="cls-30" d="M36.57,34.8a.14.14,0,0,1-.27,0C36,32.61,36.71,31.41,38,31q1.61-.67,4.63,1a.13.13,0,0,1,0,.19.13.13,0,0,1-.18,0q-2.93-1.65-4.39-1C37.14,31.7,36.63,32.87,36.57,34.8Z"/><path class="cls-30" d="M37.84,29.44a.13.13,0,0,1-.18-.05.14.14,0,0,1,.05-.19A3.51,3.51,0,0,1,40,28.83,5.92,5.92,0,0,1,42.49,30a.14.14,0,0,1,0,.19.13.13,0,0,1-.19,0A5.67,5.67,0,0,0,40,29.1,3.17,3.17,0,0,0,37.84,29.44Z"/><path class="cls-30" d="M34.59,31.08a.13.13,0,0,1-.12.14.13.13,0,0,1-.15-.12c-.25-3,1-4.72,3.78-5.12a.13.13,0,0,1,.15.12.13.13,0,0,1-.11.15Q34.23,26.81,34.59,31.08Z"/><path class="cls-30" d="M53.25,32.15a.11.11,0,0,1,.14-.06.11.11,0,0,1,.07.14,3.91,3.91,0,0,1-2.82,2.57.11.11,0,1,1,0-.21A3.69,3.69,0,0,0,53.25,32.15Z"/><path class="cls-30" d="M48.66,34.28a.11.11,0,1,1-.14-.17,20.2,20.2,0,0,1,1.73-1.34,13.89,13.89,0,0,1,1.71-1,.1.1,0,0,1,.14,0,.1.1,0,0,1-.05.14,14.84,14.84,0,0,0-1.68,1A18,18,0,0,0,48.66,34.28Z"/><path class="cls-30" d="M46.81,34.28a.11.11,0,0,1-.14.07.13.13,0,0,1-.07-.14,4.09,4.09,0,0,1,.94-1.65A2.59,2.59,0,0,1,49,31.82a.11.11,0,0,1,.13.09.1.1,0,0,1-.09.12,2.45,2.45,0,0,0-1.36.68A3.92,3.92,0,0,0,46.81,34.28Z"/><path class="cls-30" d="M61.6,35.06a.1.1,0,0,1-.13.08.12.12,0,0,1-.08-.13,3.84,3.84,0,0,0,.15-1.6A2.06,2.06,0,0,0,61,32.27a.09.09,0,0,1,0-.15.11.11,0,0,1,.15,0,2.22,2.22,0,0,1,.62,1.26,3.87,3.87,0,0,1-.15,1.68ZM57.48,31a.11.11,0,1,1,.22,0,4.8,4.8,0,0,0,.07,1.45,2.36,2.36,0,0,0,.5,1,.11.11,0,1,1-.16.15,2.54,2.54,0,0,1-.55-1.1A4.9,4.9,0,0,1,57.48,31Zm2.87,3.13a.11.11,0,0,1,0,.16.11.11,0,0,1-.15,0A4,4,0,0,1,59.49,33a4.58,4.58,0,0,1-.22-1.5.11.11,0,0,1,.22,0,4.42,4.42,0,0,0,.2,1.43A3.91,3.91,0,0,0,60.35,34.12Z"/><path class="cls-31" d="M56.5,34.28a.08.08,0,0,1,.11-.05.09.09,0,0,1,0,.12,13.74,13.74,0,0,0-1.24,4.22,2.06,2.06,0,0,0,.77,2.08,2.76,2.76,0,0,0,1,.27,2,2,0,0,1,1.34.53,1.49,1.49,0,0,1,.38.67A2.44,2.44,0,0,1,59,43h0a2.48,2.48,0,0,1-1.12,1.68,3.49,3.49,0,0,1-2.25.26.09.09,0,0,1-.07-.11.08.08,0,0,1,.1-.07,3.26,3.26,0,0,0,2.13-.24,2.28,2.28,0,0,0,1-1.56,2.24,2.24,0,0,0,0-.83,1.28,1.28,0,0,0-.34-.6,2,2,0,0,0-1.23-.48,2.57,2.57,0,0,1-1-.28h0a2.19,2.19,0,0,1-.86-2.24A13.8,13.8,0,0,1,56.5,34.28Z"/><path class="cls-26" d="M52,36.68c1.42.06,2.49,1.66,2.4,3.58s-1.3,3.4-2.71,3.34-2.49-1.66-2.4-3.58S50.54,36.62,52,36.68Z"/><path class="cls-32" d="M49.29,39.78a.25.25,0,0,1,.19.3.25.25,0,0,1-.29.19l-10-2.17a.25.25,0,0,1-.19-.29.24.24,0,0,1,.29-.19Z"/><path class="cls-33" d="M40.92,43.67A8.71,8.71,0,0,0,40.57,39c-5.09-4.82-7.77-2.5-6.72.3C35.9,44.19,38.47,46.84,40.92,43.67Z"/><path class="cls-34" d="M35.81,41.34q.59-3.41,4.4-.41c-.64-2.21-3.68-4-4.81-3.3C34.79,38,35.25,39.39,35.81,41.34Z"/><path class="cls-35" d="M48.61,46.49q9.28,0,11.23.5Q55.85,48.08,48.61,46.49Z"/><path class="cls-36" d="M59.81,46.87A.13.13,0,0,1,60,47a.13.13,0,0,1-.09.15q-5.28,1.2-12.42-.93a.12.12,0,0,1-.08-.15.12.12,0,0,1,.15-.09Q54.6,48.06,59.81,46.87Z"/><path class="cls-36" d="M56,47.65a.13.13,0,0,1,0-.17.12.12,0,0,1,.17,0,1.5,1.5,0,0,1,.52.58,1.52,1.52,0,0,1,.14.77.12.12,0,0,1-.13.12.14.14,0,0,1-.12-.13,1.24,1.24,0,0,0-.11-.65A1.18,1.18,0,0,0,56,47.65Z"/><path class="cls-36" d="M56,51.92a.13.13,0,0,1-.06.17.13.13,0,0,1-.16-.07,1.55,1.55,0,0,1,0-1.48,2.09,2.09,0,0,1,1.41-.83h0a3.31,3.31,0,0,0,.84-.28,1.06,1.06,0,0,0,.59-1.25,2.45,2.45,0,0,0-.29-.75.13.13,0,0,1,.06-.17.12.12,0,0,1,.16.05,3.06,3.06,0,0,1,.32.82,1.39,1.39,0,0,1-.08.89,1.47,1.47,0,0,1-.65.63,3.16,3.16,0,0,1-.9.3,1.94,1.94,0,0,0-1.26.71A1.34,1.34,0,0,0,56,51.92Z"/><path class="cls-27" d="M52.6,37.28a.07.07,0,0,1,.09-.05.07.07,0,0,1,.05.09L51.2,42.73a.07.07,0,0,1-.09.05.08.08,0,0,1-.06-.1Z"/><path class="cls-27" d="M51.83,38.45a.09.09,0,0,1,.1-.05.08.08,0,0,1,0,.1L51.25,41a.08.08,0,0,1-.1.05.07.07,0,0,1,0-.09Z"/><path class="cls-4" d="M25.61,192.66C27.74,196.22,28,196,28,196q-3.49,4.13-.59,7.45c.74,0,1,.36.71,1a25.56,25.56,0,0,1,3.81.68,2.34,2.34,0,0,1,2.31,2.63s-3.23-.21-5.44-.45c-4.16-.38-6.21-3.36-6.16-9a3,3,0,0,1-1.22.71c-.55-1.3-.24-.43-1.4-3.17A31.6,31.6,0,0,0,25.61,192.66Z"/><path class="cls-9" d="M38.42,68.21c6.63,3.2,7.4,16,4.78,18.16-.75.63-1.18-.13-2.54-1.64-3.85-4.3-11.41,8-15.58,12.43-.16.17.46,1.56.13,2s-1.71,0-1.82.43c-1.53,6.26.92,25,3.07,28.1,0,0-2.27,2.36-2.74.59-6.93-14.63-9.48-27.76-6.8-33.2a15.23,15.23,0,0,1,2.27-3.18c2.47-3,4.82-4.7,14.89-21.16C35.44,68.47,35.67,66.88,38.42,68.21Z"/><path class="cls-37" d="M38.47,83.7C39.72,87.07,42,87.8,43.55,86c2.26-3.82-.31-8-2.61-11.49C41.53,77,40.24,81.33,38.47,83.7Z"/><path class="cls-38" d="M63.38,84.32l-2.47,4.06L57,84.73l-2.47,4.06-5.27-4.86,3.31-5.46,4,3.65L59,78.06l4,3.65,2-3.38v.61l-2,3.29-4-3.65-2.47,4.06L52.6,79l-3,4.87,4.79,4.41,2.46-4.06,4,3.65,2.47-4.06,2.42,2.09c.06.22-.06.32,0,.53Z"/><path class="cls-39" d="M65.5,84.59,63.75,83l1.11-1.83a22.61,22.61,0,0,0,.64,3.45Zm-12.6-4.1,3.23,3-2,3.31-3.22-3,2-3.31Zm6.43-.41,3.22,3-2,3.31-3.22-3Z"/><path class="cls-40" d="M65.36,84.7,63.54,83l1.56-2.54c0,.19.07.4.08.58L64,82.94l1.49,1.37c0,.19-.12.21-.09.39ZM53,80.35l3.34,3.08L54.15,87l-3.46-3.19,2.18-3.61.13.12Zm2.92,3.15-3-2.75-1.83,3,3,2.75,1.83-3Zm3.51-3.56L62.76,83l-2.19,3.61-3.46-3.2,2.19-3.6.13.12Zm2.91,3.15-3-2.75-1.83,3,3,2.75Z"/><path class="cls-38" d="M56.05,79.26l4.09,3.92-2.61,4.54-4.22-4,2.6-4.54.14.13Zm3.68,4L56,79.66l-2.26,3.93,3.75,3.6Z"/><path class="cls-38" d="M49.62,79.67l4.1,3.92-2.61,4.54-4.23-4,2.61-4.54.13.13Zm3.69,4-3.76-3.59L47.29,84l3.76,3.59Z"/><path class="cls-38" d="M62.47,78.85l2.78,2.66v.07c0,.49.1,1,.15,1.43s.13.9.21,1.33v.07L64,87.31l-4.23-4,2.61-4.54.13.13ZM65,81.69,62.4,79.25l-2.26,3.93,3.75,3.6,1.4-2.44c-.07-.41-.14-.83-.19-1.27S65,82.17,65,81.69Z"/><path class="cls-41" d="M65.47,108.44c-3.21,3.61-12.42,3.11-22.54-1.74-1.22,3-1.84,4.51-1.84,4.51,6.92,5.45,14.68,6.16,24.25,2C65.44,109.22,65.47,108.44,65.47,108.44Z"/><path class="cls-8" d="M43.58,113.54a.15.15,0,1,1,.3,0,109.56,109.56,0,0,0-1,17.88,139.63,139.63,0,0,0,1.85,19.4h0a3.32,3.32,0,0,1,0,1,1,1,0,0,1-.43.62.18.18,0,0,1-.1,0c-1.46-.14-2.31-.06-2.55.26s.13.84,1,1.65a.15.15,0,0,1,0,.21.15.15,0,0,1-.07.05,10.73,10.73,0,0,0-6.07,5.76q-2.21,4.44-2.73,12h0a67.11,67.11,0,0,1-2.58,12,27.11,27.11,0,0,1-4,8.09.16.16,0,0,1-.22,0,.15.15,0,0,1,0-.21,26.94,26.94,0,0,0,4-8,67.29,67.29,0,0,0,2.57-11.93q.52-7.6,2.76-12.11a11.06,11.06,0,0,1,6-5.82c-.9-.85-1.2-1.48-.89-1.89s1.23-.54,2.78-.39a.71.71,0,0,0,.24-.41,2.91,2.91,0,0,0,0-.93,140.1,140.1,0,0,1-1.86-19.44A110.1,110.1,0,0,1,43.58,113.54Z"/><path class="cls-42" d="M57.9,199.86a.15.15,0,0,1-.19.11.15.15,0,0,1-.11-.18A46.27,46.27,0,0,0,59,189a51.72,51.72,0,0,0-1.11-11.21,47,47,0,0,1-1-12.2,25.31,25.31,0,0,1,2.4-9.68h0l.78-1.26a3.15,3.15,0,0,1-1.15-.46.46.46,0,0,1-.22-.42.72.72,0,0,1,.29-.42,6.7,6.7,0,0,1,2-.79Q58.52,143,57.38,136a60.75,60.75,0,0,1-1-11.31.15.15,0,1,1,.3,0,61,61,0,0,0,1,11.24q1.16,7,3.58,16.65a.16.16,0,0,1-.1.19,6.69,6.69,0,0,0-2,.78c-.11.08-.17.15-.17.2s0,.1.1.15a3.3,3.3,0,0,0,1.22.45l.05,0a.14.14,0,0,1,0,.21l-.87,1.44a25.18,25.18,0,0,0-2.37,9.55,46.39,46.39,0,0,0,1,12.12A52.88,52.88,0,0,1,59.29,189,47.41,47.41,0,0,1,57.9,199.86Z"/><path class="cls-12" d="M62.49,66.5Q68.39,77.89,66,84.12A38.43,38.43,0,0,0,60.4,65.46,1.53,1.53,0,0,1,62.49,66.5Z"/><path class="cls-43" d="M43,111.53a.2.2,0,0,1-.26.1.21.21,0,0,1-.09-.26L44.25,108a.2.2,0,0,1,.25-.09.2.2,0,0,1,.1.26L43,111.53Zm22,1.37a.2.2,0,0,1-.17.21.19.19,0,0,1-.21-.17l-.31-2.59a.19.19,0,0,1,.17-.21.19.19,0,0,1,.21.16l.31,2.6Zm-2.7,1.26a.19.19,0,0,1-.15.22.19.19,0,0,1-.22-.16l-.47-2.73a.19.19,0,0,1,.15-.22.19.19,0,0,1,.22.16l.47,2.73Zm-4.09.53a.19.19,0,0,1-.18.2.2.2,0,0,1-.2-.18l-.2-3.07a.21.21,0,0,1,.18-.21.19.19,0,0,1,.2.18l.2,3.08Zm-3.66-.08a.19.19,0,0,1-.2.19.2.2,0,0,1-.18-.2l.12-3.16a.18.18,0,0,1,.2-.18.19.19,0,0,1,.18.2l-.12,3.15Zm-4.16-.73a.19.19,0,1,1-.37-.08l.69-3.22a.2.2,0,0,1,.23-.15.2.2,0,0,1,.15.23l-.7,3.22Zm-3.83-1.29a.19.19,0,0,1-.25.11.2.2,0,0,1-.1-.25l.9-2.29.31-.81a.19.19,0,0,1,.25-.11.18.18,0,0,1,.11.24s-.11.3-.32.82Z"/><path class="cls-44" d="M52.72,42.69a.18.18,0,1,1-.34-.11l1.07-3.64a.17.17,0,0,1,.22-.12.18.18,0,0,1,.12.23Z"/><path class="cls-44" d="M59.56,42.61a.18.18,0,0,1-.35-.11l1.07-3.64a.18.18,0,0,1,.35.11Z"/><path class="cls-45" d="M49.72,39.22a.15.15,0,0,1-.19.1.15.15,0,0,1-.1-.19,3.85,3.85,0,0,1,1-1.73,2.39,2.39,0,0,1,1.64-.63.15.15,0,0,1,.15.15.14.14,0,0,1-.15.15,2.19,2.19,0,0,0-1.43.55A3.48,3.48,0,0,0,49.72,39.22Z"/><path class="cls-45" d="M56.68,39.08a.15.15,0,0,1-.19.1.15.15,0,0,1-.1-.19,3.8,3.8,0,0,1,1-1.74A2.49,2.49,0,0,1,59,36.62a.16.16,0,0,1,.16.15.15.15,0,0,1-.15.16,2.12,2.12,0,0,0-1.43.55A3.48,3.48,0,0,0,56.68,39.08Z"/><path class="cls-37" d="M68.9,96.68a10.8,10.8,0,0,1,5.25-.92A10.45,10.45,0,0,0,69,98.19,11.49,11.49,0,0,0,68.9,96.68Z"/><path class="cls-37" d="M70.71,95q4.5-2.16,4-.27A7.72,7.72,0,0,0,70.71,95Z"/><path class="cls-37" d="M38.14,69.47c.11,3.46.93,9.66.66,12C40.29,78.14,40.54,72.65,38.14,69.47Z"/><path class="cls-46" d="M43.66,94.54l2.81,1.57C46.16,95.49,45.23,95,43.66,94.54Z"/><path class="cls-46" d="M66.39,103.51a15.82,15.82,0,0,1-6.15,4.9,12.09,12.09,0,0,0,6-3.32Z"/><path class="cls-46" d="M43.18,102.44c2.17-.13,4.21,1.15,6.11,3.82q-3.69-3.54-6.38-2Z"/><path class="cls-46" d="M55.37,90.35a19.78,19.78,0,0,1,6.92-.55A6.53,6.53,0,0,0,55.37,90.35Z"/><path class="cls-47" d="M23.74,130.06,21.56,132l74.73,80.77a1,1,0,0,0,1-.87Z"/><path class="cls-48" d="M85.59,201.22l10.7,11.56a1,1,0,0,0,1-.87L87,200.45A10.38,10.38,0,0,1,85.59,201.22Z"/><path class="cls-49" d="M29.5,136.06c-.08.49-.22.32-.24,1-.7.95.83,2.54.71,1.54a5.11,5.11,0,0,1,.79-2.33c.2-.74-1.05-3.29-2.08-4.23C25,128.74,27.11,133.9,29.5,136.06Z"/><path class="cls-50" d="M20.73,131.5,32.3,143.65c1.4.35,2.08-.26,2-1.82L23.93,129.28A2.59,2.59,0,0,0,20.73,131.5Z"/><path class="cls-51" d="M24.89,123c0-.16-.12-.49-.11-.49,1.66-.26,2,.07,2,.43s-.51.75-1.16,1.29c-1.51,1.25-4,3.28-2.8,6.13a.19.19,0,0,1-.11.25.18.18,0,0,1-.2,0,4.2,4.2,0,0,1-1.43-2.76,7.72,7.72,0,0,1,.81-3.71c.06.16.2.45.23.54a5.74,5.74,0,0,0-.66,3.13,3.85,3.85,0,0,0,.75,1.92c-.55-2.67,1.72-4.55,3.17-5.75.57-.48,1-.84,1-1A3.3,3.3,0,0,0,24.89,123Z"/><path class="cls-14" d="M82.61,129c.63-.37,1.22-.37,1.27-.23A8,8,0,0,0,87,132.32a21.69,21.69,0,0,1,2,4.45s0,.36.14,1.09.35,1.25-.28.49l-.23-.28c0-.14,0,.09,0,.83,0,.46.09,1.24-.48.45a2.44,2.44,0,0,1-.24-.43q-.51-.34-1.23-3.15l-2.23-2.48a16.84,16.84,0,0,1,.83,2.09c1.2,1.14.09,3-.87.49a16.78,16.78,0,0,0-1.31-2.12C82.48,132.52,82.89,130.88,82.61,129Z"/><path class="cls-14" d="M26.51,129.16c-.38-.43-1.5-.11-1.58.42.14.22.65,1.09.75,1.32,1.05,2.53-.89,5.5-.65,6.4.42.23.81-.22,3.28,2,.12-2.7,2.61-4.91-.74-8.89C27.35,130.15,26.79,129.45,26.51,129.16Z"/><path class="cls-49" d="M24.91,137.35c-.3,1,.12,1.43.4,1,.06-.08.07-.48.14-.61a.31.31,0,0,1,.54.21c0,.1-.2.57-.24.84-.29.62.37,1.07.42.93.11-.3.38-.67.55-1.06a3.39,3.39,0,0,0,0,1.15c.06.22.34.54.39.36.15-.47.41-1.11.41-1.12.09.22-.08.93.08,1.22s.52.42.53.11a11,11,0,0,0,.27-1.71c0-.26-.56-.75-.71-.42-.17-.39-.54-.51-.79-.32a.57.57,0,0,0-.9-.35c-.16,0-.39-.27-.46-.34S25.06,136.87,24.91,137.35Z"/><path class="cls-52" d="M23.15,127.92c.53-1,2.56-1.51,3.73-1a9.14,9.14,0,0,0,.87,3.1,5.28,5.28,0,0,1-2.54.67C24.65,129.72,23.7,128.84,23.15,127.92Z"/><path class="cls-52" d="M81.93,129.23c-.65-1.29-1.07-2.11-1.64-3.22a5.16,5.16,0,0,1,3.1-.84,11,11,0,0,0,1.2,3.51A2.41,2.41,0,0,0,81.93,129.23Z"/><path class="cls-37" d="M22.3,91.92c-.49,2.07.72,4.23,2.36,5.57C22,95.75,20.75,93.59,22.3,91.92Z"/><path class="cls-37" d="M23.85,99c-1,.13-1,.74-1,.74-.28-.72-1.41-1.55-3.4-2.47A6,6,0,0,1,23.85,99Z"/></g><g class="cls-53"><polygon class="cls-54" points="570.22 -988.08 -269.4 -190.34 2248.22 40.37 1143.62 -988.08 1173.6 -988.08 2612.43 125.85 -868.61 125.85 570.22 -988.08"/></g></g></g></svg>