<svg xmlns="http://www.w3.org/2000/svg" xmlns:xlink="http://www.w3.org/1999/xlink" viewBox="0 0 283.56 356.65"><defs><style>.cls-1{fill:none;}.cls-2{isolation:isolate;}.cls-3{clip-path:url(#clip-path);}.cls-4{clip-path:url(#clip-path-2);}.cls-5{fill:url(#Áåçûìÿííûé_ãðàäèåíò_267);}.cls-6{fill:url(#Áåçûìÿííûé_ãðàäèåíò_280);}.cls-24,.cls-33,.cls-53,.cls-7{fill:#fff;}.cls-8{fill:#a21800;opacity:0.12;}.cls-10,.cls-16,.cls-34,.cls-36,.cls-8{mix-blend-mode:multiply;}.cls-9{fill:url(#Áåçûìÿííûé_ãðàäèåíò_89);}.cls-10{opacity:0.2;}.cls-11,.cls-16{fill:#a21822;}.cls-12,.cls-53,.cls-64,.cls-83,.cls-88,.cls-91{opacity:0.5;}.cls-12,.cls-24,.cls-33{mix-blend-mode:soft-light;}.cls-12{fill:url(#Áåçûìÿííûé_ãðàäèåíò_280-2);}.cls-13{fill:url(#Áåçûìÿííûé_ãðàäèåíò_280-3);}.cls-14{fill:url(#Áåçûìÿííûé_ãðàäèåíò_280-4);}.cls-15{fill:#ffffe3;}.cls-16{opacity:0.13;}.cls-17{fill:url(#Áåçûìÿííûé_ãðàäèåíò_267-2);}.cls-18{fill:url(#Áåçûìÿííûé_ãðàäèåíò_280-5);}.cls-19{fill:url(#Áåçûìÿííûé_ãðàäèåíò_267-3);}.cls-20{fill:url(#Áåçûìÿííûé_ãðàäèåíò_280-6);}.cls-21{opacity:0.8;fill:url(#Áåçûìÿííûé_ãðàäèåíò_17);}.cls-22{fill:url(#Áåçûìÿííûé_ãðàäèåíò_280-7);}.cls-23{fill:#f0f;opacity:0.11;}.cls-25{opacity:0.41;fill:url(#Áåçûìÿííûé_ãðàäèåíò_113);}.cls-25,.cls-35{mix-blend-mode:color-dodge;}.cls-26{clip-path:url(#clip-path-3);}.cls-27{clip-path:url(#clip-path-4);}.cls-28{fill:url(#Áåçûìÿííûé_ãðàäèåíò_46);}.cls-29{opacity:0.58;}.cls-30{fill:#902038;}.cls-31{fill:#ffffae;}.cls-32{fill:#9a344a;}.cls-33{opacity:0.55;}.cls-34{fill:#a1132d;opacity:0.29;}.cls-35{opacity:0.52;fill:url(#Áåçûìÿííûé_ãðàäèåíò_31);}.cls-36{fill:#ab132d;opacity:0.19;}.cls-37{fill:#006070;}.cls-38{fill:#003370;}.cls-39{fill:#000d36;}.cls-40{fill:url(#åçûìßííûé_ãðàäèåíò_22);}.cls-41{fill:url(#åçûìßííûé_ãðàäèåíò_22-2);}.cls-42{fill:url(#åçûìßííûé_ãðàäèåíò_30);}.cls-43{fill:#460030;}.cls-44{fill:url(#åçûìßííûé_ãðàäèåíò_8);}.cls-45{fill:#910000;}.cls-46,.cls-64{fill:#930000;}.cls-47{fill:#e1784e;}.cls-48{fill:#c4552d;}.cls-49{fill:url(#åçûìßííûé_ãðàäèåíò_30-2);}.cls-50{fill:url(#åçûìßííûé_ãðàäèåíò_3);}.cls-51,.cls-55{fill:#590800;}.cls-52{fill:url(#åçûìßííûé_ãðàäèåíò_3-2);}.cls-54{fill:url(#åçûìßííûé_ãðàäèåíò_3-3);}.cls-55{opacity:0.59;}.cls-56{fill:#c13c32;opacity:0.3;}.cls-57{fill:#6df2bf;}.cls-58{fill:#57d19c;}.cls-59{fill:url(#åçûìßííûé_ãðàäèåíò_99);}.cls-60{fill:url(#åçûìßííûé_ãðàäèåíò_99-2);}.cls-61{fill:#a00000;}.cls-62{fill:url(#åçûìßííûé_ãðàäèåíò_99-3);}.cls-63{fill:#e71400;}.cls-65{fill:url(#åçûìßííûé_ãðàäèåíò_30-3);}.cls-66{fill:#550547;}.cls-67{fill:#ffbf10;}.cls-68{fill:#ffa110;}.cls-69{fill:url(#åçûìßííûé_ãðàäèåíò_22-3);}.cls-70{fill:url(#åçûìßííûé_ãðàäèåíò_22-4);}.cls-71{fill:#003363;}.cls-72{fill:url(#åçûìßííûé_ãðàäèåíò_30-4);}.cls-73,.cls-83{fill:#94001f;}.cls-74{fill:#b8aaff;}.cls-75{fill:url(#åçûìßííûé_ãðàäèåíò_30-5);}.cls-76{fill:url(#åçûìßííûé_ãðàäèåíò_3-4);}.cls-77{fill:url(#åçûìßííûé_ãðàäèåíò_3-5);}.cls-78{fill:url(#åçûìßííûé_ãðàäèåíò_99-4);}.cls-79{fill:url(#åçûìßííûé_ãðàäèåíò_99-5);}.cls-80{fill:#dbccff;}.cls-81{fill:url(#åçûìßííûé_ãðàäèåíò_52);}.cls-82{fill:url(#åçûìßííûé_ãðàäèåíò_11);}.cls-84{fill:#00427f;}.cls-85{fill:url(#åçûìßííûé_ãðàäèåíò_99-6);}.cls-86{fill:url(#åçûìßííûé_ãðàäèåíò_99-7);}.cls-87,.cls-88{fill:#0077a6;}.cls-89{fill:url(#åçûìßííûé_ãðàäèåíò_99-8);}.cls-90{fill:url(#åçûìßííûé_ãðàäèåíò_30-6);}.cls-91{fill:#00274a;}.cls-92{fill:url(#Gradiente_sem_nome_131);}.cls-93{clip-path:url(#clip-path-5);}.cls-94{fill:url(#Áåçûìÿííûé_ãðàäèåíò_280-8);}</style><clipPath id="clip-path"><rect class="cls-1" x="-611.44" width="233.74" height="356.36"/></clipPath><clipPath id="clip-path-2"><rect class="cls-1" x="-703" y="-44.67" width="721.62" height="446.68"/></clipPath><linearGradient id="Áåçûìÿííûé_ãðàäèåíò_267" x1="-134.59" y1="282.43" x2="-71.96" y2="-45.24" gradientUnits="userSpaceOnUse"><stop offset="0" stop-color="#fff3bd"/><stop offset="1" stop-color="#fca"/></linearGradient><linearGradient id="Áåçûìÿííûé_ãðàäèåíò_280" x1="-612.71" y1="-3.11" x2="18.62" y2="-3.11" gradientUnits="userSpaceOnUse"><stop offset="0" stop-color="#ffffd3"/><stop offset="1" stop-color="#ffdcc2"/></linearGradient><linearGradient id="Áåçûìÿííûé_ãðàäèåíò_89" x1="-342.19" y1="361.24" x2="-342.19" y2="223.63" gradientUnits="userSpaceOnUse"><stop offset="0" stop-color="#ffab98"/><stop offset="1" stop-color="#ffecac"/></linearGradient><linearGradient id="Áåçûìÿííûé_ãðàäèåíò_280-2" x1="-135.92" y1="327.52" x2="9.47" y2="327.52" xlink:href="#Áåçûìÿííûé_ãðàäèåíò_280"/><linearGradient id="Áåçûìÿííûé_ãðàäèåíò_280-3" x1="-86.49" y1="210.9" x2="-86.49" y2="18.17" xlink:href="#Áåçûìÿííûé_ãðàäèåíò_280"/><linearGradient id="Áåçûìÿííûé_ãðàäèåíò_280-4" x1="-195.47" y1="201.75" x2="18.62" y2="201.75" xlink:href="#Áåçûìÿííûé_ãðàäèåíò_280"/><linearGradient id="Áåçûìÿííûé_ãðàäèåíò_267-2" x1="-87.78" y1="198.47" x2="-54.16" y2="22.6" xlink:href="#Áåçûìÿííûé_ãðàäèåíò_267"/><linearGradient id="Áåçûìÿííûé_ãðàäèåíò_280-5" x1="-165.4" y1="116.47" x2="18.62" y2="116.47" xlink:href="#Áåçûìÿííûé_ãðàäèåíò_280"/><linearGradient id="Áåçûìÿííûé_ãðàäèåíò_267-3" x1="-79.54" y1="147.76" x2="-70.31" y2="99.47" xlink:href="#Áåçûìÿííûé_ãðàäèåíò_267"/><linearGradient id="Áåçûìÿííûé_ãðàäèåíò_280-6" x1="-205.76" y1="25.18" x2="18.62" y2="25.18" xlink:href="#Áåçûìÿííûé_ãðàäèåíò_280"/><linearGradient id="Áåçûìÿííûé_ãðàäèåíò_17" x1="-92.39" y1="164" x2="-92.39" y2="4.26" gradientUnits="userSpaceOnUse"><stop offset="0" stop-color="#ffa048"/><stop offset="1" stop-color="#fffe81"/></linearGradient><linearGradient id="Áåçûìÿííûé_ãðàäèåíò_280-7" x1="-199.82" y1="163.36" x2="18.62" y2="163.36" xlink:href="#Áåçûìÿííûé_ãðàäèåíò_280"/><linearGradient id="Áåçûìÿííûé_ãðàäèåíò_113" x1="-86.87" y1="157.98" x2="-86.87" y2="25.47" gradientUnits="userSpaceOnUse"><stop offset="0" stop-color="#595639"/><stop offset="1"/></linearGradient><clipPath id="clip-path-3"><rect class="cls-1" x="49.12" width="234.44" height="356.36"/></clipPath><clipPath id="clip-path-4"><rect id="SVGID" class="cls-1" x="-94.32" y="-227.36" width="1000.4" height="605.77" transform="translate(811.76 151.06) rotate(-180)"/></clipPath><linearGradient id="Áåçûìÿííûé_ãðàäèåíò_46" x1="-1743.28" y1="435.76" x2="-1743.28" y2="99.24" gradientTransform="matrix(-1, 0, 0, 1, -1366.91, 0)" gradientUnits="userSpaceOnUse"><stop offset="0" stop-color="#958b9d"/><stop offset="1" stop-color="#e09f9d"/></linearGradient><linearGradient id="Áåçûìÿííûé_ãðàäèåíò_31" x1="-1733.68" y1="273.95" x2="-1733.68" y2="141.17" gradientTransform="matrix(1, 0, 0, -1, 2100.46, 467.26)" gradientUnits="userSpaceOnUse"><stop offset="0"/><stop offset="1" stop-color="#987c6b"/></linearGradient><linearGradient id="åçûìßííûé_ãðàäèåíò_22" x1="12188.55" y1="331.41" x2="12203.5" y2="331.41" gradientTransform="translate(-11958.87)" gradientUnits="userSpaceOnUse"><stop offset="0" stop-color="#ddf8fd"/><stop offset="1" stop-color="#8290c5"/></linearGradient><linearGradient id="åçûìßííûé_ãðàäèåíò_22-2" x1="12140.64" y1="331.3" x2="12168.19" y2="331.3" xlink:href="#åçûìßííûé_ãðàäèåíò_22"/><linearGradient id="åçûìßííûé_ãðàäèåíò_30" x1="12159.19" y1="239.77" x2="12158.18" y2="232.38" gradientTransform="translate(-11958.87)" gradientUnits="userSpaceOnUse"><stop offset="0" stop-color="#fdc38b"/><stop offset="1" stop-color="#fda37d"/></linearGradient><linearGradient id="åçûìßííûé_ãðàäèåíò_8" x1="12184.76" y1="322.44" x2="12184.76" y2="216.84" gradientTransform="translate(-11958.87)" gradientUnits="userSpaceOnUse"><stop offset="0" stop-color="#754a86"/><stop offset="1" stop-color="#3e0033"/></linearGradient><linearGradient id="åçûìßííûé_ãðàäèåíò_30-2" x1="12183.3" y1="145.12" x2="12178.13" y2="107.34" xlink:href="#åçûìßííûé_ãðàäèåíò_30"/><linearGradient id="åçûìßííûé_ãðàäèåíò_3" x1="12723.07" y1="708.75" x2="12726.97" y2="708.75" gradientTransform="translate(-12500.77 -585.17)" gradientUnits="userSpaceOnUse"><stop offset="0" stop-color="#a43113"/><stop offset="1" stop-color="#6f160d"/></linearGradient><linearGradient id="åçûìßííûé_ãðàäèåíò_3-2" x1="12169.17" y1="126.09" x2="12172.7" y2="126.09" gradientTransform="translate(-11958.87)" xlink:href="#åçûìßííûé_ãðàäèåíò_3"/><linearGradient id="åçûìßííûé_ãðàäèåíò_3-3" x1="12158.74" y1="112.82" x2="12197.53" y2="112.82" gradientTransform="translate(-11958.87)" xlink:href="#åçûìßííûé_ãðàäèåíò_3"/><linearGradient id="åçûìßííûé_ãðàäèåíò_99" x1="12157.31" y1="169.77" x2="12171.08" y2="169.77" gradientTransform="translate(-11958.87)" gradientUnits="userSpaceOnUse"><stop offset="0" stop-color="#ca0000"/><stop offset="1" stop-color="#a80009"/></linearGradient><linearGradient id="åçûìßííûé_ãðàäèåíò_99-2" x1="12187.49" y1="178.19" x2="12200.13" y2="178.19" xlink:href="#åçûìßííûé_ãðàäèåíò_99"/><linearGradient id="åçûìßííûé_ãðàäèåíò_99-3" x1="12192.72" y1="184.69" x2="12211.82" y2="184.69" xlink:href="#åçûìßííûé_ãðàäèåíò_99"/><linearGradient id="åçûìßííûé_ãðàäèåíò_30-3" x1="12189.12" y1="228.17" x2="12187.96" y2="219.64" xlink:href="#åçûìßííûé_ãðàäèåíò_30"/><linearGradient id="åçûìßííûé_ãðàäèåíò_22-3" x1="-1561.63" y1="329.34" x2="-1546.62" y2="329.34" gradientTransform="matrix(-1, 0, 0, 1, -1379.16, 0)" xlink:href="#åçûìßííûé_ãðàäèåíò_22"/><linearGradient id="åçûìßííûé_ãðàäèåíò_22-4" x1="-1539.14" y1="330.49" x2="-1517.6" y2="330.49" gradientTransform="matrix(-1, 0, 0, 1, -1379.16, 0)" xlink:href="#åçûìßííûé_ãðàäèåíò_22"/><linearGradient id="åçûìßííûé_ãðàäèåíò_30-4" x1="-1519.44" y1="248.71" x2="-1525.52" y2="204.24" gradientTransform="matrix(-1, 0, 0, 1, -1379.16, 0)" xlink:href="#åçûìßííûé_ãðàäèåíò_30"/><linearGradient id="åçûìßííûé_ãðàäèåíò_30-5" x1="-1539.92" y1="169.45" x2="-1544.76" y2="134.09" gradientTransform="matrix(-1, 0, 0, 1, -1379.16, 0)" xlink:href="#åçûìßííûé_ãðàäèåíò_30"/><linearGradient id="åçûìßííûé_ãðàäèåíò_3-4" x1="-1549.89" y1="152.61" x2="-1545.11" y2="152.61" gradientTransform="matrix(-1, 0, 0, 1, -1379.16, 0)" xlink:href="#åçûìßííûé_ãðàäèåíò_3"/><linearGradient id="åçûìßííûé_ãðàäèåíò_3-5" x1="-1535.05" y1="154.73" x2="-1531.19" y2="154.73" gradientTransform="matrix(-1, 0, 0, 1, -1379.16, 0)" xlink:href="#åçûìßííûé_ãðàäèåíò_3"/><linearGradient id="åçûìßííûé_ãðàäèåíò_99-4" x1="-1548.01" y1="162.06" x2="-1535.59" y2="162.06" gradientTransform="matrix(-1, 0, 0, 1, -1379.16, 0)" xlink:href="#åçûìßííûé_ãðàäèåíò_99"/><linearGradient id="åçûìßííûé_ãðàäèåíò_99-5" x1="-1548.01" y1="163.58" x2="-1536.87" y2="163.58" gradientTransform="matrix(-1, 0, 0, 1, -1379.16, 0)" xlink:href="#åçûìßííûé_ãðàäèåíò_99"/><linearGradient id="åçûìßííûé_ãðàäèåíò_52" x1="-1525.62" y1="184.24" x2="-1516.21" y2="184.24" gradientTransform="matrix(-1, 0, 0, 1, -1379.16, 0)" gradientUnits="userSpaceOnUse"><stop offset="0" stop-color="#ff7045"/><stop offset="1" stop-color="#bd3e39"/></linearGradient><linearGradient id="åçûìßííûé_ãðàäèåíò_11" x1="-1575.17" y1="160.3" x2="-1516.57" y2="160.3" gradientTransform="matrix(-1, 0, 0, 1, -1379.16, 0)" gradientUnits="userSpaceOnUse"><stop offset="0" stop-color="#bd3e39"/><stop offset="1" stop-color="#ff7045"/></linearGradient><linearGradient id="åçûìßííûé_ãðàäèåíò_99-6" x1="-1561.63" y1="327.14" x2="-1546.62" y2="327.14" gradientTransform="matrix(-1, 0, 0, 1, -1379.16, 0)" xlink:href="#åçûìßííûé_ãðàäèåíò_99"/><linearGradient id="åçûìßííûé_ãðàäèåíò_99-7" x1="-1539.14" y1="326.59" x2="-1517.6" y2="326.59" gradientTransform="matrix(-1, 0, 0, 1, -1379.16, 0)" xlink:href="#åçûìßííûé_ãðàäèåíò_99"/><linearGradient id="åçûìßííûé_ãðàäèåíò_99-8" x1="-1561.91" y1="200.53" x2="-1536.61" y2="200.53" gradientTransform="matrix(-1, 0, 0, 1, -1379.16, 0)" xlink:href="#åçûìßííûé_ãðàäèåíò_99"/><linearGradient id="åçûìßííûé_ãðàäèåíò_30-6" x1="-1553.79" y1="211.1" x2="-1556.03" y2="194.75" gradientTransform="matrix(-1, 0, 0, 1, -1379.16, 0)" xlink:href="#åçûìßííûé_ãðàäèåíò_30"/><linearGradient id="Gradiente_sem_nome_131" x1="-56.73" y1="323.9" x2="110.24" y2="34.7" gradientTransform="matrix(1, 0, 0, 1, 0, 0)" xlink:href="#åçûìßííûé_ãðàäèåíò_11"/><clipPath id="clip-path-5"><rect class="cls-1" x="-1446.59" y="-189.99" width="588.51" height="548.5"/></clipPath><linearGradient id="Áåçûìÿííûé_ãðàäèåíò_280-8" x1="-1940.84" y1="224.15" x2="848.53" y2="224.15" xlink:href="#Áåçûìÿííûé_ãðàäèåíò_280"/></defs><title>Prancheta 176</title><g class="cls-2"><g id="Camada_1" data-name="Camada 1"><g class="cls-3"><g class="cls-4"><polygon class="cls-5" points="-246.77 38.46 18.62 -27.92 18.62 311.72 -246.77 223.63 -246.77 38.46"/><polygon class="cls-6" points="18.62 -27.92 -246.77 38.46 -612.71 -44.67 18.62 -44.67 18.62 -27.92"/><polygon class="cls-7" points="18.62 -40.46 -246.77 36.06 -574.62 -44.67 -612.71 -44.67 -246.77 38.46 18.62 -27.92 18.62 -40.46"/><polygon class="cls-8" points="18.62 -32.95 -246.77 37.58 -599.16 -44.67 -574.62 -44.67 -246.77 36.06 18.62 -40.46 18.62 -32.95"/><polygon class="cls-9" points="18.62 361.24 18.62 311.72 -246.77 223.63 -703 322.22 -703 361.24 18.62 361.24"/><g class="cls-10"><polygon class="cls-11" points="11.23 307.96 -36.88 342.87 -37.31 343.19 -62.43 361.42 -62.7 361.06 -37.8 342.98 -37.36 342.68 10.97 307.6 11.23 307.96"/><polygon class="cls-11" points="22.36 367.87 22.18 368.28 -37.31 343.19 -37.8 342.98 -37.36 342.68 -36.88 342.87 22.36 367.87"/></g><polygon class="cls-12" points="-35.78 293.8 -135.92 361.24 -62.7 361.06 9.47 308.68 -35.78 293.8"/><polygon class="cls-7" points="18.62 294.89 -246.77 219.85 -703 305.86 -703 322.22 -246.77 223.63 18.62 311.72 18.62 294.89"/><polygon class="cls-8" points="18.62 300.5 -246.77 221.68 -703 311.72 -703 322.22 -246.77 223.63 18.62 311.72 18.62 300.5"/><polygon class="cls-13" points="18.62 18.17 -191.59 64.01 -188.86 186.37 18.62 210.9 18.62 18.17"/><polygon class="cls-7" points="18.62 37.58 -169.88 71.09 -168.18 183.1 18.62 198.72 18.62 37.58"/><polygon class="cls-14" points="-195.47 185.68 -195.47 188.05 18.62 217.82 18.62 210.9 -195.47 185.68"/><polygon class="cls-15" points="-195.47 185.68 -168.18 183.1 18.62 198.72 18.62 210.9 -195.47 185.68"/><polygon class="cls-16" points="-182.16 189.9 -169.88 199.98 18.62 231.43 18.62 217.82 -182.16 189.9"/><polygon class="cls-15" points="-169.88 71.09 -191.59 64.01 18.62 18.17 18.62 37.58 -169.88 71.09"/><polygon class="cls-17" points="18.62 198.72 -168.18 183.1 -169.88 71.09 18.62 36.51 18.62 43.05 -165.4 73.79 -164.49 180.53 18.62 189.9 18.62 198.72"/><polygon class="cls-18" points="18.62 43.05 18.62 44.63 -164.61 74.62 -163.48 179.59 18.62 188.05 18.62 189.9 -164.49 180.53 -165.4 73.79 18.62 43.05"/><polygon class="cls-19" points="-169 130.66 18.62 121.07 18.62 116.47 -169 128.96 -169 130.66"/><polygon class="cls-20" points="18.62 -6.34 -205.76 53.56 -205.76 56.69 18.62 1.93 18.62 -6.34"/><polygon class="cls-15" points="-205.76 56.69 -204.13 57.09 18.62 4.26 18.62 1.93 -205.76 56.69"/><polygon class="cls-21" points="-203.39 57.09 -198.47 164 18.62 164 18.62 4.26 -203.39 57.09"/><polygon class="cls-22" points="18.62 160.09 -199.82 163.36 -199.82 165.05 18.62 166.63 18.62 160.09"/><polygon class="cls-15" points="12.6 160.18 10.8 165.05 -199.82 164.45 -199.82 165.05 18.62 166.63 18.62 160.09 12.6 160.18"/><ellipse class="cls-23" cx="-9.35" cy="86.46" rx="16.24" ry="23.57"/><path class="cls-24" d="M12.19,147.79c0,3.26-1.92,5.89-4.28,5.89s-4.29-2.63-4.29-5.89,1.92-5.89,4.29-5.89S12.19,144.54,12.19,147.79Z"/><polygon class="cls-25" points="-177.37 68.65 3.62 25.47 -3.03 153.85 -166.32 157.98 -177.37 68.65"/></g></g><g class="cls-26"><g class="cls-27"><polygon class="cls-28" points="-149.45 435.76 285.23 99.23 467.51 99.23 902.19 435.76 -149.45 435.76"/><g class="cls-29"><polygon class="cls-30" points="130.69 435.76 322.91 99.23 322.14 99.23 128.36 435.76 130.69 435.76"/><polygon class="cls-30" points="-9.79 327.63 764.19 328.92 760.51 326.07 -8.44 326.91 -9.79 327.63"/><polygon class="cls-30" points="79.55 258.47 678.2 262.44 676.07 260.79 80.61 257.65 79.55 258.47"/><polygon class="cls-30" points="143.9 208.65 623.99 220.38 622.13 218.94 144.57 208.13 143.9 208.65"/><polygon class="cls-30" points="181.85 179.33 570.97 179.33 569.77 178.4 182.45 178.87 181.85 179.33"/><polygon class="cls-30" points="181.81 134.92 570.92 134.92 569.73 133.99 182.41 134.45 181.81 134.92"/><polygon class="cls-30" points="216.9 152.2 538.74 154.38 538.21 153.97 217.38 151.74 216.9 152.2"/><polygon class="cls-30" points="220.55 103.75 542.39 105.93 541.86 105.52 221.03 103.29 220.55 103.75"/><polygon class="cls-30" points="217.28 117.06 539.12 119.24 538.59 118.83 217.76 116.6 217.28 117.06"/></g><polygon class="cls-15" points="285.23 99.23 285.23 -124.7 -149.45 -265.33 -149.45 435.76 285.23 99.23"/><polygon class="cls-31" points="285.23 99.23 467.51 99.23 472 -67.27 280.55 -67.27 285.23 99.23"/><polygon class="cls-32" points="-149.45 382.59 284.68 92.01 285.23 99.23 -149.45 435.76 -149.45 382.59"/><polygon class="cls-24" points="-149.45 382.59 284.68 92.01 285.23 93.98 -149.45 395.15 -149.45 382.59"/><polygon class="cls-33" points="376.37 435.76 377.42 328.28 192.26 327.97 130.69 435.76 376.37 435.76"/><polygon class="cls-33" points="144.57 208.13 181.85 179.33 276.02 179.33 257.96 210.7 144.57 208.13"/><polygon class="cls-34" points="467.51 99.23 721.16 340.24 -39.42 409.94 294.28 99.23 285.23 99.23 -149.45 435.76 902.19 435.76 467.51 99.23"/><rect class="cls-35" x="275.27" y="191.56" width="183" height="84.14" transform="translate(733.55 467.26) rotate(-180)"/><polygon class="cls-36" points="467.51 99.23 472 -67.27 280.55 -67.27 285.23 99.23 302.86 99.23 330.51 -59.39 429.44 -59.97 462.25 99.23 467.51 99.23"/></g><path class="cls-37" d="M187,238.56H184.6a102.22,102.22,0,0,1-2.5-14.07c-.79-7.69-1.27-13.22-1.27-13.22l1.27-.85Z"/><path class="cls-38" d="M205.32,237.68s-6,.59-10.59.53a60.7,60.7,0,0,0-7.69.35,119,119,0,0,1-3.45-15.4c-1.59-9.61-1.49-12.74-1.49-12.74a73.39,73.39,0,0,0,9.39.64c5.63.05,16.08.79,16.08.79Z"/><path class="cls-39" d="M189.86,211a70.72,70.72,0,0,1,7,13.06,33.92,33.92,0,0,1,2,11.77l6.79.88L208,229l-4.66-11-7.46-6.85Z"/><path class="cls-40" d="M229.69,331.57V334s5.62,1.8,10,.42c3.67-1.15,4.92-6.46,4.92-6.46Z"/><path class="cls-41" d="M181.77,330.06V332s3.26,1.31,10.74,1.19a150.33,150.33,0,0,0,16.81-1.54l-.06-2.2Z"/><path class="cls-42" d="M194.73,238.21s2.17.3,2.65-.61.35-4.5,1.09-5,1.09,1.25,1.09,1.25.53-1.57,1-1.57,1.05,1.57,1.05,1.57.5-1.07,1-1,1.14,3.56,1.14,3.56.37-2.06.87-2.33.8,3.91.49,4.71-1.5.25-1.5.25a1.44,1.44,0,0,1-1.07.47,1.28,1.28,0,0,1-1.09-.66,1.13,1.13,0,0,1-1,.5,2.62,2.62,0,0,1-1.08-.69,2.28,2.28,0,0,1-1.67.53A8.64,8.64,0,0,1,194.73,238.21Z"/><path class="cls-43" d="M222.15,246.12s-4.93,14-5.65,22.44.67,14.16-.61,23.18-6.26,19.62-6.57,22.17,2.12,5,1.38,6.68-1.41,1.85-1.41,1.85-5.28.06-7.61-.89-3.29-1.59-2.65-2.34,3.18-1.48,2-3.18-.95-1.06.32-2.44,2.49-27.85,2-45.67,1.73-39.34,1.73-39.34,15.4,9.58,15.66,11.33S222.15,246.12,222.15,246.12Z"/><path class="cls-44" d="M246.66,318.05c-.21.84-1.91.95-1.7,2.22a3.63,3.63,0,0,1-.21,2.12s-2.65.11-5.73,0a9.7,9.7,0,0,1-2.26-.31h0c-1.48-.41-2.12-1.13-2-1.81.21-.95,1.27-1.48.31-2.54s.22-3,.11-5-7-28-10.07-41.59-6.16-25-8.07-29.49-11.05-9.74-11.43-10h0l-.51-3.11L227,216.84h6.42a17.14,17.14,0,0,0,1.31,4.89,11.48,11.48,0,0,0,1.08,2c2.07,3.08,1.53,7.54,1.43,8.49s-.59,31.72.21,35.54,4.67,14.43,4.56,21.32.64,17.94,1,21S246.87,317.2,246.66,318.05Z"/><path class="cls-45" d="M205.32,150.13s-3.22,2.81-3.43,5.05-2.55,35.14-2.55,35.14,4.57-15.92,6.16-20.8S205.32,150.13,205.32,150.13Z"/><path class="cls-46" d="M216.5,145.59c1.83-1.64,12.49-4.58,14.92-5l5.59-.9,4.26.58a14,14,0,0,0,.62,4.3c.63,1.51,2.54,3.52,2.94,5.54a15.45,15.45,0,0,1-.27,5.05l-27-1-4.2-2.87Z"/><path class="cls-46" d="M203.74,223.05l-3.55-.91-.53-3.71s-3.92-4.22-4.24-12.25c-.29-7.32,1.17-8.7,3.34-15s7.59-17.85,7.59-17.85l3.5,20.69Z"/><path class="cls-47" d="M232.25,146.58s-1.9,2.59-7.89,3.42a13.17,13.17,0,0,1-8.18-1.48,17.46,17.46,0,0,0,2.22-1.05h0a5.53,5.53,0,0,0,1.63-1.29c.18-.23.31-.42.42-.59h0c.48-.73.48-.93.48-.93l4.61-3.08,3.75-2.51a21.69,21.69,0,0,0-.36,4.63c.13.78,1.4,1.72,2.48,2.38Z"/><path class="cls-48" d="M231.42,146.07a21.3,21.3,0,0,1-7.4,1.7,32.8,32.8,0,0,1-5.62-.3,5.53,5.53,0,0,0,1.63-1.29c.18-.23.31-.42.42-.59h0l5.09-4,3.75-2.51a21.69,21.69,0,0,0-.36,4.63C229.07,144.47,230.34,145.41,231.42,146.07Z"/><path class="cls-49" d="M234.72,123.66s-.31,6.21-2.22,10a65.84,65.84,0,0,1-6.95,10.56c-1,1.05-5.24,1.74-7.15,1.17-1.32-.4-9.09-7.56-9.67-9.87s.18-5.51.25-8.57c0-2.19-1.28-6.14-1.87-8.56h0a6.65,6.65,0,0,1-.27-1.75.41.41,0,0,1,0-.21c.46-1,5.42-9.31,17.47-9.63a13.35,13.35,0,0,1,3.68.38C236.16,109.25,235.27,119.43,234.72,123.66Z"/><path class="cls-47" d="M234.72,123.66s-.31,6.21-2.22,10a65.84,65.84,0,0,1-6.95,10.56c-1,1.05-5.24,1.74-7.15,1.17,0,0,5.91-.48,7.3-3s4.94-9.46,5.15-16c.13-3.78-1-11.77-6.3-12.29s-17.44,4.24-17.44,4.24h0l-.68-1.32.41-.43,4-4.24L228,107.17C236.16,109.25,235.27,119.43,234.72,123.66Z"/><path class="cls-7" d="M214.18,128.35c.15.92-3.64,2.12-5,.75-.68-2.48.12-5.24,1.63-5.87S213.93,126.78,214.18,128.35Z"/><path class="cls-7" d="M227.32,125a3.25,3.25,0,0,1-2,2.7c-1.53.81-4.59.3-4.58-.79,0-.85.36-5.45,2.75-6.13S227.34,124.58,227.32,125Z"/><ellipse class="cls-50" cx="224.35" cy="124.01" rx="1.95" ry="3.63" transform="translate(-9.34 18.66) rotate(-4.67)"/><path class="cls-51" d="M225.86,123.56c.11,1.34-.39,2.47-1.11,2.53s-1.39-1-1.5-2.32.38-2.48,1.1-2.54S225.75,122.21,225.86,123.56Z"/><path class="cls-51" d="M220.72,126.89s-.08-7,2.9-7,3.7,5.13,3.7,5.13-1.83-4.63-3.73-3.82S220.72,126.89,220.72,126.89Z"/><path class="cls-52" d="M213.83,126.76c0,.12,0,.24-.06.35-.24,1.17-.9,2-1.68,2-1,0-1.79-1.36-1.79-3a4.21,4.21,0,0,1,.55-2.18,1.57,1.57,0,0,1,1.2-.84A8.43,8.43,0,0,1,213.83,126.76Z"/><path class="cls-51" d="M213.32,126.09c0,1.15-.55,2.09-1.23,2.09s-1.24-.94-1.24-2.09.56-2.08,1.24-2.08S213.32,124.94,213.32,126.09Z"/><path class="cls-51" d="M214.18,128.35c-.05-.17-.18-.65-.41-1.24a9.8,9.8,0,0,0-.45-1,4.53,4.53,0,0,0-1.6-2,1.52,1.52,0,0,0-.74-.2h-.13c-2.34.16-1.68,4.83-1.63,5.19-.1-.37-1.64-5.86,1.35-6.51a1.59,1.59,0,0,1,1.48.48,8.43,8.43,0,0,1,1.78,3.69A15.35,15.35,0,0,1,214.18,128.35Z"/><path class="cls-51" d="M216.18,138.11a18.48,18.48,0,0,0,4.91-2.45c2.07-1.53,4.62-3.85,4.62-3.85s-2.24,6.41-3.94,7.07S216.18,138.11,216.18,138.11Z"/><circle class="cls-7" cx="223.01" cy="124.86" r="1.02"/><circle class="cls-7" cx="210.3" cy="126.89" r="1.02"/><path class="cls-47" d="M221.17,131.57a7.55,7.55,0,0,1-2.81,1.72,11.31,11.31,0,0,1-2.94.63,7.2,7.2,0,0,0,2.51,1.09c.86,0,2.25-1.94,2.25-1.94a.66.66,0,0,0,.93,0C221.67,132.62,221.17,131.57,221.17,131.57Z"/><path class="cls-53" d="M214.06,126.37c.48,2.93-.72,5.56-2.67,5.87s-3.92-1.79-4.39-4.72.72-5.56,2.67-5.88S213.59,123.44,214.06,126.37Z"/><path class="cls-51" d="M209.56,121c-2.2.36-3.55,3.32-3,6.62s2.75,5.68,4.95,5.32,3.55-3.32,3-6.61S211.76,120.62,209.56,121Zm1.83,11.27c-1.95.32-3.92-1.79-4.39-4.72s.72-5.56,2.67-5.88,3.92,1.8,4.39,4.73S213.34,131.93,211.39,132.24Z"/><path class="cls-53" d="M228,124.36c.33,3.22-1.38,6-3.81,6.28s-4.67-2.16-5-5.38,1.38-6,3.82-6.28S227.72,121.15,228,124.36Z"/><path class="cls-51" d="M223,118.25c-2.74.28-4.66,3.44-4.29,7.06s2.88,6.34,5.62,6.06,4.67-3.44,4.3-7.06S225.71,118,223,118.25Zm1.26,12.39c-2.44.25-4.67-2.16-5-5.38s1.38-6,3.82-6.28,4.67,2.17,5,5.38S226.66,130.39,224.23,130.64Z"/><polygon class="cls-51" points="214.17 125.71 218.86 124.67 219.02 125.5 214.3 126.09 214.17 125.71"/><polygon class="cls-51" points="227.87 121.61 236.4 122.82 235.84 123.37 228.08 122.76 227.87 121.61"/><path class="cls-7" d="M217.52,137.89a9.32,9.32,0,0,0,3-.17c1.46-.37,4.53-5.17,4.53-5.17A24.85,24.85,0,0,1,217.52,137.89Z"/><path class="cls-51" d="M219.69,116.11l-.5-3.58,1.05,1.43v-1.75a17.26,17.26,0,0,1,5.85,1.39,7.24,7.24,0,0,1,3.82,3.66l-.85,1.13a13.8,13.8,0,0,0-4-2A12.56,12.56,0,0,0,219.69,116.11Z"/><path class="cls-51" d="M207.41,121.36a12.69,12.69,0,0,1,2.89-3.13,17.94,17.94,0,0,1,2.12-1.43l-.35-3.13-.37,1.63-.24-1.53a9.26,9.26,0,0,0-2.73,2.6,8.69,8.69,0,0,0-1.84,3.77Z"/><path class="cls-47" d="M233.49,125.87s5.21-7.38,7.52-7.14-.28,11.64-3.76,12.66-5.12-.29-5.12-.29Z"/><path class="cls-54" d="M238.66,111.62c0,.55,0,1.09,0,1.62-.05.71-.12,1.41-.23,2.06,0,.33-.1.65-.15,1-.09.54-.18,1-.25,1.45-.63,3.54-.82,3.66-.82,3.66s-1.11,1.8-2.1,3.66c-.82,1.53-1.53,2.94-1.53,2.94l-.56.12a60.49,60.49,0,0,0,0-9.85,15.32,15.32,0,0,0-.5-2.91c-.11-.44-.25-.86-.39-1.26a14.77,14.77,0,0,0-1.65-3.26,9,9,0,0,0-1-1.22,92.21,92.21,0,0,0-15.3,4.09,28.93,28.93,0,0,0-11.43,7.94l3.17-6,1.81-3.43-7.85,6a32.81,32.81,0,0,1,6.24-11.15c.49-.57,1-1.13,1.56-1.69a27.61,27.61,0,0,1,5.65-4.4l.59-.33a23.22,23.22,0,0,1,3.36-1.52,27.23,27.23,0,0,1,10.86-1.54,23.44,23.44,0,0,1,7.9,1.66,2.68,2.68,0,0,1,.37.21,3.47,3.47,0,0,1,.8,1.48A36.17,36.17,0,0,1,238.66,111.62Z"/><path class="cls-48" d="M235.06,129.12a23.06,23.06,0,0,1,2.77-5.28,12.21,12.21,0,0,1,2.94-3.32,38.58,38.58,0,0,0-2.86,4.86A9.13,9.13,0,0,1,235.06,129.12Z"/><path class="cls-48" d="M237,125.65s.5,1.5,1.39,1.46,1.77-1.46,1.77-1.46-.8,1.95-2.26,2.17-1.32-.93-1.32-.93Z"/><path class="cls-55" d="M229.45,109.57a78.25,78.25,0,0,0-11.28-2.4,66.82,66.82,0,0,0-12.06-.09c.49-.57,1-1.13,1.56-1.69a57,57,0,0,1,10.73.74A58.64,58.64,0,0,1,229.45,109.57Z"/><path class="cls-55" d="M229.46,109.57c-.31-.31-5.35-5.2-10.44-7.2a40.62,40.62,0,0,0-5.11-1.71,23.22,23.22,0,0,1,3.36-1.52,35,35,0,0,1,4.72,3A57.1,57.1,0,0,1,229.46,109.57Z"/><path class="cls-55" d="M237.2,101c-.45.78-1.14,1.93-2.14,3.54a15,15,0,0,1-5.5,5.05,12.33,12.33,0,0,0,4.58-5.1A28.2,28.2,0,0,0,236,99.26a2.68,2.68,0,0,1,.37.21A3.47,3.47,0,0,1,237.2,101Z"/><path class="cls-55" d="M238.66,111.62c0,.55,0,1.09,0,1.62a9,9,0,0,0-2.21-1,46.33,46.33,0,0,0-6-1.4,21.09,21.09,0,0,1,6.58.26A14.14,14.14,0,0,1,238.66,111.62Z"/><path class="cls-55" d="M238.23,116.25c-.09.54-.18,1-.25,1.45a19.48,19.48,0,0,0-2.68-1.49,8.72,8.72,0,0,0-2.83-.89c-.11-.44-.25-.86-.39-1.26a23.39,23.39,0,0,1,4.32,1.24A12.05,12.05,0,0,1,238.23,116.25Z"/><path class="cls-56" d="M228.13,97.6a14.33,14.33,0,0,1-3.77,9.19c-3.86,4.28-15.22,7.88-18.45,8.84l1.81-3.43-7.85,6a32.81,32.81,0,0,1,6.24-11.15c.49-.57,1-1.13,1.56-1.69a27.61,27.61,0,0,1,5.65-4.4l.59-.33a23.22,23.22,0,0,1,3.36-1.52A27.23,27.23,0,0,1,228.13,97.6Z"/><path class="cls-57" d="M237.32,216.2c.32,1.06-9.76.8-13.82,3.74s-6.76,9.07-9.06,9.47-11.06-1.12-11.06-1.12.24-2.38.39-5.88,1.36-15.76,2.07-22.76-.56-19.57-.56-26.26c0-2.59.38-6.6.83-10.54h0c.72-6.2,1.64-12.21,1.64-12.21L213.6,149h0l4.22-1.2s.35,1.11,4.49,1.06,9.51-2.53,9.51-2.53l6.35.72s-2.22,32.68-3.11,40.74S237,215.14,237.32,216.2Z"/><path class="cls-58" d="M235.06,187.77c.89-8.06,3.11-40.74,3.11-40.74l-6.35-.72s-5.37,2.47-9.51,2.53-4.49-1.06-4.49-1.06L213.6,149l-5.85,1.66-1.32,5.49-.32,6.72h0c-.45,3.94-.83,8-.83,10.54,0,6.69,1.28,19.26.56,26.26s-1.9,19.26-2.07,22.76-.39,5.88-.39,5.88,8.75,1.52,11.06,1.12,5-6.53,9.06-9.47,14.14-2.68,13.82-3.74S234.16,195.83,235.06,187.77Zm-16.35,34.4c-4.51,4.85-9.29,5.49-11,5s-4.45-3.34-2-12.25,4.43-42.3,5-48.8a15.63,15.63,0,0,1,.54-2.88c6.17.53,11.19.85,13,3.46,2.56,3.6,2.76,11.86,1.83,19.18-.38,3-1.72,6.12-1.69,6.6s5.35,5.57,5.55,9.39a11.35,11.35,0,0,1-6.64,11.06,16,16,0,0,0-7.24,7.32s3.58-4.3,6.52-5.33,8.76,0,8.76,0S223.22,217.31,218.71,222.17Z"/><path class="cls-59" d="M198.44,191.85s10.06-20.62,10.84-24.66,1.67-17.75,2.3-18.62l.63-.88s-6.05,1.69-6.89,2.44-.43,17.14-2.34,24.46S198.76,190.5,198.44,191.85Z"/><path class="cls-60" d="M237,172.17c-.1,2.73,0,5.61.17,8.52.2,3.14.51,6.3.83,9.32.06.61.13,1.23.2,1.82s.11,1.07.17,1.59c.07.67.14,1.34.21,2h0c.13,1.15.23,2.26.33,3.31.43,4.61.54,8.17-.26,9.68a11,11,0,0,1-3.83,4.14,8.87,8.87,0,0,1-1.92,1s-1-8.6-2.48-16.24a127.24,127.24,0,0,1-1-35.8,49.08,49.08,0,0,1,.93-5.16,35.49,35.49,0,0,1,2.91-8,18,18,0,0,1,3.91-5.4s-.16.85-.25,1.71a3.42,3.42,0,0,0,.06,1.71c.38.53,4.56,1.22,4.24,1.47s-1.75,4.54-2.93,11.48A98.71,98.71,0,0,0,237,172.17Z"/><path class="cls-61" d="M232.91,213.5l.49,3.34s3.39-1.91,4.29-3.34,1-5.1,1-5.1S236,212.28,232.91,213.5Z"/><path class="cls-62" d="M253,189.15c-.08,5.41-5.09,26-7.64,28.25s-9.52,4.21-9.52,4.21L233.85,219a46.49,46.49,0,0,1,1-6.45,25.75,25.75,0,0,1,1.89-5.57,24,24,0,0,0,2.2-8.25,28.81,28.81,0,0,0-1.74-18,9.45,9.45,0,0,1-.81-3.21c-.78-3.13-.08-11.23,1.11-18.18,1.1-6.43,2.62-11.89,3.77-11.52C243.64,148.55,253,183.74,253,189.15Z"/><path class="cls-63" d="M200.19,222.14l-.53-3.71s-5.94-8.75-2.92-19.42,11.83-27.39,13.8-31.52,6-21.9,6-21.9l-4.29,2.1s-1.07-.36-2.53,8.15-1.73,15-5.83,23.68-7.6,15-8.91,22.28,4,16.43,4.22,16.75a23.77,23.77,0,0,1,.59,3.59Z"/><path class="cls-64" d="M253,189.15c-.08,5.41-5.09,26-7.64,28.25s-9.52,4.21-9.52,4.21v-.53s5.89-5.62,7.61-7.58,6.76-21,6.65-24.46-5.51-27.47-7.64-29.17c-.7-.57-2.29-.7-4.09-.61-.27,0-.55,0-.84,0a61.46,61.46,0,0,0-7.26,1.1l.16-4.1.21-5.27,2.7-2.74,3.64-3.7h0a3.42,3.42,0,0,0,.06,1.71c.38.53,4.56,1.22,4.24,1.47C243.64,148.55,253,183.74,253,189.15Z"/><path class="cls-63" d="M241.27,140.29s-7.77,5.15-10.63,18-.68,34.75.09,39.14,2.67,19.42,2.67,19.42l-1.15-.64s-4.26-22.38-5.11-40.53,1.94-25.86,4.17-30.08a15.21,15.21,0,0,1,5.32-5.93Z"/><path class="cls-43" d="M246.66,318.05c-.21.84-1.91.95-1.7,2.22a3.63,3.63,0,0,1-.21,2.12s-2.65.11-5.73,0a9.7,9.7,0,0,1-2.26-.31,12.26,12.26,0,0,0,2.1-.06c1.63-.17,4.67-1.9,3.55-2.65s-5.83-1.75-5.83-1.75,7.16.48,7.37-.37-1.11-2.23-1.91-3.39-2.06-16.34-1.9-21.12-2.07-19.41-3.35-20.05-1.75,6.05-2.94,4.62S232,246,227,241s-20.86-9.2-21.35-9.34h0l.73-1.28,11.16-.93L232,219l2.69,2.74a11.48,11.48,0,0,0,1.08,2c2.07,3.08,1.53,7.54,1.43,8.49s-.59,31.72.21,35.54,4.67,14.43,4.56,21.32.64,17.94,1,21S246.87,317.2,246.66,318.05Z"/><path class="cls-65" d="M233.85,219a13.61,13.61,0,0,1-3,1.35c-2.18.74-7.27,5.67-7.27,5.67s4.78,1.17,6.21,1.3,4.23.85,4.86,0,1.19-5.7,1.19-5.7Z"/><path class="cls-66" d="M230.22,219s1.11,2.46,2.69,5.25,2,3.74,2,3.74-3.48,4.53-7.62,5.49-8.78,0-9.32-3.34,4.59-7.09,6.48-8.28A56.47,56.47,0,0,1,230.22,219Z"/><path class="cls-67" d="M209.26,329.43c-.23.59-8.83.87-12.69,1.31-1,.11-1.88.18-2.72.21h0c-2.42.1-4.48-.06-7.6-.21-4.22-.2-4.46-.68-4.46-.68a12.44,12.44,0,0,1,4.9-2.27c2.31-.27,9.67-3,10.73-4.09,1.88-1.87-3.1-5.9-2.3-6.37s4.74-.51,5.25,0,.49,3.87.91,4,7.65,1.07,7.65,1.07S209.5,328.83,209.26,329.43Z"/><path class="cls-67" d="M244.83,326.72c.08,1.35-1.4,4.15-2.63,4.58a7.9,7.9,0,0,1-1.44.3h0a53.43,53.43,0,0,1-7.76.49c-3.23-.05-3.29-.53-3.29-.53a3.82,3.82,0,0,1,2.1-2.63,10.16,10.16,0,0,0,3-3.87c.45-.86.71-1.5.71-1.5,0-1.39-2.55-4-1.81-4.68s5.47-.58,6.42.32,0,3.22,0,3.22l4.36,0S244.75,325.37,244.83,326.72Z"/><path class="cls-47" d="M197.92,239.14s.88-.1,1.28-1.69a14.45,14.45,0,0,0,.4-3.11,12.54,12.54,0,0,1,0,2.87C199.4,238.61,199.41,239.08,197.92,239.14Z"/><path class="cls-47" d="M200.57,239.3s.78-.2,1-1.52a28,28,0,0,0,.13-3.3,15.74,15.74,0,0,1,.06,3.76A1.24,1.24,0,0,1,200.57,239.3Z"/><path class="cls-47" d="M202.74,239.46s.46-.29.64-1.61a19,19,0,0,0-.08-3.51,10.34,10.34,0,0,1,.51,3.28c-.11,1.4-.2,1.37-.2,1.37A1.27,1.27,0,0,1,202.74,239.46Z"/><path class="cls-68" d="M209.26,329.43c-.23.59-8.83.87-12.69,1.31-1,.11-1.88.18-2.72.21,1.33-.26,9.79-1.53,8.25-4.68-1.32-2.71-4.7-2.57-4.7-2.57,1.88-1.87-3.1-5.9-2.3-6.37s4.74-.51,5.25,0,.49,3.87.91,4,7.65,1.07,7.65,1.07S209.5,328.83,209.26,329.43Z"/><path class="cls-68" d="M244.83,326.72c.08,1.35-1.4,4.15-2.63,4.58a7.9,7.9,0,0,1-1.44.3,4,4,0,0,0,1-.31,4.19,4.19,0,0,0,1.91-3c.07-.64-.48-3.4-3-3.27s-5.9,0-5.9,0c.45-.86.71-1.5.71-1.5,0-1.39-2.55-4-1.81-4.68s5.47-.58,6.42.32,0,3.22,0,3.22l4.36,0S244.75,325.37,244.83,326.72Z"/><path class="cls-69" d="M167.46,330.89v2a25,25,0,0,0,8.15.28c4-.63,6.65-5.77,6.65-5.77l.21-2.16-5.58,4.13Z"/><path class="cls-70" d="M138.44,329.51v2a48,48,0,0,0,9.33.31c5.32-.32,12.21-.2,12.21-.2v-2.19s-6.89-.55-11.14-.35S138.44,329.51,138.44,329.51Z"/><polygon class="cls-47" points="159.5 325.32 159.18 322.98 154.96 322.55 153.77 325.32 159.5 325.32"/><polygon class="cls-47" points="182.26 323.78 182.1 323.04 178.25 322.17 177.91 323.41 178.6 326.22 180.5 326.38 182.26 323.78"/><path class="cls-71" d="M156.56,206.68a22,22,0,0,1-.13,2.63c-.11.32-3.3,6.2-5.17,10.34s-3.85,16.69-3.43,28.79a271.78,271.78,0,0,0,4.34,36.93c2.13,12.2,2.45,34.43,2.45,35.2s-.11,1.93-.11,1.93l5.2.53S166,301,165.86,295.77s-3.18-14.11-4-17.82,3.08-24.83,3.08-24.83-2-8.11-1.8-13.66,12.28-18.59,12.28-18.59l-3.8-7.34-.23-6Z"/><path class="cls-72" d="M134.25,244.46a6.93,6.93,0,0,0,1,2.73c.6-.41-.2-1.85-.1-2.41a14.78,14.78,0,0,1,1-2.21,15.52,15.52,0,0,0-.41,2.19,9.93,9.93,0,0,0,1.39,3.24.75.75,0,0,0,.63.05s.54.56.64.34-.68-2.34-.68-2.9a21.51,21.51,0,0,1,.95-3,8.16,8.16,0,0,0-.33,2.68c.19.86,1,3.17,1.27,2.89s-.24-3,.15-4.54a17.76,17.76,0,0,1,2.27-4.09,3.2,3.2,0,0,1,0,.56,22.08,22.08,0,0,0-.39,2.6c0,1.13.7,2.44,1.05,2.12s.07-.89.26-2.37.9-3.41.81-4.49a7.34,7.34,0,0,0-.58-1.78h0a4.06,4.06,0,0,1-.23-2.18c.34-1.76,7.87-13.33,8.26-16.82a22.45,22.45,0,0,0-.47-5.61c-.68-3.7-1.94-7.44-3-6.94-.66.31-1.52,1.71-2.67,4-.46.93-1,2-1.51,3.21-.22.5-.45,1-.7,1.56-2.3,5.15-1.75,19.59-2.1,20a50.74,50.74,0,0,0-3.79,5.43C135.72,241,134.26,243.79,134.25,244.46Z"/><path class="cls-47" d="M143.19,236.05a4.06,4.06,0,0,1-.23-2.18c.34-1.76,7.87-13.33,8.26-16.82a22.45,22.45,0,0,0-.47-5.61l-5.67-2.92c-.46.93-1,2-1.51,3.21,0,0,2.88,4.05,3.41,8s-3.57,11.73-4.23,13S143.1,235.86,143.19,236.05Z"/><path class="cls-73" d="M192.63,203.61s-.83-3.69.66-6.45,1.42-2.24,2.22-4,.14-1.85-.82-3.84-14.4-13.18-14.56-16.15.14-21.44.07-22.36-7-12.65-8.55-13.34-27.43-1.32-28.54,3.56,3.5,14.16,2.49,17.9-4.45,7.5-3.21,10.47,3,4.09,3.19,6.77-4.7,10.25-6,12.17-1.85,1.81-1.29,4.06,5,8.94,5.25,11.43.39,3.77.39,3.77,8-1.09,12-1.54,3.83-4.71,20.91-4.22C182.26,202,192.63,203.61,192.63,203.61Z"/><path class="cls-47" d="M153.19,176.13s4.64,1,7.82,1.67,13.13-.48,13.13-.48,6.68,13.45,7.56,16.31,1.91,7.61,1.91,7.61S193,214,193.87,213.37s-.37-12.18-3.23-19.74-8.13-16.08-10.19-17.5-2.7-1.09-4.29-1.46c-.65-.16-2.07-.62-3.55-1.15a33.44,33.44,0,0,1-4.63-1.88,13.56,13.56,0,0,1-.62-3.43c0-.39-.06-.65-.06-.65l-3.78,1.31-1.92.66s-.14,1.32-.14,2.06c0,.16-.36.44-.92.8C158.39,173.74,153.19,176.13,153.19,176.13Z"/><path class="cls-48" d="M160.54,172.39a11.56,11.56,0,0,0,3.39.72c2.58.29,8.68.41,8.68.41a33.44,33.44,0,0,1-4.63-1.88,13.56,13.56,0,0,1-.62-3.43l-3.84.66-1.92.66s-.14,1.32-.14,2.06C161.46,171.75,161.1,172,160.54,172.39Z"/><path class="cls-74" d="M156.43,174.58s-1.63.81-3.24,1.55a8.31,8.31,0,0,0-4.27,4.11c-1.13,2.93-1.93,15.12-2.47,18.65a79.78,79.78,0,0,1-2.14,9.14,40.61,40.61,0,0,0,5.32,2.95l2.31,1s3.1-10.26,3.58-13.6S156.43,174.58,156.43,174.58Z"/><path class="cls-75" d="M150.14,162.92c1.48,2.5,6.61,5.65,11.43,6.6h0c.53.11,1.06.18,1.58.24,3.55.31,9.85-4.86,12-8.76S178,149.2,178,149.2s-4.46-15.26-11.7-14.93-16.23,6.64-16.63,10.67.39,6.12.51,9.9S148.51,160.14,150.14,162.92Z"/><path class="cls-47" d="M161.6,169.53c.53.11,1.06.18,1.58.24,3.55.31,9.85-4.86,12-8.76S178,149.2,178,149.2s-4.46-15.26-11.7-14.93-16.23,6.64-16.63,10.67a26.23,26.23,0,0,1,14.07-4.38c8.05,0,10.05,6.6,9.8,11.46s-1.06,8.41-4.13,12.06-5.17,4.88-6.1,5.23A3.47,3.47,0,0,1,161.6,169.53Z"/><path class="cls-7" d="M167.31,161.81a22.23,22.23,0,0,1-5,1.53,16,16,0,0,1-3.64.1s1.1,2.28,2.59,2.32,4.85-2.22,4.91-2.28S167.31,161.81,167.31,161.81Z"/><path class="cls-7" d="M156.43,157.41s-2.9-6.52-4.4-6-1.35,3.1-1.35,3.1.31,3.05,1.46,3.61S156.11,158.15,156.43,157.41Z"/><path class="cls-7" d="M163.93,156.48s.78-5.61,3.41-6.34a6.09,6.09,0,0,1,4.84.91,5.94,5.94,0,0,1-1.45,4.19C169.13,156.77,164.09,156.68,163.93,156.48Z"/><path class="cls-76" d="M165.94,152.61a2.45,2.45,0,1,0,2.4-3A2.74,2.74,0,0,0,165.94,152.61Z"/><path class="cls-51" d="M166.64,152.25a1.74,1.74,0,1,0,1.7-2.11A1.94,1.94,0,0,0,166.64,152.25Z"/><path class="cls-77" d="M152.08,155c.24,1.63,1.28,2.83,2.34,2.67a1.84,1.84,0,0,0,1.37-1.43,2.71,2.71,0,0,0,.09-.41h0c-.16-.42-.35-.89-.56-1.38a21,21,0,0,0-1-2c-.13-.23-.28-.46-.42-.67a1.22,1.22,0,0,0-.33,0,1.43,1.43,0,0,0-.76.39A3.36,3.36,0,0,0,152.08,155Z"/><path class="cls-51" d="M152.59,154.58c.16,1.15.91,2,1.65,1.89a1.38,1.38,0,0,0,1-1.15,3,3,0,0,0,.07-.86,21,21,0,0,0-1-2,.93.93,0,0,0-.68-.16.91.91,0,0,0-.44.19A2.25,2.25,0,0,0,152.59,154.58Z"/><path class="cls-51" d="M163.88,156.71s-.14-5.57,3-7,5.1.05,5.94-.22a6.72,6.72,0,0,0,1.38-.58s-.85,2.05-2,2.16-3-1.19-5.1-.3S163.88,156.71,163.88,156.71Z"/><path class="cls-51" d="M173.19,149.63s-1.09-.5-3.13-1.32a10,10,0,0,0-3.8-.75,8,8,0,0,1,2.6.85c1.06.64,1.73,1,1.73,1Z"/><path class="cls-51" d="M148.14,152.64c.23.21,2.13,2,2.69,1.85s-.24-3.58,1.92-2.36l.05,0a2.39,2.39,0,0,1,.39.31,16.21,16.21,0,0,1,2.06,2.84c.19.33.38.64.54.93.35.61.59,1.07.64,1.16,0-.12-.23-.74-.55-1.57h0c-.16-.42-.35-.89-.56-1.38a21,21,0,0,0-1-2c-.13-.23-.28-.46-.42-.67-.68-1-1.43-1.65-2.19-1.51-1.31.23-1.15,2.58-1.63,2.9S148.33,152.74,148.14,152.64Z"/><path class="cls-51" d="M150.67,153a21.34,21.34,0,0,1,0-2.44,4.89,4.89,0,0,1,.29-1.64,11,11,0,0,0-.77,2.52,5.14,5.14,0,0,0,.16,2.12Z"/><path class="cls-51" d="M172.07,151.75a4.86,4.86,0,0,1-1.19,2.89,5.72,5.72,0,0,1-2.75,1.76,7.07,7.07,0,0,0,3.09-1.22C172.18,154.27,172.07,151.75,172.07,151.75Z"/><path class="cls-51" d="M155.28,158.11a15.35,15.35,0,0,1-2.7-.28c-.85-.24-1.49-1.62-1.49-1.62a5.57,5.57,0,0,0,.88,2.2C152.52,158.94,155.28,158.11,155.28,158.11Z"/><circle class="cls-7" cx="166.64" cy="154.07" r="1.02"/><path class="cls-7" d="M151.63,155.51a.78.78,0,1,0,.78-.78A.78.78,0,0,0,151.63,155.51Z"/><path class="cls-51" d="M162.63,142.67s1.64.16,4,.32,2.81-.3,4.79.33a6.59,6.59,0,0,1,3.11,2.17,8.61,8.61,0,0,0-5-1.41c-2.42.3-4.09.94-5.41.82S162.63,142.67,162.63,142.67Z"/><path class="cls-51" d="M153.56,144.36a13,13,0,0,1-2.6,1.95c-1.61.91-2,1.43-2.24,2.67a5.7,5.7,0,0,0,0,1.79,3,3,0,0,1,1-2.4c1.16-.87,2.14-.15,3.4-1.23S153.56,144.36,153.56,144.36Z"/><path class="cls-78" d="M168.71,160s-.86,1.77-4.2,2.28a43.44,43.44,0,0,1-8.08.16,6.31,6.31,0,0,0,3.75,1.59,15.47,15.47,0,0,0,6.46-1.67,7,7,0,0,0,2.21-2.23Z"/><path class="cls-79" d="M168.85,160.17s-.57,1.24-1.71,3.17S163.8,167,162.07,167a3.24,3.24,0,0,1-2.89-2,7.54,7.54,0,0,0-1.48-1.65l1,.08a6.54,6.54,0,0,1,.9,1c.48.64,1.46.84,2.88.43a17.7,17.7,0,0,0,4.47-2.71Z"/><path class="cls-47" d="M166.48,158.89s1.07.43,2.8,1c.86.3.76,1.91.76,1.91a2.08,2.08,0,0,0-1-1.17A7.22,7.22,0,0,1,166.48,158.89Z"/><path class="cls-47" d="M163.09,159a13.8,13.8,0,0,1-2.78.83,12.27,12.27,0,0,1-3.22.19,3.78,3.78,0,0,0,2.53,1.06,2.61,2.61,0,0,0,1.64-.87s.2.25,1,.16S163.09,159,163.09,159Z"/><path class="cls-73" d="M179.09,152a13.9,13.9,0,0,0-2.3,2.71,9,9,0,0,1-1.48,2v-4.46a10.28,10.28,0,0,0-.22-2.3Z"/><path class="cls-80" d="M150.43,196.5a14.53,14.53,0,0,0,3.66,3.34c.24.08,2.47,6.84,2.47,6.84s5.24,1.11,8,.88a46.12,46.12,0,0,0,5.57-.88s4.17-6,5.55-9.89c.54-1.51,1.12-3.32,1.63-5,.82-2.62,1.47-4.84,1.47-4.84a27.41,27.41,0,0,1-3.48-4.62,6.79,6.79,0,0,1-.87-2.33,53.22,53.22,0,0,1-.27-6h0a40.35,40.35,0,0,1-10.31,2c-5.25.24-7.44-1.55-7.44-1.55s-1.35,4.15-3,8a35.73,35.73,0,0,1-2.3,4.56C148.54,191.24,149.24,194.31,150.43,196.5Z"/><path class="cls-80" d="M172.61,181.46l0,.34c.45,5,1.89,7.38,1.89,7.38s1.62,1.43,2.81,2.64q.28.28.51.54c1.82,2,3.82,6,4.9,8.37h0c.49,1.07.79,1.79.79,1.79a16.4,16.4,0,0,1,4.09,2.37c3.12,2.31,6.52,7,6.52,7s-.6-11.41-3.09-18.3c-2.9-8-7-15.86-10.49-18.09-2.33-1.49-6.38-1.47-6.38-1.47h0A13.14,13.14,0,0,0,172.61,181.46Z"/><polygon class="cls-47" points="159.56 194.41 159.45 195.53 158.66 195.14 159.11 194.65 159.56 194.41"/><path class="cls-74" d="M153.39,182.63c2.24-1.54,5.84-1.92,8-1.81,9.55.48,15.53,5.79,17.4,6.16,4.09.79,5.44,10.31,6.15,11.63s-2,2.06-2.21,2.12c.49,1.07.79,1.79.79,1.79a16.4,16.4,0,0,1,4.09,2.37,42,42,0,0,1,6.65,7s-.73-11.41-3.22-18.3c-2.9-8-7-15.86-10.49-18.09-2.33-1.49-6.38-1.47-6.38-1.47h0a40.35,40.35,0,0,1-10.31,2c-5.25.24-7.44-1.55-7.44-1.55S155.08,178.73,153.39,182.63Z"/><path class="cls-81" d="M145.58,176.13a11.89,11.89,0,0,1-3.9,4.85c-3.11,2.47-4.78,5.08-4.62,7.32a10.73,10.73,0,0,0,1.2,4.06s.79-3.29,5-5.65C148.66,183.69,145.58,176.13,145.58,176.13Z"/><path class="cls-82" d="M137.46,164.08c.4,1.47,4.93,5.28,4.93,5.28s-.47-1.67,2-4.53,5.93-4.55,4.28-9.24-4.88-12.23-4-14.63c1.67-4.76,26.11-.16,26.11-.16a21.23,21.23,0,0,0,.9,4.87,9.06,9.06,0,0,0,2.56,4.25c3.18,2.62,4.61,2.88,4.61,2.88s.79,10.28-1.06,14.89-1,10.5,4.75,15.36,11.14,5.57,12.66,7.32a2.35,2.35,0,0,1,0,3.26c.16-.08,2.21-1.18-.7-6.17-3-5.21-4.3-16.73-4.3-28.47,0-6-.59-9.89-1.74-12.82a18.86,18.86,0,0,0-4.81-6.81c-4.3-4.21-18.49-12.68-28.88-12.38-4.87.14-13.85,15-14.33,17.38s.64,9.69-.31,13S137.06,162.6,137.46,164.08Z"/><path class="cls-83" d="M170.37,140.73l-2.19-.37s-8.82-3.81-12.3-4.55a49.12,49.12,0,0,0-9.75-1.25l.41-.56a38.15,38.15,0,0,1,8.32.95C160.61,136.13,170.37,140.73,170.37,140.73Z"/><path class="cls-83" d="M170,140.59l.72.21s-7.27-5.39-10.94-7.56a42.12,42.12,0,0,0-8.94-4.14l-.91.88a78.21,78.21,0,0,1,9,3.6A64.65,64.65,0,0,1,170,140.59Z"/><path class="cls-83" d="M167.67,129.8a31.1,31.1,0,0,1,1.53,5.59c.25,1.3.75,5.27.75,5.27l.78.14S170.38,138,170,135a39.64,39.64,0,0,0-.78-4.51Z"/><path class="cls-83" d="M170.81,141.74a47.41,47.41,0,0,0,9.39,1.58c5.13.32,6.73,0,6.73,0l1,1.69a55.58,55.58,0,0,1-8.35-.6,78.49,78.49,0,0,1-8.66-2Z"/><path class="cls-83" d="M171.8,146.17s5.84,4,11.81,8.21,6.55,4.61,6.55,4.61v1.82S184.63,157,180,153.27s-7.8-6.16-7.8-6.16Z"/><path class="cls-83" d="M192.9,183.8s-3-2.24-8.38-10-5.64-12.73-5.64-12.73l-.07,1a31.86,31.86,0,0,0,5.71,12.48c4.58,6,8.84,10.57,8.84,10.57Z"/><path class="cls-83" d="M195.14,188.74a45.67,45.67,0,0,1-10.38-8.32,27.23,27.23,0,0,1-6.8-13.34l-.6,1a30.06,30.06,0,0,0,6.92,12.41,55.62,55.62,0,0,0,11.28,9.22Z"/><path class="cls-83" d="M141.29,142.28s2.77,9.38,3,15.13S141,168.1,141,168.1l-.76-.7s4.26-5,3.52-11.19a91.48,91.48,0,0,0-2.82-13.14Z"/><path class="cls-83" d="M140.28,146.48s.81,3.76,1.48,8.36-3.72,7-3.72,7l.32-.67s3.5-2.71,3.08-6.41a62,62,0,0,0-1.11-6.53Z"/><path class="cls-83" d="M137.28,189.72a8,8,0,0,1,2.54-6.25c4.8-4,6.21-6.94,6.21-6.94l.42,1.56s-.9,2-6,5.52c-3.38,2.33-2.77,7.39-2.77,7.39Z"/><path class="cls-83" d="M171.44,144.08l.19,1.59a9.06,9.06,0,0,0,2.56,4.25c3.18,2.62,4.61,2.88,4.61,2.88s.79,10.28-1.06,14.89-1,10.5,4.75,15.36,11.14,5.57,12.66,7.32a2.35,2.35,0,0,1,0,3.26c.16-.08,2.21-1.18-.7-6.17-3-5.21-4.3-16.73-4.3-28.47,0-6-.59-9.89-1.74-12.82,0,0-1.31.44-7.08.3A23.63,23.63,0,0,1,171.44,144.08Z"/><path class="cls-47" d="M176.79,154.73s3.77-5.32,6.42-5.1c1.75.15,1.75,4.46-.05,7.08s-4.07,4.61-5.72,4.37-1.73-1.2-1.73-1.2Z"/><path class="cls-48" d="M176.79,158.33a21.63,21.63,0,0,1,2.92-4.78,10.67,10.67,0,0,1,3.9-2.49,36.57,36.57,0,0,0-3.24,3A54.26,54.26,0,0,0,176.79,158.33Z"/><path class="cls-48" d="M178.11,156.16a2.14,2.14,0,0,0,.78,1.36c.65.43,2.45-.61,2.45-.61a7.27,7.27,0,0,1-2.39,1.42c-.92.15-1.21-1.22-1.21-1.22Z"/><path class="cls-84" d="M163.11,247.61c.5,3.42,3.69,16.1,7,28.49.9,3.35,1.8,6.68,2.66,9.8,4,14.64,5,36.16,5,36.16l4.38,1s2.71-14.05,3.56-22.87v0a28.19,28.19,0,0,0,.14-5.95c-.85-5.2-3.29-13.37-4.11-17.93s.71-36.23,0-38.82-6.31-16.56-6.31-16.56C160.09,231.38,162.47,243.25,163.11,247.61Z"/><path class="cls-85" d="M180.08,325.47s.32-1.64,0-1.9a14.73,14.73,0,0,0-2.81-.54c-.21,0-1.74,2.23-3,3.45s-5.94,2.28-6.32,2.76a4.16,4.16,0,0,0-.47,1.65s5.8,1,9.78-.4a9,9,0,0,0,5.23-5.23l-.21-1.48Z"/><path class="cls-86" d="M159.5,325.32l.48,4.13a68.84,68.84,0,0,0-8.28,0c-5.14.27-8.75.53-10.18.37l-3.08-.31a1.89,1.89,0,0,1,1.43-1.22c1.17-.27,5.46-.38,7.9-1.6s4.94-3.39,5.31-3.39,1.43.37,1.27.95a2.1,2.1,0,0,1-.47.91Z"/><path class="cls-87" d="M179.71,235.25a33.11,33.11,0,0,1-6.76-2.16,22.32,22.32,0,0,1-5.06-3.08l.42,1.63a33.64,33.64,0,0,0,5.94,2.77,46.21,46.21,0,0,0,5.46,1.64Z"/><path class="cls-87" d="M178.39,235.72a120,120,0,0,1,1.32,15.2c0,6.68-.48,20.85,0,24.43s4.69,16.07,4.46,20.76-2.52,26.83-2.52,26.83l-.64-.22s2.94-25.78,2.52-28.22-4.51-18.09-4.62-19.36.08-22.71.08-24.9-1.5-14.77-1.5-14.77Z"/><path class="cls-87" d="M177.08,234.59s-1.59-5.76-2.46-8.84-2.25-7.21-2.25-7.21l-1.49-.23a70.24,70.24,0,0,1,2.92,6.63,87.91,87.91,0,0,1,2.45,9.65Z"/><path class="cls-88" d="M157.27,322.79s6.17-24.79,5.32-30.52-3.2-13.16-3.62-16.76,4.73-24.35,4.73-24.35l-.42-1.44s-5.53,23.72-5.21,25.71,4,15.59,4,18.3-5.41,29-5.41,29Z"/><path class="cls-87" d="M160.26,210.79s-1.48,11.78-1.6,17.93,5.43,23.65,5.43,23.65-6.3-19.59-6.64-22.77,1.4-17.67,1.4-17.67Z"/><polygon class="cls-89" points="157.45 216.23 160.77 181.8 182.75 185.11 177.04 219.26 157.45 216.23"/><polygon class="cls-46" points="182.75 185.11 180.66 183.76 159.23 180.26 157.01 215.83 157.45 216.23 160.77 181.8 182.75 185.11"/><path class="cls-90" d="M156.82,198.83s-.46.71.07,1.11,1.18.91,3.72,1.3A26,26,0,0,0,167,201c.56,0,11.54,9.39,17,10.78s8.91,2.15,9.92,1.64c1.66-.84-4.43-8.76-7.41-10.63s-17-3-18.58-3.85-2-2.79-2.78-3.53-2.58-1-3.85-1.73-1.54-1.35-2-1.27.11,1.46,1,2.15a21.22,21.22,0,0,0,2.28,1.3,2.9,2.9,0,0,1,.43.37,9.25,9.25,0,0,1-3.37-.58c-1.43-.64-1.21-1.49-1.21-1.49-.4,0-1.26,1.21-.7,1.88l.56.68s-.86-.51-1-.31a1.08,1.08,0,0,0-.2.91,1.65,1.65,0,0,0,.54.48s-.66-.24-.76-.12-.29.74-.06,1a2.12,2.12,0,0,0,.72.37Z"/><path class="cls-47" d="M160.26,197.33a14.14,14.14,0,0,1-2.14-.86,2.62,2.62,0,0,1-.61-.79l-.06.65s.08.19.57.46A12.47,12.47,0,0,0,160.26,197.33Z"/><path class="cls-47" d="M157,197.27a3.79,3.79,0,0,0,.86.59,8.16,8.16,0,0,0,1.36.49,7.22,7.22,0,0,1-1.55-.38A1.15,1.15,0,0,1,157,197.27Z"/><path class="cls-47" d="M156.9,198.73a8.34,8.34,0,0,0,1.1.48l.66.24s-1-.17-1.28-.27a1,1,0,0,1-.59-.45l-.06-.12Z"/><path class="cls-91" d="M170.1,276.07v0c.9,3.35,1.8,6.68,2.66,9.8,4,14.64,5,36.16,5,36.16l4.38,1s2.71-14.05,3.56-22.87v0l0-.41s-3.62-11.4-7.79-15.62S170.1,276.07,170.1,276.07Z"/><ellipse class="cls-16" cx="191.7" cy="328.87" rx="63.09" ry="14.97"/></g><path class="cls-92" d="M13.88-.59H49.12a0,0,0,0,1,0,0V356.65a0,0,0,0,1,0,0H0a0,0,0,0,1,0,0V13.29A13.88,13.88,0,0,1,13.88-.59Z"/><g class="cls-93"><polygon class="cls-34" points="-1447.47 104.13 -2287.08 901.87 230.53 1132.58 -874.07 104.13 -844.09 104.13 594.74 1218.06 -2886.3 1218.06 -1447.47 104.13"/><rect class="cls-94" x="-1940.84" y="91.58" width="2789.36" height="265.13"/><rect class="cls-1" x="-1940.81" y="-898.56" width="2789.36" height="1255.21"/></g></g></g></svg>