<svg xmlns="http://www.w3.org/2000/svg" xmlns:xlink="http://www.w3.org/1999/xlink" viewBox="0 0 282.86 356.65"><defs><style>.cls-1{fill:none;}.cls-2{isolation:isolate;}.cls-3{clip-path:url(#clip-path);}.cls-4{clip-path:url(#clip-path-2);}.cls-5{fill:#ffffe3;}.cls-6{fill:url(#Áåçûìÿííûé_ãðàäèåíò_280);}.cls-169,.cls-20,.cls-210,.cls-7{fill:#fff;}.cls-8{fill:#a21800;opacity:0.12;}.cls-10,.cls-132,.cls-136,.cls-155,.cls-156,.cls-158,.cls-162,.cls-164,.cls-165,.cls-166,.cls-184,.cls-188,.cls-191,.cls-211,.cls-215,.cls-23,.cls-25,.cls-28,.cls-29,.cls-44,.cls-8,.cls-89{mix-blend-mode:multiply;}.cls-9{fill:url(#Áåçûìÿííûé_ãðàäèåíò_89);}.cls-10,.cls-12,.cls-136{opacity:0.2;}.cls-11,.cls-25,.cls-28,.cls-29,.cls-44{fill:#a21822;}.cls-12,.cls-13,.cls-14,.cls-148,.cls-15,.cls-150,.cls-16,.cls-169,.cls-17,.cls-18,.cls-20,.cls-210{mix-blend-mode:soft-light;}.cls-12{fill:url(#Áåçûìÿííûé_ãðàäèåíò_280-2);}.cls-13,.cls-145,.cls-148,.cls-167,.cls-168,.cls-169{opacity:0.5;}.cls-13{fill:url(#Áåçûìÿííûé_ãðàäèåíò_280-3);}.cls-14{fill:url(#Áåçûìÿííûé_ãðàäèåíò_280-4);}.cls-15{fill:url(#Áåçûìÿííûé_ãðàäèåíò_280-5);}.cls-16{fill:url(#Áåçûìÿííûé_ãðàäèåíò_280-6);}.cls-17{fill:url(#Áåçûìÿííûé_ãðàäèåíò_280-7);}.cls-18{fill:url(#Áåçûìÿííûé_ãðàäèåíò_280-8);}.cls-19{fill:url(#Áåçûìÿííûé_ãðàäèåíò_280-9);}.cls-21{fill:#ffe095;}.cls-22{fill:#ffb897;}.cls-23{fill:#a2189d;}.cls-23,.cls-25{opacity:0.13;}.cls-24{fill:#952e1d;}.cls-103,.cls-105,.cls-106,.cls-107,.cls-111,.cls-112,.cls-113,.cls-125,.cls-128,.cls-172,.cls-178,.cls-179,.cls-181,.cls-26,.cls-27,.cls-31,.cls-35,.cls-37,.cls-39,.cls-48,.cls-49,.cls-61,.cls-69,.cls-72,.cls-75,.cls-78,.cls-81,.cls-84,.cls-87{opacity:0.55;}.cls-103,.cls-105,.cls-106,.cls-107,.cls-111,.cls-112,.cls-113,.cls-125,.cls-128,.cls-172,.cls-178,.cls-179,.cls-181,.cls-26,.cls-27,.cls-31,.cls-35,.cls-37,.cls-39,.cls-48,.cls-49,.cls-61,.cls-69,.cls-70,.cls-72,.cls-75,.cls-78,.cls-81,.cls-84,.cls-87{mix-blend-mode:color-dodge;}.cls-26{fill:url(#Áåçûìÿííûé_ãðàäèåíò_134);}.cls-27{fill:url(#Áåçûìÿííûé_ãðàäèåíò_113);}.cls-28{opacity:0.09;}.cls-29,.cls-89{opacity:0.3;}.cls-30{fill:url(#Áåçûìÿííûé_ãðàäèåíò_108);}.cls-31{fill:url(#Áåçûìÿííûé_ãðàäèåíò_134-2);}.cls-32{fill:url(#Áåçûìÿííûé_ãðàäèåíò_98);}.cls-33{fill:url(#Áåçûìÿííûé_ãðàäèåíò_105);}.cls-34{fill:url(#Áåçûìÿííûé_ãðàäèåíò_108-2);}.cls-35{fill:url(#Áåçûìÿííûé_ãðàäèåíò_134-3);}.cls-36{fill:url(#Áåçûìÿííûé_ãðàäèåíò_29);}.cls-37{fill:url(#Áåçûìÿííûé_ãðàäèåíò_113-2);}.cls-38{fill:url(#Áåçûìÿííûé_ãðàäèåíò_19);}.cls-39{fill:url(#Áåçûìÿííûé_ãðàäèåíò_134-4);}.cls-40{fill:url(#Áåçûìÿííûé_ãðàäèåíò_114);}.cls-41{fill:url(#Áåçûìÿííûé_ãðàäèåíò_19-2);}.cls-42{fill:url(#Áåçûìÿííûé_ãðàäèåíò_19-3);}.cls-43{fill:url(#Áåçûìÿííûé_ãðàäèåíò_28);}.cls-44{opacity:0.14;}.cls-45{fill:url(#Áåçûìÿííûé_ãðàäèåíò_267);}.cls-46{fill:url(#Áåçûìÿííûé_ãðàäèåíò_114-2);}.cls-47{fill:url(#Áåçûìÿííûé_ãðàäèåíò_28-2);}.cls-48{fill:url(#Áåçûìÿííûé_ãðàäèåíò_134-5);}.cls-49{fill:url(#Áåçûìÿííûé_ãðàäèåíò_113-3);}.cls-50{fill:#00555a;}.cls-51{fill:url(#Áåçûìÿííûé_ãðàäèåíò_280-10);}.cls-52{fill:#009098;}.cls-53{fill:#0b6661;}.cls-54{fill:#00caca;}.cls-55{fill:url(#Áåçûìÿííûé_ãðàäèåíò_108-3);}.cls-56{fill:url(#Áåçûìÿííûé_ãðàäèåíò_108-4);}.cls-57{fill:url(#Áåçûìÿííûé_ãðàäèåíò_114-3);}.cls-58{fill:url(#Áåçûìÿííûé_ãðàäèåíò_114-4);}.cls-59{fill:url(#Áåçûìÿííûé_ãðàäèåíò_114-5);}.cls-60{fill:url(#Áåçûìÿííûé_ãðàäèåíò_267-2);}.cls-61{fill:url(#Áåçûìÿííûé_ãðàäèåíò_134-6);}.cls-62{fill:#bb315e;}.cls-63{fill:url(#Áåçûìÿííûé_ãðàäèåíò_135);}.cls-64{fill:url(#Áåçûìÿííûé_ãðàäèåíò_114-6);}.cls-65{fill:url(#Áåçûìÿííûé_ãðàäèåíò_135-2);}.cls-66{fill:url(#Áåçûìÿííûé_ãðàäèåíò_114-7);}.cls-67{fill:url(#Áåçûìÿííûé_ãðàäèåíò_267-3);}.cls-68{fill:url(#Áåçûìÿííûé_ãðàäèåíò_114-8);}.cls-69{fill:url(#Áåçûìÿííûé_ãðàäèåíò_134-7);}.cls-184,.cls-188,.cls-191,.cls-70{opacity:0.53;}.cls-70{fill:url(#Áåçûìÿííûé_ãðàäèåíò_134-8);}.cls-71{fill:url(#Áåçûìÿííûé_ãðàäèåíò_81);}.cls-72{fill:url(#Áåçûìÿííûé_ãðàäèåíò_134-9);}.cls-73{fill:url(#Áåçûìÿííûé_ãðàäèåíò_146);}.cls-74{fill:url(#Áåçûìÿííûé_ãðàäèåíò_81-2);}.cls-75{fill:url(#Áåçûìÿííûé_ãðàäèåíò_134-10);}.cls-76{fill:url(#Áåçûìÿííûé_ãðàäèåíò_146-2);}.cls-77{fill:url(#Áåçûìÿííûé_ãðàäèåíò_81-3);}.cls-78{fill:url(#Áåçûìÿííûé_ãðàäèåíò_134-11);}.cls-79{fill:url(#Áåçûìÿííûé_ãðàäèåíò_146-3);}.cls-80{fill:url(#Áåçûìÿííûé_ãðàäèåíò_81-4);}.cls-81{fill:url(#Áåçûìÿííûé_ãðàäèåíò_134-12);}.cls-82{fill:url(#Áåçûìÿííûé_ãðàäèåíò_146-4);}.cls-83{fill:url(#Áåçûìÿííûé_ãðàäèåíò_81-5);}.cls-84{fill:url(#Áåçûìÿííûé_ãðàäèåíò_134-13);}.cls-85{fill:url(#Áåçûìÿííûé_ãðàäèåíò_146-5);}.cls-86{fill:url(#Áåçûìÿííûé_ãðàäèåíò_81-6);}.cls-87{fill:url(#Áåçûìÿííûé_ãðàäèåíò_134-14);}.cls-88{fill:url(#Áåçûìÿííûé_ãðàäèåíò_146-6);}.cls-90{fill:url(#Áåçûìÿííûé_ãðàäèåíò_196);}.cls-91{fill:url(#Áåçûìÿííûé_ãðàäèåíò_196-2);}.cls-92{fill:url(#Áåçûìÿííûé_ãðàäèåíò_196-3);}.cls-93{fill:url(#Áåçûìÿííûé_ãðàäèåíò_196-4);}.cls-94{fill:url(#Áåçûìÿííûé_ãðàäèåíò_196-5);}.cls-95{fill:url(#Áåçûìÿííûé_ãðàäèåíò_196-6);}.cls-96{fill:url(#Áåçûìÿííûé_ãðàäèåíò_196-7);}.cls-97{fill:url(#Áåçûìÿííûé_ãðàäèåíò_19-4);}.cls-98{fill:url(#Áåçûìÿííûé_ãðàäèåíò_114-9);}.cls-99{fill:url(#Áåçûìÿííûé_ãðàäèåíò_280-11);}.cls-100{fill:url(#Áåçûìÿííûé_ãðàäèåíò_267-4);}.cls-101{fill:#2e0624;}.cls-102{fill:url(#Áåçûìÿííûé_ãðàäèåíò_196-8);}.cls-103{fill:url(#Áåçûìÿííûé_ãðàäèåíò_134-15);}.cls-104{fill:url(#Áåçûìÿííûé_ãðàäèåíò_196-9);}.cls-105{fill:url(#Áåçûìÿííûé_ãðàäèåíò_134-16);}.cls-106{fill:url(#Áåçûìÿííûé_ãðàäèåíò_134-17);}.cls-107{fill:url(#Áåçûìÿííûé_ãðàäèåíò_134-18);}.cls-108{fill:url(#Áåçûìÿííûé_ãðàäèåíò_19-5);}.cls-109{fill:url(#Áåçûìÿííûé_ãðàäèåíò_114-10);}.cls-110{fill:url(#Áåçûìÿííûé_ãðàäèåíò_280-12);}.cls-111{fill:url(#Áåçûìÿííûé_ãðàäèåíò_134-19);}.cls-112{fill:url(#Áåçûìÿííûé_ãðàäèåíò_134-20);}.cls-113{fill:url(#Áåçûìÿííûé_ãðàäèåíò_134-21);}.cls-114{fill:url(#Áåçûìÿííûé_ãðàäèåíò_196-10);}.cls-115{fill:url(#Áåçûìÿííûé_ãðàäèåíò_196-11);}.cls-116{fill:#7c5e88;}.cls-117{fill:url(#Áåçûìÿííûé_ãðàäèåíò_196-12);}.cls-118{fill:url(#Áåçûìÿííûé_ãðàäèåíò_196-13);}.cls-119{fill:url(#Áåçûìÿííûé_ãðàäèåíò_196-14);}.cls-120{fill:url(#Áåçûìÿííûé_ãðàäèåíò_196-15);}.cls-121{fill:url(#Áåçûìÿííûé_ãðàäèåíò_196-16);}.cls-122{fill:url(#Áåçûìÿííûé_ãðàäèåíò_196-17);}.cls-123{fill:url(#Áåçûìÿííûé_ãðàäèåíò_114-11);}.cls-124{fill:url(#Áåçûìÿííûé_ãðàäèåíò_19-6);}.cls-125{fill:url(#Áåçûìÿííûé_ãðàäèåíò_134-22);}.cls-126{fill:url(#Áåçûìÿííûé_ãðàäèåíò_19-7);}.cls-127{fill:url(#Áåçûìÿííûé_ãðàäèåíò_114-12);}.cls-128{fill:url(#Áåçûìÿííûé_ãðàäèåíò_134-23);}.cls-129{fill:url(#Áåçûìÿííûé_ãðàäèåíò_43);}.cls-130{fill:#29163b;}.cls-131{fill:url(#Áåçûìÿííûé_ãðàäèåíò_43-2);}.cls-132{fill:#8d00a2;}.cls-132,.cls-156,.cls-164,.cls-165,.cls-211,.cls-215{opacity:0.29;}.cls-133{fill:url(#Áåçûìÿííûé_ãðàäèåíò_280-13);}.cls-134{fill:url(#Áåçûìÿííûé_ãðàäèåíò_33);}.cls-135{fill:#6d2900;}.cls-136{fill:#6a2808;}.cls-137,.cls-145{fill:#da6951;}.cls-138{fill:#ffb497;}.cls-139{fill:#f08364;}.cls-140{fill:#793000;}.cls-141{fill:#ffffd8;}.cls-142{fill:#3f1b08;}.cls-143{fill:#873101;}.cls-144{fill:#984e25;}.cls-146{fill:url(#Áåçûìÿííûé_ãðàäèåíò_152);}.cls-147{fill:url(#Áåçûìÿííûé_ãðàäèåíò_50);}.cls-148,.cls-150{fill:#ffccb3;}.cls-149{fill:#873901;}.cls-151{fill:#b86527;}.cls-152{fill:#f8773c;}.cls-153{fill:url(#Áåçûìÿííûé_ãðàäèåíò_17);}.cls-154{fill:url(#Áåçûìÿííûé_ãðàäèåíò_33-2);}.cls-155,.cls-158,.cls-166{opacity:0.75;}.cls-155{fill:url(#Áåçûìÿííûé_ãðàäèåíò_58);}.cls-156{fill:url(#Áåçûìÿííûé_ãðàäèåíò_58-2);}.cls-157{fill:#009897;}.cls-158{fill:url(#Áåçûìÿííûé_ãðàäèåíò_58-3);}.cls-159{fill:url(#Áåçûìÿííûé_ãðàäèåíò_280-14);}.cls-160{fill:url(#Áåçûìÿííûé_ãðàäèåíò_152-2);}.cls-161{fill:url(#Áåçûìÿííûé_ãðàäèåíò_65);}.cls-162{opacity:0.4;fill:url(#Áåçûìÿííûé_ãðàäèåíò_58-4);}.cls-163{fill:url(#Áåçûìÿííûé_ãðàäèåíò_152-3);}.cls-164{fill:url(#Áåçûìÿííûé_ãðàäèåíò_58-5);}.cls-165{fill:url(#Áåçûìÿííûé_ãðàäèåíò_58-6);}.cls-166{fill:url(#Áåçûìÿííûé_ãðàäèåíò_58-7);}.cls-167{fill:#f0f;}.cls-168{fill:#ffb54c;}.cls-170{fill:url(#Áåçûìÿííûé_ãðàäèåíò_280-15);}.cls-171{fill:url(#Áåçûìÿííûé_ãðàäèåíò_19-8);}.cls-172{fill:url(#Áåçûìÿííûé_ãðàäèåíò_134-24);}.cls-173{fill:url(#Áåçûìÿííûé_ãðàäèåíò_114-13);}.cls-174{fill:url(#Áåçûìÿííûé_ãðàäèåíò_105-2);}.cls-175{fill:url(#Áåçûìÿííûé_ãðàäèåíò_138);}.cls-176{fill:url(#Áåçûìÿííûé_ãðàäèåíò_105-3);}.cls-177{fill:url(#Áåçûìÿííûé_ãðàäèåíò_138-2);}.cls-178{fill:url(#Áåçûìÿííûé_ãðàäèåíò_113-4);}.cls-179{fill:url(#Áåçûìÿííûé_ãðàäèåíò_113-5);}.cls-180{fill:url(#Áåçûìÿííûé_ãðàäèåíò_19-9);}.cls-181{fill:url(#Áåçûìÿííûé_ãðàäèåíò_134-25);}.cls-182{fill:url(#Áåçûìÿííûé_ãðàäèåíò_114-14);}.cls-183{fill:#e7ca00;}.cls-184{fill:#ffc017;}.cls-185{fill:url(#Áåçûìÿííûé_ãðàäèåíò_130);}.cls-186{fill:#63001b;}.cls-187{fill:url(#Áåçûìÿííûé_ãðàäèåíò_15);}.cls-188{fill:#a4004c;}.cls-189{fill:url(#Áåçûìÿííûé_ãðàäèåíò_130-2);}.cls-190{fill:#0072b9;}.cls-191{fill:#843bae;}.cls-192{fill:url(#Áåçûìÿííûé_ãðàäèåíò_130-3);}.cls-193{fill:#00b320;}.cls-194{fill:url(#Áåçûìÿííûé_ãðàäèåíò_130-4);}.cls-195{fill:#006193;}.cls-196{fill:#369de2;}.cls-197{fill:#ffb400;}.cls-198{fill:#ffe300;}.cls-199,.cls-211{fill:#90009c;}.cls-200{fill:#b9009c;}.cls-201{fill:#004a68;}.cls-202{fill:#367088;}.cls-203{fill:#368b86;}.cls-204{fill:#36c29f;}.cls-205{fill:#c72000;}.cls-206{fill:#ee2000;}.cls-207{fill:#007d38;}.cls-208{fill:#36bd5e;}.cls-209{fill:url(#Áåçûìÿííûé_ãðàäèåíò_222);}.cls-210{opacity:0.68;}.cls-212{fill:url(#Áåçûìÿííûé_ãðàäèåíò_81-7);}.cls-213{fill:url(#Gradiente_sem_nome_143);}.cls-214{clip-path:url(#clip-path-3);}.cls-215{fill:#a1132d;}.cls-216{fill:url(#Áåçûìÿííûé_ãðàäèåíò_280-16);}</style><clipPath id="clip-path"><rect class="cls-1" width="233.74" height="356.36"/></clipPath><clipPath id="clip-path-2"><rect class="cls-1" x="-91.56" y="-44.67" width="721.62" height="446.68"/></clipPath><linearGradient id="Áåçûìÿííûé_ãðàäèåíò_280" x1="-1.27" y1="-3.11" x2="630.06" y2="-3.11" gradientUnits="userSpaceOnUse"><stop offset="0" stop-color="#ffffd3"/><stop offset="1" stop-color="#ffdcc2"/></linearGradient><linearGradient id="Áåçûìÿííûé_ãðàäèåíò_89" x1="269.25" y1="361.24" x2="269.25" y2="223.63" gradientUnits="userSpaceOnUse"><stop offset="0" stop-color="#ffab98"/><stop offset="1" stop-color="#ffecac"/></linearGradient><linearGradient id="Áåçûìÿííûé_ãðàäèåíò_280-2" x1="83.6" y1="314.32" x2="304.34" y2="314.32" xlink:href="#Áåçûìÿííûé_ãðàäèåíò_280"/><linearGradient id="Áåçûìÿííûé_ãðàäèåíò_280-3" x1="-91.56" y1="321.36" x2="196.33" y2="321.36" xlink:href="#Áåçûìÿííûé_ãðàäèåíò_280"/><linearGradient id="Áåçûìÿííûé_ãðàäèåíò_280-4" x1="83.6" y1="320.45" x2="304.34" y2="320.45" xlink:href="#Áåçûìÿííûé_ãðàäèåíò_280"/><linearGradient id="Áåçûìÿííûé_ãðàäèåíò_280-5" x1="227.83" y1="303.45" x2="405.91" y2="303.45" xlink:href="#Áåçûìÿííûé_ãðàäèåíò_280"/><linearGradient id="Áåçûìÿííûé_ãðàäèåíò_280-6" x1="173.25" y1="272.87" x2="352.68" y2="272.87" xlink:href="#Áåçûìÿííûé_ãðàäèåíò_280"/><linearGradient id="Áåçûìÿííûé_ãðàäèåíò_280-7" x1="277.65" y1="265.38" x2="425.8" y2="265.38" xlink:href="#Áåçûìÿííûé_ãðàäèåíò_280"/><linearGradient id="Áåçûìÿííûé_ãðàäèåíò_280-8" x1="36.06" y1="284.97" x2="253.64" y2="284.97" xlink:href="#Áåçûìÿííûé_ãðàäèåíò_280"/><linearGradient id="Áåçûìÿííûé_ãðàäèåíò_280-9" x1="100.91" y1="305.76" x2="532.83" y2="305.76" xlink:href="#Áåçûìÿííûé_ãðàäèåíò_280"/><linearGradient id="Áåçûìÿííûé_ãðàäèåíò_134" x1="167.49" y1="311.73" x2="501.12" y2="311.73" gradientUnits="userSpaceOnUse"><stop offset="0"/><stop offset="1" stop-color="#595639"/></linearGradient><linearGradient id="Áåçûìÿííûé_ãðàäèåíò_113" x1="52.89" y1="254.04" x2="52.89" y2="237.16" gradientUnits="userSpaceOnUse"><stop offset="0" stop-color="#595639"/><stop offset="1"/></linearGradient><linearGradient id="Áåçûìÿííûé_ãðàäèåíò_108" x1="166.96" y1="324.57" x2="166.96" y2="212.97" gradientUnits="userSpaceOnUse"><stop offset="0" stop-color="#ffab5e"/><stop offset="1" stop-color="#ffd7ac"/></linearGradient><linearGradient id="Áåçûìÿííûé_ãðàäèåíò_134-2" x1="163.82" y1="324.57" x2="163.82" y2="212.97" xlink:href="#Áåçûìÿííûé_ãðàäèåíò_134"/><linearGradient id="Áåçûìÿííûé_ãðàäèåíò_98" x1="163.07" y1="324.57" x2="163.07" y2="212.97" gradientUnits="userSpaceOnUse"><stop offset="0" stop-color="#fe8c32"/><stop offset="1" stop-color="#c5461f"/></linearGradient><linearGradient id="Áåçûìÿííûé_ãðàäèåíò_105" x1="-351.51" y1="574.65" x2="-200.27" y2="574.65" gradientTransform="matrix(1, 0.06, -0.06, 1, 418.66, -312.86)" gradientUnits="userSpaceOnUse"><stop offset="0" stop-color="#ffab5e"/><stop offset="1" stop-color="#ffa647"/></linearGradient><linearGradient id="Áåçûìÿííûé_ãðàäèåíò_108-2" x1="-351.51" y1="570.39" x2="-200.64" y2="570.39" gradientTransform="matrix(1, 0.06, -0.06, 1, 418.66, -312.86)" xlink:href="#Áåçûìÿííûé_ãðàäèåíò_108"/><linearGradient id="Áåçûìÿííûé_ãðàäèåíò_134-3" x1="-330.01" y1="571.43" x2="-206.26" y2="571.43" gradientTransform="matrix(1, 0.06, -0.06, 1, 418.66, -312.86)" xlink:href="#Áåçûìÿííûé_ãðàäèåíò_134"/><linearGradient id="Áåçûìÿííûé_ãðàäèåíò_29" x1="71.01" y1="249.71" x2="71.01" y2="232.14" gradientUnits="userSpaceOnUse"><stop offset="0" stop-color="#ffe0ae"/><stop offset="1" stop-color="#ffffe3"/></linearGradient><linearGradient id="Áåçûìÿííûé_ãðàäèåíò_113-2" x1="-254.16" y1="589.66" x2="-254.16" y2="568.19" gradientTransform="matrix(1, 0.06, -0.06, 1, 418.66, -312.86)" xlink:href="#Áåçûìÿííûé_ãðàäèåíò_113"/><linearGradient id="Áåçûìÿííûé_ãðàäèåíò_19" x1="55.73" y1="353.12" x2="55.73" y2="231.2" gradientUnits="userSpaceOnUse"><stop offset="0" stop-color="#ff885e"/><stop offset="1" stop-color="#ffd7ac"/></linearGradient><linearGradient id="Áåçûìÿííûé_ãðàäèåíò_134-4" x1="51.51" y1="353.12" x2="51.51" y2="231.2" xlink:href="#Áåçûìÿííûé_ãðàäèåíò_134"/><linearGradient id="Áåçûìÿííûé_ãðàäèåíò_114" x1="50.68" y1="353.12" x2="50.68" y2="231.2" gradientUnits="userSpaceOnUse"><stop offset="0" stop-color="#c5461f"/><stop offset="1" stop-color="#fe8c32"/></linearGradient><linearGradient id="Áåçûìÿííûé_ãðàäèåíò_19-2" x1="48.87" y1="267.81" x2="48.87" y2="243.4" xlink:href="#Áåçûìÿííûé_ãðàäèåíò_19"/><linearGradient id="Áåçûìÿííûé_ãðàäèåíò_19-3" x1="72.44" y1="267.83" x2="72.44" y2="263.26" xlink:href="#Áåçûìÿííûé_ãðàäèåíò_19"/><linearGradient id="Áåçûìÿííûé_ãðàäèåíò_28" x1="20.78" y1="254.89" x2="65.99" y2="254.89" gradientUnits="userSpaceOnUse"><stop offset="0" stop-color="#ffe0ae"/><stop offset="1" stop-color="#ffb68d"/></linearGradient><linearGradient id="Áåçûìÿííûé_ãðàäèåíò_267" x1="62" y1="272.37" x2="65.81" y2="252.41" gradientUnits="userSpaceOnUse"><stop offset="0" stop-color="#fff3bd"/><stop offset="1" stop-color="#fca"/></linearGradient><linearGradient id="Áåçûìÿííûé_ãðàäèåíò_114-2" x1="52.89" y1="254.04" x2="52.89" y2="236.85" xlink:href="#Áåçûìÿííûé_ãðàäèåíò_114"/><linearGradient id="Áåçûìÿííûé_ãðàäèåíò_28-2" x1="20.25" y1="252.6" x2="71.9" y2="252.6" xlink:href="#Áåçûìÿííûé_ãðàäèåíò_28"/><linearGradient id="Áåçûìÿííûé_ãðàäèåíò_134-5" x1="21.54" y1="250.22" x2="59.11" y2="252.32" xlink:href="#Áåçûìÿííûé_ãðàäèåíò_134"/><linearGradient id="Áåçûìÿííûé_ãðàäèåíò_113-3" x1="43.87" y1="237.96" x2="99.04" y2="241.05" xlink:href="#Áåçûìÿííûé_ãðàäèåíò_113"/><linearGradient id="Áåçûìÿííûé_ãðàäèåíò_280-10" x1="-383.9" y1="613.18" x2="-322.8" y2="613.18" gradientTransform="translate(479.34 -354.22) rotate(3.67)" xlink:href="#Áåçûìÿííûé_ãðàäèåíò_280"/><linearGradient id="Áåçûìÿííûé_ãðàäèåíò_108-3" x1="-381.78" y1="601.52" x2="-360.17" y2="601.52" gradientTransform="translate(479.34 -354.22) rotate(3.67)" xlink:href="#Áåçûìÿííûé_ãðàäèåíò_108"/><linearGradient id="Áåçûìÿííûé_ãðàäèåíò_108-4" x1="-380.54" y1="601.52" x2="-358.93" y2="601.52" gradientTransform="translate(479.34 -354.22) rotate(3.67)" xlink:href="#Áåçûìÿííûé_ãðàäèåíò_108"/><linearGradient id="Áåçûìÿííûé_ãðàäèåíò_114-3" x1="-379.75" y1="609.56" x2="-379.75" y2="595.96" gradientTransform="translate(479.34 -354.22) rotate(3.67)" xlink:href="#Áåçûìÿííûé_ãðàäèåíò_114"/><linearGradient id="Áåçûìÿííûé_ãðàäèåíò_114-4" x1="-378.51" y1="609.56" x2="-378.51" y2="595.96" gradientTransform="translate(479.34 -354.22) rotate(3.67)" xlink:href="#Áåçûìÿííûé_ãðàäèåíò_114"/><linearGradient id="Áåçûìÿííûé_ãðàäèåíò_114-5" x1="-375.99" y1="609.43" x2="-375.99" y2="595.83" gradientTransform="translate(479.34 -354.22) rotate(3.67)" xlink:href="#Áåçûìÿííûé_ãðàäèåíò_114"/><linearGradient id="Áåçûìÿííûé_ãðàäèåíò_267-2" x1="-378.01" y1="601.39" x2="-356.4" y2="601.39" gradientTransform="translate(479.34 -354.22) rotate(3.67)" xlink:href="#Áåçûìÿííûé_ãðàäèåíò_267"/><linearGradient id="Áåçûìÿííûé_ãðàäèåíò_134-6" x1="-376.96" y1="600.33" x2="-356.96" y2="600.33" gradientTransform="translate(479.34 -354.22) rotate(3.67)" xlink:href="#Áåçûìÿííûé_ãðàäèåíò_134"/><linearGradient id="Áåçûìÿííûé_ãðàäèåíò_135" x1="-293.14" y1="555.24" x2="-266.69" y2="555.24" gradientTransform="translate(391.46 -294.72) rotate(3)" gradientUnits="userSpaceOnUse"><stop offset="0" stop-color="#ffdcc2"/><stop offset="1" stop-color="#ffffd3"/></linearGradient><linearGradient id="Áåçûìÿííûé_ãðàäèåíò_114-6" x1="-279.91" y1="559.25" x2="-279.91" y2="553.98" gradientTransform="translate(391.46 -294.72) rotate(3)" xlink:href="#Áåçûìÿííûé_ãðàäèåíò_114"/><linearGradient id="Áåçûìÿííûé_ãðàäèåíò_135-2" x1="-237.37" y1="548.58" x2="-210.92" y2="548.58" xlink:href="#Áåçûìÿííûé_ãðàäèåíò_135"/><linearGradient id="Áåçûìÿííûé_ãðàäèåíò_114-7" x1="-224.14" y1="552.59" x2="-224.14" y2="547.32" gradientTransform="translate(391.46 -294.72) rotate(3)" xlink:href="#Áåçûìÿííûé_ãðàäèåíò_114"/><linearGradient id="Áåçûìÿííûé_ãðàäèåíò_267-3" x1="235.98" y1="245.46" x2="235.98" y2="135.74" xlink:href="#Áåçûìÿííûé_ãðàäèåíò_267"/><linearGradient id="Áåçûìÿííûé_ãðàäèåíò_114-8" x1="201.11" y1="245.46" x2="201.11" y2="135.74" xlink:href="#Áåçûìÿííûé_ãðàäèåíò_114"/><linearGradient id="Áåçûìÿííûé_ãðàäèåíò_134-7" x1="235.98" y1="234.44" x2="235.98" y2="136.97" xlink:href="#Áåçûìÿííûé_ãðàäèåíò_134"/><linearGradient id="Áåçûìÿííûé_ãðàäèåíò_134-8" x1="233.92" y1="237.85" x2="233.92" y2="138.78" xlink:href="#Áåçûìÿííûé_ãðàäèåíò_134"/><linearGradient id="Áåçûìÿííûé_ãðàäèåíò_81" x1="230.78" y1="232.16" x2="230.78" y2="211.29" gradientUnits="userSpaceOnUse"><stop offset="0" stop-color="#1f7c93"/><stop offset="1" stop-color="#36c98e"/></linearGradient><linearGradient id="Áåçûìÿííûé_ãðàäèåíò_134-9" x1="230.78" y1="221.61" x2="234.56" y2="221.61" xlink:href="#Áåçûìÿííûé_ãðàäèåíò_134"/><linearGradient id="Áåçûìÿííûé_ãðàäèåíò_146" x1="226.71" y1="211.29" x2="234.85" y2="211.29" gradientUnits="userSpaceOnUse"><stop offset="0" stop-color="#1fedcf"/><stop offset="1" stop-color="#a4f9a9"/></linearGradient><linearGradient id="Áåçûìÿííûé_ãðàäèåíò_81-2" x1="217.54" y1="199.09" x2="217.54" y2="178.67" xlink:href="#Áåçûìÿííûé_ãðàäèåíò_81"/><linearGradient id="Áåçûìÿííûé_ãðàäèåíò_134-10" x1="217.54" y1="188.99" x2="221.32" y2="188.99" xlink:href="#Áåçûìÿííûé_ãðàäèåíò_134"/><linearGradient id="Áåçûìÿííûé_ãðàäèåíò_146-2" x1="213.47" y1="178.67" x2="221.61" y2="178.67" xlink:href="#Áåçûìÿííûé_ãðàäèåíò_146"/><linearGradient id="Áåçûìÿííûé_ãðàäèåíò_81-3" x1="238.85" y1="199.09" x2="238.85" y2="178.67" xlink:href="#Áåçûìÿííûé_ãðàäèåíò_81"/><linearGradient id="Áåçûìÿííûé_ãðàäèåíò_134-11" x1="238.85" y1="188.99" x2="242.64" y2="188.99" xlink:href="#Áåçûìÿííûé_ãðàäèåíò_134"/><linearGradient id="Áåçûìÿííûé_ãðàäèåíò_146-3" x1="234.78" y1="178.67" x2="242.93" y2="178.67" xlink:href="#Áåçûìÿííûé_ãðàäèåíò_146"/><linearGradient id="Áåçûìÿííûé_ãðàäèåíò_81-4" x1="227.52" y1="164.36" x2="227.52" y2="143.94" xlink:href="#Áåçûìÿííûé_ãðàäèåíò_81"/><linearGradient id="Áåçûìÿííûé_ãðàäèåíò_134-12" x1="227.52" y1="154.26" x2="231.3" y2="154.26" xlink:href="#Áåçûìÿííûé_ãðàäèåíò_134"/><linearGradient id="Áåçûìÿííûé_ãðàäèåíò_146-4" x1="223.44" y1="143.94" x2="231.59" y2="143.94" xlink:href="#Áåçûìÿííûé_ãðàäèåíò_146"/><linearGradient id="Áåçûìÿííûé_ãðàäèåíò_81-5" x1="248.86" y1="164.36" x2="248.86" y2="143.94" xlink:href="#Áåçûìÿííûé_ãðàäèåíò_81"/><linearGradient id="Áåçûìÿííûé_ãðàäèåíò_134-13" x1="248.86" y1="154.26" x2="252.65" y2="154.26" xlink:href="#Áåçûìÿííûé_ãðàäèåíò_134"/><linearGradient id="Áåçûìÿííûé_ãðàäèåíò_146-5" x1="244.79" y1="143.9" x2="252.94" y2="143.9" xlink:href="#Áåçûìÿííûé_ãðàäèåíò_146"/><linearGradient id="Áåçûìÿííûé_ãðàäèåíò_81-6" x1="249.46" y1="229.12" x2="249.46" y2="210.65" xlink:href="#Áåçûìÿííûé_ãðàäèåíò_81"/><linearGradient id="Áåçûìÿííûé_ãðàäèåíò_134-14" x1="249.46" y1="219.79" x2="252.81" y2="219.79" xlink:href="#Áåçûìÿííûé_ãðàäèåíò_134"/><linearGradient id="Áåçûìÿííûé_ãðàäèåíò_146-6" x1="245.85" y1="210.65" x2="253.06" y2="210.65" xlink:href="#Áåçûìÿííûé_ãðàäèåíò_146"/><linearGradient id="Áåçûìÿííûé_ãðàäèåíò_196" x1="226.23" y1="215.78" x2="226.23" y2="210.3" gradientUnits="userSpaceOnUse"><stop offset="0" stop-color="#39223b"/><stop offset="1" stop-color="#773b64"/></linearGradient><linearGradient id="Áåçûìÿííûé_ãðàäèåíò_196-2" x1="241.11" y1="235.19" x2="241.11" y2="229.02" xlink:href="#Áåçûìÿííûé_ãðàäèåíò_196"/><linearGradient id="Áåçûìÿííûé_ãðàäèåíò_196-3" x1="233.86" y1="211.1" x2="233.86" y2="199.08" xlink:href="#Áåçûìÿííûé_ãðàäèåíò_196"/><linearGradient id="Áåçûìÿííûé_ãðàäèåíò_196-4" x1="228.7" y1="179" x2="228.7" y2="176.86" xlink:href="#Áåçûìÿííûé_ãðàäèåíò_196"/><linearGradient id="Áåçûìÿííûé_ãðàäèåíò_196-5" x1="245.11" y1="200.9" x2="245.11" y2="164.27" xlink:href="#Áåçûìÿííûé_ãðàäèåíò_196"/><linearGradient id="Áåçûìÿííûé_ãðàäèåíò_196-6" x1="237.79" y1="143.94" x2="237.79" y2="141.06" xlink:href="#Áåçûìÿííûé_ãðàäèåíò_196"/><linearGradient id="Áåçûìÿííûé_ãðàäèåíò_196-7" x1="227.5" y1="169.34" x2="227.5" y2="164.35" xlink:href="#Áåçûìÿííûé_ãðàäèåíò_196"/><linearGradient id="Áåçûìÿííûé_ãðàäèåíò_19-4" x1="296.46" y1="173.64" x2="296.46" y2="155.36" xlink:href="#Áåçûìÿííûé_ãðàäèåíò_19"/><linearGradient id="Áåçûìÿííûé_ãðàäèåíò_114-9" x1="277.59" y1="173.63" x2="277.59" y2="154.34" xlink:href="#Áåçûìÿííûé_ãðàäèåíò_114"/><linearGradient id="Áåçûìÿííûé_ãðàäèåíò_280-11" x1="280.16" y1="154.86" x2="318.56" y2="154.86" xlink:href="#Áåçûìÿííûé_ãðàäèåíò_280"/><linearGradient id="Áåçûìÿííûé_ãðàäèåíò_267-4" x1="274.03" y1="159.21" x2="280.34" y2="126.22" xlink:href="#Áåçûìÿííûé_ãðàäèåíò_267"/><linearGradient id="Áåçûìÿííûé_ãðàäèåíò_196-8" x1="11807.38" y1="14282.73" x2="11807.38" y2="14278.05" gradientTransform="translate(12137.11 14361.07) rotate(179.79)" xlink:href="#Áåçûìÿííûé_ãðàäèåíò_196"/><linearGradient id="Áåçûìÿííûé_ãðàäèåíò_134-15" x1="11807.07" y1="14281.67" x2="11807.07" y2="14279.11" gradientTransform="translate(12137.11 14361.07) rotate(179.79)" xlink:href="#Áåçûìÿííûé_ãðàäèåíò_134"/><linearGradient id="Áåçûìÿííûé_ãðàäèåíò_196-9" x1="277.9" y1="161.07" x2="277.9" y2="156.4" xlink:href="#Áåçûìÿííûé_ãðàäèåíò_196"/><linearGradient id="Áåçûìÿííûé_ãðàäèåíò_134-16" x1="277.59" y1="160.02" x2="277.59" y2="157.45" xlink:href="#Áåçûìÿííûé_ãðàäèåíò_134"/><linearGradient id="Áåçûìÿííûé_ãðàäèåíò_134-17" x1="300.29" y1="155.37" x2="300.29" y2="154.34" xlink:href="#Áåçûìÿííûé_ãðàäèåíò_134"/><linearGradient id="Áåçûìÿííûé_ãðàäèåíò_134-18" x1="299.98" y1="171.09" x2="299.98" y2="155.91" xlink:href="#Áåçûìÿííûé_ãðàäèåíò_134"/><linearGradient id="Áåçûìÿííûé_ãðàäèåíò_19-5" x1="296.69" y1="231.26" x2="296.69" y2="197.1" xlink:href="#Áåçûìÿííûé_ãðàäèåíò_19"/><linearGradient id="Áåçûìÿííûé_ãðàäèåíò_114-10" x1="275.58" y1="231.26" x2="275.58" y2="199.3" xlink:href="#Áåçûìÿííûé_ãðàäèåíò_114"/><linearGradient id="Áåçûìÿííûé_ãðàäèåíò_280-12" x1="274.54" y1="198.38" x2="317.47" y2="198.38" xlink:href="#Áåçûìÿííûé_ãðàäèåíò_280"/><linearGradient id="Áåçûìÿííûé_ãðàäèåíò_134-19" x1="276.46" y1="214.1" x2="316.42" y2="214.1" xlink:href="#Áåçûìÿííûé_ãðàäèåíò_134"/><linearGradient id="Áåçûìÿííûé_ãðàäèåíò_134-20" x1="277.01" y1="198.57" x2="317.47" y2="198.57" xlink:href="#Áåçûìÿííûé_ãðàäèåíò_134"/><linearGradient id="Áåçûìÿííûé_ãðàäèåíò_134-21" x1="275.9" y1="215.83" x2="277.67" y2="215.83" xlink:href="#Áåçûìÿííûé_ãðàäèåíò_134"/><linearGradient id="Áåçûìÿííûé_ãðàäèåíò_196-10" x1="280.78" y1="205.16" x2="280.78" y2="203.21" xlink:href="#Áåçûìÿííûé_ãðàäèåíò_196"/><linearGradient id="Áåçûìÿííûé_ãðàäèåíò_196-11" x1="281.3" y1="205.37" x2="281.3" y2="203.21" xlink:href="#Áåçûìÿííûé_ãðàäèåíò_196"/><linearGradient id="Áåçûìÿííûé_ãðàäèåíò_196-12" x1="280.78" y1="212.06" x2="280.78" y2="210.11" xlink:href="#Áåçûìÿííûé_ãðàäèåíò_196"/><linearGradient id="Áåçûìÿííûé_ãðàäèåíò_196-13" x1="281.3" y1="212.27" x2="281.3" y2="210.11" xlink:href="#Áåçûìÿííûé_ãðàäèåíò_196"/><linearGradient id="Áåçûìÿííûé_ãðàäèåíò_196-14" x1="280.78" y1="219.06" x2="280.78" y2="217.11" xlink:href="#Áåçûìÿííûé_ãðàäèåíò_196"/><linearGradient id="Áåçûìÿííûé_ãðàäèåíò_196-15" x1="281.3" y1="219.28" x2="281.3" y2="217.11" xlink:href="#Áåçûìÿííûé_ãðàäèåíò_196"/><linearGradient id="Áåçûìÿííûé_ãðàäèåíò_196-16" x1="280.78" y1="226.23" x2="280.78" y2="224.28" xlink:href="#Áåçûìÿííûé_ãðàäèåíò_196"/><linearGradient id="Áåçûìÿííûé_ãðàäèåíò_196-17" x1="281.3" y1="226.44" x2="281.3" y2="224.28" xlink:href="#Áåçûìÿííûé_ãðàäèåíò_196"/><linearGradient id="Áåçûìÿííûé_ãðàäèåíò_114-11" x1="280.63" y1="97.6" x2="304.78" y2="98.95" xlink:href="#Áåçûìÿííûé_ãðàäèåíò_114"/><linearGradient id="Áåçûìÿííûé_ãðàäèåíò_19-6" x1="293.69" y1="111.15" x2="293.69" y2="85.3" xlink:href="#Áåçûìÿííûé_ãðàäèåíò_19"/><linearGradient id="Áåçûìÿííûé_ãðàäèåíò_134-22" x1="293.58" y1="110.64" x2="293.58" y2="85.3" xlink:href="#Áåçûìÿííûé_ãðàäèåíò_134"/><linearGradient id="Áåçûìÿííûé_ãðàäèåíò_19-7" x1="274.3" y1="79.88" x2="274.3" y2="50.13" xlink:href="#Áåçûìÿííûé_ãðàäèåíò_19"/><linearGradient id="Áåçûìÿííûé_ãðàäèåíò_114-12" x1="261.22" y1="64.55" x2="285" y2="65.88" xlink:href="#Áåçûìÿííûé_ãðàäèåíò_114"/><linearGradient id="Áåçûìÿííûé_ãðàäèåíò_134-23" x1="275.04" y1="79.88" x2="275.04" y2="50.13" xlink:href="#Áåçûìÿííûé_ãðàäèåíò_134"/><linearGradient id="Áåçûìÿííûé_ãðàäèåíò_43" x1="129.05" y1="347.85" x2="129.05" y2="306.91" gradientUnits="userSpaceOnUse"><stop offset="0" stop-color="#43487e"/><stop offset="1" stop-color="#40133e"/></linearGradient><linearGradient id="Áåçûìÿííûé_ãðàäèåíò_43-2" x1="155.65" y1="341.94" x2="155.65" y2="306.91" xlink:href="#Áåçûìÿííûé_ãðàäèåíò_43"/><linearGradient id="Áåçûìÿííûé_ãðàäèåíò_280-13" x1="154.9" y1="259.22" x2="161.96" y2="259.22" xlink:href="#Áåçûìÿííûé_ãðàäèåíò_280"/><linearGradient id="Áåçûìÿííûé_ãðàäèåíò_33" x1="159.64" y1="267.38" x2="159.64" y2="246.4" gradientUnits="userSpaceOnUse"><stop offset="0" stop-color="#7effd8"/><stop offset="1" stop-color="#0ee0f4"/></linearGradient><linearGradient id="Áåçûìÿííûé_ãðàäèåíò_152" x1="150.18" y1="313.04" x2="150.18" y2="300.26" gradientUnits="userSpaceOnUse"><stop offset="0" stop-color="#f00045"/><stop offset="1" stop-color="#f8753b"/></linearGradient><linearGradient id="Áåçûìÿííûé_ãðàäèåíò_50" x1="177.84" y1="216.73" x2="177.84" y2="202.43" gradientUnits="userSpaceOnUse"><stop offset="0" stop-color="#d71f27"/><stop offset="1" stop-color="#a00031"/></linearGradient><linearGradient id="Áåçûìÿííûé_ãðàäèåíò_17" x1="171.13" y1="220.26" x2="171.13" y2="208.8" gradientUnits="userSpaceOnUse"><stop offset="0" stop-color="#ffa048"/><stop offset="1" stop-color="#fffe81"/></linearGradient><linearGradient id="Áåçûìÿííûé_ãðàäèåíò_33-2" x1="149.75" y1="311.83" x2="149.75" y2="247.07" xlink:href="#Áåçûìÿííûé_ãðàäèåíò_33"/><linearGradient id="Áåçûìÿííûé_ãðàäèåíò_58" x1="150.57" y1="279" x2="150.57" y2="266.64" gradientUnits="userSpaceOnUse"><stop offset="0" stop-color="#45c9c7"/><stop offset="1" stop-color="#00cccd"/></linearGradient><linearGradient id="Áåçûìÿííûé_ãðàäèåíò_58-2" x1="139.39" y1="302.85" x2="139.39" y2="247.62" xlink:href="#Áåçûìÿííûé_ãðàäèåíò_58"/><linearGradient id="Áåçûìÿííûé_ãðàäèåíò_58-3" x1="136.29" y1="285.23" x2="136.29" y2="260.16" xlink:href="#Áåçûìÿííûé_ãðàäèåíò_58"/><linearGradient id="Áåçûìÿííûé_ãðàäèåíò_280-14" x1="113.41" y1="267.6" x2="136.74" y2="267.6" xlink:href="#Áåçûìÿííûé_ãðàäèåíò_280"/><linearGradient id="Áåçûìÿííûé_ãðàäèåíò_152-2" x1="133.25" y1="273.59" x2="133.25" y2="257.87" xlink:href="#Áåçûìÿííûé_ãðàäèåíò_152"/><linearGradient id="Áåçûìÿííûé_ãðàäèåíò_65" x1="136.49" y1="272.03" x2="136.49" y2="247.92" gradientUnits="userSpaceOnUse"><stop offset="0" stop-color="#45c9c7"/><stop offset="1" stop-color="#00a4cd"/></linearGradient><linearGradient id="Áåçûìÿííûé_ãðàäèåíò_58-4" x1="136.45" y1="269.84" x2="136.45" y2="247.92" xlink:href="#Áåçûìÿííûé_ãðàäèåíò_58"/><linearGradient id="Áåçûìÿííûé_ãðàäèåíò_152-3" x1="162.82" y1="269.06" x2="162.82" y2="266.32" xlink:href="#Áåçûìÿííûé_ãðàäèåíò_152"/><linearGradient id="Áåçûìÿííûé_ãðàäèåíò_58-5" x1="156.35" y1="287.45" x2="156.35" y2="287.11" xlink:href="#Áåçûìÿííûé_ãðàäèåíò_58"/><linearGradient id="Áåçûìÿííûé_ãðàäèåíò_58-6" x1="149.51" y1="311.83" x2="149.51" y2="283.62" xlink:href="#Áåçûìÿííûé_ãðàäèåíò_58"/><linearGradient id="Áåçûìÿííûé_ãðàäèåíò_58-7" x1="142.81" y1="259.33" x2="142.81" y2="247.62" xlink:href="#Áåçûìÿííûé_ãðàäèåíò_58"/><linearGradient id="Áåçûìÿííûé_ãðàäèåíò_280-15" x1="144.14" y1="246.99" x2="156.68" y2="246.99" xlink:href="#Áåçûìÿííûé_ãðàäèåíò_280"/><linearGradient id="Áåçûìÿííûé_ãðàäèåíò_19-8" x1="109.59" y1="179.41" x2="109.59" y2="97.63" xlink:href="#Áåçûìÿííûé_ãðàäèåíò_19"/><linearGradient id="Áåçûìÿííûé_ãðàäèåíò_134-24" x1="108.39" y1="179.41" x2="108.39" y2="97.63" xlink:href="#Áåçûìÿííûé_ãðàäèåíò_134"/><linearGradient id="Áåçûìÿííûé_ãðàäèåíò_114-13" x1="107.94" y1="179.41" x2="107.94" y2="97.63" xlink:href="#Áåçûìÿííûé_ãðàäèåíò_114"/><linearGradient id="Áåçûìÿííûé_ãðàäèåíò_105-2" x1="65.58" y1="173.2" x2="115.07" y2="173.2" gradientTransform="matrix(1, 0, 0, 1, 0, 0)" xlink:href="#Áåçûìÿííûé_ãðàäèåíò_105"/><linearGradient id="Áåçûìÿííûé_ãðàäèåíò_138" x1="65.58" y1="169.56" x2="115.07" y2="169.56" gradientUnits="userSpaceOnUse"><stop offset="0" stop-color="#ffd7ac"/><stop offset="1" stop-color="#ffab5e"/></linearGradient><linearGradient id="Áåçûìÿííûé_ãðàäèåíò_105-3" x1="64.75" y1="144.71" x2="115.07" y2="144.71" gradientTransform="matrix(1, 0, 0, 1, 0, 0)" xlink:href="#Áåçûìÿííûé_ãðàäèåíò_105"/><linearGradient id="Áåçûìÿííûé_ãðàäèåíò_138-2" x1="64.75" y1="141.86" x2="115.07" y2="141.86" xlink:href="#Áåçûìÿííûé_ãðàäèåíò_138"/><linearGradient id="Áåçûìÿííûé_ãðàäèåíò_113-4" x1="90.32" y1="172.89" x2="90.32" y2="169.71" xlink:href="#Áåçûìÿííûé_ãðàäèåíò_113"/><linearGradient id="Áåçûìÿííûé_ãðàäèåíò_113-5" x1="64.75" y1="142.15" x2="115.07" y2="142.15" xlink:href="#Áåçûìÿííûé_ãðàäèåíò_113"/><linearGradient id="Áåçûìÿííûé_ãðàäèåíò_19-9" x1="55" y1="185.33" x2="55" y2="98.4" xlink:href="#Áåçûìÿííûé_ãðàäèåíò_19"/><linearGradient id="Áåçûìÿííûé_ãðàäèåíò_134-25" x1="53.71" y1="185.33" x2="53.71" y2="98.4" xlink:href="#Áåçûìÿííûé_ãðàäèåíò_134"/><linearGradient id="Áåçûìÿííûé_ãðàäèåíò_114-14" x1="53.22" y1="185.33" x2="53.22" y2="98.4" xlink:href="#Áåçûìÿííûé_ãðàäèåíò_114"/><linearGradient id="Áåçûìÿííûé_ãðàäèåíò_130" x1="68.03" y1="161.25" x2="74.8" y2="161.25" gradientUnits="userSpaceOnUse"><stop offset="0" stop-color="#90202f"/><stop offset="1" stop-color="#df4c13"/></linearGradient><linearGradient id="Áåçûìÿííûé_ãðàäèåíò_15" x1="73.5" y1="169.71" x2="73.5" y2="162.39" gradientUnits="userSpaceOnUse"><stop offset="0" stop-color="#95006a"/><stop offset="1" stop-color="#bf006a"/></linearGradient><linearGradient id="Áåçûìÿííûé_ãðàäèåíò_130-2" x1="70.02" y1="161.08" x2="76.86" y2="161.08" xlink:href="#Áåçûìÿííûé_ãðàäèåíò_130"/><linearGradient id="Áåçûìÿííûé_ãðàäèåíò_130-3" x1="81.78" y1="160.67" x2="88.55" y2="160.67" xlink:href="#Áåçûìÿííûé_ãðàäèåíò_130"/><linearGradient id="Áåçûìÿííûé_ãðàäèåíò_130-4" x1="90.78" y1="159.8" x2="97.55" y2="159.8" xlink:href="#Áåçûìÿííûé_ãðàäèåíò_130"/><linearGradient id="Áåçûìÿííûé_ãðàäèåíò_222" x1="75.89" y1="142.4" x2="75.89" y2="128.6" gradientUnits="userSpaceOnUse"><stop offset="0" stop-color="#f4618d"/><stop offset="0.92" stop-color="#9d006a"/></linearGradient><linearGradient id="Áåçûìÿííûé_ãðàäèåíò_81-7" x1="94.18" y1="142.1" x2="94.18" y2="128.69" xlink:href="#Áåçûìÿííûé_ãðàäèåíò_81"/><linearGradient id="Gradiente_sem_nome_143" x1="174.94" y1="322.71" x2="339.74" y2="37.26" gradientUnits="userSpaceOnUse"><stop offset="0" stop-color="#702768"/><stop offset="0.02" stop-color="#72286a"/><stop offset="0.42" stop-color="#8f3285"/><stop offset="0.76" stop-color="#a23896"/><stop offset="1" stop-color="#a83a9c"/></linearGradient><clipPath id="clip-path-3"><rect class="cls-1" x="-835.15" y="-189.99" width="588.51" height="548.5"/></clipPath><linearGradient id="Áåçûìÿííûé_ãðàäèåíò_280-16" x1="-1329.4" y1="224.15" x2="1459.97" y2="224.15" xlink:href="#Áåçûìÿííûé_ãðàäèåíò_280"/></defs><title>Prancheta 175</title><g class="cls-2"><g id="Camada_1" data-name="Camada 1"><g class="cls-3"><g class="cls-4"><polygon class="cls-5" points="364.67 223.63 364.67 38.46 -1.27 -44.67 -91.56 -44.67 -91.56 322.22 364.67 223.63"/><polygon class="cls-6" points="630.06 -27.92 364.67 38.46 -1.27 -44.67 630.06 -44.67 630.06 -27.92"/><polygon class="cls-7" points="630.06 -40.46 364.67 36.06 36.82 -44.67 -1.27 -44.67 364.67 38.46 630.06 -27.92 630.06 -40.46"/><polygon class="cls-8" points="630.06 -32.95 364.67 37.58 12.28 -44.67 36.82 -44.67 364.67 36.06 630.06 -40.46 630.06 -32.95"/><polygon class="cls-9" points="630.06 361.24 630.06 311.72 364.67 223.63 -91.56 322.22 -91.56 361.24 630.06 361.24"/><g class="cls-10"><path class="cls-11" d="M378.72,228.49l-46.77,12-.73.18c-1.9.49-76,19.54-77,19.81L-91.51,349.43l-.11-.44c86.1-22.14,336.25-86.47,422.17-108.58l.71-.18h0l47.33-12.18Z"/><path class="cls-11" d="M401.91,235.62,354,249.83l-.68.2h0l-75.68,22.46h0l-.6.18h0L-37.38,366l-.13-.43L352.68,249.76l.69-.2,48.41-14.37Z"/><path class="cls-11" d="M426,244.16,379.77,260.7l-.62.22L69.52,371.83l-.14-.43L378.54,260.66l.62-.22,46.64-16.71Z"/><path class="cls-11" d="M452.34,252.9l-45.27,19.31-.58.25c-.9.39-145.6,62.08-147.1,62.74h0L154.46,379.94l-.18-.42,251.63-107.3h0l.57-.26h0l45.67-19.47Z"/><path class="cls-11" d="M478.32,260.71l-44.25,22.9-.51.26-177.74,92-.2-.4C502,248,221.62,393.08,433,283.65l.52-.27,44.57-23.07Z"/><path class="cls-11" d="M254.29,260l.58.31-.63.17h0l-17.12-9.14.2-.4,17,9.06Z"/><path class="cls-11" d="M305.45,287.32l-.57.2L277,272.67h0l-.56-.3.62-.18.55.3h0Z"/><path class="cls-11" d="M197.42,296.3l-.58.16-24.72-15.3.6-.16C174.3,282,196.18,295.52,197.42,296.3Z"/><path class="cls-11" d="M259.88,335l-.49.22h0c-.77-.5-31.4-19.45-32.58-20.19l.53-.19Z"/><polygon class="cls-11" points="61.4 310.1 60.5 310.34 35.19 294.77 35.67 294.66 61.4 310.1"/><path class="cls-11" d="M119.35,354l-.91.33c-.69-.61-35.17-23.92-35.74-24.44l.5-.16C84,330.41,118.53,353.23,119.35,354Z"/></g><polygon class="cls-12" points="112.4 355.98 83.6 330.07 277.03 272.67 304.34 287.24 112.4 355.98"/><polygon class="cls-13" points="-23.04 361.24 196.33 296.15 172.65 281.49 -91.51 349.43 -91.56 361.24 -23.04 361.24"/><polygon class="cls-14" points="83.6 330.07 118.88 353.66 304.34 287.24 119.35 352.42 83.6 330.07"/><polygon class="cls-15" points="227.82 315.13 259.41 334.69 405.91 272.22 259.66 333.92 227.82 315.13"/><polygon class="cls-16" points="173.25 281.34 196.9 295.98 352.68 249.76 197.14 295.45 173.25 281.34"/><polygon class="cls-17" points="277.65 272.49 304.91 287.03 425.8 243.73 304.95 286.41 277.65 272.49"/><polygon class="cls-18" points="36.06 294.89 61 309.74 253.64 260.19 61.4 308.69 36.06 294.89"/><polygon class="cls-7" points="630.06 294.89 364.67 219.85 -91.56 305.86 -91.56 322.22 364.67 223.63 630.06 311.72 630.06 294.89"/><polygon class="cls-8" points="630.06 300.5 364.67 221.68 -91.56 311.72 -91.56 322.22 364.67 223.63 630.06 311.72 630.06 300.5"/><path class="cls-19" d="M532.83,316.1l-9.4,5h0L453,358.34h0l-5.47,2.9H148.27l-47.36-40.56c19-4.68,90.6-22.44,102.12-25.29l4.65-8.36,15.68,3.32c3.26-.9,129.9-39.86,130.66-40.07,43.67,16,69.48,26.49,102.06,38.45l16-.2,3.52,7.17,19.92,7.1h.06C512.94,309,520.6,311.73,532.83,316.1Z"/><polygon class="cls-20" points="207.68 287.03 241.06 309.5 223.36 290.35 207.68 287.03"/><path class="cls-21" d="M312.51,281.32c.9,3.41-7.49,8.56-18.72,11.5s-21.07,2.57-22-.84,7.49-8.55,18.73-11.5S311.62,277.92,312.51,281.32Z"/><path class="cls-22" d="M274.08,319.21c.81,3.09-6.8,7.76-17,10.43S238,332,237.16,328.88s6.8-7.76,17-10.43S273.27,316.12,274.08,319.21Z"/><ellipse class="cls-21" cx="262.43" cy="359.35" rx="30.3" ry="11.32" transform="matrix(0.97, -0.25, 0.25, 0.97, -82.5, 78.24)"/><ellipse class="cls-23" cx="183.7" cy="317.03" rx="16.75" ry="5.85" transform="matrix(0.97, -0.25, 0.25, 0.97, -74.35, 56.91)"/><path class="cls-22" d="M180.52,345.33c.37,1.41-3.09,3.53-7.74,4.75s-8.7,1.06-9.07-.35,3.1-3.53,7.74-4.74S180.15,343.92,180.52,345.33Z"/><polygon class="cls-24" points="100.91 320.68 100.91 322.22 145.37 361.24 148.27 361.24 100.91 320.68"/><polygon class="cls-25" points="207.68 287.03 203.03 295.39 241.06 309.5 207.68 287.03"/><polygon class="cls-26" points="363.06 262.23 501.12 311.73 402.83 361.24 197.42 361.24 167.49 321.28 363.06 262.23"/><polygon class="cls-27" points="72.81 253.19 32.97 237.16 72.81 254.04 72.81 253.19"/><polygon class="cls-28" points="68.27 250.43 31.04 236.1 34.23 235.39 71.9 250.38 68.27 250.43"/><path class="cls-29" d="M193.12,320.58l-76.68,16.35L77,296.65l58.43-16.34-7.49-2.85,11-22.54-99.76-21.4-10.84,2.92a21,21,0,0,0-14.25,13.07l-88.15,69.77-19.29,3.25,1.82,22.75L100.4,362l56.94-21.84,9.63-7.54,34.48-9.37Z"/><path class="cls-30" d="M201.45,323.24,200.27,246a23.64,23.64,0,0,0-3.72-12.42,21.88,21.88,0,0,0-11-8.67L145.48,213h-2.4l-10.61,68,2.93-.71,14.84-44.88,30.53,8.2a22.54,22.54,0,0,1,10.91,17.58l6.55,63.36Z"/><path class="cls-31" d="M199,324.57l-5.11-4-4.66-59.37a22.45,22.45,0,0,0-7.46-15h0a23.26,23.26,0,0,0-3.44-2.53l-4.37-1.13h0l-27.31-7.07L133.22,281l-4.56-3.56L143.08,213l39,11.62a23.37,23.37,0,0,1,15.63,20.21c0,.4,0,.8.05,1.2Z"/><path class="cls-32" d="M198.23,324.57l-5.11-4-4.66-59.37a22.45,22.45,0,0,0-7.46-15h0a22.66,22.66,0,0,0-3.43-2.53l-4.37-1.13h0l-27.31-7.07L132.46,281l-4.55-3.56L143.08,213l38.3,11.62A23.35,23.35,0,0,1,197,244.8q0,.6.06,1.2Z"/><path class="cls-29" d="M185.56,239.06,181,246.17h0a22.66,22.66,0,0,0-3.43-2.53l-4.37-1.13Z"/><polygon class="cls-29" points="144.11 253.97 138.67 259.91 132.24 259.05 133.78 252.52 145.58 249.51 144.11 253.97"/><path class="cls-33" d="M184.8,244.94l-6.46,1.26h0l-102.53,20-40-29.33,4-.47L142,224.63a14,14,0,0,1,6.88,1l2,.65L186,238h0C188,238.84,187,244.52,184.8,244.94Z"/><polygon class="cls-29" points="88.44 258.65 90.76 262.54 181.74 245.54 87.39 263.97 85.98 259.07 88.44 258.65"/><path class="cls-34" d="M185,241.87l-4,.69L76.1,260.79,39.87,236.43,36,233.83l106.16-12.27a14,14,0,0,1,6.88,1l36.36,15.11a2.2,2.2,0,0,1,.6.35h0A2.23,2.23,0,0,1,185,241.87Z"/><polygon class="cls-35" points="180.96 243.01 122.86 225.81 57.56 233.36 93.04 258.29 180.96 243.01"/><polygon class="cls-36" points="79.09 249.71 99.27 246.95 63.52 232.14 42.76 234 79.09 249.71"/><polygon class="cls-29" points="99.27 246.95 98.99 247.22 80.21 249.81 79.99 249.59 99.27 246.95"/><polygon class="cls-37" points="85.59 257.98 179.54 242.81 85.98 259.07 85.59 257.98"/><path class="cls-38" d="M90.1,351.69l-1.26-83.1a25.58,25.58,0,0,0-12-21.27l-41-16.12H32.67L21.36,304l4.89-.77,16-48.28L67.85,266A24.22,24.22,0,0,1,79.59,285l5.31,68.17Z"/><path class="cls-39" d="M84.9,353.12l.2-84.53a25.57,25.57,0,0,0-11.95-21.27L32.67,231.2,17.92,300.14,21.36,304l15.88-49.05L64.12,266A24.25,24.25,0,0,1,75.86,285l5,63.87Z"/><path class="cls-40" d="M84.9,353.12l-1.26-84.53a25.59,25.59,0,0,0-12-21.27l-39-16.12L16.45,300.14,21.36,304l14.41-49.05L62.66,266A24.24,24.24,0,0,1,74.39,285l5,63.87Z"/><path class="cls-29" d="M184.8,244.94l-6.46,1.26h0l2.64-3.64-61.08-18.42,22.28-2.58a14,14,0,0,1,6.88,1l36.36,15.11a2.2,2.2,0,0,1,.6.35h0C188,238.84,187,244.52,184.8,244.94Z"/><polygon class="cls-29" points="39.07 264.43 31.38 269.89 35.77 254.92 41.44 257.27 39.07 264.43"/><path class="cls-20" d="M191.94,232.05l3-.62s3.75,3.89,5,11.33l-3.08,1.09S195.9,236,191.94,232.05Z"/><path class="cls-20" d="M79.3,254.71l4.41-1.1s4.18,5.64,4.83,11.49l-4.62,1.63S82.45,258.55,79.3,254.71Z"/><ellipse class="cls-24" cx="75.29" cy="262" rx="0.95" ry="2.36"/><polygon class="cls-24" points="75.3 259.64 66.72 260.85 67.7 265.54 75.3 264.36 75.3 259.64"/><path class="cls-24" d="M34,245.08c0,.92-.31,1.67-.68,1.67s-.68-.75-.68-1.67.31-1.68.68-1.68S34,244.15,34,245.08Z"/><path class="cls-24" d="M66.73,265.29s-2.49,2.77-4.18,1.94-3.91-4.81-3.91-6.5.69-3.86,3.5-3.86a7.88,7.88,0,0,1,5.37,1.72C68.21,259.28,66.73,265.29,66.73,265.29Z"/><polygon class="cls-24" points="33.35 243.4 27.27 244.26 27.96 247.59 33.35 246.75 33.35 243.4"/><path class="cls-41" d="M72.81,263.31l-46.2-19.68a.84.84,0,0,0-.54-.23c-.63,0-1.14.81-1.14,1.81s.51,1.81,1.14,1.81l.14,0,46.08,20.81Z"/><ellipse class="cls-42" cx="72.44" cy="265.54" rx="1.43" ry="2.29"/><path class="cls-43" d="M66,252.51,29,237.73s-6.87,0-8.16,9a6.56,6.56,0,0,0,4.54,7.12l36,18.2C57,262.93,57.78,258.23,66,252.51Z"/><path class="cls-44" d="M56.09,263.32l-35.25-16.6a6,6,0,0,0,.52,3.55l36.17,18.06Z"/><path class="cls-45" d="M61.24,262.75c0,1.95,1.23,3.54,2.74,3.54A2.38,2.38,0,0,0,66.09,265l4.84,2.19c-1.31,3.27-3.89,5.43-7,5.43-4.37,0-7.93-4.58-7.93-10.23s3.56-10.23,7.93-10.23,7.92,4.59,7.92,10.23c0,.18,0,.35,0,.52l-5.84-2.49A2.53,2.53,0,0,0,64,259.21C62.47,259.21,61.24,260.8,61.24,262.75Z"/><path class="cls-29" d="M55.17,268.92s-1.45-7.81,1.41-12.52c3.05-5,7.43-4.68,7.43-4.68l-5.62-2.25-7.87,17.12Z"/><polygon class="cls-24" points="34.02 234.72 72.81 250.74 72.81 253.61 32.97 237.16 34.02 234.72"/><polygon class="cls-46" points="72.81 254.04 72.81 251.17 36.21 236.85 32.97 237.16 72.81 254.04"/><path class="cls-47" d="M55.17,269.89s-3.09-4.91.56-13c3.55-7.91,16.17-6.49,16.17-6.49L34.63,235.32s-9.92,1.53-12.63,5.56c-3.1,4.61-1.89,9.85,2.22,12.49Z"/><path class="cls-24" d="M55.17,269.89c.69.69,1.9,0,1.9,0l-2.37-1.2Z"/><path class="cls-48" d="M53.25,264s.51-8.13,5.86-11.8L26.7,238.53A7.82,7.82,0,0,0,22,242.81l31.64,14.06A33.76,33.76,0,0,0,53.25,264Z"/><polygon class="cls-49" points="44.1 233.88 63.52 232.14 98.72 246.72 92.21 247.59 60.02 232.9 44.1 233.88"/><polygon class="cls-28" points="21.06 247.59 21.65 249.96 53.52 267.11 53.28 264.36 21.06 247.59"/><polygon class="cls-24" points="34.63 235.32 34.23 235.39 72.81 251.17 72.81 250.74 34.63 235.32"/><path class="cls-29" d="M66,251.17l5.91-.35-1.33-.53a29.31,29.31,0,0,0-5.64.41Z"/><polygon class="cls-50" points="118.63 235.67 89.31 224.86 56.75 227.9 57.12 230.66 88.77 227.26 117.81 239.09 118.63 235.67"/><polygon class="cls-51" points="117.81 239.09 88.77 227.26 57.12 230.66 85.31 242.93 117.81 239.09"/><polygon class="cls-29" points="64.91 230.73 89.06 228.8 107.44 236.08 109.89 235.86 88.77 227.26 63.07 230.02 64.91 230.73"/><polygon class="cls-52" points="95.12 227.36 94.3 229.51 64.15 232.95 64.22 230.79 95.12 227.36"/><polygon class="cls-53" points="56.75 227.9 57.12 230.66 85.31 242.93 84.07 238.48 56.75 227.9"/><polygon class="cls-52" points="84.07 238.48 118.63 235.67 117.81 239.09 85.31 242.93 84.07 238.48"/><path class="cls-54" d="M89.31,224.86l-32.56,3,27.32,10.58,34.56-2.81ZM57.77,228l31.52-2.75,27.42,10-32.62,2.89Z"/><polygon class="cls-54" points="95.12 227.36 94.43 227.1 64.24 230.47 64.91 230.73 95.12 227.36"/><polygon class="cls-29" points="117.81 239.09 82.16 244.32 53.87 231.52 58.01 231.04 85.31 242.93 117.81 239.09"/><polygon class="cls-55" points="63.89 229.98 60.18 216.12 78.36 214.81 81.08 228.06 63.89 229.98"/><polygon class="cls-56" points="65.13 230.06 61.42 216.19 79.6 214.89 82.31 228.14 65.13 230.06"/><polygon class="cls-57" points="60.18 216.12 59.62 216.47 63.63 229.96 63.89 229.98 60.18 216.12"/><polygon class="cls-58" points="61.42 216.19 60.86 216.55 64.87 230.04 65.13 230.06 61.42 216.19"/><polygon class="cls-59" points="63.95 216.23 63.39 216.59 67.4 230.07 67.66 230.09 63.95 216.23"/><polygon class="cls-29" points="63.48 216.89 62.91 217.24 66.39 229.92 67.32 229.81 63.48 216.89"/><polygon class="cls-29" points="60.86 216.55 60.55 216.7 64.29 229.78 64.78 229.75 60.86 216.55"/><polygon class="cls-60" points="67.66 230.09 63.95 216.23 82.13 214.92 84.84 228.17 67.66 230.09"/><polygon class="cls-61" points="64.98 216.59 81.61 215.42 84.3 227.94 81.11 228.29 78.44 216 64.98 216.59"/><path class="cls-62" d="M87.22,236.69a.45.45,0,0,1-.16,0l-8.85-3.54a.43.43,0,0,1-.25-.45.41.41,0,0,1,.37-.36l10.72-1a.69.69,0,0,1,.2,0l9,3.62a.42.42,0,0,1,.26.45.42.42,0,0,1-.38.35l-10.83.93ZM80.13,233l7.15,2.87,9-.77L89,232.16Z"/><path class="cls-62" d="M71.1,227.06a.45.45,0,0,1-.43-.34l-1.93-7.38a.43.43,0,0,1,.07-.38.48.48,0,0,1,.35-.19l9.35-.42a.43.43,0,0,1,.46.36l1.53,6.91a.45.45,0,0,1-.08.36.43.43,0,0,1-.32.19l-8.95.89Zm-1.35-7.41,1.69,6.47,8.07-.8-1.34-6Z"/><polygon class="cls-63" points="69.71 243.12 82.02 248.38 96.02 246.51 82.37 241.71 69.71 243.12"/><polygon class="cls-64" points="69.71 243.12 69.69 243.59 81.98 249.04 96 246.94 96.02 246.51 82.02 248.38 69.71 243.12"/><path class="cls-62" d="M81.57,246.82a.3.3,0,0,1-.26-.13l-2.49-3.23a.33.33,0,0,1,0-.38.32.32,0,0,1,.35-.14l10.38,2.53a.32.32,0,0,1-.05.64l-7.89.71Zm-1.66-3,1.81,2.35,5.74-.51Z"/><polygon class="cls-29" points="69.69 243.59 69.22 243.68 81.72 249.52 96.55 247.22 96 246.94 81.98 249.04 69.69 243.59"/><polygon class="cls-7" points="96.02 246.51 82.37 241.71 69.71 243.12 82.44 241.94 95.29 246.61 96.02 246.51"/><polygon class="cls-65" points="125.75 239.4 138.06 244.65 152.06 242.79 138.41 237.98 125.75 239.4"/><polygon class="cls-66" points="125.75 239.4 125.73 239.86 138.02 245.32 152.04 243.21 152.06 242.79 138.06 244.65 125.75 239.4"/><polygon class="cls-29" points="125.73 239.86 125.26 239.95 137.76 245.8 152.59 243.5 152.04 243.21 138.02 245.32 125.73 239.86"/><path class="cls-62" d="M140.33,242.63c-.48,0-1,0-1.5,0s-6-.35-5.88-1.73,5.42-1.13,6-1.1a22,22,0,0,1,4,.54c1.29.32,1.88.7,1.86,1.19s-.66.81-2,1A19.13,19.13,0,0,1,140.33,242.63Zm-6.7-1.73c.29.3,2,.87,5.23,1s5-.22,5.31-.49c-.29-.29-2-.86-5.23-1S134,240.64,133.63,240.9Zm10.58.51Z"/><polygon class="cls-7" points="152.06 242.79 138.41 237.98 125.75 239.4 138.41 238.16 151.32 242.88 152.06 242.79"/><polygon class="cls-67" points="200.69 135.74 271.28 135.74 268.79 234.44 203.03 245.46 200.69 135.74"/><polygon class="cls-29" points="199.24 138.22 197.88 138.73 199.9 245.75 202.49 244.99 199.24 138.22"/><polygon class="cls-68" points="200.69 135.74 199.19 135.8 201.59 244.2 203.03 245.46 200.69 135.74"/><polygon class="cls-69" points="202.72 136.97 269.25 136.97 266.88 234.13 264.93 234.44 263.92 138.87 202.72 136.97"/><polygon class="cls-25" points="201.11 136.97 204.3 243.86 268.21 233.87 205.99 242.03 201.11 136.97"/><polygon class="cls-70" points="207.8 237.85 205.95 138.78 259.63 143.71 261.88 231.98 207.8 237.85"/><polygon class="cls-29" points="226.71 211.29 225.09 212 225.9 232.74 230.08 232.16 230.08 211.56 226.71 211.29"/><path class="cls-71" d="M234.85,211.29h-8.14l.6,19.82h0c.23.59,1.82,1,3.74,1,2.08,0,3.77-.53,3.77-1.2a.44.44,0,0,0,0-.1h0Z"/><polygon class="cls-25" points="229.1 211.72 229.1 231.98 227.99 231.65 227.66 211.8 229.1 211.72"/><path class="cls-72" d="M230.78,212.27a12.14,12.14,0,0,0,3.78-.47v19l-.66.65-.7-18.54A7.6,7.6,0,0,1,230.78,212.27Z"/><path class="cls-73" d="M234.85,211.29c0,.37-1.82.67-4.07.67s-4.07-.3-4.07-.67,1.82-.67,4.07-.67S234.85,210.92,234.85,211.29Z"/><path class="cls-50" d="M233.9,211.29c0,.28-1.4.51-3.12.51s-3.12-.23-3.12-.51,1.4-.51,3.12-.51S233.9,211,233.9,211.29Z"/><polygon class="cls-29" points="213.47 178.67 211.85 179.38 212.02 200.19 218.41 199.09 216.84 178.94 213.47 178.67"/><path class="cls-74" d="M221.61,178.67h-8.14l.6,19.82h0c.09.31,1.51.6,3.44.6,2.08,0,4.07-.45,4.07-.75a.36.36,0,0,0,0-.1h0Z"/><polygon class="cls-25" points="215.86 178.86 215.86 198.8 214.75 198.71 214.42 178.88 215.86 178.86"/><path class="cls-75" d="M217.54,179.64a12.35,12.35,0,0,0,3.78-.46v19l-.66.65-.7-18.54A7.66,7.66,0,0,1,217.54,179.64Z"/><path class="cls-76" d="M221.61,178.67c0,.18-1.82.33-4.07.33s-4.07-.15-4.07-.33,1.82-.34,4.07-.34S221.61,178.48,221.61,178.67Z"/><path class="cls-50" d="M220.66,178.67a25.71,25.71,0,0,1-6.24,0,24.44,24.44,0,0,1,6.24,0Z"/><polygon class="cls-29" points="234.78 178.67 233.16 179.38 233.34 200.19 239.72 199.09 238.15 178.94 234.78 178.67"/><path class="cls-77" d="M242.93,178.67h-8.15l.61,19.82h0c.09.31,1.51.6,3.43.6,2.08,0,4.08-.45,4.08-.75a.36.36,0,0,0,0-.1h0Z"/><polygon class="cls-25" points="237.18 178.86 237.18 198.8 236.06 198.71 235.73 178.88 237.18 178.86"/><path class="cls-78" d="M238.85,179.64a12.41,12.41,0,0,0,3.79-.46v19l-.67.65-.69-18.54A7.69,7.69,0,0,1,238.85,179.64Z"/><path class="cls-79" d="M242.93,178.67c0,.18-1.83.33-4.08.33s-4.07-.15-4.07-.33,1.83-.34,4.07-.34S242.93,178.48,242.93,178.67Z"/><path class="cls-50" d="M242.18,178.67a26.43,26.43,0,0,1-6.65,0,25.24,25.24,0,0,1,6.65,0Z"/><polygon class="cls-29" points="223.44 143.94 221.83 144.65 222 165.46 228.38 164.36 226.81 144.21 223.44 143.94"/><path class="cls-80" d="M231.59,143.94h-8.15l.61,19.82h0c.09.32,1.51.6,3.44.6s4.07-.45,4.07-.75a.44.44,0,0,0,0-.1h0Z"/><polygon class="cls-25" points="225.84 144.13 225.84 164.08 224.72 163.99 224.39 144.16 225.84 144.13"/><path class="cls-81" d="M227.52,144.92a12.14,12.14,0,0,0,3.78-.47v19l-.67.65-.69-18.54A7.6,7.6,0,0,1,227.52,144.92Z"/><path class="cls-82" d="M231.59,143.94a39.64,39.64,0,0,1-8.15,0,39.64,39.64,0,0,1,8.15,0Z"/><polygon class="cls-29" points="244.79 143.94 243.18 144.65 243.35 165.46 249.73 164.36 248.16 144.21 244.79 143.94"/><path class="cls-83" d="M252.94,143.94h-8.15l.61,19.82h0c.09.32,1.51.6,3.43.6,2.09,0,4.08-.45,4.08-.75a.44.44,0,0,0,0-.1h0Z"/><polygon class="cls-25" points="247.19 144.13 247.19 164.08 246.07 163.99 245.74 144.16 247.19 144.13"/><path class="cls-84" d="M248.86,144.92a12.19,12.19,0,0,0,3.79-.47v19l-.67.65-.69-18.54A7.69,7.69,0,0,1,248.86,144.92Z"/><path class="cls-85" d="M252.94,143.9a43.79,43.79,0,0,1-8.15,0,43.79,43.79,0,0,1,8.15,0Z"/><polygon class="cls-29" points="245.85 210.65 244.42 211.28 245.14 229.63 248.84 229.12 248.84 210.89 245.85 210.65"/><path class="cls-86" d="M253.06,210.65h-7.21l.54,17.54h0c.2.53,1.6.93,3.31.93s3.33-.47,3.33-1.06c0,0,0-.06,0-.09h0Z"/><polygon class="cls-25" points="247.97 211.03 247.97 228.96 246.99 228.67 246.7 211.1 247.97 211.03"/><path class="cls-87" d="M249.46,211.51a10.73,10.73,0,0,0,3.35-.41v16.8l-.59.57-.62-16.41A6.57,6.57,0,0,1,249.46,211.51Z"/><path class="cls-88" d="M253.06,210.65c0,.32-1.61.59-3.6.59s-3.61-.27-3.61-.59,1.62-.59,3.61-.59S253.06,210.32,253.06,210.65Z"/><ellipse class="cls-50" cx="249.46" cy="210.65" rx="2.76" ry="0.45"/><g class="cls-89"><path class="cls-11" d="M229.9,209.72v-.43h.4l0-1.2h-.49l0-.65a1,1,0,0,0,.25,0,.88.88,0,0,0,.23-.07.5.5,0,0,0,.17-.15.35.35,0,0,0,.06-.23l.89,0v2.32l.3,0v.4Z"/></g><g class="cls-89"><path class="cls-11" d="M251.87,232a.87.87,0,0,1-.08.39.67.67,0,0,1-.21.26,1,1,0,0,1-.33.17l-.41.13a1.74,1.74,0,0,0-.32.13.59.59,0,0,0-.16.15.23.23,0,0,0-.05.15.35.35,0,0,0,0,.14l.65,0,0-.29.73-.06,0,.76-2.36,0a1,1,0,0,1,0-.45.73.73,0,0,1,.16-.33.87.87,0,0,1,.27-.23,1.77,1.77,0,0,1,.31-.15l.29-.09.2-.05.17,0,.1-.06a.09.09,0,0,0,0-.06.15.15,0,0,0,0-.07.13.13,0,0,0-.07-.12.49.49,0,0,0-.25-.05l-.24,0-.31,0-.36.05-.36.05-.08-1.12.37-.06.39,0a3.64,3.64,0,0,1,.48,0,3,3,0,0,1,.53,0,1.75,1.75,0,0,1,.44.16,1,1,0,0,1,.3.27A.82.82,0,0,1,251.87,232Z"/></g><g class="cls-89"><path class="cls-11" d="M239.43,175.48l0,.28.3,0v.39h-1.79v-.42h.41v-.25h-1.49l0-.4,1.36-1.63,1.44,0-.15,1.6H240v.44Zm-1.67-.4h.6l0-.67Z"/></g><g class="cls-89"><path class="cls-11" d="M219.27,202a.82.82,0,0,1-.08.38,1.53,1.53,0,0,1-.17.23.89.89,0,0,1-.25.14l.18.09a.49.49,0,0,1,.12.15.54.54,0,0,1,.06.27.57.57,0,0,1-.33.52,1.84,1.84,0,0,1-.9.18,4.05,4.05,0,0,1-.52,0l-.41-.07-.36-.11,0-.47.2.07.32.08.4.06a3.12,3.12,0,0,0,.43,0,.25.25,0,0,0,.16-.06.18.18,0,0,0,.06-.15.16.16,0,0,0-.07-.15.3.3,0,0,0-.15,0h-.46v-.39h.4a.24.24,0,0,0,.16-.08.25.25,0,0,0,0-.13.24.24,0,0,0,0-.08l-.06-.06-.15,0-.26,0-.35,0-.35,0-.38.07-.08-1.13.14,0,.28,0,.4,0,.56,0a3.45,3.45,0,0,1,.57.05,1.46,1.46,0,0,1,.46.15.91.91,0,0,1,.31.27A.72.72,0,0,1,219.27,202Z"/></g><g class="cls-89"><path class="cls-11" d="M250.88,167.74l-1.83-.05V168a5.14,5.14,0,0,1,.86,0,1.78,1.78,0,0,1,.58.1.71.71,0,0,1,.32.21.53.53,0,0,1,.1.32.66.66,0,0,1-.32.57,1.68,1.68,0,0,1-.91.2,3.24,3.24,0,0,1-.55,0,4.61,4.61,0,0,1-.48-.09,3.47,3.47,0,0,1-.46-.13l0-.46.23.07.4.08.44.07.4,0a.38.38,0,0,0,.24-.06.25.25,0,0,0,.08-.2.21.21,0,0,0-.09-.19.7.7,0,0,0-.35-.06H249l-.21,0-.51,0-.09-1.81H251Z"/></g><g class="cls-89"><path class="cls-11" d="M228.89,141.44a.67.67,0,0,1-.08.29.83.83,0,0,1-.23.27,1.36,1.36,0,0,1-.42.19,2.3,2.3,0,0,1-.63.08,1.73,1.73,0,0,1-1.16-.35,1.34,1.34,0,0,1-.4-1,1.54,1.54,0,0,1,.15-.7,1,1,0,0,1,.47-.48,2.33,2.33,0,0,1,.86-.23,6.3,6.3,0,0,1,1.29,0l-.07,1.09a5.26,5.26,0,0,0-.72-.08,2.39,2.39,0,0,0-.51,0,.69.69,0,0,0-.31.13.27.27,0,0,0-.08.22l.15,0,.18,0,.23,0h.31l.34,0a1.6,1.6,0,0,1,.31.1.84.84,0,0,1,.23.18A.42.42,0,0,1,228.89,141.44Zm-.87.19c0-.15,0-.25-.2-.3a2.38,2.38,0,0,0-.79,0,.39.39,0,0,0,.05.24.46.46,0,0,0,.16.15.63.63,0,0,0,.23.08,1,1,0,0,0,.24,0,.66.66,0,0,0,.2-.06A.23.23,0,0,0,228,141.63Z"/></g><path class="cls-90" d="M220.66,215.78s3.27-4.46,4.43-5.16,6.1-.06,6.33.17a2.87,2.87,0,0,1,.39,1h-1a1.06,1.06,0,0,0-.18-.77,9.28,9.28,0,0,0-4.93.07c-1.36.63-4.06,4.68-4.06,4.68Z"/><path class="cls-91" d="M231.08,232.16s1.83,3,3.48,3,12.52-.27,13.77-1.51a21.84,21.84,0,0,0,2.8-4.66l-1.4.1s-1.42,3.95-2.4,4.28-11.77,1.47-12.77,1a8.75,8.75,0,0,1-2.35-2.34Z"/><path class="cls-92" d="M249.16,211.1s-2.18-2.3-3.65-2.81-19.11-2.59-22.72-3.55-5.64-5.66-5.64-5.66h1.26s2.65,4.43,4.44,5.17c1.06.44,22.18,3.24,23.85,3.66s3.86,3.14,3.86,3.14Z"/><path class="cls-93" d="M217.15,178.86a10.72,10.72,0,0,1,2.28-1.82c1-.45,18.31.08,19.42.38a2.05,2.05,0,0,1,1.39,1.44l-1.39.14a3.1,3.1,0,0,0-.7-1.07c-.5-.51-17.61-.91-18-.51s-1.24,1.42-1.24,1.42Z"/><path class="cls-94" d="M238.85,199.09s3.26,1.81,4.54,1.81,8-9,8-10.14-.8-26.49-.8-26.49l-.83.09s1.42,24.93.83,26.51-6.19,9.32-7.17,9.32a16.86,16.86,0,0,1-3.67-1.1Z"/><path class="cls-95" d="M249.46,143.9s-3-1.4-5.7-2.31-14.18-.5-15.37,0a6.58,6.58,0,0,0-2.27,2.31h1.61a10.12,10.12,0,0,1,1.15-1.91c.47-.47,13.12-.54,14.3-.17s4.79,2.12,4.79,2.12Z"/><polygon class="cls-96" points="226.96 164.35 226.96 169.34 228.03 169.34 228.03 164.42 226.96 164.35"/><path class="cls-97" d="M282,155.36l-7.67,18.28,37-2.24,7.19-16Zm3.24,9a3.09,3.09,0,0,1,1.57-1.69,3,3,0,0,1-.15,2.3,3.13,3.13,0,0,1-1.56,1.7A3,3,0,0,1,285.27,164.34Zm6.92,0a3,3,0,0,1,1.57-1.69,3,3,0,0,1-.16,2.3,3.1,3.1,0,0,1-1.56,1.7A3,3,0,0,1,292.19,164.34Zm6.92,0a3,3,0,0,1,1.57-1.7,3.47,3.47,0,0,1-1.72,4A3,3,0,0,1,299.11,164.34Zm6.92,0a3.08,3.08,0,0,1,1.56-1.69,3,3,0,0,1-.15,2.3,3.1,3.1,0,0,1-1.56,1.7A3,3,0,0,1,306,164.34Z"/><polygon class="cls-29" points="273.89 173.04 272.14 173.63 275.32 125.27 276.61 125.53 274.73 155.37 280.16 155.37 273.89 173.04"/><polygon class="cls-98" points="282.02 155.37 280.16 154.34 273.15 172.11 274.36 173.63 282.02 155.37"/><polygon class="cls-99" points="318.56 155.37 316.6 154.34 280.16 154.34 282.02 155.37 318.56 155.37"/><polygon class="cls-100" points="275.32 125.27 277.83 159.93 279.18 159.47 277.21 125.65 275.32 125.27"/><path class="cls-101" d="M275.22,124.38c0-1.29.57-2.34,1.28-2.35s1.28,1,1.29,2.34-.57,2.34-1.28,2.34S275.22,125.67,275.22,124.38Z"/><path class="cls-102" d="M275.62,124.38c0-1.3.56-2.34,1.27-2.35s1.29,1,1.3,2.34-.57,2.34-1.28,2.34S275.62,125.67,275.62,124.38Z"/><path class="cls-103" d="M276.5,124.37c0-.71.31-1.28.7-1.28s.71.57.71,1.28-.31,1.28-.7,1.28S276.51,125.08,276.5,124.37Z"/><ellipse class="cls-101" cx="278.29" cy="158.73" rx="1.28" ry="2.34"/><path class="cls-104" d="M279.18,158.73c0,1.3-.57,2.34-1.28,2.34s-1.29-1-1.29-2.34.58-2.33,1.29-2.33S279.18,157.44,279.18,158.73Z"/><path class="cls-105" d="M278.29,158.73c0,.71-.31,1.29-.7,1.29s-.7-.58-.7-1.29.31-1.28.7-1.28S278.29,158,278.29,158.73Z"/><polygon class="cls-29" points="277.32 127.55 276.5 129.07 277.9 156.4 277.59 156.56 275.32 125.27 277.21 125.65 277.32 127.55"/><polygon class="cls-25" points="282.29 155.91 275.07 173.24 311.02 171.09 275.86 172.6 282.29 155.91"/><polygon class="cls-106" points="318.56 155.37 282.02 155.37 316.8 154.85 316.6 154.34 318.56 155.37"/><polygon class="cls-107" points="282.29 155.91 317.67 155.91 311.02 171.09 309.16 171.09 315.14 156.4 282.29 155.91"/><polygon class="cls-29" points="274.53 200.46 273.62 200.82 272.67 230.5 274.54 229.82 274.53 200.46"/><polygon class="cls-108" points="277.01 200.46 275.9 231.26 316.66 224.76 317.47 197.1 277.01 200.46"/><polygon class="cls-109" points="275.9 231.26 274.15 229.4 274.54 199.3 277.01 200.46 275.9 231.26"/><polygon class="cls-110" points="317.47 197.1 315.44 196.29 274.54 199.3 277.01 200.46 317.47 197.1"/><polygon class="cls-111" points="316.42 198.38 279.46 200.99 276.46 229.82 315.59 223.43 316.42 198.38"/><polygon class="cls-112" points="316.42 196.68 277.01 200.46 317.47 197.1 316.42 196.68"/><polygon class="cls-113" points="275.9 231.26 277.01 200.46 277.67 200.4 276.46 231.17 275.9 231.26"/><path class="cls-29" d="M282.24,204.19c0,.54-.87,1-1.95,1s-2-.43-2-1,.88-1,2-1S282.24,203.65,282.24,204.19Z"/><path class="cls-114" d="M281.62,204.19a.85.85,0,1,1-.84-1A.92.92,0,0,1,281.62,204.19Z"/><polygon class="cls-115" points="280.79 203.21 281.82 203.43 281.82 205.37 280.79 205.16 280.79 203.21"/><path class="cls-116" d="M282.51,204.4c0,.54-.31,1-.69,1s-.69-.43-.69-1,.31-1,.69-1S282.51,203.86,282.51,204.4Z"/><path class="cls-29" d="M282.24,211.08c0,.54-.87,1-1.95,1s-2-.44-2-1,.88-1,2-1S282.24,210.55,282.24,211.08Z"/><path class="cls-117" d="M281.62,211.08a.84.84,0,1,1-.84-1A.92.92,0,0,1,281.62,211.08Z"/><polygon class="cls-118" points="280.79 210.11 281.82 210.32 281.82 212.27 280.79 212.06 280.79 210.11"/><path class="cls-116" d="M282.51,211.3c0,.53-.31,1-.69,1s-.69-.44-.69-1,.31-1,.69-1S282.51,210.76,282.51,211.3Z"/><path class="cls-29" d="M282.24,218.09c0,.54-.87,1-1.95,1s-2-.43-2-1,.88-1,2-1S282.24,217.55,282.24,218.09Z"/><path class="cls-119" d="M281.62,218.09a.85.85,0,1,1-.84-1A.92.92,0,0,1,281.62,218.09Z"/><polygon class="cls-120" points="280.79 217.11 281.82 217.33 281.82 219.28 280.79 219.06 280.79 217.11"/><ellipse class="cls-116" cx="281.82" cy="218.3" rx="0.69" ry="0.97"/><path class="cls-29" d="M282.24,225.25c0,.54-.87,1-1.95,1s-2-.44-2-1,.88-1,2-1S282.24,224.71,282.24,225.25Z"/><path class="cls-121" d="M281.62,225.25a.85.85,0,1,1-1.67,0,.84.84,0,1,1,1.67,0Z"/><polygon class="cls-122" points="280.79 224.28 281.82 224.49 281.82 226.44 280.79 226.23 280.79 224.28"/><path class="cls-116" d="M282.51,225.46c0,.54-.31,1-.69,1s-.69-.44-.69-1,.31-1,.69-1S282.51,224.93,282.51,225.46Z"/><polygon class="cls-29" points="291.2 86.67 278.18 112.02 303.58 112.02 292.77 86.67 291.2 86.67"/><polygon class="cls-123" points="292.93 85.3 279.9 110.64 304.12 110.64 294.5 85.3 292.93 85.3"/><polygon class="cls-124" points="294.5 85.3 281.47 110.64 305.92 111.15 294.5 85.3"/><polygon class="cls-125" points="281.47 110.64 293.58 88.89 302.69 110.64 305.69 110.64 294.5 85.3 281.47 110.64"/><polygon class="cls-29" points="261.17 51.63 259.7 79.86 281.99 80.66 284.32 55.83 261.17 51.63"/><polygon class="cls-126" points="263.47 50.13 261.99 78.36 284.21 79.88 286.61 54.33 263.47 50.13"/><polygon class="cls-127" points="263.47 50.13 261.99 50.8 260.62 78.99 282.69 80.31 284.21 79.88 261.99 78.36 263.47 50.13"/><polygon class="cls-128" points="263.47 50.13 284.21 54.82 282.69 79.78 284.21 79.88 286.61 54.33 263.47 50.13"/><polygon class="cls-29" points="105.19 250.94 104.16 254.89 105.95 260.34 111.67 259.22 109.29 251.25 105.19 250.94"/><path class="cls-129" d="M143.35,310.68a5.69,5.69,0,0,0-1,2v.06c-.22.65-.43,1.41-.63,2.24-.89,3.53-1.76,8.27-3.19,11.19a121,121,0,0,1-7.86,13.25c-.41.42-.7,4.35-1,6.44a3.33,3.33,0,0,1-.33,1.25c-1.23,1.23-6.12.83-8.34-.6s-4.69-2-5.69-3-.61-6,1.14-6.76,6.7,1.13,7.27,1.13,1.69-7.55,1.69-14.55.68-16.4.68-16.4l3,.66Z"/><path class="cls-130" d="M159.19,339.94s3.28-5.18,3.28-7.44-2.6-3.66-4.51-3.27-4.12,5.87-4.12,7.89S158.52,341.06,159.19,339.94Z"/><path class="cls-131" d="M162.38,313a11.44,11.44,0,0,0,.14,2.77c.61,2.86.11,9.08-1,13.2s-1.92,11.05-2.77,11.89-4,1.64-5.24.4l-.11-.13c-1.1-1.39-.53-5.35-1.07-7.32a107.81,107.81,0,0,1-2.56-12.06c-.37-3.33-1.67-11.84-1.67-11.84l6.39-1.28,8.72-1.76s-.1.47-.23,1.23A39.68,39.68,0,0,0,162.38,313Z"/><path class="cls-132" d="M142.34,312.69v.06L141.7,315s-8.38,2.74-10.41,4.77-5.86,16.69-6.88,19.62-.39,5.75,1.08,6.49,4.14,0,4.14,0a3.33,3.33,0,0,1-.33,1.25c-1.23,1.23-6.12.83-8.34-.6s-4.69-2-5.69-3-.61-6,1.14-6.76,6.7,1.13,7.27,1.13,1.69-7.55,1.69-14.55.68-16.4.68-16.4l3,.66Z"/><path class="cls-132" d="M164.68,308l-2.29,5h0c-.23,0-7.49,1.43-10.16,4.09s1.21,19.53,1.21,23.14a8.4,8.4,0,0,1,0,.9c-1.1-1.39-.53-5.35-1.07-7.32a107.81,107.81,0,0,1-2.56-12.06c-.37-3.33-1.67-11.84-1.67-11.84l6.39-1.28,8.49-.53Z"/><path class="cls-133" d="M155.26,246.4s3.68,3.15,5.77,11.65,0,14,0,14a101.2,101.2,0,0,1-4-11.73A91.55,91.55,0,0,1,154.9,248Z"/><path class="cls-134" d="M159.22,267.32s3.36.43,4.8-1c0,0-3-16.45-8.76-19.92l.16.67Z"/><path class="cls-135" d="M170.61,184.35h0l-.24.51a18.35,18.35,0,0,1-4.85,5.75s-11.65,3.06-13.84.86c-1.38-1.38-2.66-5-3.43-7.51h0c-.44-1.47-.71-2.55-.71-2.55,4.73-6.32,18-4.85,18-4.85l.18,9.93c1.59-1.59,3-8.69,3-8.69l2.78,1.35A9.5,9.5,0,0,1,170.61,184.35Z"/><path class="cls-136" d="M170.6,184.36l-.24.51a18.35,18.35,0,0,1-4.85,5.75s-11.65,3.06-13.84.86c-1.38-1.38-2.66-5-3.43-7.51.27.41,3.28,5.23,3.95,5.9s5.84,0,5.84,0v-9.09s1.12,8.11,1.49,8.48,4.35.06,6.22-.26S170.42,184.62,170.6,184.36Z"/><path class="cls-135" d="M158.41,243.82s4.51,6.09,5.24,10.77c0,0,0-7.5-.51-9.75,0,0,4.4,2.31,6.49,5.86,0,0-1-5.82-2.77-7.58s-7.58-.53-7.58-.53Z"/><path class="cls-137" d="M157,243.47l-2.64,5.59s-5.55,1.24-8.06,0-2.71-1.39-2.71-1.39Z"/><path class="cls-138" d="M165.74,225.22a80.39,80.39,0,0,1-3,8.92s-2,8.53-4.29,9.68c-2,1-10.82,4.35-18.37,4.19h-.52a4.35,4.35,0,0,1-.51,0c-.5,0-1-.09-1.46-.16a2,2,0,0,1-.43-.06l-.16,0c-7.74-1.32-14.05-8.09-14.05-10.76,0-2.34,2.43-7.48,3-10.7.48-2.8,1-11.85,2.23-17.25a19.84,19.84,0,0,1,.58-2.07c1.67-4.75,8.92-8.51,11-9.12.77-.22,3.43.35,6.57,1.26,5.19,1.5,11.67,3.95,13,5.28,2.14,2.14,6.32,12.49,7.11,15.79A12.67,12.67,0,0,1,165.74,225.22Z"/><path class="cls-139" d="M165.74,225.22a80.39,80.39,0,0,1-3,8.92s-2,8.53-4.29,9.68c-2,1-10.82,4.35-18.37,4.19,4.79,0,11-2,13.89-4.27,3.86-3.1,6.51-11.3,3.86-17.46-2-4.62-5.41-8.4-13.59-11.88A112.62,112.62,0,0,0,128.1,209a19.84,19.84,0,0,1,.58-2.07c1.67-4.75,8.92-8.51,11-9.12.77-.22,3.43.35,6.57,1.26l11.08,7.12,4.66,4.63Z"/><path class="cls-140" d="M167.26,231.93l-5.86,4.88s2.14-13,2.42-15.8a15.9,15.9,0,0,1,2-5.66l3.84,8.76Z"/><path class="cls-140" d="M182,212.32a59.1,59.1,0,0,1-6.44,19.38,0,0,0,0,0,0,0,26.09,26.09,0,0,1-1.54,2.43c-6.08,8.39-13,8.05-13,8.05a25.67,25.67,0,0,0,2.41-26c-2.57-5.69-6.69-10.28-9.83-12.14-4.73-2.83-14-8.61-14-8.61s14.86-8,32.69-3.8C181.56,193.83,183.31,202.91,182,212.32Z"/><path class="cls-137" d="M138.17,234.14s.14,1.87-.65,1.87a39.9,39.9,0,0,0-4.77-.59,5.15,5.15,0,0,1-3.53-1.28s1.06,2.89,2.46,3.31,1.82-.23,3.39-.58,2.48,0,3.07-.58S138.17,234.14,138.17,234.14Z"/><path class="cls-141" d="M132.66,229.62s-.81,1.91-1.86,2.4a4.37,4.37,0,0,1-4.13-.21c-1.52-.9-1-5.07-.16-8.2s3.15-4.29,3.86-4.29,1.77,2.89,2.07,5.13A20.72,20.72,0,0,1,132.66,229.62Z"/><path class="cls-141" d="M157.3,232.73c0-.76,0-5.39-3.46-7.95a13.41,13.41,0,0,0-6.19-2.69s-3,1.51-3.39,6.12c-.42,4.3,1.61,6.68,2.72,7.23a9.37,9.37,0,0,0,6.33.38C155.63,235,157.3,233.17,157.3,232.73Z"/><path class="cls-142" d="M123.51,216.37s6.24,2.66,7.77,6.72a17.81,17.81,0,0,1,1,7.76s2.28-6.42-.48-10.28C129.21,216.9,123.51,216.37,123.51,216.37Z"/><path class="cls-142" d="M129.77,220.14s-.92,0-2.12,1.47a14.1,14.1,0,0,0-1.77,4,18.5,18.5,0,0,1,1.52-5.1,8.73,8.73,0,0,1,1.18-1.58Z"/><ellipse class="cls-142" cx="130.48" cy="226.08" rx="2.63" ry="5.06"/><path class="cls-142" d="M125.65,228.47a5.18,5.18,0,0,0,.54,2.28,5.56,5.56,0,0,0,2.39,1.93s-2.56-.26-3.15-1.39A3.76,3.76,0,0,1,125.65,228.47Z"/><path class="cls-142" d="M144.26,221s6.47,1.56,9.47,4.56a17.65,17.65,0,0,1,4.06,7.3s0-5.52-2.93-8.45C151,220.59,144.26,221,144.26,221Z"/><path class="cls-142" d="M145.27,234.69a11.1,11.1,0,0,0,6.5,1.75A7,7,0,0,0,157,233.5S153.65,237.45,145.27,234.69Z"/><path class="cls-142" d="M157,229.54c0,3-2,5.44-4.42,5.44s-4.42-2.44-4.42-5.44,2-5.43,4.42-5.43S157,226.54,157,229.54Z"/><path class="cls-7" d="M149.19,229.85a.83.83,0,1,1-1.66,0,.83.83,0,1,1,1.66,0Z"/><path class="cls-7" d="M128.68,227.78a.83.83,0,1,1-.83-.83A.83.83,0,0,1,128.68,227.78Z"/><path class="cls-143" d="M127.5,211.49a1.72,1.72,0,0,1,2,.22,13.18,13.18,0,0,1,4.1,6.69A26.8,26.8,0,0,0,131.7,211c-1.42-2.89-2.71-3.3-3.35-2.67S127.5,211.49,127.5,211.49Z"/><path class="cls-143" d="M144.93,216.37s1.72-2,3.43-2,7.21,3.79,10,6.62C158.41,221,150.63,215.86,144.93,216.37Z"/><path class="cls-144" d="M129.77,242a10.09,10.09,0,0,0,5.26.73c3.16-.33,10-3.34,10-3.34l.22.24s-6.5,3.31-9.81,3.8A7.88,7.88,0,0,1,129.77,242Z"/><path class="cls-142" d="M133.19,236.77c0-.84,3.77-.32,3.77-.32l-1.36.32S133.19,238,133.19,236.77Z"/><path class="cls-144" d="M129.77,233.24a11.18,11.18,0,0,0,4.51-6.87,17.27,17.27,0,0,0-.28-7.05,25.13,25.13,0,0,1-.38,7.63A14,14,0,0,1,129.77,233.24Z"/><path class="cls-139" d="M144.26,239c-.43,0,1.79,1.37,1.94,1.21S146.85,239,144.26,239Z"/><ellipse class="cls-145" cx="152.4" cy="237.93" rx="1.25" ry="0.6"/><path class="cls-145" d="M146.16,236.7c-.07.32-.67.48-1.34.34s-1.18-.51-1.11-.83.66-.48,1.34-.35S146.22,236.37,146.16,236.7Z"/><path class="cls-145" d="M155.42,237.07c0,.15-.32.26-.71.26s-.72-.11-.72-.26.32-.26.72-.26S155.42,236.93,155.42,237.07Z"/><path class="cls-145" d="M149.36,237.33c0,.15-.36.2-.75.12s-.68-.25-.65-.39.36-.2.75-.12S149.39,237.19,149.36,237.33Z"/><path class="cls-145" d="M125.93,233c0,.14-.35.22-.74.17s-.7-.2-.68-.34.35-.22.74-.17S125.94,232.83,125.93,233Z"/><path class="cls-145" d="M127,235.6c0,.34-.62.61-1.39.61s-1.39-.27-1.39-.61.62-.62,1.39-.62S127,235.25,127,235.6Z"/><path class="cls-145" d="M127.37,233.82c0,.18-.24.32-.53.32s-.54-.14-.54-.32.24-.32.54-.32S127.37,233.65,127.37,233.82Z"/><path class="cls-135" d="M149.19,195.36s14.69-4.7,23.14-3.69c0,0-11.59.23-21.58,4.26Z"/><path class="cls-135" d="M175.57,206.65a35.66,35.66,0,0,1-15.9-4,.23.23,0,0,1-.08-.31.22.22,0,0,1,.31-.08c.1.06,11,6.18,22.44,3.08a.22.22,0,0,1,.27.16.22.22,0,0,1-.15.28A26.61,26.61,0,0,1,175.57,206.65Z"/><path class="cls-135" d="M168.64,213.24a27.39,27.39,0,0,1-4.53-.37.23.23,0,0,1,.09-.45c.1,0,9.75,1.91,15.39-3a.23.23,0,1,1,.3.34C176.6,212.62,172,213.24,168.64,213.24Z"/><path class="cls-135" d="M162.52,230.08a.22.22,0,0,1-.2-.12.23.23,0,0,1,.1-.31c.12-.06,12.25-6.64,15.9-18a.23.23,0,0,1,.28-.14.22.22,0,0,1,.15.28c-3.71,11.51-16,18.18-16.12,18.24A.23.23,0,0,1,162.52,230.08Z"/><path class="cls-135" d="M151.67,195.12a.27.27,0,0,1-.12,0,.23.23,0,0,1-.07-.31l2.16-3.51a.23.23,0,0,1,.39.24l-2.17,3.5A.21.21,0,0,1,151.67,195.12Z"/><path class="cls-135" d="M157.77,193.45h-.05a.23.23,0,0,1-.17-.27l.59-2.55a.22.22,0,0,1,.27-.16.21.21,0,0,1,.17.26l-.59,2.55A.22.22,0,0,1,157.77,193.45Z"/><path class="cls-135" d="M177.84,204.66a.23.23,0,0,1-.21-.13c-3.82-8.09-13.46-11.83-13.55-11.87a.21.21,0,0,1-.13-.29.22.22,0,0,1,.29-.13c.1,0,9.9,3.84,13.8,12.09a.22.22,0,0,1-.11.3A.16.16,0,0,1,177.84,204.66Z"/><path class="cls-136" d="M182,212.32a59.1,59.1,0,0,1-6.44,19.38,0,0,0,0,0,0,0c-.45.4-7,2.28-11,3.4-1.84.53-3.17.89-3.17.89s.66-8,2.12-12.39c.5-1.53.37-4.35,0-7.39A117.88,117.88,0,0,0,161,204.07c.23.38,2.8,4.85,6.17,5.51a12,12,0,0,0,6.63-.75l8.1,3.29Z"/><path class="cls-136" d="M166.2,190.67s-14.29.69-20.82,4.48l4.34.62s13.84-5.38,22.23-4.14C172,191.63,167.11,190.67,166.2,190.67Z"/><path class="cls-146" d="M122.91,306.46l-1.43,1.46s3.26-.75,4.47.45a6.36,6.36,0,0,0,5.45,2.37c3.22,0,5.75,2.09,8.52,2.09s4.07-.51,6-.51,6.84,1.18,9,.51,2.21-1.81,4.58-1.81,4.34.4,5.41-.67.79-2.94,3.5-2.94,3.34-1,4.28-2.87,6.2-3.38,6.2-3.38l-2.27-.9Z"/><path class="cls-147" d="M182,202.43l-.08,13.9-.45.12c-1.16.28-4.21.79-6.09-1.1a5.31,5.31,0,0,1-1.16-2h0c-1.08-3.27-.6-8.48,1.91-9.68A17.48,17.48,0,0,1,182,202.43Z"/><path class="cls-148" d="M153.83,197.5s4.18.28,9.37.28,14.36-3.61,14.36-3.61l2.49,2.91s-3.32,2.94-10.42,2.15a35.32,35.32,0,0,0-12.33.69Z"/><path class="cls-149" d="M165.17,217.94c-.43,9.14-5,20.75-5,20.75a134.29,134.29,0,0,0,1.15-16.07c0-1.38-.73-6.2-1.35-10.07-.19-1.29-.38-2.48-.54-3.4s-.24-1.47-.29-1.73c0,.26.09.89.17,1.73s.14,1.91.2,3a33.66,33.66,0,0,1-.16,6.72s-7.11-5.19-13.65-7l.11-2.14.18-3.44.17-3.28-.68,3-.69,3-.49,2.19s-6-1.07-11.07-2.53a30.15,30.15,0,0,1,2-4.62c.33-.62.7-1.27,1.12-1.91a20,20,0,0,1,2.52-3.18,34.75,34.75,0,0,0-4.61,2.85,29.9,29.9,0,0,0-2.82,2.29,24.29,24.29,0,0,0-2.74,2.88h-9.4a40.92,40.92,0,0,1,4-3.16,45,45,0,0,1,4.65-2.88,43.44,43.44,0,0,1,4.16-2c-.43.15-2.29.83-4.61,1.81-1.77.76-3.82,1.69-5.7,2.7a28.66,28.66,0,0,0-3.64,2.3,23.12,23.12,0,0,1,2.73-2.61,34.41,34.41,0,0,1,4.77-3.32,36.83,36.83,0,0,1,16.24-4.87c12.21-.76,19.5,7.48,22.13,14.94a19.3,19.3,0,0,1,1,4.12A22.09,22.09,0,0,1,165.17,217.94Z"/><path class="cls-135" d="M141.25,210.82h0a.23.23,0,0,1-.18-.26,62.15,62.15,0,0,1,3.61-11.76,42.22,42.22,0,0,0-5.4,11.38.23.23,0,0,1-.28.16.23.23,0,0,1-.16-.27c2-7.46,7.89-15,7.95-15.05a.23.23,0,0,1,.36.27c-3.64,5-5.62,15.25-5.64,15.35A.22.22,0,0,1,141.25,210.82Z"/><path class="cls-135" d="M155.43,216.59h-.05a.23.23,0,0,1-.17-.28c1.79-7.74-.06-17.74-.08-17.84a.23.23,0,0,1,.18-.26.22.22,0,0,1,.26.18c0,.1,1.89,10.19.08,18A.23.23,0,0,1,155.43,216.59Z"/><path class="cls-150" d="M134.24,201.78a29.9,29.9,0,0,0-2.82,2.29c-1.82.05-3.75.1-5.55,0a24.8,24.8,0,0,1-2.55-.28c-.58-.11-1.07-.23-1.5-.35s-.65-.21-.91-.31a34.41,34.41,0,0,1,4.77-3.32,11.63,11.63,0,0,0,1.84.93c.14,0,.29.12.45.17a9.38,9.38,0,0,0,3.14.61A22.6,22.6,0,0,1,134.24,201.78Z"/><path class="cls-150" d="M139.86,202.87c1,.24,3.16,1.7,5.58,3.12l-.69,3c-2.13-1.63-4.71-3.94-6.32-4.55a10.16,10.16,0,0,0-3.22-.41c.33-.62.7-1.27,1.12-1.91C137.74,202.37,139,202.67,139.86,202.87Z"/><path class="cls-150" d="M165.17,217.94c-1-1.16-2.13-2.47-3.22-3.54a23.63,23.63,0,0,0-2-1.85l-.46-.36a10.27,10.27,0,0,0-4.61-2.13c-2.22-.35-5.7,1.44-7.93.36a9.92,9.92,0,0,1-1.16-.7l.18-3.44a18.92,18.92,0,0,0,6,2.53c2.19.3,4.81.21,7.35.34h.12a18.62,18.62,0,0,1,4.66.73,19.3,19.3,0,0,1,1,4.12A22.09,22.09,0,0,1,165.17,217.94Z"/><path class="cls-136" d="M181.47,212.1v4.35c-1.16.28-4.21.79-6.09-1.1a5.31,5.31,0,0,1-1.16-2h0v-.05s2.49,2.25,3,1.72-.62-3.85-.62-5a31.31,31.31,0,0,1,1.24-5Z"/><path class="cls-151" d="M190.49,222.09c.8.8,2.79-.38,5.18-2.77s3.61-8.63,3.61-8.63l-2.4-.75,3-.68s3.09-13.3,1.28-13.9-19.24,6.54-21.42,9.84c0,0,4.14,11,5.63,12.5S190.49,222.09,190.49,222.09Z"/><path class="cls-135" d="M177.86,205.43S192.74,193.82,202,193l-1.36,3.83s-13.3,4.06-19.62,7.55l11.39-3.15-2.48,6.84h-8.45l7.66,1.39s-.63,10.62,1.36,12.6c0,0-10.26-5.53-12-8.84S177.86,205.43,177.86,205.43Z"/><path class="cls-135" d="M179.29,212.12s5.63,9.77,9.92,13l-.75,1.16s-7.67-7.54-9.93-13Z"/><path class="cls-152" d="M168.19,208.83c-.63.63-.62,10.6.16,11.2,1.18.9,5.56-1.12,5.56-2.32S168.82,208.2,168.19,208.83Zm1.14,9.42c-.36-.54-1.15-7.11-.61-7.66s3.78,6.06,3.78,6.66S169.65,218.75,169.33,218.25Z"/><path class="cls-153" d="M168.49,208.83c-.63.63-.62,10.6.17,11.2,1.17.9,5.55-1.12,5.55-2.32S169.13,208.2,168.49,208.83Zm1.14,9.42c-.36-.54-1.14-7.11-.6-7.66s3.78,6.06,3.78,6.66S170,218.75,169.63,218.25Z"/><path class="cls-139" d="M161.36,236s6.22-7.29,13.19-4.83-5.54,16.2-11.85,15.18c-4.34-.71-3.39-5.88-3.39-5.88Z"/><path class="cls-137" d="M162.7,238s7.17-3.65,11.13-2.56C173.83,235.46,166.55,240.45,162.7,238Z"/><path class="cls-137" d="M164.84,238s-1.6,3.39-.4,4.79,4.22-.5,4.22-.5-2.46,1-3.17-.15c-.57-.9,1.21-4.19,1.21-4.19Z"/><path class="cls-154" d="M176.6,300.26a6,6,0,0,1-.49.43c-2.28,1.94-12.13,9.77-23.71,10.95-13.22,1.36-29.49-5.18-29.49-5.18s.16-1.4.45-3.61h0c.59-4.64,1.74-12.83,3-19.17a45.12,45.12,0,0,1,1.94-7.21,26.32,26.32,0,0,1,4.88-7.6,20.81,20.81,0,0,1,2.68-2.54l4.72-.49c.39-1.74,1.09-5,1.64-8.12.07-.43.15-.86.22-1.27.44-2.68.7-5,.41-5.57-.78-1.65-3.25-1.26-3.25-1.26A21.47,21.47,0,0,1,143.1,248l.25-.1.29-.11.12-.05.21-.08.17-.06a62.9,62.9,0,0,0,7.75.76l.75,0a5.22,5.22,0,0,0,2-.43c.83-.37.83-.86.83-.86s3,5.26,3.8,8.14c1.37,5-.23,11-.23,11s4.53,15.53,9.67,23.75S176.6,300.26,176.6,300.26Z"/><path class="cls-155" d="M142,269s4.34.56,4.66.88,2.15,9.16,2.15,9.16-.12-9.27.28-9.67,4.51-.73,4.73-.73,1.48,1.63,1.48,1.63-.13-1.6.16-1.88a28.26,28.26,0,0,1,3.76-1.27l-.19-.44a76.25,76.25,0,0,1-8.76,1.87A44,44,0,0,1,142,269Z"/><path class="cls-156" d="M155.42,258.13a19,19,0,0,1-1.76,8.26s-1.23,17.1-7.32,26.32c-6.69,10.14-23,10.14-23,10.14h0c.88-6.84,3-21.43,5-26.38a26.08,26.08,0,0,1,7.56-10.14l4.72-.49c.44-2,1.3-6,1.86-9.39l1.14-1.25L143.1,248l.25-.1.29-.11.12-.05.21-.08.17-.06a62.9,62.9,0,0,0,7.75.76l.75,0C153.34,249.71,155.42,254,155.42,258.13Z"/><path class="cls-157" d="M159,266.24s-6.59,3.29-16.78,1.92l-.25.8s12.51.42,17-2.32Z"/><path class="cls-158" d="M144.66,260.16s-4,22.52-11.47,24.76-4.84-8.46-4.84-8.46L142,265Z"/><path class="cls-138" d="M140.71,265.46a30.53,30.53,0,0,1-3,4.41c-3,3.73-6.53,6.55-7.64,6.55-1.51,0-5.61-1.5-8.83-4.72s-6.47-11.17-6.47-11.17-2.63-.36-3.59-1.32c-.56-.56-1.15-2.47-1.64-4.07a10.49,10.49,0,0,0-.87-2.34c-.52-.51-2.57-1-1.93-1.67s3.14-.82,3.74-.82,1.6-1.32,2.25-1.32a4.88,4.88,0,0,0,2.3-.4,3.63,3.63,0,0,1,2.39,0c.59.16,2.55.21,3.17.83a1,1,0,0,1,.17.55c.24,1.82-.44,7.31-.44,8.16s6.95,4.27,6.95,4.27l0,0,.06-.07c.16-.19.53-.66,1.07-1.3,3.11-3.72,11.61-13.46,14.05-11.77C145.78,251.53,143.89,259.75,140.71,265.46Z"/><path class="cls-139" d="M137.68,269.87c-3,3.73-6.53,6.55-7.64,6.55-1.51,0-5.61-1.5-8.83-4.72s-6.47-11.17-6.47-11.17-2.63-.36-3.59-1.32c-.56-.56-1.15-2.47-1.64-4.07,0,0,0-2.26.43-2.73s1-.28,1.62-.94a3,3,0,0,1,2.1-.64,4.25,4.25,0,0,0,2-.6c.36-.36,2.55.17,3-.27a2.4,2.4,0,0,1,2.1,0c.24,1.82-.44,7.31-.44,8.16a3.48,3.48,0,0,0-1.63,3.34c.3,2.21,7.87,6.63,8.36,6.14s.22-5.21.22-5.21l0,0,.06-.07.88-1.29h.38Z"/><path class="cls-159" d="M136.74,272c-1,2.16-5.07,5.08-6.37,5.48s-5.1-.88-7.46-3.24-7.39-9.85-7.8-10.26a4.56,4.56,0,0,0-1.7-.66s.18-.33.51-.82a13.2,13.2,0,0,1,4.19-4.08c2.7-1.42,3.17-.6,3.17-.6,0,1.84,3.29,3.07,4.69,3.51h0c.37.12.61.18.61.18h1.23l2.09,2.47Z"/><path class="cls-8" d="M136.74,272c-1,2.16-5.07,5.08-6.37,5.48s-5.1-.88-7.46-3.24-7.39-9.85-7.8-10.26a4.56,4.56,0,0,0-1.7-.66s.18-.33.51-.82c.81.21,2.29.5,2.29-.06,0-.75,2.62-2.91,2.88-3.12-.24.27-2.79,3.21-1,5s5.92,7.66,7,7.66c1.6,0,4.24-2.5,2.31-5.17-.93-1.29-1.41-5.5-1.41-5.5h0l1,.18,2.9,2.47Z"/><path class="cls-20" d="M159,269.84s8.42,20.76,8.42,25-5.45,9.33-5.45,9.33,2-5.72,1.24-14.59S159,269.84,159,269.84Z"/><path class="cls-160" d="M127,257.87h-2.21s1.86.82,1.86,2.29S126,264,128.1,265s2,3.71,3.13,4.88,3.68,1.32,4.56,2.19a4.29,4.29,0,0,0,3.22,1.56,5.12,5.12,0,0,0,2.69-.89L141,272s-5.74,0-9.07-4.65A38.12,38.12,0,0,1,127,257.87Z"/><path class="cls-161" d="M145.9,255.51c-.05.29-.1.59-.17.88C144.59,260.79,141,272,141,272a10.92,10.92,0,0,1-7.17-2.61c-.2-.18-.4-.37-.58-.56a19.62,19.62,0,0,1-2.5-3.13,33.43,33.43,0,0,1-3.71-7.86s1.83-1.54,4-3.28A66.31,66.31,0,0,1,137,250.2c2.9-1.75,5.75-2.57,6.14-2.18a10.49,10.49,0,0,1,2.78,5.54A7.45,7.45,0,0,1,145.9,255.51Z"/><path class="cls-162" d="M145.88,253.56s-2.41-3-2.79-3.33-7.78,9-8.76,11.46,2,7.85,2.15,8.15a30.59,30.59,0,0,1-5.42-6.23c-2-3.35-.33,2.12-.33,2.12a33.43,33.43,0,0,1-3.71-7.86s7-5.93,9.94-7.67,5.75-2.57,6.14-2.18A10.49,10.49,0,0,1,145.88,253.56Z"/><path class="cls-163" d="M164,266.32l2.4,1.29s-2.09-.79-2.88,0-3.68,1.45-3.68,1.45l-.64-1.74A13.22,13.22,0,0,0,164,266.32Z"/><path class="cls-164" d="M156.39,287.45c0-.14-.06-.26-.08-.34C156.33,287.19,156.36,287.31,156.39,287.45Z"/><path class="cls-165" d="M176.11,300.69c-2.28,1.94-12.13,9.77-23.71,10.95-13.22,1.36-29.49-5.18-29.49-5.18s.16-1.4.45-3.61h0c.59-4.64,1.74-12.83,3-19.17v-.05s-2.31,20.27-2.31,21.48,12.25,5.69,17.59,5.22l.26-6.19s1.53,5.51,2.24,6.22,11.24-.81,14-2.42c2.45-1.47-1.06-17.39-1.76-20.44.73,3,4.52,18.51,6.07,19.16S173.27,302.92,176.11,300.69Z"/><path class="cls-166" d="M154.59,247.93a61.07,61.07,0,0,1-8.69,7.58,30.53,30.53,0,0,1-3.63,2.2,17.25,17.25,0,0,1-2.88,1.17c-7.38,2.18-8.37-4.29-8.37-4.29A66.31,66.31,0,0,1,137,250.2c2.9-1.75,5.75-2.57,6.14-2.18l.25-.1.29-.11.12-.05.21-.08.17-.06a62.9,62.9,0,0,0,7.75.76l.75,0A5.22,5.22,0,0,0,154.59,247.93Z"/><path class="cls-167" d="M149.89,322.77l.55,3.08s6.87,1.65,11.86-.73l.34-2.85S155.6,324.77,149.89,322.77Z"/><path class="cls-168" d="M151.61,331.08s5.52,2.37,9.4,0l-.49,2.45s-5.07,1.89-8.37-.32Z"/><path class="cls-167" d="M139.27,324.34a22.42,22.42,0,0,1-13.9-1v4.07s6.3,2.26,12.14.74C137.51,328.12,138.51,326.18,139.27,324.34Z"/><path class="cls-168" d="M134.93,332.68a15.17,15.17,0,0,1-10-.91l-.38,3s4.4,2.64,8.72.77Z"/><path class="cls-169" d="M160.12,316.08a53,53,0,0,1-.09,13.09c-.86,5.62-1.88,10.44-1.88,10.44s2.33-8.89,3.47-15.19S160.12,316.08,160.12,316.08Z"/><path class="cls-169" d="M140.5,317.28s-1.39,1.17-2.33,2.1-1.81,8.33-4,12.78a52.12,52.12,0,0,1-4.44,7.45s5.92-7.45,8-12.86A50.65,50.65,0,0,0,140.5,317.28Z"/><path class="cls-170" d="M144.14,247.62s9.77-.21,12.54-2.22c0,0-.45,2.41-2,3S144.14,247.62,144.14,247.62Z"/><ellipse class="cls-25" cx="241.06" cy="321.13" rx="57.27" ry="15.75" transform="translate(-53.49 48.23) rotate(-10.29)"/></g></g><path class="cls-171" d="M118.21,179.41,97.66,97.63h2.83l7.8,11.58c6.75,11.87,13.23,25.28,13.23,38.93v30.33Z"/><polygon class="cls-25" points="97.66 97.63 64.75 142.44 47.81 98.4 44.24 98.4 19.23 143.33 19.67 192.78 34.17 196.8 99.39 174.78 97.66 97.63"/><path class="cls-172" d="M100.29,174.78,97.66,97.63l7.49,11.58c6.75,11.87,14,25.28,14,38.93l-.91,31.27Z"/><path class="cls-173" d="M99.39,174.78,97.66,97.63l6.59,11.58c6.75,11.87,14,25.28,14,38.93v31.27Z"/><polygon class="cls-174" points="115.07 172.89 65.58 176.68 65.58 172.89 115.07 169.71 115.07 172.89"/><polygon class="cls-175" points="115.07 169.71 99.16 166.23 65.66 167.7 65.58 172.89 115.07 169.71"/><polygon class="cls-176" points="115.07 145.38 115.07 142.44 64.75 142.44 65.18 146.97 115.07 145.38"/><polygon class="cls-177" points="115.07 142.44 98.64 141.29 64.75 141.29 64.75 142.44 115.07 142.44"/><polygon class="cls-178" points="65.64 172.16 115.07 169.71 65.58 172.89 65.64 172.16"/><polygon class="cls-179" points="64.75 141.87 115.07 142.44 64.75 142.44 64.75 141.87"/><path class="cls-180" d="M62.19,185.33,44.24,98.4h3.57l7,12.31a83.73,83.73,0,0,1,11,41.38l-.18,32.73Z"/><path class="cls-181" d="M47.06,180.4l-2.82-82,8,12.31a83.62,83.62,0,0,1,11,41.38l-1,33.24Z"/><path class="cls-182" d="M46.08,180.4l-1.84-82,7,12.31a83.62,83.62,0,0,1,10.95,41.38v33.24Z"/><polygon class="cls-29" points="113.19 173.03 108.13 170.06 82.45 166.96 99.16 166.23 115.07 169.71 115.07 172.89 113.19 173.03"/><polygon class="cls-29" points="115.07 145.38 115.07 142.44 98.64 141.29 89.91 141.29 111.53 142.84 115.07 145.38"/><polygon class="cls-29" points="115.07 172.89 109.59 177.29 99.39 174.78 99.39 174.09 115.07 172.89"/><polygon class="cls-29" points="115.07 145.38 98.88 151.83 98.76 145.9 115.07 145.38"/><polygon class="cls-183" points="75.37 169.71 67.5 169.71 68.36 162.39 74.56 162.39 75.37 169.71"/><polygon class="cls-184" points="71.5 168.26 68.84 168.26 69.13 162.38 71.22 162.38 71.5 168.26"/><polygon class="cls-185" points="68.36 161.99 68.03 160.5 74.8 160.61 74.58 161.99 68.36 161.99"/><polygon class="cls-186" points="74.26 162.39 74.3 161.99 68.69 161.99 68.69 162.39 74.26 162.39"/><polygon class="cls-20" points="69.37 162.59 74.3 162.59 75.15 169.49 74.61 167.12 70.25 162.94 69.37 162.59"/><polygon class="cls-20" points="68.38 160.5 74.64 160.76 74.47 161.86 74.41 161.38 68.38 160.5"/><polygon class="cls-20" points="68.53 162.72 67.77 169.49 73.92 169.49 68.24 169.17 68.53 162.72"/><polygon class="cls-187" points="77.43 169.71 69.56 169.71 70.42 162.39 76.62 162.39 77.43 169.71"/><polygon class="cls-188" points="73.56 168.26 70.9 168.26 71.19 162.38 73.28 162.38 73.56 168.26"/><polygon class="cls-189" points="70.42 161.99 70.02 160.17 76.86 160.61 76.65 161.99 70.42 161.99"/><polygon class="cls-186" points="76.33 162.39 76.37 161.99 70.75 161.99 70.75 162.39 76.33 162.39"/><polygon class="cls-20" points="71.43 162.59 76.37 162.59 77.22 169.49 76.67 167.12 72.32 162.94 71.43 162.59"/><polygon class="cls-20" points="70.25 160.31 76.7 160.76 76.54 161.86 76.47 161.38 70.25 160.31"/><polygon class="cls-20" points="70.59 162.72 69.83 169.49 75.99 169.49 70.3 169.17 70.59 162.72"/><polygon class="cls-190" points="89.12 169.13 81.24 169.13 82.1 161.81 88.3 161.81 89.12 169.13"/><polygon class="cls-191" points="85.24 167.69 82.58 167.69 82.87 161.8 84.97 161.8 85.24 167.69"/><polygon class="cls-192" points="82.1 161.41 81.78 159.92 88.55 160.03 88.33 161.41 82.1 161.41"/><polygon class="cls-186" points="88.01 161.81 88.05 161.41 82.44 161.41 82.44 161.81 88.01 161.81"/><polygon class="cls-20" points="83.12 162.01 88.05 162.01 88.9 168.91 88.36 166.54 84 162.36 83.12 162.01"/><polygon class="cls-20" points="82.13 159.92 88.38 160.18 88.22 161.28 88.15 160.8 82.13 159.92"/><polygon class="cls-20" points="82.27 162.15 81.51 168.91 87.67 168.91 81.98 168.59 82.27 162.15"/><polygon class="cls-193" points="98.12 168.26 90.24 168.26 91.11 160.94 97.3 160.94 98.12 168.26"/><polygon class="cls-191" points="94.25 166.82 91.58 166.82 91.88 160.93 93.97 160.93 94.25 166.82"/><polygon class="cls-194" points="91.11 160.54 90.78 159.06 97.55 159.16 97.33 160.54 91.11 160.54"/><polygon class="cls-186" points="97.01 160.94 97.05 160.54 91.44 160.54 91.44 160.94 97.01 160.94"/><polygon class="cls-20" points="92.12 161.14 97.05 161.14 97.9 168.04 97.36 165.68 93 161.5 92.12 161.14"/><polygon class="cls-20" points="91.13 159.06 97.39 159.31 97.22 160.41 97.16 159.93 91.13 159.06"/><polygon class="cls-20" points="91.28 161.28 90.52 168.04 96.67 168.04 90.99 167.72 91.28 161.28"/><rect class="cls-195" x="69.93" y="118.79" width="0.86" height="17.46" transform="translate(-27.99 20.1) rotate(-13.59)"/><rect class="cls-196" x="70.4" y="118.7" width="0.71" height="17.46" transform="translate(-27.97 20.2) rotate(-13.59)"/><rect class="cls-197" x="71" y="118.62" width="0.86" height="17.46" transform="translate(-24.55 17.31) rotate(-11.81)"/><rect class="cls-198" x="71.47" y="118.54" width="0.71" height="17.46" transform="translate(-24.53 17.39) rotate(-11.81)"/><rect class="cls-197" x="73.35" y="120.08" width="0.86" height="17.46" transform="translate(-9.44 5.88) rotate(-4.29)"/><rect class="cls-198" x="73.83" y="120.05" width="0.71" height="17.46" transform="translate(-9.43 5.91) rotate(-4.29)"/><rect class="cls-199" x="76.86" y="118.67" width="0.86" height="17.46" transform="translate(1.95 -1.16) rotate(0.87)"/><rect class="cls-200" x="77.34" y="118.68" width="0.71" height="17.46" transform="translate(1.95 -1.17) rotate(0.87)"/><rect class="cls-201" x="77.34" y="122.06" width="0.86" height="17.46" transform="matrix(1, 0.06, -0.06, 1, 7.49, -4.17)"/><rect class="cls-202" x="77.82" y="122.08" width="0.71" height="17.46" transform="translate(7.49 -4.19) rotate(3.23)"/><rect class="cls-203" x="74.89" y="119" width="0.86" height="17.46" transform="translate(-0.94 0.56) rotate(-0.42)"/><rect class="cls-204" x="75.37" y="119" width="0.71" height="17.46" transform="translate(-0.94 0.56) rotate(-0.42)"/><rect class="cls-205" x="78.74" y="116.92" width="0.86" height="19.2" transform="translate(11.52 -6.51) rotate(5.08)"/><rect class="cls-206" x="79.22" y="116.96" width="0.71" height="19.2" transform="translate(11.53 -6.56) rotate(5.09)"/><rect class="cls-197" x="81.73" y="119" width="0.86" height="17.46" transform="matrix(0.99, 0.16, -0.16, 0.99, 21.56, -11.53)"/><rect class="cls-198" x="82.2" y="119.06" width="0.71" height="17.46" transform="translate(21.57 -11.59) rotate(9.23)"/><rect class="cls-207" x="79.79" y="119" width="0.86" height="17.46" transform="matrix(0.99, 0.16, -0.16, 0.99, 21.53, -11.22)"/><rect class="cls-208" x="80.27" y="119.06" width="0.71" height="17.46" transform="translate(21.54 -11.28) rotate(9.23)"/><rect class="cls-205" x="69.24" y="120.38" width="0.86" height="17.46" transform="translate(-33.48 24.79) rotate(-16.32)"/><rect class="cls-206" x="69.71" y="120.27" width="0.71" height="17.46" transform="matrix(0.96, -0.28, 0.28, 0.96, -33.43, 24.89)"/><polygon class="cls-209" points="68.66 128.6 70.51 142.41 80.81 142.37 83.13 128.6 68.66 128.6"/><polygon class="cls-20" points="69.31 128.79 82.32 128.79 80.38 142.25 81.5 129.08 69.31 128.79"/><polygon class="cls-210" points="69.31 129.06 70.97 141.95 79.54 141.95 71.93 141.5 70.61 129.06 69.31 129.06"/><polygon class="cls-211" points="71.38 128.69 72.79 141.28 75.53 141.44 74.79 128.69 71.38 128.69"/><rect class="cls-197" x="89.42" y="119" width="0.84" height="16.95" transform="translate(-24.19 21.08) rotate(-11.81)"/><rect class="cls-198" x="89.88" y="118.92" width="0.69" height="16.95" transform="translate(-24.16 21.15) rotate(-11.81)"/><rect class="cls-197" x="91.71" y="120.42" width="0.84" height="16.95" transform="translate(-9.38 7.25) rotate(-4.29)"/><rect class="cls-198" x="92.17" y="120.39" width="0.69" height="16.95" transform="translate(-9.39 7.29) rotate(-4.29)"/><rect class="cls-199" x="95.12" y="119.06" width="0.84" height="16.95" transform="translate(1.96 -1.44) rotate(0.87)"/><rect class="cls-200" x="95.59" y="119.06" width="0.69" height="16.95" transform="translate(1.96 -1.45) rotate(0.87)"/><rect class="cls-199" x="92.88" y="120.96" width="0.84" height="16.95" transform="translate(-4.15 3.09) rotate(-1.86)"/><rect class="cls-200" x="93.35" y="120.95" width="0.69" height="16.95" transform="translate(-4.14 3.1) rotate(-1.85)"/><rect class="cls-201" x="95.59" y="122.34" width="0.84" height="16.95" transform="translate(7.53 -5.21) rotate(3.23)"/><rect class="cls-202" x="96.05" y="122.36" width="0.69" height="16.95" transform="translate(7.53 -5.23) rotate(3.23)"/><rect class="cls-203" x="87.94" y="118.95" width="0.84" height="16.95" transform="translate(-22.09 18.59) rotate(-10.68)"/><rect class="cls-204" x="88.41" y="118.88" width="0.69" height="16.95" transform="translate(-22.06 18.65) rotate(-10.68)"/><rect class="cls-203" x="97.4" y="118.21" width="0.84" height="16.95" transform="translate(18.17 -12.15) rotate(7.83)"/><rect class="cls-204" x="97.87" y="118.27" width="0.69" height="16.95" transform="translate(18.18 -12.2) rotate(7.83)"/><rect class="cls-205" x="90.61" y="118.53" width="0.84" height="18.64" transform="translate(-5.13 3.81) rotate(-2.33)"/><rect class="cls-206" x="91.07" y="118.52" width="0.69" height="18.64" transform="translate(-5.14 3.84) rotate(-2.34)"/><rect class="cls-197" x="99.84" y="119.37" width="0.84" height="16.95" transform="translate(21.8 -14.42) rotate(9.23)"/><rect class="cls-198" x="100.31" y="119.44" width="0.69" height="16.95" transform="translate(21.82 -14.49) rotate(9.23)"/><rect class="cls-207" x="97.76" y="122.1" width="0.84" height="16.95" transform="translate(22.2 -14.05) rotate(9.23)"/><rect class="cls-208" x="98.22" y="122.16" width="0.69" height="16.95" transform="translate(22.23 -14.12) rotate(9.23)"/><rect class="cls-205" x="87.72" y="120.71" width="0.84" height="16.95" transform="translate(-32.76 29.98) rotate(-16.32)"/><rect class="cls-206" x="88.18" y="120.6" width="0.69" height="16.95" transform="translate(-32.72 30.09) rotate(-16.33)"/><polygon class="cls-212" points="87.16 128.69 88.95 142.1 98.95 142.07 101.21 128.69 87.16 128.69"/><polygon class="cls-20" points="87.78 128.88 100.42 128.88 98.54 141.95 99.39 129.19 87.78 128.88"/><polygon class="cls-210" points="87.78 129.14 89.4 141.65 97.72 141.65 90.33 141.22 89.05 129.14 87.78 129.14"/><polygon class="cls-211" points="89.91 128.69 91.33 141.28 94.06 141.44 93.33 128.69 89.91 128.69"/><path class="cls-20" d="M56.07,120.69h3.57a100.05,100.05,0,0,1,3.53,10.76l-3.55.07A105.61,105.61,0,0,0,56.07,120.69Z"/><path class="cls-20" d="M110.45,120.69h3.87s2.72,6.56,3.89,9.89h-3.46S111.09,122,110.45,120.69Z"/><polygon class="cls-25" points="45.78 166.82 47.03 179.41 59.62 182.62 61.82 144.21 62.19 185.33 46.08 180.4 45.78 166.82"/><path class="cls-213" d="M233.74,0H272.4a10.45,10.45,0,0,1,10.45,10.45v346.2a0,0,0,0,1,0,0H233.74a0,0,0,0,1,0,0V0A0,0,0,0,1,233.74,0Z"/><g class="cls-214"><polygon class="cls-215" points="-836.03 104.13 -1675.64 901.87 841.97 1132.58 -262.62 104.13 -232.65 104.13 1206.18 1218.06 -2274.86 1218.06 -836.03 104.13"/><rect class="cls-216" x="-1329.4" y="91.58" width="2789.36" height="265.13"/><rect class="cls-1" x="-1329.37" y="-898.56" width="2789.36" height="1255.21"/></g></g></g></svg>