<svg id="Camada_1" data-name="Camada 1" xmlns="http://www.w3.org/2000/svg" xmlns:xlink="http://www.w3.org/1999/xlink" viewBox="0 0 70.14 107.05"><defs><style>.cls-1{fill:none;}.cls-2{fill:#468b33;}.cls-3{fill:#fa3e18;}.cls-4{fill:#ffd880;}.cls-5{fill:#560c00;}.cls-6{fill:#dfbd7c;}.cls-7{fill:#ff615e;}.cls-8{fill:#fae9bc;}.cls-9{fill:#007ea2;}.cls-10{fill:url(#åçûìßííûé_ãðàäèåíò_3);}.cls-11{fill:#00b694;}.cls-12{fill:#510900;}.cls-13{fill:url(#åçûìßííûé_ãðàäèåíò_30);}.cls-14{fill:url(#åçûìßííûé_ãðàäèåíò_30-2);}.cls-15{fill:#e1784e;}.cls-16{fill:url(#åçûìßííûé_ãðàäèåíò_30-3);}.cls-17{fill:url(#åçûìßííûé_ãðàäèåíò_30-4);}.cls-18{fill:url(#åçûìßííûé_ãðàäèåíò_30-5);}.cls-19{fill:url(#åçûìßííûé_ãðàäèåíò_4);}.cls-20{fill:#6a1100;}.cls-21,.cls-28,.cls-32{fill:#fff;}.cls-21{opacity:0.37;}.cls-22{fill:url(#åçûìßííûé_ãðàäèåíò_30-6);}.cls-23{fill:#ffc256;}.cls-24{fill:url(#åçûìßííûé_ãðàäèåíò_3-2);}.cls-25{fill:#ffa244;opacity:0.15;}.cls-26{fill:#ffac31;}.cls-27{fill:#ff3a2d;}.cls-28{opacity:0.27;}.cls-29{fill:#b50000;opacity:0.12;}.cls-30{fill:url(#åçûìßííûé_ãðàäèåíò_3-3);}.cls-31{fill:url(#åçûìßííûé_ãðàäèåíò_3-4);}.cls-33{fill:url(#åçûìßííûé_ãðàäèåíò_3-5);}.cls-34{fill:#590800;}.cls-35{fill:url(#åçûìßííûé_ãðàäèåíò_3-6);}.cls-36{clip-path:url(#clip-path);}.cls-37{fill:url(#Áåçûìÿííûé_ãðàäèåíò_167);}</style><linearGradient id="åçûìßííûé_ãðàäèåíò_3" x1="38.78" y1="4.82" x2="48.26" y2="4.82" gradientUnits="userSpaceOnUse"><stop offset="0" stop-color="#a43113"/><stop offset="1" stop-color="#6f160d"/></linearGradient><linearGradient id="åçûìßííûé_ãðàäèåíò_30" x1="43.78" y1="80.08" x2="49.69" y2="80.08" gradientUnits="userSpaceOnUse"><stop offset="0" stop-color="#fdc38b"/><stop offset="1" stop-color="#fda37d"/></linearGradient><linearGradient id="åçûìßííûé_ãðàäèåíò_30-2" x1="27.21" y1="81.26" x2="42.64" y2="81.26" xlink:href="#åçûìßííûé_ãðàäèåíò_30"/><linearGradient id="åçûìßííûé_ãðàäèåíò_30-3" x1="2775.46" y1="-2321.28" x2="2793.11" y2="-2321.28" gradientTransform="matrix(0.92, -0.39, 0.39, 0.92, -1641.5, 3276.94)" xlink:href="#åçûìßííûé_ãðàäèåíò_30"/><linearGradient id="åçûìßííûé_ãðàäèåíò_30-4" x1="14694.1" y1="53.48" x2="14711.82" y2="53.48" gradientTransform="matrix(-1, 0, 0, 1, 14759.13, 0)" xlink:href="#åçûìßííûé_ãðàäèåíò_30"/><linearGradient id="åçûìßííûé_ãðàäèåíò_30-5" x1="36.73" y1="38.25" x2="42.75" y2="38.25" xlink:href="#åçûìßííûé_ãðàäèåíò_30"/><linearGradient id="åçûìßííûé_ãðàäèåíò_4" x1="23.79" y1="24.72" x2="52.16" y2="24.72" gradientUnits="userSpaceOnUse"><stop offset="0" stop-color="#fda37d"/><stop offset="1" stop-color="#fdc38b"/></linearGradient><linearGradient id="åçûìßííûé_ãðàäèåíò_30-6" x1="23.01" y1="30.63" x2="28.57" y2="30.63" xlink:href="#åçûìßííûé_ãðàäèåíò_30"/><linearGradient id="åçûìßííûé_ãðàäèåíò_3-2" x1="17.87" y1="18.53" x2="50.81" y2="18.53" xlink:href="#åçûìßííûé_ãðàäèåíò_3"/><linearGradient id="åçûìßííûé_ãðàäèåíò_3-3" x1="29.31" y1="27.95" x2="34.32" y2="27.95" xlink:href="#åçûìßííûé_ãðàäèåíò_3"/><linearGradient id="åçûìßííûé_ãðàäèåíò_3-4" x1="-898.1" y1="1451.56" x2="-888.34" y2="1451.56" gradientTransform="translate(1159.95 -1247.72) rotate(10.57)" xlink:href="#åçûìßííûé_ãðàäèåíò_3"/><linearGradient id="åçûìßííûé_ãðàäèåíò_3-5" x1="11923.32" y1="-1414.8" x2="11923.32" y2="-1420.84" gradientTransform="matrix(-1.31, 0.29, 0.22, 0.98, 15910.12, -2019.77)" xlink:href="#åçûìßííûé_ãðàäèåíò_3"/><linearGradient id="åçûìßííûé_ãðàäèåíò_3-6" x1="12832.68" y1="-1854.58" x2="12832.68" y2="-1860.58" gradientTransform="matrix(-0.96, 0.29, 0.29, 0.96, 12867.41, -1911.07)" xlink:href="#åçûìßííûé_ãðàäèåíò_3"/><clipPath id="clip-path"><rect class="cls-1" x="-405.9" y="-1109.45" width="588.51" height="528.38"/></clipPath><linearGradient id="Áåçûìÿííûé_ãðàäèåíò_167" x1="-112.27" y1="72.29" x2="-112.27" y2="-991.23" gradientUnits="userSpaceOnUse"><stop offset="0" stop-color="#bac933"/><stop offset="0.14" stop-color="#b5c733"/><stop offset="0.31" stop-color="#a5c234"/><stop offset="0.51" stop-color="#8bb836"/><stop offset="0.72" stop-color="#67ac38"/><stop offset="0.93" stop-color="#3a9c3b"/><stop offset="1" stop-color="#2a963c"/></linearGradient></defs><title>Prancheta 164</title><path class="cls-2" d="M6.88,95.16c0,3.67,13,6.65,29.08,6.65S65,98.83,65,95.16,52,88.5,36,88.5,6.88,91.48,6.88,95.16Z"/><path class="cls-3" d="M25.79,60.53c-1.52-2.3-1.79,9.94-3.79,14A28.87,28.87,0,0,1,19.62,79l.72.38s5.16-7.66,6.33-10.17A8.46,8.46,0,0,0,25.79,60.53Z"/><path class="cls-4" d="M18.73,74.68c-4.94-1.2-7.17,3.66-5,5.4s6.22,2.75,7.87.17S21.67,75.39,18.73,74.68Z"/><path class="cls-4" d="M16,81.31c-.48,1-4.15,1.74-5,3.35s.22,4.09,3.1,4.64,3.72-7.53,3.72-7.53Z"/><path class="cls-3" d="M10.69,85.72,8.28,89.9c-1.25,2.17-.17,6.19.56,6.19,1.58,0,1.11-2.45,1-4.58a26.11,26.11,0,0,1,1-4.85Z"/><path class="cls-3" d="M14.07,89.3a28.77,28.77,0,0,1-1.41,5.14c-1.41,2.29-4.14,3.35-5.12,2.2-.2-.24,1.9-1.21,3.26-2.78A32.5,32.5,0,0,0,13.44,89Z"/><path class="cls-3" d="M17.59,83.17a13.81,13.81,0,0,1,2.6,2.37c1,1.67,1,4.92.4,5.09S17.45,84,17.45,84Z"/><path class="cls-5" d="M15.13,77.8c-.06.31-.23.54-.39.52s-.24-.31-.18-.62.22-.55.38-.52S15.18,77.49,15.13,77.8Z"/><path class="cls-5" d="M19.52,78.84c-.17.31-.44.49-.62.4s-.18-.42,0-.73.44-.49.62-.4S19.69,78.53,19.52,78.84Z"/><path class="cls-6" d="M16,81.31l1.82.46a22.09,22.09,0,0,1-1,4.77c-.67,1.47-1.28,3.17-3,2.66a4.57,4.57,0,0,1-2.25-1.26,2.27,2.27,0,0,0,3.59-.89A9.8,9.8,0,0,0,16,81.31Z"/><path class="cls-6" d="M18.34,74.59s2.58.92,2.83,2.86-2.62,4.36-2.62,4.36a3.5,3.5,0,0,0,3.74-3.74C22.32,75.36,18.34,74.59,18.34,74.59Z"/><path class="cls-7" d="M21.56,76.28a23,23,0,0,0,2.81-6.54c.5-2.86.54-7,1.11-7.17s.57,5.85-.56,8.33a50.39,50.39,0,0,1-3.17,5.57Z"/><path class="cls-8" d="M14.73,79.29c0-.84,1.49-1,3.19-.16s0,2.12-1.18,1.9S14.71,80.08,14.73,79.29Z"/><path class="cls-5" d="M16,79c0-.19,1.27.11,1.3.28s-.65.5-.76.44A5.16,5.16,0,0,1,16,79Z"/><path class="cls-5" d="M15.37,79.56a2,2,0,0,0,1.5,1,1.65,1.65,0,0,0,1.54-.68s-.65,1.08-1.61.89A2.27,2.27,0,0,1,15.37,79.56Z"/><path class="cls-9" d="M15.76,81.58a1.55,1.55,0,0,0,.85.72,1.44,1.44,0,0,0,1.11,0s.63.47,1.24,1l.61.48L18,85.63l-.48-.94-.26,1.63a25.36,25.36,0,0,1-2.69-1.81,6.2,6.2,0,0,1-1.67-1.69l1-.42-.95-.13.53-1.48Z"/><path class="cls-3" d="M10.12,68.07C8.37,70.2,15.66,66.45,16,70.68c.25,3.48-.65,4.09-.65,4.09l.93-.19a13.93,13.93,0,0,0,2.17-5C19.15,65.63,12.14,65.61,10.12,68.07Z"/><path class="cls-7" d="M10,68.74s3.67-1.71,5.73-.27,0,6.24,0,6.24l-.32-.18s1.89-3.86,0-5.36S10,68.74,10,68.74Z"/><path class="cls-3" d="M13.34,81.12A28.81,28.81,0,0,0,9,80.75c-2.68,0-3.38.2-3.38.56s2.49,1,4.43,1A10.78,10.78,0,0,0,13,82Z"/><path class="cls-10" d="M39.07,7.45S38.46,3.57,39,2.91c1.11-1.36,8.88-1.78,9.23.92a7.18,7.18,0,0,1-1.16,4Z"/><path class="cls-11" d="M37.58,7.56s1.55-2.19,5.6-2c5,.28,5.59,3.5,5.59,3.5Z"/><path class="cls-12" d="M49.55,25.21a5.65,5.65,0,0,1-1.79-3.59,12.24,12.24,0,0,1,.9-4.9s2.14,1.74,1.86,3.89A38.82,38.82,0,0,1,49.55,25.21Z"/><path class="cls-12" d="M49,91.05a3.58,3.58,0,0,0,1.69.82,10.72,10.72,0,0,1,2.79.18c.76.31.59,1.82.59,1.82a7.89,7.89,0,0,1-3.31.72c-1.44-.13-4.93,0-4.93,0a6.58,6.58,0,0,1-.47-1.44c0-.45,1.11-1.9,1.11-1.9a2.56,2.56,0,0,0,.66-.13A11.17,11.17,0,0,1,49,91.05Z"/><path class="cls-13" d="M49.69,68.89s-.14,3.44-.32,7.09c0,.78-.25,5.51-.33,6.62a72.92,72.92,0,0,0,0,8.45l-2.14.17-.4,0a35.52,35.52,0,0,1-2.29-6.86,31.13,31.13,0,0,1,0-7.74,3.5,3.5,0,0,0,0-.68,31.45,31.45,0,0,0-.47-5.37Z"/><path class="cls-12" d="M30,92.31a16.42,16.42,0,0,1,.16,1.7,2.94,2.94,0,0,1-.08.79c0,.17-.89.55-1.2,1.07a2.86,2.86,0,0,1-2.1,1.86c-1.41.2-3.47-.14-3.71-.69a2.16,2.16,0,0,1,.75-2.43c.93-.67,2.69-1.38,3-1.78a3,3,0,0,0,.39-.77Z"/><path class="cls-14" d="M42.64,70.76a31.77,31.77,0,0,0-4.37,5.94c-.36.64-1.79,3.65-2.32,5.08C34.59,85.54,30,92.38,30,92.38l-2.83-.33a.55.55,0,0,1,0-.14c.21-1,1.54-7.52,2.11-9s1-2.43,1.36-3.26.82-1.57,1.25-2.47a12.23,12.23,0,0,0,.76-1.89,14.82,14.82,0,0,0,.89-5.19Z"/><path class="cls-15" d="M38.27,76.7c-.36.64-1,2.15-1.07,2.15-.79,0-4.4.07-5.55,1.21s-4,10.56-4.4,11.85c.21-1,1.54-7.52,2.11-9s1-2.43,1.36-3.26.82-1.57,1.25-2.47a12.23,12.23,0,0,0,.76-1.89Z"/><path class="cls-15" d="M49.37,75.82l-.11,2.56S46,79.81,44.89,81.2s1.76,9.38,2,10l-.4,0a38.28,38.28,0,0,1-2.32-7,29.86,29.86,0,0,1,0-7.6,3.5,3.5,0,0,0,0-.68Z"/><path class="cls-16" d="M34.09,50a29.6,29.6,0,0,0-1,4.3,34,34,0,0,1-.62,4.06,58.33,58.33,0,0,1-3.58,7.56,14.21,14.21,0,0,0-.49,1.45c-.22.88-2,2.47-2,2.47s.51-1,.64-1.42a5.68,5.68,0,0,1,.33-.72s-1.56.72-2,1-.93,1.08-1.23,1.15.53-1.42.73-1.65a9.42,9.42,0,0,1,1-.78,10,10,0,0,0-1.14.58c-.41.25-.92,1.68-1.37,1.67s.59-1.89.76-2.08a10.31,10.31,0,0,1,1.08-.73,5,5,0,0,0-1.11.53c-.29.25-.34,1.15-.78,1.24s.05-1.55.16-1.72a6.36,6.36,0,0,1,1.33-.67l-1.14.65c-.41.21-.14.89-.45.84s-.28-1.59.27-1.82a10.07,10.07,0,0,1,1.95-.37c.81-.1,1.76.06,2.07-.24,0,0,.39-7.37.55-8.48.13-.87.94-3,1-3.8s.63-3,.67-3.27v0a11.1,11.1,0,0,1,3.3-.29A2.77,2.77,0,0,1,34.09,50Z"/><path class="cls-15" d="M29,53a14.6,14.6,0,0,1,2.68,3.57c.79,1.74-2,7.9-2,7.9S32.57,60.08,33,58a17.79,17.79,0,0,0,.13-3.81c.1-.7.83-3.64.83-3.64l-4.62-.48Z"/><path class="cls-17" d="M47.32,46.79a30.11,30.11,0,0,1,2.58,3.59A35.09,35.09,0,0,0,52,53.89a59.66,59.66,0,0,0,6.23,5.58s.64.66,1,1.14a8.08,8.08,0,0,0,2.64,1.5s.27-.41.08-.71a6.36,6.36,0,0,0-1.61-.89s1.71.07,2.26.16,1.27.65,1.58.59-1.05-1.1-1.32-1.24a9.7,9.7,0,0,0-1.18-.34,10.7,10.7,0,0,1,1.27.09c.47.07,1.5,1.19,1.91,1s-1.27-1.51-1.5-1.62a10.77,10.77,0,0,0-1.29-.26s1,0,1.37,0,1,.83,1.46.73-.93-1.2-1.1-1.32a8,8,0,0,0-1.59-.13A5.18,5.18,0,0,1,63.64,58c.45,0,.61.46.88.3s-.58-.91-1.17-.91a9.46,9.46,0,0,0-2,.42c-.78.22-1.59.73-2,.57,0,0-3.22-6.64-3.79-7.6-.45-.75-2-2.41-2.43-3.1s-1.74-2.51-1.88-2.76l0,0a11,11,0,0,0-3.15,1A2.68,2.68,0,0,0,47.32,46.79Z"/><path class="cls-15" d="M53.19,47.65A14.55,14.55,0,0,0,52.09,52C52,53.89,57,58.48,57,58.48s-4.41-3-5.59-4.73a17.18,17.18,0,0,1-1.59-3.47c-.36-.61-2.17-3-2.17-3L51.75,45Z"/><path class="cls-18" d="M42.75,38.82a3.69,3.69,0,0,1-2.37,1.72c-1.57.25-3.65-1.07-3.65-1.07a3.55,3.55,0,0,0,1-1.11,1.77,1.77,0,0,0,.28-.93v-1.5h3.3s0,.14,0,.42c0,0,.08.33.15.68a1.63,1.63,0,0,0,.14.51A3.39,3.39,0,0,0,42.75,38.82Z"/><path class="cls-15" d="M41.6,37.54l-3.9.82a1.77,1.77,0,0,0,.28-.93V36.35h3.33s.08.33.15.68A1.63,1.63,0,0,0,41.6,37.54Z"/><path class="cls-19" d="M52.15,29.33c.12.66-1.87,2.55-4,4.17l0,0A16,16,0,0,1,44,36.07c-1.93.49-10.26.56-12.12-.75s-8.18-11.08-8-12.18-.16-8.69,7.78-9.71c12.25-1.58,17.48,2.2,18,3.92a7.38,7.38,0,0,1,.07,2.45c-.16,1.82-.57,3.87-.48,4.5C49.26,25.27,52,28.16,52.15,29.33Z"/><path class="cls-20" d="M39.41,30.94a12.12,12.12,0,0,0-1,1,11.31,11.31,0,0,0-.67,1,3.31,3.31,0,0,1,.51-1.36,2,2,0,0,1,1-.62Z"/><path class="cls-15" d="M33,33.74c1.72,1.65,9.39,1.82,11.08,1.65a11.67,11.67,0,0,0,4.11-1.87A16,16,0,0,1,44,36.07c-1.93.49-10.26.56-12.12-.75s-8.18-11.08-8-12.18-.16-8.69,7.78-9.71c12.25-1.58,17.48,2.2,18,3.92a7.38,7.38,0,0,1,.07,2.45s-7.94-3.32-15-1.76C28,19.51,31.23,32.09,33,33.74Z"/><path class="cls-15" d="M41.3,33.56a13.62,13.62,0,0,0,3.14-.64,10.76,10.76,0,0,0,1.81-1.25,2.78,2.78,0,0,1-1.56,1.79A8.33,8.33,0,0,1,41.3,33.56Z"/><path class="cls-20" d="M38.32,31.81s3.87.93,5.9.47a5,5,0,0,0,2.87-1.86l.25.27a6.38,6.38,0,0,1-3.08,2.17c-1.28.31-6.09-.72-6.09-.72Z"/><path class="cls-20" d="M46.37,29.93a3.2,3.2,0,0,1,1,.32c.5.28.42,1.16.42,1.16a3.52,3.52,0,0,0-.55-.75C46.89,30.37,46.37,29.93,46.37,29.93Z"/><path class="cls-15" d="M40.24,27s-1.71.46-3.39.77a6.38,6.38,0,0,0-2.4.83,18,18,0,0,0,2.87-.12A6.48,6.48,0,0,0,40.24,27Z"/><path class="cls-15" d="M45.23,26.32a10.29,10.29,0,0,0,2.23.22A2.46,2.46,0,0,0,49,25.88s-1.15,1.36-1.89,1.39A4.1,4.1,0,0,1,45.23,26.32Z"/><path class="cls-21" d="M44.44,28.52c0,.13-.54.27-1.23.31s-1.26,0-1.26-.15.54-.27,1.23-.31S44.43,28.39,44.44,28.52Z"/><path class="cls-21" d="M41.66,28.77c0,.1-.16.18-.37.18s-.37-.08-.37-.18.17-.18.37-.18S41.66,28.67,41.66,28.77Z"/><path class="cls-15" d="M30.25,33.62A3.84,3.84,0,0,1,27.2,35c-1.75,0-4.14-2.52-4.18-4a.89.89,0,0,1,.22-.7c1.45-1.55,4.61,0,4.61,0l.72,1Z"/><path class="cls-22" d="M28.57,31.3v.32a11.26,11.26,0,0,0-3.87-1A4.12,4.12,0,0,0,23,31a.89.89,0,0,1,.22-.7c1.45-1.55,4.61,0,4.61,0Z"/><path class="cls-20" d="M31.53,22.92a7.54,7.54,0,0,1,1.56-3.76,5,5,0,0,1,2.76-1.7,1.68,1.68,0,0,1-.23,1.76C34.71,20.24,33.32,19.91,31.53,22.92Z"/><path class="cls-20" d="M43.66,16.72a17.91,17.91,0,0,1,3.68.74c1.13.48,1.62,2.4,1.62,2.4a4.14,4.14,0,0,0-1.62-1.39C46.12,18,44.5,18.67,43.66,16.72Z"/><path class="cls-21" d="M37,31.19c-.44.45-.92.69-1.06.55s.11-.61.55-1,.92-.69,1.06-.55S37.42,30.75,37,31.19Z"/><path class="cls-23" d="M55,74.4a11.24,11.24,0,0,1-6,3,50.47,50.47,0,0,1-12.77,0A20.91,20.91,0,0,1,34,77.09a59.06,59.06,0,0,0-8.63-1s.89-3.08,2.36-4.47A19.55,19.55,0,0,1,31.76,69s2.86-7.77,3-13.38a7.71,7.71,0,0,0,0-.94c-.07-3.15-.22-5.15-.22-5.15l-.24,2.68s-3.51-.57-5-1.57a8.14,8.14,0,0,1-2.25-2.47s.89-1.43,2-3a47,47,0,0,1,2.9-4.15,2.81,2.81,0,0,1,.35-.33,8.28,8.28,0,0,1,3.23-1.07l1-.11s.36.07.9.22a10.85,10.85,0,0,0,3.22.28,4,4,0,0,0,2.08-1.11,6.58,6.58,0,0,1,2.68-.39h.07a1.87,1.87,0,0,1,.75.18,11.9,11.9,0,0,1,2.22,1.5c.9.68,1.86,1.51,2.62,2.15l1.32,1.15s.5,1.32-.61,3.65c-.11.21-.21.43-.32.61l0,0a6.48,6.48,0,0,1-2.18,2.08l-.61-.4a12.35,12.35,0,0,1,.29,1.4,40.59,40.59,0,0,1,.71,5.65c.18,2.4.29,5.3.29,7.59s.07,4,.07,4a25.34,25.34,0,0,1,2.15,1.54C53.48,70.64,55,74.4,55,74.4Z"/><path class="cls-24" d="M47.26,16.31c-3.87-2.18-13.86,0-13.86,0a9.44,9.44,0,0,0-4.08,5.44,41.21,41.21,0,0,0-1.46,8.56L25.78,30s-7.87-3.4-7.91-9.34a6.08,6.08,0,0,1,.07-1.11c1.33-8.38,12.31-8.95,12.31-8.95S38.41,4.37,47.07,7.8c5.15,2.08,3.48,14,3.48,14S51.12,18.46,47.26,16.31Z"/><path class="cls-12" d="M49.55,25.21a6.1,6.1,0,0,1-.18-2.6c.09-1.14,1.75-4.15-2.11-6.3s-13.86,0-13.86,0,10.42-3.69,14.18-2.08,3.38,5.7,3,8.1C50.16,24.56,49.22,25.06,49.55,25.21Z"/><path class="cls-25" d="M34.33,14.56l-5.11,2.9c-3.73,2.11-9.42,2.93-11.35,3.15a6.08,6.08,0,0,1,.07-1.11c1.33-8.38,12.31-8.95,12.31-8.95Z"/><path class="cls-25" d="M34.58,13.56s8.73-5.65,12.27-3.69,3.29,8.53,3.29,8.53.47-7.8-3.32-9.54S34.58,13.56,34.58,13.56Z"/><path class="cls-25" d="M34.32,11.83s4.28-4.54,7.39-5.17A5.18,5.18,0,0,1,46.47,7.8s-1.82-1.34-5.22-.23A24.13,24.13,0,0,0,34.32,11.83Z"/><path class="cls-26" d="M43.75,69.43a13.89,13.89,0,0,0-4.58,2.11c-1.54,1.36-2.9,5.9-2.9,5.9A20.91,20.91,0,0,1,34,77.09a59.06,59.06,0,0,0-8.63-1s.89-3.08,2.36-4.47A19.55,19.55,0,0,1,31.76,69s3.18-8.66,3-14.32c-.07-3.15-.22-5.15-.22-5.15s1.9,11,4,14.14A36.28,36.28,0,0,0,43.75,69.43Z"/><path class="cls-26" d="M51.48,47.67l0,0a6.48,6.48,0,0,1-2.18,2.08l-.61-.4s-.68-2.29-.89-3a9.63,9.63,0,0,0-.43-1.25Z"/><path class="cls-26" d="M45.5,38.43A29.28,29.28,0,0,1,38,42.69,41.72,41.72,0,0,1,29,45.09a47,47,0,0,1,2.9-4.15,2.81,2.81,0,0,1,.35-.33,8.28,8.28,0,0,1,3.23-1.07l1-.11s.36.07.9.22a10.85,10.85,0,0,0,3.22.28,4,4,0,0,0,2.08-1.11,6.58,6.58,0,0,1,2.68-.39Z"/><path class="cls-26" d="M46.07,69.54s2.46,4.2,3.41,4.59-.84-5.24-.84-5.24Z"/><path class="cls-27" d="M31.87,68.63a46.65,46.65,0,0,0,10.77.75C48.09,69,50,67.75,50,67.75v.32s-1.65,1.83-6.85,2.07a58.21,58.21,0,0,1-11.66-1Z"/><path class="cls-28" d="M49.94,64l-5.73,2.76s-1.5-7.59-.53-10.88c.75-2.69,4.08-4.51,5.26-5.12a40.59,40.59,0,0,1,.71,5.65C49.83,58.83,49.94,61.73,49.94,64Z"/><path class="cls-27" d="M35.79,39.51a10.82,10.82,0,0,0,4.93,1,2.9,2.9,0,0,0,2.63-1.87h-.86s0,.82-1.83,1.21a6.5,6.5,0,0,1-3.55-.7Z"/><path class="cls-29" d="M48.47,40.11c-1.86,2.26-6.15,7.48-9.88,11.6a48.46,48.46,0,0,1-3.83,3.87,7.71,7.71,0,0,0,0-.94c-.07-3.15-.22-5.15-.22-5.15l-.24,2.68s-3.51-.57-5-1.57a8.14,8.14,0,0,1-2.25-2.47s.89-1.43,2-3a47,47,0,0,1,2.9-4.15,2.81,2.81,0,0,1,.35-.33,8.28,8.28,0,0,1,3.23-1.07l1-.11s.36.07.9.22a10.85,10.85,0,0,0,3.22.28,4,4,0,0,0,2.08-1.11,6.58,6.58,0,0,1,2.68-.39h.07a1.87,1.87,0,0,1,.75.18A11.9,11.9,0,0,1,48.47,40.11Z"/><path class="cls-30" d="M34.32,16A27.26,27.26,0,0,0,31,26.89a67.68,67.68,0,0,0,0,13S29.12,31.83,29.33,26s1.77-8.63,2.49-9.15A8.3,8.3,0,0,1,34.32,16Z"/><path class="cls-31" d="M20.1,14.05s-2.25-3.42-3.56-3.51c-2.51-.16-6,4.82-6,5.82s2.78,3.28,4.75,3.87,4.07-1.13,4.07-1.13S21.47,15.65,20.1,14.05Z"/><path class="cls-12" d="M19.09,19.31s-6.51-4-7.55-3.15,2.68,3.43,4.11,3.76A6.72,6.72,0,0,0,19.09,19.31Z"/><path class="cls-11" d="M16.84,20.29a17.75,17.75,0,0,0,2.33-3.36,4.92,4.92,0,0,0,.42-3.61,2,2,0,0,1,1.61,1.59c.42,1.51-1.66,6.39-2.52,6.57C16.87,21.86,16.84,20.29,16.84,20.29Z"/><path class="cls-32" d="M35.07,27.83a1.43,1.43,0,0,1-.62-.68c-.15-.43.93-6.14,2.82-5.62s3,5.49,3,5.49a12.56,12.56,0,0,1-2.89,1A3.15,3.15,0,0,1,35.07,27.83Z"/><path class="cls-33" d="M35.29,25.06c.38,1.62,1.4,2.79,2.27,2.62s1.28-1.64.9-3.26-1.4-2.8-2.28-2.62S34.9,23.44,35.29,25.06Z"/><path class="cls-34" d="M35.88,24.94c.24,1,.88,1.74,1.42,1.63s.8-1,.56-2S37,22.8,36.44,22.91,35.64,23.93,35.88,24.94Z"/><path class="cls-32" d="M35.88,25.3a.67.67,0,0,0,.88.39.73.73,0,0,0,.26-1,.67.67,0,0,0-.88-.39A.73.73,0,0,0,35.88,25.3Z"/><path class="cls-32" d="M35.29,25.8a.25.25,0,0,0,.34.14.27.27,0,0,0,.1-.37.26.26,0,0,0-.34-.15A.3.3,0,0,0,35.29,25.8Z"/><path class="cls-34" d="M40.24,27s-1.91-5.93-3.59-4.9-1.5,5.27-2.09,5.45a3.19,3.19,0,0,1-1.68-.35,10,10,0,0,0,1.48-2.72c.49-1.47,1.58-3.86,3.15-3.31C38.86,21.67,40.24,27,40.24,27Z"/><path class="cls-34" d="M39.62,27.21a8.64,8.64,0,0,1-2.48.62,7.32,7.32,0,0,1-2.25-.24,2.67,2.67,0,0,0-.76.72,1.69,1.69,0,0,0-.3,1,4.67,4.67,0,0,1,.68-.8,1.83,1.83,0,0,1,.7-.34,5.34,5.34,0,0,0,1.88.06A7.39,7.39,0,0,0,39.62,27.21Z"/><path class="cls-32" d="M45.22,26.09s.1-6,1.48-6,2,5.61,2,5.61a2.08,2.08,0,0,1-1.56,1A2.35,2.35,0,0,1,45.22,26.09Z"/><path class="cls-35" d="M45.56,24.39c.37,1.17,1,2,1.52,1.93s1-1.45.72-3.09a5.17,5.17,0,0,0-1-2.45h0a.9.9,0,0,0-.73-.39.56.56,0,0,0-.3.12,10.72,10.72,0,0,0-.47,2.68h0l.05.29c0,.12,0,.25.07.37a1.82,1.82,0,0,0,.07.25A1.67,1.67,0,0,0,45.56,24.39Z"/><path class="cls-34" d="M45.8,23.42c.18,1,.66,1.82,1.09,1.78s.63-.9.45-1.93-.66-1.82-1.09-1.77S45.62,22.4,45.8,23.42Z"/><path class="cls-32" d="M45.8,23.78c.12.38.43.6.67.49a.75.75,0,0,0,.21-.91c-.12-.39-.43-.61-.67-.49A.74.74,0,0,0,45.8,23.78Z"/><path class="cls-32" d="M45.33,24.19c.05.15.17.23.27.19a.3.3,0,0,0,.08-.35c0-.15-.17-.24-.26-.19S45.28,24,45.33,24.19Z"/><path class="cls-34" d="M45.23,25.79c0-.1.09-.7.2-1.45,0-.08,0-.16,0-.25s0-.17,0-.26c.06-.36.13-.74.22-1.1a8.94,8.94,0,0,1,.32-1.15c.18-.5.4-.83.63-.83l.1,0h0c.86.31,1.61,4.47,2.2,4.74s1.56-.47,1.56-.47a1.11,1.11,0,0,1-1-.24c-.47-.39-1.73-5.62-3.15-5.19-.3.09-.53.42-.7.88a10.72,10.72,0,0,0-.47,2.68h0C45.2,24.47,45.23,25.64,45.23,25.79Z"/><path class="cls-34" d="M48.73,25.7a5.08,5.08,0,0,1,.74.51,2.11,2.11,0,0,1,.49,1,3.17,3.17,0,0,0-.66-.59l-.47-.17a8.86,8.86,0,0,1-1.88.38,2,2,0,0,1-1.38-.33,4.28,4.28,0,0,0,1.94,0A2.25,2.25,0,0,0,48.73,25.7Z"/><path class="cls-15" d="M41.11,29.35a11.5,11.5,0,0,0,2.85,0A4.53,4.53,0,0,0,45.5,29s-.7,1.34-1.44,1.36a3.86,3.86,0,0,1-1.69-.59s-.59.67-1.07.37A.51.51,0,0,1,41.11,29.35Z"/><g class="cls-36"><rect class="cls-37" x="-416.67" y="-830.46" width="608.81" height="959.97"/></g></svg>