<svg id="Camada_1" data-name="Camada 1" xmlns="http://www.w3.org/2000/svg" xmlns:xlink="http://www.w3.org/1999/xlink" viewBox="0 0 68.85 174.2"><defs><style>.cls-1{fill:#468b33;}.cls-2{fill:#006087;}.cls-3{fill:url(#åçûìßííûé_ãðàäèåíò_30);}.cls-4{fill:url(#åçûìßííûé_ãðàäèåíò_30-2);}.cls-5{fill:url(#åçûìßííûé_ãðàäèåíò_30-3);}.cls-6{fill:#e1784e;}.cls-7{fill:url(#åçûìßííûé_ãðàäèåíò_3);}.cls-8{fill:#590800;}.cls-9{fill:#ffbf59;}.cls-10{fill:url(#åçûìßííûé_ãðàäèåíò_30-4);}.cls-11{fill:#fff;}.cls-12{fill:url(#åçûìßííûé_ãðàäèåíò_3-2);}.cls-13{fill:url(#åçûìßííûé_ãðàäèåíò_3-3);}.cls-14{fill:url(#åçûìßííûé_ãðàäèåíò_3-4);}.cls-15{fill:url(#åçûìßííûé_ãðàäèåíò_3-5);}.cls-16{fill:#c13c32;opacity:0.59;}.cls-17{fill:#8b011b;}.cls-18{fill:url(#åçûìßííûé_ãðàäèåíò_30-5);}.cls-19{fill:#2c0a5b;}.cls-20{fill:url(#åçûìßííûé_ãðàäèåíò_99);}.cls-21{fill:#840400;}.cls-22{fill:#130a3b;}.cls-23{fill:#007ea2;}.cls-24{fill:#f9ba00;}.cls-25{fill:url(#åçûìßííûé_ãðàäèåíò_30-6);}.cls-26{fill:url(#åçûìßííûé_ãðàäèåíò_30-7);}.cls-27{fill:url(#åçûìßííûé_ãðàäèåíò_30-8);}.cls-28{fill:url(#åçûìßííûé_ãðàäèåíò_3-6);}</style><linearGradient id="åçûìßííûé_ãðàäèåíò_30" x1="2658.76" y1="164.83" x2="2658.76" y2="127.77" gradientTransform="matrix(-1, 0, 0, 1, 2686.59, 0)" gradientUnits="userSpaceOnUse"><stop offset="0" stop-color="#fdc38b"/><stop offset="1" stop-color="#fda37d"/></linearGradient><linearGradient id="åçûìßííûé_ãðàäèåíò_30-2" x1="2643.43" y1="165.91" x2="2643.43" y2="133.47" xlink:href="#åçûìßííûé_ãðàäèåíò_30"/><linearGradient id="åçûìßííûé_ãðàäèåíò_30-3" x1="2648.01" y1="113.23" x2="2648.01" y2="55.85" xlink:href="#åçûìßííûé_ãðàäèåíò_30"/><linearGradient id="åçûìßííûé_ãðàäèåíò_3" x1="2646.55" y1="18.24" x2="2659.1" y2="18.24" gradientTransform="matrix(-1, 0, 0, 1, 2686.59, 0)" gradientUnits="userSpaceOnUse"><stop offset="0" stop-color="#a43113"/><stop offset="1" stop-color="#6f160d"/></linearGradient><linearGradient id="åçûìßííûé_ãðàäèåíò_30-4" x1="2645.55" y1="58.39" x2="2645.55" y2="24.6" xlink:href="#åçûìßííûé_ãðàäèåíò_30"/><linearGradient id="åçûìßííûé_ãðàäèåíò_3-2" x1="4151.18" y1="-280.8" x2="4151.18" y2="-287.96" gradientTransform="matrix(-1.33, -0.1, -0.08, 1, 5550.11, 750.65)" xlink:href="#åçûìßííûé_ãðàäèåíò_3"/><linearGradient id="åçûìßííûé_ãðàäèåíò_3-3" x1="2638.45" y1="46.99" x2="2638.45" y2="39.87" xlink:href="#åçûìßííûé_ãðàäèåíò_3"/><linearGradient id="åçûìßííûé_ãðàäèåíò_3-4" x1="2633.7" y1="32.78" x2="2662.68" y2="32.78" xlink:href="#åçûìßííûé_ãðàäèåíò_3"/><linearGradient id="åçûìßííûé_ãðàäèåíò_3-5" x1="1531.37" y1="1252.1" x2="1540.09" y2="1252.1" gradientTransform="matrix(-0.98, 0.22, 0.22, 0.98, 1280.77, -1508.47)" xlink:href="#åçûìßííûé_ãðàäèåíò_3"/><linearGradient id="åçûìßííûé_ãðàäèåíò_30-5" x1="2647.26" y1="87.41" x2="2647.26" y2="81.01" xlink:href="#åçûìßííûé_ãðàäèåíò_30"/><linearGradient id="åçûìßííûé_ãðàäèåíò_99" x1="2640.6" y1="71.13" x2="2653.65" y2="71.13" gradientTransform="matrix(-1, 0, 0, 1, 2686.59, 0)" gradientUnits="userSpaceOnUse"><stop offset="0" stop-color="#ca0000"/><stop offset="1" stop-color="#a80009"/></linearGradient><linearGradient id="åçûìßííûé_ãðàäèåíò_30-6" x1="2668.21" y1="112.48" x2="2668.21" y2="94.01" xlink:href="#åçûìßííûé_ãðàäèåíò_30"/><linearGradient id="åçûìßííûé_ãðàäèåíò_30-7" x1="2674.65" y1="106.59" x2="2674.65" y2="106.53" xlink:href="#åçûìßííûé_ãðàäèåíò_30"/><linearGradient id="åçûìßííûé_ãðàäèåíò_30-8" x1="2674.62" y1="106.53" x2="2674.62" y2="106.42" xlink:href="#åçûìßííûé_ãðàäèåíò_30"/><linearGradient id="åçûìßííûé_ãðàäèåíò_3-6" x1="1540.09" y1="1244.97" x2="1559.45" y2="1244.97" gradientTransform="matrix(-0.98, 0.22, 0.22, 0.98, 1280.77, -1508.47)" xlink:href="#åçûìßííûé_ãðàäèåíò_3"/></defs><title>Prancheta 165</title><path class="cls-1" d="M8,164c0,2.76,11,5,24.62,5s24.61-2.25,24.61-5-11-5-24.61-5S8,161.19,8,164Z"/><path class="cls-2" d="M27.83,104.48s.22-4.26,1.08-9.89,1.54-11.77,1.54-11.77l-.77,2.29S25.73,102.87,26,103.74,27.83,104.48,27.83,104.48Z"/><path class="cls-3" d="M19.86,164.13c.44.7,2.38.7,4.33.7s1.59-.42,1.15-1.57,1.21-7,1.74-8.45c.39-1,4.84-11.37,7.26-16.95l1.52-3.55-1.62-2.86-2.09-3.68a10.12,10.12,0,0,0-1.26,1.5,17.55,17.55,0,0,0-2.46,5c-.61,2-1.33,5.92-2,9.84-.84,4.83-1.6,9.61-2,10.59-.7,1.77-1.88,2.83-2.41,4S19.41,163.42,19.86,164.13Z"/><path class="cls-4" d="M40,164.39c1.53.14,3.89,1.59,5.42,1.52s3.65-.9,3.25-1.3-1.86-.2-2.79-.53-5.42-3.87-5.33-5.73c.07-1.34,3.19-24.88,3.19-24.88H39.61a.72.72,0,0,0-.06.15,20.07,20.07,0,0,0-1.24,6.82c0,3.75.3,14.39.26,17.11v0a2.41,2.41,0,0,1,0,.31,1.87,1.87,0,0,1,0,.21,37,37,0,0,1-.86,4C37.35,163.61,38.45,164.26,40,164.39Z"/><path class="cls-5" d="M14,108.86c.35,0,1-.71,1.53-1.22a3.44,3.44,0,0,1,1.62-.64,15.13,15.13,0,0,0-1.69,1.66c-.38.53-.75,2.33-.5,2.49s.52-1.51,1-2.06a4.6,4.6,0,0,1,1.64-1,7.73,7.73,0,0,0-1.6,1.63c-.26.55-.7,2.1-.35,2.16s.66-1.08,1-1.65a6.17,6.17,0,0,1,1.78-1.35,3,3,0,0,0-.87,1.15c-.26.55-.9,2.32-.55,2.32s.77-1.65,1.64-2.55a8.73,8.73,0,0,1,2.64-1.37,3.83,3.83,0,0,1-.23,1.84c-.42,1.33,0,2.08.23,2.14s1.05-2.87,1.32-3.66-.22-3.22.17-4.21l0,0a.43.43,0,0,1,.06-.15v0l0-.07c.74-1.64,4.08-8.28,4.64-10.78.6-2.65,1.15-5.22,2.13-8.42a45.05,45.05,0,0,1,1.81-4.88c.58-1.3,1.15-2.44,1.66-3.37v0a0,0,0,0,0,0,0c1-1.75,1.64-2.75,1.64-2.75l8.88,4.77,1,.56S47.5,86.11,48.25,88s1.5,5.88,2.21,7.83c.41,1.11,2.09,4.41,3.44,7h0c1,1.92,1.81,3.48,1.81,3.55s-.29,1.64-.36,2.11a12.62,12.62,0,0,0,.42,2.56,5.26,5.26,0,0,1-.18,2.11c0,.06.52.23.89-.38a6.08,6.08,0,0,0,.09-2.51s2,.89,2.41,1.11a20.06,20.06,0,0,0,2.07,1.46c.07-.13-.29-.79-1-1.39a9.81,9.81,0,0,0-1.29-.93,8.93,8.93,0,0,1,1.53.53c.65.33,2.09,1.23,2.21,1.1S61.47,111,61,110.66s-1.45-.83-1.55-.89a15.34,15.34,0,0,1,1.61.65c.62.32,1.94,1.26,2.15,1.06s-1.33-1.36-1.79-1.67-1.27-.69-1.55-.84a15.37,15.37,0,0,0,1.45.53c.52.14,1.45,1.11,1.72.92s-.93-1.19-1.63-1.63-3.74-1.64-4.14-2.7-2-11.36-3-13.42S51.61,87.89,51,85.24,47.9,66.13,46.44,64.48a4.18,4.18,0,0,0-.93-.75c-1.82-1.07-4.75-1.49-5-2.37a13.53,13.53,0,0,1,0-3.34l-3.06-2.17s.38,4,0,4.69a4.36,4.36,0,0,1-1.65.8,23.31,23.31,0,0,0-3.14,1.25h0a4.57,4.57,0,0,0-1.37,1,10.33,10.33,0,0,0-1,2.62h0c-.95,3.17-2.14,8.45-3.05,12.41h0c-.18.82-.35,1.56-.52,2.23h0c-.32,1.39-.58,2.42-.72,2.81-.8,2.18-2.78,8.06-3.24,10.26s-1.42,9.92-2.27,10.43-4.55,2.26-5,2.54C14.86,107.35,13.67,108.82,14,108.86Z"/><path class="cls-6" d="M35.78,61.34s5.7,3,8.51,2.58l1.22-.19c-1.82-1.07-4.75-1.49-5-2.38a13.46,13.46,0,0,1,0-3.33l-3.06-2.17s.37,4,0,4.69A4.13,4.13,0,0,1,35.78,61.34Z"/><path class="cls-6" d="M43.68,78.84l1,.56S47.5,86.1,48.25,88s1.5,5.88,2.21,7.83c.41,1.12,2.09,4.41,3.44,7,0-.16-.65-3.24-1.3-6.5S49.35,88.12,48,83.7A102.27,102.27,0,0,1,45.71,71Z"/><path class="cls-6" d="M26.43,144.15a15,15,0,0,1,2.62-4.29,7.66,7.66,0,0,1,5.29-2l1.52-3.55-1.62-2.86-3.35-2.18a17.55,17.55,0,0,0-2.46,5C27.82,136.29,27.1,140.23,26.43,144.15Z"/><path class="cls-7" d="M40,20.35s.62-6-3.21-7-8.86,1.33-9.26,4.51a7.21,7.21,0,0,0,2.15,5.58S37,19.43,40,20.35Z"/><path class="cls-8" d="M34.76,20.64a5.7,5.7,0,0,1-4.87-2,3.16,3.16,0,0,1,.32-4.26s-2.13.64-1.46,3.89,2.58,3.7,2.58,3.7Z"/><path class="cls-8" d="M35.91,20.35a8.65,8.65,0,0,1-4-3.78c-1.37-2.7,1.23-3.34,1.23-3.34s-2.46-.15-2.11,3.28a4.5,4.5,0,0,0,2.88,4.13Z"/><path class="cls-9" d="M40.24,19.92a9.58,9.58,0,0,0-6.61-.52,8.43,8.43,0,0,0-5,3.48l.83,1.2a8.34,8.34,0,0,1,5.31-3.73c3.81-.89,5.24,0,5.24,0Z"/><path class="cls-10" d="M30.91,49.17c1.44,3.39,6.76,7.86,9.93,9a5.19,5.19,0,0,0,.95.23c3.45.42,8.1-4.87,9.25-6.63s0-4.67.26-6.58,1.42-8.95,1.64-10.54-4.87-12.56-16-9.47S29.32,45.41,30.91,49.17Z"/><path class="cls-11" d="M34.85,44.9a1.68,1.68,0,0,1-.47-1c0-.55,3.17-6.66,5.14-5.42S41,45.76,41,45.76a14.7,14.7,0,0,1-3.61.09A3.65,3.65,0,0,1,34.85,44.9Z"/><path class="cls-11" d="M45.66,46.07s2.17-6.76,3.74-6.3.38,7.07.38,7.07a2.47,2.47,0,0,1-2.1.55A2.79,2.79,0,0,1,45.66,46.07Z"/><path class="cls-12" d="M36.05,41.84c-.13,2,.63,3.65,1.69,3.75s2-1.42,2.13-3.4-.63-3.65-1.69-3.75S36.17,39.86,36.05,41.84Z"/><path class="cls-8" d="M36.77,41.9c-.08,1.23.39,2.28,1,2.34s1.26-.88,1.33-2.11-.39-2.28-1-2.34S36.84,40.67,36.77,41.9Z"/><path class="cls-11" d="M36.64,42.31a.79.79,0,0,0,.86.74.86.86,0,0,0,.63-1,.78.78,0,0,0-.86-.74A.88.88,0,0,0,36.64,42.31Z"/><path class="cls-11" d="M35.8,42.67a.31.31,0,0,0,.33.29.34.34,0,0,0,.25-.39.32.32,0,0,0-.34-.29A.34.34,0,0,0,35.8,42.67Z"/><path class="cls-13" d="M46.63,44.26c0,1.46.43,2.59,1.07,2.72s1.63-1.31,1.87-3.26a6.17,6.17,0,0,0-.3-3.14h0c-.18-.39-.42-.65-.7-.7a.63.63,0,0,0-.38,0,12.8,12.8,0,0,0-1.45,2.87h0l-.05.34c0,.15,0,.3,0,.45s0,.21,0,.31A2.17,2.17,0,0,0,46.63,44.26Z"/><path class="cls-8" d="M47.23,43.25c-.15,1.22.13,2.29.63,2.39s1-.81,1.17-2-.13-2.3-.62-2.4S47.38,42,47.23,43.25Z"/><path class="cls-11" d="M47.11,43.65c0,.48.28.83.6.79s.56-.48.55-1-.28-.84-.6-.79S47.09,43.17,47.11,43.65Z"/><path class="cls-11" d="M46.44,44c0,.19.11.32.23.3s.22-.18.22-.37-.11-.32-.24-.3S46.44,43.77,46.44,44Z"/><path class="cls-8" d="M41,45.76s-.14-7.39-2.39-6.8-3.52,5.48-4.25,5.48-1.79-1-1.79-1a11.88,11.88,0,0,0,2.62-2.57c1.06-1.51,3.12-3.85,4.71-2.68C41.26,39.21,41,45.76,41,45.76Z"/><path class="cls-8" d="M45.78,45.74c0-.11.33-.77.72-1.57,0-.09.09-.18.14-.27a2.39,2.39,0,0,1,.13-.28c.2-.39.41-.8.63-1.18a11.21,11.21,0,0,1,.76-1.19c.38-.51.73-.81,1-.73a.3.3,0,0,1,.11.06h0c.88.66.3,5.64.88,6.15s1.93,0,1.93,0a1.29,1.29,0,0,1-1-.6c-.4-.6,0-7-1.79-7a1.54,1.54,0,0,0-1.1.76,12.8,12.8,0,0,0-1.45,2.87h0C46.19,44.23,45.83,45.57,45.78,45.74Z"/><path class="cls-8" d="M40.23,45.76a10.22,10.22,0,0,1-3-.14,8.84,8.84,0,0,1-2.47-1,3.17,3.17,0,0,0-1.11.56,2,2,0,0,0-.7,1.07,5.12,5.12,0,0,1,1-.67,2,2,0,0,1,.92-.14A6.5,6.5,0,0,0,37,46.1,8.67,8.67,0,0,0,40.23,45.76Z"/><path class="cls-8" d="M49.78,46.84a6.07,6.07,0,0,1,.66.83A2.5,2.5,0,0,1,50.66,49a3.85,3.85,0,0,0-.54-.9l-.48-.35a10.64,10.64,0,0,1-2.26-.21,2.39,2.39,0,0,1-1.45-.85,5,5,0,0,0,2.2.64A2.66,2.66,0,0,0,49.78,46.84Z"/><path class="cls-6" d="M45.93,49.52a7.79,7.79,0,0,1-3.19,0c-1.28-.39-1.5-.9-1.5-.9s-.18,1.08.18,1.3a1.58,1.58,0,0,0,1,0,2.54,2.54,0,0,0,1.74,1C45.18,50.87,45.93,49.52,45.93,49.52Z"/><path class="cls-8" d="M47.1,52.09a8.83,8.83,0,0,1-3.78,1.27c-1.56-.06-4.48-3-4.48-3h-.17s2.58,3.7,4.42,3.62a9.48,9.48,0,0,0,4-1.64Z"/><path class="cls-8" d="M50.21,45.27s.17-3.28-1.42-3.44S46.44,44,46.44,44s1.78-4.64,3-4.19S50.21,45.27,50.21,45.27Z"/><path class="cls-8" d="M41,42.62s-1-3-2.87-2.83a4.35,4.35,0,0,0-2.94,1.71s3-3.25,4.36-3S41,42.62,41,42.62Z"/><path class="cls-8" d="M42.14,34.88a7.74,7.74,0,0,0-4.67-1c-2.41.4-3.69,3.28-3.69,3.28A6.93,6.93,0,0,1,37.47,35C39.44,34.8,40.77,36.52,42.14,34.88Z"/><path class="cls-8" d="M47.68,35a4.32,4.32,0,0,1,3.36.78c1.74,1.49.75,4.75.75,4.75S52,37.8,51,37.19,47.89,36.43,47.68,35Z"/><path class="cls-6" d="M30.91,49.17c1.44,3.39,6.76,7.86,9.93,9C39.39,57.08,34,52.89,32.92,49c-1.23-4.55-2.18-14,3.17-17.08s16.85,2.75,16.85,2.75c.22-1.59-4.87-12.56-16-9.47S29.32,45.41,30.91,49.17Z"/><path class="cls-8" d="M45.18,30.65s-7.62-1.22-8.71-.33a9.3,9.3,0,0,0-1.95,3.26s-.55-6.07.12-6.15S45.18,30.65,45.18,30.65Z"/><path class="cls-8" d="M45.18,30.65s3.11.32,4.7,1.8,3.29,5.75,3.29,5.75S52,31.53,51.31,31,45.18,30.65,45.18,30.65Z"/><path class="cls-14" d="M52.88,30.5S51.81,24,47.1,22A26.65,26.65,0,0,0,35.16,20c-1.39.27-9.16,4.05-11.08,11.15-1,3.73,2.79,10.9,3.58,12.41a4.67,4.67,0,0,0,2,2.05s3-13.33,4.1-16.45,11,1.4,11,1.4l.91.14Z"/><path class="cls-8" d="M31.33,38.5s-4.47-4.17-4.27-8.61a11.13,11.13,0,0,1,3.15-7.16s-4.34,3.93-4,9.37a12.91,12.91,0,0,0,4.69,8.76Z"/><path class="cls-8" d="M32.57,32.36a8.36,8.36,0,0,1-3.21-4.73,5.75,5.75,0,0,1,.85-4.9A7,7,0,0,0,30.38,27a5.43,5.43,0,0,0,2.54,3.4Z"/><path class="cls-15" d="M45.18,30.65s7.18-.67,8.44.07,3.11,12.76,3.62,19.65a104.46,104.46,0,0,1-.08,14.09,150.8,150.8,0,0,0-1.31-15.14c-1-5.5-4.33-17.66-5.18-18.08S45.18,30.65,45.18,30.65Z"/><path class="cls-16" d="M48.93,29.24s-.83-4.47-4.15-6.51A20,20,0,0,0,37,20.35,10.35,10.35,0,0,1,40,22,11,11,0,0,1,42.46,24,37.36,37.36,0,0,1,37.72,22a17.46,17.46,0,0,1-2.26-1.6,32.74,32.74,0,0,0,3.12,5.35c2,2.58,6.07,3.94,6.07,3.94l-.93-2.32A9.58,9.58,0,0,1,48.93,29.24Z"/><path class="cls-16" d="M38.91,27.43a14.16,14.16,0,0,1-3.75-3.33,11.24,11.24,0,0,1-1.73-3s.5,3.08,1.6,4.38S38.91,27.43,38.91,27.43Z"/><path class="cls-6" d="M30.56,45.63S27,40.51,25.25,40.86c-2.57.51,2.14,9.35,3.5,9.73a1.75,1.75,0,0,0,2-.83Z"/><path class="cls-17" d="M38,160.65A19.78,19.78,0,0,0,42,163.42a5.63,5.63,0,0,0,3.89.66s2.54-.35,2.84.33-1.75,1.82-3.63,1.75-3.5-1.28-5.11-1.41-2.06-.14-2.21-.27S37,161.44,38,160.65Z"/><path class="cls-17" d="M25.39,160.87a23.23,23.23,0,0,0,.48,3.19c.27.83-.86,1.29-3.55,1s-3.12-.88-3-1.65S23,157.1,23,157.1a22.63,22.63,0,0,0-1.47,4.37c-.06,1.16,3.44,1.41,3.51.88A12.6,12.6,0,0,1,25.39,160.87Z"/><path class="cls-6" d="M44.9,53.48a4.55,4.55,0,0,1-2.15,1.34c-1.23.28-2.11-1.08-2.11-1.08s.81,1.67,1.84,1.76,2.94-2.25,2.94-2.25Z"/><path class="cls-8" d="M39.77,50a4.27,4.27,0,0,0-.85.54,8.7,8.7,0,0,0-.71.66,3.24,3.24,0,0,1,.46-1A3.09,3.09,0,0,1,39.77,50Z"/><path class="cls-8" d="M46.61,51.34s.62.37.74.66a2,2,0,0,1-.1,1,8,8,0,0,0-.25-.84C46.88,51.84,46.61,51.34,46.61,51.34Z"/><path class="cls-18" d="M34.23,87.41,44,85.82a34.51,34.51,0,0,1,.42-4.38v-.11a1.28,1.28,0,0,0,0-.17l0-.15H34.23a27.18,27.18,0,0,1,.14,4.75A4.84,4.84,0,0,0,34.23,87.41Z"/><path class="cls-19" d="M25.09,151.84,27.83,153l.05-.12c.63-1.39,7.35-16.14,9-21.95.1-.35.18-.67.24-.95.86-3.94,2.47-18,2.62-19.27v-.09s-.17,16.69-.6,18.64-1.35,5.11-1.75,7.44c-.89,5.2,1.13,18.37,1.13,18.37h2.6l.33-2.07c.69-4.4,2.27-14.45,2.53-17,.31-3,5.55-26.08,5.16-32-.3-4.36-3-12.07-4.35-15.88l-.09-.25c-.31-.85-.56-1.48-.68-1.78L44,85.82l-9.6-.06h0c-.13.31-4.5,10.56-4.68,18.64s1.76,22.33,1.47,22.76-1.88,4.63-3.32,8.74S25.09,151.84,25.09,151.84Z"/><path class="cls-6" d="M34.37,85.76h.47a5.09,5.09,0,0,1,3.27-3.53,20.22,20.22,0,0,1,6.28-.79v-.11l0-.17,0-.15H34.23A27.18,27.18,0,0,1,34.37,85.76Z"/><path class="cls-20" d="M33,66.67c0,1.23-.07,4.3,0,7,.14,3.47.38,7.33.38,7.33H45.18l0-.32,0-.28,0-.2h0c.2-1.48.62-4.68.68-7.18a47.83,47.83,0,0,0-.56-7.25l-.77-2.48-2-1V65a18.85,18.85,0,0,0-4.08-.49,11.79,11.79,0,0,0-3,.36l-.16-3.63-2.5,1.07s.06,3.24.05,3.8c0,0,0,.2,0,.53Z"/><path class="cls-21" d="M33,66.67c0,1.23-.07,4.3,0,7,.14,3.47-.07,7.33-.07,7.33H45.18l0-.32,0-.28,0-.2s-5.62-.61-8.51-4.94S34,61.93,34,61.93l-1.06.39s.06,3.24.05,3.8c0,0,0,.2,0,.53Z"/><path class="cls-22" d="M25.09,151.84,27.83,153l.05-.12.67-1.58a12,12,0,0,1,0-5c.58-2.83,3.66-13.37,3.66-16.17s-1.45-20.23,0-27.31S44.82,88.07,44.82,88.07l-.09-.25L44.05,86,44,85.82l-9.6-.06h0c-.13.31-4.5,10.56-4.68,18.64s1.76,22.33,1.47,22.76-1.88,4.63-3.32,8.74S25.09,151.84,25.09,151.84Z"/><path class="cls-22" d="M37.42,136.71c-.89,5.2,1.13,18.37,1.13,18.37h2.6l.33-2.07a10.7,10.7,0,0,1-1.95-5.35c-.1-2.89,1.06-14.83,1.88-17.67s-.19-16.81.15-18.45,3.26-3.18,3.26-3.18a12.28,12.28,0,0,0-2,.43,7.51,7.51,0,0,0-3,1.84s-.17,16.69-.6,18.64S37.82,134.38,37.42,136.71Z"/><path class="cls-22" d="M36.9,130.94c.1-.35.18-.67.24-.95.86-3.94,2.47-18,2.62-19.27Z"/><path class="cls-2" d="M28.26,116.55s4.34,1.64,4.68,1.06S35.87,101.23,36,94.68,34,65.08,34,65.08s2.93,35.29-2.24,43.52A42.93,42.93,0,0,0,28.26,116.55Z"/><path class="cls-23" d="M33.68,61.74C34,61.66,35.29,84,35.34,93.29c.06,10.16-6.21,23-7.08,23.26s-7.08-2-8.09-2.82S24.53,104.9,26.09,99c1.65-6.18,2.63-10.72,2.63-10.72l1-3.19a79.44,79.44,0,0,1-1.8,11.11,55,55,0,0,0-1.79,7.37c.05.49,4.81,2,5.48,1.71s2.39-8,2.66-12.88c.46-8.31-1.6-30-1.6-30Z"/><path class="cls-24" d="M26.53,110.47s2.78-3.39,1.7-4.15S26.53,110.47,26.53,110.47Z"/><path class="cls-24" d="M26.13,110.47s-1.3-3.9-2.31-3.36S26.13,110.47,26.13,110.47Z"/><path class="cls-24" d="M26.53,110.76s3.72-1.58,3.72-.29C30.25,111.13,26.53,110.76,26.53,110.76Z"/><path class="cls-6" d="M22.87,104.38l0-.07c.74-1.64,4.08-8.28,4.64-10.78.6-2.65,1.15-5.22,2.13-8.42a45.05,45.05,0,0,1,1.81-4.88c.58-1.3,1.15-2.44,1.66-3.37v0a0,0,0,0,0,0,0S33,68.33,33,66.65s-.32-3.92-.34-4.06a4.57,4.57,0,0,0-1.37,1,10.33,10.33,0,0,0-1,2.62h0c0,.27.92,8.9-.57,14s-3.85,14.63-4.59,17.27C24.5,99.6,23.31,103.11,22.87,104.38Z"/><path class="cls-25" d="M15.49,107c.41-.28,4.12-2,5-2.54S22.29,96.22,22.72,94l.07,10.59c-.39,1,.1,3.41-.17,4.21s-1.1,3.74-1.32,3.67-.65-.81-.23-2.15a3.83,3.83,0,0,0,.23-1.84,8.59,8.59,0,0,0-2.64,1.38c-.87.9-1.28,2.54-1.64,2.54s.29-1.76.55-2.31a3,3,0,0,1,.87-1.15,6,6,0,0,0-1.78,1.35c-.32.57-.62,1.71-1,1.65s.09-1.62.35-2.17a8.25,8.25,0,0,1,1.6-1.63,4.83,4.83,0,0,0-1.64,1c-.48.55-.76,2.21-1,2.05s.12-2,.5-2.48A15.13,15.13,0,0,1,17.18,107a3.44,3.44,0,0,0-1.62.64c-.55.51-1.18,1.27-1.53,1.21S14.86,107.39,15.49,107Z"/><path class="cls-26" d="M11.93,106.57v0l0-.06Z"/><path class="cls-27" d="M12,106.53a.48.48,0,0,1,.05-.11Z"/><path class="cls-28" d="M45.18,30.65s-8.78-4-10.54-3.67-5,9.14-5,18.65a36.15,36.15,0,0,0,3.24,15.62,39.42,39.42,0,0,1-1-15.49c1.13-8.84,3.74-16.85,5.15-17S45.18,30.65,45.18,30.65Z"/></svg>