<svg xmlns="http://www.w3.org/2000/svg" xmlns:xlink="http://www.w3.org/1999/xlink" viewBox="0 0 154.8 72"><defs><style>.cls-1{fill:none;}.cls-2{isolation:isolate;}.cls-3{clip-path:url(#clip-path);}.cls-4{fill:#a1132d;opacity:0.29;}.cls-4,.cls-5{mix-blend-mode:multiply;}.cls-5{opacity:0.2;fill:url(#Gradiente_sem_nome_133);}.cls-6{fill:url(#Gradiente_sem_nome_133-2);}.cls-7{fill:url(#Gradiente_sem_nome_133-3);}.cls-8{fill:url(#Gradiente_sem_nome_133-4);}.cls-9{fill:url(#Gradiente_sem_nome_133-5);}.cls-10,.cls-11,.cls-12{mix-blend-mode:soft-light;}.cls-10{fill:url(#Gradiente_sem_nome_133-6);}.cls-11{opacity:0.5;fill:url(#Gradiente_sem_nome_133-7);}.cls-12{fill:url(#Gradiente_sem_nome_133-8);}.cls-13,.cls-14,.cls-15{opacity:0.34;mix-blend-mode:color-dodge;}.cls-13{fill:url(#Gradiente_sem_nome_133-9);}.cls-14{fill:url(#Gradiente_sem_nome_133-10);}.cls-15{fill:url(#Gradiente_sem_nome_133-11);}</style><clipPath id="clip-path"><rect class="cls-1" x="-963.21" y="-822.64" width="588.51" height="548.5"/></clipPath><linearGradient id="Gradiente_sem_nome_133" x1="3.74" y1="38.64" x2="151.71" y2="38.64" gradientUnits="userSpaceOnUse"><stop offset="0.18" stop-color="#472363"/><stop offset="0.49" stop-color="#472363"/></linearGradient><linearGradient id="Gradiente_sem_nome_133-2" x1="2627.77" y1="1229.86" x2="2705.19" y2="1229.86" gradientTransform="matrix(1.84, -0.01, 0, 1.23, -4830.14, -1458.12)" xlink:href="#Gradiente_sem_nome_133"/><linearGradient id="Gradiente_sem_nome_133-3" x1="2610.13" y1="1238.81" x2="2681.52" y2="1238.81" gradientTransform="matrix(1.84, 0, 0, 1.23, -4783.46, -1482.26)" xlink:href="#Gradiente_sem_nome_133"/><linearGradient id="Gradiente_sem_nome_133-4" x1="12.03" y1="33.71" x2="143.25" y2="33.71" xlink:href="#Gradiente_sem_nome_133"/><linearGradient id="Gradiente_sem_nome_133-5" x1="2629.68" y1="1254.31" x2="2703.35" y2="1254.31" gradientTransform="matrix(1.84, 0, 0, 1.23, -4824.23, -1477.03)" xlink:href="#Gradiente_sem_nome_133"/><linearGradient id="Gradiente_sem_nome_133-6" x1="15.77" y1="33.71" x2="143.26" y2="33.71" xlink:href="#Gradiente_sem_nome_133"/><linearGradient id="Gradiente_sem_nome_133-7" x1="14.46" y1="33.97" x2="116.61" y2="33.97" xlink:href="#Gradiente_sem_nome_133"/><linearGradient id="Gradiente_sem_nome_133-8" x1="10.2" y1="63.34" x2="145.63" y2="63.34" gradientTransform="translate(0.25 -0.31) rotate(0.22)" xlink:href="#Gradiente_sem_nome_133"/><linearGradient id="Gradiente_sem_nome_133-9" x1="2654.99" y1="1230.62" x2="2642.05" y2="1200.13" gradientTransform="matrix(1.84, -0.01, 0, 1.23, -4830.14, -1458.12)" xlink:href="#Gradiente_sem_nome_133"/><linearGradient id="Gradiente_sem_nome_133-10" x1="2658.27" y1="1248.73" x2="2658.27" y2="1212.22" gradientTransform="matrix(1.84, -0.01, 0, 1.23, -4830.14, -1458.12)" xlink:href="#Gradiente_sem_nome_133"/><linearGradient id="Gradiente_sem_nome_133-11" x1="2667.44" y1="1246.95" x2="2667.44" y2="1211.92" gradientTransform="matrix(1.84, -0.01, 0, 1.23, -4830.14, -1458.12)" xlink:href="#Gradiente_sem_nome_133"/></defs><title>Prancheta 179</title><g class="cls-2"><g id="Camada_1" data-name="Camada 1"><g class="cls-3"><polygon class="cls-4" points="-964.08 -528.52 -1803.7 269.22 713.92 499.93 -390.68 -528.52 -360.7 -528.52 1078.12 585.41 -2402.91 585.41 -964.08 -528.52"/></g><polygon class="cls-5" points="148.41 68.61 7.63 69.16 3.74 8.7 151.71 8.12 148.41 68.61"/><polygon class="cls-6" points="145.63 62.86 10.2 63.39 6.46 5.23 148.8 4.67 145.63 62.86"/><polygon class="cls-7" points="140.33 59.99 15.46 60.48 12.02 7.46 143.26 6.94 140.33 59.99"/><polygon class="cls-8" points="15.47 60.48 15.78 60.47 13.41 8.39 143.25 7.57 143.25 6.95 12.03 7.46 15.47 60.48"/><rect class="cls-9" x="10.2" y="63.12" width="135.43" height="1.91" transform="translate(-0.25 0.3) rotate(-0.22)"/><polygon class="cls-10" points="15.77 60.48 140.33 59.99 143.26 6.94 139.58 59.39 15.77 60.48"/><path class="cls-11" d="M16.65,59.22,14.46,9.12l102.15-.4S20,10.8,19.5,11.73C18.61,13.32,16.65,59.22,16.65,59.22Z"/><rect class="cls-12" x="10.2" y="63.12" width="135.43" height="0.43" transform="translate(-0.25 0.31) rotate(-0.22)"/><polygon class="cls-13" points="9.25 48.69 11.56 47.18 8.89 6.21 86.06 5.91 93.41 4.88 6.46 5.23 9.25 48.69"/><polygon class="cls-14" points="21.36 12.57 46.97 12.47 103.96 57.11 97.42 57.14 21.36 12.57"/><polygon class="cls-15" points="50.91 12.09 76.06 11.99 108.11 54.91 103.34 54.92 50.91 12.09"/></g></g></svg>