<svg id="Camada_1" data-name="Camada 1" xmlns="http://www.w3.org/2000/svg" viewBox="0 0 45.13 46.78"><defs><style>.cls-1{fill:#bf97ff;opacity:0.25;}</style></defs><title>Prancheta 187</title><path class="cls-1" d="M30.31,9.8a.56.56,0,0,0-.12.33h0L11.68,27a1.24,1.24,0,0,0-.32.28l-.11.22c-2.09,3.82-3.93,7.79-5.74,11.75-.4.83.78,1.29,1.45,1,3.89-1.53,7.86-3,11.64-4.78,1.14-.25,2.16-1.58,2.87-2.22C27.36,28,33.22,22.77,39.12,17.59c0,0,0-.07.08-.07,1.1-.36,1.88-1.07,1.61-2.18C40.06,12.59,33.18,5.19,30.31,9.8Zm1.69.9c1.3-2.08,5.82,3,6.45,3.93.78,1.14-.51,1.6-1.61,1.46a4.35,4.35,0,0,1-2.21-1.39,36.07,36.07,0,0,1-2.94-3.5.44.44,0,0,0,.11-.29A1,1,0,0,0,32,10.7ZM9.52,36.43h0l-.08-.07s-.08-.08-.08-.11h0L9.24,36s0-.1,0-.14C10.11,34,11.05,32,12.07,30.1a10.91,10.91,0,0,0,3.19,4.08l.63.46C14,35.5,12,36.28,10,37.07A1.37,1.37,0,0,0,9.52,36.43ZM30.35,12.48c.16.22.35.47.55.72-5.31,5.64-11.52,10.47-17.33,15.62a5.39,5.39,0,0,1-.28-.83ZM15,31.46c-.24-.29-.43-.61-.63-.89C20.33,25.31,26.65,20.45,32,14.74c.31.39.67.78,1,1.14-1.61,1.25-3.22,2.46-4.75,3.79s-2.76,2.79-4.17,4.14A74.33,74.33,0,0,1,15,31.46Zm6.17-.5c-.74.64-2.63,3.07-3.85,2.47a4.51,4.51,0,0,1-1-.65,86.13,86.13,0,0,0,9.19-7.68C27,23.74,28.27,22.27,29.72,21s3.23-2.61,4.84-3.86a6.14,6.14,0,0,0,1.33.61.51.51,0,0,0,.24,0C32.24,21.17,28.39,24.6,24.49,28,23.39,29,22.29,30,21.19,31Z"/></svg>