<svg id="Camada_1" data-name="Camada 1" xmlns="http://www.w3.org/2000/svg" viewBox="0 0 45.13 46.78"><defs><style>.cls-1{fill:#16d3af;}</style></defs><title>Prancheta 187 cópia</title><path class="cls-1" d="M30.44,9.8a.53.53,0,0,0-.12.32h0L11.81,27a1.11,1.11,0,0,0-.32.29l-.11.21c-2.09,3.83-3.94,7.79-5.74,11.76-.4.83.78,1.29,1.45,1,3.89-1.53,7.86-3,11.64-4.79,1.14-.25,2.16-1.57,2.87-2.21C27.49,28,33.35,22.77,39.25,17.59c0,0,0-.07.07-.07,1.11-.36,1.89-1.07,1.61-2.18C40.19,12.59,33.31,5.19,30.44,9.8Zm1.69.89c1.3-2.07,5.82,3,6.45,3.94.78,1.14-.52,1.6-1.61,1.46a4.35,4.35,0,0,1-2.21-1.39,36.19,36.19,0,0,1-2.94-3.51.45.45,0,0,0,.11-.28A1,1,0,0,0,32.13,10.69ZM9.65,36.42h0l-.08-.07s-.08-.07-.08-.11h0L9.37,36s0-.11,0-.14C10.24,34,11.18,32,12.2,30.1a11,11,0,0,0,3.18,4.07l.63.47c-1.92.85-3.89,1.64-5.85,2.43A1.44,1.44,0,0,0,9.65,36.42ZM30.48,12.48l.55.71c-5.31,5.65-11.52,10.48-17.34,15.62a6.56,6.56,0,0,1-.27-.82Zm-15.33,19a10.32,10.32,0,0,1-.63-.89c5.94-5.25,12.26-10.11,17.65-15.83.31.39.67.79,1,1.15-1.61,1.25-3.22,2.46-4.75,3.78s-2.76,2.79-4.17,4.15A74.25,74.25,0,0,1,15.15,31.45ZM21.32,31c-.75.64-2.63,3.07-3.85,2.46a4.25,4.25,0,0,1-1-.64,87.14,87.14,0,0,0,9.19-7.68c1.42-1.36,2.72-2.83,4.17-4.15s3.22-2.61,4.84-3.86A6.65,6.65,0,0,0,36,17.7a.66.66,0,0,0,.24,0C32.37,21.16,28.51,24.6,24.62,28,23.52,29,22.42,30,21.32,31Z"/></svg>