<svg id="Camada_1" data-name="Camada 1" xmlns="http://www.w3.org/2000/svg" xmlns:xlink="http://www.w3.org/1999/xlink" viewBox="0 0 45.13 46.78"><defs><style>.cls-1{fill:none;}.cls-2{clip-path:url(#clip-path);}.cls-3{fill:#16d3af;}.cls-4{fill:#bf97ff;opacity:0.3;}</style><clipPath id="clip-path"><path class="cls-1" d="M29.73,10.79a.56.56,0,0,0-.12.33h0L11.1,28a1.11,1.11,0,0,0-.32.29,2.12,2.12,0,0,0-.11.21c-2.09,3.82-3.94,7.79-5.74,11.76-.4.82.78,1.28,1.45,1,3.89-1.54,7.86-3,11.64-4.79,1.14-.25,2.16-1.57,2.87-2.22C26.78,29,32.64,23.77,38.54,18.59c0,0,0-.07.07-.07,1.1-.36,1.89-1.08,1.62-2.19C39.48,13.58,32.6,6.19,29.73,10.79Zm1.69.9c1.3-2.07,5.82,3,6.45,3.93.78,1.14-.51,1.61-1.61,1.46a4.35,4.35,0,0,1-2.21-1.39,36.07,36.07,0,0,1-2.94-3.5.44.44,0,0,0,.11-.29A1,1,0,0,0,31.42,11.69ZM8.94,37.42h0l-.08-.07s-.08-.07-.08-.11h0L8.66,37s0-.11,0-.15C9.53,35,10.47,33,11.49,31.1a10.88,10.88,0,0,0,3.19,4.07l.62.46c-1.92.86-3.89,1.65-5.85,2.43A1.42,1.42,0,0,0,8.94,37.42Zm20.83-24c.16.22.35.47.55.72C25,19.84,18.8,24.66,13,29.81a6.56,6.56,0,0,1-.27-.82Zm-15.33,19a10.32,10.32,0,0,1-.63-.89c5.94-5.26,12.26-10.11,17.65-15.83.31.39.67.78,1,1.14-1.61,1.25-3.22,2.47-4.75,3.79S25,23.45,23.56,24.8A74.33,74.33,0,0,1,14.44,32.45Zm6.17-.5c-.75.65-2.63,3.08-3.85,2.47a4.48,4.48,0,0,1-1-.64A87.23,87.23,0,0,0,25,26.09c1.42-1.36,2.72-2.82,4.17-4.14s3.23-2.61,4.84-3.86a6.1,6.1,0,0,0,1.33.6.51.51,0,0,0,.24,0C31.66,22.16,27.81,25.59,23.91,29,22.81,30,21.71,31,20.61,32Z"/></clipPath></defs><title>Prancheta 187 cópia 2</title><g class="cls-2"><rect class="cls-3" x="1.45" y="4.84" width="21.7" height="41.62"/><rect class="cls-4" x="23.24" y="0.91" width="34.09" height="43.47"/></g></svg>