<svg id="Camada_1" data-name="Camada 1" xmlns="http://www.w3.org/2000/svg" viewBox="0 0 560.72 304.2"><defs><style>.cls-1{fill:none;}.cls-2{font-size:57.66px;font-family:Montserrat-Regular, Montserrat;}.cls-2,.cls-4,.cls-7{fill:#fff;}.cls-3{letter-spacing:-0.04em;}.cls-4{font-size:40.61px;font-family:Montserrat-Light, Montserrat;font-weight:300;}.cls-5{letter-spacing:-0.04em;}.cls-6{letter-spacing:-0.01em;}</style></defs><title>Prancheta 155</title><rect class="cls-1" x="467.64" y="-2259.04" width="648" height="2733.21"/><text class="cls-2" transform="translate(21.99 233.48)">TRANS<tspan class="cls-3" x="198.47" y="0">P</tspan><tspan x="237.27" y="0">ARÊNCIA</tspan></text><text class="cls-4" transform="translate(21.99 275.77)"><tspan class="cls-5">P</tspan><tspan x="27.21" y="0">ARA </tspan><tspan class="cls-6" x="124.15" y="0">C</tspan><tspan x="152.62" y="0">ONTROLE SOCIAL</tspan></text><path class="cls-7" d="M223.4,90.55c0,.24,0,.47,0,.7s-.1.47,0,0c-.09.37-.15.73-.27,1.08,0,.14-.1.29-.15.42.17-.43,0-.08,0,0-.21.38-.41.75-.66,1.12.28-.42-.27.3-.37.4a8.8,8.8,0,0,1-.72.65c.39-.3,0,0-.1,0a3.64,3.64,0,0,1-.47.28l-.38.2c-.48.27.28-.06-.22.09-.35.11-.7.21-1.06.3s-.12,0,0,0l-.57,0c-.35,0-.7,0-1,0-.72,0,.3.06-.12,0l-.77-.18c-.16,0-.88-.34-.43-.14a6.66,6.66,0,0,1-.95-.51l-.37-.25c.45.31-.12-.1-.17-.15-.26-.26-.51-.51-.75-.77-.45-.5.15.25-.06-.1l-.3-.45c-.07-.12-.15-.25-.22-.39,0,0-.3-.63-.15-.3s-.12-.33-.1-.31c-.05-.14-.08-.29-.13-.44a4.88,4.88,0,0,1-.12-.55c0-.18,0-.15,0,.1,0-.11,0-.23,0-.33a4.43,4.43,0,0,1,0-1s.1-.72,0-.35.08-.35.08-.34c.09-.32.19-.63.29-1s-.29.48,0-.1c.1-.18.2-.38.31-.57l.24-.36c.33-.59-.32.31.13-.19.2-.21.38-.43.6-.63a6.42,6.42,0,0,1,.48-.43c-.08.06-.36.23,0,0s.69-.42,1-.6-.55.16.11,0l.42-.14a5.11,5.11,0,0,1,.53-.13c.14,0,.62-.1.12,0a7.11,7.11,0,0,1,1,0c.2,0,.39,0,.59,0,.53,0-.34-.1.23,0a9.38,9.38,0,0,1,1.07.3c.65.2-.39-.24.21.08a6.38,6.38,0,0,1,.57.32c.12.06.25.16.37.23.48.28-.2-.22.18.13s.62.6.92.92c.07.08.27.38,0,0,.11.18.25.35.35.55s.16.32.26.48l.15.3c-.1-.23-.1-.25-.05-.08a9.24,9.24,0,0,1,.34,1.17c.11.47,0,.12,0,0,0,.32,0,.62,0,.93a2.5,2.5,0,0,0,5,0,10.56,10.56,0,0,0-7.07-9.84,10.39,10.39,0,0,0-11.24,3.14,10.38,10.38,0,1,0,18.31,6.7,2.52,2.52,0,0,0-2.5-2.5A2.55,2.55,0,0,0,223.4,90.55Z"/><path class="cls-7" d="M228,110.31c0,5.61.1,11.21,0,16.8v.17c0,.15-.1.61,0,.13,0,.18-.09.37-.14.53-.1.39.29-.46,0,.12l-.33.57c.06-.1.3-.3,0,0-.15.15-.3.31-.47.45.35-.29.07-.05,0,0s-.37.21-.59.31c.59-.25-.9.14-.23.07a12.53,12.53,0,0,1-1.37,0,2.54,2.54,0,0,0-2.5,2.5v17c.05-.31,0-.31,0,0,0,.07,0,.13-.07.2.12-.27.1-.27,0,0a.22.22,0,0,1-.07.09c-.1.15-.08.11.07-.09l-.15.15c.2-.13.23-.16.08-.06s-.55.26-.07.08c-.13,0-.28.08-.41.12.45-.12-.17,0-.34,0h-6.82c-.1,0-.48,0-.2,0s-.3-.1-.32-.1c.57.22,0,0,0,0l-.18-.12c.23.17.23.17,0,0a.27.27,0,0,0,.07.08c.1.15.08.12-.07-.08,0,0-.16-.36,0,0-.05-.11-.13-.75-.1-.2a1.22,1.22,0,0,1,0-.27c0-.36,0-.73,0-1.08V131.94a2.54,2.54,0,0,0-2.5-2.5h-.9s-.72-.06-.35,0-.34-.1-.34-.1-.46-.17,0,0c-.2-.08-.39-.21-.59-.31-.38-.2-.11-.09,0,0l-.4-.37c-.1-.1-.35-.47-.09-.08l-.23-.37a2.75,2.75,0,0,1-.2-.38c.2.45,0,0,0-.14s-.1-.62-.05-.11a3.54,3.54,0,0,1,0-.47c0-.89,0-1.75,0-2.64V113c0-.92,0-1.84,0-2.76,0-.1.12-.76,0-.25,0-.16.29-.91.09-.45a4.44,4.44,0,0,1,.25-.48c0-.12.35-.48,0-.12a2.91,2.91,0,0,1,.3-.31c.06-.07.58-.45.16-.17a3.73,3.73,0,0,1,.37-.23s.63-.29.3-.15,1-.17.33-.1c.21,0,.41,0,.61,0,3.26,0,6.53,0,9.78,0H226c.7,0-.27-.08.12,0,.06,0,.72.2.43.1s.3.15.3.15.6.43.2.1a2.27,2.27,0,0,1,.32.3c.07.06.45.58.17.16l.23.37c.08.17.23.6.12.2l.15.53c0,.19,0,.15,0-.1v.5a2.5,2.5,0,1,0,5,0,7.45,7.45,0,0,0-7.31-7.3c-1.11,0-2.25,0-3.36,0H210.79a7.63,7.63,0,0,0-6.72,3.5,9.27,9.27,0,0,0-1.07,5.21v12.15a35.06,35.06,0,0,0,.05,4,7.45,7.45,0,0,0,3.36,5.47,8.46,8.46,0,0,0,4.8,1.14l-2.5-2.51v15.45c0,2,.18,3.93,1.75,5.45,1.88,1.84,4.35,1.6,6.75,1.6h3.24a10.2,10.2,0,0,0,2.53-.17,5.88,5.88,0,0,0,4.37-6.05V131.94l-2.5,2.51a9.36,9.36,0,0,0,4.14-.77,7.23,7.23,0,0,0,3.4-3.52,11,11,0,0,0,.68-4.69V110.28a2.53,2.53,0,0,0-2.5-2.5A2.61,2.61,0,0,0,228,110.31Z"/><path class="cls-7" d="M265.31,90.55c0,.24,0,.47,0,.7s-.1.47,0,0c-.09.37-.15.73-.27,1.08-.05.14-.1.29-.15.42.17-.43,0-.08,0,0a11.83,11.83,0,0,1-.67,1.12c.29-.42-.26.3-.36.4s-.47.45-.72.65c.38-.3,0,0-.1,0a3.64,3.64,0,0,1-.47.28l-.38.2c-.48.27.28-.06-.22.09s-.7.21-1.06.3-.12,0,0,0l-.57,0c-.35,0-.7,0-1,0-.72,0,.3.06-.12,0l-.77-.18c-.17,0-.88-.34-.43-.14a6.17,6.17,0,0,1-.95-.51l-.37-.25c.45.31-.12-.1-.17-.15-.26-.26-.51-.51-.75-.77-.45-.5.15.25-.06-.1l-.3-.45c-.07-.12-.15-.25-.22-.39,0,0-.3-.63-.15-.3s-.12-.33-.1-.31c-.05-.14-.08-.29-.13-.44a4.88,4.88,0,0,1-.12-.55c0-.18,0-.15,0,.1,0-.11,0-.23,0-.33a4.43,4.43,0,0,1,0-1s.1-.72,0-.35.08-.35.08-.34c.09-.32.19-.63.29-1s-.29.48,0-.1c.1-.18.2-.38.31-.57l.24-.36c.33-.59-.32.31.13-.19.2-.21.38-.43.6-.63a6.42,6.42,0,0,1,.48-.43c-.08.06-.36.23,0,0s.68-.42,1-.6-.55.16.12,0l.42-.14a5.11,5.11,0,0,1,.53-.13c.14,0,.62-.1.12,0a7.11,7.11,0,0,1,1,0c.2,0,.39,0,.59,0,.53,0-.34-.1.23,0a9.38,9.38,0,0,1,1.07.3c.65.2-.39-.24.21.08a6.38,6.38,0,0,1,.57.32c.12.06.25.16.37.23.48.28-.2-.22.18.13s.62.6.92.92c.07.08.27.38,0,0a5.21,5.21,0,0,1,.36.55c.1.15.16.32.26.48l.15.3c-.1-.23-.1-.25-.05-.08a9.24,9.24,0,0,1,.34,1.17c.11.47,0,.12,0,0,0,.32,0,.62,0,.93a2.5,2.5,0,1,0,5,0,10.56,10.56,0,0,0-7.07-9.84A10.39,10.39,0,0,0,252,83.85a10.38,10.38,0,1,0,18.31,6.7,2.5,2.5,0,0,0-5,0Z"/><path class="cls-7" d="M266.74,111c1.64,6.84,3.37,13.68,4.92,20.53,0,0,0,.07,0,.1s0-.22,0-.22a1.7,1.7,0,0,1,0,.45c0-.3,0-.3,0,0,0,.08-.3.7-.05.23-.05.08-.43.69-.3.5s-.28.29-.26.25l-.35.3c.2-.16.18-.15-.07,0s-.4.23-.62.33c.47-.2-.23,0-.26,0-.62.2.41,0-.24.05h-1.95a2.57,2.57,0,0,0-2.5,2.5c-.3,2.34-.6,4.67-.92,7-.18,1.45-.38,2.9-.57,4.35-.05.38-.11.77-.15,1.17,0,0,0,.1,0,.15s-.1.4,0,0a1.67,1.67,0,0,1-.08.32c-.2.31.2-.32,0,0s0,.15-.05.1-.45.38,0,0a1.53,1.53,0,0,1-.27.17c-.3.21.32-.2,0,0a2.29,2.29,0,0,1-.31.09c.41-.14,0,0-.22,0h-5.14c-.1,0-.63,0-.36,0s-.59-.3-.1,0a2.58,2.58,0,0,1-.37-.24c.32.24,0,0,0,0s.26.32.06.08c-.05-.05-.26-.45-.13-.16s-.05-.11,0-.11c-.05-.25-.07-.28,0-.1s0,.16,0,0-.05-.46-.08-.7c-.17-1.28-.34-2.58-.5-3.86-.35-2.74-.72-5.47-1.07-8.23a2.57,2.57,0,0,0-2.5-2.5h-1.6c-.15,0-.72-.05-.45,0s-.34-.08-.32-.08a3.52,3.52,0,0,1-.43-.13c.45.15-.27-.17-.42-.25-.58-.3.17.18-.13-.07a4.89,4.89,0,0,1-.4-.39c-.09-.06-.27-.36,0,0a5.15,5.15,0,0,1-.33-.56c.25.51,0-.6,0,0a3.39,3.39,0,0,1,0-.45c0,.07-.12.52,0,0a.51.51,0,0,0,0-.17c.09-.35.17-.68.25-1,.8-3.37,1.62-6.72,2.42-10.09.72-3,1.42-5.94,2.13-8.9.07-.3.14-.61.22-.91s.19-.58.3-.88c-.18.45.22-.4.29-.5s.18-.3.3-.45c-.07.1-.32.32,0,0a2.62,2.62,0,0,0,.28-.3c.35-.39-.33.13.13-.1l.35-.2c-.45.25-.06.05.07,0s.6-.12.07,0a3.39,3.39,0,0,1,.45,0h9.09c.6,0-.37-.15.18,0l.38.11c-.45-.08-.08,0,.12.09a2.3,2.3,0,0,1,.33.21c-.46-.33,0,0,.09.12a3.48,3.48,0,0,1,.26.3c-.35-.43,0,.05.09.17s.16.31.25.46a1.94,1.94,0,0,1,.13.3c-.1-.21-.1-.25-.05-.08a5.15,5.15,0,0,1,.43,1.25,2.51,2.51,0,0,0,4.84-1.33c-.83-3.59-3.32-6.56-7.2-6.64-1.47,0-3,0-4.44,0s-2.95,0-4.44,0c-3.87.08-6.32,3.1-7.2,6.64-1.6,6.37-3.07,12.79-4.59,19.18-.46,2-.81,3.83.17,5.77a7.69,7.69,0,0,0,4.7,3.7,14,14,0,0,0,3.7.27l-2.5-2.51c.34,2.59.67,5.16,1,7.74.19,1.42.37,2.85.55,4.27l.1.9a5.92,5.92,0,0,0,2.41,4.4c1.61,1.21,3.53,1.07,5.42,1.07a22.65,22.65,0,0,0,4.66-.13,5.77,5.77,0,0,0,3.77-2.82,7.32,7.32,0,0,0,.74-2.9c.11-1.15.3-2.3.45-3.45.4-3,.78-6,1.18-9.08l-2.5,2.51a11.24,11.24,0,0,0,4.17-.46,7.44,7.44,0,0,0,4.74-5c.43-1.77-.1-3.42-.52-5.12-1.14-4.75-2.27-9.5-3.42-14.26l-1-4.15a2.54,2.54,0,0,0-3.09-1.75A2.59,2.59,0,0,0,266.74,111Z"/><path class="cls-7" d="M307.2,90.55c0,.24,0,.47,0,.7s-.1.47,0,0c-.09.37-.15.73-.27,1.08,0,.14-.1.29-.15.42.17-.43,0-.08,0,0-.21.38-.41.75-.66,1.12.28-.42-.27.3-.37.4a8.8,8.8,0,0,1-.72.65c.39-.3,0,0-.1,0a4.34,4.34,0,0,1-.46.28l-.39.2c-.48.27.29-.06-.21.09-.35.11-.7.21-1.07.3s-.12,0,0,0l-.57,0c-.35,0-.7,0-1,0-.72,0,.3.06-.12,0l-.77-.18c-.16,0-.88-.34-.43-.14a6.66,6.66,0,0,1-.95-.51,3.41,3.41,0,0,0-.37-.25c.45.31-.11-.1-.16-.15-.27-.26-.52-.51-.75-.77-.45-.5.15.25-.07-.1l-.3-.45c-.07-.12-.15-.25-.22-.39,0,0-.3-.63-.15-.3s-.12-.33-.1-.31c-.05-.14-.08-.29-.13-.44a4.88,4.88,0,0,1-.12-.55c0-.18,0-.15,0,.1,0-.11,0-.23,0-.33a4.43,4.43,0,0,1,0-1s.1-.72,0-.35.08-.35.08-.34c.09-.32.19-.63.29-1s-.29.48.05-.1c.1-.18.2-.38.32-.57s.16-.25.23-.36c.33-.59-.32.31.13-.19.2-.21.39-.43.6-.63a5,5,0,0,1,.49-.43c-.09.06-.37.23,0,0s.69-.42,1-.6-.55.16.11,0l.42-.14a5.11,5.11,0,0,1,.53-.13c.14,0,.62-.1.12,0a7.11,7.11,0,0,1,1,0c.2,0,.39,0,.59,0,.53,0-.34-.1.23,0a9.38,9.38,0,0,1,1.07.3c.65.2-.38-.24.22.08.18.1.38.2.56.32s.25.16.37.23c.48.28-.2-.22.18.13s.62.6.92.92c.07.08.27.38,0,0,.11.18.25.35.35.55s.16.32.26.48l.15.3c-.1-.23-.1-.25-.05-.08a9.24,9.24,0,0,1,.34,1.17c.11.47,0,.12,0,0,0,.32,0,.62,0,.93a2.5,2.5,0,1,0,5,0,10.55,10.55,0,0,0-7.07-9.84,10.39,10.39,0,0,0-11.24,3.14,10.38,10.38,0,1,0,18.31,6.7,2.52,2.52,0,0,0-2.5-2.5A2.55,2.55,0,0,0,307.2,90.55Z"/><path class="cls-7" d="M311.84,110.31c0,5.61.1,11.21,0,16.8v.17c0,.15-.1.61,0,.13,0,.18-.09.37-.14.53-.1.39.29-.46,0,.12l-.33.57c.06-.1.3-.3,0,0-.15.15-.3.31-.47.45.35-.29.07-.05,0,0s-.37.21-.59.31c.59-.25-.9.14-.23.07a12.53,12.53,0,0,1-1.37,0,2.54,2.54,0,0,0-2.5,2.5v17c.05-.31,0-.31,0,0,0,.07-.05.13-.07.2.12-.27.1-.27,0,0a.22.22,0,0,1-.07.09c-.1.15-.08.11.07-.09l-.15.15c.2-.13.23-.16.08-.06s-.55.26-.07.08c-.13,0-.28.08-.41.12.45-.12-.17,0-.34,0h-6.82c-.1,0-.48,0-.2,0s-.3-.1-.31-.1c.56.22,0,0,0,0a1.13,1.13,0,0,0-.18-.12c.23.17.23.17,0,0a.16.16,0,0,0,.06.08c.1.15.09.12-.06-.08,0,0-.17-.36,0,0-.05-.11-.13-.75-.1-.2a2.42,2.42,0,0,1,0-.27c0-.36,0-.73,0-1.08V131.94a2.54,2.54,0,0,0-2.5-2.5h-.9s-.72-.06-.35,0-.33-.1-.33-.1-.47-.17,0,0c-.2-.08-.38-.21-.58-.31-.39-.2-.12-.09,0,0l-.4-.37c-.1-.1-.35-.47-.08-.08a3.87,3.87,0,0,1-.24-.37c-.06-.12-.15-.25-.2-.38.2.45,0,0,0-.14s-.1-.62-.05-.11c0-.15,0-.3,0-.47,0-.89,0-1.75,0-2.64V113c0-.92,0-1.84,0-2.76,0-.1.11-.76,0-.25,0-.16.28-.91.08-.45.07-.16.17-.31.25-.48s.35-.48,0-.12a2.91,2.91,0,0,1,.3-.31c.07-.07.58-.45.17-.17a3.61,3.61,0,0,1,.36-.23s.64-.29.3-.15,1-.17.34-.1c.2,0,.4,0,.6,0,3.27,0,6.53,0,9.79,0h5.73c.7,0-.26-.08.12,0,.07,0,.72.2.43.1s.3.15.3.15.6.43.2.1a2.27,2.27,0,0,1,.32.3c.07.06.45.58.17.16l.23.37c.08.17.23.6.12.2l.15.53c0,.19,0,.15,0-.1a4.15,4.15,0,0,0,0,.5,2.5,2.5,0,1,0,5,0,7.45,7.45,0,0,0-7.3-7.3c-1.12,0-2.26,0-3.37,0H294.59a7.63,7.63,0,0,0-6.72,3.5,9.34,9.34,0,0,0-1.06,5.21v12.15a35.06,35.06,0,0,0,.05,4,7.4,7.4,0,0,0,3.35,5.47,8.48,8.48,0,0,0,4.8,1.14l-2.5-2.51v15.45c0,2,.18,3.93,1.75,5.45,1.88,1.84,4.35,1.6,6.75,1.6h3.24a10.2,10.2,0,0,0,2.53-.17,5.88,5.88,0,0,0,4.37-6.05V131.94l-2.5,2.51a9.36,9.36,0,0,0,4.14-.77,7.23,7.23,0,0,0,3.4-3.52,11,11,0,0,0,.68-4.69V110.28a2.53,2.53,0,0,0-2.5-2.5A2.61,2.61,0,0,0,311.84,110.31Z"/><path class="cls-7" d="M349.11,90.55c0,.24,0,.47,0,.7s-.1.47,0,0c-.09.37-.15.73-.27,1.08l-.15.42c.17-.43,0-.08,0,0-.21.38-.41.75-.66,1.12.28-.42-.27.3-.37.4a8.8,8.8,0,0,1-.72.65c.39-.3,0,0-.1,0a4.34,4.34,0,0,1-.46.28l-.39.2c-.48.27.29-.06-.22.09-.35.11-.7.21-1.06.3s-.12,0,0,0l-.57,0c-.35,0-.7,0-1,0-.72,0,.3.06-.12,0l-.77-.18c-.16,0-.88-.34-.43-.14a6.66,6.66,0,0,1-.95-.51,3.41,3.41,0,0,0-.37-.25c.45.31-.12-.1-.17-.15-.26-.26-.51-.51-.75-.77-.45-.5.15.25-.06-.1l-.3-.45c-.07-.12-.15-.25-.22-.39,0,0-.3-.63-.15-.3s-.12-.33-.1-.31c-.05-.14-.08-.29-.13-.44a4.88,4.88,0,0,1-.12-.55c0-.18,0-.15,0,.1,0-.11,0-.23,0-.33a4.43,4.43,0,0,1,0-1s.1-.72,0-.35.08-.35.08-.34c.09-.32.19-.63.29-1s-.29.48,0-.1c.1-.18.2-.38.31-.57l.24-.36c.33-.59-.32.31.13-.19.2-.21.38-.43.6-.63a5,5,0,0,1,.49-.43c-.09.06-.37.23,0,0s.69-.42,1-.6-.55.16.11,0l.42-.14a5.11,5.11,0,0,1,.53-.13c.14,0,.62-.1.12,0a7.11,7.11,0,0,1,1,0c.2,0,.39,0,.59,0,.53,0-.34-.1.23,0a9.38,9.38,0,0,1,1.07.3c.65.2-.39-.24.22.08.18.1.38.2.56.32s.25.16.37.23c.48.28-.2-.22.18.13s.62.6.92.92c.07.08.27.38,0,0,.11.18.25.35.35.55s.16.32.26.48l.15.3c-.1-.23-.1-.25-.05-.08a9.24,9.24,0,0,1,.34,1.17c.11.47,0,.12,0,0,0,.32,0,.62,0,.93a2.5,2.5,0,1,0,5,0A10.55,10.55,0,0,0,347,80.71a10.39,10.39,0,0,0-11.24,3.14,10.38,10.38,0,1,0,18.31,6.7,2.5,2.5,0,0,0-5,0Z"/><path class="cls-7" d="M350.54,111c1.64,6.84,3.37,13.68,4.92,20.53,0,0,0,.07,0,.1s0-.22,0-.22a1.69,1.69,0,0,1,0,.45c.05-.3.05-.3,0,0,0,.08-.3.7,0,.23-.05.08-.43.69-.3.5s-.28.29-.26.25l-.35.3c.2-.16.18-.15-.07,0s-.4.23-.62.33c.47-.2-.23,0-.26,0-.62.2.41,0-.24.05h-1.95a2.57,2.57,0,0,0-2.5,2.5c-.3,2.34-.6,4.67-.92,7-.18,1.45-.38,2.9-.56,4.35-.05.38-.12.77-.15,1.17,0,0,0,.1,0,.15s-.1.4,0,0a3,3,0,0,1-.09.32c-.2.31.2-.32,0,0s0,.15-.05.1-.45.38,0,0a1.92,1.92,0,0,1-.26.17c-.3.21.31-.2,0,0a3,3,0,0,1-.32.09c.42-.14,0,0-.22,0h-5.13c-.1,0-.64,0-.37,0s-.59-.3-.1,0a2.58,2.58,0,0,1-.37-.24c.32.24,0,0,0,0s.27.32.07.08c-.05-.05-.27-.45-.14-.16s0-.11,0-.11c-.05-.25-.07-.28,0-.1s0,.16,0,0-.05-.46-.08-.7c-.17-1.28-.34-2.58-.5-3.86-.35-2.74-.72-5.47-1.07-8.23a2.57,2.57,0,0,0-2.5-2.5h-1.6c-.15,0-.72-.05-.45,0s-.34-.08-.32-.08a3.52,3.52,0,0,1-.43-.13c.45.15-.27-.17-.42-.25-.58-.3.17.18-.13-.07a4.89,4.89,0,0,1-.4-.39c-.09-.06-.27-.36,0,0a5.15,5.15,0,0,1-.33-.56c.25.51-.05-.6,0,0a3.39,3.39,0,0,1,0-.45c0,.07-.12.52,0,0a.51.51,0,0,0,0-.17c.09-.35.17-.68.25-1,.8-3.37,1.62-6.72,2.42-10.09.72-3,1.42-5.94,2.14-8.9.06-.3.13-.61.21-.91s.19-.58.3-.88c-.18.45.22-.4.29-.5s.18-.3.3-.45c-.07.1-.32.32,0,0a2.62,2.62,0,0,0,.28-.3c.35-.39-.33.13.13-.1l.35-.2c-.45.25-.06.05.07,0s.6-.12.07,0a3.39,3.39,0,0,1,.45,0h9.09c.6,0-.37-.15.18,0l.38.11c-.45-.08-.08,0,.12.09a2.3,2.3,0,0,1,.33.21c-.46-.33,0,0,.09.12a3.48,3.48,0,0,1,.26.3c-.35-.43,0,.05.09.17s.16.31.25.46a1.94,1.94,0,0,1,.13.3c-.1-.21-.1-.25-.05-.08a5.15,5.15,0,0,1,.43,1.25,2.51,2.51,0,0,0,4.84-1.33c-.83-3.59-3.32-6.56-7.2-6.64-1.47,0-3,0-4.44,0s-2.95,0-4.44,0c-3.86.08-6.32,3.1-7.2,6.64-1.6,6.37-3.07,12.79-4.59,19.18-.46,2-.81,3.83.17,5.77a7.69,7.69,0,0,0,4.7,3.7,14,14,0,0,0,3.71.27l-2.51-2.51c.34,2.59.67,5.16,1,7.74.19,1.42.37,2.85.56,4.27l.1.9a5.88,5.88,0,0,0,2.4,4.4c1.61,1.21,3.53,1.07,5.42,1.07a22.76,22.76,0,0,0,4.67-.13,5.82,5.82,0,0,0,3.77-2.82,7.48,7.48,0,0,0,.73-2.9c.12-1.15.3-2.3.45-3.45.4-3,.78-6,1.18-9.08l-2.5,2.51a11.24,11.24,0,0,0,4.17-.46,7.44,7.44,0,0,0,4.74-5c.43-1.77-.1-3.42-.52-5.12q-1.69-7.12-3.42-14.26l-1-4.15a2.53,2.53,0,0,0-3.08-1.75A2.58,2.58,0,0,0,350.54,111Z"/><path class="cls-7" d="M233.77,68.87c0-.23,0-.46,0-.7s0-.3,0,0a2,2,0,0,1,.06-.34c0-.21.1-.43.17-.65s.33-.82.1-.33c.18-.4.42-.77.63-1.14.34-.55-.3.29.14-.18l.43-.48c.15-.15.32-.3.48-.44.42-.36-.25.14.19-.13l.55-.35c.06,0,.75-.37.48-.25s.35-.12.42-.13a6.93,6.93,0,0,1,.75-.2c.52-.14-.35,0,.23,0l.7,0c.24,0,.47,0,.7,0,.7,0-.43-.11.24,0a8.87,8.87,0,0,1,1.28.38c-.5-.2.2.12.3.17l.57.33c.08.07.18.12.26.18-.18-.15-.21-.16-.08-.06s.39.33.57.5a4.91,4.91,0,0,1,.43.48c.35.38-.15-.3.14.18s.45.74.63,1.14c-.22-.49,0,.11.07.21s.13.44.18.66a4,4,0,0,1,.08.43c0-.25,0-.28,0-.1a7.13,7.13,0,0,1,0,.8,2.5,2.5,0,0,0,5,0,10.39,10.39,0,0,0-20.78,0,2.53,2.53,0,0,0,2.5,2.5,2.49,2.49,0,0,0,2.52-2.47Z"/><path class="cls-7" d="M275.68,68.87c0-.23,0-.46,0-.7s0-.3,0,0a2,2,0,0,1,.06-.34c.05-.21.1-.43.17-.65s.33-.82.1-.33c.18-.4.42-.77.63-1.14.34-.55-.3.29.14-.18l.43-.48c.15-.15.32-.3.48-.44.42-.36-.25.14.19-.13l.55-.35c.06,0,.75-.37.48-.25s.35-.12.42-.13a6.93,6.93,0,0,1,.75-.2c.52-.14-.35,0,.23,0l.7,0c.24,0,.47,0,.7,0,.7,0-.43-.11.24,0a8.87,8.87,0,0,1,1.28.38c-.5-.2.2.12.3.17l.57.33c.08.07.18.12.26.18-.18-.15-.21-.16-.08-.06s.38.33.57.5a4.91,4.91,0,0,1,.43.48c.35.38-.15-.3.13.18s.45.74.64,1.14c-.22-.49,0,.11.07.21s.13.44.18.66a4,4,0,0,1,.08.43c0-.25,0-.28,0-.1a7.13,7.13,0,0,1,0,.8,2.53,2.53,0,0,0,2.5,2.5,2.55,2.55,0,0,0,2.5-2.5,10.39,10.39,0,1,0-20.78,0,2.53,2.53,0,0,0,2.5,2.5,2.5,2.5,0,0,0,2.52-2.47Z"/><path class="cls-7" d="M317.57,68.87c0-.23,0-.46,0-.7s0-.3,0,0a2,2,0,0,1,.06-.34c.05-.21.1-.43.17-.65s.33-.82.1-.33a11.5,11.5,0,0,1,.64-1.14c.33-.55-.31.29.13-.18l.43-.48c.15-.15.32-.3.49-.44.41-.36-.25.14.18-.13l.55-.35c.07,0,.75-.37.48-.25s.35-.12.42-.13a6.93,6.93,0,0,1,.75-.2c.52-.14-.35,0,.23,0l.7,0c.24,0,.47,0,.7,0,.71,0-.43-.11.24,0a8.87,8.87,0,0,1,1.28.38c-.5-.2.2.12.3.17s.37.21.57.33a2.53,2.53,0,0,0,.27.18c-.19-.15-.22-.16-.09-.06s.39.33.57.5a4.91,4.91,0,0,1,.43.48c.35.38-.15-.3.14.18s.45.74.63,1.14c-.22-.49,0,.11.07.21s.13.44.18.66a4,4,0,0,1,.08.43c0-.25,0-.28,0-.1a7.13,7.13,0,0,1,0,.8,2.5,2.5,0,0,0,5,0,10.39,10.39,0,1,0-20.78,0,2.54,2.54,0,0,0,2.51,2.5,2.48,2.48,0,0,0,2.51-2.47Z"/><path class="cls-7" d="M254.74,47.76c0-.23,0-.47,0-.7s0-.3,0,0a2.17,2.17,0,0,1,.07-.33c0-.22.1-.43.16-.65s.34-.82.1-.34c.19-.4.42-.76.64-1.13.33-.55-.3.28.13-.18l.43-.49a5,5,0,0,1,.49-.43c.41-.37-.25.13.18-.13l.55-.35c.07,0,.75-.37.48-.25s.35-.12.42-.14c.25-.08.5-.13.75-.2.52-.13-.35,0,.24,0,.23,0,.46,0,.7,0l.7,0c.7,0-.44-.12.23,0a8.92,8.92,0,0,1,1.28.39c-.5-.2.2.11.3.16s.37.22.57.34.18.11.27.18l-.09-.07.57.5c.15.15.3.32.44.49.35.38-.16-.3.13.18a12.5,12.5,0,0,1,.63,1.13c-.21-.48,0,.12.07.22s.13.44.18.65a3.82,3.82,0,0,1,.09.44c0-.25,0-.29,0-.1a7,7,0,0,1,0,.8,2.51,2.51,0,0,0,5,0,10.39,10.39,0,1,0-20.78,0,2.51,2.51,0,0,0,5,0Z"/><path class="cls-7" d="M296.63,47.76c0-.23,0-.47,0-.7s0-.3,0,0a2.17,2.17,0,0,1,.07-.33c0-.22.1-.43.17-.65s.33-.82.1-.34a11.27,11.27,0,0,1,.63-1.13c.33-.55-.3.28.13-.18l.44-.49a4.91,4.91,0,0,1,.48-.43c.42-.37-.25.13.18-.13l.55-.35c.07,0,.75-.37.49-.25s.35-.12.41-.14c.25-.08.5-.13.75-.2.52-.13-.35,0,.24,0,.23,0,.46,0,.7,0s.47,0,.7,0c.7,0-.44-.12.23,0a9,9,0,0,1,1.29.39c-.5-.2.2.11.3.16l.56.34a2.53,2.53,0,0,1,.27.18c-.18-.15-.22-.17-.08-.07l.56.5c.15.15.3.32.44.49.35.38-.15-.3.13.18a12.5,12.5,0,0,1,.63,1.13c-.21-.48,0,.12.07.22s.13.44.18.65a3.82,3.82,0,0,1,.09.44c0-.25,0-.29,0-.1a7,7,0,0,1,0,.8,2.51,2.51,0,0,0,5,0,10.39,10.39,0,1,0-20.78,0,2.51,2.51,0,0,0,5,0Z"/><path class="cls-7" d="M275.68,27.83c0-.23,0-.47,0-.7s0-.3,0,0a2.1,2.1,0,0,1,.06-.33c.05-.22.1-.43.17-.65s.33-.82.1-.33c.18-.4.42-.77.63-1.14.34-.55-.3.29.14-.18l.43-.49a6.42,6.42,0,0,1,.48-.43c.42-.37-.25.13.19-.13l.55-.35c.06,0,.75-.37.48-.25s.35-.12.42-.14c.25-.08.5-.13.75-.2.52-.13-.35,0,.23,0l.7,0c.24,0,.47,0,.7,0,.7.05-.43-.12.24,0a8.92,8.92,0,0,1,1.28.39c-.5-.2.2.11.3.16l.57.34c.08.06.18.11.26.18-.18-.15-.21-.17-.08-.07l.57.5c.15.16.3.32.43.49.35.38-.15-.3.13.18s.45.74.64,1.14c-.22-.49,0,.11.07.21s.13.44.18.65a3.73,3.73,0,0,1,.08.44c0-.25,0-.29,0-.1a7,7,0,0,1,0,.8,2.53,2.53,0,0,0,2.5,2.5,2.55,2.55,0,0,0,2.5-2.5,10.39,10.39,0,1,0-20.78,0,2.53,2.53,0,0,0,2.5,2.5,2.49,2.49,0,0,0,2.52-2.47Z"/></svg>