<svg xmlns="http://www.w3.org/2000/svg" xmlns:xlink="http://www.w3.org/1999/xlink" viewBox="0 0 37.54 55.3"><defs><style>.cls-1{fill:none;}.cls-2{isolation:isolate;}.cls-3{clip-path:url(#clip-path);}.cls-4{fill:url(#Áåçûìÿííûé_ãðàäèåíò_167);}.cls-5{fill:#468b33;}.cls-6{fill:#82623c;}.cls-7{fill:#3fad87;}.cls-8{fill:#ed3547;}.cls-9{fill:#72408d;opacity:0.22;mix-blend-mode:multiply;}.cls-10{fill:#fff;opacity:0.6;}</style><clipPath id="clip-path"><rect class="cls-1" y="-1188.85" width="588.51" height="528.38"/></clipPath><linearGradient id="Áåçûìÿííûé_ãðàäèåíò_167" x1="293.63" y1="-7.11" x2="293.63" y2="-1070.63" gradientUnits="userSpaceOnUse"><stop offset="0" stop-color="#bac933"/><stop offset="0.14" stop-color="#b5c733"/><stop offset="0.31" stop-color="#a5c234"/><stop offset="0.51" stop-color="#8bb836"/><stop offset="0.72" stop-color="#67ac38"/><stop offset="0.93" stop-color="#3a9c3b"/><stop offset="1" stop-color="#2a963c"/></linearGradient></defs><title>Prancheta 163</title><g class="cls-2"><g id="Camada_1" data-name="Camada 1"><g class="cls-3"><rect class="cls-4" x="-10.77" y="-909.85" width="608.81" height="959.97"/></g><path class="cls-5" d="M4,40.41c0,3.68,6.51,6.66,14.54,6.66s14.54-3,14.54-6.66-6.51-6.65-14.54-6.65S4,36.74,4,40.41Z"/><path class="cls-6" d="M15.5,7.37c-.41.13-.73,1.18-.69,1.76,0,.4,1.23.31,3,2.75s1.5,6.41,1.5,6.41l1-.05a10.8,10.8,0,0,0-1-7.52C18.15,8.42,16.39,7.09,15.5,7.37Z"/><path class="cls-7" d="M26.32,5.24C20.35,5.65,21,11,21,11,27.53,10.62,26.32,5.24,26.32,5.24Z"/><path class="cls-8" d="M6,28.27c-.06,8.6,7,12.42,8.62,12.62,2.89.35,3.74-1.46,5.76-1.28,1.08.09,2.07,1.35,3.87,1.25,2.35-.14,6.35-3.25,8-7.86,1.38-3.77,2.42-10.28-1.95-13.33s-8.68-.52-10.59-.35c-1.67.14-3.54-2.34-7.09-1.79C9.4,18,6.07,19.9,6,28.27Z"/><path class="cls-6" d="M14.93,8.27c.12-.43.33-.83.57-.9.89-.28,2.65,1,3.84,3.35a10.9,10.9,0,0,1,1,7.39C20,14.18,18.6,10,14.93,8.27Z"/><path class="cls-9" d="M20.34,18.11l0,.13-1,.05s.23-4.06-1.5-6.41-3-2.35-3-2.75a2.78,2.78,0,0,1,.12-.86C18.6,10,20,14.18,20.34,18.11Z"/><path class="cls-9" d="M26.05,5.26l.27,0S27.53,10.62,21,11a4.56,4.56,0,0,1,0-.62C23.39,9.92,25.35,7.64,26.05,5.26Z"/><path class="cls-7" d="M26.05,5.26c-.7,2.38-2.66,4.66-5.07,5.11C21,9,21.59,5.7,26.05,5.26Z"/><path class="cls-9" d="M6,28.27c0-6.11,1.82-8.75,4.06-9.93-1.12,6.9.4,17.55,8.12,17,5,.44,5.28,3.87,7.64,5.08a4.77,4.77,0,0,1-1.57.43c-1.8.1-2.79-1.16-3.87-1.25-2-.18-2.87,1.63-5.76,1.28C13,40.69,6,36.87,6,28.27Z"/><path class="cls-10" d="M25.15,20.22c2.19-1.68,6.9,3.16,6.47,6.74S22.57,22.19,25.15,20.22Z"/></g></g></svg>