<svg xmlns="http://www.w3.org/2000/svg" xmlns:xlink="http://www.w3.org/1999/xlink" viewBox="0 0 142.55 55.98"><defs><style>.cls-1{fill:none;}.cls-2{isolation:isolate;}.cls-3{clip-path:url(#clip-path);}.cls-4{fill:#a1132d;opacity:0.29;mix-blend-mode:multiply;}.cls-11,.cls-5{fill:#ff76ae;}.cls-6{font-size:11px;font-family:Montserrat-SemiBold, Montserrat;font-weight:600;}.cls-12,.cls-6{fill:#333;}.cls-7{letter-spacing:-0.01em;}.cls-8{letter-spacing:0em;}.cls-9{letter-spacing:-0.01em;}.cls-10{letter-spacing:-0.03em;}.cls-11{stroke:#333;stroke-miterlimit:10;}</style><clipPath id="clip-path"><rect class="cls-1" x="-1916.31" y="-1217.61" width="588.51" height="548.5"/></clipPath></defs><title>Prancheta 184</title><g class="cls-2"><g id="Camada_1" data-name="Camada 1"><g class="cls-3"><polygon class="cls-4" points="-1917.19 -923.49 -2756.81 -125.75 -239.19 104.96 -1343.79 -923.49 -1313.81 -923.49 125.02 190.44 -3356.02 190.44 -1917.19 -923.49"/></g><rect class="cls-5" width="142.55" height="55.98"/><text class="cls-6" transform="translate(85.34 19.38)">N<tspan class="cls-7" x="8.91" y="0">Ã</tspan><tspan x="17.04" y="0">O</tspan><tspan class="cls-8" x="-14.46" y="12">C</tspan><tspan x="-6.52" y="12">UM</tspan><tspan class="cls-9" x="12.66" y="12">P</tspan><tspan x="20.54" y="12">RIU</tspan><tspan x="-8.66" y="24">A ME</tspan><tspan class="cls-10" x="20.49" y="24">T</tspan><tspan x="26.72" y="24">A</tspan></text><path class="cls-11" d="M52.53,28A16.72,16.72,0,1,1,35.81,11.28,16.73,16.73,0,0,1,52.53,28Z"/><path class="cls-1" d="M35.81,45.35A17.36,17.36,0,1,1,53.17,28,17.38,17.38,0,0,1,35.81,45.35Zm0-33.43A16.08,16.08,0,1,0,51.89,28,16.09,16.09,0,0,0,35.81,11.92Z"/><path class="cls-12" d="M40.49,37c-.13-5.53-4.69-5.53-4.69-5.53s-4.55,0-4.68,5.53Z"/><path class="cls-12" d="M40.49,37.51H31.12a.48.48,0,0,1-.36-.15.51.51,0,0,1-.15-.37c.13-6,5.14-6,5.19-6s5.07.07,5.2,6a.51.51,0,0,1-.15.37A.49.49,0,0,1,40.49,37.51Zm-8.83-1H40C39.58,32.07,36,32,35.8,32S32,32.07,31.66,36.49Z"/><path class="cls-12" d="M33.15,26.9a.63.63,0,0,1-.6-.41c-1.27-3.27-4.62-2.22-4.76-2.17a.64.64,0,0,1-.81-.41.65.65,0,0,1,.41-.81A4.93,4.93,0,0,1,33.74,26a.64.64,0,0,1-.36.83A.66.66,0,0,1,33.15,26.9Z"/><path class="cls-12" d="M32.79,26.62c0,1.31-.48,2.37-1.08,2.37s-1.09-1.06-1.09-2.37.49-2.36,1.09-2.36S32.79,25.32,32.79,26.62Z"/><path class="cls-12" d="M38.75,26.9a.59.59,0,0,1-.23,0,.64.64,0,0,1-.37-.83,4.93,4.93,0,0,1,6.36-2.93.65.65,0,0,1,.4.81.64.64,0,0,1-.81.41c-.15-.05-3.49-1.1-4.75,2.17A.63.63,0,0,1,38.75,26.9Z"/><path class="cls-12" d="M39.36,26.62c0,1.31.48,2.37,1.08,2.37s1.09-1.06,1.09-2.37-.49-2.36-1.09-2.36S39.36,25.32,39.36,26.62Z"/></g></g></svg>