<svg xmlns="http://www.w3.org/2000/svg" xmlns:xlink="http://www.w3.org/1999/xlink" viewBox="0 0 155.89 250.49"><defs><style>.cls-1{isolation:isolate;}.cls-2{fill:#4c0e45;opacity:0.1;mix-blend-mode:multiply;}.cls-3{fill:#006070;}.cls-4{fill:#003370;}.cls-5{fill:#000d36;}.cls-6{fill:url(#åçûìßííûé_ãðàäèåíò_22);}.cls-7{fill:url(#åçûìßííûé_ãðàäèåíò_22-2);}.cls-8{fill:url(#åçûìßííûé_ãðàäèåíò_30);}.cls-9{fill:#460030;}.cls-10{fill:url(#åçûìßííûé_ãðàäèåíò_8);}.cls-11{fill:#910000;}.cls-12,.cls-31{fill:#930000;}.cls-13{fill:#e1784e;}.cls-14{fill:#c4552d;}.cls-15{fill:url(#åçûìßííûé_ãðàäèåíò_30-2);}.cls-16,.cls-20{fill:#fff;}.cls-17{fill:url(#åçûìßííûé_ãðàäèåíò_3);}.cls-18,.cls-22{fill:#590800;}.cls-19{fill:url(#åçûìßííûé_ãðàäèåíò_3-2);}.cls-20,.cls-31,.cls-50,.cls-55,.cls-58{opacity:0.5;}.cls-21{fill:url(#åçûìßííûé_ãðàäèåíò_3-3);}.cls-22{opacity:0.59;}.cls-23{fill:#c13c32;opacity:0.3;}.cls-24{fill:#6df2bf;}.cls-25{fill:#57d19c;}.cls-26{fill:url(#åçûìßííûé_ãðàäèåíò_99);}.cls-27{fill:url(#åçûìßííûé_ãðàäèåíò_99-2);}.cls-28{fill:#a00000;}.cls-29{fill:url(#åçûìßííûé_ãðàäèåíò_99-3);}.cls-30{fill:#e71400;}.cls-32{fill:url(#åçûìßííûé_ãðàäèåíò_30-3);}.cls-33{fill:#550547;}.cls-34{fill:#ffbf10;}.cls-35{fill:#ffa110;}.cls-36{fill:url(#åçûìßííûé_ãðàäèåíò_22-3);}.cls-37{fill:url(#åçûìßííûé_ãðàäèåíò_22-4);}.cls-38{fill:#003363;}.cls-39{fill:url(#åçûìßííûé_ãðàäèåíò_30-4);}.cls-40,.cls-50{fill:#94001f;}.cls-41{fill:#b8aaff;}.cls-42{fill:url(#åçûìßííûé_ãðàäèåíò_30-5);}.cls-43{fill:url(#åçûìßííûé_ãðàäèåíò_3-4);}.cls-44{fill:url(#åçûìßííûé_ãðàäèåíò_3-5);}.cls-45{fill:url(#åçûìßííûé_ãðàäèåíò_99-4);}.cls-46{fill:url(#åçûìßííûé_ãðàäèåíò_99-5);}.cls-47{fill:#dbccff;}.cls-48{fill:url(#åçûìßííûé_ãðàäèåíò_52);}.cls-49{fill:url(#åçûìßííûé_ãðàäèåíò_11);}.cls-51{fill:#00427f;}.cls-52{fill:url(#åçûìßííûé_ãðàäèåíò_99-6);}.cls-53{fill:url(#åçûìßííûé_ãðàäèåíò_99-7);}.cls-54,.cls-55{fill:#0077a6;}.cls-56{fill:url(#åçûìßííûé_ãðàäèåíò_99-8);}.cls-57{fill:url(#åçûìßííûé_ãðàäèåíò_30-6);}.cls-58{fill:#00274a;}</style><linearGradient id="åçûìßííûé_ãðàäèåíò_22" x1="8130.06" y1="232.42" x2="8144.17" y2="232.42" gradientTransform="matrix(-1, 0, 0, 1, 8175.52, 0)" gradientUnits="userSpaceOnUse"><stop offset="0" stop-color="#ddf8fd"/><stop offset="1" stop-color="#8290c5"/></linearGradient><linearGradient id="åçûìßííûé_ãðàäèåíò_22-2" x1="8084.83" y1="232.31" x2="8110.84" y2="232.31" xlink:href="#åçûìßííûé_ãðàäèåíò_22"/><linearGradient id="åçûìßííûé_ãðàäèåíò_30" x1="8102.35" y1="145.9" x2="8101.39" y2="138.92" gradientTransform="matrix(-1, 0, 0, 1, 8175.52, 0)" gradientUnits="userSpaceOnUse"><stop offset="0" stop-color="#fdc38b"/><stop offset="1" stop-color="#fda37d"/></linearGradient><linearGradient id="åçûìßííûé_ãðàäèåíò_8" x1="8126.48" y1="223.95" x2="8126.48" y2="124.25" gradientTransform="matrix(-1, 0, 0, 1, 8175.52, 0)" gradientUnits="userSpaceOnUse"><stop offset="0" stop-color="#754a86"/><stop offset="1" stop-color="#3e0033"/></linearGradient><linearGradient id="åçûìßííûé_ãðàäèåíò_30-2" x1="8125.1" y1="56.54" x2="8120.22" y2="20.86" xlink:href="#åçûìßííûé_ãðàäèåíò_30"/><linearGradient id="åçûìßííûé_ãðàäèåíò_3" x1="8672.95" y1="389.09" x2="8676.63" y2="389.09" gradientTransform="matrix(0, -1, -1, 0, 439.87, 8711.46)" gradientUnits="userSpaceOnUse"><stop offset="0" stop-color="#a43113"/><stop offset="1" stop-color="#6f160d"/></linearGradient><linearGradient id="åçûìßííûé_ãðàäèåíò_3-2" x1="8111.76" y1="38.57" x2="8115.1" y2="38.57" gradientTransform="matrix(-1, 0, 0, 1, 8175.52, 0)" xlink:href="#åçûìßííûé_ãðàäèåíò_3"/><linearGradient id="åçûìßííûé_ãðàäèåíò_3-3" x1="8101.92" y1="26.04" x2="8138.54" y2="26.04" gradientTransform="matrix(-1, 0, 0, 1, 8175.52, 0)" xlink:href="#åçûìßííûé_ãðàäèåíò_3"/><linearGradient id="åçûìßííûé_ãðàäèåíò_99" x1="8100.57" y1="79.81" x2="8113.56" y2="79.81" gradientTransform="matrix(-1, 0, 0, 1, 8175.52, 0)" gradientUnits="userSpaceOnUse"><stop offset="0" stop-color="#ca0000"/><stop offset="1" stop-color="#a80009"/></linearGradient><linearGradient id="åçûìßííûé_ãðàäèåíò_99-2" x1="8129.06" y1="87.76" x2="8141" y2="87.76" xlink:href="#åçûìßííûé_ãðàäèåíò_99"/><linearGradient id="åçûìßííûé_ãðàäèåíò_99-3" x1="8134" y1="93.89" x2="8152.03" y2="93.89" xlink:href="#åçûìßííûé_ãðàäèåíò_99"/><linearGradient id="åçûìßííûé_ãðàäèåíò_30-3" x1="8130.6" y1="134.95" x2="8129.5" y2="126.89" xlink:href="#åçûìßííûé_ãðàäèåíò_30"/><linearGradient id="åçûìßííûé_ãðàäèåíò_22-3" x1="90.03" y1="230.46" x2="104.21" y2="230.46" gradientTransform="matrix(1, 0, 0, 1, 0, 0)" xlink:href="#åçûìßííûé_ãðàäèåíò_22"/><linearGradient id="åçûìßííûé_ãðàäèåíò_22-4" x1="111.27" y1="231.55" x2="131.6" y2="231.55" gradientTransform="matrix(1, 0, 0, 1, 0, 0)" xlink:href="#åçûìßííûé_ãðàäèåíò_22"/><linearGradient id="åçûìßííûé_ãðàäèåíò_30-4" x1="129.87" y1="154.34" x2="124.12" y2="112.35" gradientTransform="matrix(1, 0, 0, 1, 0, 0)" xlink:href="#åçûìßííûé_ãðàäèåíò_30"/><linearGradient id="åçûìßííûé_ãðàäèåíò_30-5" x1="110.53" y1="79.5" x2="105.96" y2="46.12" gradientTransform="matrix(1, 0, 0, 1, 0, 0)" xlink:href="#åçûìßííûé_ãðàäèåíò_30"/><linearGradient id="åçûìßííûé_ãðàäèåíò_3-4" x1="101.11" y1="63.61" x2="105.63" y2="63.61" gradientTransform="matrix(1, 0, 0, 1, 0, 0)" xlink:href="#åçûìßííûé_ãðàäèåíò_3"/><linearGradient id="åçûìßííûé_ãðàäèåíò_3-5" x1="115.13" y1="65.61" x2="118.77" y2="65.61" gradientTransform="matrix(1, 0, 0, 1, 0, 0)" xlink:href="#åçûìßííûé_ãðàäèåíò_3"/><linearGradient id="åçûìßííûé_ãðàäèåíò_99-4" x1="102.89" y1="72.52" x2="114.61" y2="72.52" gradientTransform="matrix(1, 0, 0, 1, 0, 0)" xlink:href="#åçûìßííûé_ãðàäèåíò_99"/><linearGradient id="åçûìßííûé_ãðàäèåíò_99-5" x1="102.89" y1="73.96" x2="113.41" y2="73.96" gradientTransform="matrix(1, 0, 0, 1, 0, 0)" xlink:href="#åçûìßííûé_ãðàäèåíò_99"/><linearGradient id="åçûìßííûé_ãðàäèåíò_52" x1="124.03" y1="93.47" x2="132.91" y2="93.47" gradientUnits="userSpaceOnUse"><stop offset="0" stop-color="#ff7045"/><stop offset="1" stop-color="#bd3e39"/></linearGradient><linearGradient id="åçûìßííûé_ãðàäèåíò_11" x1="77.25" y1="70.87" x2="132.57" y2="70.87" gradientUnits="userSpaceOnUse"><stop offset="0" stop-color="#bd3e39"/><stop offset="1" stop-color="#ff7045"/></linearGradient><linearGradient id="åçûìßííûé_ãðàäèåíò_99-6" x1="90.03" y1="228.39" x2="104.21" y2="228.39" gradientTransform="matrix(1, 0, 0, 1, 0, 0)" xlink:href="#åçûìßííûé_ãðàäèåíò_99"/><linearGradient id="åçûìßííûé_ãðàäèåíò_99-7" x1="111.27" y1="227.86" x2="131.6" y2="227.86" gradientTransform="matrix(1, 0, 0, 1, 0, 0)" xlink:href="#åçûìßííûé_ãðàäèåíò_99"/><linearGradient id="åçûìßííûé_ãðàäèåíò_99-8" x1="89.77" y1="108.85" x2="113.65" y2="108.85" gradientTransform="matrix(1, 0, 0, 1, 0, 0)" xlink:href="#åçûìßííûé_ãðàäèåíò_99"/><linearGradient id="åçûìßííûé_ãðàäèåíò_30-6" x1="97.44" y1="118.83" x2="95.32" y2="103.39" gradientTransform="matrix(1, 0, 0, 1, 0, 0)" xlink:href="#åçûìßííûé_ãðàäèåíò_30"/></defs><title>Prancheta 181</title><g class="cls-1"><g id="Camada_1" data-name="Camada 1"><ellipse class="cls-2" cx="80.22" cy="230.23" rx="59.51" ry="13.04"/><path class="cls-3" d="M85.72,144.75H88a95.48,95.48,0,0,0,2.36-13.28c.75-7.26,1.2-12.48,1.2-12.48l-1.2-.8Z"/><path class="cls-4" d="M68.45,143.93s5.64.55,10,.5a58.4,58.4,0,0,1,7.27.32A112.69,112.69,0,0,0,89,130.21c1.51-9.07,1.41-12,1.41-12a68.41,68.41,0,0,1-8.87.6c-5.31,0-15.17.75-15.17.75Z"/><path class="cls-5" d="M83.06,118.76a66.84,66.84,0,0,0-6.61,12.32,32.25,32.25,0,0,0-1.87,11.12l-6.4.83-2.29-7.3,4.4-10.36,7-6.46Z"/><path class="cls-6" d="M45.45,232.57v2.25s-5.3,1.71-9.46.41c-3.47-1.09-4.65-6.1-4.65-6.1Z"/><path class="cls-7" d="M90.69,231.14V233s-3.08,1.24-10.14,1.12a140.42,140.42,0,0,1-15.87-1.46l0-2.07Z"/><path class="cls-8" d="M78.45,144.43s-2,.27-2.5-.58-.32-4.25-1-4.75-1,1.18-1,1.18-.5-1.49-1-1.49-1,1.49-1,1.49-.47-1-.94-1-1.07,3.36-1.07,3.36-.35-1.94-.82-2.2-.76,3.69-.47,4.44,1.42.24,1.42.24a1.43,1.43,0,0,0,1,.45,1.26,1.26,0,0,0,1-.63,1.06,1.06,0,0,0,.9.48,2.63,2.63,0,0,0,1-.66,2.13,2.13,0,0,0,1.58.51A8.15,8.15,0,0,0,78.45,144.43Z"/><path class="cls-9" d="M52.57,151.89s4.65,13.22,5.33,21.18-.63,13.38.57,21.89,5.91,18.53,6.21,20.93-2,4.71-1.3,6.31S64.71,224,64.71,224s5,.06,7.19-.84,3.1-1.51,2.5-2.21-3-1.4-1.9-3,.9-1-.3-2.31-2.36-26.29-1.91-43.12-1.64-37.14-1.64-37.14-14.53,9-14.78,10.7S52.57,151.89,52.57,151.89Z"/><path class="cls-10" d="M29.43,219.8c.2.8,1.8.9,1.6,2.1a3.48,3.48,0,0,0,.2,2s2.51.11,5.41,0a9.2,9.2,0,0,0,2.13-.29s0,0,0,0c1.4-.37,2-1.06,1.87-1.7-.21-.9-1.2-1.4-.3-2.4s-.21-2.81-.1-4.71,6.61-26.44,9.51-39.26,5.81-23.64,7.61-27.85,10.44-9.2,10.8-9.41h0l.47-2.94L48,124.25H42a16.09,16.09,0,0,1-1.24,4.61,10.54,10.54,0,0,1-1,1.89c-1.95,2.91-1.45,7.12-1.35,8s.55,29.95-.2,33.55-4.4,13.63-4.31,20.14-.6,16.93-.9,19.83S29.23,219,29.43,219.8Z"/><path class="cls-11" d="M68.45,61.26s3,2.66,3.25,4.78,2.4,33.17,2.4,33.17-4.31-15-5.81-19.64S68.45,61.26,68.45,61.26Z"/><path class="cls-12" d="M57.9,57c-1.73-1.54-11.79-4.32-14.08-4.7l-5.28-.85-4,.55A13.45,13.45,0,0,1,33.93,56c-.6,1.42-2.4,3.32-2.77,5.22A14.65,14.65,0,0,0,31.41,66l25.53-1,4-2.7Z"/><path class="cls-12" d="M70,130.11l3.35-.86.5-3.5s3.71-4,4-11.57c.27-6.91-1.11-8.21-3.16-14.15s-7.16-16.85-7.16-16.85l-3.31,19.53Z"/><path class="cls-13" d="M43,57.91s1.8,2.45,7.46,3.23a12.32,12.32,0,0,0,7.71-1.4,15.81,15.81,0,0,1-2.09-1h0a5.25,5.25,0,0,1-1.53-1.21c-.17-.22-.29-.4-.4-.56h0c-.45-.69-.45-.88-.45-.88l-4.35-2.91-3.54-2.37a19.9,19.9,0,0,1,.33,4.37c-.11.74-1.31,1.63-2.33,2.25Z"/><path class="cls-14" d="M43.82,57.43a20.08,20.08,0,0,0,7,1.61,28.58,28.58,0,0,0,5.3-.29,5.25,5.25,0,0,1-1.53-1.21c-.17-.22-.29-.4-.4-.56h0l-4.8-3.79-3.54-2.37a19.9,19.9,0,0,1,.33,4.37C46,55.92,44.84,56.81,43.82,57.43Z"/><path class="cls-15" d="M40.7,36.28s.3,5.86,2.1,9.43a62.29,62.29,0,0,0,6.56,10c1,1,4.94,1.64,6.75,1.1,1.24-.38,8.58-7.14,9.12-9.32s-.16-5.2-.22-8.09c0-2.07,1.2-5.8,1.76-8.08h0A6.13,6.13,0,0,0,67,29.64a.54.54,0,0,0,0-.2c-.44-.9-5.12-8.79-16.49-9.09a12,12,0,0,0-3.48.36C39.34,22.67,40.19,32.29,40.7,36.28Z"/><path class="cls-13" d="M40.7,36.28s.3,5.86,2.1,9.43a62.29,62.29,0,0,0,6.56,10c1,1,4.94,1.64,6.75,1.1,0,0-5.58-.45-6.9-2.81S44.55,45,44.35,38.9c-.12-3.57,1-11.11,5.95-11.61s16.47,4,16.47,4h0L67.41,30l-.39-.4-3.79-4L47,20.71C39.34,22.67,40.19,32.29,40.7,36.28Z"/><path class="cls-16" d="M60.09,40.7c-.14.87,3.44,2,4.69.71.64-2.34-.12-4.94-1.55-5.54S60.33,39.22,60.09,40.7Z"/><path class="cls-16" d="M47.68,37.52a3.09,3.09,0,0,0,1.92,2.55c1.44.77,4.33.28,4.32-.74,0-.81-.34-5.15-2.59-5.79S47.67,37.14,47.68,37.52Z"/><ellipse class="cls-17" cx="50.49" cy="36.6" rx="3.43" ry="1.84" transform="translate(9.9 83.94) rotate(-85.33)"/><path class="cls-18" d="M49.07,36.18c-.11,1.26.36,2.33,1,2.39s1.32-.93,1.42-2.19-.36-2.34-1-2.4S49.17,34.91,49.07,36.18Z"/><path class="cls-18" d="M53.92,39.33s.07-6.58-2.74-6.66-3.5,4.85-3.5,4.85,1.73-4.37,3.53-3.61S53.92,39.33,53.92,39.33Z"/><path class="cls-19" d="M60.42,39.2q0,.18.06.33c.23,1.11.85,1.9,1.59,1.9.93,0,1.69-1.28,1.69-2.86a4,4,0,0,0-.52-2.06,1.48,1.48,0,0,0-1.14-.79A8.2,8.2,0,0,0,60.42,39.2Z"/><path class="cls-18" d="M60.9,38.57c0,1.09.52,2,1.17,2s1.16-.88,1.16-2-.52-2-1.16-2S60.9,37.48,60.9,38.57Z"/><path class="cls-18" d="M60.09,40.7c0-.16.17-.61.39-1.17.11-.3.26-.64.42-1a4.29,4.29,0,0,1,1.51-1.87,1.51,1.51,0,0,1,.71-.19h.12c2.21.15,1.58,4.56,1.54,4.9.09-.34,1.55-5.53-1.28-6.14a1.49,1.49,0,0,0-1.4.45,8.2,8.2,0,0,0-1.68,3.48C60.23,39.92,60.12,40.51,60.09,40.7Z"/><path class="cls-18" d="M58.2,49.92a17.26,17.26,0,0,1-4.63-2.31c-2-1.45-4.36-3.64-4.36-3.64s2.11,6.05,3.72,6.68S58.2,49.92,58.2,49.92Z"/><circle class="cls-16" cx="51.76" cy="37.41" r="0.96"/><circle class="cls-16" cx="63.76" cy="39.33" r="0.96"/><path class="cls-13" d="M53.49,43.74a7.14,7.14,0,0,0,2.65,1.63,10.88,10.88,0,0,0,2.78.59,6.83,6.83,0,0,1-2.37,1c-.81,0-2.12-1.83-2.12-1.83a.63.63,0,0,1-.88,0C53,44.74,53.49,43.74,53.49,43.74Z"/><path class="cls-20" d="M60.2,38.83c-.45,2.77.68,5.25,2.52,5.55s3.71-1.7,4.16-4.46-.68-5.25-2.53-5.55S60.65,36.07,60.2,38.83Z"/><path class="cls-18" d="M59.78,38.76c-.5,3.12.77,5.91,2.84,6.25s4.17-1.91,4.68-5-.77-5.91-2.84-6.25S60.29,35.65,59.78,38.76Zm.42.07c.45-2.76,2.31-4.76,4.15-4.46s3,2.78,2.53,5.55-2.31,4.76-4.16,4.46S59.75,41.6,60.2,38.83Z"/><path class="cls-20" d="M47,36.94c-.31,3,1.31,5.69,3.61,5.92s4.41-2,4.71-5.08-1.3-5.69-3.6-5.92S47.31,33.9,47,36.94Z"/><path class="cls-18" d="M46.48,36.89c-.35,3.42,1.47,6.4,4.06,6.67s5-2.3,5.31-5.72-1.47-6.41-4.06-6.67S46.83,33.47,46.48,36.89Zm.52,0c.31-3,2.42-5.31,4.72-5.08s3.91,2.88,3.6,5.92-2.42,5.32-4.71,5.08S46.69,40,47,36.94Z"/><polygon class="cls-18" points="60.1 38.21 55.67 37.23 55.52 38.01 59.98 38.57 60.1 38.21"/><polygon class="cls-18" points="47.17 34.34 39.12 35.48 39.64 36 46.97 35.43 47.17 34.34"/><path class="cls-16" d="M56.94,49.71a8.76,8.76,0,0,1-2.86-.16c-1.38-.35-4.28-4.89-4.28-4.89A23.49,23.49,0,0,0,56.94,49.71Z"/><path class="cls-18" d="M54.89,29.14l.47-3.38-1,1.35V25.46a16.34,16.34,0,0,0-5.52,1.32,6.89,6.89,0,0,0-3.61,3.45L46,31.3a12.92,12.92,0,0,1,3.76-1.86A11.81,11.81,0,0,1,54.89,29.14Z"/><path class="cls-18" d="M66.49,34.1a12.12,12.12,0,0,0-2.73-3,18.89,18.89,0,0,0-2-1.36l.34-2.95.34,1.54.23-1.44a8.89,8.89,0,0,1,2.58,2.45A8.16,8.16,0,0,1,67,33Z"/><path class="cls-13" d="M41.86,38.37s-4.92-7-7.1-6.75.26,11,3.55,12,4.83-.28,4.83-.28Z"/><path class="cls-21" d="M37,24.91c0,.51,0,1,.05,1.53a19.2,19.2,0,0,0,.21,1.94c0,.32.1.61.15.9.08.51.16,1,.24,1.37.58,3.34.76,3.45.76,3.45s1.06,1.7,2,3.46c.77,1.44,1.44,2.78,1.44,2.78l.53.11a57.92,57.92,0,0,1,0-9.3,14.71,14.71,0,0,1,.47-2.75c.11-.42.24-.81.38-1.19a14,14,0,0,1,1.55-3.07,9,9,0,0,1,.9-1.16A86.41,86.41,0,0,1,60.1,26.84a27.27,27.27,0,0,1,10.79,7.5l-3-5.64-1.71-3.24,7.41,5.69a31,31,0,0,0-5.89-10.53c-.46-.53-.95-1.07-1.47-1.59a25.77,25.77,0,0,0-5.34-4.16l-.55-.31a23,23,0,0,0-3.18-1.44,25.7,25.7,0,0,0-10.25-1.45,22,22,0,0,0-7.46,1.57,1.6,1.6,0,0,0-.34.2,3.18,3.18,0,0,0-.76,1.39A34.27,34.27,0,0,0,37,24.91Z"/><path class="cls-14" d="M40.38,41.43a21.84,21.84,0,0,0-2.61-5A11.7,11.7,0,0,0,35,33.31a35.79,35.79,0,0,1,2.69,4.59A8.56,8.56,0,0,0,40.38,41.43Z"/><path class="cls-14" d="M38.54,38.16s-.47,1.41-1.32,1.37-1.67-1.37-1.67-1.37.76,1.84,2.13,2,1.25-.87,1.25-.87Z"/><path class="cls-22" d="M45.67,23a72.93,72.93,0,0,1,10.65-2.27,63.13,63.13,0,0,1,11.39-.09c-.46-.53-.95-1.07-1.47-1.59a53.49,53.49,0,0,0-10.13.7A53.93,53.93,0,0,0,45.67,23Z"/><path class="cls-22" d="M45.67,23c.29-.29,5-4.9,9.85-6.8a39.84,39.84,0,0,1,4.83-1.61,23,23,0,0,0-3.18-1.44,33.71,33.71,0,0,0-4.45,2.8A54,54,0,0,0,45.67,23Z"/><path class="cls-22" d="M38.36,14.83c.42.74,1.07,1.82,2,3.35a14.12,14.12,0,0,0,5.19,4.76,11.72,11.72,0,0,1-4.32-4.81,27,27,0,0,1-1.79-4.89,1.6,1.6,0,0,0-.34.2A3.18,3.18,0,0,0,38.36,14.83Z"/><path class="cls-22" d="M37,24.91c0,.51,0,1,.05,1.53a8,8,0,0,1,2.09-1,43,43,0,0,1,5.63-1.32,19.8,19.8,0,0,0-6.21.24A13.22,13.22,0,0,0,37,24.91Z"/><path class="cls-22" d="M37.39,29.28c.08.51.16,1,.24,1.37a15.66,15.66,0,0,1,2.52-1.4,8.23,8.23,0,0,1,2.67-.85c.11-.42.24-.81.38-1.19a22.84,22.84,0,0,0-4.08,1.17A11.22,11.22,0,0,0,37.39,29.28Z"/><path class="cls-23" d="M46.92,11.67a13.55,13.55,0,0,0,3.57,8.68c3.64,4,14.36,7.44,17.41,8.35l-1.71-3.24,7.41,5.69a31,31,0,0,0-5.89-10.53c-.46-.53-.95-1.07-1.47-1.59a25.77,25.77,0,0,0-5.34-4.16l-.55-.31a23,23,0,0,0-3.18-1.44A25.7,25.7,0,0,0,46.92,11.67Z"/><path class="cls-24" d="M38.24,123.65c-.3,1,9.22.75,13,3.53s6.38,8.56,8.56,8.94,10.44-1.06,10.44-1.06-.22-2.25-.37-5.56S68.64,114.63,68,108s.53-18.48.53-24.79a99.67,99.67,0,0,0-.78-10h0c-.68-5.85-1.55-11.52-1.55-11.52l-5.52-1.57h0l-4-1.13s-.33,1-4.24,1-9-2.38-9-2.38l-6,.68s2.1,30.85,2.94,38.46S38.54,122.64,38.24,123.65Z"/><path class="cls-25" d="M38.24,123.65c-.3,1,9.22.75,13,3.53s6.38,8.56,8.56,8.94,10.44-1.06,10.44-1.06-.22-2.25-.37-5.56S68.64,114.63,68,108s.53-18.48.53-24.79a99.67,99.67,0,0,0-.78-10h0l-.3-6.34-1.25-5.18-5.52-1.57-4-1.13s-.33,1-4.24,1-9-2.38-9-2.38l-6,.68s2.1,30.85,2.94,38.46S38.54,122.64,38.24,123.65Zm5.68-1.21s5.49-1,8.27,0,6.16,5,6.16,5a15.15,15.15,0,0,0-6.84-6.91,10.71,10.71,0,0,1-6.27-10.45c.19-3.6,5.22-8.41,5.25-8.86S49.24,97.82,48.88,95c-.88-6.91-.68-14.7,1.73-18.1,1.75-2.46,6.49-2.77,12.31-3.27a14.82,14.82,0,0,1,.51,2.72c.5,6.14,2.36,37.66,4.69,46.07s-.23,11.12-1.88,11.57-6.16-.15-10.42-4.73S43.92,122.44,43.92,122.44Z"/><path class="cls-26" d="M75,100.66S65.46,81.19,64.71,77.37s-1.57-16.75-2.16-17.58L62,59s5.7,1.59,6.49,2.29.42,16.19,2.22,23.1S74.65,99.38,75,100.66Z"/><path class="cls-27" d="M38.54,82.08c.09,2.57,0,5.29-.16,8-.19,3-.48,5.95-.79,8.8-.06.58-.12,1.16-.18,1.72s-.11,1-.16,1.5-.14,1.26-.2,1.87h0q-.16,1.64-.3,3.12c-.41,4.35-.52,7.72.24,9.14a10.43,10.43,0,0,0,3.61,3.91,8.4,8.4,0,0,0,1.82.9s1-8.11,2.34-15.32A120,120,0,0,0,45.67,72a42.68,42.68,0,0,0-.88-4.87,33.27,33.27,0,0,0-2.74-7.56,17,17,0,0,0-3.69-5.1s.15.8.24,1.61a3.31,3.31,0,0,1-.06,1.62c-.36.5-4.3,1.15-4,1.39s1.65,4.29,2.76,10.83A92.53,92.53,0,0,1,38.54,82.08Z"/><path class="cls-28" d="M42.41,121.09,42,124.25s-3.21-1.81-4.06-3.16-.91-4.81-.91-4.81S39.5,119.94,42.41,121.09Z"/><path class="cls-29" d="M23.49,98.1c.08,5.11,4.81,24.57,7.21,26.68s9,4,9,4l1.83-2.47a43.53,43.53,0,0,0-.93-6.09,23.8,23.8,0,0,0-1.78-5.26,22.49,22.49,0,0,1-2.07-7.79,27.14,27.14,0,0,1,1.64-17,9,9,0,0,0,.77-3c.73-3,.07-10.6-1.06-17.17-1-6.07-2.47-11.22-3.55-10.87C32.28,59.77,23.42,93,23.49,98.1Z"/><path class="cls-30" d="M73.3,129.25l.5-3.5s5.61-8.26,2.75-18.33-11.16-25.86-13-29.76S57.9,57,57.9,57L62,59s1-.35,2.38,7.69S66,80.86,69.84,89s7.18,14.13,8.42,21-3.76,15.51-4,15.81a22.16,22.16,0,0,0-.57,3.39Z"/><path class="cls-31" d="M23.49,98.1c.08,5.11,4.81,24.57,7.21,26.68s9,4,9,4v-.5s-5.56-5.31-7.19-7.16S26.12,101.31,26.22,98s5.21-25.94,7.22-27.54c.66-.54,2.16-.66,3.86-.58l.79,0a58.73,58.73,0,0,1,6.85,1l-.15-3.87-.19-5-2.55-2.59L38.61,56h0a3.31,3.31,0,0,1-.06,1.62c-.36.5-4.3,1.15-4,1.39C32.28,59.77,23.42,93,23.49,98.1Z"/><path class="cls-30" d="M34.52,52s7.33,4.86,10,17,.65,32.81-.08,37S42,124.25,42,124.25l1.08-.6s4-21.14,4.83-38.27S46,61,43.92,57a14.26,14.26,0,0,0-5-5.6Z"/><path class="cls-9" d="M29.43,219.8c.2.8,1.8.9,1.6,2.1a3.48,3.48,0,0,0,.2,2s2.51.11,5.41,0a9.2,9.2,0,0,0,2.13-.29,12.88,12.88,0,0,1-2-.05c-1.53-.17-4.41-1.81-3.35-2.51s5.5-1.65,5.5-1.65-6.76.45-7-.35,1.05-2.1,1.8-3.2,2-15.43,1.81-19.94,1.95-18.33,3.15-18.93,1.66,5.71,2.78,4.36,1.73-29.6,6.48-34.26,19.7-8.68,20.17-8.81h0l-.69-1.21L57,136.18l-13.7-9.9-2.54,2.58a10.54,10.54,0,0,1-1,1.89c-1.95,2.91-1.45,7.12-1.35,8s.55,29.95-.2,33.55-4.4,13.63-4.31,20.14-.6,16.93-.9,19.83S29.23,219,29.43,219.8Z"/><path class="cls-32" d="M41.52,126.28a13.07,13.07,0,0,0,2.88,1.27c2.06.7,6.86,5.36,6.86,5.36s-4.5,1.1-5.86,1.23-4,.8-4.59,0-1.12-5.39-1.12-5.39Z"/><path class="cls-33" d="M44.94,126.28s-1,2.32-2.53,4.95-1.92,3.53-1.92,3.53,3.29,4.29,7.19,5.19,8.3,0,8.81-3.16-4.34-6.69-6.12-7.81A52.18,52.18,0,0,0,44.94,126.28Z"/><path class="cls-34" d="M64.73,230.55c.23.55,8.34.82,12,1.23.94.11,1.77.17,2.57.2h0c2.28.1,4.22-.06,7.17-.2,4-.19,4.21-.63,4.21-.63A11.76,11.76,0,0,0,86.07,229c-2.18-.26-9.13-2.85-10.14-3.86-1.77-1.77,2.93-5.57,2.18-6s-4.47-.48-5,0-.46,3.65-.86,3.81-7.22,1-7.22,1S64.51,230,64.73,230.55Z"/><path class="cls-34" d="M31.16,228c-.08,1.28,1.32,3.91,2.47,4.32a8.37,8.37,0,0,0,1.37.29h0a52.19,52.19,0,0,0,7.33.46c3,0,3.11-.5,3.11-.5a3.62,3.62,0,0,0-2-2.48,9.78,9.78,0,0,1-2.82-3.66C40.24,225.62,40,225,40,225c0-1.3,2.41-3.76,1.71-4.41s-5.16-.55-6.06.3,0,3,0,3H31.53S31.23,226.71,31.16,228Z"/><path class="cls-13" d="M75.44,145.3s-.83-.09-1.2-1.6a13.46,13.46,0,0,1-.38-2.93,11.19,11.19,0,0,0,0,2.71C74.05,144.8,74,145.24,75.44,145.3Z"/><path class="cls-13" d="M72.94,145.46s-.73-.2-.9-1.44a25.06,25.06,0,0,1-.13-3.12,15.08,15.08,0,0,0-.06,3.55A1.18,1.18,0,0,0,72.94,145.46Z"/><path class="cls-13" d="M70.89,145.61s-.43-.28-.6-1.52a17,17,0,0,1,.08-3.32,9.82,9.82,0,0,0-.49,3.1c.1,1.32.19,1.29.19,1.29A1.24,1.24,0,0,0,70.89,145.61Z"/><path class="cls-35" d="M64.73,230.55c.23.55,8.34.82,12,1.23.94.11,1.77.17,2.57.2-1.26-.24-9.25-1.44-7.79-4.42,1.24-2.55,4.43-2.42,4.43-2.42-1.77-1.77,2.93-5.57,2.18-6s-4.47-.48-5,0-.46,3.65-.86,3.81-7.22,1-7.22,1S64.51,230,64.73,230.55Z"/><path class="cls-35" d="M31.16,228c-.08,1.28,1.32,3.91,2.47,4.32a8.37,8.37,0,0,0,1.37.29,3.8,3.8,0,0,1-1-.3,3.92,3.92,0,0,1-1.81-2.78c-.06-.61.46-3.21,2.86-3.09s5.57,0,5.57,0C40.24,225.62,40,225,40,225c0-1.3,2.41-3.76,1.71-4.41s-5.16-.55-6.06.3,0,3,0,3H31.53S31.23,226.71,31.16,228Z"/><path class="cls-36" d="M104.21,231.92v1.92a23.84,23.84,0,0,1-7.7.26c-3.76-.6-6.28-5.45-6.28-5.45l-.2-2,5.27,3.9Z"/><path class="cls-37" d="M131.6,230.62v1.91a45.64,45.64,0,0,1-8.81.29c-5-.3-11.52-.18-11.52-.18v-2.07s6.49-.53,10.51-.34S131.6,230.62,131.6,230.62Z"/><polygon class="cls-13" points="111.72 226.66 112.02 224.46 116 224.05 117.13 226.66 111.72 226.66"/><polygon class="cls-13" points="90.23 225.21 90.38 224.51 94.02 223.7 94.34 224.86 93.69 227.51 91.89 227.66 90.23 225.21"/><path class="cls-38" d="M114.49,114.66a23.88,23.88,0,0,0,.12,2.48c.11.3,3.12,5.86,4.88,9.76s3.65,15.76,3.25,27.19a259,259,0,0,1-4.1,34.86c-2,11.52-2.31,32.51-2.31,33.23s.1,1.83.1,1.83l-4.91.5s-5.91-20.83-5.81-25.74,3-13.32,3.8-16.83-2.9-23.44-2.9-23.44,1.9-7.66,1.7-12.89-11.59-17.56-11.59-17.56l3.58-6.93.22-5.64Z"/><path class="cls-39" d="M135.56,150.32a6.49,6.49,0,0,1-1,2.58c-.56-.38.19-1.74.1-2.27a13.66,13.66,0,0,0-.93-2.09,15,15,0,0,1,.38,2.06,9.26,9.26,0,0,1-1.31,3.06.71.71,0,0,1-.6.06s-.5.53-.61.32.65-2.21.65-2.74a19.29,19.29,0,0,0-.9-2.85,7.36,7.36,0,0,1,.31,2.54c-.17.8-.93,3-1.19,2.72s.22-2.85-.15-4.28a16.6,16.6,0,0,0-2.14-3.86,2.86,2.86,0,0,0,0,.53,20.34,20.34,0,0,1,.37,2.45c0,1.07-.66,2.31-1,2s-.06-.84-.25-2.23-.85-3.23-.76-4.25a6.64,6.64,0,0,1,.55-1.67v0a3.69,3.69,0,0,0,.22-2c-.32-1.67-7.43-12.59-7.79-15.89a21,21,0,0,1,.43-5.29c.65-3.49,1.84-7,2.84-6.55.62.29,1.44,1.61,2.52,3.8.43.87.91,1.88,1.42,3,.21.47.44,1,.66,1.47,2.18,4.86,1.66,18.49,2,18.91a47.71,47.71,0,0,1,3.58,5.12C134.17,147.05,135.55,149.7,135.56,150.32Z"/><path class="cls-13" d="M127.11,142.38a3.69,3.69,0,0,0,.22-2c-.32-1.67-7.43-12.59-7.79-15.89a21,21,0,0,1,.43-5.29l5.36-2.75c.43.87.91,1.88,1.42,3a20.23,20.23,0,0,0-3.21,7.52c-.51,3.71,3.37,11.07,4,12.27S127.2,142.21,127.11,142.38Z"/><path class="cls-40" d="M80.44,111.76s.78-3.49-.62-6.09-1.34-2.11-2.1-3.81-.13-1.75.77-3.63S92.09,85.79,92.24,83s-.13-20.24-.07-21.11,6.63-11.94,8.08-12.59,25.89-1.25,26.94,3.35-3.3,13.37-2.35,16.91,4.21,7.08,3,9.89-2.78,3.85-3,6.38,4.44,9.68,5.69,11.49,1.75,1.71,1.22,3.84-4.73,8.43-5,10.79-.38,3.55-.38,3.55-7.53-1-11.31-1.45-3.61-4.45-19.74-4C90.23,110.2,80.44,111.76,80.44,111.76Z"/><path class="cls-13" d="M117.68,85.81s-4.39.91-7.39,1.58-12.39-.45-12.39-.45-6.31,12.7-7.14,15.4S89,109.52,89,109.52s-8.86,12-9.68,11.45.35-11.5,3-18.63S90,87.16,91.94,85.81s2.55-1,4-1.38c.61-.14,2-.58,3.35-1.08a32.71,32.71,0,0,0,4.37-1.77,12.54,12.54,0,0,0,.59-3.24l0-.61L107.93,79l1.8.62s.14,1.25.14,2c0,.14.33.41.86.75C112.76,83.56,117.68,85.81,117.68,85.81Z"/><path class="cls-14" d="M110.73,82.28a10.7,10.7,0,0,1-3.2.68c-2.43.28-8.19.39-8.19.39a32.71,32.71,0,0,0,4.37-1.77,12.54,12.54,0,0,0,.59-3.24l3.63.62,1.8.62s.14,1.25.14,2C109.87,81.67,110.2,81.94,110.73,82.28Z"/><path class="cls-41" d="M114.61,84.35s1.54.77,3.07,1.46a7.87,7.87,0,0,1,4,3.89c1.07,2.76,1.82,14.27,2.32,17.6a76,76,0,0,0,2,8.63,37.07,37.07,0,0,1-5,2.78l-2.18.91s-2.93-9.69-3.38-12.85S114.61,84.35,114.61,84.35Z"/><path class="cls-42" d="M120.55,73.34c-1.39,2.37-6.24,5.33-10.79,6.24h0a12.44,12.44,0,0,1-1.49.22c-3.35.31-9.29-4.58-11.32-8.26s-2.63-11.15-2.63-11.15,4.21-14.41,11-14.1S120.66,52.56,121,56.37s-.36,5.77-.48,9.34S122.1,70.71,120.55,73.34Z"/><path class="cls-13" d="M109.73,79.58a12.44,12.44,0,0,1-1.49.22c-3.35.31-9.29-4.58-11.32-8.26s-2.63-11.15-2.63-11.15,4.21-14.41,11-14.1S120.66,52.56,121,56.37a24.73,24.73,0,0,0-13.28-4.14c-7.6,0-9.48,6.23-9.25,10.82s1,7.94,3.9,11.38,4.88,4.62,5.75,4.95A3.41,3.41,0,0,0,109.73,79.58Z"/><path class="cls-16" d="M104.35,72.29a21,21,0,0,0,4.74,1.45,15.76,15.76,0,0,0,3.44.1s-1,2.15-2.45,2.19-4.58-2.11-4.63-2.16S104.35,72.29,104.35,72.29Z"/><path class="cls-16" d="M114.61,68.14s2.74-6.16,4.16-5.69S120,65.38,120,65.38s-.28,2.87-1.37,3.4S114.92,68.84,114.61,68.14Z"/><path class="cls-16" d="M107.53,67.26s-.73-5.3-3.21-6a5.74,5.74,0,0,0-4.57.86,5.62,5.62,0,0,0,1.36,4C102.63,67.54,107.39,67.45,107.53,67.26Z"/><path class="cls-43" d="M105.63,63.61a2.31,2.31,0,1,1-2.26-2.81A2.58,2.58,0,0,1,105.63,63.61Z"/><path class="cls-18" d="M105,63.27a1.64,1.64,0,1,1-1.61-2A1.84,1.84,0,0,1,105,63.27Z"/><path class="cls-44" d="M118,63.19a1.3,1.3,0,0,0-.72-.36,1,1,0,0,0-.3,0,6.73,6.73,0,0,0-.4.63,16.69,16.69,0,0,0-1,1.89c-.21.46-.38.91-.54,1.31h0l.09.38a1.76,1.76,0,0,0,1.29,1.36c1,.14,2-1,2.21-2.53A3.14,3.14,0,0,0,118,63.19Z"/><path class="cls-18" d="M118.24,65.47c-.15,1.08-.86,1.88-1.56,1.78a1.31,1.31,0,0,1-1-1.09,2.65,2.65,0,0,1-.06-.81,16.69,16.69,0,0,1,1-1.89.94.94,0,0,1,.64-.16,1.12,1.12,0,0,1,.42.18A2.16,2.16,0,0,1,118.24,65.47Z"/><path class="cls-18" d="M107.59,67.48s.12-5.26-2.83-6.63-4.81,0-5.61-.2a6.21,6.21,0,0,1-1.3-.56s.8,1.94,1.9,2,2.81-1.13,4.81-.29S107.59,67.48,107.59,67.48Z"/><path class="cls-18" d="M98.8,60.8s1-.48,3-1.26a9.58,9.58,0,0,1,3.58-.7,7.65,7.65,0,0,0-2.45.8c-1,.61-1.63,1-1.63,1Z"/><path class="cls-18" d="M122.44,63.63c-.21.21-2,1.85-2.54,1.75s.23-3.38-1.81-2.22l0,0a2.69,2.69,0,0,0-.36.29,15.38,15.38,0,0,0-2,2.68c-.18.32-.36.61-.51.88-.33.58-.56,1-.61,1.1,0-.11.23-.7.52-1.48h0c.16-.4.33-.85.54-1.31a16.69,16.69,0,0,1,1-1.89,6.73,6.73,0,0,1,.4-.63c.64-.93,1.34-1.57,2.06-1.43,1.24.22,1.09,2.44,1.54,2.74S122.26,63.73,122.44,63.63Z"/><path class="cls-18" d="M120.06,64a21.67,21.67,0,0,0,0-2.3,4.79,4.79,0,0,0-.28-1.56,10.32,10.32,0,0,1,.73,2.38,4.92,4.92,0,0,1-.15,2Z"/><path class="cls-18" d="M99.85,62.8A4.59,4.59,0,0,0,101,65.53a5.37,5.37,0,0,0,2.59,1.65A6.68,6.68,0,0,1,100.65,66C99.75,65.18,99.85,62.8,99.85,62.8Z"/><path class="cls-18" d="M115.7,68.8a14.33,14.33,0,0,0,2.55-.27c.8-.22,1.41-1.52,1.41-1.52a5.38,5.38,0,0,1-.83,2.07C118.3,69.59,115.7,68.8,115.7,68.8Z"/><circle class="cls-16" cx="104.98" cy="64.99" r="0.97"/><path class="cls-16" d="M119.15,66.35a.74.74,0,1,1-.74-.74A.74.74,0,0,1,119.15,66.35Z"/><path class="cls-18" d="M108.76,54.22s-1.55.15-3.78.3-2.65-.27-4.53.32a6.14,6.14,0,0,0-2.93,2,8,8,0,0,1,4.69-1.33c2.3.28,3.87.88,5.11.77S108.76,54.22,108.76,54.22Z"/><path class="cls-18" d="M117.33,55.82a12.22,12.22,0,0,0,2.45,1.84c1.52.86,1.91,1.35,2.12,2.52a5.78,5.78,0,0,1,0,1.69,2.77,2.77,0,0,0-1-2.26c-1.09-.83-2-.15-3.2-1.17A2.23,2.23,0,0,1,117.33,55.82Z"/><path class="cls-45" d="M103,70.62s.81,1.67,4,2.16a41,41,0,0,0,7.62.15,5.93,5.93,0,0,1-3.53,1.5,14.48,14.48,0,0,1-6.1-1.58,6.63,6.63,0,0,1-2.09-2.1Z"/><path class="cls-46" d="M102.89,70.75s.54,1.16,1.62,3,3.15,3.48,4.78,3.43A3,3,0,0,0,112,75.32a7.06,7.06,0,0,1,1.39-1.55l-1,.07a5.87,5.87,0,0,0-.85.93c-.45.6-1.37.79-2.71.4a16.74,16.74,0,0,1-4.22-2.55Z"/><path class="cls-13" d="M105.13,69.54s-1,.4-2.64.95c-.82.28-.72,1.8-.72,1.8a2,2,0,0,1,1-1.1A7,7,0,0,0,105.13,69.54Z"/><path class="cls-13" d="M108.33,69.63a12.34,12.34,0,0,0,2.63.78,11.35,11.35,0,0,0,3,.19,3.6,3.6,0,0,1-2.39,1,2.46,2.46,0,0,1-1.54-.83s-.2.24-.94.15S108.33,69.63,108.33,69.63Z"/><path class="cls-40" d="M93.23,63.05a13.25,13.25,0,0,1,2.16,2.56,8.38,8.38,0,0,0,1.4,1.87V63.27A10.07,10.07,0,0,1,97,61.1Z"/><path class="cls-47" d="M120.28,105.05a13.8,13.8,0,0,1-3.45,3.14c-.23.08-2.34,6.47-2.34,6.47a35.53,35.53,0,0,1-7.58.82,43.44,43.44,0,0,1-5.26-.82s-3.93-5.66-5.24-9.34c-.5-1.43-1.06-3.14-1.54-4.69-.77-2.48-1.39-4.58-1.39-4.58a25.43,25.43,0,0,0,3.29-4.36,6.1,6.1,0,0,0,.82-2.2,48.63,48.63,0,0,0,.26-5.62h0a38.19,38.19,0,0,0,9.74,1.94c5,.23,7-1.46,7-1.46s1.28,3.92,2.88,7.6a33.64,33.64,0,0,0,2.17,4.3C122.06,100.08,121.41,103,120.28,105.05Z"/><path class="cls-47" d="M99.34,90.84l0,.33c-.42,4.73-1.79,7-1.79,7s-1.52,1.35-2.65,2.5c-.17.17-.33.35-.48.51-1.72,1.89-3.6,5.69-4.62,7.9h0c-.46,1-.74,1.68-.74,1.68A15.73,15.73,0,0,0,85.16,113,36.49,36.49,0,0,0,79,119.62s.56-10.78,2.91-17.28c2.74-7.59,6.61-15,9.91-17.08,2.2-1.41,6-1.39,6-1.39h0A12.4,12.4,0,0,1,99.34,90.84Z"/><polygon class="cls-13" points="111.66 103.07 111.77 104.13 112.51 103.77 112.08 103.3 111.66 103.07"/><path class="cls-41" d="M117.49,92c-2.12-1.46-5.52-1.81-7.58-1.71-9,.45-14.66,5.47-16.43,5.81-3.85.75-5.13,9.74-5.8,11s1.91,2,2.08,2c-.46,1-.74,1.68-.74,1.68A15.73,15.73,0,0,0,85.16,113a39.41,39.41,0,0,0-6.28,6.65s.69-10.78,3-17.28c2.74-7.59,6.61-15,9.91-17.08,2.2-1.41,6-1.39,6-1.39h0a38.19,38.19,0,0,0,9.74,1.94c5,.23,7-1.46,7-1.46S115.89,88.27,117.49,92Z"/><path class="cls-48" d="M124.86,85.81a11.2,11.2,0,0,0,3.68,4.58c2.93,2.33,4.51,4.8,4.36,6.91a10.16,10.16,0,0,1-1.13,3.84S131,98,127,95.8C122,93,124.86,85.81,124.86,85.81Z"/><path class="cls-49" d="M132.52,74.43c-.37,1.39-4.65,5-4.65,5s.45-1.58-1.88-4.29-5.6-4.3-4-8.72,4.61-11.54,3.82-13.82c-1.58-4.48-24.66-.14-24.66-.14a20,20,0,0,1-.84,4.59,8.65,8.65,0,0,1-2.42,4c-3,2.47-4.35,2.72-4.35,2.72s-.75,9.7,1,14.06.92,9.91-4.49,14.5-10.52,5.26-12,6.91a2.23,2.23,0,0,0,0,3.08c-.15-.08-2.08-1.12.66-5.83,2.86-4.91,4.06-15.79,4.06-26.88,0-5.66.56-9.33,1.64-12.1A17.93,17.93,0,0,1,89,51.1c4.07-4,17.46-12,27.27-11.69,4.6.13,13.08,14.2,13.53,16.4s-.6,9.16.3,12.33S132.9,73,132.52,74.43Z"/><path class="cls-50" d="M101.46,52.4l2.06-.36s8.33-3.59,11.61-4.29a46.17,46.17,0,0,1,9.21-1.18L124,46a35.31,35.31,0,0,0-7.85.9C110.67,48.05,101.46,52.4,101.46,52.4Z"/><path class="cls-50" d="M101.79,52.26l-.68.2s6.87-5.09,10.33-7.14a39.84,39.84,0,0,1,8.45-3.9l.85.82a75,75,0,0,0-8.52,3.4A61.27,61.27,0,0,0,101.79,52.26Z"/><path class="cls-50" d="M104,42.07a28.22,28.22,0,0,0-1.45,5.28c-.24,1.23-.71,5-.71,5l-.74.13s.33-2.61.71-5.52a37.4,37.4,0,0,1,.74-4.26Z"/><path class="cls-50" d="M101,53.35a45.5,45.5,0,0,1-8.87,1.49c-4.84.3-6.35-.05-6.35-.05l-.91,1.59a52.53,52.53,0,0,0,7.89-.56A73.31,73.31,0,0,0,101,53.89Z"/><path class="cls-50" d="M100.1,57.53S94.59,61.27,89,65.28s-6.19,4.35-6.19,4.35v1.72s5.23-3.57,9.62-7.12,7.36-5.81,7.36-5.81Z"/><path class="cls-50" d="M80.18,93.05S83,90.94,88.1,83.64s5.32-12,5.32-12l.06.89A30.18,30.18,0,0,1,88.1,84.31c-4.33,5.67-8.35,10-8.35,10Z"/><path class="cls-50" d="M78.07,97.72a43.25,43.25,0,0,0,9.8-7.85,25.78,25.78,0,0,0,6.42-12.6l.56,1a28.34,28.34,0,0,1-6.53,11.72,52,52,0,0,1-10.65,8.7Z"/><path class="cls-50" d="M128.91,53.85s-2.62,8.86-2.84,14.29,3.15,10.09,3.15,10.09l.71-.66s-4-4.7-3.31-10.56a87,87,0,0,1,2.66-12.41Z"/><path class="cls-50" d="M129.86,57.82s-.76,3.55-1.39,7.89S132,72.29,132,72.29l-.31-.63s-3.3-2.56-2.9-6a56.28,56.28,0,0,1,1-6.17Z"/><path class="cls-50" d="M132.7,98.64a7.5,7.5,0,0,0-2.4-5.89c-4.53-3.78-5.86-6.56-5.86-6.56L124,87.66s.85,1.87,5.69,5.21c3.19,2.21,2.62,7,2.62,7Z"/><path class="cls-50" d="M100.44,55.56l-.17,1.49a8.65,8.65,0,0,1-2.42,4c-3,2.47-4.35,2.72-4.35,2.72s-.75,9.7,1,14.06.92,9.91-4.49,14.5-10.52,5.26-12,6.91a2.23,2.23,0,0,0,0,3.08c-.15-.08-2.08-1.12.66-5.83,2.86-4.91,4.06-15.79,4.06-26.88,0-5.66.56-9.33,1.64-12.1,0,0,1.24.41,6.69.29A22.4,22.4,0,0,0,100.44,55.56Z"/><path class="cls-13" d="M95.39,65.61s-3.55-5-6.06-4.81c-1.65.13-1.65,4.2,0,6.68s3.85,4.35,5.4,4.13,1.63-1.14,1.63-1.14Z"/><path class="cls-14" d="M95.39,69a20.32,20.32,0,0,0-2.75-4.5A10.05,10.05,0,0,0,89,62.15,33.5,33.5,0,0,1,92,65,49.8,49.8,0,0,1,95.39,69Z"/><path class="cls-14" d="M94.15,67a2,2,0,0,1-.74,1.29c-.61.4-2.31-.58-2.31-.58A6.63,6.63,0,0,0,93.35,69c.88.15,1.15-1.14,1.15-1.14Z"/><path class="cls-51" d="M108.31,153.3c-.47,3.22-3.49,15.2-6.6,26.9-.85,3.16-1.7,6.31-2.51,9.25-3.81,13.82-4.68,34.14-4.68,34.14l-4.14.92S87.82,211.25,87,202.93v-.05a26.29,26.29,0,0,1-.13-5.62c.8-4.9,3.1-12.62,3.88-16.92s-.68-34.21,0-36.65,6-15.63,6-15.63C111.16,138,108.91,149.19,108.31,153.3Z"/><path class="cls-52" d="M92.29,226.81s-.3-1.55,0-1.8a13.63,13.63,0,0,1,2.65-.5c.2,0,1.64,2.1,2.85,3.26s5.61,2.15,6,2.6a3.81,3.81,0,0,1,.46,1.55s-5.49,1-9.24-.37A8.54,8.54,0,0,1,90,226.61l.2-1.4Z"/><path class="cls-53" d="M111.72,226.66l-.45,3.91a63.69,63.69,0,0,1,7.81,0c4.86.25,8.26.5,9.61.35l2.91-.3a1.78,1.78,0,0,0-1.35-1.15c-1.1-.25-5.15-.35-7.46-1.5s-4.66-3.21-5-3.21-1.35.35-1.2.9a2,2,0,0,0,.45.85Z"/><path class="cls-54" d="M92.64,141.63a31.79,31.79,0,0,0,6.38-2,21.72,21.72,0,0,0,4.78-2.9l-.4,1.53a32.19,32.19,0,0,1-5.61,2.62,43,43,0,0,1-5.15,1.54Z"/><path class="cls-54" d="M93.88,142.08a113.79,113.79,0,0,0-1.24,14.35c0,6.31.45,19.68,0,23.06s-4.44,15.17-4.21,19.6,2.37,25.33,2.37,25.33l.61-.21S88.63,199.87,89,197.57s4.26-17.08,4.36-18.28-.08-21.44-.08-23.5,1.43-14,1.43-14Z"/><path class="cls-54" d="M95.12,141s1.5-5.44,2.32-8.35,2.12-6.81,2.12-6.81l1.42-.22a65.59,65.59,0,0,0-2.76,6.27A84.62,84.62,0,0,0,95.9,141Z"/><path class="cls-55" d="M113.82,224.27s-5.83-23.4-5-28.81,3-12.42,3.42-15.82-4.47-23-4.47-23l.4-1.36s5.22,22.39,4.92,24.27-3.76,14.73-3.76,17.28,5.11,27.37,5.11,27.37Z"/><path class="cls-54" d="M111,118.54s1.39,11.12,1.51,16.93-5.12,22.32-5.12,22.32,5.94-18.49,6.26-21.5-1.32-16.67-1.32-16.67Z"/><polygon class="cls-56" points="113.65 123.67 110.52 91.17 89.77 94.29 95.16 126.53 113.65 123.67"/><polygon class="cls-12" points="89.77 94.29 91.73 93.02 111.97 89.72 114.06 123.3 113.65 123.67 110.52 91.17 89.77 94.29"/><path class="cls-57" d="M114.25,107.25s.43.67-.07,1-1.11.86-3.51,1.23a24.51,24.51,0,0,1-6-.27c-.52,0-10.89,8.86-16.05,10.18s-8.41,2-9.36,1.54c-1.57-.79,4.18-8.27,7-10s16-2.86,17.54-3.64,1.88-2.63,2.63-3.33,2.43-.91,3.64-1.63,1.45-1.28,1.9-1.2-.1,1.37-1,2a17.89,17.89,0,0,1-2.16,1.23,2.77,2.77,0,0,0-.4.35,8.63,8.63,0,0,0,3.18-.55c1.35-.6,1.14-1.4,1.14-1.4.38,0,1.19,1.14.67,1.78l-.53.64s.81-.49,1-.3a1,1,0,0,1,.19.86,1.64,1.64,0,0,1-.51.46s.62-.23.71-.12.28.7.06.92a1.9,1.9,0,0,1-.68.36Z"/><path class="cls-13" d="M111,105.83a13.81,13.81,0,0,0,2-.81,2.32,2.32,0,0,0,.57-.75l.06.61s-.07.18-.53.43A11,11,0,0,1,111,105.83Z"/><path class="cls-13" d="M114.07,105.77a3.68,3.68,0,0,1-.81.56,8.54,8.54,0,0,1-1.29.47,6.64,6.64,0,0,0,1.46-.37A1.12,1.12,0,0,0,114.07,105.77Z"/><path class="cls-13" d="M114.17,107.15a7.72,7.72,0,0,1-1,.46,6.35,6.35,0,0,0-.63.22s.92-.16,1.21-.25a1,1,0,0,0,.55-.43l.06-.12Z"/><path class="cls-58" d="M101.71,180.17v0c-.85,3.16-1.7,6.31-2.51,9.25-3.81,13.82-4.68,34.14-4.68,34.14l-4.14.92S87.82,211.25,87,202.93v-.05l0-.38s3.42-10.76,7.36-14.75S101.71,180.17,101.71,180.17Z"/></g></g></svg>