<svg xmlns="http://www.w3.org/2000/svg" xmlns:xlink="http://www.w3.org/1999/xlink" viewBox="0 0 142.6 64.75"><defs><style>.cls-1{fill:none;}.cls-2{isolation:isolate;}.cls-3{clip-path:url(#clip-path);}.cls-4{fill:#a1132d;opacity:0.29;mix-blend-mode:multiply;}.cls-5{fill:#c69c6d;}.cls-6{fill:#ff76ae;}.cls-7{font-size:12.61px;fill:#333;font-family:Montserrat-Regular, Montserrat;}.cls-8{letter-spacing:-0.01em;}.cls-9{letter-spacing:-0.01em;}.cls-10{letter-spacing:0em;}.cls-11{letter-spacing:0em;}</style><clipPath id="clip-path"><rect class="cls-1" x="-1916.29" y="-968.66" width="588.51" height="548.5"/></clipPath></defs><title>Prancheta 186</title><g class="cls-2"><g id="Camada_1" data-name="Camada 1"><g class="cls-3"><polygon class="cls-4" points="-1917.17 -674.54 -2756.78 123.2 -239.17 353.91 -1343.77 -674.54 -1313.79 -674.54 125.04 439.39 -3356 439.39 -1917.17 -674.54"/></g><path class="cls-5" d="M37.35,10.94h-9a1.66,1.66,0,0,1-1-3l3.07-2.34,6-4.55a1.65,1.65,0,0,1,2,0l6,4.55L47.41,8a1.67,1.67,0,0,1-1,3Z"/><rect class="cls-6" x="70.97" y="8.45" width="71.62" height="56.31"/><text class="cls-7" transform="translate(79.44 24.01)"><tspan class="cls-8">r</tspan><tspan class="cls-9" x="4.89" y="0">e</tspan><tspan x="12.32" y="0">aliz</tspan><tspan class="cls-10" x="32.98" y="0">a</tspan><tspan x="40.44" y="0">do</tspan></text><rect class="cls-5" y="8.4" width="71.62" height="56.31"/><text class="cls-7" transform="translate(17.53 24.05)"><tspan class="cls-11">m</tspan><tspan x="13.4" y="0">eta</tspan></text></g></g></svg>