<svg xmlns="http://www.w3.org/2000/svg" xmlns:xlink="http://www.w3.org/1999/xlink" viewBox="0 0 151.23 222.77"><defs><style>.cls-1{fill:none;}.cls-2{isolation:isolate;}.cls-3{clip-path:url(#clip-path);}.cls-4{clip-path:url(#clip-path-2);}.cls-5{fill:url(#Áåçûìÿííûé_ãðàäèåíò_46);}.cls-6{opacity:0.58;}.cls-7{fill:#902038;}.cls-8{fill:#ffdd9a;}.cls-9{fill:#9a344a;}.cls-10,.cls-11,.cls-25,.cls-59{fill:#fff;}.cls-10,.cls-11{mix-blend-mode:soft-light;}.cls-11{opacity:0.55;}.cls-12{fill:#a1132d;}.cls-12,.cls-53{opacity:0.29;}.cls-12,.cls-15{mix-blend-mode:multiply;}.cls-13{clip-path:url(#clip-path-3);}.cls-14{fill:url(#Áåçûìÿííûé_ãðàäèåíò_280);}.cls-15{fill:#4c0e45;opacity:0.1;}.cls-16{fill:#006087;}.cls-17{fill:url(#åçûìßííûé_ãðàäèåíò_30);}.cls-18{fill:url(#åçûìßííûé_ãðàäèåíò_30-2);}.cls-19{fill:url(#åçûìßííûé_ãðàäèåíò_30-3);}.cls-20{fill:#e1784e;}.cls-21{fill:url(#åçûìßííûé_ãðàäèåíò_3);}.cls-22{fill:#590800;}.cls-23{fill:#ffbf59;}.cls-24{fill:url(#åçûìßííûé_ãðàäèåíò_30-4);}.cls-26{fill:url(#åçûìßííûé_ãðàäèåíò_3-2);}.cls-27{fill:url(#åçûìßííûé_ãðàäèåíò_3-3);}.cls-28{fill:url(#åçûìßííûé_ãðàäèåíò_3-4);}.cls-29{fill:url(#åçûìßííûé_ãðàäèåíò_3-5);}.cls-30{fill:#c13c32;}.cls-30,.cls-52{opacity:0.59;}.cls-31{fill:#8b011b;}.cls-32{fill:url(#åçûìßííûé_ãðàäèåíò_30-5);}.cls-33{fill:#2c0a5b;}.cls-34{fill:url(#åçûìßííûé_ãðàäèåíò_99);}.cls-35{fill:#840400;}.cls-36{fill:#130a3b;}.cls-37{fill:#007ea2;}.cls-38{fill:#f9ba00;}.cls-39{fill:url(#åçûìßííûé_ãðàäèåíò_30-6);}.cls-40{fill:url(#åçûìßííûé_ãðàäèåíò_30-7);}.cls-41{fill:url(#åçûìßííûé_ãðàäèåíò_30-8);}.cls-42{fill:url(#åçûìßííûé_ãðàäèåíò_3-6);}.cls-43{fill:#ffac70;}.cls-44{fill:#e5d1af;}.cls-45{fill:#9aaf14;}.cls-46{fill:#d0b895;}.cls-47{fill:#638d27;}.cls-48{fill:#4d2d1b;opacity:0.15;}.cls-49{fill:#fff594;opacity:0.2;}.cls-50{fill:url(#åçûìßííûé_ãðàäèåíò_30-9);}.cls-51{fill:#531700;}.cls-52,.cls-53{fill:#faf2ee;}.cls-54{fill:url(#åçûìßííûé_ãðàäèåíò_3-7);}.cls-55{fill:url(#åçûìßííûé_ãðàäèåíò_3-8);}.cls-56{fill:#e66642;}.cls-57{fill:url(#åçûìßííûé_ãðàäèåíò_3-9);}.cls-58{fill:#84ffd2;}.cls-59{opacity:0.63;}.cls-60{fill:#d35921;}</style><clipPath id="clip-path"><rect class="cls-1" x="-592.69" y="-133.89" width="234.44" height="356.36"/></clipPath><clipPath id="clip-path-2"><rect id="SVGID" class="cls-1" x="-736.13" y="-361.25" width="1000.4" height="605.77" transform="translate(-471.86 -116.72) rotate(-180)"/></clipPath><linearGradient id="Áåçûìÿííûé_ãðàäèåíò_46" x1="-2385.09" y1="301.87" x2="-2385.09" y2="-34.65" gradientTransform="matrix(-1, 0, 0, 1, -2650.53, 0)" gradientUnits="userSpaceOnUse"><stop offset="0" stop-color="#958b9d"/><stop offset="1" stop-color="#e09f9d"/></linearGradient><clipPath id="clip-path-3"><rect class="cls-1" x="-2088.4" y="-323.88" width="588.51" height="548.5"/></clipPath><linearGradient id="Áåçûìÿííûé_ãðàäèåíò_280" x1="-2582.65" y1="90.26" x2="206.72" y2="90.26" gradientUnits="userSpaceOnUse"><stop offset="0" stop-color="#ffffd3"/><stop offset="1" stop-color="#ffdcc2"/></linearGradient><linearGradient id="åçûìßííûé_ãðàäèåíò_30" x1="-11655.9" y1="205.78" x2="-11655.9" y2="161.36" gradientTransform="translate(11773.24)" gradientUnits="userSpaceOnUse"><stop offset="0" stop-color="#fdc38b"/><stop offset="1" stop-color="#fda37d"/></linearGradient><linearGradient id="åçûìßííûé_ãðàäèåíò_30-2" x1="-11674.27" y1="207.08" x2="-11674.27" y2="168.2" xlink:href="#åçûìßííûé_ãðàäèåíò_30"/><linearGradient id="åçûìßííûé_ãðàäèåíò_30-3" x1="-11668.78" y1="143.93" x2="-11668.78" y2="75.17" xlink:href="#åçûìßííûé_ãðàäèåíò_30"/><linearGradient id="åçûìßííûé_ãðàäèåíò_3" x1="-11670.53" y1="30.09" x2="-11655.49" y2="30.09" gradientTransform="translate(11773.24)" gradientUnits="userSpaceOnUse"><stop offset="0" stop-color="#a43113"/><stop offset="1" stop-color="#6f160d"/></linearGradient><linearGradient id="åçûìßííûé_ãðàäèåíò_30-4" x1="-11671.73" y1="78.22" x2="-11671.73" y2="37.72" xlink:href="#åçûìßííûé_ãðàäèåíò_30"/><linearGradient id="åçûìßííûé_ãðàäèåíò_3-2" x1="-7118.42" y1="-1153.3" x2="-7118.42" y2="-1161.88" gradientTransform="matrix(1.33, -0.1, 0.08, 1, 9683.45, 483.9)" xlink:href="#åçûìßííûé_ãðàäèåíò_3"/><linearGradient id="åçûìßííûé_ãðàäèåíò_3-3" x1="-11680.23" y1="64.55" x2="-11680.23" y2="56.01" xlink:href="#åçûìßííûé_ãðàäèåíò_3"/><linearGradient id="åçûìßííûé_ãðàäèåíò_3-4" x1="-11685.92" y1="47.52" x2="-11651.2" y2="47.52" xlink:href="#åçûìßííûé_ãðàäèåíò_3"/><linearGradient id="åçûìßííûé_ãðàäèåíò_3-5" x1="-12810.62" y1="3835.99" x2="-12800.17" y2="3835.99" gradientTransform="translate(13419.85 -901.26) rotate(12.53)" xlink:href="#åçûìßííûé_ãðàäèåíò_3"/><linearGradient id="åçûìßííûé_ãðàäèåíò_30-5" x1="-11669.68" y1="112.99" x2="-11669.68" y2="105.32" xlink:href="#åçûìßííûé_ãðàäèåíò_30"/><linearGradient id="åçûìßííûé_ãðàäèåíò_99" x1="-11677.66" y1="93.48" x2="-11662.02" y2="93.48" gradientTransform="translate(11773.24)" gradientUnits="userSpaceOnUse"><stop offset="0" stop-color="#ca0000"/><stop offset="1" stop-color="#a80009"/></linearGradient><linearGradient id="åçûìßííûé_ãðàäèåíò_30-6" x1="-11644.57" y1="143.04" x2="-11644.57" y2="120.9" xlink:href="#åçûìßííûé_ãðàäèåíò_30"/><linearGradient id="åçûìßííûé_ãðàäèåíò_30-7" x1="-11636.85" y1="135.98" x2="-11636.85" y2="135.91" xlink:href="#åçûìßííûé_ãðàäèåíò_30"/><linearGradient id="åçûìßííûé_ãðàäèåíò_30-8" x1="-11636.89" y1="135.91" x2="-11636.89" y2="135.78" xlink:href="#åçûìßííûé_ãðàäèåíò_30"/><linearGradient id="åçûìßííûé_ãðàäèåíò_3-6" x1="-12800.17" y1="3827.45" x2="-12776.96" y2="3827.45" gradientTransform="translate(13419.85 -901.26) rotate(12.53)" xlink:href="#åçûìßííûé_ãðàäèåíò_3"/><linearGradient id="åçûìßííûé_ãðàäèåíò_30-9" x1="9194.17" y1="38.15" x2="9222.63" y2="38.15" gradientTransform="matrix(-1, 0, 0, 1, 9260.94, 0)" xlink:href="#åçûìßííûé_ãðàäèåíò_30"/><linearGradient id="åçûìßííûé_ãðàäèåíò_3-7" x1="-713.87" y1="506.01" x2="-713.87" y2="496.94" gradientTransform="matrix(1, 0.09, -0.09, 1, 820.74, -391.58)" xlink:href="#åçûìßííûé_ãðàäèåíò_3"/><linearGradient id="åçûìßííûé_ãðàäèåíò_3-8" x1="726.25" y1="422.99" x2="726.25" y2="413.85" gradientTransform="matrix(1.33, 0.1, -0.07, 1, -887.02, -447.6)" xlink:href="#åçûìßííûé_ãðàäèåíò_3"/><linearGradient id="åçûìßííûé_ãðàäèåíò_3-9" x1="9190.35" y1="29.56" x2="9224.8" y2="29.56" gradientTransform="matrix(-1, 0, 0, 1, 9260.94, 0)" xlink:href="#åçûìßííûé_ãðàäèåíò_3"/></defs><title>Prancheta 180</title><g class="cls-2"><g id="Camada_1" data-name="Camada 1"><g class="cls-3"><g class="cls-4"><polygon class="cls-5" points="-791.26 301.87 -356.58 -34.65 -174.3 -34.65 260.38 301.87 -791.26 301.87"/><g class="cls-6"><polygon class="cls-7" points="-651.6 193.74 122.38 195.03 118.7 192.18 -650.25 193.02 -651.6 193.74"/><polygon class="cls-7" points="-562.26 124.58 36.39 128.55 34.26 126.9 -561.2 123.76 -562.26 124.58"/></g><polygon class="cls-8" points="-174.3 -34.65 -173.75 -216.55 260.38 -399.22 260.38 301.87 -174.3 -34.65"/><polygon class="cls-9" points="-174.3 -34.65 260.38 301.87 260.38 254.55 -173.75 -41.88 -174.3 -34.65"/><polygon class="cls-10" points="260.38 254.55 -173.75 -41.88 -173.75 -39.47 260.38 265.06 260.38 254.55"/><polygon class="cls-11" points="-17.82 301.87 -79.34 195.03 122.38 195.03 260.38 301.87 -17.82 301.87"/><polygon class="cls-12" points="-174.3 -34.65 79.36 206.35 -681.23 276.05 -347.52 -34.65 -356.58 -34.65 -791.26 301.87 260.38 301.87 -174.3 -34.65"/></g></g><g class="cls-13"><rect class="cls-14" x="-2582.65" y="-42.3" width="2789.36" height="265.13"/><rect class="cls-1" x="-2582.62" y="-1032.45" width="2789.36" height="1255.21"/></g><ellipse class="cls-15" cx="73.65" cy="204.52" rx="62.91" ry="12.08"/><path class="cls-16" d="M117.35,133.45s-.26-5.1-1.3-11.86-1.85-14.1-1.85-14.1l.93,2.74s4.73,21.29,4.41,22.33S117.35,133.45,117.35,133.45Z"/><path class="cls-17" d="M126.9,204.94c-.52.84-2.86.84-5.19.84s-1.91-.5-1.38-1.88-1.45-8.43-2.08-10.13c-.47-1.23-5.81-13.62-8.7-20.32l-1.83-4.24,1.94-3.43,2.51-4.42a12.79,12.79,0,0,1,1.51,1.8,21.21,21.21,0,0,1,2.94,6.05A118.55,118.55,0,0,1,119,181c1,5.79,1.91,11.52,2.38,12.7.84,2.11,2.26,3.39,2.89,4.8S127.44,204.09,126.9,204.94Z"/><path class="cls-18" d="M102.79,205.26c-1.83.16-4.67,1.89-6.5,1.82s-4.38-1.09-3.9-1.56,2.23-.24,3.34-.64,6.5-4.64,6.39-6.86C102,196.4,98.3,168.2,98.3,168.2h4.93a1,1,0,0,1,.07.17,24.38,24.38,0,0,1,1.49,8.18c0,4.49-.37,17.24-.31,20.51v0c0,.15,0,.27,0,.37s0,.25,0,.25a42.64,42.64,0,0,0,1,4.86C105.94,204.32,104.61,205.1,102.79,205.26Z"/><path class="cls-19" d="M133.89,138.7c-.43.06-1.18-.85-1.84-1.46a4.15,4.15,0,0,0-1.94-.77,18.22,18.22,0,0,1,2,2c.45.64.9,2.79.6,3s-.63-1.8-1.2-2.46a5.81,5.81,0,0,0-2-1.17,9.84,9.84,0,0,1,1.92,1.95c.32.66.83,2.52.41,2.59s-.79-1.28-1.16-2a7.52,7.52,0,0,0-2.14-1.62,3.5,3.5,0,0,1,1,1.38c.32.66,1.08,2.78.66,2.78s-.93-2-2-3a10.16,10.16,0,0,0-3.16-1.65,4.6,4.6,0,0,0,.27,2.2c.5,1.6,0,2.5-.27,2.57s-1.27-3.44-1.59-4.39.27-3.85-.21-5v0l-.08-.18a0,0,0,0,1,0,0l0-.09c-.88-2-4.89-9.92-5.56-12.91-.71-3.18-1.38-6.26-2.55-10.1a55.19,55.19,0,0,0-2.17-5.84c-.7-1.56-1.38-2.93-2-4v0c-1.14-2.1-2-3.3-2-3.3l-10.64,5.71-1.24.68s-3.34,8-4.24,10.25-1.8,7-2.64,9.38c-.49,1.34-2.51,5.3-4.13,8.43h0c-1.19,2.31-2.16,4.18-2.16,4.26s.34,2,.42,2.52a14.66,14.66,0,0,1-.5,3.08,6.17,6.17,0,0,0,.22,2.53c-.06.06-.63.27-1.07-.47s-.1-3-.1-3-2.44,1.06-2.89,1.33a26,26,0,0,1-2.48,1.75c-.09-.16.34-.94,1.16-1.66a11.89,11.89,0,0,1,1.55-1.13,11.64,11.64,0,0,0-1.85.65c-.77.39-2.5,1.47-2.64,1.31s1.27-1.39,1.88-1.78,1.73-1,1.86-1.07a16.32,16.32,0,0,0-1.93.78c-.75.38-2.33,1.51-2.58,1.27s1.59-1.63,2.15-2,1.52-.83,1.86-1c-.33.12-1.24.5-1.75.63s-1.74,1.33-2,1.1,1.11-1.42,2-1.95,4.48-2,5-3.24,2.44-13.61,3.55-16.08,3.18-5.73,3.9-8.91S93.3,87.49,95,85.51a4.88,4.88,0,0,1,1.12-.89c2.18-1.29,5.69-1.8,6-2.85a15.77,15.77,0,0,0,0-4l3.68-2.6s-.46,4.77,0,5.61a5,5,0,0,0,2,1,30.56,30.56,0,0,1,3.76,1.49h0a5.19,5.19,0,0,1,1.65,1.25,12.8,12.8,0,0,1,1.22,3.13h0c1.13,3.79,2.56,10.12,3.65,14.86h0c.22,1,.43,1.87.62,2.67h0c.39,1.67.7,2.9.87,3.37,1,2.61,3.33,9.65,3.87,12.3s1.72,11.88,2.73,12.49,5.45,2.71,5.95,3.05C132.89,136.9,134.32,138.65,133.89,138.7Z"/><path class="cls-20" d="M107.82,81.75s-6.83,3.57-10.2,3.09l-1.46-.22c2.18-1.29,5.69-1.8,6-2.85a15.77,15.77,0,0,0,0-4l3.67-2.6s-.45,4.77.06,5.62A5,5,0,0,0,107.82,81.75Z"/><path class="cls-20" d="M98.35,102.73l-1.24.66s-3.34,8-4.24,10.26-1.8,7-2.65,9.39c-.49,1.33-2.5,5.28-4.12,8.43,0-.19.78-3.9,1.55-7.8s3.9-9.83,5.49-15.13,2.77-15.28,2.77-15.28Z"/><path class="cls-20" d="M119,181a18.32,18.32,0,0,0-3.14-5.14c-1.82-1.92-4.64-2.34-6.34-2.4l-1.83-4.24,1.94-3.43,4-2.62a21.21,21.21,0,0,1,2.94,6.05A118.55,118.55,0,0,1,119,181Z"/><path class="cls-21" d="M102.76,32.63s-.74-7.16,3.84-8.43,10.63,1.59,11.11,5.41-2.58,6.67-2.58,6.67S106.42,31.51,102.76,32.63Z"/><path class="cls-22" d="M109,33s3.73.41,5.83-2.44a3.77,3.77,0,0,0-.37-5.1s2.54.77,1.75,4.66-3.1,4.43-3.1,4.43Z"/><path class="cls-22" d="M107.66,32.63a10.39,10.39,0,0,0,4.77-4.54c1.65-3.23-1.48-4-1.48-4s3-.18,2.54,3.93S110,33,110,33Z"/><path class="cls-23" d="M102.47,32.11a11.41,11.41,0,0,1,7.92-.62,10.09,10.09,0,0,1,6,4.16l-1,1.45A9.93,9.93,0,0,0,109,32.63c-4.57-1.08-6.28,0-6.28,0Z"/><path class="cls-24" d="M113.65,67.17c-1.72,4.06-8.1,9.42-11.9,10.74a5.71,5.71,0,0,1-1.14.28c-4.13.5-9.7-5.83-11.08-8s0-5.59-.32-7.88-1.69-10.73-2-12.64,5.84-15,19.14-11.35S115.56,62.66,113.65,67.17Z"/><path class="cls-25" d="M108.93,62.05a2,2,0,0,0,.56-1.17c0-.66-3.79-8-6.15-6.49s-1.77,8.69-1.77,8.69a18.05,18.05,0,0,0,4.32.11C108.23,63,108.93,62.05,108.93,62.05Z"/><path class="cls-25" d="M96,63.45s-2.59-8.11-4.48-7.55S91,64.37,91,64.37a3,3,0,0,0,2.51.66A3.33,3.33,0,0,0,96,63.45Z"/><path class="cls-26" d="M107.5,58.37c.15,2.37-.76,4.38-2,4.5s-2.41-1.7-2.56-4.07.76-4.37,2-4.49S107.35,56,107.5,58.37Z"/><path class="cls-22" d="M106.64,58.45c.09,1.48-.48,2.73-1.27,2.81s-1.5-1.06-1.59-2.54.47-2.73,1.26-2.8S106.55,57,106.64,58.45Z"/><path class="cls-25" d="M106.79,59a.94.94,0,0,1-1,.88,1,1,0,0,1-.75-1.2.94.94,0,0,1,1-.88A1,1,0,0,1,106.79,59Z"/><path class="cls-25" d="M107.79,59.37a.37.37,0,0,1-.4.35.41.41,0,0,1-.29-.47.37.37,0,0,1,.4-.34A.4.4,0,0,1,107.79,59.37Z"/><path class="cls-27" d="M94.82,61.28c0,1.74-.52,3.1-1.28,3.25-1,.19-2-1.56-2.25-3.9a7.35,7.35,0,0,1,.36-3.76h0a1.29,1.29,0,0,1,.84-.84.71.71,0,0,1,.45,0,14.92,14.92,0,0,1,1.74,3.44h0l.06.4c0,.19,0,.37.05.54s0,.25,0,.37A3.24,3.24,0,0,1,94.82,61.28Z"/><path class="cls-22" d="M94.09,60.07c.18,1.46-.15,2.74-.75,2.86s-1.22-1-1.4-2.43.15-2.75.75-2.87S93.91,58.6,94.09,60.07Z"/><path class="cls-25" d="M94.24,60.55c0,.58-.34,1-.72.94s-.68-.57-.66-1.15.34-1,.72-.94S94.26,60,94.24,60.55Z"/><path class="cls-25" d="M95,60.92c0,.22-.13.38-.28.36s-.26-.22-.25-.44.13-.39.27-.37S95.05,60.69,95,60.92Z"/><path class="cls-22" d="M101.57,63.08s.15-8.86,2.86-8.15,4.21,6.56,5.09,6.56,2.14-1.18,2.14-1.18a14.23,14.23,0,0,1-3.14-3.07c-1.27-1.81-3.73-4.61-5.64-3.21C101.25,55.23,101.57,63.08,101.57,63.08Z"/><path class="cls-22" d="M95.83,63.06c-.06-.14-.4-.93-.86-1.89a2.59,2.59,0,0,0-.17-.33,2.49,2.49,0,0,0-.16-.33c-.23-.47-.49-.95-.75-1.41A11.87,11.87,0,0,0,93,57.67c-.45-.61-.88-1-1.2-.87a.28.28,0,0,0-.13.07h0c-1.05.79-.36,6.75-1.06,7.36s-2.31,0-2.31,0a1.56,1.56,0,0,0,1.2-.71c.48-.72,0-8.35,2.15-8.35a1.85,1.85,0,0,1,1.31.91,14.92,14.92,0,0,1,1.74,3.44h0A35.61,35.61,0,0,1,95.83,63.06Z"/><path class="cls-22" d="M102.48,63.08a12.36,12.36,0,0,0,3.64-.18,10.4,10.4,0,0,0,3-1.25,3.7,3.7,0,0,1,1.33.67,2.44,2.44,0,0,1,.84,1.29A6.47,6.47,0,0,0,110,62.8a2.38,2.38,0,0,0-1.1-.17,7.46,7.46,0,0,1-2.53.85A10.41,10.41,0,0,1,102.48,63.08Z"/><path class="cls-22" d="M91,64.37a7.13,7.13,0,0,0-.79,1A3,3,0,0,0,90,66.9a4.64,4.64,0,0,1,.65-1.08l.58-.42a12.53,12.53,0,0,0,2.71-.25,2.83,2.83,0,0,0,1.73-1A5.93,5.93,0,0,1,93,64.9,3.19,3.19,0,0,1,91,64.37Z"/><path class="cls-20" d="M95.65,67.59a9.51,9.51,0,0,0,3.82,0c1.54-.48,1.8-1.09,1.8-1.09s.22,1.3-.21,1.56-1.24,0-1.24,0a3,3,0,0,1-2.1,1.17C96.56,69.2,95.65,67.59,95.65,67.59Z"/><path class="cls-22" d="M94.25,70.66s2.66,1.61,4.53,1.53,5.37-3.66,5.37-3.66h.2s-3.09,4.44-5.29,4.33-4.81-2-4.81-2Z"/><path class="cls-22" d="M90.52,62.49s-.2-3.93,1.7-4.13S95,60.92,95,60.92s-2.13-5.56-3.55-5S90.52,62.49,90.52,62.49Z"/><path class="cls-22" d="M101.59,59.31s1.25-3.56,3.45-3.39a5.18,5.18,0,0,1,3.52,2s-3.55-3.9-5.22-3.58S101.59,59.31,101.59,59.31Z"/><path class="cls-22" d="M100.2,50a9.33,9.33,0,0,1,5.6-1.17c2.88.48,4.42,3.93,4.42,3.93s-2.06-2.33-4.42-2.6S101.84,52,100.2,50Z"/><path class="cls-22" d="M93.55,50.22a5.13,5.13,0,0,0-4,.94c-2.08,1.77-.89,5.68-.89,5.68s-.3-3.31,1-4S93.3,51.89,93.55,50.22Z"/><path class="cls-20" d="M113.65,67.17c-1.72,4.06-8.1,9.42-11.9,10.74,1.74-1.27,8.23-6.29,9.5-11,1.47-5.46,2.61-16.75-3.8-20.47s-20.2,3.29-20.2,3.29c-.26-1.91,5.84-15,19.14-11.35S115.56,62.66,113.65,67.17Z"/><path class="cls-22" d="M96.55,45s9.13-1.46,10.44-.39,2.34,3.9,2.34,3.9.65-7.27-.14-7.37S96.55,45,96.55,45Z"/><path class="cls-22" d="M96.55,45s-3.72.39-5.63,2.17S87,54,87,54s1.37-8,2.23-8.7S96.55,45,96.55,45Z"/><path class="cls-28" d="M87.32,44.79S88.6,37,94.25,34.54a31.78,31.78,0,0,1,14.31-2.31c1.67.32,11,4.85,13.28,13.36,1.21,4.46-3.34,13.06-4.29,14.88a5.57,5.57,0,0,1-2.42,2.45s-3.58-16-4.91-19.72-13.15,1.68-13.15,1.68L96,45Z"/><path class="cls-22" d="M113.15,54.37s5.36-5,5.11-10.32a13.29,13.29,0,0,0-3.77-8.58s5.21,4.71,4.83,11.23-5.62,10.5-5.62,10.5Z"/><path class="cls-22" d="M111.66,47a10,10,0,0,0,3.85-5.67,6.86,6.86,0,0,0-1-5.88,8.39,8.39,0,0,1-.2,5.08,6.53,6.53,0,0,1-3,4.08Z"/><path class="cls-29" d="M96.55,45s-8.61-.8-10.11.09S82.71,60.35,82.1,68.6a125.84,125.84,0,0,0,.09,16.88,181.35,181.35,0,0,1,1.58-18.14C84.91,60.75,89,46.18,90,45.67S96.55,45,96.55,45Z"/><path class="cls-30" d="M92.06,43.28s1-5.36,5-7.81a23.75,23.75,0,0,1,9.31-2.84,12.27,12.27,0,0,0-3.54,1.95,12.74,12.74,0,0,0-3,2.46,44.65,44.65,0,0,0,5.68-2.5,23,23,0,0,0,2.71-1.91,39.57,39.57,0,0,1-3.74,6.4c-2.35,3.1-7.28,4.73-7.28,4.73L98.31,41A11.51,11.51,0,0,0,92.06,43.28Z"/><path class="cls-30" d="M104.07,41.1a17,17,0,0,0,4.49-4,13.7,13.7,0,0,0,2.07-3.58s-.6,3.7-1.91,5.25S104.07,41.1,104.07,41.1Z"/><path class="cls-20" d="M114.08,62.92s4.27-6.14,6.36-5.72c3.07.61-2.57,11.21-4.19,11.66a2.08,2.08,0,0,1-2.39-1Z"/><path class="cls-31" d="M105.11,200.77a23.73,23.73,0,0,1-4.71,3.32,6.75,6.75,0,0,1-4.67.79s-3-.42-3.4.4,2.11,2.17,4.36,2.1,4.19-1.54,6.12-1.7,2.47-.16,2.65-.32S106.4,201.72,105.11,200.77Z"/><path class="cls-31" d="M120.27,201a30.12,30.12,0,0,1-.57,3.83c-.32,1,1,1.55,4.25,1.19s3.74-1.05,3.62-2-4.43-7.56-4.43-7.56,1.68,3.85,1.76,5.25-4.12,1.68-4.2,1.05A14.37,14.37,0,0,0,120.27,201Z"/><path class="cls-20" d="M96.89,72.33a5.48,5.48,0,0,0,2.58,1.61c1.47.33,2.52-1.3,2.52-1.3s-1,2-2.21,2.11-3.52-2.7-3.52-2.7Z"/><path class="cls-22" d="M103,68.12a5.35,5.35,0,0,1,1,.65,9.92,9.92,0,0,1,.84.79,3.59,3.59,0,0,0-.55-1.13A3.45,3.45,0,0,0,103,68.12Z"/><path class="cls-22" d="M94.83,69.77s-.73.44-.88.79a2.48,2.48,0,0,0,.12,1.18s.16-.64.3-1A10.37,10.37,0,0,1,94.83,69.77Z"/><path class="cls-32" d="M109.67,113,98,111.09a42.52,42.52,0,0,0-.5-5.26v-.12a2.11,2.11,0,0,1,0-.21l0-.18h12.24a32.26,32.26,0,0,0-.16,5.7A5.71,5.71,0,0,1,109.67,113Z"/><path class="cls-33" d="M120.62,190.22l-3.27,1.39-.06-.14c-.76-1.66-8.82-19.34-10.81-26.3-.12-.43-.22-.81-.29-1.15-1-4.71-3-21.52-3.14-23.09v-.11s.2,20,.71,22.34,1.63,6.12,2.1,8.92c1.07,6.23-1.35,22-1.35,22h-3.11l-.4-2.48c-.84-5.27-2.73-17.31-3-20.4-.37-3.64-6.65-31.26-6.18-38.39.36-5.23,3.54-14.48,5.21-19l.11-.31c.38-1,.67-1.77.81-2.13l.1-.26,11.51-.07h0c.16.38,5.39,12.66,5.61,22.35.23,9.84-2.1,26.75-1.76,27.28s2.25,5.55,4,10.47S120.62,190.22,120.62,190.22Z"/><path class="cls-20" d="M109.51,111H109a6.12,6.12,0,0,0-3.93-4.24,24.46,24.46,0,0,0-7.52-1v-.12l0-.21,0-.18h12.24A32.26,32.26,0,0,0,109.51,111Z"/><path class="cls-34" d="M111.18,88.14c0,1.47.09,5.16,0,8.4-.17,4.15-.46,8.78-.46,8.78H96.55l0-.38,0-.34,0-.24h0a83.15,83.15,0,0,1-.82-8.61,56.65,56.65,0,0,1,.67-8.68l.92-3,2.36-1.18v3.23a21.88,21.88,0,0,1,4.89-.59A14.23,14.23,0,0,1,108,86l.19-4.35,3,1.28s-.07,3.89-.06,4.56c0,0,0,.23,0,.63Z"/><path class="cls-35" d="M111.18,88.14c0,1.47.09,5.16,0,8.4-.17,4.15.08,8.78.08,8.78H96.55l0-.38,0-.34,0-.24s6.74-.72,10.2-5.92,3.35-16,3.35-16l1.26.47s-.07,3.89-.06,4.56c0,0,0,.23,0,.63Z"/><path class="cls-36" d="M120.62,190.22l-3.27,1.39-.06-.14-.81-1.9a14.44,14.44,0,0,0,0-6c-.69-3.39-4.38-16-4.38-19.37s1.73-24.25,0-32.74S97,113.79,97,113.79l.11-.31.81-2.13.1-.26,11.51-.07h0c.16.38,5.39,12.66,5.61,22.35.23,9.84-2.1,26.75-1.76,27.28s2.25,5.55,4,10.47S120.62,190.22,120.62,190.22Z"/><path class="cls-36" d="M105.85,172.08c1.07,6.23-1.35,22-1.35,22h-3.11l-.4-2.48a12.8,12.8,0,0,0,2.33-6.4c.12-3.47-1.27-17.78-2.25-21.19s.23-20.14-.17-22.11S97,138.1,97,138.1a14.49,14.49,0,0,1,2.41.52,8.94,8.94,0,0,1,3.65,2.2s.2,20,.71,22.34S105.38,169.28,105.85,172.08Z"/><path class="cls-36" d="M106.48,165.17c-.12-.43-.22-.81-.29-1.15-1-4.71-3-21.52-3.14-23.09Z"/><path class="cls-16" d="M116.83,147.92s-5.21,2-5.61,1.27-3.51-19.63-3.69-27.48S110,86.24,110,86.24s-3.51,42.28,2.68,52.15A51.26,51.26,0,0,1,116.83,147.92Z"/><path class="cls-37" d="M110.33,82.22c-.37-.08-1.93,26.69-2,37.81-.06,12.19,7.45,27.54,8.49,27.89s8.48-2.34,9.7-3.38-5.23-10.59-7.1-17.64c-2-7.4-3.15-12.84-3.15-12.84l-1.15-3.83a95.41,95.41,0,0,0,2.16,13.33c1.44,5.25,2.19,8.25,2.14,8.83s-5.76,2.39-6.57,2.05S110,124.87,109.67,119c-.54-10,1.92-35.92,1.92-35.92Z"/><path class="cls-38" d="M118.91,140.63s-3.34-4.07-2-5S118.91,140.63,118.91,140.63Z"/><path class="cls-38" d="M119.38,140.63s1.56-4.67,2.77-4S119.38,140.63,119.38,140.63Z"/><path class="cls-38" d="M118.91,141s-4.47-1.89-4.46-.35C114.45,141.42,118.91,141,118.91,141Z"/><path class="cls-20" d="M123.28,133.33l0-.09c-.88-2-4.89-9.92-5.56-12.91-.71-3.18-1.38-6.26-2.55-10.1a55.19,55.19,0,0,0-2.17-5.84c-.7-1.56-1.38-2.93-2-4v0s.19-10.19.22-12.2.38-4.69.4-4.86a5.19,5.19,0,0,1,1.65,1.25,12.8,12.8,0,0,1,1.22,3.13h0c0,.31-1.11,10.66.68,16.72s4.61,17.54,5.49,20.7C121.34,127.61,122.76,131.81,123.28,133.33Z"/><path class="cls-39" d="M132.14,136.44c-.5-.34-4.94-2.45-5.95-3.05s-2.2-9.83-2.73-12.49l-.08,12.7c.48,1.19-.11,4.09.21,5s1.32,4.48,1.59,4.4.77-1,.27-2.58a4.6,4.6,0,0,1-.27-2.2,10.4,10.4,0,0,1,3.16,1.65c1,1.07,1.53,3.05,2,3.05s-.34-2.11-.66-2.78a3.58,3.58,0,0,0-1-1.38,7.52,7.52,0,0,1,2.14,1.62c.37.69.74,2.06,1.16,2s-.09-1.94-.41-2.59a9.94,9.94,0,0,0-1.92-2,5.81,5.81,0,0,1,2,1.17c.57.66.91,2.65,1.2,2.46s-.15-2.34-.6-3a18.83,18.83,0,0,0-2-2,4.15,4.15,0,0,1,1.94.77c.66.6,1.41,1.51,1.84,1.45S132.89,136.94,132.14,136.44Z"/><path class="cls-40" d="M136.4,136v0l0-.07A.17.17,0,0,1,136.4,136Z"/><path class="cls-41" d="M136.38,135.91a.49.49,0,0,0-.06-.13Z"/><path class="cls-42" d="M96.55,45s10.52-4.78,12.63-4.39,6,11,5.95,22.35-3.88,18.72-3.88,18.72a47.19,47.19,0,0,0,1.2-18.56c-1.35-10.6-4.48-20.2-6.17-20.43S96.55,45,96.55,45Z"/><path class="cls-43" d="M65.82,124c.43.79-.49,4.46,0,5.64s1.81,4.19,1.81,4.19.56-.49.17-1.82a12.89,12.89,0,0,1-.45-2.71,9.42,9.42,0,0,1,2.21,2.46c.81,1.41,1,2.59,1.4,2.84s.08-2.12-.46-3.11a13.07,13.07,0,0,1-.69-1.37,12.07,12.07,0,0,1,1.13,2.17c.53,1.31.59,2.64.93,2.84s.38-2.12-.34-4a5.49,5.49,0,0,0-.92-1.73,12,12,0,0,1,1,2c.61,1.44.49,2.54.82,2.64s.33-2.21-.26-3.64a8,8,0,0,0-1-1.87,4.4,4.4,0,0,1,1.41,1.64c.5,1,.27,2.88.46,2.5a5.25,5.25,0,0,0-1-4.73,66.48,66.48,0,0,0-5-5.23C66.48,122.05,65.39,123.18,65.82,124Z"/><path class="cls-43" d="M18.89,116.88c-.43.79.49,4.46.05,5.65s-1.81,4.19-1.81,4.19-.56-.5-.17-1.82a13,13,0,0,0,.45-2.72,9.42,9.42,0,0,0-2.21,2.46c-.81,1.41-1,2.59-1.4,2.84s-.09-2.12.46-3.11A13.07,13.07,0,0,0,15,123a12.07,12.07,0,0,0-1.13,2.17c-.53,1.32-.59,2.64-.93,2.84s-.39-2.12.34-4a5.49,5.49,0,0,1,.92-1.73,12,12,0,0,0-1,2c-.61,1.44-.49,2.54-.82,2.64s-.33-2.21.26-3.64a7.54,7.54,0,0,1,1-1.87A4.31,4.31,0,0,0,12.13,123c-.5,1-.27,2.88-.46,2.5a5.26,5.26,0,0,1,1-4.73,64.68,64.68,0,0,1,5-5.23C18.23,115,19.32,116.09,18.89,116.88Z"/><path class="cls-44" d="M58.35,116.51s2.31,30.41,2.31,40.13c0,5.74-2.07,39-2.07,39H52.53S48.46,160.5,48,155.39s-1.81-21.87-1.81-21.87-2.39,22.91-2.61,27.95-8.12,35.17-8.12,35.17h-6s1.8-34.09,2.24-41.25S35.2,116,35.2,116Z"/><path class="cls-45" d="M58.59,61.89s4.79-1.94,7,1.08.14,29.55.35,30.85c.77,5,2.58,29.56,2.58,29.56l-3.44,1.43s-6.6-17.89-7-25.58c-.14-3,2.14-14.86,2.14-14.86s-.92,18.82-.9,23.44a51,51,0,0,0,.75,8.43s-8.17,4.58-15.11,3.69a23.12,23.12,0,0,1-11.59-5.13s1.72-11.13,2.84-17.88,2.91-15.08,2.91-15.08-5.52,14.71-7.76,18.29-11.86,17.23-11.86,17.23L16.45,116s6.64-22.6,9.33-26.5,8.9-28.33,12.94-30a8.9,8.9,0,0,1,7.49.41Z"/><polygon class="cls-43" points="56.27 195.63 55.67 199.41 53.61 200.18 53.02 195.63 56.27 195.63"/><polygon class="cls-43" points="34.14 196.64 33.05 201.16 30.96 200.76 30.63 196.64 34.14 196.64"/><path class="cls-46" d="M34.94,118.75s16.71,4.36,19.92,5.44,5.8,32.45,5.8,32.45l-2.31-40.13L35.2,116Z"/><path class="cls-46" d="M46.21,133.52c.36-1.38,3.65-5,3.65-5s-.6,12.54-.9,18.66,3.36,43.73,4.78,44.55a20.22,20.22,0,0,0,5,1.35l-.16,2.59H52.53s-3.82-32-4.51-40.24S46.21,133.52,46.21,133.52Z"/><path class="cls-46" d="M43.07,165s-7.08,3-8.13,5.78-4.31,25.85-4.31,25.85h4.85Z"/><path class="cls-46" d="M60.58,159.58a19.67,19.67,0,0,0-3.6,6.59c-.78,3.24-1.23,28-1.23,28l2.84,1.48Z"/><path class="cls-47" d="M39.21,81.1c.95-2.83,6.51-7.51,6.51-7.51A36.36,36.36,0,0,0,42.46,79l-1.18,2.61s2.53-1.71,4.44-2.76a23.36,23.36,0,0,1,3.47-1.56S43.51,80.5,42,84.24s-3.83,28.35-2.81,29.25,20.95,2.75,20.95,2.75-3.74,2.92-10.6,3S33,116,33,116Z"/><path class="cls-47" d="M59.42,106.55a101.22,101.22,0,0,1,0-15.15c.7-6,2.23-15,2.23-15s-.3,30.74,0,32.61,6.63,10.66,6.63,10.66l.28,3.71-3.44,1.43S60,109.29,59.42,106.55Z"/><path class="cls-47" d="M65.63,63s-2.65-.45-9,2S37,61.24,37,61.24s.66-2.44,5.47-2.6,8.47,5.75,11.64,5a12.3,12.3,0,0,0,4.45-1.75S63.27,60,65.63,63Z"/><path class="cls-43" d="M50,52s.93,4.44,0,6.15-3.79,1.79-3.79,1.79,2.78,4.27,6.54,4.24a9.8,9.8,0,0,0,5.84-2.26s-4.12,0-4.22-2.18a9.1,9.1,0,0,1,.2-3Z"/><path class="cls-20" d="M54.35,59.27s0,0-2.76,0a8.08,8.08,0,0,0-4.72,1.51l-.66-.87s3.57-.19,4.07-2.61A13.62,13.62,0,0,0,50,52l4.86,4.41A13.56,13.56,0,0,0,54.35,59.27Z"/><path class="cls-48" d="M46.21,59.91s.36,4,8.65,7.76,11.9,7.5,11.9,7.5,0-9.53-.85-11.64c-1.54-3.84-7.32-1.64-7.32-1.64A11.34,11.34,0,0,1,52.21,64C48.8,63.84,46.21,59.91,46.21,59.91Z"/><path class="cls-22" d="M30.31,207.86c3.56.09,5.09.36,5.23-.32A10.21,10.21,0,0,0,35,205.1c-.24-.77-.51-1.62-.76-2.36-.39-1.18-.72-2.11-.72-2.11l-3-.21-1.2,2.27c-.44.84-.94,1.78-1.36,2.59s-.77,1.5-.92,1.81C26.5,208.19,27.51,207.79,30.31,207.86Z"/><path class="cls-49" d="M27.93,205.28a6.73,6.73,0,0,1,2.85-.23,23.77,23.77,0,0,0,4.18,0c-.24-.77-.51-1.62-.76-2.36a9.9,9.9,0,0,0-2-.29,11.77,11.77,0,0,0-2.93.24C28.85,203.53,28.35,204.47,27.93,205.28Z"/><path class="cls-22" d="M52.43,203.46c.49.38,15.19.66,15,0s-.82-1-2.4-1.7c-.37-.17-.79-.34-1.26-.54a44.25,44.25,0,0,0-7.84-2.05H53.2S51.94,203.08,52.43,203.46Z"/><path class="cls-49" d="M58.18,201.51a29.53,29.53,0,0,0,6.83.25c-.37-.17-.79-.34-1.26-.54a44.25,44.25,0,0,0-7.84-2.05S55.67,200.92,58.18,201.51Z"/><path class="cls-50" d="M42.75,47.63a35.79,35.79,0,0,0,4.33,5.78,10.61,10.61,0,0,0,2.38,2,11.3,11.3,0,0,0,1.74.87h0c6,2.36,13.27-.34,14.35-1.2.82-.66.17-3.38-.51-6.73-.23-1.18.58-4.19,1.16-7.85h0C67,35.76,67.35,30,64.7,25.74a11.13,11.13,0,0,0-4.23-3.93l-.59-.31c-.26-.13-.54-.25-.82-.37-13.35-5.45-20,1.22-20.58,7.13,0,.46-.09.93-.11,1.43A30.56,30.56,0,0,0,42.75,47.63Z"/><path class="cls-20" d="M42.75,47.63a35.79,35.79,0,0,0,4.33,5.78,10.61,10.61,0,0,0,2.38,2,10.87,10.87,0,0,1,1.74.87c-.18-.19-1.77-1.34-1.94-1.52C40.51,45,42.82,38,43.36,32a11.49,11.49,0,0,1,4.48-8.4C50.77,21.58,55.3,21,62,23.69a12.15,12.15,0,0,1,1.73.87,11.29,11.29,0,0,0-3.87-3.06c-.26-.13-.54-.25-.82-.37-13.35-5.45-20,1.22-20.58,7.13,0,.46-.08.93-.11,1.43A32.63,32.63,0,0,0,42.75,47.63Z"/><path class="cls-20" d="M43.36,32s4.21-.27,13.18,1.43c7.27,1.39,9.2,5.5,9.67,7C67,35.76,67.35,30,64.7,25.74a70.44,70.44,0,0,0-13.11-2.32,13.76,13.76,0,0,0-3.74.21h0a5.18,5.18,0,0,0-4.48,4.77A16.8,16.8,0,0,0,43.36,32Z"/><path class="cls-51" d="M60.4,54.18a15.74,15.74,0,0,1-6.54-1.53,14.13,14.13,0,0,1-3.41-2.24,10.3,10.3,0,0,0,3.9,3.47C56.57,54.78,60.4,54.18,60.4,54.18Z"/><path class="cls-22" d="M55.51,31.18a15.31,15.31,0,0,0-5,1,6.93,6.93,0,0,0-3,2.18,5.61,5.61,0,0,1,0-2c.24-.61,4.91-2.7,6.19-2.83S55.51,31.18,55.51,31.18Z"/><path class="cls-22" d="M61.85,31.07s.9.49,2.47,1.57a8.06,8.06,0,0,1,2.41,3.49A2.52,2.52,0,0,0,67.05,34c-.36-1.29-2.46-3.93-3.32-4.07S61.85,31.07,61.85,31.07Z"/><path class="cls-52" d="M56.32,48.35c0,.15.8.46,1.86.69s2,.28,2,.13-.81-.46-1.87-.69S56.35,48.2,56.32,48.35Z"/><path class="cls-53" d="M48.63,48.59c.1.24.71.24,1.38,0s1.12-.66,1-.91-.71-.24-1.37,0S48.54,48.34,48.63,48.59Z"/><path class="cls-52" d="M55.24,48.12a.35.35,0,0,0,.34.35.35.35,0,1,0,0-.7A.35.35,0,0,0,55.24,48.12Z"/><path class="cls-20" d="M51.92,48.59a9.55,9.55,0,0,0-2.27,1c-.42.43-.15,1.92-.15,1.92a5.09,5.09,0,0,1,.76-1.34C50.68,49.72,51.92,48.59,51.92,48.59Z"/><path class="cls-25" d="M61.21,46.68l0-.22S62.65,38.4,65,38s-.37,8.2-.37,8.2A5.24,5.24,0,0,1,61.21,46.68Z"/><path class="cls-54" d="M65.07,42.09c-.58,2.46-1.73,4.27-2.58,4.06-.5-.13-.79-.94-.81-2.11,0-.11,0-.23,0-.36.45-2,1.38-5.2,2.67-6.43a.59.59,0,0,1,.23,0c.46.11.73.79.79,1.78h0A10.48,10.48,0,0,1,65.07,42.09Z"/><ellipse class="cls-22" cx="63.54" cy="41.7" rx="2.85" ry="0.99" transform="translate(8.44 94.06) rotate(-76.81)"/><path class="cls-25" d="M64.45,42.49c-.21.57-.62.85-.91.63a1.33,1.33,0,0,1-.14-1.42c.21-.57.62-.85.91-.64A1.35,1.35,0,0,1,64.45,42.49Z"/><path class="cls-25" d="M65,43.2c-.09.22-.25.32-.36.24a.51.51,0,0,1-.05-.55c.08-.22.24-.33.35-.25A.53.53,0,0,1,65,43.2Z"/><path class="cls-22" d="M64.7,46c.23-.81,1.54-5.6.69-6.93h0a.68.68,0,0,0-.4-.31c-1.41-.4-2.71,3.31-3.3,5.31-.16.56-.27,1-.32,1.16,0-.2.15-.77.33-1.52.45-2,1.38-5.2,2.67-6.43a1.44,1.44,0,0,1,1.31-.47C67.33,37.13,65,45,64.7,46Z"/><path class="cls-20" d="M61.21,46.68a4.71,4.71,0,0,0,2.08-.19,7.56,7.56,0,0,0,1.52-.93l-.18.66a3,3,0,0,1-1.49.64A4.81,4.81,0,0,1,61.21,46.68Z"/><path class="cls-25" d="M54.37,44.75s1.7-9.68-2.18-9.9c-3-.17-2.84,9.83-2.84,9.83S52.69,45.59,54.37,44.75Z"/><path class="cls-55" d="M53.45,39.58c-.19,2.52-1.22,4.51-2.31,4.44s-1.84-2.18-1.65-4.69,1.21-4.51,2.31-4.44S53.63,37.06,53.45,39.58Z"/><path class="cls-22" d="M52.7,39.53c-.11,1.58-.76,2.81-1.44,2.77s-1.14-1.35-1-2.93.76-2.81,1.44-2.76S52.82,38,52.7,39.53Z"/><path class="cls-25" d="M52.76,40.08c-.14.59-.58.94-1,.77a1.18,1.18,0,0,1-.48-1.38c.14-.59.58-.94,1-.77A1.17,1.17,0,0,1,52.76,40.08Z"/><path class="cls-25" d="M53.57,40.69c-.06.23-.23.36-.39.3a.48.48,0,0,1-.19-.54c.06-.23.23-.36.39-.3A.48.48,0,0,1,53.57,40.69Z"/><path class="cls-22" d="M54.37,44.75s1.28-9.07-1.82-9.48-3.2,9.41-3.2,9.41-1.2-10.87,2.76-11.11C56.32,33.31,54.37,44.75,54.37,44.75Z"/><path class="cls-20" d="M49.36,43.45a6.11,6.11,0,0,0,2.45,1.26,5.55,5.55,0,0,0,2.56,0,5,5,0,0,1-2.52.63,4.26,4.26,0,0,1-2.51-.59Z"/><path class="cls-56" d="M54.82,48.12a8.11,8.11,0,0,0,3.31,1.59,12.46,12.46,0,0,0,3.23.42s-2.34,1.09-3.68.73-1.5-1.22-1.5-1.22a1.61,1.61,0,0,1-1.19-.3C54.46,48.92,54.82,48.12,54.82,48.12Z"/><path class="cls-57" d="M39.28,43.15l2.87,1.47a15.83,15.83,0,0,1-.09-2.92c0-2.81,2.13-14.68,3.66-15.57,2.91-1.67,9.63-.69,15.89,1,6,1.64,8.79,7.25,9,7.6h0s.25-5-1.49-7.58a70.74,70.74,0,0,0-5.39-6.47l3.89.3a10.08,10.08,0,0,0-4.05-2.69,24.45,24.45,0,0,0-6.68-1.6l6.68-1.41a28.69,28.69,0,0,0-17.8,1.41c-3.29,1.36-7.72,3.86-9.29,5.87a.41.41,0,0,0-.05.09C35.09,25,39.28,43.15,39.28,43.15Z"/><path class="cls-22" d="M39.28,43.15l2.87,1.47a15.83,15.83,0,0,1-.09-2.92c0-2.81,2.13-14.68,3.66-15.57,2.91-1.67,9.63-.69,15.89,1,6,1.64,8.79,7.25,9,7.6,0-.33-1-5.49-3.85-7s-14.84-3.33-20.62-3c-1.42.08-6.39-1.21-9.7-2C35.09,25,39.28,43.15,39.28,43.15Z"/><path class="cls-58" d="M60.63,41.71s0-.59-1.21-.85a2.9,2.9,0,0,0-1.81.06,2.19,2.19,0,0,1,1.79-.57A1.35,1.35,0,0,1,60.63,41.71Z"/><polygon class="cls-58" points="47.91 37.69 38.56 40.07 39.7 40.68 47.53 40.04 47.91 37.69"/><path class="cls-59" d="M48.34,39.28a10.17,10.17,0,0,1,4.34,1.54,15,15,0,0,1,3.7,2.94,4.37,4.37,0,0,1-4.78,2.92C48,46.13,48.34,39.28,48.34,39.28Z"/><path class="cls-59" d="M61,42.79a11.9,11.9,0,0,1,4.49,1.64,3.9,3.9,0,0,1,1.76,2.32A3.57,3.57,0,0,1,64,48.6C61.69,48.47,61,42.79,61,42.79Z"/><path class="cls-58" d="M60.58,42.17c-.42,3.49,1,6.59,3.16,6.92s4.27-2.23,4.69-5.73-1-6.59-3.16-6.92S61,38.68,60.58,42.17Zm.81.14c.35-2.87,2.1-5,3.92-4.69s3,2.82,2.66,5.69-2.09,5-3.91,4.68S61.05,45.17,61.39,42.31Z"/><path class="cls-58" d="M48.45,39.86c.37-3.08,2.54-5.29,4.85-4.94s3.87,3.13,3.5,6.21S54.26,46.41,52,46.06,48.08,42.93,48.45,39.86Zm-1-.18c-.45,3.75,1.42,7.13,4.17,7.55s5.35-2.28,5.81-6S56,34.07,53.22,33.65,47.86,35.93,47.41,39.68Z"/><path class="cls-20" d="M42.06,42.35s-4.88-4.15-7-3.51,2.71,7.89,4.4,8.79a5.71,5.71,0,0,0,3.83.67Z"/><path class="cls-60" d="M41,44.13s-3.52-3.69-4.87-3.56-.6,1.64-.6,1.64.17-.56,1.34-.23A27.64,27.64,0,0,1,41,44.13Z"/></g></g></svg>