<svg id="Camada_1" data-name="Camada 1" xmlns="http://www.w3.org/2000/svg" viewBox="0 0 252 167.97"><defs><style>.cls-1{fill:none;}.cls-2{font-size:18px;font-family:Montserrat-Bold, Montserrat;font-weight:700;}.cls-2,.cls-7{fill:#fff;}.cls-3{letter-spacing:-0.02em;}.cls-4{letter-spacing:-0.01em;}.cls-5{letter-spacing:-0.01em;}.cls-6{fill:#f22f88;}</style></defs><title>Prancheta 156</title><rect class="cls-1" x="-146.35" y="-2395.27" width="648" height="2733.21"/><text class="cls-2" transform="translate(40.07 124.78)"><tspan class="cls-3">V</tspan><tspan x="13.16" y="0">E</tspan><tspan class="cls-3" x="25.24" y="0">J</tspan><tspan x="34.7" y="0">A O </tspan><tspan class="cls-4" x="73.87" y="0">C</tspan><tspan x="86.81" y="0">AMINHO </tspan><tspan x="-24.62" y="21.6">DO DINHEIRO </tspan><tspan class="cls-5" x="111.9" y="21.6">P</tspan><tspan x="124.84" y="21.6">ÚBLI</tspan><tspan class="cls-3" x="169.57" y="21.6">C</tspan><tspan x="182.49" y="21.6">O</tspan></text><circle class="cls-6" cx="126.6" cy="55.02" r="34.81"/><path class="cls-7" d="M125.56,31.35a3,3,0,0,0-.41-.18L125,31.1a4.33,4.33,0,0,0-2.52,0,8.6,8.6,0,0,0-3.68,2.46c-2.19,2.31-3.1,5.61-3.51,8.34a28.52,28.52,0,0,0-.28,4.8.93.93,0,0,0,.61,1l5.73,2a.93.93,0,0,0,1-.35s5-5.23,5.75-11.66c.34-2.82-.56-5.26-2.41-6.31l-.13-.07Zm14.38,21.58c-1.86-1-4.42-.52-6.64,1.25-5.07,4-6.93,11-6.93,11a.93.93,0,0,0,.25,1.07l4.7,3.84a.94.94,0,0,0,1.19,0,28.29,28.29,0,0,0,4-2.76c2.1-1.76,4.45-4.27,5.26-7.35a8.68,8.68,0,0,0,.18-4.42,4.42,4.42,0,0,0-1.31-2.16l-.16-.12a2.63,2.63,0,0,0-.49-.33Zm-18.74-.6-.16-.07-6.32-2.2a.93.93,0,0,0-1.13.47,20.68,20.68,0,0,0-1.52,2.63,11.26,11.26,0,0,0-.85,2.38,3.58,3.58,0,0,0,.15,2.38,6,6,0,0,0,3.41,2.75,5.72,5.72,0,0,0,4.36-.06,3.43,3.43,0,0,0,1.53-1.83,10.3,10.3,0,0,0,.69-2.44,20.91,20.91,0,0,0,.29-3,.94.94,0,0,0-.45-1Zm3.58,15.48a.94.94,0,0,0-1.07.12,20.94,20.94,0,0,0-2.44,1.84,10.82,10.82,0,0,0-1.72,1.86,3.41,3.41,0,0,0-.75,2.26A5.64,5.64,0,0,0,121,77.64a5.92,5.92,0,0,0,4.12,1.46A3.58,3.58,0,0,0,127.26,78a10.82,10.82,0,0,0,1.58-2,19.91,19.91,0,0,0,1.45-2.67.94.94,0,0,0-.19-1.21l-5.19-4.23a.51.51,0,0,0-.13-.09Z"/></svg>