<svg xmlns="http://www.w3.org/2000/svg" xmlns:xlink="http://www.w3.org/1999/xlink" viewBox="0 0 305.89 216.48"><defs><style>.cls-1{fill:none;}.cls-2{isolation:isolate;}.cls-3{fill:#bac933;}.cls-126,.cls-19,.cls-3{opacity:0.4;}.cls-10,.cls-126,.cls-13,.cls-133,.cls-140,.cls-19,.cls-3,.cls-6{mix-blend-mode:multiply;}.cls-33,.cls-4{fill:#9e1701;}.cls-5{fill:#b32a01;}.cls-10,.cls-125,.cls-13,.cls-6{fill:#b86053;}.cls-6{opacity:0.3;}.cls-7{fill:url(#Áåçûìÿííûé_ãðàäèåíò_26);}.cls-8{fill:#ad522f;}.cls-18,.cls-32,.cls-33,.cls-8{mix-blend-mode:screen;}.cls-9{fill:#c45235;}.cls-10,.cls-122,.cls-18{opacity:0.5;}.cls-11{fill:url(#Áåçûìÿííûé_ãðàäèåíò_4);}.cls-12{fill:url(#Áåçûìÿííûé_ãðàäèåíò_4-2);}.cls-13{opacity:0.75;}.cls-14{fill:url(#Áåçûìÿííûé_ãðàäèåíò_4-3);}.cls-15{fill:url(#Áåçûìÿííûé_ãðàäèåíò_4-4);}.cls-16{fill:url(#Áåçûìÿííûé_ãðàäèåíò_6);}.cls-17{fill:url(#Áåçûìÿííûé_ãðàäèåíò_18);}.cls-18,.cls-32{fill:#fff7cc;}.cls-19{fill:#22567d;}.cls-20{fill:#bbc63f;}.cls-21{fill:#ffe696;}.cls-22{fill:url(#Áåçûìÿííûé_ãðàäèåíò_6-2);}.cls-23{fill:url(#Áåçûìÿííûé_ãðàäèåíò_18-2);}.cls-24{fill:url(#Áåçûìÿííûé_ãðàäèåíò_6-3);}.cls-25{fill:url(#Áåçûìÿííûé_ãðàäèåíò_18-3);}.cls-26{fill:url(#Áåçûìÿííûé_ãðàäèåíò_6-4);}.cls-27{fill:url(#Áåçûìÿííûé_ãðàäèåíò_18-4);}.cls-28{fill:url(#Áåçûìÿííûé_ãðàäèåíò_6-5);}.cls-29{fill:url(#Áåçûìÿííûé_ãðàäèåíò_18-5);}.cls-30{fill:url(#Áåçûìÿííûé_ãðàäèåíò_6-6);}.cls-31{fill:url(#Áåçûìÿííûé_ãðàäèåíò_18-6);}.cls-32{opacity:0.2;}.cls-34{fill:url(#Áåçûìÿííûé_ãðàäèåíò_26-2);}.cls-35{fill:url(#Áåçûìÿííûé_ãðàäèåíò_4-5);}.cls-36{fill:url(#Áåçûìÿííûé_ãðàäèåíò_4-6);}.cls-37{fill:url(#Áåçûìÿííûé_ãðàäèåíò_4-7);}.cls-38{fill:url(#Áåçûìÿííûé_ãðàäèåíò_4-8);}.cls-39{fill:url(#Áåçûìÿííûé_ãðàäèåíò_4-9);}.cls-40{fill:url(#Áåçûìÿííûé_ãðàäèåíò_4-10);}.cls-41{fill:url(#Áåçûìÿííûé_ãðàäèåíò_4-11);}.cls-42{fill:url(#Áåçûìÿííûé_ãðàäèåíò_4-12);}.cls-43{fill:url(#Áåçûìÿííûé_ãðàäèåíò_4-13);}.cls-44{fill:url(#Áåçûìÿííûé_ãðàäèåíò_4-14);}.cls-45{fill:url(#Áåçûìÿííûé_ãðàäèåíò_2);}.cls-46{fill:url(#Áåçûìÿííûé_ãðàäèåíò_2-2);}.cls-47{fill:url(#Áåçûìÿííûé_ãðàäèåíò_2-3);}.cls-48{fill:url(#Áåçûìÿííûé_ãðàäèåíò_2-4);}.cls-49{fill:url(#Áåçûìÿííûé_ãðàäèåíò_2-5);}.cls-50{fill:url(#Áåçûìÿííûé_ãðàäèåíò_2-6);}.cls-51{fill:url(#Áåçûìÿííûé_ãðàäèåíò_2-7);}.cls-52{fill:url(#Áåçûìÿííûé_ãðàäèåíò_2-8);}.cls-53{fill:url(#Áåçûìÿííûé_ãðàäèåíò_2-9);}.cls-54{fill:url(#Áåçûìÿííûé_ãðàäèåíò_2-10);}.cls-55{fill:url(#Áåçûìÿííûé_ãðàäèåíò_4-15);}.cls-56{fill:url(#Áåçûìÿííûé_ãðàäèåíò_4-16);}.cls-57{fill:url(#Áåçûìÿííûé_ãðàäèåíò_4-17);}.cls-58{fill:url(#Áåçûìÿííûé_ãðàäèåíò_6-7);}.cls-59{fill:url(#Áåçûìÿííûé_ãðàäèåíò_18-7);}.cls-60{fill:url(#Áåçûìÿííûé_ãðàäèåíò_6-8);}.cls-61{fill:url(#Áåçûìÿííûé_ãðàäèåíò_18-8);}.cls-62{fill:url(#Áåçûìÿííûé_ãðàäèåíò_6-9);}.cls-63{fill:url(#Áåçûìÿííûé_ãðàäèåíò_18-9);}.cls-64{fill:url(#Áåçûìÿííûé_ãðàäèåíò_6-10);}.cls-65{fill:url(#Áåçûìÿííûé_ãðàäèåíò_18-10);}.cls-66{fill:url(#Áåçûìÿííûé_ãðàäèåíò_6-11);}.cls-67{fill:url(#Áåçûìÿííûé_ãðàäèåíò_18-11);}.cls-68{fill:url(#Áåçûìÿííûé_ãðàäèåíò_6-12);}.cls-69{fill:url(#Áåçûìÿííûé_ãðàäèåíò_18-12);}.cls-70{fill:url(#Áåçûìÿííûé_ãðàäèåíò_26-3);}.cls-71{fill:url(#Áåçûìÿííûé_ãðàäèåíò_4-18);}.cls-72{fill:url(#Áåçûìÿííûé_ãðàäèåíò_4-19);}.cls-73{fill:url(#Áåçûìÿííûé_ãðàäèåíò_4-20);}.cls-74{fill:url(#Áåçûìÿííûé_ãðàäèåíò_4-21);}.cls-75{fill:url(#Áåçûìÿííûé_ãðàäèåíò_4-22);}.cls-76{fill:url(#Áåçûìÿííûé_ãðàäèåíò_4-23);}.cls-77{fill:url(#Áåçûìÿííûé_ãðàäèåíò_4-24);}.cls-78{fill:url(#Áåçûìÿííûé_ãðàäèåíò_4-25);}.cls-79{fill:url(#Áåçûìÿííûé_ãðàäèåíò_4-26);}.cls-80{fill:url(#Áåçûìÿííûé_ãðàäèåíò_4-27);}.cls-81{fill:url(#Áåçûìÿííûé_ãðàäèåíò_4-28);}.cls-82{fill:url(#Áåçûìÿííûé_ãðàäèåíò_2-11);}.cls-83{fill:url(#Áåçûìÿííûé_ãðàäèåíò_2-12);}.cls-84{fill:url(#Áåçûìÿííûé_ãðàäèåíò_2-13);}.cls-85{fill:url(#Áåçûìÿííûé_ãðàäèåíò_2-14);}.cls-86{fill:url(#Áåçûìÿííûé_ãðàäèåíò_2-15);}.cls-87{fill:url(#Áåçûìÿííûé_ãðàäèåíò_2-16);}.cls-88{fill:url(#Áåçûìÿííûé_ãðàäèåíò_2-17);}.cls-89{fill:url(#Áåçûìÿííûé_ãðàäèåíò_2-18);}.cls-90{fill:url(#Áåçûìÿííûé_ãðàäèåíò_2-19);}.cls-91{fill:url(#Áåçûìÿííûé_ãðàäèåíò_2-20);}.cls-92{fill:url(#Áåçûìÿííûé_ãðàäèåíò_4-29);}.cls-93{fill:url(#Áåçûìÿííûé_ãðàäèåíò_4-30);}.cls-94{fill:url(#Áåçûìÿííûé_ãðàäèåíò_4-31);}.cls-95{fill:url(#Áåçûìÿííûé_ãðàäèåíò_4-32);}.cls-96{fill:url(#Áåçûìÿííûé_ãðàäèåíò_4-33);}.cls-97{fill:url(#Áåçûìÿííûé_ãðàäèåíò_4-34);}.cls-98{fill:url(#Áåçûìÿííûé_ãðàäèåíò_4-35);}.cls-99{fill:url(#Áåçûìÿííûé_ãðàäèåíò_4-36);}.cls-100{fill:url(#Áåçûìÿííûé_ãðàäèåíò_4-37);}.cls-101{fill:url(#Áåçûìÿííûé_ãðàäèåíò_4-38);}.cls-102{fill:url(#Áåçûìÿííûé_ãðàäèåíò_4-39);}.cls-103{fill:url(#Áåçûìÿííûé_ãðàäèåíò_4-40);}.cls-104{fill:url(#Áåçûìÿííûé_ãðàäèåíò_2-21);}.cls-105{fill:url(#Áåçûìÿííûé_ãðàäèåíò_2-22);}.cls-106{fill:url(#Áåçûìÿííûé_ãðàäèåíò_2-23);}.cls-107{fill:url(#Áåçûìÿííûé_ãðàäèåíò_2-24);}.cls-108{fill:url(#Áåçûìÿííûé_ãðàäèåíò_2-25);}.cls-109{fill:url(#Áåçûìÿííûé_ãðàäèåíò_2-26);}.cls-110{fill:url(#Áåçûìÿííûé_ãðàäèåíò_2-27);}.cls-111{fill:url(#Áåçûìÿííûé_ãðàäèåíò_2-28);}.cls-112{fill:url(#Áåçûìÿííûé_ãðàäèåíò_2-29);}.cls-113{fill:url(#Áåçûìÿííûé_ãðàäèåíò_2-30);}.cls-114{fill:url(#Áåçûìÿííûé_ãðàäèåíò_4-41);}.cls-115{fill:url(#Áåçûìÿííûé_ãðàäèåíò_2-31);}.cls-116{fill:url(#Áåçûìÿííûé_ãðàäèåíò_6-13);}.cls-117{fill:url(#Áåçûìÿííûé_ãðàäèåíò_18-13);}.cls-118{fill:url(#Áåçûìÿííûé_ãðàäèåíò_6-14);}.cls-119{fill:url(#Áåçûìÿííûé_ãðàäèåíò_18-14);}.cls-120{fill:url(#Áåçûìÿííûé_ãðàäèåíò_6-15);}.cls-121{fill:url(#Áåçûìÿííûé_ãðàäèåíò_18-15);}.cls-122{fill:#603813;mix-blend-mode:hard-light;}.cls-123{fill:url(#Áåçûìÿííûé_ãðàäèåíò_3);}.cls-124{fill:url(#Áåçûìÿííûé_ãðàäèåíò_88);}.cls-126{fill:#6b0a47;}.cls-127{fill:#7a991a;}.cls-128{fill:url(#Áåçûìÿííûé_ãðàäèåíò_2-32);}.cls-129{fill:url(#Áåçûìÿííûé_ãðàäèåíò_2-33);}.cls-130{fill:url(#Áåçûìÿííûé_ãðàäèåíò_2-34);}.cls-131{fill:url(#Áåçûìÿííûé_ãðàäèåíò_2-35);}.cls-132{fill:url(#Áåçûìÿííûé_ãðàäèåíò_2-36);}.cls-133{fill:#ffd699;opacity:0.6;}.cls-134{fill:url(#Áåçûìÿííûé_ãðàäèåíò_2-37);}.cls-135{fill:url(#Áåçûìÿííûé_ãðàäèåíò_2-38);}.cls-136{fill:url(#Áåçûìÿííûé_ãðàäèåíò_2-39);}.cls-137{fill:url(#Áåçûìÿííûé_ãðàäèåíò_2-40);}.cls-138{fill:url(#Áåçûìÿííûé_ãðàäèåíò_2-41);}.cls-139{clip-path:url(#clip-path);}.cls-140{fill:#a1132d;opacity:0.29;}.cls-141{mix-blend-mode:color-dodge;fill:url(#Áåçûìÿííûé_ãðàäèåíò_31);}</style><linearGradient id="Áåçûìÿííûé_ãðàäèåíò_26" x1="59.19" y1="162.19" x2="105.45" y2="50.48" gradientUnits="userSpaceOnUse"><stop offset="0" stop-color="#ff8759"/><stop offset="0.32" stop-color="#e6654e"/><stop offset="1" stop-color="#ab1535"/></linearGradient><linearGradient id="Áåçûìÿííûé_ãðàäèåíò_4" x1="13835.52" y1="8.26" x2="13819.85" y2="8.26" gradientTransform="matrix(-1.03, 0, 0.01, 0.97, 14276.24, 173.9)" gradientUnits="userSpaceOnUse"><stop offset="0.31" stop-color="#ffdfa3"/><stop offset="1" stop-color="#e2807f"/></linearGradient><linearGradient id="Áåçûìÿííûé_ãðàäèåíò_4-2" x1="13835.57" y1="-1.11" x2="13819.89" y2="-1.11" xlink:href="#Áåçûìÿííûé_ãðàäèåíò_4"/><linearGradient id="Áåçûìÿííûé_ãðàäèåíò_4-3" x1="54.27" y1="177.92" x2="116.74" y2="177.92" gradientTransform="matrix(1, 0, 0, 1, 0, 0)" xlink:href="#Áåçûìÿííûé_ãðàäèåíò_4"/><linearGradient id="Áåçûìÿííûé_ãðàäèåíò_4-4" x1="53.15" y1="93.04" x2="110.07" y2="93.04" gradientTransform="matrix(1, 0, 0, 1, 0, 0)" xlink:href="#Áåçûìÿííûé_ãðàäèåíò_4"/><linearGradient id="Áåçûìÿííûé_ãðàäèåíò_6" x1="279.76" y1="147.72" x2="279.76" y2="120.51" gradientTransform="matrix(1, 0, 0.04, 1, -241.43, -17.46)" gradientUnits="userSpaceOnUse"><stop offset="0" stop-color="#00b8c4"/><stop offset="0.03" stop-color="#15c2c4"/><stop offset="0.08" stop-color="#3cd5c5"/><stop offset="0.14" stop-color="#5be4c6"/><stop offset="0.2" stop-color="#71eec7"/><stop offset="0.25" stop-color="#7ff5c7"/><stop offset="0.3" stop-color="#83f7c7"/><stop offset="0.39" stop-color="#7af3c7"/><stop offset="0.55" stop-color="#63e8c6"/><stop offset="0.75" stop-color="#3cd5c5"/><stop offset="0.97" stop-color="#08bcc4"/><stop offset="1" stop-color="#00b8c4"/></linearGradient><linearGradient id="Áåçûìÿííûé_ãðàäèåíò_18" x1="280.14" y1="146.05" x2="280.14" y2="131.49" gradientTransform="matrix(1, 0, 0.04, 1, -241.43, -17.46)" gradientUnits="userSpaceOnUse"><stop offset="0.04" stop-color="#83f7c7"/><stop offset="0.14" stop-color="#7af3c7"/><stop offset="0.3" stop-color="#63e8c6"/><stop offset="0.49" stop-color="#3cd5c5"/><stop offset="0.72" stop-color="#08bcc4"/><stop offset="0.75" stop-color="#00b8c4"/></linearGradient><linearGradient id="Áåçûìÿííûé_ãðàäèåíò_6-2" x1="65.11" y1="131.5" x2="65.11" y2="102.81" gradientTransform="matrix(1, 0, 0, 1, 0, 0)" xlink:href="#Áåçûìÿííûé_ãðàäèåíò_6"/><linearGradient id="Áåçûìÿííûé_ãðàäèåíò_18-2" x1="65.51" y1="129.75" x2="65.51" y2="114.38" gradientTransform="matrix(1, 0, 0, 1, 0, 0)" xlink:href="#Áåçûìÿííûé_ãðàäèåíò_18"/><linearGradient id="Áåçûìÿííûé_ãðàäèåíò_6-3" x1="88.43" y1="131.11" x2="88.43" y2="102.9" gradientTransform="matrix(1, 0, 0, 1, 0, 0)" xlink:href="#Áåçûìÿííûé_ãðàäèåíò_6"/><linearGradient id="Áåçûìÿííûé_ãðàäèåíò_18-3" x1="88.82" y1="129.38" x2="88.82" y2="114.28" gradientTransform="matrix(1, 0, 0, 1, 0, 0)" xlink:href="#Áåçûìÿííûé_ãðàäèåíò_18"/><linearGradient id="Áåçûìÿííûé_ãðàäèåíò_6-4" x1="279.56" y1="184.33" x2="279.56" y2="157.12" xlink:href="#Áåçûìÿííûé_ãðàäèåíò_6"/><linearGradient id="Áåçûìÿííûé_ãðàäèåíò_18-4" x1="279.94" y1="182.66" x2="279.94" y2="168.1" xlink:href="#Áåçûìÿííûé_ãðàäèåíò_18"/><linearGradient id="Áåçûìÿííûé_ãðàäèåíò_6-5" x1="66.49" y1="168.22" x2="66.49" y2="139.53" gradientTransform="matrix(1, 0, 0, 1, 0, 0)" xlink:href="#Áåçûìÿííûé_ãðàäèåíò_6"/><linearGradient id="Áåçûìÿííûé_ãðàäèåíò_18-5" x1="66.89" y1="166.47" x2="66.89" y2="151.11" gradientTransform="matrix(1, 0, 0, 1, 0, 0)" xlink:href="#Áåçûìÿííûé_ãðàäèåíò_18"/><linearGradient id="Áåçûìÿííûé_ãðàäèåíò_6-6" x1="89.81" y1="167.83" x2="89.81" y2="139.63" gradientTransform="matrix(1, 0, 0, 1, 0, 0)" xlink:href="#Áåçûìÿííûé_ãðàäèåíò_6"/><linearGradient id="Áåçûìÿííûé_ãðàäèåíò_18-6" x1="90.2" y1="166.1" x2="90.2" y2="151" gradientTransform="matrix(1, 0, 0, 1, 0, 0)" xlink:href="#Áåçûìÿííûé_ãðàäèåíò_18"/><linearGradient id="Áåçûìÿííûé_ãðàäèåíò_26-2" x1="14301.26" y1="162.19" x2="14347.52" y2="50.48" gradientTransform="matrix(-1, 0, 0, 1, 14558.09, 0)" xlink:href="#Áåçûìÿííûé_ãðàäèåíò_26"/><linearGradient id="Áåçûìÿííûé_ãðàäèåíò_4-5" x1="13.87" y1="2.44" x2="-1.82" y2="2.44" gradientTransform="matrix(1.03, 0, -0.01, 0.97, 281.85, 173.9)" xlink:href="#Áåçûìÿííûé_ãðàäèåíò_4"/><linearGradient id="Áåçûìÿííûé_ãðàäèåíò_4-6" x1="13.91" y1="-8.44" x2="-1.77" y2="-8.44" gradientTransform="matrix(1.03, 0, -0.01, 0.97, 281.85, 173.9)" xlink:href="#Áåçûìÿííûé_ãðàäèåíò_4"/><linearGradient id="Áåçûìÿííûé_ãðàäèåíò_4-7" x1="13.97" y1="-19.99" x2="-1.73" y2="-19.99" gradientTransform="matrix(1.03, 0, -0.01, 0.97, 281.85, 173.9)" xlink:href="#Áåçûìÿííûé_ãðàäèåíò_4"/><linearGradient id="Áåçûìÿííûé_ãðàäèåíò_4-8" x1="13.78" y1="22.51" x2="-1.89" y2="22.51" gradientTransform="matrix(1.03, 0, -0.01, 0.97, 281.85, 173.9)" xlink:href="#Áåçûìÿííûé_ãðàäèåíò_4"/><linearGradient id="Áåçûìÿííûé_ãðàäèåíò_4-9" x1="13.83" y1="13.13" x2="-1.86" y2="13.13" gradientTransform="matrix(1.03, 0, -0.01, 0.97, 281.85, 173.9)" xlink:href="#Áåçûìÿííûé_ãðàäèåíò_4"/><linearGradient id="Áåçûìÿííûé_ãðàäèåíò_4-10" x1="14.05" y1="-42.95" x2="-1.62" y2="-42.95" gradientTransform="matrix(1.03, 0, -0.01, 0.97, 281.85, 173.9)" xlink:href="#Áåçûìÿííûé_ãðàäèåíò_4"/><linearGradient id="Áåçûìÿííûé_ãðàäèåíò_4-11" x1="14.15" y1="-65.78" x2="-1.53" y2="-65.78" gradientTransform="matrix(1.03, 0, -0.01, 0.97, 281.85, 173.9)" xlink:href="#Áåçûìÿííûé_ãðàäèåíò_4"/><linearGradient id="Áåçûìÿííûé_ãðàäèåíò_4-12" x1="14.1" y1="-54.01" x2="-1.58" y2="-54.01" gradientTransform="matrix(1.03, 0, -0.01, 0.97, 281.85, 173.9)" xlink:href="#Áåçûìÿííûé_ãðàäèåíò_4"/><linearGradient id="Áåçûìÿííûé_ãðàäèåíò_4-13" x1="14.19" y1="-76.66" x2="-1.48" y2="-76.66" gradientTransform="matrix(1.03, 0, -0.01, 0.97, 281.85, 173.9)" xlink:href="#Áåçûìÿííûé_ãðàäèåíò_4"/><linearGradient id="Áåçûìÿííûé_ãðàäèåíò_4-14" x1="14.01" y1="-31.93" x2="-1.67" y2="-31.93" gradientTransform="matrix(1.03, 0, -0.01, 0.97, 281.85, 173.9)" xlink:href="#Áåçûìÿííûé_ãðàäèåíò_4"/><linearGradient id="Áåçûìÿííûé_ãðàäèåíò_2" x1="13.49" y1="-76.88" x2="1.49" y2="-77.02" gradientTransform="matrix(1.03, 0, -0.01, 0.97, 281.85, 173.9)" gradientUnits="userSpaceOnUse"><stop offset="0.31" stop-color="#fffbe4"/><stop offset="1" stop-color="#ffe696"/></linearGradient><linearGradient id="Áåçûìÿííûé_ãðàäèåíò_2-2" x1="13.33" y1="-65.41" x2="1.36" y2="-65.56" xlink:href="#Áåçûìÿííûé_ãðàäèåíò_2"/><linearGradient id="Áåçûìÿííûé_ãðàäèåíò_2-3" x1="13.17" y1="-54.17" x2="1.2" y2="-54.31" xlink:href="#Áåçûìÿííûé_ãðàäèåíò_2"/><linearGradient id="Áåçûìÿííûé_ãðàäèåíò_2-4" x1="13.01" y1="-42.59" x2="1.01" y2="-42.73" xlink:href="#Áåçûìÿííûé_ãðàäèåíò_2"/><linearGradient id="Áåçûìÿííûé_ãðàäèåíò_2-5" x1="12.86" y1="-32.05" x2="0.86" y2="-32.2" xlink:href="#Áåçûìÿííûé_ãðàäèåíò_2"/><linearGradient id="Áåçûìÿííûé_ãðàäèåíò_2-6" x1="12.69" y1="-19.87" x2="0.68" y2="-20.02" xlink:href="#Áåçûìÿííûé_ãðàäèåíò_2"/><linearGradient id="Áåçûìÿííûé_ãðàäèåíò_2-7" x1="12.54" y1="-9.06" x2="0.54" y2="-9.21" xlink:href="#Áåçûìÿííûé_ãðàäèåíò_2"/><linearGradient id="Áåçûìÿííûé_ãðàäèåíò_2-8" x1="12.38" y1="2.31" x2="0.37" y2="2.17" xlink:href="#Áåçûìÿííûé_ãðàäèåíò_2"/><linearGradient id="Áåçûìÿííûé_ãðàäèåíò_2-9" x1="12.22" y1="13.17" x2="0.25" y2="13.02" xlink:href="#Áåçûìÿííûé_ãðàäèåíò_2"/><linearGradient id="Áåçûìÿííûé_ãðàäèåíò_2-10" x1="12.09" y1="22.99" x2="0.08" y2="22.85" xlink:href="#Áåçûìÿííûé_ãðàäèåíò_2"/><linearGradient id="Áåçûìÿííûé_ãðàäèåíò_4-15" x1="14.65" y1="-26.95" x2="0.53" y2="-27.24" gradientTransform="matrix(1.03, 0, -0.01, 0.97, 281.85, 173.9)" xlink:href="#Áåçûìÿííûé_ãðàäèåíò_4"/><linearGradient id="Áåçûìÿííûé_ãðàäèåíò_4-16" x1="14296.34" y1="177.92" x2="14358.81" y2="177.92" gradientTransform="matrix(-1, 0, 0, 1, 14558.09, 0)" xlink:href="#Áåçûìÿííûé_ãðàäèåíò_4"/><linearGradient id="Áåçûìÿííûé_ãðàäèåíò_4-17" x1="14295.22" y1="93.04" x2="14352.14" y2="93.04" gradientTransform="matrix(-1, 0, 0, 1, 14558.09, 0)" xlink:href="#Áåçûìÿííûé_ãðàäèåíò_4"/><linearGradient id="Áåçûìÿííûé_ãðàäèåíò_6-7" x1="14566" y1="150.57" x2="14566" y2="123.36" gradientTransform="matrix(-1, 0, -0.04, 1, 14799.52, -17.46)" xlink:href="#Áåçûìÿííûé_ãðàäèåíò_6"/><linearGradient id="Áåçûìÿííûé_ãðàäèåíò_18-7" x1="14566.37" y1="148.9" x2="14566.37" y2="134.34" gradientTransform="matrix(-1, 0, -0.04, 1, 14799.52, -17.46)" xlink:href="#Áåçûìÿííûé_ãðàäèåíò_18"/><linearGradient id="Áåçûìÿííûé_ãðàäèåíò_6-8" x1="14307.18" y1="131.5" x2="14307.18" y2="102.81" gradientTransform="matrix(-1, 0, 0, 1, 14558.09, 0)" xlink:href="#Áåçûìÿííûé_ãðàäèåíò_6"/><linearGradient id="Áåçûìÿííûé_ãðàäèåíò_18-8" x1="14307.58" y1="129.75" x2="14307.58" y2="114.38" gradientTransform="matrix(-1, 0, 0, 1, 14558.09, 0)" xlink:href="#Áåçûìÿííûé_ãðàäèåíò_18"/><linearGradient id="Áåçûìÿííûé_ãðàäèåíò_6-9" x1="14330.5" y1="131.11" x2="14330.5" y2="102.9" gradientTransform="matrix(-1, 0, 0, 1, 14558.09, 0)" xlink:href="#Áåçûìÿííûé_ãðàäèåíò_6"/><linearGradient id="Áåçûìÿííûé_ãðàäèåíò_18-9" x1="14330.89" y1="129.38" x2="14330.89" y2="114.28" gradientTransform="matrix(-1, 0, 0, 1, 14558.09, 0)" xlink:href="#Áåçûìÿííûé_ãðàäèåíò_18"/><linearGradient id="Áåçûìÿííûé_ãðàäèåíò_6-10" x1="14565.8" y1="187.18" x2="14565.8" y2="159.97" gradientTransform="matrix(-1, 0, -0.04, 1, 14799.52, -17.46)" xlink:href="#Áåçûìÿííûé_ãðàäèåíò_6"/><linearGradient id="Áåçûìÿííûé_ãðàäèåíò_18-10" x1="14566.17" y1="185.51" x2="14566.17" y2="170.95" gradientTransform="matrix(-1, 0, -0.04, 1, 14799.52, -17.46)" xlink:href="#Áåçûìÿííûé_ãðàäèåíò_18"/><linearGradient id="Áåçûìÿííûé_ãðàäèåíò_6-11" x1="14308.56" y1="168.22" x2="14308.56" y2="139.53" gradientTransform="matrix(-1, 0, 0, 1, 14558.09, 0)" xlink:href="#Áåçûìÿííûé_ãðàäèåíò_6"/><linearGradient id="Áåçûìÿííûé_ãðàäèåíò_18-11" x1="14308.96" y1="166.47" x2="14308.96" y2="151.11" gradientTransform="matrix(-1, 0, 0, 1, 14558.09, 0)" xlink:href="#Áåçûìÿííûé_ãðàäèåíò_18"/><linearGradient id="Áåçûìÿííûé_ãðàäèåíò_6-12" x1="14331.88" y1="167.83" x2="14331.88" y2="139.63" gradientTransform="matrix(-1, 0, 0, 1, 14558.09, 0)" xlink:href="#Áåçûìÿííûé_ãðàäèåíò_6"/><linearGradient id="Áåçûìÿííûé_ãðàäèåíò_18-12" x1="14332.27" y1="166.1" x2="14332.27" y2="151" gradientTransform="matrix(-1, 0, 0, 1, 14558.09, 0)" xlink:href="#Áåçûìÿííûé_ãðàäèåíò_18"/><linearGradient id="Áåçûìÿííûé_ãðàäèåíò_26-3" x1="134.39" y1="190.56" x2="195.04" y2="8.03" xlink:href="#Áåçûìÿííûé_ãðàäèåíò_26"/><linearGradient id="Áåçûìÿííûé_ãðàäèåíò_4-18" x1="217.92" y1="54.21" x2="202.11" y2="54.42" gradientTransform="matrix(1, 0, 0, 1, 0, 0)" xlink:href="#Áåçûìÿííûé_ãðàäèåíò_4"/><linearGradient id="Áåçûìÿííûé_ãðàäèåíò_4-19" x1="426.15" y1="26.4" x2="407.6" y2="26.4" gradientTransform="matrix(1.01, -0.01, 0.02, 0.99, -216.1, 140.84)" xlink:href="#Áåçûìÿííûé_ãðàäèåíò_4"/><linearGradient id="Áåçûìÿííûé_ãðàäèåíò_4-20" x1="426.2" y1="12.93" x2="407.67" y2="12.93" gradientTransform="matrix(1.01, -0.01, 0.02, 0.99, -216.1, 140.84)" xlink:href="#Áåçûìÿííûé_ãðàäèåíò_4"/><linearGradient id="Áåçûìÿííûé_ãðàäèåíò_4-21" x1="426.27" y1="-1.37" x2="407.73" y2="-1.37" gradientTransform="matrix(1.01, -0.01, 0.02, 0.99, -216.1, 140.84)" xlink:href="#Áåçûìÿííûé_ãðàäèåíò_4"/><linearGradient id="Áåçûìÿííûé_ãðàäèåíò_4-22" x1="426.02" y1="51.23" x2="407.51" y2="51.23" gradientTransform="matrix(1.01, -0.01, 0.02, 0.99, -216.1, 140.84)" xlink:href="#Áåçûìÿííûé_ãðàäèåíò_4"/><linearGradient id="Áåçûìÿííûé_ãðàäèåíò_4-23" x1="426.09" y1="39.63" x2="407.55" y2="39.63" gradientTransform="matrix(1.01, -0.01, 0.02, 0.99, -216.1, 140.84)" xlink:href="#Áåçûìÿííûé_ãðàäèåíò_4"/><linearGradient id="Áåçûìÿííûé_ãðàäèåíò_4-24" x1="426.38" y1="-29.79" x2="407.87" y2="-29.79" gradientTransform="matrix(1.01, -0.01, 0.02, 0.99, -216.1, 140.84)" xlink:href="#Áåçûìÿííûé_ãðàäèåíò_4"/><linearGradient id="Áåçûìÿííûé_ãðàäèåíò_4-25" x1="426.51" y1="-58.06" x2="408" y2="-58.06" gradientTransform="matrix(1.01, -0.01, 0.02, 0.99, -216.1, 140.84)" xlink:href="#Áåçûìÿííûé_ãðàäèåíò_4"/><linearGradient id="Áåçûìÿííûé_ãðàäèåíò_4-26" x1="426.45" y1="-43.49" x2="407.93" y2="-43.49" gradientTransform="matrix(1.01, -0.01, 0.02, 0.99, -216.1, 140.84)" xlink:href="#Áåçûìÿííûé_ãðàäèåíò_4"/><linearGradient id="Áåçûìÿííûé_ãðàäèåíò_4-27" x1="426.57" y1="-71.53" x2="408.06" y2="-71.53" gradientTransform="matrix(1.01, -0.01, 0.02, 0.99, -216.1, 140.84)" xlink:href="#Áåçûìÿííûé_ãðàäèåíò_4"/><linearGradient id="Áåçûìÿííûé_ãðàäèåíò_4-28" x1="426.33" y1="-16.16" x2="407.8" y2="-16.16" gradientTransform="matrix(1.01, -0.01, 0.02, 0.99, -216.1, 140.84)" xlink:href="#Áåçûìÿííûé_ãðàäèåíò_4"/><linearGradient id="Áåçûìÿííûé_ãðàäèåíò_2-11" x1="425.74" y1="-71.8" x2="411.57" y2="-71.97" gradientTransform="matrix(1.01, -0.01, 0.02, 0.99, -216.1, 140.84)" xlink:href="#Áåçûìÿííûé_ãðàäèåíò_2"/><linearGradient id="Áåçûìÿííûé_ãðàäèåíò_2-12" x1="425.54" y1="-57.61" x2="411.41" y2="-57.78" gradientTransform="matrix(1.01, -0.01, 0.02, 0.99, -216.1, 140.84)" xlink:href="#Áåçûìÿííûé_ãðàäèåíò_2"/><linearGradient id="Áåçûìÿííûé_ãðàäèåíò_2-13" x1="425.35" y1="-43.69" x2="411.22" y2="-43.86" gradientTransform="matrix(1.01, -0.01, 0.02, 0.99, -216.1, 140.84)" xlink:href="#Áåçûìÿííûé_ãðàäèåíò_2"/><linearGradient id="Áåçûìÿííûé_ãðàäèåíò_2-14" x1="425.15" y1="-29.35" x2="410.99" y2="-29.52" gradientTransform="matrix(1.01, -0.01, 0.02, 0.99, -216.1, 140.84)" xlink:href="#Áåçûìÿííûé_ãðàäèåíò_2"/><linearGradient id="Áåçûìÿííûé_ãðàäèåíò_2-15" x1="424.97" y1="-16.31" x2="410.8" y2="-16.48" gradientTransform="matrix(1.01, -0.01, 0.02, 0.99, -216.1, 140.84)" xlink:href="#Áåçûìÿííûé_ãðàäèåíò_2"/><linearGradient id="Áåçûìÿííûé_ãðàäèåíò_2-16" x1="424.76" y1="-1.23" x2="410.58" y2="-1.4" gradientTransform="matrix(1.01, -0.01, 0.02, 0.99, -216.1, 140.84)" xlink:href="#Áåçûìÿííûé_ãðàäèåíò_2"/><linearGradient id="Áåçûìÿííûé_ãðàäèåíò_2-17" x1="424.57" y1="12.15" x2="410.4" y2="11.98" gradientTransform="matrix(1.01, -0.01, 0.02, 0.99, -216.1, 140.84)" xlink:href="#Áåçûìÿííûé_ãðàäèåíò_2"/><linearGradient id="Áåçûìÿííûé_ãðàäèåíò_2-18" x1="424.38" y1="26.23" x2="410.2" y2="26.06" gradientTransform="matrix(1.01, -0.01, 0.02, 0.99, -216.1, 140.84)" xlink:href="#Áåçûìÿííûé_ãðàäèåíò_2"/><linearGradient id="Áåçûìÿííûé_ãðàäèåíò_2-19" x1="424.18" y1="39.67" x2="410.05" y2="39.5" gradientTransform="matrix(1.01, -0.01, 0.02, 0.99, -216.1, 140.84)" xlink:href="#Áåçûìÿííûé_ãðàäèåíò_2"/><linearGradient id="Áåçûìÿííûé_ãðàäèåíò_2-20" x1="424.02" y1="51.83" x2="409.85" y2="51.66" gradientTransform="matrix(1.01, -0.01, 0.02, 0.99, -216.1, 140.84)" xlink:href="#Áåçûìÿííûé_ãðàäèåíò_2"/><linearGradient id="Áåçûìÿííûé_ãðàäèåíò_4-29" x1="427.05" y1="-9.99" x2="410.44" y2="-10.34" gradientTransform="matrix(1.01, -0.01, 0.02, 0.99, -216.1, 140.84)" xlink:href="#Áåçûìÿííûé_ãðàäèåíò_4"/><linearGradient id="Áåçûìÿííûé_ãðàäèåíò_4-30" x1="14022.82" y1="54.21" x2="14007" y2="54.42" gradientTransform="matrix(-1, 0, 0, 1, 14120.23, 0)" xlink:href="#Áåçûìÿííûé_ãðàäèåíò_4"/><linearGradient id="Áåçûìÿííûé_ãðàäèåíò_4-31" x1="14050.22" y1="143.74" x2="14031.67" y2="143.74" gradientTransform="matrix(-1.01, -0.01, -0.02, 0.99, 14336.33, 140.84)" xlink:href="#Áåçûìÿííûé_ãðàäèåíò_4"/><linearGradient id="Áåçûìÿííûé_ãðàäèåíò_4-32" x1="14050.27" y1="130.27" x2="14031.74" y2="130.27" gradientTransform="matrix(-1.01, -0.01, -0.02, 0.99, 14336.33, 140.84)" xlink:href="#Áåçûìÿííûé_ãðàäèåíò_4"/><linearGradient id="Áåçûìÿííûé_ãðàäèåíò_4-33" x1="14050.34" y1="115.97" x2="14031.8" y2="115.97" gradientTransform="matrix(-1.01, -0.01, -0.02, 0.99, 14336.33, 140.84)" xlink:href="#Áåçûìÿííûé_ãðàäèåíò_4"/><linearGradient id="Áåçûìÿííûé_ãðàäèåíò_4-34" x1="14050.09" y1="168.58" x2="14031.58" y2="168.58" gradientTransform="matrix(-1.01, -0.01, -0.02, 0.99, 14336.33, 140.84)" xlink:href="#Áåçûìÿííûé_ãðàäèåíò_4"/><linearGradient id="Áåçûìÿííûé_ãðàäèåíò_4-35" x1="14050.16" y1="156.97" x2="14031.62" y2="156.97" gradientTransform="matrix(-1.01, -0.01, -0.02, 0.99, 14336.33, 140.84)" xlink:href="#Áåçûìÿííûé_ãðàäèåíò_4"/><linearGradient id="Áåçûìÿííûé_ãðàäèåíò_4-36" x1="14050.45" y1="87.55" x2="14031.94" y2="87.55" gradientTransform="matrix(-1.01, -0.01, -0.02, 0.99, 14336.33, 140.84)" xlink:href="#Áåçûìÿííûé_ãðàäèåíò_4"/><linearGradient id="Áåçûìÿííûé_ãðàäèåíò_4-37" x1="14050.58" y1="59.28" x2="14032.07" y2="59.28" gradientTransform="matrix(-1.01, -0.01, -0.02, 0.99, 14336.33, 140.84)" xlink:href="#Áåçûìÿííûé_ãðàäèåíò_4"/><linearGradient id="Áåçûìÿííûé_ãðàäèåíò_4-38" x1="14050.52" y1="73.85" x2="14032" y2="73.85" gradientTransform="matrix(-1.01, -0.01, -0.02, 0.99, 14336.33, 140.84)" xlink:href="#Áåçûìÿííûé_ãðàäèåíò_4"/><linearGradient id="Áåçûìÿííûé_ãðàäèåíò_4-39" x1="14050.64" y1="45.81" x2="14032.13" y2="45.81" gradientTransform="matrix(-1.01, -0.01, -0.02, 0.99, 14336.33, 140.84)" xlink:href="#Áåçûìÿííûé_ãðàäèåíò_4"/><linearGradient id="Áåçûìÿííûé_ãðàäèåíò_4-40" x1="14050.4" y1="101.18" x2="14031.87" y2="101.18" gradientTransform="matrix(-1.01, -0.01, -0.02, 0.99, 14336.33, 140.84)" xlink:href="#Áåçûìÿííûé_ãðàäèåíò_4"/><linearGradient id="Áåçûìÿííûé_ãðàäèåíò_2-21" x1="14049.81" y1="45.54" x2="14035.64" y2="45.37" gradientTransform="matrix(-1.01, -0.01, -0.02, 0.99, 14336.33, 140.84)" xlink:href="#Áåçûìÿííûé_ãðàäèåíò_2"/><linearGradient id="Áåçûìÿííûé_ãðàäèåíò_2-22" x1="14049.61" y1="59.73" x2="14035.48" y2="59.56" gradientTransform="matrix(-1.01, -0.01, -0.02, 0.99, 14336.33, 140.84)" xlink:href="#Áåçûìÿííûé_ãðàäèåíò_2"/><linearGradient id="Áåçûìÿííûé_ãðàäèåíò_2-23" x1="14049.42" y1="73.66" x2="14035.29" y2="73.48" gradientTransform="matrix(-1.01, -0.01, -0.02, 0.99, 14336.33, 140.84)" xlink:href="#Áåçûìÿííûé_ãðàäèåíò_2"/><linearGradient id="Áåçûìÿííûé_ãðàäèåíò_2-24" x1="14049.22" y1="87.99" x2="14035.06" y2="87.82" gradientTransform="matrix(-1.01, -0.01, -0.02, 0.99, 14336.33, 140.84)" xlink:href="#Áåçûìÿííûé_ãðàäèåíò_2"/><linearGradient id="Áåçûìÿííûé_ãðàäèåíò_2-25" x1="14049.04" y1="101.03" x2="14034.87" y2="100.86" gradientTransform="matrix(-1.01, -0.01, -0.02, 0.99, 14336.33, 140.84)" xlink:href="#Áåçûìÿííûé_ãðàäèåíò_2"/><linearGradient id="Áåçûìÿííûé_ãðàäèåíò_2-26" x1="14048.83" y1="116.11" x2="14034.65" y2="115.94" gradientTransform="matrix(-1.01, -0.01, -0.02, 0.99, 14336.33, 140.84)" xlink:href="#Áåçûìÿííûé_ãðàäèåíò_2"/><linearGradient id="Áåçûìÿííûé_ãðàäèåíò_2-27" x1="14048.64" y1="129.49" x2="14034.47" y2="129.32" gradientTransform="matrix(-1.01, -0.01, -0.02, 0.99, 14336.33, 140.84)" xlink:href="#Áåçûìÿííûé_ãðàäèåíò_2"/><linearGradient id="Áåçûìÿííûé_ãðàäèåíò_2-28" x1="14048.45" y1="143.57" x2="14034.27" y2="143.4" gradientTransform="matrix(-1.01, -0.01, -0.02, 0.99, 14336.33, 140.84)" xlink:href="#Áåçûìÿííûé_ãðàäèåíò_2"/><linearGradient id="Áåçûìÿííûé_ãðàäèåíò_2-29" x1="14048.25" y1="157.01" x2="14034.12" y2="156.84" gradientTransform="matrix(-1.01, -0.01, -0.02, 0.99, 14336.33, 140.84)" xlink:href="#Áåçûìÿííûé_ãðàäèåíò_2"/><linearGradient id="Áåçûìÿííûé_ãðàäèåíò_2-30" x1="14048.09" y1="169.17" x2="14033.92" y2="169" gradientTransform="matrix(-1.01, -0.01, -0.02, 0.99, 14336.33, 140.84)" xlink:href="#Áåçûìÿííûé_ãðàäèåíò_2"/><linearGradient id="Áåçûìÿííûé_ãðàäèåíò_4-41" x1="14051.12" y1="107.35" x2="14034.51" y2="107.01" gradientTransform="matrix(-1.01, -0.01, -0.02, 0.99, 14336.33, 140.84)" xlink:href="#Áåçûìÿííûé_ãðàäèåíò_4"/><linearGradient id="Áåçûìÿííûé_ãðàäèåíò_2-31" x1="154.94" y1="-12.38" x2="158.05" y2="68.73" gradientTransform="matrix(1, 0, 0, 1, 0, 0)" xlink:href="#Áåçûìÿííûé_ãðàäèåíò_2"/><linearGradient id="Áåçûìÿííûé_ãðàäèåíò_6-13" x1="128.68" y1="113.5" x2="128.68" y2="71.02" gradientTransform="matrix(1, 0, 0, 1, 0, 0)" xlink:href="#Áåçûìÿííûé_ãðàäèåíò_6"/><linearGradient id="Áåçûìÿííûé_ãðàäèåíò_18-13" x1="129.27" y1="110.9" x2="129.27" y2="88.16" gradientTransform="matrix(1, 0, 0, 1, 0, 0)" xlink:href="#Áåçûìÿííûé_ãðàäèåíò_18"/><linearGradient id="Áåçûìÿííûé_ãðàäèåíò_6-14" x1="14103.18" y1="113.5" x2="14103.18" y2="71.02" gradientTransform="matrix(-1, 0, 0, 1, 14289.77, 0)" xlink:href="#Áåçûìÿííûé_ãðàäèåíò_6"/><linearGradient id="Áåçûìÿííûé_ãðàäèåíò_18-14" x1="14103.76" y1="110.9" x2="14103.76" y2="88.16" gradientTransform="matrix(-1, 0, 0, 1, 14289.77, 0)" xlink:href="#Áåçûìÿííûé_ãðàäèåíò_18"/><linearGradient id="Áåçûìÿííûé_ãðàäèåíò_6-15" x1="-0.45" y1="114.03" x2="-0.45" y2="67.91" gradientTransform="matrix(1, 0, -0.03, 1, 160.15, 0)" xlink:href="#Áåçûìÿííûé_ãðàäèåíò_6"/><linearGradient id="Áåçûìÿííûé_ãðàäèåíò_18-15" x1="0.18" y1="111.21" x2="0.18" y2="86.52" gradientTransform="matrix(1, 0, -0.03, 1, 160.15, 0)" xlink:href="#Áåçûìÿííûé_ãðàäèåíò_18"/><linearGradient id="Áåçûìÿííûé_ãðàäèåíò_3" x1="160.39" y1="59.08" x2="156.15" y2="25.84" gradientUnits="userSpaceOnUse"><stop offset="0" stop-color="#fffbe4"/><stop offset="1" stop-color="#ffe696"/></linearGradient><linearGradient id="Áåçûìÿííûé_ãðàäèåíò_88" x1="169.4" y1="35.35" x2="142.63" y2="53.77" gradientUnits="userSpaceOnUse"><stop offset="0" stop-color="#f3c87b"/><stop offset="0.09" stop-color="#f5bd69"/><stop offset="0.39" stop-color="#f99b30"/><stop offset="0.54" stop-color="#fb8e1a"/><stop offset="0.62" stop-color="#f5891a"/><stop offset="0.73" stop-color="#e47b19"/><stop offset="0.85" stop-color="#c96417"/><stop offset="0.99" stop-color="#a24415"/><stop offset="1" stop-color="#9e4015"/></linearGradient><linearGradient id="Áåçûìÿííûé_ãðàäèåíò_2-32" x1="103.71" y1="127.54" x2="210.54" y2="127.54" gradientTransform="matrix(1, 0, 0, 1, 0, 0)" xlink:href="#Áåçûìÿííûé_ãðàäèåíò_2"/><linearGradient id="Áåçûìÿííûé_ãðàäèåíò_2-33" x1="109.02" y1="131.77" x2="204.38" y2="131.77" gradientTransform="matrix(1, 0, 0, 1, 0, 0)" xlink:href="#Áåçûìÿííûé_ãðàäèåíò_2"/><linearGradient id="Áåçûìÿííûé_ãðàäèåíò_2-34" x1="120.4" y1="160.93" x2="135.55" y2="160.93" gradientTransform="matrix(1, 0, 0, 1, 0, 0)" xlink:href="#Áåçûìÿííûé_ãðàäèåíò_2"/><linearGradient id="Áåçûìÿííûé_ãðàäèåíò_2-35" x1="116.69" y1="135.16" x2="136.35" y2="135.16" gradientTransform="matrix(1, 0, 0, 1, 0, 0)" xlink:href="#Áåçûìÿííûé_ãðàäèåíò_2"/><linearGradient id="Áåçûìÿííûé_ãðàäèåíò_2-36" x1="123.3" y1="187" x2="138.19" y2="187" gradientTransform="matrix(1, 0, 0, 1, 0, 0)" xlink:href="#Áåçûìÿííûé_ãðàäèåíò_2"/><linearGradient id="Áåçûìÿííûé_ãðàäèåíò_2-37" x1="-932.96" y1="160.93" x2="-917.81" y2="160.93" gradientTransform="matrix(1, 0, -0.19, 1, 1140.82, 0)" xlink:href="#Áåçûìÿííûé_ãðàäèåíò_2"/><linearGradient id="Áåçûìÿííûé_ãðàäèåíò_2-38" x1="-936.67" y1="135.16" x2="-917.02" y2="135.16" gradientTransform="matrix(1, 0, -0.19, 1, 1140.82, 0)" xlink:href="#Áåçûìÿííûé_ãðàäèåíò_2"/><linearGradient id="Áåçûìÿííûé_ãðàäèåíò_2-39" x1="-930.06" y1="187" x2="-915.17" y2="187" gradientTransform="matrix(1, 0, -0.19, 1, 1140.82, 0)" xlink:href="#Áåçûìÿííûé_ãðàäèåíò_2"/><linearGradient id="Áåçûìÿííûé_ãðàäèåíò_2-40" x1="118.36" y1="190.93" x2="195.88" y2="190.93" gradientTransform="matrix(1, 0, 0, 1, 0, 0)" xlink:href="#Áåçûìÿííûé_ãðàäèåíò_2"/><linearGradient id="Áåçûìÿííûé_ãðàäèåíò_2-41" x1="101.99" y1="196.35" x2="212.26" y2="196.35" gradientTransform="matrix(1, 0, 0, 1, 0, 0)" xlink:href="#Áåçûìÿííûé_ãðàäèåíò_2"/><clipPath id="clip-path"><rect class="cls-1" x="232.28" y="-1294.94" width="588.51" height="548.5"/></clipPath><linearGradient id="Áåçûìÿííûé_ãðàäèåíò_31" x1="564.86" y1="2.81" x2="564.86" y2="-641.44" gradientUnits="userSpaceOnUse"><stop offset="0"/><stop offset="1" stop-color="#987c6b"/></linearGradient></defs><title>Prancheta 162</title><g class="cls-2"><g id="Camada_1" data-name="Camada 1"><path class="cls-3" d="M276.5,110.33a1,1,0,0,0-1.15.13,2.75,2.75,0,0,0-.69,1,8.6,8.6,0,0,0-1,4.22,3.91,3.91,0,0,0,2.35,3.41,5,5,0,0,0-4.48,2.13,8.73,8.73,0,0,0-1.32,4.75,6.6,6.6,0,0,0,.53,3.12,3.09,3.09,0,0,0,2.48,1.8,1.25,1.25,0,0,0-1.36,1,1.34,1.34,0,0,0,.75,1.56,2.76,2.76,0,0,0,1.29,3.63,2.92,2.92,0,0,0,3.83-1.09,5.94,5.94,0,0,0,.27,2.77,1.78,1.78,0,0,0,2.06,1.2,8.27,8.27,0,0,0-2.79,2.85,2.87,2.87,0,0,0,.37,3.66c-1.48-.8-3.44.06-4.41,1.44a5,5,0,0,0-.32,4.82,5.08,5.08,0,0,0,2.34,2.56,1.76,1.76,0,0,0-2,1.09,1.8,1.8,0,0,0,.78,2.17,1.77,1.77,0,0,0-1.86,1.37,1.86,1.86,0,0,0,1,2.15,3.53,3.53,0,0,0,1.08,2.59,3,3,0,0,0,2.71.84,2.5,2.5,0,0,0,1.93-2,6.67,6.67,0,0,0,0,1.84,2.53,2.53,0,0,0,1,1.64,1.51,1.51,0,0,0,1.82,0,9.1,9.1,0,0,0-1.25,1.85,2.75,2.75,0,0,0-.4,2.08,1.68,1.68,0,0,0,1.55,1.3,4.45,4.45,0,0,0-2.07.9,2.66,2.66,0,0,0-.9,2.19,1.78,1.78,0,0,0,1.6,1.58,6.06,6.06,0,0,0-.49,3,3.07,3.07,0,0,0,1.67,2.49,2.06,2.06,0,0,0,2.67-.92,2.05,2.05,0,0,0,2.39,1.72,5.79,5.79,0,0,1-3.5,5.7,9.46,9.46,0,0,1-6.91-.41,3.8,3.8,0,0,1-3.39,2.79,4.63,4.63,0,0,1-4.06-2.09,5.57,5.57,0,0,1-.62-4.59c-.81-.22-1.06-1.21-1.3-2a2.57,2.57,0,0,1,.5-2.37c-.59-.64-.38-2,0-2.76a2.27,2.27,0,0,1,2.12-1.26c-.43-.2-.39-.76-.39-1.24a1.3,1.3,0,0,1,.72-1.15,2.72,2.72,0,0,1-2.75-.69,2.57,2.57,0,0,1-.62-2.67,3,3,0,0,1-3.3-.59,3.16,3.16,0,0,1-1-3.34,6,6,0,0,1-2.45-2.11,3.87,3.87,0,0,1-.78-3.25,2.74,2.74,0,0,1,2.45-2.08c-.38-.29-.31-.65-.58-1.05a1.59,1.59,0,0,1-.28-1.36,1,1,0,0,1,1.1-.71,2.16,2.16,0,0,1,.36-2.69,2.27,2.27,0,0,1,2.75-.38,5.82,5.82,0,0,1-1.16-2,2.42,2.42,0,0,1-.18-1.47,1.06,1.06,0,0,1,1.11-.81c-2.23-.63-3.54-3.1-3.5-5.42a5.48,5.48,0,0,1,4-5.05c-.46-.46-.19-1.61.13-2.17a1.52,1.52,0,0,1,1.66-.71A3.85,3.85,0,0,1,264,133.8a2.28,2.28,0,0,1-.16-3,2.17,2.17,0,0,1-2.18-.88,2.42,2.42,0,0,1-.52-2.45c-1.19-.78-1.49-2.18-1.61-3.6a4.78,4.78,0,0,1,1.51-4.06,3.15,3.15,0,0,1,4.11,0,5.44,5.44,0,0,1-.34-1.6,1.78,1.78,0,0,1,.45-1.49,1.08,1.08,0,0,1,1.45,0A4.59,4.59,0,0,1,267,115a1.56,1.56,0,0,1,1-1.15,1,1,0,0,1,1.24.68c0-.67,1.25-1.52,1.84-1.2a6.07,6.07,0,0,1,.75-3.6,2.47,2.47,0,0,1,1-1.22,1.19,1.19,0,0,1,1.46.21,1.7,1.7,0,0,1,2-.68C276.91,108.34,276.84,109.74,276.5,110.33Zm13.58,52.87a3,3,0,0,1,.05,2.65,3.32,3.32,0,0,1-2.07,1.85,1.8,1.8,0,0,1,.65,1.6,1.67,1.67,0,0,1-.94,1.37,2.71,2.71,0,0,1-.69,2.19,2.89,2.89,0,0,1-2.16,1,3,3,0,0,0,2.75.68,3.09,3.09,0,0,0,2-2.14,3.69,3.69,0,0,0,.76-4.53,3.26,3.26,0,0,0,2.22-1.44,5.4,5.4,0,0,0,.84-2.57,8,8,0,0,0-2.42-6.44A7.61,7.61,0,0,1,290.08,163.2Zm-1.75-18.71a4,4,0,0,1-.36,4.13,4.35,4.35,0,0,1-4.08,1.48,3.39,3.39,0,0,1-2.63,1.85,1.33,1.33,0,0,0,1,.92,1.37,1.37,0,0,0,1.29-.51,5.5,5.5,0,0,0,5.16-1.43,5.72,5.72,0,0,0,1.61-5.22,1.47,1.47,0,0,0,1.34-.61,3.93,3.93,0,0,0,.17-4.81A4.31,4.31,0,0,1,288.33,144.49Zm-3.18-13a3.71,3.71,0,0,1-3.7,2.63,2,2,0,0,0,2,1.37,3.56,3.56,0,0,0,2.29-1.24,3.38,3.38,0,0,0,1.07-2.69,4.17,4.17,0,0,0,1.46-7A8,8,0,0,1,285.15,131.54Zm-8.53-6a4.08,4.08,0,0,1-1.39-3.3,4.13,4.13,0,0,0,2.56,6.75,2.63,2.63,0,0,0,2.87-1.34C279.41,127.85,277.52,126.48,276.62,125.58Zm9.66,33.49a1.24,1.24,0,0,1-.69,1.16,2.39,2.39,0,0,1-1.4.18,4.21,4.21,0,0,1-3.43-3.15,4,4,0,0,0,1.1,4.94c0,.29-.27.59-.5.4a.86.86,0,0,0,.38.76,2.18,2.18,0,0,0,.89.36,4.24,4.24,0,0,0,2.79-.22,2.54,2.54,0,0,0,1.47-2.25,2.47,2.47,0,0,1-2.09.6C285.73,161.44,286.09,160.07,286.28,159.07Z"/><path class="cls-3" d="M280.59,187.11a4.73,4.73,0,0,1-4.65-.46,3.18,3.18,0,0,1-2.33,2.64,3.26,3.26,0,0,1-3.92-4.57c-.89-.34-1.12-1.6-1-2.55a2.25,2.25,0,0,1,1.79-2c-.86-.22-1-1.46-.78-2.32a1.8,1.8,0,0,1,2-1.37c-.42,0-.41-.54-.55-.94a1,1,0,0,1,.36-1.14c-.61-.13-.94-1.05-1.07-1.66a1.67,1.67,0,0,1,.65-1.65,1.81,1.81,0,0,1-2.22.18,2.1,2.1,0,0,1-.92-2.24,3.13,3.13,0,0,1-2.68.11,2.85,2.85,0,0,1-1.92-2,2.44,2.44,0,0,1,1-2.54c-.85.3-1.78-.52-1.94-1.41a1.63,1.63,0,0,1,1.5-1.84,5.92,5.92,0,0,1-.54-1.81,2.2,2.2,0,0,1,.36-1.84,1.34,1.34,0,0,1,1.74-.31c-.58-.08-.71-.86-.58-1.43a1.09,1.09,0,0,1,1.36-.75,4.33,4.33,0,0,1-.46-1.53,1.39,1.39,0,0,1,.35-1.45.87.87,0,0,1,1.33.27c-.72-.3-1.09-1.16-1.64-1.71a2.09,2.09,0,0,1-.63-2.12A1.29,1.29,0,0,1,267,148a6.57,6.57,0,0,1-3.48-3.22,3.43,3.43,0,0,1,3.53-4.83c-.58-.35-.6-1.15-.53-1.83a1.83,1.83,0,0,1,1.19-1.52,1.67,1.67,0,0,0,.9-1.46,1.47,1.47,0,0,0-.84-1.18,2.4,2.4,0,0,1-2.65-1.23,2.18,2.18,0,0,1,.79-2.66,3.47,3.47,0,0,1-3.08-1,2.32,2.32,0,0,1-.36-3.07,3.66,3.66,0,0,1-.74-3.28,2,2,0,0,1,.64-1.11,1.08,1.08,0,0,1,1.22-.12,3.18,3.18,0,0,1,2.58.65,6.44,6.44,0,0,1,0-2,1.17,1.17,0,0,1,.31-.81c.23-.2.67-.14.73.15-.13-.32.15-.74.32-1s.77-.28.76.07a6.72,6.72,0,0,0-.46,5.42l.32-.19a1.88,1.88,0,1,0-.14,3.71c-.38.24-.32.72-.31,1.17a1.33,1.33,0,0,0,.67,1.1,2.14,2.14,0,0,0,.08,2.3,2.06,2.06,0,0,0,2,1.07,3.6,3.6,0,0,0,1.13,4.37,2.36,2.36,0,0,0-1.13,2.41,2.43,2.43,0,0,0,1.73,2.09c-.57-.13-1,.27-1.26.79a1.38,1.38,0,0,0,.24,1.61c-.25-.44-.92-.27-1.32,0a1.52,1.52,0,0,0-.5,1.36,4.36,4.36,0,0,0,.5,1.43,5.44,5.44,0,0,0-.63,4.3,4.91,4.91,0,0,0,2.68,3.11,5,5,0,0,0-1.71,7.77c-.59,0-.88.61-1.08,1.16a1.5,1.5,0,0,0,.41,1.6c-.33,1,.43,2.15,1.18,2.9a4.34,4.34,0,0,0,2.86,1.16,8.44,8.44,0,0,0,3.1-.54,4.77,4.77,0,0,0-1.37,2.61,2.31,2.31,0,0,0,1.33,2.73,3,3,0,0,0-1.93,2.23,3,3,0,0,0,.77,2.9c-.86.24-1.13,1.34-1.09,2.23a2.48,2.48,0,0,0,1.47,2.08,3.11,3.11,0,0,0,2.6-.1A6.26,6.26,0,0,0,280.59,187.11Z"/><polygon class="cls-4" points="12.81 90.89 23.93 60.21 107.26 48.55 103.89 91.89 12.81 90.89"/><path class="cls-5" d="M31.26,59.19,24.57,91,19.15,91,29.23,59.47Zm7.93-1.11-9.46,33,5.53.06,6-33.35Zm10-1.4L40.31,91.2l5.64.06L51.17,56.4Zm10-1.39-8.22,36,5.75.07L61.12,55Zm10-1.4-7.6,37.55,5.86.07,3.74-37.9ZM79,52.5l-7,39.06,6,.08,3-39.42Zm10-1.4L82.62,91.68l6.09.08L91,50.82Zm10-1.39L93.2,91.8l6.2.09,1.53-42.46Z"/><polygon class="cls-6" points="106.18 58.78 88.82 86.16 14.73 90.91 109.22 91.81 106.18 58.78"/><polygon class="cls-7" points="110.61 200.16 28.39 200.16 20.57 93.32 110.61 93.32 110.61 200.16"/><polygon class="cls-8" points="38.74 174.01 46.16 174.01 46.67 169.81 37.87 170.12 38.74 174.01"/><polygon class="cls-8" points="34.02 166.19 41.44 166.19 41.95 161.99 33.15 162.3 34.02 166.19"/><polygon class="cls-8" points="92.48 135.31 99.89 135.31 100.4 131.12 91.61 131.42 92.48 135.31"/><polygon class="cls-8" points="95.14 129.47 102.56 129.47 103.07 125.27 94.27 125.57 95.14 129.47"/><polygon class="cls-8" points="56.44 174.13 63.86 174.13 64.37 169.93 55.57 170.23 56.44 174.13"/><polygon class="cls-8" points="98.05 164.28 105.46 164.28 105.97 160.09 97.17 160.39 98.05 164.28"/><polygon class="cls-8" points="33.54 136.39 40.96 136.39 41.47 132.19 32.67 132.49 33.54 136.39"/><polygon class="cls-9" points="28.39 200.16 26.9 179.76 110.61 179.35 110.61 200.16 28.39 200.16"/><polygon class="cls-10" points="32.83 200.16 32.51 192.7 32.93 192.66 32.4 180.75 31.98 180.71 31.62 172.49 32.09 172.52 31.49 158.91 31.02 158.94 30.64 150.09 31.11 150.13 30.49 136.03 30.02 136.02 29.7 128.78 30.39 128.75 29.75 114.15 29.06 114.12 28.76 107.27 29.61 107.35 28.93 91.77 20.04 91.75 21.06 106.2 21.89 106.28 22.42 113.75 21.85 113.73 22.95 129.28 23.52 129.25 23.98 135.77 23.52 135.75 24.49 149.41 24.95 149.44 25.67 159.6 25.21 159.64 26.08 171.89 26.54 171.92 27.11 179.91 26.7 179.87 27.66 193.44 28.06 193.41 28.39 200.16 32.83 200.16"/><polygon class="cls-11" points="31.91 200.2 25.57 200.19 24.98 191.87 31.52 191.3 31.91 200.2"/><polygon class="cls-12" points="31.96 191.87 24.62 192.51 23.79 180.81 31.51 181.54 31.96 191.87"/><polygon class="cls-13" points="31.96 191.87 25.02 192.48 25.08 193.33 31.97 192.52 31.96 191.87"/><polygon class="cls-13" points="112.68 181.8 24.59 182.23 23.31 178.54 113.24 179.08 112.68 181.8"/><polygon class="cls-14" points="112.67 179.35 22.38 179.77 21.06 176.08 113.24 176.63 112.67 179.35"/><polygon class="cls-15" points="106.28 94.67 11.51 95.16 10.13 90.91 106.88 91.54 106.28 94.67"/><path class="cls-16" d="M52.44,128.41h-16L34.09,105.8H51.47Q52,117.1,52.44,128.41Z"/><path class="cls-17" d="M35.65,115.43c.51,5,.77,7.44,1.28,12.4H52c-.23-5.27-.35-7.91-.58-13.18H49.31c.15,1.46.22,2.18.37,3.64h-.86c.19,2,.29,3,.48,5h-.46c-.1-1.14-.14-1.71-.24-2.85h-1l0-2.53-1.79-.1c.19,1.73.28,2.59.47,4.32h-.52l-.16-2.38-1.9-.06.3,3.66-.43,0c-.21-2.69-.31-4-.51-6.73l-2.09-.15c.12,1.26.19,1.9.31,3.16h-.59c.1.87.16,1.3.26,2.17H40.2c-.08-1.59-.12-2.39-.19-4l-2-.09,0-2.44Z"/><path class="cls-18" d="M45.23,106.3q1.32,10.76,2.52,21.52H45.84c-2.07-7.22-4.33-14.37-6.61-21.53Zm.66,0q1.23,10.76,2.36,21.52h.88q-.14-10.75-.19-21.52Z"/><path class="cls-19" d="M35,106.25l2.29,22.62h15l-1-22.61ZM50.56,114H44.31l-.59-6.67h6.67Zm-6.18.87h6.2l.16,6.37h-5.8Zm-7.38,0h6.42L44,121.2H37.76Zm5.75-7.54.59,6.67H36.89l-.79-6.67Zm-4.89,14.78h6.19l.51,5.76h-6Zm7.67,5.75L45,122.06h5.74l.15,5.76Z"/><path class="cls-20" d="M34.09,105.8l2.37,22.61h16l-1-22.61Zm16.55,7.71H44l-.61-6.67h7.12Zm-6.59.86h6.61l.15,6.37H44.63Zm-7.88,0H43l.58,6.37H37Zm6.16-7.54.6,6.67H36.06l-.83-6.67Zm-5.26,14.77h6.6l.53,5.76H37.78Zm8.16,5.76-.52-5.76h6.12l.14,5.76Z"/><polygon class="cls-13" points="51.72 107.14 33.83 106.84 33.58 105.61 51.96 105.61 51.72 107.14"/><polygon class="cls-21" points="52.62 105.8 32.93 105.8 32.4 103.5 52.96 103.49 52.62 105.8"/><polygon class="cls-13" points="52.2 131.31 36.8 131.04 36.58 129.96 52.41 129.95 52.2 131.31"/><polygon class="cls-21" points="52.98 130.12 36.02 130.12 35.56 128.09 53.26 128.08 52.98 130.12"/><path class="cls-22" d="M74.31,129.13H57.4q-.74-11.88-1.48-23.77H74.31Z"/><path class="cls-23" d="M57.13,115.48c.32,5.21.48,7.82.79,13h16c0-5.55,0-8.32,0-13.86H71.62c.09,1.53.14,2.29.23,3.82h-.91c.11,2.1.17,3.16.28,5.26h-.49c0-1.2-.07-1.8-.12-3h-1.1c0-1.06,0-1.6.07-2.66l-1.89-.1.3,4.54h-.54l-.07-2.5-2-.07.15,3.85-.46,0-.24-7.07-2.2-.16c.07,1.33.11,2,.19,3.32h-.63c.07.91.1,1.37.18,2.29h-.71c0-1.68,0-2.52,0-4.2l-2.16-.1c.07-1,.1-1.54.17-2.56Z"/><path class="cls-18" d="M67.69,105.88q.9,11.33,1.68,22.64h-2c-1.86-7.59-3.92-15.11-6-22.64Zm.69,0q.81,11.33,1.52,22.64h.93q.35-11.33.78-22.64Z"/><path class="cls-19" d="M56.89,105.84l1.39,23.77H74.13V105.84ZM73,113.94H66.36l-.32-7H73.1Zm-6.58.91H73l-.12,6.7H66.7Zm-7.81,0h6.79l.3,6.7H59.1ZM65,106.93l.32,7H58.52l-.54-7Zm-5.85,15.53h6.55l.28,6.06H59.63ZM67,128.52l-.27-6.06h6.07l-.11,6.06Z"/><path class="cls-20" d="M55.92,105.36l1.48,23.77H74.31V105.36Zm17.16,8.1H66l-.34-7h7.54Zm-7,.91h7l-.13,6.7H66.39Zm-8.34,0H65l.33,6.7h-7Zm6.86-7.92.34,7H57.65l-.57-7ZM58.35,122h7l.29,6.06H58.85ZM66.73,128l-.3-6.06h6.48L72.8,128Z"/><polygon class="cls-13" points="74.52 106.77 55.6 106.45 55.39 105.16 74.84 105.16 74.52 106.77"/><polygon class="cls-21" points="75.53 105.36 54.7 105.36 54.24 102.94 75.99 102.94 75.53 105.36"/><polygon class="cls-13" points="73.92 132.18 57.63 131.9 57.45 130.76 74.2 130.76 73.92 132.18"/><polygon class="cls-21" points="74.8 130.93 56.86 130.93 56.46 128.79 75.19 128.79 74.8 130.93"/><path class="cls-24" d="M97.47,128.78H80.85q-.73-11.69-1.46-23.37H97.47Z"/><path class="cls-25" d="M80.59,115.36c.31,5.12.46,7.69.77,12.81H97.05c0-5.45,0-8.17,0-13.62H94.82c.09,1.5.14,2.26.23,3.76h-.9c.11,2.07.17,3.1.28,5.16H94c0-1.17-.07-1.76-.12-2.94H92.75c0-1,0-1.57.07-2.62L91,117.82l.3,4.46h-.54c0-1,0-1.48-.06-2.46l-2-.06c0,1.51.08,2.27.14,3.78l-.45,0c-.09-2.78-.14-4.17-.23-6.95L86,116.46c.08,1.3.12,2,.19,3.26h-.62c.07.9.11,1.35.18,2.25H85c0-1.65,0-2.47,0-4.12l-2.13-.1c.07-1,.1-1.51.17-2.52Z"/><path class="cls-18" d="M91,105.93q.89,11.11,1.65,22.24h-2c-1.83-7.45-3.85-14.85-5.9-22.24Zm.68,0q.8,11.11,1.5,22.24H94q.34-11.11.78-22.24Z"/><path class="cls-19" d="M80.34,105.88l1.37,23.37H97.29V105.88Zm15.82,8H89.65l-.31-6.9h6.94Zm-6.47.89h6.45L96,121.33H90Zm-7.68,0h6.68l.3,6.59H82.52ZM88.33,107l.32,6.9H81.94l-.52-6.9Zm-5.74,15.27H89l.27,5.95H83Zm7.71,5.95L90,122.22h6l-.11,5.95Z"/><path class="cls-20" d="M79.39,105.41l1.46,23.37H97.47V105.41Zm16.87,8H89.32l-.33-6.9h7.4Zm-6.9.89h6.88l-.13,6.59H89.68Zm-8.19,0h7.12l.32,6.59h-6.9Zm6.74-7.79.34,6.9H81.1l-.57-6.9Zm-6.13,15.27h6.87l.29,6H82.27Zm8.23,6-.29-6H96.1l-.12,6Z"/><polygon class="cls-13" points="97.67 106.8 79.08 106.49 78.87 105.22 97.98 105.22 97.67 106.8"/><polygon class="cls-21" points="98.67 105.41 78.19 105.41 77.74 103.03 99.12 103.03 98.67 105.41"/><polygon class="cls-13" points="97.09 131.77 81.08 131.5 80.9 130.38 97.36 130.38 97.09 131.77"/><polygon class="cls-21" points="97.95 130.55 80.31 130.55 79.93 128.44 98.33 128.44 97.95 130.55"/><path class="cls-26" d="M53.82,165.13h-16l-2.37-22.61H52.85Q53.33,153.83,53.82,165.13Z"/><path class="cls-27" d="M37,152.15c.51,5,.77,7.44,1.28,12.4H53.4c-.24-5.28-.36-7.91-.59-13.19H50.69c.15,1.46.22,2.19.37,3.64H50.2c.19,2,.29,3,.48,5h-.46c-.09-1.14-.14-1.71-.24-2.85H49l-.05-2.53-1.79-.1c.19,1.73.29,2.6.47,4.32h-.51c-.07-1-.1-1.42-.17-2.38L45,156.4l.3,3.66-.43,0c-.21-2.69-.31-4-.51-6.72l-2.09-.16c.13,1.27.19,1.9.32,3.16H42c.1.87.16,1.31.26,2.18h-.67c-.08-1.6-.12-2.4-.19-4l-2-.1c0-1,0-1.46.06-2.44Z"/><path class="cls-18" d="M46.61,143q1.32,10.75,2.52,21.53H47.22c-2.07-7.22-4.33-14.37-6.61-21.53Zm.66,0q1.23,10.75,2.36,21.53h.88q-.13-10.77-.18-21.53Z"/><path class="cls-19" d="M36.4,143l2.29,22.61h15L52.7,143Zm15.54,7.7H45.69L45.1,144h6.68Zm-6.18.87H52l.16,6.37H46.33Zm-7.38,0H44.8l.56,6.37H39.14ZM44.13,144l.59,6.68H38.28l-.8-6.67Zm-4.89,14.78h6.19l.51,5.76h-6Zm7.67,5.76-.51-5.76h5.74l.15,5.76Z"/><path class="cls-20" d="M35.47,142.52l2.37,22.61h16l-1-22.61ZM52,150.23H45.35l-.61-6.67h7.12Zm-6.59.87H52l.15,6.37H46Zm-7.88,0h6.84l.58,6.37H38.34Zm6.16-7.54.61,6.67H37.44l-.83-6.67Zm-5.26,14.77h6.6l.53,5.76H39.16Zm8.16,5.76-.52-5.76h6.12l.14,5.76Z"/><polygon class="cls-13" points="53.1 143.86 35.21 143.56 34.96 142.33 53.34 142.33 53.1 143.86"/><polygon class="cls-21" points="54.01 142.52 34.31 142.52 33.78 140.22 54.34 140.22 54.01 142.52"/><polygon class="cls-13" points="53.59 168.03 38.18 167.77 37.96 166.68 53.79 166.68 53.59 168.03"/><polygon class="cls-21" points="54.36 166.84 37.4 166.85 36.94 164.81 54.64 164.81 54.36 166.84"/><path class="cls-28" d="M75.69,165.85H58.78Q58,154,57.3,142.08H75.69Z"/><path class="cls-29" d="M58.52,152.2c.31,5.22.47,7.82.78,13h16c0-5.54,0-8.32,0-13.86H73c.09,1.53.14,2.29.23,3.83h-.91c.11,2.1.17,3.15.28,5.25h-.49c0-1.2-.07-1.8-.12-3h-1.1c0-1.06,0-1.59.07-2.66l-1.89-.1.3,4.54h-.54l-.07-2.5-2-.06.15,3.84-.46,0c-.1-2.83-.15-4.25-.24-7.08l-2.2-.16c.07,1.33.11,2,.19,3.32h-.63c.07.92.11,1.37.18,2.29H63c0-1.68,0-2.52,0-4.2l-2.16-.09c.07-1,.1-1.54.17-2.57Z"/><path class="cls-18" d="M69.07,142.61q.9,11.31,1.68,22.63h-2c-1.86-7.59-3.92-15.11-6-22.63Zm.69,0q.81,11.31,1.52,22.63h.93q.35-11.33.79-22.63Z"/><path class="cls-19" d="M58.27,142.56l1.39,23.77H75.51V142.56Zm16.09,8.1H67.74l-.32-7h7.06Zm-6.58.91h6.56l-.12,6.7H68.09Zm-7.81,0h6.79l.3,6.7H60.48Zm6.43-7.92.32,7H59.9l-.54-7Zm-5.85,15.53H67.1l.28,6.06H61Zm7.85,6.06-.27-6.06H74.2l-.11,6.06Z"/><path class="cls-20" d="M57.3,142.08l1.48,23.77H75.69V142.08Zm17.16,8.11H67.4l-.34-7H74.6Zm-7,.91h7l-.13,6.69H67.77Zm-8.34,0h7.24l.33,6.69h-7ZM66,143.17l.34,7H59l-.57-7ZM59.73,158.7h7l.29,6.06H60.23Zm8.38,6.06-.3-6.06H74.3l-.12,6.06Z"/><polygon class="cls-13" points="75.9 143.49 56.98 143.17 56.77 141.88 76.22 141.88 75.9 143.49"/><polygon class="cls-21" points="76.91 142.08 56.08 142.08 55.62 139.66 77.37 139.66 76.91 142.08"/><polygon class="cls-13" points="75.31 168.9 59.02 168.62 58.84 167.48 75.58 167.48 75.31 168.9"/><polygon class="cls-21" points="76.18 167.65 58.24 167.65 57.84 165.51 76.57 165.51 76.18 167.65"/><path class="cls-30" d="M98.85,165.5H82.23q-.74-11.69-1.46-23.37H98.85Z"/><path class="cls-31" d="M82,152.08c.31,5.13.46,7.69.77,12.82H98.43c0-5.45,0-8.18,0-13.63H96.2c.1,1.51.14,2.26.23,3.76h-.9c.12,2.07.17,3.1.28,5.17h-.48c0-1.18-.07-1.77-.12-2.95H94.13c0-1,0-1.57.07-2.61l-1.86-.1.3,4.46H92.1c0-1,0-1.47-.06-2.46l-2-.06c.06,1.51.09,2.27.14,3.78l-.45,0c-.09-2.78-.14-4.17-.23-6.95l-2.17-.16c.08,1.31.12,2,.19,3.27h-.62c.07.9.11,1.34.18,2.24h-.7c0-1.65,0-2.47,0-4.12l-2.13-.1c.07-1,.1-1.51.17-2.52Z"/><path class="cls-18" d="M92.34,142.65q.89,11.11,1.65,22.25H92c-1.82-7.46-3.85-14.85-5.9-22.25Zm.68,0q.8,11.11,1.5,22.25h.9q.35-11.13.78-22.25Z"/><path class="cls-19" d="M81.73,142.6,83.09,166H98.67V142.6Zm15.81,8H91l-.31-6.89h6.94Zm-6.46.89h6.44l-.12,6.59h-6Zm-7.69,0h6.68l.3,6.59H83.9Zm6.33-7.78.31,6.89h-6.7l-.53-6.89ZM84,158.94h6.44l.27,6H84.42Zm7.71,6-.27-6h6l-.1,6Z"/><path class="cls-20" d="M80.77,142.13l1.46,23.37H98.85V142.13Zm16.87,8H90.7l-.33-6.89h7.4Zm-6.9.89h6.88l-.13,6.59H91.06Zm-8.19,0h7.12l.32,6.59h-6.9Zm6.74-7.78.34,6.89H82.48l-.57-6.89Zm-6.13,15.26H90l.29,6H83.65Zm8.23,6-.28-6h6.37l-.12,6Z"/><polygon class="cls-13" points="99.05 143.52 80.46 143.21 80.25 141.94 99.37 141.94 99.05 143.52"/><polygon class="cls-21" points="100.05 142.13 79.57 142.13 79.12 139.75 100.5 139.75 100.05 142.13"/><polygon class="cls-13" points="98.47 168.5 82.46 168.22 82.28 167.1 98.74 167.1 98.47 168.5"/><polygon class="cls-21" points="99.33 167.27 81.69 167.27 81.31 165.16 99.72 165.16 99.33 167.27"/><polygon class="cls-13" points="17.3 95.13 17.59 99.27 110.61 100.84 110.61 94.09 17.3 95.13"/><polygon class="cls-32" points="104.09 50.51 24.78 61.33 15.63 88.24 27.32 63.39 104.09 50.51"/><polygon class="cls-33" points="91.53 194.78 98.95 194.78 99.46 190.58 90.66 190.88 91.53 194.78"/><polygon class="cls-33" points="81.13 191.03 88.54 191.03 89.05 186.83 80.25 187.13 81.13 191.03"/><polygon class="cls-33" points="45.08 195.79 52.49 195.79 53 191.59 44.2 191.9 45.08 195.79"/><polygon class="cls-33" points="40.68 190.69 48.09 190.69 48.6 186.49 39.8 186.8 40.68 190.69"/><polygon class="cls-33" points="94.2 188.93 101.61 188.93 102.12 184.73 93.33 185.04 94.2 188.93"/><polygon class="cls-4" points="303.21 90.89 292.1 60.21 208.76 48.55 212.13 91.89 303.21 90.89"/><path class="cls-5" d="M286.79,59.47,296.87,91l-5.41.05-6.7-31.82Zm-12-1.68,5.95,33.35,5.53-.06-9.46-33Zm-10-1.39,5.22,34.86,5.64-.06-8.84-34.52ZM254.9,55l4.48,36.38,5.75-.07-8.22-36Zm-10-1.4,3.74,37.9,5.86-.07L247,53.89Zm-10-1.39,3,39.42,6-.08L237,52.5Zm-10-1.4,2.27,40.94,6.09-.08L227,51.1Zm-9.95-1.39,1.53,42.46,6.2-.09-5.76-42.09Z"/><polygon class="cls-6" points="209.84 58.78 227.21 86.16 301.29 90.91 206.8 91.81 209.84 58.78"/><polygon class="cls-34" points="205.41 200.16 287.63 200.16 295.46 93.32 205.41 93.32 205.41 200.16"/><polygon class="cls-8" points="277.28 174.01 269.86 174.01 269.35 169.81 278.15 170.12 277.28 174.01"/><polygon class="cls-8" points="282 166.19 274.58 166.19 274.07 161.99 282.87 162.3 282 166.19"/><polygon class="cls-8" points="223.54 135.31 216.13 135.31 215.62 131.12 224.42 131.42 223.54 135.31"/><polygon class="cls-8" points="220.88 129.47 213.46 129.47 212.95 125.27 221.75 125.57 220.88 129.47"/><polygon class="cls-8" points="259.58 174.13 252.16 174.13 251.65 169.93 260.45 170.23 259.58 174.13"/><polygon class="cls-8" points="217.97 164.28 210.56 164.28 210.05 160.09 218.85 160.39 217.97 164.28"/><polygon class="cls-8" points="282.48 136.39 275.06 136.39 274.56 132.19 283.35 132.49 282.48 136.39"/><polygon class="cls-9" points="287.63 200.16 289.12 179.76 205.41 179.35 205.41 200.16 287.63 200.16"/><polygon class="cls-10" points="283.19 200.16 283.51 192.7 283.1 192.66 283.62 180.75 284.04 180.71 284.4 172.49 283.93 172.52 284.53 158.91 285 158.94 285.38 150.09 284.91 150.13 285.53 136.03 286 136.02 286.32 128.78 285.64 128.75 286.28 114.15 286.96 114.12 287.26 107.27 286.41 107.35 287.09 91.77 295.98 91.75 294.96 106.2 294.13 106.28 293.6 113.75 294.17 113.73 293.07 129.28 292.5 129.25 292.04 135.77 292.5 135.75 291.53 149.41 291.07 149.44 290.35 159.6 290.81 159.64 289.94 171.89 289.48 171.92 288.92 179.91 289.32 179.87 288.36 193.44 287.96 193.41 287.63 200.16 283.19 200.16"/><polygon class="cls-35" points="284.91 182.1 291.78 181.45 292.56 170.46 285.4 170.94 284.91 182.1"/><polygon class="cls-36" points="284.9 171.6 292.98 171.07 293.73 160.44 285.42 159.83 284.9 171.6"/><polygon class="cls-37" points="285.86 160.49 293.23 161.04 294.15 148 286.38 148.55 285.86 160.49"/><polygon class="cls-38" points="284.12 200.2 290.46 200.19 291.05 191.87 284.51 191.3 284.12 200.2"/><polygon class="cls-39" points="284.06 191.87 291.4 192.51 292.23 180.81 284.51 181.54 284.06 191.87"/><polygon class="cls-40" points="286.87 137.51 294.91 137.29 295.62 127.34 287.33 126.94 286.87 137.51"/><polygon class="cls-41" points="297.24 104.48 288.28 105.33 287.82 115.66 296.47 115.34 297.24 104.48"/><polygon class="cls-42" points="287.17 114.98 286.6 127.92 296.11 128.38 297.08 114.62 287.17 114.98"/><polygon class="cls-43" points="298.9 92.61 287.99 92.63 287.38 106.41 297.99 105.39 298.9 92.61"/><polygon class="cls-44" points="285.88 149.21 294.56 148.59 295.41 136.63 286.42 136.88 285.88 149.21"/><polygon class="cls-45" points="288.72 93.56 288.36 105.24 297.33 104.39 298.15 93.3 288.72 93.56"/><polygon class="cls-46" points="288.66 107.19 288.55 114.38 296.06 114.37 296.55 106.4 288.66 107.19"/><polygon class="cls-47" points="287.82 115.66 287.65 126.94 295.27 126.93 296.41 115.65 287.82 115.66"/><polygon class="cls-48" points="288.03 129.06 287.72 135.75 294.35 136.05 294.83 129.09 288.03 129.06"/><polygon class="cls-49" points="287.12 137.77 286.82 148.01 293.69 148 294.7 137.5 287.12 137.77"/><polygon class="cls-50" points="286.79 150.2 286.54 159.39 292.48 159.55 293.52 149.65 286.79 150.2"/><polygon class="cls-51" points="286.03 160.76 285.73 169.27 292.22 169.21 293.09 160.97 286.03 160.76"/><polygon class="cls-52" points="285.81 172.17 285.56 180.38 291.12 180.34 291.86 171.79 285.81 172.17"/><polygon class="cls-53" points="284.91 182.1 284.87 191.3 291.05 191.87 291.78 181.45 284.91 182.1"/><polygon class="cls-54" points="285.05 192.52 284.64 199.71 289.97 199.7 290.44 192.94 285.05 192.52"/><polygon class="cls-13" points="287.38 106.41 297.17 105.47 297.06 107 287.55 107.45 287.38 106.41"/><polygon class="cls-13" points="286.6 127.92 295.6 128.35 295.46 129.53 286.81 128.73 286.6 127.92"/><polygon class="cls-13" points="285.88 149.21 294.11 148.62 294.04 149.84 285.99 149.94 285.88 149.21"/><polygon class="cls-13" points="284.06 191.87 291 192.48 290.94 193.33 284.05 192.52 284.06 191.87"/><polygon class="cls-13" points="284.9 171.6 292.52 171.04 292.43 172.32 284.88 172.56 284.9 171.6"/><path class="cls-55" d="M287.87,99.09c.45,0,1.26.1,2,.1s1.3,0,1.3,0-.58.16-1.29.28a11,11,0,0,1-2,.16Zm6.2,1.75a12.4,12.4,0,0,0,1.63-.07,14.26,14.26,0,0,0,1.63-.25l.67-.16a5.77,5.77,0,0,0-.68-.1,8.19,8.19,0,0,0-1.65,0,7.91,7.91,0,0,0-1.62.33,6,6,0,0,0-.66.23S293.65,100.84,294.07,100.84Zm-1-4.39a23.85,23.85,0,0,0-3.47.68,23.35,23.35,0,0,0,3.51-.17,24.18,24.18,0,0,0,3.48-.68A25.21,25.21,0,0,0,293.1,96.45Zm5.25,1.42a4.66,4.66,0,0,0-1.41.13,6,6,0,0,0-.89.27s.42,0,.91,0,1,.09,1.35.12Zm-5.76,5.4a6.55,6.55,0,0,0-1.09,0,5.86,5.86,0,0,0-1.07.2,4.68,4.68,0,0,0-.45.15,3.15,3.15,0,0,0,.45.11,4.16,4.16,0,0,0,1.1,0,4.31,4.31,0,0,0,1.08-.25c.27-.11.44-.2.44-.2Zm-2.44,8.27a4.56,4.56,0,0,0-1.39.52,4.09,4.09,0,0,0,1.45,0,4.28,4.28,0,0,0,1.38-.52A4.32,4.32,0,0,0,290.15,111.54Zm4.62-2a7,7,0,0,0-1.63-.12,7.3,7.3,0,0,0-1.61.29c-.41.13-.66.24-.66.24s.26,0,.68,0,1,0,1.61,0,1.19-.09,1.6-.14l.67-.09A4.94,4.94,0,0,0,294.77,109.51Zm.26,2.59a2.38,2.38,0,0,0-1,.25,2.08,2.08,0,0,0,2,0A2.24,2.24,0,0,0,295,112.1Zm-5.5,7.21a4.1,4.1,0,0,0-.82-.12,4.8,4.8,0,0,0-.84.07,2.52,2.52,0,0,0-.36.09,2.24,2.24,0,0,0,.33.17,2.38,2.38,0,0,0,.85.19,2.29,2.29,0,0,0,.85-.14,2.1,2.1,0,0,0,.35-.16A3.46,3.46,0,0,0,289.53,119.31ZM293.3,124a14.48,14.48,0,0,0-2.7.37,14.23,14.23,0,0,0,5.41-.22A14.3,14.3,0,0,0,293.3,124Zm1.61-6.86a5.38,5.38,0,0,0-1-.08,4.75,4.75,0,0,0-1,.13,2.85,2.85,0,0,0-.42.11,3.44,3.44,0,0,0,.41.14,3,3,0,0,0,1,.14,3.58,3.58,0,0,0,1-.18,3.33,3.33,0,0,0,.4-.17A3.22,3.22,0,0,0,294.91,117.12ZM292.09,132a7,7,0,0,0-1.53-.15,6.77,6.77,0,0,0-1.53.2,4.89,4.89,0,0,0-.62.18l.63.08c.39,0,.93.07,1.52.06a14.13,14.13,0,0,0,1.52-.11l.64-.09A4.62,4.62,0,0,0,292.09,132Zm.16,1.82a2.86,2.86,0,0,0-1.15.26,2.63,2.63,0,0,0,2.28,0A2.71,2.71,0,0,0,292.25,133.77Zm-1.18,5.9a7.6,7.6,0,0,0-1.89.49,7.09,7.09,0,0,0,1.93,0,7.77,7.77,0,0,0,1.89-.49A7.64,7.64,0,0,0,291.07,139.67Zm-1,4.65a9.84,9.84,0,0,0-2.18.38,9.84,9.84,0,0,0,2.19.14,9.49,9.49,0,0,0,2.18-.39A9.52,9.52,0,0,0,290.05,144.32Zm1.77,9.83a10,10,0,0,0-1.35,0,9.18,9.18,0,0,0-1.34.2,5.14,5.14,0,0,0-.56.14s.21.06.56.12a6.27,6.27,0,0,0,1.36.06,6.6,6.6,0,0,0,1.35-.26c.34-.11.55-.2.55-.2A5.17,5.17,0,0,0,291.82,154.15ZM287.89,167a6,6,0,0,0-1.65.41,5.46,5.46,0,0,0,3.32-.3A5.58,5.58,0,0,0,287.89,167Zm3.84-4.17a10.58,10.58,0,0,0-1.37-.15,11.09,11.09,0,0,0-1.39.06c-.35,0-.58.07-.58.07a5,5,0,0,0,.56.18,6,6,0,0,0,1.39.21,6.2,6.2,0,0,0,1.39-.11,5,5,0,0,0,.57-.14S292.08,162.9,291.73,162.84ZM288.28,174a7.58,7.58,0,0,0-1.8.67,6.93,6.93,0,0,0,1.88-.16,7.37,7.37,0,0,0,1.8-.67A6.94,6.94,0,0,0,288.28,174Zm1.4,4.22a1.5,1.5,0,0,0-1.35,0,1.48,1.48,0,0,0-.27.16,2.51,2.51,0,0,0,.94.2,2.48,2.48,0,0,0,.66-.1,2.34,2.34,0,0,0,.28-.1A1.6,1.6,0,0,0,289.68,178.26Zm.43,6.53a8.8,8.8,0,0,0-1.25.09,11.07,11.07,0,0,0-1.23.28c-.32.1-.52.18-.52.18a3.85,3.85,0,0,0,.53.08,5,5,0,0,0,1.27,0,5.57,5.57,0,0,0,1.23-.35,4.81,4.81,0,0,0,.5-.24S290.43,184.79,290.11,184.79Zm-2.18,4.84a9.27,9.27,0,0,0-2.37.2,13.46,13.46,0,0,0,2.34.32,13,13,0,0,0,2.36-.11A9.39,9.39,0,0,0,287.93,189.63Zm-.66,4.78a5.67,5.67,0,0,0-1.68.11,5.69,5.69,0,0,0,1.64.4,5.63,5.63,0,0,0,1.67-.11A5.68,5.68,0,0,0,287.27,194.41Zm2,3.14a1.82,1.82,0,0,0-.87-.17,2,2,0,0,0-.86.26,2.79,2.79,0,0,0-.32.22l.37,0c.22,0,.51,0,.82,0s.61-.06.83-.09l.36-.06A1.7,1.7,0,0,0,289.22,197.55ZM288.29,109a14.94,14.94,0,0,0,1.76-.55,14.58,14.58,0,0,0-1.81,0Zm7.83,10.92c-.89,0-3.22.22-3.22.22s2.32.29,3.21.3Zm-8.6,2.95c.81-.07,2.92-.52,2.92-.52s-2.13-.07-2.94,0Zm7.43,7.37c-1.36-.14-4.93-.24-4.93-.24s3.53.62,4.88.75ZM286.68,143c1.44-.16,5.2-.84,5.2-.84s-3.79.17-5.23.33Zm7.3,3.41c-.86,0-3.11.36-3.11.36s2.25.19,3.12.16Zm-7.49,6.25c1.71-.19,6.18-1,6.18-1s-4.5.26-6.22.46Zm-.19,4.88c.64,0,1.78-.14,2.77-.18s1.83,0,1.83,0-.82-.13-1.82-.21a23.43,23.43,0,0,0-2.79-.08Zm-.67,7.45c.95.05,3.47-.07,3.47-.07s-2.49-.4-3.45-.45Zm7.08,1.5a5.44,5.44,0,0,0-1.32-.21,6.86,6.86,0,0,0-.87,0s.39.09.83.24.95.35,1.23.45ZM285.24,177a26.21,26.21,0,0,0,3.37-.88c1.19-.39,2.17-.78,2.17-.78s-1,.27-2.21.52-2.61.5-3.39.63Zm.14,3a13.41,13.41,0,0,0,1.62-.43,13.55,13.55,0,0,0-1.65-.09Zm-.79,4c.89-.18,3.2-.89,3.2-.89s-2.38.2-3.27.37Zm0,3.75c1.3,0,4.71-.27,4.71-.27s-3.4-.25-4.7-.25Zm.08,8.64c1.39-.13,5-.72,5-.72s-3.64.08-5,.21Zm5.58,2.13a16.3,16.3,0,0,0-2,0,19.07,19.07,0,0,0,1.9.49Z"/><polygon class="cls-13" points="287.86 114.96 287.88 114.38 296.52 114.66 287.86 114.96"/><polygon class="cls-13" points="286.88 136.86 286.92 136.29 294.96 136.65 286.88 136.86"/><polygon class="cls-13" points="285.88 159.86 285.88 159.3 293.27 160.41 285.88 159.86"/><polygon class="cls-13" points="284.94 181.46 284.96 180.99 291.83 180.84 284.94 181.46"/><polygon class="cls-13" points="203.34 181.8 291.43 182.23 292.71 178.54 202.78 179.08 203.34 181.8"/><polygon class="cls-56" points="203.35 179.35 293.64 179.77 294.96 176.08 202.78 176.63 203.35 179.35"/><polygon class="cls-57" points="209.74 94.67 304.51 95.16 305.89 90.91 209.14 91.54 209.74 94.67"/><path class="cls-58" d="M263.58,128.41h16q1.19-11.31,2.38-22.61H264.55Q264.07,117.1,263.58,128.41Z"/><path class="cls-59" d="M280.37,115.43c-.51,5-.77,7.44-1.28,12.4H264c.23-5.27.35-7.91.59-13.18h2.11c-.15,1.46-.22,2.18-.37,3.64h.86c-.19,2-.29,3-.48,5h.46c.1-1.14.14-1.71.24-2.85h1c0-1,0-1.52,0-2.53l1.79-.1c-.19,1.73-.28,2.59-.47,4.32h.52l.16-2.38,1.9-.06-.3,3.66.43,0c.21-2.69.31-4,.52-6.73l2.08-.15c-.12,1.26-.19,1.9-.31,3.16h.59c-.1.87-.15,1.3-.26,2.17h.67l.2-4,2-.09L278,115.3Z"/><path class="cls-18" d="M276.79,106.3c-2.28,7.16-4.54,14.31-6.6,21.53h-1.92q1.22-10.75,2.52-21.52Zm-9.71,0q0,10.76-.19,21.52h.88q1.14-10.75,2.36-21.52Z"/><path class="cls-19" d="M264.7,106.25l-1,22.61h15L281,106.25Zm.93,1h6.67l-.59,6.67h-6.25Zm5.45,13.91h-5.8l.16-6.37h6.2Zm7.18,0H272l.57-6.37H279Zm1.66-13.91-.79,6.67h-6.45l.59-6.67Zm-2.45,20.54h-6l.51-5.76h6.19Zm-12.36,0,.15-5.76H271l-.51,5.76Z"/><path class="cls-20" d="M264.55,105.8l-1,22.61h16l2.38-22.61Zm1,1h7.12l-.61,6.67h-6.67Zm5.85,13.9h-6.18l.15-6.37H272Zm7.67,0h-6.63l.58-6.37h6.84Zm1.73-13.9-.83,6.67h-6.87l.6-6.67Zm-2.55,20.53h-6.42l.53-5.76H279Zm-13.19,0,.14-5.76h6.13l-.53,5.76Z"/><polygon class="cls-13" points="264.3 107.14 282.19 106.84 282.44 105.61 264.06 105.61 264.3 107.14"/><polygon class="cls-21" points="263.4 105.8 283.09 105.8 283.62 103.5 263.06 103.49 263.4 105.8"/><polygon class="cls-13" points="263.82 131.31 279.23 131.04 279.44 129.96 263.62 129.95 263.82 131.31"/><polygon class="cls-21" points="263.04 130.12 280 130.12 280.46 128.09 262.76 128.08 263.04 130.12"/><path class="cls-60" d="M241.71,129.13h16.91q.75-11.88,1.48-23.77H241.71Z"/><path class="cls-61" d="M258.89,115.48c-.32,5.21-.48,7.82-.79,13h-16c0-5.55,0-8.32,0-13.86h2.24c-.09,1.53-.14,2.29-.23,3.82h.91c-.11,2.1-.17,3.16-.28,5.26h.49c.05-1.2.07-1.8.12-3h1.1c0-1.06,0-1.6-.07-2.66l1.89-.1-.3,4.54h.55l.06-2.5,2-.07-.15,3.85.46,0c.09-2.82.14-4.24.23-7.07l2.21-.16-.2,3.32h.64c-.08.91-.11,1.37-.19,2.29h.71c0-1.68,0-2.52,0-4.2l2.16-.1c-.07-1-.1-1.54-.17-2.56Z"/><path class="cls-18" d="M254.68,105.88c-2.08,7.53-4.15,15.05-6,22.64h-2q.79-11.33,1.68-22.64Zm-10.27,0q.43,11.33.78,22.64h.93q.7-11.33,1.52-22.64Z"/><path class="cls-19" d="M241.89,105.84v23.77h15.85l1.39-23.77Zm1,1.09H250l-.32,7h-6.61Zm6.4,14.62h-6.14l-.12-6.7h6.56Zm7.6,0h-6.58l.3-6.7h6.79ZM258,106.93l-.54,7h-6.81l.31-7Zm-1.65,21.59H250l.27-6.06h6.55Zm-13.08,0-.11-6.06h6.08l-.28,6.06Z"/><path class="cls-20" d="M241.71,105.36v23.77h16.91l1.48-23.77Zm1.1,1.09h7.53l-.34,7h-7.06Zm6.82,14.62h-6.54l-.13-6.7h7Zm8.11,0h-7l.32-6.7h7.24Zm1.2-14.62-.57,7h-7.28l.34-7ZM257.18,128h-6.79l.29-6.06h7Zm-14,0-.12-6.06h6.48L249.3,128Z"/><polygon class="cls-13" points="241.5 106.77 260.42 106.45 260.63 105.16 241.19 105.16 241.5 106.77"/><polygon class="cls-21" points="240.49 105.36 261.33 105.36 261.78 102.94 240.03 102.94 240.49 105.36"/><polygon class="cls-13" points="242.1 132.18 258.39 131.9 258.57 130.76 241.82 130.76 242.1 132.18"/><polygon class="cls-21" points="241.22 130.93 259.17 130.93 259.56 128.79 240.83 128.79 241.22 130.93"/><path class="cls-62" d="M218.56,128.78h16.61q.74-11.69,1.46-23.37H218.56Z"/><path class="cls-63" d="M235.44,115.36c-.31,5.12-.47,7.69-.78,12.81H219c0-5.45,0-8.17,0-13.62h2.2c-.09,1.5-.14,2.26-.23,3.76h.9c-.11,2.07-.17,3.1-.28,5.16h.48c.05-1.17.07-1.76.12-2.94h1.08c0-1,0-1.57-.06-2.62l1.85-.09c-.12,1.78-.18,2.67-.29,4.46h.53c0-1,0-1.48.06-2.46l2-.06-.15,3.78.45,0c.09-2.78.14-4.17.23-6.95l2.17-.16c-.08,1.3-.12,2-.19,3.26h.62c-.07.9-.11,1.35-.18,2.25h.7c0-1.65,0-2.47,0-4.12l2.13-.1c-.07-1-.1-1.51-.17-2.52Z"/><path class="cls-18" d="M231.3,105.93c-2.05,7.39-4.07,14.79-5.9,22.24h-2q.76-11.11,1.65-22.24Zm-10.1,0q.44,11.11.78,22.24h.91q.69-11.11,1.49-22.24Z"/><path class="cls-19" d="M218.73,105.88v23.37h15.58l1.37-23.37Zm1,1.07h6.94l-.31,6.9h-6.5ZM226,121.33h-6l-.12-6.59h6.45Zm7.47,0H227l.29-6.59H234ZM234.6,107l-.52,6.9h-6.71l.32-6.9ZM233,128.17h-6.25l.27-5.95h6.43Zm-12.85,0-.11-5.95h6l-.27,5.95Z"/><path class="cls-20" d="M218.56,105.41v23.37h16.61l1.46-23.37Zm1.07,1.07H227l-.33,6.9h-6.94Zm6.71,14.38h-6.43l-.13-6.59h6.88Zm8,0h-6.9l.32-6.59h7.12Zm1.18-14.38-.56,6.9h-7.16l.34-6.9Zm-1.74,21.22h-6.67l.29-6h6.87Zm-13.71,0-.11-6h6.37l-.29,6Z"/><polygon class="cls-13" points="218.35 106.8 236.94 106.49 237.15 105.22 218.04 105.22 218.35 106.8"/><polygon class="cls-21" points="217.35 105.41 237.83 105.41 238.28 103.03 216.91 103.03 217.35 105.41"/><polygon class="cls-13" points="218.93 131.77 234.94 131.5 235.12 130.38 218.66 130.38 218.93 131.77"/><polygon class="cls-21" points="218.07 130.55 235.71 130.55 236.09 128.44 217.69 128.44 218.07 130.55"/><path class="cls-64" d="M262.2,165.13h16l2.37-22.61H263.17Q262.69,153.83,262.2,165.13Z"/><path class="cls-65" d="M279,152.15c-.51,5-.77,7.44-1.28,12.4H262.63c.23-5.28.35-7.91.58-13.19h2.12c-.15,1.46-.22,2.19-.37,3.64h.86c-.19,2-.29,3-.48,5h.46c.1-1.14.14-1.71.24-2.85h1l.05-2.53,1.79-.1c-.19,1.73-.28,2.6-.47,4.32H269l.16-2.38,1.9-.06-.3,3.66.43,0c.21-2.69.31-4,.51-6.72l2.09-.16c-.12,1.27-.19,1.9-.31,3.16H274c-.1.87-.16,1.31-.26,2.18h.67c.08-1.6.12-2.4.19-4l2.05-.1-.05-2.44Z"/><path class="cls-18" d="M275.41,143c-2.28,7.16-4.54,14.31-6.61,21.53h-1.91q1.22-10.77,2.52-21.53Zm-9.71,0q-.06,10.75-.19,21.53h.88q1.13-10.77,2.36-21.53Z"/><path class="cls-19" d="M263.32,143l-1,22.61h15L279.62,143Zm.93,1h6.67l-.59,6.67h-6.25Zm5.45,13.91h-5.8l.16-6.37h6.2Zm7.18,0h-6.22l.56-6.37h6.42Zm1.66-13.9-.79,6.67H271.3l.59-6.68Zm-2.45,20.53h-6l.51-5.76h6.19Zm-12.36,0,.15-5.76h5.74l-.51,5.76Z"/><path class="cls-20" d="M263.17,142.52l-1,22.61h16l2.37-22.61Zm1,1h7.12l-.61,6.67H264ZM270,157.47h-6.18l.15-6.37h6.61Zm7.67,0h-6.63l.58-6.37h6.84Zm1.73-13.91-.83,6.67h-6.87l.6-6.67Zm-2.55,20.53h-6.42l.53-5.76h6.6Zm-13.19,0,.14-5.76h6.12l-.52,5.76Z"/><polygon class="cls-13" points="262.92 143.86 280.81 143.56 281.06 142.33 262.68 142.33 262.92 143.86"/><polygon class="cls-21" points="262.02 142.52 281.71 142.52 282.24 140.22 261.68 140.22 262.02 142.52"/><polygon class="cls-13" points="262.44 168.03 277.84 167.77 278.06 166.68 262.23 166.68 262.44 168.03"/><polygon class="cls-21" points="261.66 166.84 278.62 166.85 279.08 164.81 261.38 164.81 261.66 166.84"/><path class="cls-66" d="M240.33,165.85h16.91q.74-11.88,1.48-23.77H240.33Z"/><path class="cls-67" d="M257.51,152.2c-.32,5.22-.48,7.82-.79,13h-16c0-5.54,0-8.32,0-13.86H243c-.09,1.53-.14,2.29-.23,3.83h.91c-.11,2.1-.17,3.15-.28,5.25h.49c.05-1.2.07-1.8.12-3h1.1c0-1.06,0-1.59-.07-2.66l1.89-.1-.3,4.54h.54c0-1,0-1.5.07-2.5l2-.06-.15,3.84.46,0c.1-2.83.15-4.25.24-7.08l2.2-.16c-.07,1.33-.11,2-.19,3.32h.63c-.07.92-.1,1.37-.18,2.29H253c0-1.68,0-2.52,0-4.2l2.16-.09c-.07-1-.1-1.54-.17-2.57Z"/><path class="cls-18" d="M253.3,142.61c-2.09,7.52-4.15,15-6,22.63h-2q.78-11.33,1.68-22.63Zm-10.27,0q.43,11.31.78,22.63h.93q.7-11.33,1.52-22.63Z"/><path class="cls-19" d="M240.51,142.56v23.77h15.85l1.39-23.77Zm1,1.09h7.06l-.32,7h-6.62Zm6.4,14.62H241.8l-.12-6.7h6.56Zm7.6,0H249l.3-6.7h6.79Zm1.12-14.62-.54,7H249.3l.32-7ZM255,165.24h-6.37l.28-6.06h6.55Zm-13.08,0-.11-6.06h6.07l-.27,6.06Z"/><path class="cls-20" d="M240.33,142.08v23.77h16.91l1.48-23.77Zm1.09,1.09H249l-.34,7h-7.06Zm6.83,14.62h-6.54l-.13-6.69h7Zm8.11,0h-7l.33-6.69h7.24Zm1.2-14.62-.57,7h-7.28l.34-7Zm-1.77,21.59H249l.29-6.06h7Zm-13.95,0-.11-6.06h6.48l-.3,6.06Z"/><polygon class="cls-13" points="240.12 143.49 259.04 143.17 259.25 141.88 239.8 141.88 240.12 143.49"/><polygon class="cls-21" points="239.11 142.08 259.94 142.08 260.4 139.66 238.65 139.66 239.11 142.08"/><polygon class="cls-13" points="240.72 168.9 257 168.62 257.19 167.48 240.44 167.48 240.72 168.9"/><polygon class="cls-21" points="239.84 167.65 257.78 167.65 258.18 165.51 239.45 165.51 239.84 167.65"/><path class="cls-68" d="M217.17,165.5h16.62q.74-11.69,1.46-23.37H217.17Z"/><path class="cls-69" d="M234.05,152.08c-.31,5.13-.46,7.69-.77,12.82H217.59c0-5.45,0-8.18,0-13.63h2.21c-.09,1.51-.14,2.26-.23,3.76h.9c-.11,2.07-.17,3.1-.28,5.17h.48c.05-1.18.07-1.77.12-2.95h1.08c0-1,0-1.57-.07-2.61l1.86-.1-.3,4.46h.54c0-1,0-1.47.06-2.46l2-.06c0,1.51-.08,2.27-.14,3.78l.45,0c.09-2.78.14-4.17.23-6.95l2.17-.16c-.08,1.31-.12,2-.19,3.27h.62c-.07.9-.11,1.34-.18,2.24h.7c0-1.65,0-2.47,0-4.12l2.13-.1c-.07-1-.1-1.51-.17-2.52Z"/><path class="cls-18" d="M229.92,142.65c-2,7.4-4.07,14.79-5.9,22.25h-2q.76-11.13,1.65-22.25Zm-10.1,0q.44,11.11.78,22.25h.9q.7-11.13,1.5-22.25Z"/><path class="cls-19" d="M217.35,142.6V166h15.58l1.37-23.37Zm1,1.08h6.94l-.31,6.89h-6.51Zm6.29,14.37h-6l-.12-6.59H225Zm7.47,0h-6.47l.3-6.59h6.68Zm1.1-14.37-.52,6.89H226l.32-6.89ZM231.6,164.9h-6.26l.27-6h6.44Zm-12.85,0-.11-6h6l-.27,6Z"/><path class="cls-20" d="M217.17,142.13V165.5h16.62l1.46-23.37Zm1.08,1.08h7.4l-.33,6.89h-6.94ZM225,157.58h-6.43L218.4,151h6.88Zm8,0H226l.32-6.59h7.12Zm1.18-14.37-.57,6.89h-7.15l.34-6.89Zm-1.74,21.22H225.7l.29-6h6.87Zm-13.71,0-.12-6h6.38l-.29,6Z"/><polygon class="cls-13" points="216.97 143.52 235.56 143.21 235.77 141.94 216.66 141.94 216.97 143.52"/><polygon class="cls-21" points="215.97 142.13 236.45 142.13 236.9 139.75 215.52 139.75 215.97 142.13"/><polygon class="cls-13" points="217.55 168.5 233.56 168.22 233.74 167.1 217.28 167.1 217.55 168.5"/><polygon class="cls-21" points="216.69 167.27 234.33 167.27 234.71 165.16 216.31 165.16 216.69 167.27"/><polygon class="cls-13" points="298.72 95.13 298.43 99.27 205.41 100.84 205.41 94.09 298.72 95.13"/><polygon class="cls-32" points="211.93 50.51 291.24 61.33 300.39 88.24 288.7 63.39 211.93 50.51"/><polygon class="cls-33" points="265.63 194.78 273.04 194.78 273.55 190.58 264.75 190.88 265.63 194.78"/><polygon class="cls-33" points="255.22 191.03 262.63 191.03 263.14 186.83 254.34 187.13 255.22 191.03"/><polygon class="cls-33" points="219.17 195.79 226.59 195.79 227.09 191.59 218.3 191.9 219.17 195.79"/><polygon class="cls-33" points="214.77 190.69 222.19 190.69 222.69 186.49 213.9 186.8 214.77 190.69"/><polygon class="cls-33" points="268.29 188.93 275.71 188.93 276.22 184.73 267.42 185.04 268.29 188.93"/><polygon class="cls-70" points="204.84 203.87 109.73 203.87 104.02 56.6 157.29 11.33 210.55 56.6 204.84 203.87"/><polygon class="cls-8" points="123.72 119.34 116.97 119.34 116.5 115.52 124.51 115.79 123.72 119.34"/><polygon class="cls-8" points="128.16 123.77 121.41 123.77 120.94 119.95 128.95 120.22 128.16 123.77"/><polygon class="cls-8" points="122.26 174.42 115.51 174.42 115.05 170.6 123.06 170.87 122.26 174.42"/><polygon class="cls-8" points="199.68 170.03 192.93 170.03 192.46 166.21 200.47 166.49 199.68 170.03"/><polygon class="cls-8" points="126.7 178.85 119.95 178.85 119.49 175.03 127.5 175.3 126.7 178.85"/><polygon class="cls-8" points="172.83 93.99 166.08 93.99 165.62 90.17 173.63 90.44 172.83 93.99"/><polygon class="cls-8" points="177.27 98.42 170.52 98.42 170.06 94.6 178.07 94.87 177.27 98.42"/><polygon class="cls-8" points="143.89 103.17 137.14 103.17 136.68 99.35 144.69 99.63 143.89 103.17"/><polygon class="cls-8" points="130.46 63.4 123.7 63.4 123.24 59.58 131.25 59.86 130.46 63.4"/><polygon class="cls-8" points="137.48 58.31 130.73 58.31 130.26 54.49 138.27 54.76 137.48 58.31"/><polygon class="cls-8" points="162.23 64.53 155.48 64.53 155.02 60.71 163.03 60.99 162.23 64.53"/><polygon class="cls-8" points="193.79 121.1 187.04 121.1 186.58 117.28 194.59 117.56 193.79 121.1"/><polygon class="cls-8" points="174.54 123.38 167.79 123.38 167.33 119.56 175.34 119.84 174.54 123.38"/><polygon class="cls-8" points="171.24 119.29 164.49 119.29 164.03 115.47 172.03 115.74 171.24 119.29"/><polygon class="cls-8" points="165.99 123.51 159.24 123.51 158.78 119.69 166.78 119.97 165.99 123.51"/><polygon class="cls-8" points="198.12 65.39 191.37 65.39 190.9 61.56 198.91 61.84 198.12 65.39"/><polygon class="cls-8" points="194.81 61.29 188.06 61.29 187.6 57.47 195.61 57.74 194.81 61.29"/><polygon class="cls-8" points="189.57 65.52 182.82 65.52 182.35 61.69 190.36 61.97 189.57 65.52"/><polygon class="cls-8" points="178.3 42.66 171.55 42.66 171.08 38.84 179.09 39.11 178.3 42.66"/><polygon class="cls-8" points="149.28 34.95 142.53 34.95 142.07 31.12 150.08 31.4 149.28 34.95"/><polygon class="cls-8" points="154.39 30.73 147.64 30.73 147.18 26.91 155.19 27.18 154.39 30.73"/><polygon class="cls-8" points="134.9 67.83 128.15 67.83 127.68 64.01 135.69 64.29 134.9 67.83"/><polygon class="cls-10" points="202.01 194.6 202.13 184.07 201.64 184.03 201.81 169.02 202.3 168.96 202.41 158.62 201.87 158.66 202.06 141.52 202.6 141.56 202.73 130.41 202.18 130.46 202.38 112.72 202.93 112.69 203.03 103.58 202.23 103.55 202.44 85.16 203.23 85.12 203.33 76.49 202.34 76.6 202.56 56.98 212.88 56.86 212.22 75.06 211.27 75.16 210.93 84.58 211.59 84.55 210.88 104.13 210.22 104.1 209.93 112.31 210.46 112.29 209.84 129.49 209.31 129.53 208.85 142.33 209.38 142.37 208.82 157.8 208.29 157.84 207.93 167.9 208.39 167.85 207.78 184.94 207.31 184.91 206.97 194.54 202.01 194.6"/><polygon class="cls-71" points="204.95 58.04 204.95 50.61 214.07 58.04 204.95 58.04"/><polygon class="cls-72" points="203.36 170.71 211.31 169.81 211.81 155.97 203.51 156.65 203.36 170.71"/><polygon class="cls-73" points="202.96 157.5 212.31 156.73 212.79 143.34 203.12 142.67 202.96 157.5"/><polygon class="cls-74" points="203.66 143.5 212.24 144.1 212.83 127.68 203.83 128.46 203.66 143.5"/><polygon class="cls-75" points="203.1 193.5 210.46 193.42 210.84 182.94 203.23 182.29 203.1 193.5"/><polygon class="cls-76" points="202.73 183.01 211.28 183.74 211.81 169 202.88 170.01 202.73 183.01"/><polygon class="cls-77" points="203.98 114.56 213.31 114.2 213.77 101.66 204.13 101.25 203.98 114.56"/><polygon class="cls-78" points="214.8 72.86 204.44 74.04 204.29 87.05 214.31 86.55 214.8 72.86"/><polygon class="cls-79" points="203.5 86.2 203.32 102.5 214.38 102.96 215 85.63 203.5 86.2"/><polygon class="cls-80" points="216.29 57.91 203.63 58.05 203.43 75.41 215.72 74.01 216.29 57.91"/><polygon class="cls-81" points="203.27 129.29 213.33 128.42 213.87 113.36 203.44 113.77 203.27 129.29"/><polygon class="cls-82" points="204.51 59.22 204.53 73.92 214.9 72.76 215.45 58.78 204.51 59.22"/><polygon class="cls-83" points="204.95 76.37 205.09 85.42 213.8 85.33 214.07 75.29 204.95 76.37"/><polygon class="cls-84" points="204.29 87.05 204.51 101.25 213.35 101.15 214.25 86.94 204.29 87.05"/><polygon class="cls-85" points="205.03 103.91 204.91 112.33 212.62 112.63 212.92 103.88 205.03 103.91"/><polygon class="cls-86" points="204.29 114.89 204.32 127.77 212.29 127.68 213.08 114.46 204.29 114.89"/><polygon class="cls-87" points="204.36 130.53 204.41 142.1 211.31 142.24 212.15 129.77 204.36 130.53"/><polygon class="cls-88" points="203.87 143.83 203.84 154.54 211.37 154.41 212.07 144.02 203.87 143.83"/><polygon class="cls-89" points="204.04 158.2 204.05 168.54 210.49 168.42 211.04 157.66 204.04 158.2"/><polygon class="cls-90" points="203.36 170.71 203.65 182.28 210.84 182.94 211.31 169.81 203.36 170.71"/><polygon class="cls-91" points="203.9 183.82 203.7 192.88 209.88 192.81 210.18 184.29 203.9 183.82"/><polygon class="cls-13" points="203.43 75.41 214.76 74.12 214.69 76.05 203.67 76.71 203.43 75.41"/><polygon class="cls-13" points="203.32 102.5 213.79 102.93 213.67 104.42 203.6 103.51 203.32 102.5"/><polygon class="cls-13" points="203.27 129.29 212.8 128.47 212.77 130 203.43 130.21 203.27 129.29"/><polygon class="cls-13" points="202.73 183.01 210.81 183.7 210.77 184.78 202.74 183.83 202.73 183.01"/><polygon class="cls-13" points="202.96 157.5 211.78 156.7 211.73 158.31 202.98 158.7 202.96 157.5"/><path class="cls-92" d="M203.74,66.19c.51,0,1.46.1,2.27.1s1.51,0,1.51,0a14.16,14.16,0,0,1-1.48.36,11.86,11.86,0,0,1-2.31.23ZM211,68.33a15.87,15.87,0,0,0,1.9-.11,16.09,16.09,0,0,0,1.87-.34c.48-.11.78-.21.78-.21s-.31-.06-.8-.11a8.71,8.71,0,0,0-1.91,0A9.47,9.47,0,0,0,211,68c-.48.17-.76.3-.76.3S210.51,68.33,211,68.33Zm-1.28-5.52a26,26,0,0,0-4,.89,25.21,25.21,0,0,0,4.07-.25,25.93,25.93,0,0,0,4-.89A25.32,25.32,0,0,0,209.71,62.81Zm6.14,1.72a5.35,5.35,0,0,0-1.63.18,7.16,7.16,0,0,0-1,.36,8.71,8.71,0,0,1,1.06,0c.57,0,1.22.1,1.57.14Zm-6.49,6.87a5.93,5.93,0,0,0-1.26,0,6.51,6.51,0,0,0-1.24.26,5.11,5.11,0,0,0-.52.19,3.4,3.4,0,0,0,.53.14,4.32,4.32,0,0,0,1.28,0,4.41,4.41,0,0,0,1.25-.33,3.72,3.72,0,0,0,.5-.25S209.69,71.43,209.36,71.4Zm-2.53,10.44a5,5,0,0,0-1.59.66,4.44,4.44,0,0,0,1.68,0,4.74,4.74,0,0,0,1.59-.67A4.33,4.33,0,0,0,206.83,81.84Zm5.3-2.61a7.18,7.18,0,0,0-1.9-.13,7.29,7.29,0,0,0-1.86.38,5.49,5.49,0,0,0-.75.31s.3,0,.78,0,1.14,0,1.87-.06,1.37-.13,1.85-.2l.78-.12A5,5,0,0,0,212.13,79.23Zm.39,3.25a2.48,2.48,0,0,0-1.18.33,2.47,2.47,0,0,0,1.19.32,2.42,2.42,0,0,0,1.17-.33A2.54,2.54,0,0,0,212.52,82.48Zm-6.11,9.14a4.68,4.68,0,0,0-1-.14,5,5,0,0,0-1,.1,2.85,2.85,0,0,0-.42.11,2.31,2.31,0,0,0,.4.22,2.57,2.57,0,0,0,1,.23,2.52,2.52,0,0,0,1-.2,2,2,0,0,0,.39-.2A3.84,3.84,0,0,0,206.41,91.62ZM211,97.46a15.47,15.47,0,0,0-3.12.49,15.44,15.44,0,0,0,3.14.16,15.7,15.7,0,0,0,3.12-.5A15.05,15.05,0,0,0,211,97.46Zm1.61-8.66a5.44,5.44,0,0,0-1.14-.08,5.37,5.37,0,0,0-1.13.16c-.29.08-.47.15-.47.15a3.42,3.42,0,0,0,.47.18,3.38,3.38,0,0,0,2.29-.08,2.66,2.66,0,0,0,.46-.22Zm-2.72,18.7a7.51,7.51,0,0,0-1.78-.17,7.18,7.18,0,0,0-1.77.27,6.63,6.63,0,0,0-.72.23s.28,0,.74.09a15.12,15.12,0,0,0,1.76.06,17.1,17.1,0,0,0,1.76-.15c.45-.06.74-.13.74-.13A6.74,6.74,0,0,0,209.85,107.5Zm.24,2.29a3,3,0,0,0-1.32.35,3.22,3.22,0,0,0,1.33.31,3,3,0,0,0,1.32-.35A3.22,3.22,0,0,0,210.09,109.79Zm-1.15,7.45a8.09,8.09,0,0,0-2.17.63,7.56,7.56,0,0,0,2.24,0,8.09,8.09,0,0,0,2.17-.63A7.56,7.56,0,0,0,208.94,117.24Zm-1,5.85a10.13,10.13,0,0,0-2.51.51,10.25,10.25,0,0,0,2.54.14,10.42,10.42,0,0,0,2.51-.5A10,10,0,0,0,207.93,123.09Zm2.42,12.36a10.36,10.36,0,0,0-1.57,0,10.85,10.85,0,0,0-1.55.27c-.4.1-.65.18-.65.18a4.54,4.54,0,0,0,.66.14,6,6,0,0,0,1.58.06,6.17,6.17,0,0,0,1.56-.34,5.29,5.29,0,0,0,.63-.25S210.75,135.48,210.35,135.45Zm-4.09,16.24a6.14,6.14,0,0,0-1.9.53,6.14,6.14,0,0,0,1.95.12,6.48,6.48,0,0,0,1.9-.53A5.81,5.81,0,0,0,206.26,151.69Zm4.3-5.3a11.72,11.72,0,0,0-1.6-.17,10.56,10.56,0,0,0-1.6.08c-.41,0-.67.1-.67.1a6,6,0,0,0,.66.23,7.23,7.23,0,0,0,1.61.24,6.15,6.15,0,0,0,1.61-.16,5.85,5.85,0,0,0,.66-.18S211,146.46,210.56,146.39ZM207,160.53a8.23,8.23,0,0,0-2.07.86,7.35,7.35,0,0,0,2.17-.22,8,8,0,0,0,2.07-.87A7.57,7.57,0,0,0,207,160.53Zm1.77,5.29a2,2,0,0,0-.79-.19,1.89,1.89,0,0,0-.78.21,1.57,1.57,0,0,0-.3.2,1.94,1.94,0,0,0,.33.13,2.39,2.39,0,0,0,.76.11,2.6,2.6,0,0,0,.76-.13,1.94,1.94,0,0,0,.33-.13A1.49,1.49,0,0,0,208.75,165.82Zm.74,8.22a8.39,8.39,0,0,0-1.45.13,9.38,9.38,0,0,0-1.42.36c-.36.13-.59.23-.59.23a5,5,0,0,0,.62.1,5.38,5.38,0,0,0,1.47-.05,5.16,5.16,0,0,0,1.42-.45,4.89,4.89,0,0,0,.57-.31S209.87,174,209.49,174Zm-2.36,6.11a10.08,10.08,0,0,0-2.73.27,13.95,13.95,0,0,0,5.46.22A10.26,10.26,0,0,0,207.13,180.15Zm-.58,6a5.81,5.81,0,0,0-1.94.17,6.28,6.28,0,0,0,1.91.48,6,6,0,0,0,1.94-.16A6.23,6.23,0,0,0,206.55,186.17Zm2.38,3.94a2,2,0,0,0-2,.13,2,2,0,0,0-.37.29l.43,0a7.87,7.87,0,0,0,1,0,7,7,0,0,0,1-.12l.42-.08A1.94,1.94,0,0,0,208.93,190.11ZM204.59,78.63a17.22,17.22,0,0,0,2-.71,16.86,16.86,0,0,0-2.1.06Zm9.49,13.66c-1,0-3.74.32-3.74.32s2.71.33,3.74.33Zm-9.87,3.8c.93-.09,3.36-.67,3.36-.67s-2.48-.07-3.41,0Zm8.89,9.2c-1.58-.16-5.73-.25-5.73-.25s4.11.74,5.69.9ZM204,121.46c1.67-.22,6-1.11,6-1.11s-4.39.25-6.06.47Zm8.6,4.21c-1,0-3.6.49-3.6.49s2.63.21,3.62.16Zm-8.47,8c2-.27,7.15-1.3,7.15-1.3s-5.23.38-7.21.65Zm0,6.14c.73-.06,2.06-.2,3.21-.26s2.12-.09,2.12-.09-1-.15-2.12-.24a22.93,22.93,0,0,0-3.25-.06Zm-.51,9.38c1.11,0,4-.13,4-.13s-2.91-.47-4-.52Zm8.28,1.81a5.79,5.79,0,0,0-1.54-.24,6.86,6.86,0,0,0-1,0s.45.12,1,.3,1.12.43,1.44.55Zm-8.28,13.38a31.23,31.23,0,0,0,3.88-1.15c1.36-.5,2.48-1,2.48-1s-1.15.35-2.55.69-3,.65-3.9.83Zm.26,3.78a12.9,12.9,0,0,0,1.87-.56,14,14,0,0,0-1.92-.09Zm-.76,5c1-.22,3.67-1.14,3.67-1.14s-2.74.27-3.77.5Zm.09,4.73c1.51,0,5.46-.4,5.46-.4s-4-.27-5.47-.26Zm.42,10.88c1.6-.18,5.77-1,5.77-1s-4.22.14-5.82.32Zm6.54,2.61a17.61,17.61,0,0,0-2.27.05,18.74,18.74,0,0,0,2.23.59Z"/><polygon class="cls-13" points="204.3 86.16 204.31 85.43 214.34 85.69 204.3 86.16"/><polygon class="cls-13" points="203.97 113.75 204 113.03 213.34 113.38 203.97 113.75"/><polygon class="cls-13" points="203.67 142.71 203.64 142 212.27 143.31 203.67 142.71"/><polygon class="cls-13" points="203.37 169.9 203.37 169.31 211.34 169.05 203.37 169.9"/><polygon class="cls-10" points="113.33 194.6 113.21 184.07 113.7 184.03 113.53 169.02 113.04 168.96 112.93 158.62 113.47 158.66 113.28 141.52 112.74 141.56 112.61 130.41 113.16 130.46 112.96 112.72 112.42 112.69 112.31 103.58 113.11 103.55 112.9 85.16 112.11 85.12 112.01 76.49 113 76.6 112.78 56.98 102.46 56.86 103.12 75.06 104.08 75.16 104.41 84.58 103.76 84.55 104.46 104.13 105.12 104.1 105.41 112.31 104.89 112.29 105.5 129.49 106.03 129.53 106.49 142.33 105.97 142.37 106.52 157.8 107.05 157.84 107.42 167.9 106.95 167.85 107.56 184.94 108.03 184.91 108.38 194.54 113.33 194.6"/><polygon class="cls-93" points="110.39 58.04 110.39 50.61 101.27 58.04 110.39 58.04"/><polygon class="cls-94" points="111.98 170.71 104.03 169.81 103.53 155.97 111.83 156.65 111.98 170.71"/><polygon class="cls-95" points="112.38 157.5 103.03 156.73 102.55 143.34 112.22 142.67 112.38 157.5"/><polygon class="cls-96" points="111.68 143.5 103.1 144.1 102.51 127.68 111.51 128.46 111.68 143.5"/><polygon class="cls-97" points="112.24 193.5 104.88 193.42 104.5 182.94 112.11 182.29 112.24 193.5"/><polygon class="cls-98" points="112.61 183.01 104.06 183.74 103.53 169 112.47 170.01 112.61 183.01"/><polygon class="cls-99" points="111.36 114.56 102.03 114.2 101.57 101.66 111.21 101.25 111.36 114.56"/><polygon class="cls-100" points="100.54 72.86 110.91 74.04 111.05 87.05 101.03 86.55 100.54 72.86"/><polygon class="cls-101" points="111.83 86.2 112.02 102.5 100.96 102.96 100.34 85.63 111.83 86.2"/><polygon class="cls-102" points="99.05 57.91 111.71 58.05 111.91 75.41 99.63 74.01 99.05 57.91"/><polygon class="cls-103" points="112.07 129.29 102.01 128.42 101.47 113.36 111.9 113.77 112.07 129.29"/><polygon class="cls-104" points="110.83 59.22 110.81 73.92 100.44 72.76 99.89 58.78 110.83 59.22"/><polygon class="cls-105" points="110.39 76.37 110.25 85.42 101.54 85.33 101.27 75.29 110.39 76.37"/><polygon class="cls-106" points="111.05 87.05 110.83 101.25 101.99 101.15 101.09 86.94 111.05 87.05"/><polygon class="cls-107" points="110.31 103.91 110.43 112.33 102.72 112.63 102.42 103.88 110.31 103.91"/><polygon class="cls-108" points="111.05 114.89 111.02 127.77 103.05 127.68 102.26 114.46 111.05 114.89"/><polygon class="cls-109" points="110.98 130.53 110.93 142.1 104.03 142.24 103.19 129.77 110.98 130.53"/><polygon class="cls-110" points="111.47 143.83 111.5 154.54 103.97 154.41 103.27 144.02 111.47 143.83"/><polygon class="cls-111" points="111.3 158.2 111.29 168.54 104.85 168.42 104.3 157.66 111.3 158.2"/><polygon class="cls-112" points="111.98 170.71 111.69 182.28 104.5 182.94 104.03 169.81 111.98 170.71"/><polygon class="cls-113" points="111.44 183.82 111.64 192.88 105.46 192.81 105.16 184.29 111.44 183.82"/><polygon class="cls-13" points="111.91 75.41 100.58 74.12 100.65 76.05 111.67 76.71 111.91 75.41"/><polygon class="cls-13" points="112.02 102.5 101.55 102.93 101.67 104.42 111.74 103.51 112.02 102.5"/><polygon class="cls-13" points="112.07 129.29 102.54 128.47 102.57 130 111.92 130.21 112.07 129.29"/><polygon class="cls-13" points="112.61 183.01 104.53 183.7 104.57 184.78 112.6 183.83 112.61 183.01"/><polygon class="cls-13" points="112.38 157.5 103.56 156.7 103.61 158.31 112.36 158.7 112.38 157.5"/><path class="cls-114" d="M111.61,66.85a11.86,11.86,0,0,1-2.31-.23,14.16,14.16,0,0,1-1.48-.36s.69,0,1.51,0,1.76-.07,2.27-.1Zm-6.47,1.45s-.28-.13-.76-.3a9.47,9.47,0,0,0-1.87-.43,8.71,8.71,0,0,0-1.91,0c-.49,0-.8.11-.8.11s.3.1.78.21a16.09,16.09,0,0,0,1.87.34,15.87,15.87,0,0,0,1.9.11C104.83,68.33,105.14,68.3,105.14,68.3Zm-3.59-5.74a25.93,25.93,0,0,0,4,.89,25.21,25.21,0,0,0,4.07.25,26,26,0,0,0-4-.89A25.32,25.32,0,0,0,101.55,62.56Zm-2,2.62c.35,0,1-.13,1.57-.14a8.71,8.71,0,0,1,1.06,0,7.16,7.16,0,0,0-1-.36,5.35,5.35,0,0,0-1.63-.18Zm5.92,6.29a3.72,3.72,0,0,0,.5.25,4.41,4.41,0,0,0,1.25.33,4.32,4.32,0,0,0,1.28,0,3.4,3.4,0,0,0,.53-.14,5.11,5.11,0,0,0-.52-.19,6.34,6.34,0,0,0-1.24-.26,5.93,5.93,0,0,0-1.26,0C105.65,71.43,105.44,71.47,105.44,71.47Zm1.39,10.34a4.74,4.74,0,0,0,1.59.67,4.44,4.44,0,0,0,1.68,0,5,5,0,0,0-1.59-.66A4.33,4.33,0,0,0,106.83,81.81Zm-4.39-2.38.78.12c.48.07,1.13.15,1.85.2s1.39.06,1.87.06.78,0,.78,0a5.49,5.49,0,0,0-.75-.31,7.07,7.07,0,0,0-3.76-.25A5,5,0,0,0,102.44,79.43Zm-.8,3.37a2.3,2.3,0,0,0,2.36,0,2.48,2.48,0,0,0-1.18-.33A2.54,2.54,0,0,0,101.64,82.8Zm6.88,8.94a2,2,0,0,0,.39.2,2.52,2.52,0,0,0,1,.2,2.57,2.57,0,0,0,1-.23,2.31,2.31,0,0,0,.4-.22,2.85,2.85,0,0,0-.42-.11,5,5,0,0,0-1-.1,4.68,4.68,0,0,0-1,.14A3.84,3.84,0,0,0,108.52,91.74Zm-7.28,5.87a15.88,15.88,0,0,0,3.12.5A15.44,15.44,0,0,0,107.5,98a15.47,15.47,0,0,0-3.12-.49A15.05,15.05,0,0,0,101.24,97.61Zm1.05-8.7a3.24,3.24,0,0,0,.46.22,3.38,3.38,0,0,0,2.29.08,3.42,3.42,0,0,0,.47-.18s-.18-.07-.47-.15a5.37,5.37,0,0,0-1.13-.16,5.44,5.44,0,0,0-1.14.08Zm2.47,18.79s.29.07.74.13a17.1,17.1,0,0,0,1.76.15,15.12,15.12,0,0,0,1.76-.06c.46,0,.74-.09.74-.09a6.63,6.63,0,0,0-.72-.23,7.18,7.18,0,0,0-1.77-.27,7.51,7.51,0,0,0-1.78.17A6.74,6.74,0,0,0,104.76,107.7Zm-.84,2.4a3,3,0,0,0,1.32.35,3.22,3.22,0,0,0,1.33-.31,3,3,0,0,0-1.32-.35A3.22,3.22,0,0,0,103.92,110.1Zm.24,7.15a8.09,8.09,0,0,0,2.17.63,7.65,7.65,0,0,0,2.25,0,8.24,8.24,0,0,0-2.18-.63A7.56,7.56,0,0,0,104.16,117.25Zm.71,6a10.42,10.42,0,0,0,2.51.5,10.19,10.19,0,0,0,2.54-.14,10.13,10.13,0,0,0-2.51-.51A10,10,0,0,0,104.87,123.24Zm-.54,12.28a5.29,5.29,0,0,0,.63.25,6.28,6.28,0,0,0,1.56.34,6,6,0,0,0,1.58-.06,4.54,4.54,0,0,0,.66-.14s-.25-.08-.65-.18a10.85,10.85,0,0,0-1.55-.27,10.36,10.36,0,0,0-1.57,0C104.59,135.48,104.33,135.52,104.33,135.52Zm2.8,16.29a6.48,6.48,0,0,0,1.9.53,6.14,6.14,0,0,0,2-.12,6.14,6.14,0,0,0-1.9-.53A5.81,5.81,0,0,0,107.13,151.81Zm-3-5.28a5.85,5.85,0,0,0,.66.18,6.15,6.15,0,0,0,1.61.16,7.23,7.23,0,0,0,1.61-.24,6,6,0,0,0,.66-.23s-.26-.05-.67-.1a10.56,10.56,0,0,0-1.6-.08,11.72,11.72,0,0,0-1.6.17C104.36,146.46,104.11,146.53,104.11,146.53Zm2.08,13.77a8,8,0,0,0,2.07.87,7.35,7.35,0,0,0,2.17.22,8.26,8.26,0,0,0-2.06-.86A7.64,7.64,0,0,0,106.19,160.3Zm.09,5.72a1.94,1.94,0,0,0,.33.13,2.6,2.6,0,0,0,.76.13,2.39,2.39,0,0,0,.76-.11,1.94,1.94,0,0,0,.33-.13,1.57,1.57,0,0,0-.3-.2,1.89,1.89,0,0,0-.78-.21,1.77,1.77,0,0,0-1.1.39Zm-1,8a6.27,6.27,0,0,0,.57.31,5.16,5.16,0,0,0,1.42.45,5.38,5.38,0,0,0,1.47.05,5,5,0,0,0,.62-.1s-.23-.1-.59-.23a9.08,9.08,0,0,0-1.42-.36,8.39,8.39,0,0,0-1.45-.13C105.47,174,105.23,174.05,105.23,174.05Zm.25,6.59a14.15,14.15,0,0,0,2.74.16,14.38,14.38,0,0,0,2.73-.38,10.05,10.05,0,0,0-5.47.22Zm1.4,6a6,6,0,0,0,1.94.16,6.28,6.28,0,0,0,1.91-.48,5.81,5.81,0,0,0-1.94-.17A6.23,6.23,0,0,0,106.88,186.66Zm-.86,3.69.42.08a7,7,0,0,0,1,.12,7.87,7.87,0,0,0,1,0l.43,0a2,2,0,0,0-.37-.29,2,2,0,0,0-2-.13A1.94,1.94,0,0,0,106,190.35ZM110.83,78a16.86,16.86,0,0,0-2.1-.06,17.22,17.22,0,0,0,2,.71Zm-9.57,15c1,0,3.74-.33,3.74-.33s-2.71-.32-3.74-.32Zm9.92,2.51c-.93-.1-3.41,0-3.41,0s2.43.58,3.36.67Zm-8.9,10.49c1.58-.16,5.69-.9,5.69-.9s-4.15.09-5.72.25Zm9.15,14.88c-1.67-.22-6.06-.47-6.06-.47s4.33.89,6,1.11Zm-8.68,5.5c1,.05,3.62-.16,3.62-.16s-2.6-.44-3.6-.49ZM111.3,133c-2-.27-7.2-.65-7.2-.65s5.16,1,7.14,1.3Zm0,6.14a23,23,0,0,0-3.25.06c-1.15.09-2.12.24-2.12.24s1,0,2.12.09,2.48.2,3.21.26Zm.46,9.38c-1.11.05-4,.52-4,.52s2.92.18,4,.13Zm-8.13,3.09c.33-.12.91-.38,1.44-.55s1-.3,1-.3a7,7,0,0,0-1,0,5.79,5.79,0,0,0-1.54.24Zm8.23,12.11c-.89-.18-2.51-.49-3.9-.83s-2.55-.69-2.55-.69,1.12.51,2.48,1a31.23,31.23,0,0,0,3.88,1.15Zm-.3,3.77a14,14,0,0,0-1.92.09,12.9,12.9,0,0,0,1.87.56Zm.81,5.06c-1-.23-3.77-.5-3.77-.5s2.65.92,3.68,1.14Zm-.18,4.71c-1.51,0-5.47.26-5.47.26s4,.38,5.46.4Zm-.38,10.89c-1.6-.18-5.82-.32-5.82-.32s4.17.79,5.77,1Zm-6.55,3.9a18.74,18.74,0,0,0,2.23-.59,17.61,17.61,0,0,0-2.27-.05Z"/><polygon class="cls-13" points="111.04 86.16 111.03 85.43 101 85.69 111.04 86.16"/><polygon class="cls-13" points="111.37 113.75 111.34 113.03 102 113.38 111.37 113.75"/><polygon class="cls-13" points="111.67 142.71 111.7 142 103.07 143.31 111.67 142.71"/><polygon class="cls-13" points="111.97 169.9 111.97 169.31 104 169.05 111.97 169.9"/><polygon class="cls-115" points="219.38 58.87 159.9 4.67 157.31 2.31 154.74 4.68 95.96 58.99 98.51 61.89 157.33 12.72 216.66 62 219.38 58.87"/><path class="cls-116" d="M139.19,110H120.47q-1.14-17.59-2.29-35.2h21Z"/><path class="cls-117" d="M119.81,89.78c.49,7.72.73,11.58,1.22,19.3h17.69c0-8.21,0-12.31,0-20.52h-2.53c.11,2.27.16,3.4.27,5.67h-1c.14,3.11.21,4.66.34,7.77h-.54l-.15-4.43h-1.23l.05-3.94-2.12-.15c.16,2.69.23,4,.38,6.72h-.61c0-1.48-.06-2.22-.09-3.7l-2.26-.1c.09,2.28.14,3.42.22,5.7l-.51.05c-.15-4.19-.22-6.28-.37-10.47L126,91.43c.11,2,.16,3,.27,4.92h-.71l.25,3.39h-.79c0-2.48-.07-3.73-.11-6.21l-2.44-.15c0-1.52.08-2.28.14-3.8Z"/><path class="cls-18" d="M131.63,75.57q1.13,16.75,2.09,33.51h-2.24q-3.24-16.81-7.1-33.51Zm.79,0q1,16.75,1.89,33.51h1q.33-16.76.79-33.51Z"/><path class="cls-19" d="M118.92,75.44l2.18,35.2h17.77V75.44Zm1.37,1.79h7.62l.28,6.28-7.52-.2Zm.44,7,7.5.2.33,7.68h-7.35Zm.54,8.84h7.33l.34,7.68-7.18.2Zm.55,8.83,7.16-.2.31,7.11h-7Zm15.74,6.91H130l-.18-7.13,7.71-.22Zm0-8.3-7.73.22-.19-7.66h7.92Zm0-8.4h-7.95l-.19-7.65,8.14.21Zm0-8.39-8.16-.22-.16-6.31h8.32Z"/><path class="cls-20" d="M118.18,74.79l2.29,35.2h18.72V74.79Zm1.44,1.79h8l.29,6.29-7.92-.2Zm.46,7,7.9.19.35,7.69h-7.74Zm.58,8.83h7.72l.35,7.69-7.56.2Zm.57,8.84,7.54-.2.33,7.1h-7.42Zm16.57,6.9h-7.92l-.19-7.13,8.11-.21Zm0-8.29-8.13.21-.2-7.66h8.33Zm0-8.4h-8.36l-.2-7.66,8.56.22Zm0-8.4-8.59-.21-.16-6.32h8.75Z"/><polygon class="cls-13" points="139.5 77.34 117.87 76.97 117.33 74.79 140.04 74.79 139.5 77.34"/><polygon class="cls-21" points="140.85 75.51 116.52 75.51 115.98 71.91 141.38 71.91 140.85 75.51"/><polygon class="cls-13" points="139.52 114.72 120.67 114.33 120 112.61 140.19 112.61 139.52 114.72"/><polygon class="cls-21" points="140.91 112.87 119.28 112.87 118.81 109.67 141.38 109.67 140.91 112.87"/><path class="cls-118" d="M176.08,110H194.8q1.15-17.59,2.3-35.2h-21Z"/><path class="cls-119" d="M195.46,89.78c-.49,7.72-.73,11.58-1.22,19.3H176.56c0-8.21,0-12.31,0-20.52h2.53c-.11,2.27-.17,3.4-.27,5.67h1c-.14,3.11-.2,4.66-.34,7.77h.55l.15-4.43h1.23c0-1.58,0-2.37-.06-3.94l2.12-.15c-.15,2.69-.23,4-.37,6.72h.6l.1-3.7,2.25-.1c-.08,2.28-.13,3.42-.22,5.7l.52.05c.14-4.19.22-6.28.36-10.47l2.49-.25c-.11,2-.17,3-.28,4.92h.71c-.1,1.36-.15,2-.24,3.39h.79c.05-2.48.07-3.73.11-6.21l2.43-.15c-.05-1.52-.08-2.28-.13-3.8Z"/><path class="cls-18" d="M190.9,75.57q-3.85,16.7-7.1,33.51h-2.24q1-16.76,2.08-33.51Zm-11.74,0q.45,16.75.78,33.51h1q.87-16.76,1.88-33.51Z"/><path class="cls-19" d="M176.4,75.44v35.2h17.78l2.18-35.2Zm18.21,7.87-7.52.2.27-6.28H195Zm-.55,8.84h-7.35l.34-7.68,7.5-.2Zm-.54,8.84-7.18-.2.33-7.68H194Zm-.49,7.86h-7l.31-7.11,7.16.2Zm-15.31-7.35,7.7.22-.18,7.13h-7.52Zm0-8.39h7.92l-.19,7.66-7.73-.22Zm0-8.4,8.13-.21-.19,7.65h-7.94Zm0-7.48H186l-.16,6.31-8.16.22Z"/><path class="cls-20" d="M176.08,74.79V110H194.8l2.3-35.2Zm19.18,7.88-7.92.2.29-6.29h8Zm-.58,8.84h-7.74l.36-7.69,7.9-.19Zm-.58,8.84-7.55-.2.35-7.69h7.72Zm-.51,7.85h-7.41l.32-7.1,7.54.2Zm-16.12-7.34,8.11.21-.19,7.13h-7.92Zm0-8.4h8.34l-.2,7.66-8.14-.21Zm0-8.39,8.57-.22-.2,7.66h-8.37Zm0-7.49h8.76l-.17,6.32-8.59.21Z"/><polygon class="cls-13" points="175.77 77.34 197.41 76.97 197.95 74.79 175.24 74.79 175.77 77.34"/><polygon class="cls-21" points="174.43 75.51 198.76 75.51 199.29 71.91 173.89 71.91 174.43 75.51"/><polygon class="cls-13" points="175.75 114.72 194.6 114.33 195.27 112.61 175.09 112.61 175.75 114.72"/><polygon class="cls-21" points="174.37 112.87 195.99 112.87 196.47 109.67 173.89 109.67 174.37 112.87"/><path class="cls-120" d="M168.2,110.22H147.88q-.75-19.11-1.49-38.21h22.82Q168.7,91.1,168.2,110.22Z"/><path class="cls-121" d="M147.74,88.27c.31,8.39.46,12.58.77,21h19.2L168.26,87h-2.74c0,2.46.08,3.69.13,6.15h-1.11c.06,3.38.09,5.07.14,8.45h-.59c0-1.93,0-2.89,0-4.81h-1.34c.07-1.72.1-2.57.17-4.29l-2.29-.16c.09,2.92.13,4.38.21,7.3h-.66c0-1.61,0-2.41,0-4l-2.45-.1c0,2.47,0,3.71.08,6.18l-.56.06-.1-11.37-2.69-.27c.06,2.14.1,3.21.16,5.34h-.77c.07,1.47.1,2.21.17,3.68h-.86c0-2.7,0-4,.06-6.74l-2.64-.16.25-4.13Z"/><path class="cls-18" d="M161,72.85q.74,18.2,1.3,36.38h-2.43q-3-18.26-6.75-36.38Zm.86,0q.61,18.2,1.09,36.38H164q.83-18.2,1.81-36.38Z"/><path class="cls-19" d="M147.18,72.71l1.36,38.21h19.3l1-38.21Zm1.44,1.94h8.27l.12,6.82-8.16-.21Zm.27,7.64,8.14.22.14,8.34h-8Zm.34,9.6h8l.14,8.34-7.8.22Zm.34,9.59,7.78-.22.13,7.72h-7.64Zm16.89,7.5h-8.17v-7.74l8.37-.24Zm.23-9-8.39.23V91.89h8.6Zm.24-9.12h-8.62V82.54l8.83.23Zm.25-9.11-8.86-.24V74.65h9Z"/><path class="cls-20" d="M146.39,72l1.49,38.21H168.2l1-38.21ZM147.91,74h8.71l.14,6.82-8.59-.21Zm.3,7.64,8.57.22.16,8.34h-8.4Zm.37,9.6H157l.16,8.34-8.21.22Zm.37,9.59,8.19-.22.15,7.72h-8Zm17.79,7.5h-8.6v-7.74l8.81-.23Zm.24-9-8.84.23V91.19h9.05Zm.24-9.12h-9.08V81.84l9.3.23Zm.24-9.11-9.32-.24V74h9.51Z"/><polygon class="cls-13" points="169.47 74.77 145.99 74.37 145.47 72.01 170.13 72.01 169.47 74.77"/><polygon class="cls-21" points="170.99 72.78 144.57 72.78 144.1 68.88 171.67 68.88 170.99 72.78"/><polygon class="cls-13" points="168.42 115.36 147.97 114.92 147.29 113.06 169.21 113.06 168.42 115.36"/><polygon class="cls-21" points="169.98 113.34 146.5 113.34 146.08 109.87 170.59 109.87 169.98 113.34"/><ellipse class="cls-122" cx="157.56" cy="46.09" rx="13.83" ry="13.11"/><circle class="cls-123" cx="158.44" cy="43.8" r="12.37"/><path class="cls-124" d="M158.44,28.18a14.71,14.71,0,1,0,14.71,14.71A14.72,14.72,0,0,0,158.44,28.18Zm0,28A12.37,12.37,0,1,1,170.81,43.8,12.39,12.39,0,0,1,158.44,56.17Z"/><path class="cls-125" d="M158.35,43.22a24.2,24.2,0,0,1,.83,6.64,24.27,24.27,0,0,1-2.05-6.37c-1-4.65-1.67-10.46-1.67-10.46S157.32,38.57,158.35,43.22Z"/><path class="cls-125" d="M159.11,46.67A11.4,11.4,0,0,1,155,44.82a11.23,11.23,0,0,1,4.46.66,53.05,53.05,0,0,1,6.62,2.58A52.66,52.66,0,0,1,159.11,46.67Z"/><path class="cls-126" d="M157.79,33.26a12.29,12.29,0,0,1,11.3,16.8,12.22,12.22,0,0,0,1.72-6.26,12.36,12.36,0,0,0-24.52-2.23A12.18,12.18,0,0,1,157.79,33.26Z"/><polygon class="cls-4" points="142.1 189.59 139.8 136.63 174.77 136.61 172.91 189.59 142.1 189.59"/><polygon class="cls-20" points="172.09 188.74 142.91 188.74 140.68 137.48 173.89 137.45 172.09 188.74"/><path class="cls-127" d="M158.15,166.79l.36-27.06h13.34l-1,27Zm0,1.3-.23,17.7h12.27l.64-17.6Zm-1.71-1.29-.35-27.07H142.73L144,166.9ZM144,168l.8,17.81h11.87l-.23-17.72Z"/><path class="cls-20" d="M158.92,185.23l.21-15.89,10.82.08-.59,15.81Zm-13.31,0-.73-16,10.56.08.21,15.92Zm-2-44.25h11.47l.34,25.29-10.66.08Zm15.92,0H171l-.92,25.18-10.9.09Z"/><polygon class="cls-13" points="111.8 132.55 116.04 143.17 129.95 143.17 130.75 190.16 145.91 189.81 143.84 144.1 185 143.49 183.19 190.23 192.87 189.9 199.08 143.52 201.49 143.52 203.48 131.8 111.8 132.55"/><polygon class="cls-128" points="208.47 130.42 104.94 130.42 103.71 125.44 210.54 124.65 208.47 130.42"/><polygon class="cls-129" points="204.38 133.22 109.02 133.22 109.04 130.33 204.36 130.33 204.38 133.22"/><polygon class="cls-130" points="135.55 188.59 126.41 188.59 120.4 133.28 133.15 133.28 135.55 188.59"/><polygon class="cls-131" points="135.19 137.11 118.2 137.11 116.69 133.22 136.35 133.22 135.19 137.11"/><polygon class="cls-132" points="137.34 185.27 124.45 185.27 123.3 188.73 138.19 188.63 137.34 185.27"/><polygon class="cls-133" points="126.52 133.28 126.19 136.16 122.28 137.11 127.98 137.11 131.75 183.46 127.25 185.22 132.7 185.27 132.38 187.44 127.98 188.69 136.93 188.69 136.14 185.22 134.07 185.27 132.06 137.11 132.75 137.11 133.55 133.28 126.52 133.28"/><polygon class="cls-134" points="188.01 188.59 178.87 188.59 183.13 133.28 195.87 133.28 188.01 188.59"/><polygon class="cls-135" points="197.2 137.11 180.21 137.11 179.42 133.22 199.08 133.22 197.2 137.11"/><polygon class="cls-136" points="190.41 185.27 177.53 185.27 175.73 188.73 190.64 188.63 190.41 185.27"/><polygon class="cls-133" points="189.24 133.28 188.38 136.16 184.29 137.11 189.99 137.11 185.16 183.46 180.34 185.22 185.77 185.27 185.05 187.44 180.42 188.69 189.37 188.69 189.22 185.22 187.15 185.27 194.08 137.11 194.76 137.11 196.27 133.28 189.24 133.28"/><polygon class="cls-6" points="109.04 130.33 204.36 130.33 204.37 132.03 109.02 131.45 109.04 130.33"/><polygon class="cls-137" points="195.13 193.64 119.04 193.64 118.36 188.76 195.88 188.22 195.13 193.64"/><polygon class="cls-138" points="211.19 199.59 102.95 199.59 101.99 193.76 212.26 193.11 211.19 199.59"/><polygon class="cls-133" points="120.4 193.69 186.39 191.81 186.81 188.88 193.79 188.88 193.26 193.18 120.4 193.69"/><polygon class="cls-133" points="105.89 199.37 193.94 197.47 194.53 194.13 208.45 194.14 207.74 198.82 105.89 199.37"/><polygon class="cls-13" points="98.51 61.89 103.9 62.62 161.06 28.46 212.21 61.65 216.66 62 157.33 12.72 98.51 61.89"/><g class="cls-139"><polygon class="cls-140" points="231.41 -1000.82 -608.21 -203.08 1909.4 27.63 804.81 -1000.82 834.78 -1000.82 2273.61 113.11 -1207.42 113.11 231.41 -1000.82"/><rect class="cls-141" x="120.89" y="-396.94" width="887.95" height="408.25"/></g></g></g></svg>